M48
METRIC,TZ
T1C1.500
T2C1.800
T3C1.900
T4C3.250
%
G90
G05
T1
X7070Y1450
X29252Y70499
X34102Y70499
X110705Y64364
X115555Y64364
X366797Y117457
X371647Y117457
X383917Y50934
X388767Y50934
T2
X28952Y67469
X34402Y67469
X110405Y61334
X115855Y61334
X366497Y114427
X371947Y114427
X383617Y47904
X389067Y47904
T3
X25330Y3820
X29730Y3820
T4
X118855Y5989
X130285Y5989
T0
M30
