M48
METRIC,TZ
T1C0.400
T2C0.600
T3C0.700
T4C0.750
T5C0.800
T6C0.890
T7C0.900
T8C0.920
T9C1.000
T10C1.020
T11C1.100
T12C1.150
T13C1.200
T14C1.300
T15C1.350
T16C1.397
T17C1.500
T18C1.600
T19C1.700
T20C1.900
T21C2.010
T22C2.330
T23C2.800
T24C3.200
%
G90
G05
T1
X9539Y145365
X10357Y134753
X11119Y146437
X12389Y135007
X40623Y138500
X41390Y52430
X41766Y135960
X42147Y132912
X44941Y141421
X48116Y138881
X55342Y8932
X56104Y16552
X62454Y9186
X67040Y137090
X72753Y8482
X80353Y79941
X81160Y50270
X83190Y126980
X102320Y146790
X105780Y159450
X107409Y160963
X107933Y164027
X112759Y164535
X113010Y77780
X115553Y164281
X118093Y164789
X120887Y163011
X128960Y120330
X134603Y163773
X137410Y154000
X138640Y150700
X139480Y154840
X141380Y153330
X145000Y155510
X145080Y158920
X194760Y112830
X196960Y157296
X198484Y157677
X214232Y160471
X214867Y161487
X216645Y162122
X217915Y161868
X219439Y161868
X220709Y161995
X224265Y161614
X224265Y159328
X225027Y160217
X232393Y152851
X235060Y158310
X235568Y85287
X236584Y161995
X237981Y158310
X240140Y158310
X240267Y161614
X240394Y152978
X249498Y159836
X249498Y158693
X251697Y159201
X252713Y163138
X253602Y164281
X254364Y163519
X257610Y160330
X258555Y161741
X259698Y161106
X259710Y152799
X260841Y152799
X278113Y148279
X278875Y149676
X279891Y151200
X285733Y93796
X287511Y161614
X290178Y44139
X290432Y161741
X290559Y159963
X297417Y156788
X300084Y68015
X305164Y73476
X306053Y126562
X308085Y108147
X308091Y109677
X308339Y106750
X308341Y105480
X308341Y92526
X310879Y122244
X322565Y121990
T2
X3588Y66925
X5088Y66925
X47759Y122625
X49259Y122625
X89430Y50235
X90930Y50235
X153277Y118920
X154777Y118920
X191410Y149030
X192910Y149030
X358377Y102180
X358401Y40329
X359877Y102180
X359901Y40329
T3
X9660Y71471
X12759Y67687
X15528Y64156
X25383Y122371
X30463Y122371
X35543Y122371
X42909Y122625
X49060Y15780
X49139Y11718
X52663Y8952
X53150Y98830
X54550Y25300
X55700Y161380
X61210Y161380
X75154Y15790
X75294Y175586
X75823Y9142
X96757Y71444
X97154Y65318
X97743Y89291
X99551Y59252
X99870Y158550
X103742Y151200
X105390Y47860
X108070Y27560
X109203Y116021
X114283Y116021
X119363Y116021
X127960Y27842
X127999Y150311
X128214Y23524
X132336Y25533
X132336Y21596
X135960Y92130
X140110Y92280
X154690Y129010
X159578Y91539
X164260Y91530
X180958Y134055
X191118Y142945
X195919Y58597
X195944Y37974
X196173Y77825
X197595Y148025
X202777Y58597
X203056Y38101
X203285Y77825
X210016Y58464
X210295Y37968
X210346Y97092
X210422Y116636
X210600Y135872
X210778Y77692
X217255Y58464
X217280Y116636
X217280Y37968
X217458Y97219
X217712Y135872
X217890Y77692
X224519Y116503
X224697Y97086
X225002Y58464
X225129Y77697
X225205Y135740
X231682Y97086
X231733Y58464
X231758Y116503
X232114Y77692
X232317Y135740
X239505Y116503
X239556Y135745
X245931Y58318
X246185Y77342
X246236Y116503
X246251Y37725
X246541Y135740
X252789Y58318
X253297Y77342
X253363Y37852
X260028Y58185
X260028Y38805
X260638Y97230
X260714Y116775
X260790Y77210
X260892Y136011
X263686Y38805
X267267Y58185
X267902Y77210
X268004Y136011
X268004Y97357
X268080Y116775
X274811Y116642
X274989Y97225
X275014Y58185
X275141Y77215
X275497Y135879
X281745Y58185
X281974Y97225
X282050Y116642
X282126Y77210
X282609Y135879
X289797Y116642
X289848Y135884
X290051Y164662
X296528Y116642
X296833Y135879
X303132Y175203
X303180Y178990
X330945Y168726
X337676Y110306
X339835Y116402
X343391Y117928
X345423Y114626
X348979Y169617
X352129Y114601
X354313Y109163
X358377Y65096
X360409Y56206
X360409Y49729
X365083Y170989
X370036Y170862
X370929Y47824
X374862Y170862
X382507Y102942
X386698Y102942
X390889Y102942
T4
X20608Y36013
X20608Y34743
X20608Y33473
X23220Y170820
X23220Y169550
X23220Y168280
X39140Y165670
X39140Y164400
X39140Y163130
X98281Y53537
X99551Y53537
X100821Y53537
X133333Y40837
X133333Y39567
X133333Y38297
X343010Y186125
X343010Y184855
X343010Y183585
X355435Y186125
X355435Y184855
X355435Y183585
X368135Y186125
X368135Y184855
X368135Y183585
T5
X4510Y181470
X4510Y171310
X5266Y118893
X5266Y108733
X8670Y118893
X8670Y108733
X11794Y181426
X11794Y171266
X20760Y50567
X20760Y42947
X25250Y49580
X25250Y39420
X27960Y171390
X27960Y161230
X33700Y171390
X33700Y161230
X44020Y183950
X44020Y176330
X44179Y172790
X44179Y165170
X45270Y56890
X45270Y46730
X48810Y53520
X48810Y43360
X49767Y180156
X49767Y169996
X60425Y46689
X60425Y44149
X60425Y41609
X60425Y39069
X66785Y168474
X66785Y160854
X67290Y184650
X67290Y174490
X68045Y46689
X68045Y44149
X68045Y41609
X68045Y39069
X70976Y172155
X70976Y164535
X75040Y172155
X75040Y164535
X82073Y17228
X82073Y9608
X86970Y22980
X86970Y15360
X90460Y93288
X90460Y83128
X91598Y22943
X91598Y12783
X92693Y73603
X92693Y63443
X97440Y23070
X97440Y12910
X103536Y25610
X103536Y17990
X107660Y17680
X107660Y10060
X126400Y52560
X126400Y42400
X139810Y52560
X139810Y42400
X191010Y102360
X191010Y92200
X217560Y179560
X217560Y169400
X260143Y21931
X260143Y11771
X317879Y67522
X317879Y64982
X317879Y62442
X317879Y59902
X317879Y57362
X317879Y54822
X317879Y52282
X317879Y49742
X318006Y93303
X318006Y90763
X318006Y88223
X318006Y85683
X318006Y83143
X318006Y80603
X318006Y78063
X318006Y75523
X318260Y143849
X318260Y141309
X318260Y138769
X318260Y136229
X318260Y133689
X318260Y131149
X318260Y128609
X318260Y126069
X318499Y119196
X318499Y116656
X318499Y114116
X318499Y111576
X318499Y109036
X318499Y106496
X318499Y103956
X318499Y101416
X325499Y67522
X325499Y64982
X325499Y62442
X325499Y59902
X325499Y57362
X325499Y54822
X325499Y52282
X325499Y49742
X325626Y93303
X325626Y90763
X325626Y88223
X325626Y85683
X325626Y83143
X325626Y80603
X325626Y78063
X325626Y75523
X325880Y143849
X325880Y141309
X325880Y138769
X325880Y136229
X325880Y133689
X325880Y131149
X325880Y128609
X325880Y126069
X326119Y119196
X326119Y116656
X326119Y114116
X326119Y111576
X326119Y109036
X326119Y106496
X326119Y103956
X326119Y101416
X335659Y167852
X335659Y165312
X335659Y162772
X335659Y160232
X335659Y157692
X335659Y155152
X335659Y152612
X335659Y150072
X336660Y189427
X336660Y179267
X342263Y109432
X342263Y106892
X342263Y104352
X342263Y101812
X342263Y99272
X342263Y96732
X342263Y94192
X342263Y91652
X343279Y167852
X343279Y165312
X343279Y162772
X343279Y160232
X343279Y157692
X343279Y155152
X343279Y152612
X343279Y150072
X349040Y155160
X349040Y145000
X349106Y189173
X349106Y179013
X349240Y132200
X349240Y122040
X349883Y109432
X349883Y106892
X349883Y104352
X349883Y101812
X349883Y99272
X349883Y96732
X349883Y94192
X349883Y91652
X361552Y189046
X361552Y178886
X364240Y83030
X364240Y72870
X365646Y62810
X365646Y52650
X386038Y179955
X386038Y169795
T6
X317450Y13460
X319990Y13460
X342880Y13600
X345420Y13600
X368540Y13450
X371080Y13450
X393630Y13510
X396170Y13510
T7
X4042Y189681
X6582Y189681
X11662Y189681
X14202Y189681
X14401Y115649
X14401Y113100
X14401Y108029
X14401Y105489
X14401Y102940
X14401Y100400
X14401Y95329
X14401Y92789
X14401Y90494
X14401Y87700
X14401Y82620
X14401Y80089
X14401Y75009
X15640Y176930
X15701Y168853
X17001Y115649
X17001Y113100
X17001Y108029
X17001Y105489
X17001Y102940
X17001Y100400
X17001Y95329
X17001Y92789
X17001Y90494
X17001Y87700
X17001Y82620
X17001Y80089
X17001Y75009
X18240Y176930
X18301Y168853
X24200Y147326
X24297Y144151
X24297Y140849
X24297Y137547
X24297Y132975
X26800Y147326
X26897Y144151
X26897Y140849
X26897Y137547
X26897Y132975
X31703Y144612
X31703Y140167
X31703Y135722
X31703Y132785
X34303Y144612
X34303Y140167
X34303Y135722
X34303Y132785
X37490Y171550
X40090Y171550
X45770Y115640
X45770Y113100
X45770Y108020
X45770Y105489
X45770Y102949
X45770Y100400
X45770Y95320
X45770Y92789
X45770Y90240
X45770Y87709
X45770Y82620
X45770Y80080
X45770Y77540
X45770Y75009
X45770Y69929
X45770Y67389
X48370Y115640
X48370Y113100
X48370Y108020
X48370Y105489
X48370Y102949
X48370Y100400
X48370Y95320
X48370Y92789
X48370Y90240
X48370Y87709
X48370Y82620
X48370Y80080
X48370Y77540
X48370Y75009
X48370Y69929
X48370Y67389
X53230Y22080
X54309Y47949
X54309Y44647
X54309Y41091
X54309Y37789
X55830Y22080
X56909Y47949
X56909Y44647
X56909Y41091
X56909Y37789
X69530Y22190
X72130Y22190
X72388Y46830
X72388Y43377
X72388Y39567
X73359Y183331
X73359Y180156
X74988Y46830
X74988Y43377
X74988Y39567
X75959Y183331
X75959Y180156
X80882Y178662
X80882Y176062
X82620Y145810
X82620Y143250
X82620Y140510
X82620Y137620
X82620Y134890
X82630Y132520
X82700Y129910
X84311Y178662
X84311Y176062
X85220Y145810
X85220Y143250
X85220Y140510
X85220Y137620
X85220Y134890
X85230Y132520
X85300Y129910
X87613Y178662
X87613Y176062
X90788Y178662
X90788Y176062
X94217Y175868
X94217Y173268
X94830Y45620
X95981Y109514
X95981Y106974
X95981Y101894
X95981Y99354
X95981Y96814
X95981Y94274
X95981Y92180
X95981Y86654
X95981Y84114
X95981Y81574
X95981Y76494
X95981Y68874
X97138Y174598
X97138Y171998
X97430Y45620
X97519Y179805
X97519Y177205
X98581Y109514
X98581Y106974
X98581Y101894
X98581Y99354
X98581Y96814
X98581Y94274
X98581Y92180
X98581Y86654
X98581Y84114
X98581Y81574
X98581Y76494
X98581Y68874
X100059Y179805
X100059Y177205
X100059Y174471
X100059Y171871
X102599Y179805
X102599Y177205
X102599Y174471
X102599Y171871
X102599Y169137
X102599Y166537
X103076Y14722
X103076Y12122
X105139Y179805
X105139Y177205
X105139Y174471
X105139Y171871
X105139Y169137
X105139Y166537
X107679Y179805
X107679Y177205
X107679Y174471
X107679Y171871
X107679Y169137
X107679Y166537
X108120Y24190
X108120Y21590
X110219Y179805
X110219Y177205
X110219Y174471
X110219Y171871
X110219Y169137
X110219Y166537
X112759Y179805
X112759Y177205
X112759Y174471
X112759Y171871
X112759Y169137
X112759Y166537
X115299Y179805
X115299Y177205
X115299Y174471
X115299Y171871
X115299Y169137
X115299Y166537
X117839Y179805
X117839Y177205
X117839Y174471
X117839Y171871
X117839Y169137
X117839Y166537
X120125Y12339
X120379Y179805
X120379Y177205
X120379Y174471
X120379Y171871
X120379Y169137
X120379Y166537
X121395Y14879
X122665Y12339
X122919Y179805
X122919Y177205
X122919Y174471
X122919Y171871
X122919Y169137
X122919Y166537
X123935Y14879
X125205Y179805
X125205Y177205
X125205Y12339
X125459Y174471
X125459Y171871
X126475Y14879
X127731Y109514
X127731Y106974
X127731Y101894
X127731Y99354
X127731Y96814
X127731Y94274
X127731Y90361
X127731Y86654
X127731Y84114
X127731Y81574
X127731Y76494
X127731Y73954
X127731Y71414
X127731Y68874
X127731Y63794
X127731Y61254
X127745Y12339
X128761Y179805
X128761Y177205
X129015Y169137
X129015Y166537
X129015Y14879
X130331Y109514
X130331Y106974
X130331Y101894
X130331Y99354
X130331Y96814
X130331Y94274
X130331Y90361
X130331Y86654
X130331Y84114
X130331Y81574
X130331Y76494
X130331Y73954
X130331Y71414
X130331Y68874
X130331Y63794
X130331Y61254
X131809Y179805
X131809Y177205
X131809Y174471
X131809Y171871
X131809Y169137
X131809Y166537
X135365Y174471
X135365Y171871
X135365Y169137
X135365Y166537
X135619Y179805
X135619Y177205
X137547Y88491
X137547Y85443
X137547Y81950
X137547Y78458
X137671Y72552
X137671Y68107
X137671Y63662
X137671Y59852
X137801Y110400
X137801Y105828
X137801Y101383
X137801Y97700
X138159Y179805
X138159Y177205
X138159Y174471
X138159Y171871
X138159Y169137
X138159Y166537
X140147Y88491
X140147Y85443
X140147Y81950
X140147Y78458
X140271Y72552
X140271Y68107
X140271Y63662
X140271Y59852
X140401Y110400
X140401Y105828
X140401Y101383
X140401Y97700
X140699Y179805
X140699Y177205
X140699Y174471
X140699Y171871
X143493Y179805
X143493Y177205
X143493Y174471
X143493Y171871
X145779Y179805
X145779Y177205
X145779Y174471
X145779Y171871
X145779Y169137
X145779Y166537
X148319Y179805
X148319Y177205
X148319Y174471
X148319Y171871
X148319Y169137
X148319Y166537
X150575Y145230
X150575Y142070
X150575Y138980
X150575Y135890
X150575Y132750
X150610Y126780
X150859Y179835
X150859Y177235
X150859Y174471
X150859Y171871
X150859Y169137
X150859Y166537
X153175Y145230
X153175Y142070
X153175Y138980
X153175Y135890
X153175Y132750
X153210Y126780
X153399Y179805
X153399Y177205
X153399Y174471
X153399Y171871
X153399Y169137
X153399Y166537
X154320Y20160
X154320Y17560
X155939Y179805
X155939Y177205
X155939Y174471
X155939Y171871
X155939Y169137
X155939Y166537
X157622Y20160
X157622Y17560
X158278Y110400
X158402Y72552
X158402Y68742
X158402Y64297
X158402Y59852
X158405Y97700
X158405Y87856
X158405Y84808
X158405Y81506
X158405Y78458
X158479Y179805
X158479Y177205
X158479Y174471
X158479Y171871
X158479Y169137
X158479Y166537
X158532Y106463
X158532Y102018
X160878Y110400
X161002Y72552
X161002Y68742
X161002Y64297
X161002Y59852
X161005Y97700
X161005Y87856
X161005Y84808
X161005Y81506
X161005Y78458
X161019Y179805
X161019Y177205
X161019Y174471
X161019Y171871
X161019Y169137
X161019Y166537
X161132Y106463
X161132Y102018
X163559Y179805
X163559Y177205
X163559Y174471
X163559Y171871
X163559Y169137
X163559Y166537
X163559Y28675
X163559Y26075
X166099Y179805
X166099Y177205
X166099Y174471
X166099Y171871
X166099Y169137
X166099Y166537
X166353Y28675
X166353Y26075
X168639Y179835
X168639Y177235
X168639Y174471
X168639Y171871
X168639Y169137
X168639Y166537
X168893Y28675
X168893Y26075
X171179Y179805
X171179Y177205
X171179Y174471
X171179Y171871
X171179Y169137
X171179Y166537
X171687Y28675
X171687Y26075
X173719Y179805
X173719Y177205
X173719Y174441
X173719Y171841
X173719Y169137
X173719Y166537
X178515Y172790
X178515Y169615
X178515Y166821
X180323Y24103
X180323Y21503
X181115Y172790
X181115Y169615
X181115Y166821
X182863Y24103
X182863Y21503
X184423Y9341
X184611Y146374
X184611Y143453
X185403Y24103
X185403Y21503
X187023Y9341
X187211Y146374
X187211Y143453
X187943Y24103
X187943Y21503
X189450Y16000
X191880Y87026
X191880Y84426
X191880Y70389
X191880Y67789
X192007Y52990
X192007Y50390
X192050Y16000
X195025Y144596
X195025Y141802
X196960Y185490
X196960Y182315
X196960Y178632
X196960Y173806
X196960Y169234
X196960Y165551
X197625Y144596
X197625Y141802
X199560Y185490
X199560Y182315
X199560Y178632
X199560Y173806
X199560Y169234
X199560Y165551
X203660Y187480
X203661Y190951
X203661Y184474
X206260Y187480
X206261Y190951
X206261Y184474
X206358Y145231
X206358Y142631
X206358Y128594
X206358Y125994
X206358Y73056
X206358Y70456
X206470Y91916
X206470Y89316
X206485Y111195
X206485Y108595
X206597Y53054
X206597Y50454
X206597Y47339
X206597Y44739
X207105Y86709
X207105Y84109
X207247Y67595
X207247Y64995
X220709Y92106
X220709Y89506
X220709Y86893
X220709Y84293
X220836Y131261
X220836Y128661
X220948Y150121
X220948Y147521
X220948Y57372
X220948Y54772
X221075Y111259
X221075Y108659
X221075Y105544
X221075Y102944
X221075Y52165
X221075Y49565
X221210Y175080
X221583Y144914
X221583Y142314
X221598Y67341
X221598Y64741
X221598Y47085
X221598Y44485
X221725Y125800
X221725Y123200
X221725Y72929
X221725Y70329
X222838Y38579
X223810Y175080
X225438Y38579
X228812Y179551
X228812Y176951
X228837Y169264
X228837Y166664
X228862Y174441
X228862Y171841
X231353Y179551
X231353Y176951
X231377Y169264
X231377Y166664
X231401Y174441
X231401Y171841
X233894Y179551
X233894Y176951
X233917Y169264
X233917Y166664
X233940Y174441
X233940Y171841
X235187Y150311
X235187Y147711
X235187Y145098
X235187Y142498
X235187Y52984
X235187Y50384
X235426Y115577
X235426Y112977
X235553Y110370
X235553Y107770
X235949Y57683
X235949Y55083
X235949Y47275
X235949Y44675
X236076Y125546
X236076Y122946
X236076Y105290
X236076Y102690
X236203Y131134
X236203Y128534
X236203Y90074
X236203Y87474
X236203Y69119
X236203Y66519
X236436Y179551
X236436Y176951
X236457Y169264
X236457Y166664
X236479Y174441
X236479Y171841
X237316Y97449
X238977Y179551
X238977Y176951
X238997Y169264
X238997Y166664
X239018Y174441
X239018Y171841
X239916Y97449
X241519Y179551
X241519Y176951
X241537Y169264
X241537Y166664
X241557Y174441
X241557Y171841
X242187Y86777
X242187Y84177
X242187Y70140
X242187Y67540
X242314Y52741
X242314Y50141
X244060Y179551
X244060Y176951
X244077Y169264
X244077Y166664
X244096Y174441
X244096Y171841
X246601Y179551
X246601Y176951
X246617Y169264
X246617Y166664
X246635Y174441
X246635Y171841
X249143Y179551
X249143Y176951
X249157Y169264
X249157Y166664
X249174Y174441
X249174Y171841
X249665Y111189
X249665Y108589
X250427Y115888
X250427Y113288
X250427Y105480
X250427Y102880
X250681Y148279
X250681Y145679
X250681Y127324
X250681Y124724
X251684Y179551
X251684Y176951
X251697Y169264
X251697Y166664
X251712Y174441
X251712Y171841
X254226Y179551
X254226Y176951
X254237Y169294
X254237Y166694
X254251Y174441
X254251Y171841
X256650Y145370
X256650Y142770
X256650Y128733
X256650Y126133
X256665Y72807
X256665Y70207
X256665Y51725
X256665Y49125
X256767Y179551
X256767Y176951
X256777Y169294
X256777Y166694
X256777Y111334
X256777Y108734
X256790Y174441
X256790Y171841
X257133Y47039
X257133Y44439
X257412Y91540
X257412Y88940
X257412Y86460
X257412Y83860
X257554Y67346
X257554Y64746
X259309Y179551
X259309Y176951
X259317Y174441
X259317Y171841
X259317Y169294
X259317Y166694
X261850Y179551
X261850Y176951
X261857Y169264
X261857Y166664
X261868Y174441
X261868Y171841
X264391Y179551
X264391Y176951
X264397Y169264
X264397Y166664
X264407Y174441
X264407Y171841
X266933Y179551
X266933Y176951
X266937Y169264
X266937Y166664
X266946Y174441
X266946Y171841
X269474Y179551
X269474Y176951
X269485Y174441
X269485Y171841
X269604Y169264
X269604Y166664
X271016Y91857
X271016Y89257
X271016Y86644
X271016Y84044
X271016Y55656
X271016Y53056
X271128Y131400
X271128Y128800
X271128Y110318
X271128Y107718
X271905Y67092
X271905Y64492
X271905Y50455
X271905Y47855
X272016Y179551
X272016Y176951
X272017Y148164
X272017Y145564
X272017Y143084
X272017Y140484
X272017Y125939
X272017Y123339
X272017Y104730
X272017Y102130
X272024Y174441
X272024Y171841
X272032Y72680
X272032Y70080
X272144Y169264
X272144Y166664
X272347Y45540
X272347Y42940
X274557Y179551
X274557Y176951
X274557Y169264
X274557Y166664
X274563Y174441
X274563Y171841
X276043Y38791
X277097Y179551
X277097Y176951
X277097Y169264
X277097Y166664
X277101Y174441
X277101Y171841
X278643Y38791
X279637Y179551
X279637Y176951
X279637Y169264
X279637Y166664
X279640Y174441
X279640Y171841
X282177Y179551
X282177Y176951
X282177Y169264
X282177Y166664
X282179Y174441
X282179Y171841
X284717Y179551
X284717Y176951
X284717Y169264
X284717Y166664
X284718Y174441
X284718Y171841
X285479Y114249
X285479Y111649
X285494Y52735
X285494Y50135
X286114Y143610
X286114Y141010
X286256Y57434
X286256Y54834
X286256Y47026
X286256Y44426
X286368Y125685
X286368Y123085
X286368Y109048
X286368Y106448
X286368Y104095
X286368Y101495
X286495Y148817
X286495Y146217
X286495Y131273
X286495Y128673
X286510Y89825
X286510Y87225
X286510Y68870
X286510Y66270
X287257Y179551
X287257Y176951
X287257Y174441
X287257Y171841
X287257Y169264
X287257Y166664
X287608Y97352
X290208Y97352
X292337Y179551
X292337Y176951
X292464Y174344
X292464Y171744
X292464Y169264
X292464Y166664
X294877Y169264
X294877Y166664
X294898Y179551
X294898Y176951
X297417Y174344
X297417Y171744
X297459Y179551
X297459Y176951
X297544Y169264
X297544Y166664
X300592Y116559
X300592Y113959
X300592Y111328
X300592Y108728
X300719Y147039
X300719Y144439
X300719Y105619
X300719Y103019
X300973Y127463
X300973Y124863
X306561Y178535
X306561Y175935
X309863Y178535
X309863Y175935
X310849Y64967
X310849Y62427
X310849Y59887
X310849Y57347
X310849Y54807
X310849Y52267
X310849Y49727
X311357Y114116
X311357Y109036
X311357Y103956
X311439Y111561
X311469Y116641
X311469Y106481
X311469Y101401
X311611Y90748
X311611Y88208
X311611Y85668
X311611Y83128
X311611Y80588
X311611Y78048
X311611Y75508
X311880Y141294
X311880Y138769
X311880Y136214
X311880Y133689
X311880Y131134
X311880Y128609
X311880Y126069
X312403Y178535
X312403Y175935
X313449Y64967
X313449Y62427
X313449Y59887
X313449Y57347
X313449Y54807
X313449Y52267
X313449Y49727
X313957Y114116
X313957Y109036
X313957Y103956
X314039Y111561
X314069Y116641
X314069Y106481
X314069Y101401
X314211Y90748
X314211Y88208
X314211Y85668
X314211Y83128
X314211Y80588
X314211Y78048
X314211Y75508
X314480Y141294
X314480Y138769
X314480Y136214
X314480Y133689
X314480Y131134
X314480Y128609
X314480Y126069
X319875Y178632
X319875Y176032
X321941Y28111
X321941Y25511
X322436Y178632
X322436Y176032
X324989Y28111
X324989Y25511
X326098Y178662
X326098Y176062
X328151Y184377
X328151Y181777
X328659Y178662
X328659Y176062
X329264Y165297
X329264Y162757
X329264Y160217
X329264Y157677
X329264Y155137
X329264Y152597
X329264Y150057
X330818Y184377
X330818Y181777
X331864Y165297
X331864Y162757
X331864Y160217
X331864Y157677
X331864Y155137
X331864Y152597
X331864Y150057
X335853Y101812
X335853Y96732
X335868Y106892
X335868Y104352
X335868Y99272
X335868Y94192
X335868Y91637
X338453Y101812
X338453Y96732
X338468Y106892
X338468Y104352
X338468Y99272
X338468Y94192
X338468Y91637
X341583Y180410
X342756Y28391
X342756Y25791
X344183Y180410
X345677Y28421
X345677Y25821
X352353Y162632
X352353Y160016
X352353Y155012
X352353Y152472
X352353Y149932
X352353Y147316
X352353Y142312
X352353Y139950
X352353Y137410
X352353Y134692
X352353Y129612
X352353Y127072
X352353Y121992
X354029Y180156
X354953Y162632
X354953Y160016
X354953Y155012
X354953Y152472
X354953Y149932
X354953Y147316
X354953Y142312
X354953Y139950
X354953Y137410
X354953Y134692
X354953Y129612
X354953Y127072
X354953Y121992
X356629Y180156
X366475Y180029
X367930Y29200
X367930Y26600
X369075Y180029
X369629Y93544
X369629Y80844
X369629Y60524
X369650Y55571
X369680Y96160
X369680Y88464
X369680Y85746
X369680Y75764
X369680Y73300
X369680Y70684
X369680Y68144
X369680Y63064
X369747Y83384
X370442Y29183
X370442Y26583
X372229Y93544
X372229Y80844
X372229Y60524
X372250Y55571
X372280Y96160
X372280Y88464
X372280Y85746
X372280Y75764
X372280Y73300
X372280Y70684
X372280Y68144
X372280Y63064
X372347Y83384
X382752Y121967
X382782Y160067
X382782Y147367
X382782Y139747
X382782Y134667
X382782Y114347
X382833Y162607
X382833Y154987
X382833Y149830
X382833Y142287
X382833Y137384
X382833Y129587
X382833Y126970
X382833Y124430
X382833Y116887
X382883Y152320
X385352Y121967
X385382Y160067
X385382Y147367
X385382Y139747
X385382Y134667
X385382Y114347
X385433Y162607
X385433Y154987
X385433Y149830
X385433Y142287
X385433Y137384
X385433Y129587
X385433Y126970
X385433Y124430
X385433Y116887
X385483Y152320
X386636Y29350
X386636Y26750
X389450Y29350
X389450Y26750
X398383Y189681
X399779Y96084
X399779Y93544
X399779Y88464
X399779Y85924
X399779Y83384
X399779Y80844
X399779Y75764
X399779Y73224
X399779Y70684
X399779Y68144
X399779Y63064
X399779Y60524
X399779Y57984
X399779Y55444
X399779Y50364
X399779Y47824
X400923Y189681
X402379Y96084
X402379Y93544
X402379Y88464
X402379Y85924
X402379Y83384
X402379Y80844
X402379Y75764
X402379Y73224
X402379Y70684
X402379Y68144
X402379Y63064
X402379Y60524
X402379Y57984
X402379Y55444
X402379Y50364
X402379Y47824
T8
X148440Y10048
X148440Y8048
X150940Y10048
X150940Y8048
T9
X20644Y147408
X20644Y144868
X20644Y142328
X20644Y139788
X20644Y137248
X20644Y134708
X38083Y145231
X38083Y142691
X38083Y140151
X38083Y137611
X38083Y135071
X38083Y132531
X46840Y39010
X46840Y36470
X46840Y33930
X54658Y179272
X54658Y176732
X54658Y174192
X54658Y171652
X54658Y169112
X57051Y4352
X58436Y1512
X58449Y75297
X58449Y72757
X58449Y70217
X58449Y67677
X58449Y65137
X58449Y62597
X58449Y60057
X58449Y57517
X58449Y54977
X58449Y52437
X58472Y104074
X58472Y101534
X58472Y98994
X58472Y96454
X58472Y93914
X58472Y91374
X58472Y88834
X58472Y86294
X58472Y83754
X58472Y81214
X58733Y30035
X58733Y21116
X58784Y132531
X58784Y129991
X58784Y127451
X58784Y124911
X58784Y122371
X58784Y119831
X58784Y117291
X58784Y114751
X58784Y112211
X58784Y109671
X59821Y4352
X61206Y1512
X61273Y30035
X61273Y21116
X62278Y179272
X62278Y176732
X62278Y174192
X62278Y171652
X62278Y169112
X62591Y4352
X63813Y30035
X63813Y21116
X63976Y1512
X65361Y4352
X66353Y30035
X66353Y21116
X66746Y1512
X68131Y4352
X71149Y75297
X71149Y72757
X71149Y70217
X71149Y67677
X71149Y65137
X71149Y62597
X71149Y60057
X71149Y57517
X71149Y54977
X71149Y52437
X71172Y104079
X71172Y101539
X71172Y98999
X71172Y96459
X71172Y93919
X71172Y91379
X71172Y88839
X71172Y86299
X71172Y83759
X71172Y81219
X71359Y132531
X71359Y129991
X71359Y127451
X71359Y124911
X71359Y122371
X71359Y119831
X71359Y117291
X71359Y114751
X71359Y112211
X71359Y109671
X89010Y145360
X89010Y142820
X89010Y140280
X89010Y137740
X89010Y135200
X89010Y132660
X89010Y130120
X89010Y127580
X94852Y188335
X94852Y185795
X94852Y183255
X97392Y188335
X97392Y185795
X97392Y183255
X99932Y188335
X99932Y185795
X99932Y183255
X102472Y188335
X102472Y185795
X102472Y183255
X105012Y188335
X105012Y185795
X105012Y183255
X107552Y188335
X107552Y185795
X107552Y183255
X110092Y188335
X110092Y185795
X110092Y183255
X112632Y188335
X112632Y185795
X112632Y183255
X115172Y188335
X115172Y185795
X115172Y183255
X117712Y188335
X117712Y185795
X117712Y183255
X120252Y188335
X120252Y185795
X120252Y183255
X122792Y188335
X122792Y185795
X122792Y183255
X125332Y188335
X125332Y185795
X125332Y183255
X127872Y188335
X127872Y185795
X127872Y183255
X130412Y188335
X130412Y185795
X130412Y183255
X132952Y188335
X132952Y185795
X132952Y183255
X135492Y188335
X135492Y185795
X135492Y183255
X138032Y188335
X138032Y185795
X138032Y183255
X140572Y188335
X140572Y185795
X140572Y183255
X143112Y188335
X143112Y185795
X143112Y183255
X143856Y110243
X143856Y107703
X143856Y105163
X143856Y102623
X143856Y100083
X143856Y97543
X143862Y91221
X143862Y88681
X143862Y86141
X143862Y83601
X143862Y81061
X143862Y78521
X144148Y72552
X144148Y70012
X144148Y67472
X144148Y64932
X144148Y62392
X144148Y59852
X145652Y188335
X145652Y185795
X145652Y183255
X147430Y145360
X147430Y142820
X147430Y140280
X147430Y137740
X147430Y135200
X147430Y132660
X147430Y130120
X147430Y127580
X148192Y188335
X148192Y185795
X148192Y183255
X150732Y188335
X150732Y185795
X150732Y183255
X153272Y188335
X153272Y185795
X153272Y183255
X154270Y110243
X154270Y107703
X154270Y105163
X154270Y102623
X154270Y100083
X154270Y97543
X154276Y91221
X154276Y88681
X154276Y86141
X154276Y83601
X154276Y81061
X154276Y78521
X154308Y72552
X154308Y70012
X154308Y67472
X154308Y64932
X154308Y62392
X154308Y59852
X155695Y46679
X155812Y188335
X155812Y185795
X155812Y183255
X158352Y188335
X158352Y185795
X158352Y183255
X160892Y188335
X160892Y185795
X160892Y183255
X163295Y46679
X163432Y188335
X163432Y185795
X163432Y183255
X165972Y188335
X165972Y185795
X165972Y183255
X168512Y188335
X168512Y185795
X168512Y183255
X171052Y188335
X171052Y185795
X171052Y183255
X173592Y188335
X173592Y185795
X173592Y183255
X185341Y176097
X185341Y173557
X185341Y171017
X185341Y168477
X185341Y165937
X192961Y176097
X192961Y173557
X192961Y171017
X192961Y168477
X192961Y165937
X195690Y92076
X195690Y89536
X195690Y86996
X195690Y84456
X195690Y81916
X195690Y72790
X195690Y70250
X195690Y67710
X195690Y65170
X195690Y62630
X195690Y53462
X195690Y50922
X195690Y48382
X195690Y45842
X195690Y43302
X203310Y92076
X203310Y89536
X203310Y86996
X203310Y84456
X203310Y81916
X203310Y72790
X203310Y70250
X203310Y67710
X203310Y65170
X203310Y62630
X203310Y53462
X203310Y50922
X203310Y48382
X203310Y45842
X203310Y43302
X204645Y179780
X204645Y177240
X204645Y174700
X204645Y172160
X204645Y169620
X210168Y150281
X210168Y147741
X210168Y145201
X210168Y142661
X210168Y140121
X210168Y130995
X210168Y128455
X210168Y125915
X210168Y123375
X210168Y120835
X210168Y111667
X210168Y109127
X210168Y106587
X210168Y104047
X210168Y101507
X210168Y53305
X210168Y50765
X210168Y48225
X210168Y45685
X210168Y43145
X210176Y92076
X210176Y89536
X210176Y86996
X210176Y84456
X210176Y81916
X210176Y72657
X210176Y70117
X210176Y67577
X210176Y65037
X210176Y62497
X212265Y179780
X212265Y177240
X212265Y174700
X212265Y172160
X212265Y169620
X217788Y150281
X217788Y147741
X217788Y145201
X217788Y142661
X217788Y140121
X217788Y130995
X217788Y128455
X217788Y125915
X217788Y123375
X217788Y120835
X217788Y111667
X217788Y109127
X217788Y106587
X217788Y104047
X217788Y101507
X217788Y53305
X217788Y50765
X217788Y48225
X217788Y45685
X217788Y43145
X217796Y92076
X217796Y89536
X217796Y86996
X217796Y84456
X217796Y81916
X217796Y72657
X217796Y70117
X217796Y67577
X217796Y65037
X217796Y62497
X224646Y111510
X224646Y108970
X224646Y106430
X224646Y103890
X224646Y101350
X224646Y92018
X224646Y89478
X224646Y86938
X224646Y84398
X224646Y81858
X224646Y72669
X224646Y70129
X224646Y67589
X224646Y65049
X224646Y62509
X224654Y150281
X224654Y147741
X224654Y145201
X224654Y142661
X224654Y140121
X224654Y130863
X224654Y128323
X224654Y125783
X224654Y123243
X224654Y120703
X224661Y53189
X224661Y50649
X224661Y48109
X224661Y45569
X224661Y43029
X228888Y188335
X228888Y185795
X228888Y183255
X231428Y188335
X231428Y185795
X231428Y183255
X232266Y111510
X232266Y108970
X232266Y106430
X232266Y103890
X232266Y101350
X232266Y92018
X232266Y89478
X232266Y86938
X232266Y84398
X232266Y81858
X232266Y72669
X232266Y70129
X232266Y67589
X232266Y65049
X232266Y62509
X232274Y150281
X232274Y147741
X232274Y145201
X232274Y142661
X232274Y140121
X232274Y130863
X232274Y128323
X232274Y125783
X232274Y123243
X232274Y120703
X232281Y53189
X232281Y50649
X232281Y48109
X232281Y45569
X232281Y43029
X233968Y188335
X233968Y185795
X233968Y183255
X236508Y188335
X236508Y185795
X236508Y183255
X239048Y188335
X239048Y185795
X239048Y183255
X239124Y150223
X239124Y147683
X239124Y145143
X239124Y142603
X239124Y140063
X239124Y130874
X239124Y128334
X239124Y125794
X239124Y123254
X239124Y120714
X239141Y111444
X239141Y108904
X239141Y106364
X239141Y103824
X239141Y101284
X241588Y188335
X241588Y185795
X241588Y183255
X244128Y188335
X244128Y185795
X244128Y183255
X245997Y91827
X245997Y89287
X245997Y86747
X245997Y84207
X245997Y81667
X245997Y72541
X245997Y70001
X245997Y67461
X245997Y64921
X245997Y62381
X245997Y53161
X245997Y50621
X245997Y48081
X245997Y45541
X245997Y43001
X246668Y188335
X246668Y185795
X246668Y183255
X246744Y150223
X246744Y147683
X246744Y145143
X246744Y142603
X246744Y140063
X246744Y130874
X246744Y128334
X246744Y125794
X246744Y123254
X246744Y120714
X246761Y111444
X246761Y108904
X246761Y106364
X246761Y103824
X246761Y101284
X249208Y188335
X249208Y185795
X249208Y183255
X251748Y188335
X251748Y185795
X251748Y183255
X253617Y91827
X253617Y89287
X253617Y86747
X253617Y84207
X253617Y81667
X253617Y72541
X253617Y70001
X253617Y67461
X253617Y64921
X253617Y62381
X253617Y53161
X253617Y50621
X253617Y48081
X253617Y45541
X253617Y43001
X254288Y188335
X254288Y185795
X254288Y183255
X256828Y188335
X256828Y185795
X256828Y183255
X259368Y188335
X259368Y185795
X259368Y183255
X260460Y150420
X260460Y147880
X260460Y145340
X260460Y142800
X260460Y140260
X260460Y131134
X260460Y128594
X260460Y126054
X260460Y123514
X260460Y120974
X260460Y111716
X260460Y109176
X260460Y106636
X260460Y104096
X260460Y101556
X260483Y91827
X260483Y89287
X260483Y86747
X260483Y84207
X260483Y81667
X260483Y72408
X260483Y69868
X260483Y67328
X260483Y64788
X260483Y62248
X260483Y52990
X260483Y50450
X260483Y47910
X260483Y45370
X260483Y42830
X261908Y188335
X261908Y185795
X261908Y183255
X264448Y188335
X264448Y185795
X264448Y183255
X266988Y188335
X266988Y185795
X266988Y183255
X268080Y150420
X268080Y147880
X268080Y145340
X268080Y142800
X268080Y140260
X268080Y131134
X268080Y128594
X268080Y126054
X268080Y123514
X268080Y120974
X268080Y111716
X268080Y109176
X268080Y106636
X268080Y104096
X268080Y101556
X268103Y91827
X268103Y89287
X268103Y86747
X268103Y84207
X268103Y81667
X268103Y72408
X268103Y69868
X268103Y67328
X268103Y64788
X268103Y62248
X268103Y52990
X268103Y50450
X268103Y47910
X268103Y45370
X268103Y42830
X269528Y188335
X269528Y185795
X269528Y183255
X272068Y188335
X272068Y185795
X272068Y183255
X274608Y188335
X274608Y185795
X274608Y183255
X274946Y150420
X274946Y147880
X274946Y145340
X274946Y142800
X274946Y140260
X274946Y131001
X274946Y128461
X274946Y125921
X274946Y123381
X274946Y120841
X274946Y111583
X274946Y109043
X274946Y106503
X274946Y103963
X274946Y101423
X274953Y91769
X274953Y89229
X274953Y86689
X274953Y84149
X274953Y81609
X274970Y72408
X274970Y69868
X274970Y67328
X274970Y64788
X274970Y62248
X274970Y52990
X274970Y50450
X274970Y47910
X274970Y45370
X274970Y42830
X277148Y188335
X277148Y185795
X277148Y183255
X279688Y188335
X279688Y185795
X279688Y183255
X282228Y188335
X282228Y185795
X282228Y183255
X282566Y150420
X282566Y147880
X282566Y145340
X282566Y142800
X282566Y140260
X282566Y131001
X282566Y128461
X282566Y125921
X282566Y123381
X282566Y120841
X282566Y111583
X282566Y109043
X282566Y106503
X282566Y103963
X282566Y101423
X282573Y91769
X282573Y89229
X282573Y86689
X282573Y84149
X282573Y81609
X282590Y72408
X282590Y69868
X282590Y67328
X282590Y64788
X282590Y62248
X282590Y52990
X282590Y50450
X282590Y47910
X282590Y45370
X282590Y42830
X284768Y188335
X284768Y185795
X284768Y183255
X287308Y188335
X287308Y185795
X287308Y183255
X289433Y150420
X289433Y147880
X289433Y145340
X289433Y142800
X289433Y140260
X289433Y131001
X289433Y128461
X289433Y125921
X289433Y123381
X289433Y120841
X289433Y111583
X289433Y109043
X289433Y106503
X289433Y103963
X289433Y101423
X289848Y188335
X289848Y185795
X289848Y183255
X292388Y188335
X292388Y185795
X292388Y183255
X294928Y188335
X294928Y185795
X294928Y183255
X297053Y150420
X297053Y147880
X297053Y145340
X297053Y142800
X297053Y140260
X297053Y131001
X297053Y128461
X297053Y125921
X297053Y123381
X297053Y120841
X297053Y111583
X297053Y109043
X297053Y106503
X297053Y103963
X297053Y101423
X297468Y188335
X297468Y185795
X297468Y183255
X300008Y188335
X300008Y185795
X300008Y183255
X302548Y188335
X302548Y185795
X302548Y183255
X305088Y188335
X305088Y185795
X305088Y183255
X307628Y188335
X307628Y185795
X307628Y183255
T10
X22787Y115599
X22787Y113059
X22787Y110519
X22787Y107979
X22787Y105439
X22787Y102899
X22787Y100359
X22787Y97819
X22787Y95279
X22787Y92739
X22787Y90199
X22787Y87659
X22787Y85119
X22787Y82579
X22787Y80039
X22787Y77499
X22787Y74959
X22787Y72419
X22787Y69879
X22787Y67339
X29137Y115369
X31677Y115369
X34217Y115369
X40567Y115599
X40567Y113059
X40567Y110519
X40567Y107979
X40567Y105439
X40567Y102899
X40567Y100359
X40567Y97819
X40567Y95279
X40567Y92739
X40567Y90199
X40567Y87659
X40567Y85119
X40567Y82579
X40567Y80039
X40567Y77499
X40567Y74959
X40567Y72419
X40567Y69879
X40567Y67339
X104240Y109464
X104240Y106924
X104240Y104384
X104240Y101844
X104240Y99304
X104240Y96764
X104240Y94224
X104240Y91684
X104240Y89144
X104240Y86604
X104240Y84064
X104240Y81524
X104240Y78984
X104240Y76444
X104240Y73904
X104240Y71364
X104240Y68824
X104240Y66284
X104240Y63744
X104240Y61204
X110590Y109234
X113130Y109234
X115670Y109234
X122020Y109464
X122020Y106924
X122020Y104384
X122020Y101844
X122020Y99304
X122020Y96764
X122020Y94224
X122020Y91684
X122020Y89144
X122020Y86604
X122020Y84064
X122020Y81524
X122020Y78984
X122020Y76444
X122020Y73904
X122020Y71364
X122020Y68824
X122020Y66284
X122020Y63744
X122020Y61204
X360332Y162557
X360332Y160017
X360332Y157477
X360332Y154937
X360332Y152397
X360332Y149857
X360332Y147317
X360332Y144777
X360332Y142237
X360332Y139697
X360332Y137157
X360332Y134617
X360332Y132077
X360332Y129537
X360332Y126997
X360332Y124457
X360332Y121917
X360332Y119377
X360332Y116837
X360332Y114297
X366682Y162327
X369222Y162327
X371762Y162327
X377452Y96034
X377452Y93494
X377452Y90954
X377452Y88414
X377452Y85874
X377452Y83334
X377452Y80794
X377452Y78254
X377452Y75714
X377452Y73174
X377452Y70634
X377452Y68094
X377452Y65554
X377452Y63014
X377452Y60474
X377452Y57934
X377452Y55394
X377452Y52854
X377452Y50314
X377452Y47774
X378112Y162557
X378112Y160017
X378112Y157477
X378112Y154937
X378112Y152397
X378112Y149857
X378112Y147317
X378112Y144777
X378112Y142237
X378112Y139697
X378112Y137157
X378112Y134617
X378112Y132077
X378112Y129537
X378112Y126997
X378112Y124457
X378112Y121917
X378112Y119377
X378112Y116837
X378112Y114297
X383802Y95804
X386342Y95804
X388882Y95804
X395232Y96034
X395232Y93494
X395232Y90954
X395232Y88414
X395232Y85874
X395232Y83334
X395232Y80794
X395232Y78254
X395232Y75714
X395232Y73174
X395232Y70634
X395232Y68094
X395232Y65554
X395232Y63014
X395232Y60474
X395232Y57934
X395232Y55394
X395232Y52854
X395232Y50314
X395232Y47774
T11
X24580Y17720
X24580Y15220
X30480Y17720
X30480Y15220
X169080Y8282
X169080Y5743
X171620Y8282
X171620Y5743
X174160Y8282
X174160Y5743
X176700Y8282
X176700Y5743
X179240Y8282
X179240Y5743
T12
X181593Y109290
X186673Y109290
X196833Y109290
X199373Y109290
T13
X38990Y154360
X84710Y154360
T14
X3991Y55115
X3991Y42915
X5292Y99157
X5292Y77157
X9991Y40915
X15991Y55115
X15991Y42915
X18630Y25077
X26560Y33800
X40630Y25077
X41800Y33800
X185783Y134001
X185783Y121801
X191783Y119801
X194340Y5060
X197783Y134001
X197783Y121801
X199420Y5060
X204500Y5060
X209580Y5060
T15
X275460Y3000
X279270Y3000
X283080Y3000
X286890Y3000
X290700Y3000
X294510Y3000
T16
X91897Y3047
X95707Y3047
X99517Y3047
X103327Y3047
T17
X58733Y142083
X80577Y44903
X166074Y75256
X174964Y38147
X218310Y24630
T18
X116800Y2939
X132340Y2939
T19
X7070Y10700
T20
X23862Y188180
X23862Y183180
X31352Y188180
X31352Y183180
X373798Y188180
X373798Y183180
X381288Y188180
X381288Y183180
T21
X312370Y8380
X322530Y8380
X337800Y8520
X347960Y8520
X363460Y8370
X373620Y8370
X388550Y8430
X398710Y8430
T22
X143670Y5337
X155710Y5337
T23
X89772Y190875
X178672Y190875
X223808Y190875
X312708Y190875
T24
X50091Y4052
X75091Y4052
T5
G00X6467Y4700
M15
G01X7673Y4700
M16
G05
T9
G00X2320Y9400
M15
G01X2320Y8400
M16
G05
G00X2320Y4700
M15
G01X2320Y3700
M16
G05
G00X11820Y9400
M15
G01X11820Y8400
M16
G05
G00X11820Y4700
M15
G01X11820Y3700
M16
G05
T0
M30
