%TF.GenerationSoftware,KiCad,Pcbnew,7.0.5*%
%TF.CreationDate,2023-08-08T11:05:53-04:00*%
%TF.ProjectId,Interconnect,496e7465-7263-46f6-9e6e-6563742e6b69,1.0*%
%TF.SameCoordinates,Original*%
%TF.FileFunction,Profile,NP*%
%FSLAX46Y46*%
G04 Gerber Fmt 4.6, Leading zero omitted, Abs format (unit mm)*
G04 Created by KiCad (PCBNEW 7.0.5) date 2023-08-08 11:05:53*
%MOMM*%
%LPD*%
G01*
G04 APERTURE LIST*
%TA.AperFunction,Profile*%
%ADD10C,0.100000*%
%TD*%
%TA.AperFunction,Profile*%
%ADD11C,0.160000*%
%TD*%
G04 APERTURE END LIST*
D10*
X61425000Y-70894326D02*
G75*
G03*
X61425000Y-70894326I-1100000J0D01*
G01*
X61425000Y-83820000D02*
G75*
G03*
X61425000Y-83820000I-1100000J0D01*
G01*
D11*
X332523355Y-56427000D02*
G75*
G03*
X332523355Y-56427000I-5334000J0D01*
G01*
X12573000Y-216500000D02*
X418973000Y-216500000D01*
X418973000Y-23000000D02*
X12573000Y-23000000D01*
X153045730Y-56200000D02*
G75*
G03*
X153045730Y-56200000I-1100000J0D01*
G01*
X12573000Y-23000000D02*
X12573000Y-216500000D01*
D10*
X87790000Y-190840000D02*
G75*
G03*
X87790000Y-190840000I-1500000J0D01*
G01*
D11*
X280487020Y-56200000D02*
G75*
G03*
X280487020Y-56200000I-1100000J0D01*
G01*
X280489164Y-183634346D02*
G75*
G03*
X280489164Y-183634346I-1100000J0D01*
G01*
X131953000Y-87929135D02*
G75*
G03*
X131953000Y-87929135I-1500000J0D01*
G01*
X109503517Y-183423197D02*
G75*
G03*
X109503517Y-183423197I-5334000J0D01*
G01*
X109507197Y-56432700D02*
G75*
G03*
X109507197Y-56432700I-5334000J0D01*
G01*
D10*
X34678800Y-65379600D02*
G75*
G03*
X34678800Y-65379600I-1100000J0D01*
G01*
D11*
X418973000Y-216500000D02*
X418973000Y-23000000D01*
X407922146Y-56200000D02*
G75*
G03*
X407922146Y-56200000I-1100000J0D01*
G01*
D10*
X17677124Y-65405000D02*
G75*
G03*
X17677124Y-65405000I-1100000J0D01*
G01*
D11*
X25643863Y-56200000D02*
G75*
G03*
X25643863Y-56200000I-1100000J0D01*
G01*
X407870180Y-183634346D02*
G75*
G03*
X407870180Y-183634346I-1100000J0D01*
G01*
D10*
X90443000Y-195363000D02*
G75*
G03*
X90443000Y-195363000I-1500000J0D01*
G01*
X62823000Y-195363000D02*
G75*
G03*
X62823000Y-195363000I-1500000J0D01*
G01*
D11*
X153037271Y-183634346D02*
G75*
G03*
X153037271Y-183634346I-1100000J0D01*
G01*
X25599252Y-183634346D02*
G75*
G03*
X25599252Y-183634346I-1100000J0D01*
G01*
D10*
X34695124Y-85394800D02*
G75*
G03*
X34695124Y-85394800I-1100000J0D01*
G01*
X17677124Y-85394800D02*
G75*
G03*
X17677124Y-85394800I-1100000J0D01*
G01*
D11*
X332495476Y-183423197D02*
G75*
G03*
X332495476Y-183423197I-5334000J0D01*
G01*
D10*
X63430000Y-190810000D02*
G75*
G03*
X63430000Y-190810000I-1500000J0D01*
G01*
M02*
