%TF.GenerationSoftware,KiCad,Pcbnew,7.0.5*%
%TF.CreationDate,2024-10-26T20:20:03-04:00*%
%TF.ProjectId,Interconnect,496e7465-7263-46f6-9e6e-6563742e6b69,1.1*%
%TF.SameCoordinates,Original*%
%TF.FileFunction,Soldermask,Bot*%
%TF.FilePolarity,Negative*%
%FSLAX46Y46*%
G04 Gerber Fmt 4.6, Leading zero omitted, Abs format (unit mm)*
G04 Created by KiCad (PCBNEW 7.0.5) date 2024-10-26 20:20:03*
%MOMM*%
%LPD*%
G01*
G04 APERTURE LIST*
G04 Aperture macros list*
%AMRoundRect*
0 Rectangle with rounded corners*
0 $1 Rounding radius*
0 $2 $3 $4 $5 $6 $7 $8 $9 X,Y pos of 4 corners*
0 Add a 4 corners polygon primitive as box body*
4,1,4,$2,$3,$4,$5,$6,$7,$8,$9,$2,$3,0*
0 Add four circle primitives for the rounded corners*
1,1,$1+$1,$2,$3*
1,1,$1+$1,$4,$5*
1,1,$1+$1,$6,$7*
1,1,$1+$1,$8,$9*
0 Add four rect primitives between the rounded corners*
20,1,$1+$1,$2,$3,$4,$5,0*
20,1,$1+$1,$4,$5,$6,$7,0*
20,1,$1+$1,$6,$7,$8,$9,0*
20,1,$1+$1,$8,$9,$2,$3,0*%
G04 Aperture macros list end*
%ADD10R,1.650000X1.650000*%
%ADD11C,1.650000*%
%ADD12C,1.500000*%
%ADD13C,2.400000*%
%ADD14O,2.400000X2.400000*%
%ADD15R,2.400000X1.600000*%
%ADD16O,2.400000X1.600000*%
%ADD17C,1.600000*%
%ADD18O,1.600000X1.600000*%
%ADD19O,2.300000X1.600000*%
%ADD20R,1.700000X1.700000*%
%ADD21O,1.700000X1.700000*%
%ADD22R,1.800000X1.100000*%
%ADD23RoundRect,0.275000X0.625000X-0.275000X0.625000X0.275000X-0.625000X0.275000X-0.625000X-0.275000X0*%
%ADD24R,2.025000X2.025000*%
%ADD25C,2.025000*%
%ADD26R,1.600000X1.600000*%
%ADD27C,3.000000*%
%ADD28R,1.200000X1.200000*%
%ADD29C,1.200000*%
%ADD30C,4.200000*%
%ADD31C,3.250000*%
%ADD32R,1.500000X1.500000*%
%ADD33R,2.500000X2.500000*%
%ADD34O,2.500000X2.500000*%
%ADD35C,4.000000*%
%ADD36O,1.800000X1.800000*%
%ADD37O,1.500000X1.500000*%
%ADD38C,1.905000*%
%ADD39C,1.700000*%
%ADD40C,3.500000*%
%ADD41O,3.900000X1.950000*%
%ADD42C,1.398000*%
%ADD43C,3.015000*%
%ADD44R,1.800000X1.800000*%
%ADD45C,1.800000*%
%ADD46R,2.600000X2.600000*%
%ADD47O,2.600000X2.600000*%
%ADD48C,1.900000*%
%ADD49C,2.850000*%
%ADD50C,2.550000*%
%ADD51O,2.700002X1.400000*%
%ADD52O,1.750000X2.750000*%
%ADD53R,1.950000X1.950000*%
%ADD54C,1.950000*%
%ADD55R,1.725000X1.725000*%
%ADD56C,1.725000*%
%ADD57O,1.950000X3.900000*%
%ADD58R,2.000000X2.000000*%
%ADD59C,2.000000*%
%ADD60R,1.100000X1.800000*%
%ADD61RoundRect,0.275000X0.275000X0.625000X-0.275000X0.625000X-0.275000X-0.625000X0.275000X-0.625000X0*%
G04 APERTURE END LIST*
D10*
%TO.C,J26*%
X191830000Y-208197500D03*
D11*
X191830000Y-210737500D03*
X189290000Y-208197500D03*
X189290000Y-210737500D03*
X186750000Y-208197500D03*
X186750000Y-210737500D03*
X184210000Y-208197500D03*
X184210000Y-210737500D03*
X181670000Y-208197500D03*
X181670000Y-210737500D03*
%TD*%
D12*
%TO.C,TP41*%
X383519200Y-168656000D03*
%TD*%
D13*
%TO.C,R29*%
X51580000Y-62120000D03*
D14*
X97300000Y-62120000D03*
%TD*%
D12*
%TO.C,TP28*%
X109743744Y-151161879D03*
%TD*%
D15*
%TO.C,U14*%
X355869000Y-66408135D03*
D16*
X355869000Y-63868135D03*
X355869000Y-61328135D03*
X355869000Y-58788135D03*
X355869000Y-56248135D03*
X355869000Y-53708135D03*
X355869000Y-51168135D03*
X355869000Y-48628135D03*
X348249000Y-48628135D03*
X348249000Y-51168135D03*
X348249000Y-53708135D03*
X348249000Y-56248135D03*
X348249000Y-58788135D03*
X348249000Y-61328135D03*
X348249000Y-63868135D03*
X348249000Y-66408135D03*
%TD*%
D17*
%TO.C,R35*%
X374142000Y-27434135D03*
D18*
X374142000Y-37594135D03*
%TD*%
D19*
%TO.C,K25*%
X230378000Y-95644895D03*
X230378000Y-93104895D03*
X230378000Y-90564895D03*
X230378000Y-88024895D03*
X230378000Y-85484895D03*
X222758000Y-85484895D03*
X222758000Y-88024895D03*
X222758000Y-90564895D03*
X222758000Y-93104895D03*
X222758000Y-95644895D03*
%TD*%
%TO.C,K38*%
X280693300Y-173649895D03*
X280693300Y-171109895D03*
X280693300Y-168569895D03*
X280693300Y-166029895D03*
X280693300Y-163489895D03*
X273073300Y-163489895D03*
X273073300Y-166029895D03*
X273073300Y-168569895D03*
X273073300Y-171109895D03*
X273073300Y-173649895D03*
%TD*%
D20*
%TO.C,J31*%
X50673000Y-71249135D03*
D21*
X50673000Y-73789135D03*
X50673000Y-76329135D03*
X50673000Y-78869135D03*
X50673000Y-81409135D03*
X50673000Y-83949135D03*
%TD*%
D20*
%TO.C,J32*%
X101600000Y-71120000D03*
D21*
X101600000Y-73660000D03*
X101600000Y-76200000D03*
X101600000Y-78740000D03*
X101600000Y-81280000D03*
X101600000Y-83820000D03*
X101600000Y-86360000D03*
X101600000Y-88900000D03*
%TD*%
D19*
%TO.C,K29*%
X244856000Y-115129615D03*
X244856000Y-112589615D03*
X244856000Y-110049615D03*
X244856000Y-107509615D03*
X244856000Y-104969615D03*
X237236000Y-104969615D03*
X237236000Y-107509615D03*
X237236000Y-110049615D03*
X237236000Y-112589615D03*
X237236000Y-115129615D03*
%TD*%
D12*
%TO.C,TP119*%
X272618200Y-158294935D03*
%TD*%
D17*
%TO.C,R1*%
X378236000Y-163830000D03*
D18*
X378236000Y-153670000D03*
%TD*%
D12*
%TO.C,TP72*%
X73800000Y-55100000D03*
%TD*%
D22*
%TO.C,Q1*%
X36210000Y-48200000D03*
D23*
X34140000Y-46930000D03*
X36210000Y-45660000D03*
%TD*%
D24*
%TO.C,J20*%
X307100000Y-213480000D03*
D25*
X303290000Y-213480000D03*
X299480000Y-213480000D03*
X295670000Y-213480000D03*
X291860000Y-213480000D03*
X288050000Y-213480000D03*
%TD*%
D17*
%TO.C,R15*%
X230150000Y-47080000D03*
D18*
X230150000Y-36920000D03*
%TD*%
D12*
%TO.C,TP116*%
X265379200Y-158162455D03*
%TD*%
D17*
%TO.C,R2*%
X40550000Y-45090000D03*
D18*
X40550000Y-55250000D03*
%TD*%
D12*
%TO.C,TP2*%
X208508600Y-157883055D03*
%TD*%
D26*
%TO.C,D23*%
X79375000Y-48006000D03*
D18*
X79375000Y-55626000D03*
%TD*%
D22*
%TO.C,Q24*%
X368425000Y-32895135D03*
D23*
X366355000Y-31625135D03*
X368425000Y-30355135D03*
%TD*%
D12*
%TO.C,TP39*%
X126873000Y-100459135D03*
%TD*%
%TO.C,TP106*%
X252095000Y-99976535D03*
%TD*%
%TO.C,TP62*%
X295198800Y-80601415D03*
%TD*%
D17*
%TO.C,R16*%
X361630000Y-61320000D03*
D18*
X361630000Y-71480000D03*
%TD*%
D12*
%TO.C,TP49*%
X395097000Y-113538000D03*
%TD*%
D27*
%TO.C,TP86*%
X187553600Y-178333400D03*
%TD*%
D12*
%TO.C,TP29*%
X25349200Y-148793200D03*
%TD*%
D17*
%TO.C,R8*%
X57860000Y-169750000D03*
D18*
X57860000Y-159590000D03*
%TD*%
D12*
%TO.C,TP10*%
X222885000Y-178511895D03*
%TD*%
D19*
%TO.C,K14*%
X295156300Y-95638615D03*
X295156300Y-93098615D03*
X295156300Y-90558615D03*
X295156300Y-88018615D03*
X295156300Y-85478615D03*
X287536300Y-85478615D03*
X287536300Y-88018615D03*
X287536300Y-90558615D03*
X287536300Y-93098615D03*
X287536300Y-95638615D03*
%TD*%
D12*
%TO.C,TP75*%
X193548000Y-82425135D03*
%TD*%
D28*
%TO.C,C19*%
X102020401Y-166245135D03*
D29*
X104020401Y-166245135D03*
%TD*%
D12*
%TO.C,TP57*%
X273227800Y-119249655D03*
%TD*%
D17*
%TO.C,R28*%
X79880000Y-31830000D03*
D18*
X79880000Y-41990000D03*
%TD*%
D12*
%TO.C,TP102*%
X244906800Y-80740175D03*
%TD*%
%TO.C,TP34*%
X110333000Y-127189135D03*
%TD*%
%TO.C,TP50*%
X377672600Y-45491400D03*
%TD*%
D26*
%TO.C,D33*%
X120250000Y-198800000D03*
D18*
X120250000Y-206420000D03*
%TD*%
D12*
%TO.C,TP32*%
X117980000Y-168620000D03*
%TD*%
%TO.C,J2*%
X241477800Y-28145335D03*
X244017800Y-28145335D03*
X246557800Y-28145335D03*
X249097800Y-28145335D03*
X251637800Y-28145335D03*
X254177800Y-28145335D03*
X256717800Y-28145335D03*
X259257800Y-28145335D03*
X261797800Y-28145335D03*
X264337800Y-28145335D03*
X266877800Y-28145335D03*
X269417800Y-28145335D03*
X271957800Y-28145335D03*
X274497800Y-28145335D03*
X277037800Y-28145335D03*
X279577800Y-28145335D03*
X282117800Y-28145335D03*
X284657800Y-28145335D03*
X287197800Y-28145335D03*
X289737800Y-28145335D03*
X292277800Y-28145335D03*
X294817800Y-28145335D03*
X297357800Y-28145335D03*
X299897800Y-28145335D03*
X302437800Y-28145335D03*
X304977800Y-28145335D03*
X307517800Y-28145335D03*
X310057800Y-28145335D03*
X312597800Y-28145335D03*
X315137800Y-28145335D03*
X317677800Y-28145335D03*
X320217800Y-28145335D03*
X241477800Y-30685335D03*
X244017800Y-30685335D03*
X246557800Y-30685335D03*
X249097800Y-30685335D03*
X251637800Y-30685335D03*
X254177800Y-30685335D03*
X256717800Y-30685335D03*
X259257800Y-30685335D03*
X261797800Y-30685335D03*
X264337800Y-30685335D03*
X266877800Y-30685335D03*
X269417800Y-30685335D03*
X271957800Y-30685335D03*
X274497800Y-30685335D03*
X277037800Y-30685335D03*
X279577800Y-30685335D03*
X282117800Y-30685335D03*
X284657800Y-30685335D03*
X287197800Y-30685335D03*
X289737800Y-30685335D03*
X292277800Y-30685335D03*
X294817800Y-30685335D03*
X297357800Y-30685335D03*
X299897800Y-30685335D03*
X302437800Y-30685335D03*
X304977800Y-30685335D03*
X307517800Y-30685335D03*
X310057800Y-30685335D03*
X312597800Y-30685335D03*
X315137800Y-30685335D03*
X317677800Y-30685335D03*
X320217800Y-30685335D03*
X241477800Y-33225335D03*
X244017800Y-33225335D03*
X246557800Y-33225335D03*
X249097800Y-33225335D03*
X251637800Y-33225335D03*
X254177800Y-33225335D03*
X256717800Y-33225335D03*
X259257800Y-33225335D03*
X261797800Y-33225335D03*
X264337800Y-33225335D03*
X266877800Y-33225335D03*
X269417800Y-33225335D03*
X271957800Y-33225335D03*
X274497800Y-33225335D03*
X277037800Y-33225335D03*
X279577800Y-33225335D03*
X282117800Y-33225335D03*
X284657800Y-33225335D03*
X287197800Y-33225335D03*
X289737800Y-33225335D03*
X292277800Y-33225335D03*
X294817800Y-33225335D03*
X297357800Y-33225335D03*
X299897800Y-33225335D03*
X302437800Y-33225335D03*
X304977800Y-33225335D03*
X307517800Y-33225335D03*
X310057800Y-33225335D03*
X312597800Y-33225335D03*
X315137800Y-33225335D03*
X317677800Y-33225335D03*
X320217800Y-33225335D03*
D30*
X236397800Y-25605335D03*
X325297800Y-25605335D03*
%TD*%
D19*
%TO.C,K9*%
X244871000Y-173451415D03*
X244871000Y-170911415D03*
X244871000Y-168371415D03*
X244871000Y-165831415D03*
X244871000Y-163291415D03*
X237251000Y-163291415D03*
X237251000Y-165831415D03*
X237251000Y-168371415D03*
X237251000Y-170911415D03*
X237251000Y-173451415D03*
%TD*%
D20*
%TO.C,J12*%
X166898278Y-143927880D03*
D21*
X166898278Y-146467880D03*
X166898278Y-149007880D03*
X166898278Y-151547880D03*
X166898278Y-154087880D03*
X166898278Y-156627880D03*
%TD*%
D12*
%TO.C,TP84*%
X88413482Y-207338000D03*
%TD*%
%TO.C,TP40*%
X131953000Y-100459135D03*
%TD*%
%TO.C,TP9*%
X222605600Y-158015535D03*
%TD*%
D26*
%TO.C,D32*%
X116126000Y-190870000D03*
D18*
X116126000Y-198490000D03*
%TD*%
D19*
%TO.C,K32*%
X259350600Y-115195615D03*
X259350600Y-112655615D03*
X259350600Y-110115615D03*
X259350600Y-107575615D03*
X259350600Y-105035615D03*
X251730600Y-105035615D03*
X251730600Y-107575615D03*
X251730600Y-110115615D03*
X251730600Y-112655615D03*
X251730600Y-115195615D03*
%TD*%
D27*
%TO.C,TP88*%
X71323200Y-74396600D03*
%TD*%
D17*
%TO.C,R6*%
X17100000Y-35010000D03*
D18*
X17100000Y-45170000D03*
%TD*%
D17*
%TO.C,R14*%
X376830000Y-133450000D03*
D18*
X376830000Y-143610000D03*
%TD*%
D31*
%TO.C,J24*%
X131445000Y-210491000D03*
X142875000Y-210491000D03*
D32*
X132715000Y-204141000D03*
D12*
X133985000Y-201601000D03*
X135255000Y-204141000D03*
X136525000Y-201601000D03*
X137795000Y-204141000D03*
X139065000Y-201601000D03*
X140335000Y-204141000D03*
X141605000Y-201601000D03*
D27*
X129390000Y-213541000D03*
X144930000Y-213541000D03*
%TD*%
D28*
%TO.C,C18*%
X60349000Y-93855135D03*
D29*
X62349000Y-93855135D03*
%TD*%
D12*
%TO.C,TP19*%
X148550000Y-124350000D03*
%TD*%
D28*
%TO.C,C20*%
X165867401Y-97560000D03*
D29*
X167867401Y-97560000D03*
%TD*%
D12*
%TO.C,TP93*%
X237794800Y-80740175D03*
%TD*%
%TO.C,TP127*%
X315722000Y-41277135D03*
%TD*%
D33*
%TO.C,K21*%
X204373000Y-96679135D03*
D34*
X210373000Y-94679135D03*
X210373000Y-82479135D03*
X198373000Y-82479135D03*
X198373000Y-94679135D03*
%TD*%
D19*
%TO.C,K40*%
X295179600Y-154231655D03*
X295179600Y-151691655D03*
X295179600Y-149151655D03*
X295179600Y-146611655D03*
X295179600Y-144071655D03*
X287559600Y-144071655D03*
X287559600Y-146611655D03*
X287559600Y-149151655D03*
X287559600Y-151691655D03*
X287559600Y-154231655D03*
%TD*%
D26*
%TO.C,D31*%
X94663000Y-199252000D03*
D18*
X94663000Y-206872000D03*
%TD*%
D12*
%TO.C,TP130*%
X366903000Y-107317135D03*
%TD*%
D19*
%TO.C,K36*%
X280693300Y-134813415D03*
X280693300Y-132273415D03*
X280693300Y-129733415D03*
X280693300Y-127193415D03*
X280693300Y-124653415D03*
X273073300Y-124653415D03*
X273073300Y-127193415D03*
X273073300Y-129733415D03*
X273073300Y-132273415D03*
X273073300Y-134813415D03*
%TD*%
D26*
%TO.C,D1*%
X33350200Y-165912800D03*
D18*
X33350200Y-173532800D03*
%TD*%
D12*
%TO.C,TP30*%
X109347000Y-145036135D03*
%TD*%
%TO.C,J1*%
X107442000Y-28145335D03*
X109982000Y-28145335D03*
X112522000Y-28145335D03*
X115062000Y-28145335D03*
X117602000Y-28145335D03*
X120142000Y-28145335D03*
X122682000Y-28145335D03*
X125222000Y-28145335D03*
X127762000Y-28145335D03*
X130302000Y-28145335D03*
X132842000Y-28145335D03*
X135382000Y-28145335D03*
X137922000Y-28145335D03*
X140462000Y-28145335D03*
X143002000Y-28145335D03*
X145542000Y-28145335D03*
X148082000Y-28145335D03*
X150622000Y-28145335D03*
X153162000Y-28145335D03*
X155702000Y-28145335D03*
X158242000Y-28145335D03*
X160782000Y-28145335D03*
X163322000Y-28145335D03*
X165862000Y-28145335D03*
X168402000Y-28145335D03*
X170942000Y-28145335D03*
X173482000Y-28145335D03*
X176022000Y-28145335D03*
X178562000Y-28145335D03*
X181102000Y-28145335D03*
X183642000Y-28145335D03*
X186182000Y-28145335D03*
X107442000Y-30685335D03*
X109982000Y-30685335D03*
X112522000Y-30685335D03*
X115062000Y-30685335D03*
X117602000Y-30685335D03*
X120142000Y-30685335D03*
X122682000Y-30685335D03*
X125222000Y-30685335D03*
X127762000Y-30685335D03*
X130302000Y-30685335D03*
X132842000Y-30685335D03*
X135382000Y-30685335D03*
X137922000Y-30685335D03*
X140462000Y-30685335D03*
X143002000Y-30685335D03*
X145542000Y-30685335D03*
X148082000Y-30685335D03*
X150622000Y-30685335D03*
X153162000Y-30685335D03*
X155702000Y-30685335D03*
X158242000Y-30685335D03*
X160782000Y-30685335D03*
X163322000Y-30685335D03*
X165862000Y-30685335D03*
X168402000Y-30685335D03*
X170942000Y-30685335D03*
X173482000Y-30685335D03*
X176022000Y-30685335D03*
X178562000Y-30685335D03*
X181102000Y-30685335D03*
X183642000Y-30685335D03*
X186182000Y-30685335D03*
X107442000Y-33225335D03*
X109982000Y-33225335D03*
X112522000Y-33225335D03*
X115062000Y-33225335D03*
X117602000Y-33225335D03*
X120142000Y-33225335D03*
X122682000Y-33225335D03*
X125222000Y-33225335D03*
X127762000Y-33225335D03*
X130302000Y-33225335D03*
X132842000Y-33225335D03*
X135382000Y-33225335D03*
X137922000Y-33225335D03*
X140462000Y-33225335D03*
X143002000Y-33225335D03*
X145542000Y-33225335D03*
X148082000Y-33225335D03*
X150622000Y-33225335D03*
X153162000Y-33225335D03*
X155702000Y-33225335D03*
X158242000Y-33225335D03*
X160782000Y-33225335D03*
X163322000Y-33225335D03*
X165862000Y-33225335D03*
X168402000Y-33225335D03*
X170942000Y-33225335D03*
X173482000Y-33225335D03*
X176022000Y-33225335D03*
X178562000Y-33225335D03*
X181102000Y-33225335D03*
X183642000Y-33225335D03*
X186182000Y-33225335D03*
D30*
X102362000Y-25605335D03*
X191262000Y-25605335D03*
%TD*%
D12*
%TO.C,TP76*%
X152700000Y-124200000D03*
%TD*%
D26*
%TO.C,D19*%
X56769000Y-43690135D03*
D18*
X56769000Y-51310135D03*
%TD*%
D12*
%TO.C,TP25*%
X176850000Y-124950000D03*
%TD*%
%TO.C,TP27*%
X28117800Y-152323800D03*
%TD*%
D20*
%TO.C,J14*%
X166865778Y-125258880D03*
D21*
X166865778Y-127798880D03*
X166865778Y-130338880D03*
X166865778Y-132878880D03*
X166865778Y-135418880D03*
X166865778Y-137958880D03*
%TD*%
D12*
%TO.C,TP91*%
X222935800Y-119388415D03*
%TD*%
%TO.C,TP43*%
X372999000Y-166751000D03*
%TD*%
D20*
%TO.C,J6*%
X83739000Y-141182635D03*
D21*
X83739000Y-143722635D03*
X83739000Y-146262635D03*
X83739000Y-148802635D03*
X83739000Y-151342635D03*
X83739000Y-153882635D03*
X83739000Y-156422635D03*
X83739000Y-158962635D03*
X83739000Y-161502635D03*
X83739000Y-164042635D03*
%TD*%
D22*
%TO.C,Q22*%
X381125000Y-32895135D03*
D23*
X379055000Y-31625135D03*
X381125000Y-30355135D03*
%TD*%
D19*
%TO.C,K4*%
X230386300Y-134564415D03*
X230386300Y-132024415D03*
X230386300Y-129484415D03*
X230386300Y-126944415D03*
X230386300Y-124404415D03*
X222766300Y-124404415D03*
X222766300Y-126944415D03*
X222766300Y-129484415D03*
X222766300Y-132024415D03*
X222766300Y-134564415D03*
%TD*%
D35*
%TO.C,J28*%
X62681000Y-212427669D03*
X87681000Y-212427669D03*
D26*
X80721000Y-212127669D03*
D17*
X77951000Y-212127669D03*
X75181000Y-212127669D03*
X72411000Y-212127669D03*
X69641000Y-212127669D03*
X79336000Y-214967669D03*
X76566000Y-214967669D03*
X73796000Y-214967669D03*
X71026000Y-214967669D03*
%TD*%
D12*
%TO.C,TP118*%
X280492200Y-139270335D03*
%TD*%
%TO.C,TP58*%
X288086800Y-80601415D03*
%TD*%
D17*
%TO.C,R4*%
X272733000Y-194549135D03*
D18*
X272733000Y-204709135D03*
%TD*%
D17*
%TO.C,R10*%
X105283000Y-153037135D03*
D18*
X105283000Y-142877135D03*
%TD*%
D20*
%TO.C,J34*%
X78943000Y-186445000D03*
D21*
X76403000Y-186445000D03*
X73863000Y-186445000D03*
X71323000Y-186445000D03*
%TD*%
D17*
%TO.C,R18*%
X398627600Y-36525200D03*
D18*
X398627600Y-46685200D03*
%TD*%
D19*
%TO.C,K6*%
X230378000Y-173334895D03*
X230378000Y-170794895D03*
X230378000Y-168254895D03*
X230378000Y-165714895D03*
X230378000Y-163174895D03*
X222758000Y-163174895D03*
X222758000Y-165714895D03*
X222758000Y-168254895D03*
X222758000Y-170794895D03*
X222758000Y-173334895D03*
%TD*%
D12*
%TO.C,TP128*%
X361569000Y-46863000D03*
%TD*%
D19*
%TO.C,K7*%
X244856000Y-134622135D03*
X244856000Y-132082135D03*
X244856000Y-129542135D03*
X244856000Y-127002135D03*
X244856000Y-124462135D03*
X237236000Y-124462135D03*
X237236000Y-127002135D03*
X237236000Y-129542135D03*
X237236000Y-132082135D03*
X237236000Y-134622135D03*
%TD*%
D12*
%TO.C,TP94*%
X87744000Y-200690000D03*
%TD*%
D19*
%TO.C,K20*%
X224854500Y-46860135D03*
X224854500Y-44320135D03*
X224854500Y-41780135D03*
X224854500Y-39240135D03*
X224854500Y-36700135D03*
X217234500Y-36700135D03*
X217234500Y-39240135D03*
X217234500Y-41780135D03*
X217234500Y-44320135D03*
X217234500Y-46860135D03*
%TD*%
D36*
%TO.C,U2*%
X46992200Y-149011135D03*
D37*
X46692200Y-145981135D03*
X41842200Y-145981135D03*
D36*
X41542200Y-149011135D03*
D21*
X53157200Y-149141135D03*
X53157200Y-146601135D03*
D20*
X53157200Y-144061135D03*
D21*
X53157200Y-141521135D03*
X53157200Y-138981135D03*
X53157200Y-136441135D03*
X53157200Y-133901135D03*
D20*
X53157200Y-131361135D03*
D21*
X53157200Y-128821135D03*
X53157200Y-126281135D03*
X53157200Y-123741135D03*
X53157200Y-121201135D03*
D20*
X53157200Y-118661135D03*
D21*
X53157200Y-116121135D03*
X53157200Y-113581135D03*
X53157200Y-111041135D03*
X53157200Y-108501135D03*
D20*
X53157200Y-105961135D03*
D21*
X53157200Y-103421135D03*
X53157200Y-100881135D03*
X35377200Y-100881135D03*
X35377200Y-103421135D03*
D20*
X35377200Y-105961135D03*
D21*
X35377200Y-108501135D03*
X35377200Y-111041135D03*
X35377200Y-113581135D03*
X35377200Y-116121135D03*
D20*
X35377200Y-118661135D03*
D21*
X35377200Y-121201135D03*
X35377200Y-123741135D03*
X35377200Y-126281135D03*
X35377200Y-128821135D03*
D20*
X35377200Y-131361135D03*
D21*
X35377200Y-133901135D03*
X35377200Y-136441135D03*
X35377200Y-138981135D03*
X35377200Y-141521135D03*
D20*
X35377200Y-144061135D03*
D21*
X35377200Y-146601135D03*
X35377200Y-149141135D03*
X46807200Y-101111135D03*
D20*
X44267200Y-101111135D03*
D21*
X41727200Y-101111135D03*
%TD*%
D17*
%TO.C,R31*%
X349250000Y-27053135D03*
D18*
X349250000Y-37213135D03*
%TD*%
D12*
%TO.C,TP13*%
X229844600Y-158015535D03*
%TD*%
D19*
%TO.C,K28*%
X244864300Y-95777375D03*
X244864300Y-93237375D03*
X244864300Y-90697375D03*
X244864300Y-88157375D03*
X244864300Y-85617375D03*
X237244300Y-85617375D03*
X237244300Y-88157375D03*
X237244300Y-90697375D03*
X237244300Y-93237375D03*
X237244300Y-95777375D03*
%TD*%
%TO.C,K2*%
X215900000Y-153850175D03*
X215900000Y-151310175D03*
X215900000Y-148770175D03*
X215900000Y-146230175D03*
X215900000Y-143690175D03*
X208280000Y-143690175D03*
X208280000Y-146230175D03*
X208280000Y-148770175D03*
X208280000Y-151310175D03*
X208280000Y-153850175D03*
%TD*%
D26*
%TO.C,D20*%
X56610000Y-32530000D03*
D18*
X56610000Y-40150000D03*
%TD*%
D12*
%TO.C,TP3*%
X208534000Y-178506415D03*
%TD*%
%TO.C,TP131*%
X350266000Y-106174135D03*
%TD*%
D20*
%TO.C,J15*%
X156446022Y-106237135D03*
D21*
X156446022Y-108777135D03*
X156446022Y-111317135D03*
X156446022Y-113857135D03*
X156446022Y-116397135D03*
X156446022Y-118937135D03*
%TD*%
D12*
%TO.C,TP99*%
X230047800Y-119261415D03*
%TD*%
D17*
%TO.C,R7*%
X37840000Y-177060000D03*
D18*
X37840000Y-166900000D03*
%TD*%
D12*
%TO.C,TP48*%
X352425000Y-100078135D03*
%TD*%
%TO.C,TP15*%
X244703600Y-138787735D03*
%TD*%
%TO.C,TP80*%
X144926480Y-190946980D03*
%TD*%
%TO.C,TP98*%
X61729000Y-204761669D03*
%TD*%
D19*
%TO.C,K16*%
X309642600Y-76220375D03*
X309642600Y-73680375D03*
X309642600Y-71140375D03*
X309642600Y-68600375D03*
X309642600Y-66060375D03*
X302022600Y-66060375D03*
X302022600Y-68600375D03*
X302022600Y-71140375D03*
X302022600Y-73680375D03*
X302022600Y-76220375D03*
%TD*%
D12*
%TO.C,TP60*%
X280670000Y-99705295D03*
%TD*%
D19*
%TO.C,K5*%
X230386300Y-153982655D03*
X230386300Y-151442655D03*
X230386300Y-148902655D03*
X230386300Y-146362655D03*
X230386300Y-143822655D03*
X222766300Y-143822655D03*
X222766300Y-146362655D03*
X222766300Y-148902655D03*
X222766300Y-151442655D03*
X222766300Y-153982655D03*
%TD*%
D17*
%TO.C,R5*%
X46290000Y-45090000D03*
D18*
X46290000Y-55250000D03*
%TD*%
D22*
%TO.C,Q19*%
X356000000Y-32895135D03*
D23*
X353930000Y-31625135D03*
X356000000Y-30355135D03*
%TD*%
D17*
%TO.C,R3*%
X138990000Y-174080000D03*
D18*
X138990000Y-163920000D03*
%TD*%
D19*
%TO.C,K12*%
X280670000Y-114924375D03*
X280670000Y-112384375D03*
X280670000Y-109844375D03*
X280670000Y-107304375D03*
X280670000Y-104764375D03*
X273050000Y-104764375D03*
X273050000Y-107304375D03*
X273050000Y-109844375D03*
X273050000Y-112384375D03*
X273050000Y-114924375D03*
%TD*%
%TO.C,K22*%
X205550500Y-50543135D03*
X205550500Y-48003135D03*
X205550500Y-45463135D03*
X205550500Y-42923135D03*
X205550500Y-40383135D03*
X197930500Y-40383135D03*
X197930500Y-42923135D03*
X197930500Y-45463135D03*
X197930500Y-48003135D03*
X197930500Y-50543135D03*
%TD*%
D12*
%TO.C,TP37*%
X121793000Y-100459135D03*
%TD*%
%TO.C,TP104*%
X237286800Y-119393895D03*
%TD*%
D28*
%TO.C,C17*%
X205500000Y-67450000D03*
D29*
X203500000Y-67450000D03*
%TD*%
D12*
%TO.C,TP5*%
X215874600Y-138655255D03*
%TD*%
%TO.C,TP65*%
X302437800Y-80596335D03*
%TD*%
D19*
%TO.C,K3*%
X215900000Y-173177895D03*
X215900000Y-170637895D03*
X215900000Y-168097895D03*
X215900000Y-165557895D03*
X215900000Y-163017895D03*
X208280000Y-163017895D03*
X208280000Y-165557895D03*
X208280000Y-168097895D03*
X208280000Y-170637895D03*
X208280000Y-173177895D03*
%TD*%
D12*
%TO.C,TP18*%
X140589000Y-66169135D03*
%TD*%
%TO.C,TP92*%
X61650000Y-200700000D03*
%TD*%
%TO.C,TP100*%
X167280000Y-87470000D03*
%TD*%
%TO.C,TP123*%
X279857200Y-158294935D03*
%TD*%
D15*
%TO.C,U15*%
X362473000Y-124828135D03*
D16*
X362473000Y-122288135D03*
X362473000Y-119748135D03*
X362473000Y-117208135D03*
X362473000Y-114668135D03*
X362473000Y-112128135D03*
X362473000Y-109588135D03*
X362473000Y-107048135D03*
X354853000Y-107048135D03*
X354853000Y-109588135D03*
X354853000Y-112128135D03*
X354853000Y-114668135D03*
X354853000Y-117208135D03*
X354853000Y-119748135D03*
X354853000Y-122288135D03*
X354853000Y-124828135D03*
%TD*%
D12*
%TO.C,TP129*%
X343535000Y-47754135D03*
%TD*%
%TO.C,TP83*%
X87884000Y-40894000D03*
%TD*%
D20*
%TO.C,J9*%
X71374000Y-83949135D03*
D21*
X71374000Y-86489135D03*
X71374000Y-89029135D03*
X71374000Y-91569135D03*
X71374000Y-94109135D03*
X71374000Y-96649135D03*
X71374000Y-99189135D03*
X71374000Y-101729135D03*
X71374000Y-104269135D03*
X71374000Y-106809135D03*
%TD*%
D38*
%TO.C,J23*%
X104487000Y-213433000D03*
X108297000Y-213433000D03*
X112107000Y-213433000D03*
X115917000Y-213433000D03*
%TD*%
D19*
%TO.C,K19*%
X74867500Y-47368135D03*
X74867500Y-44828135D03*
X74867500Y-42288135D03*
X74867500Y-39748135D03*
X74867500Y-37208135D03*
X67247500Y-37208135D03*
X67247500Y-39748135D03*
X67247500Y-42288135D03*
X67247500Y-44828135D03*
X67247500Y-47368135D03*
%TD*%
D12*
%TO.C,TP96*%
X229870000Y-99844055D03*
%TD*%
D17*
%TO.C,R11*%
X103050000Y-123192135D03*
D18*
X103050000Y-133352135D03*
%TD*%
D19*
%TO.C,K1*%
X215900000Y-134564415D03*
X215900000Y-132024415D03*
X215900000Y-129484415D03*
X215900000Y-126944415D03*
X215900000Y-124404415D03*
X208280000Y-124404415D03*
X208280000Y-126944415D03*
X208280000Y-129484415D03*
X208280000Y-132024415D03*
X208280000Y-134564415D03*
%TD*%
D17*
%TO.C,R69*%
X24384000Y-45214135D03*
D18*
X24384000Y-35054135D03*
%TD*%
D12*
%TO.C,TP26*%
X112141000Y-157228135D03*
%TD*%
D19*
%TO.C,K39*%
X295163000Y-134871135D03*
X295163000Y-132331135D03*
X295163000Y-129791135D03*
X295163000Y-127251135D03*
X295163000Y-124711135D03*
X287543000Y-124711135D03*
X287543000Y-127251135D03*
X287543000Y-129791135D03*
X287543000Y-132331135D03*
X287543000Y-134871135D03*
%TD*%
D20*
%TO.C,J33*%
X160020000Y-71120000D03*
D21*
X160020000Y-73660000D03*
X160020000Y-76200000D03*
X160020000Y-78740000D03*
X160020000Y-81280000D03*
X160020000Y-83820000D03*
X160020000Y-86360000D03*
X160020000Y-88900000D03*
%TD*%
D12*
%TO.C,TP78*%
X144926480Y-194883980D03*
%TD*%
D20*
%TO.C,J25*%
X163530000Y-206432500D03*
D39*
X161030000Y-206432500D03*
X161030000Y-208432500D03*
X163530000Y-208432500D03*
D40*
X168300000Y-211142500D03*
X156260000Y-211142500D03*
%TD*%
D12*
%TO.C,TP66*%
X302387000Y-99837775D03*
%TD*%
D19*
%TO.C,K37*%
X280693300Y-154231655D03*
X280693300Y-151691655D03*
X280693300Y-149151655D03*
X280693300Y-146611655D03*
X280693300Y-144071655D03*
X273073300Y-144071655D03*
X273073300Y-146611655D03*
X273073300Y-149151655D03*
X273073300Y-151691655D03*
X273073300Y-154231655D03*
%TD*%
D41*
%TO.C,F2*%
X17881600Y-139322600D03*
X17881600Y-117322600D03*
%TD*%
D19*
%TO.C,K35*%
X266207000Y-173479135D03*
X266207000Y-170939135D03*
X266207000Y-168399135D03*
X266207000Y-165859135D03*
X266207000Y-163319135D03*
X258587000Y-163319135D03*
X258587000Y-165859135D03*
X258587000Y-168399135D03*
X258587000Y-170939135D03*
X258587000Y-173479135D03*
%TD*%
D12*
%TO.C,TP122*%
X287604200Y-158294935D03*
%TD*%
D19*
%TO.C,K30*%
X259334000Y-76416855D03*
X259334000Y-73876855D03*
X259334000Y-71336855D03*
X259334000Y-68796855D03*
X259334000Y-66256855D03*
X251714000Y-66256855D03*
X251714000Y-68796855D03*
X251714000Y-71336855D03*
X251714000Y-73876855D03*
X251714000Y-76416855D03*
%TD*%
%TO.C,K24*%
X230378000Y-76359135D03*
X230378000Y-73819135D03*
X230378000Y-71279135D03*
X230378000Y-68739135D03*
X230378000Y-66199135D03*
X222758000Y-66199135D03*
X222758000Y-68739135D03*
X222758000Y-71279135D03*
X222758000Y-73819135D03*
X222758000Y-76359135D03*
%TD*%
D12*
%TO.C,TP89*%
X223189800Y-80607695D03*
%TD*%
%TO.C,TP6*%
X215366600Y-157883055D03*
%TD*%
D42*
%TO.C,J19*%
X381130000Y-203030000D03*
X383670000Y-203030000D03*
D43*
X376050000Y-208110000D03*
X386210000Y-208110000D03*
%TD*%
D20*
%TO.C,J10*%
X83949000Y-83949135D03*
D21*
X83949000Y-86489135D03*
X83949000Y-89029135D03*
X83949000Y-91569135D03*
X83949000Y-94109135D03*
X83949000Y-96649135D03*
X83949000Y-99189135D03*
X83949000Y-101729135D03*
X83949000Y-104269135D03*
X83949000Y-106809135D03*
%TD*%
D19*
%TO.C,K34*%
X266207000Y-154099175D03*
X266207000Y-151559175D03*
X266207000Y-149019175D03*
X266207000Y-146479175D03*
X266207000Y-143939175D03*
X258587000Y-143939175D03*
X258587000Y-146479175D03*
X258587000Y-149019175D03*
X258587000Y-151559175D03*
X258587000Y-154099175D03*
%TD*%
D12*
%TO.C,TP46*%
X355981000Y-98552000D03*
%TD*%
D19*
%TO.C,K31*%
X259334000Y-95765615D03*
X259334000Y-93225615D03*
X259334000Y-90685615D03*
X259334000Y-88145615D03*
X259334000Y-85605615D03*
X251714000Y-85605615D03*
X251714000Y-88145615D03*
X251714000Y-90685615D03*
X251714000Y-93225615D03*
X251714000Y-95765615D03*
%TD*%
D12*
%TO.C,TP74*%
X203708000Y-73535135D03*
%TD*%
%TO.C,TP7*%
X215646000Y-178379415D03*
%TD*%
D44*
%TO.C,D37*%
X410973000Y-26799135D03*
D45*
X413513000Y-26799135D03*
%TD*%
D12*
%TO.C,TP55*%
X273481800Y-80468935D03*
%TD*%
D20*
%TO.C,J5*%
X71039000Y-141182635D03*
D21*
X71039000Y-143722635D03*
X71039000Y-146262635D03*
X71039000Y-148802635D03*
X71039000Y-151342635D03*
X71039000Y-153882635D03*
X71039000Y-156422635D03*
X71039000Y-158962635D03*
X71039000Y-161502635D03*
X71039000Y-164042635D03*
%TD*%
D12*
%TO.C,TP4*%
X223367600Y-138787735D03*
%TD*%
D19*
%TO.C,K11*%
X280670000Y-95506135D03*
X280670000Y-92966135D03*
X280670000Y-90426135D03*
X280670000Y-87886135D03*
X280670000Y-85346135D03*
X273050000Y-85346135D03*
X273050000Y-87886135D03*
X273050000Y-90426135D03*
X273050000Y-92966135D03*
X273050000Y-95506135D03*
%TD*%
D28*
%TO.C,C16*%
X16178400Y-149555200D03*
D29*
X18178400Y-149555200D03*
%TD*%
D12*
%TO.C,TP35*%
X37973000Y-94109135D03*
%TD*%
%TO.C,TP111*%
X258775200Y-139137855D03*
%TD*%
D44*
%TO.C,D35*%
X16632000Y-26799135D03*
D45*
X19172000Y-26799135D03*
%TD*%
D22*
%TO.C,Q5*%
X33597800Y-183007000D03*
D23*
X31527800Y-181737000D03*
X33597800Y-180467000D03*
%TD*%
D46*
%TO.C,D34*%
X39150000Y-182680000D03*
D47*
X54390000Y-182680000D03*
%TD*%
D12*
%TO.C,TP68*%
X294563800Y-119255135D03*
%TD*%
D42*
%TO.C,J18*%
X355470000Y-202880000D03*
X358010000Y-202880000D03*
D43*
X350390000Y-207960000D03*
X360550000Y-207960000D03*
%TD*%
D17*
%TO.C,R67*%
X110030000Y-193410000D03*
D18*
X110030000Y-203570000D03*
%TD*%
D12*
%TO.C,TP126*%
X294335200Y-158294935D03*
%TD*%
D17*
%TO.C,R9*%
X61400000Y-173120000D03*
D18*
X61400000Y-162960000D03*
%TD*%
D12*
%TO.C,TP56*%
X273304000Y-99705295D03*
%TD*%
D17*
%TO.C,R66*%
X104188000Y-193537000D03*
D18*
X104188000Y-203697000D03*
%TD*%
D12*
%TO.C,TP70*%
X309118000Y-99837775D03*
%TD*%
D44*
%TO.C,D36*%
X24252000Y-26799135D03*
D45*
X26792000Y-26799135D03*
%TD*%
D48*
%TO.C,S1*%
X42320000Y-212660000D03*
X37920000Y-212660000D03*
D10*
X37170000Y-198760000D03*
D11*
X37170000Y-201260000D03*
X43070000Y-198760000D03*
X43070000Y-201260000D03*
%TD*%
D42*
%TO.C,J21*%
X330040000Y-203020000D03*
X332580000Y-203020000D03*
D43*
X324960000Y-208100000D03*
X335120000Y-208100000D03*
%TD*%
D12*
%TO.C,TP59*%
X280593800Y-80468935D03*
%TD*%
%TO.C,TP31*%
X55499000Y-93855135D03*
%TD*%
%TO.C,TP114*%
X273380200Y-139270335D03*
%TD*%
%TO.C,TP38*%
X48133000Y-94109135D03*
%TD*%
D49*
%TO.C,J4*%
X43942000Y-28300000D03*
X36452000Y-28300000D03*
X36452000Y-33300000D03*
X43942000Y-33300000D03*
%TD*%
D12*
%TO.C,TP44*%
X358013000Y-101854000D03*
%TD*%
D28*
%TO.C,C1*%
X370967000Y-114300000D03*
D29*
X372967000Y-114300000D03*
%TD*%
D19*
%TO.C,K13*%
X295156300Y-76220375D03*
X295156300Y-73680375D03*
X295156300Y-71140375D03*
X295156300Y-68600375D03*
X295156300Y-66060375D03*
X287536300Y-66060375D03*
X287536300Y-68600375D03*
X287536300Y-71140375D03*
X287536300Y-73680375D03*
X287536300Y-76220375D03*
%TD*%
D12*
%TO.C,TP108*%
X244271800Y-119393895D03*
%TD*%
D20*
%TO.C,J7*%
X71061500Y-112406135D03*
D21*
X71061500Y-114946135D03*
X71061500Y-117486135D03*
X71061500Y-120026135D03*
X71061500Y-122566135D03*
X71061500Y-125106135D03*
X71061500Y-127646135D03*
X71061500Y-130186135D03*
X71061500Y-132726135D03*
X71061500Y-135266135D03*
%TD*%
D27*
%TO.C,TP101*%
X178663600Y-141224000D03*
%TD*%
D12*
%TO.C,J27*%
X19660000Y-215030000D03*
D50*
X19660000Y-205780000D03*
D51*
X19660000Y-211780000D03*
D52*
X14910000Y-212280000D03*
X24410000Y-212280000D03*
X14910000Y-207580000D03*
X24410000Y-207580000D03*
%TD*%
D12*
%TO.C,TP33*%
X22250400Y-145008600D03*
%TD*%
D17*
%TO.C,R27*%
X62357000Y-46484135D03*
D18*
X62357000Y-36324135D03*
%TD*%
D33*
%TO.C,K42*%
X22580600Y-175564800D03*
D34*
X28580600Y-173564800D03*
X28580600Y-161364800D03*
X16580600Y-161364800D03*
X16580600Y-173564800D03*
%TD*%
D36*
%TO.C,U4*%
X384537400Y-102053400D03*
D37*
X384237400Y-99023400D03*
X379387400Y-99023400D03*
D36*
X379087400Y-102053400D03*
D21*
X390702400Y-102183400D03*
X390702400Y-99643400D03*
D20*
X390702400Y-97103400D03*
D21*
X390702400Y-94563400D03*
X390702400Y-92023400D03*
X390702400Y-89483400D03*
X390702400Y-86943400D03*
D20*
X390702400Y-84403400D03*
D21*
X390702400Y-81863400D03*
X390702400Y-79323400D03*
X390702400Y-76783400D03*
X390702400Y-74243400D03*
D20*
X390702400Y-71703400D03*
D21*
X390702400Y-69163400D03*
X390702400Y-66623400D03*
X390702400Y-64083400D03*
X390702400Y-61543400D03*
D20*
X390702400Y-59003400D03*
D21*
X390702400Y-56463400D03*
X390702400Y-53923400D03*
X372922400Y-53923400D03*
X372922400Y-56463400D03*
D20*
X372922400Y-59003400D03*
D21*
X372922400Y-61543400D03*
X372922400Y-64083400D03*
X372922400Y-66623400D03*
X372922400Y-69163400D03*
D20*
X372922400Y-71703400D03*
D21*
X372922400Y-74243400D03*
X372922400Y-76783400D03*
X372922400Y-79323400D03*
X372922400Y-81863400D03*
D20*
X372922400Y-84403400D03*
D21*
X372922400Y-86943400D03*
X372922400Y-89483400D03*
X372922400Y-92023400D03*
X372922400Y-94563400D03*
D20*
X372922400Y-97103400D03*
D21*
X372922400Y-99643400D03*
X372922400Y-102183400D03*
X384352400Y-54153400D03*
D20*
X381812400Y-54153400D03*
D21*
X379272400Y-54153400D03*
%TD*%
D12*
%TO.C,TP103*%
X237109000Y-99976535D03*
%TD*%
%TO.C,TP17*%
X112460000Y-57930000D03*
%TD*%
%TO.C,TP110*%
X258826000Y-99976535D03*
%TD*%
%TO.C,TP85*%
X65253482Y-207528000D03*
%TD*%
%TO.C,TP77*%
X172168278Y-124940880D03*
%TD*%
%TO.C,TP54*%
X387451600Y-45618400D03*
%TD*%
%TO.C,TP1*%
X208762600Y-138655255D03*
%TD*%
D17*
%TO.C,R12*%
X21259800Y-97586800D03*
D18*
X21259800Y-107746800D03*
%TD*%
D12*
%TO.C,TP53*%
X403479000Y-113538000D03*
%TD*%
%TO.C,TP11*%
X237718600Y-138782655D03*
%TD*%
%TO.C,TP20*%
X315770000Y-37490000D03*
%TD*%
D20*
%TO.C,J13*%
X156451778Y-125258880D03*
D21*
X156451778Y-127798880D03*
X156451778Y-130338880D03*
X156451778Y-132878880D03*
X156451778Y-135418880D03*
X156451778Y-137958880D03*
%TD*%
D26*
%TO.C,U12*%
X80635000Y-177411135D03*
D18*
X80635000Y-174871135D03*
X80635000Y-172331135D03*
X80635000Y-169791135D03*
X73015000Y-169791135D03*
X73015000Y-172331135D03*
X73015000Y-174871135D03*
X73015000Y-177411135D03*
%TD*%
D53*
%TO.C,J17*%
X206930000Y-211420000D03*
D54*
X212010000Y-211420000D03*
X217090000Y-211420000D03*
X222170000Y-211420000D03*
%TD*%
D12*
%TO.C,TP79*%
X120660000Y-188920000D03*
%TD*%
D55*
%TO.C,K23*%
X211963000Y-107190135D03*
D56*
X209423000Y-107190135D03*
X199263000Y-107190135D03*
X194183000Y-107190135D03*
%TD*%
D19*
%TO.C,K33*%
X266207000Y-134813415D03*
X266207000Y-132273415D03*
X266207000Y-129733415D03*
X266207000Y-127193415D03*
X266207000Y-124653415D03*
X258587000Y-124653415D03*
X258587000Y-127193415D03*
X258587000Y-129733415D03*
X258587000Y-132273415D03*
X258587000Y-134813415D03*
%TD*%
D12*
%TO.C,TP36*%
X43053000Y-94109135D03*
%TD*%
%TO.C,TP82*%
X140550480Y-188637980D03*
%TD*%
D20*
%TO.C,J16*%
X166860022Y-106237135D03*
D21*
X166860022Y-108777135D03*
X166860022Y-111317135D03*
X166860022Y-113857135D03*
X166860022Y-116397135D03*
X166860022Y-118937135D03*
%TD*%
D27*
%TO.C,TP87*%
X93167200Y-171577000D03*
%TD*%
D12*
%TO.C,TP14*%
X229870000Y-178511895D03*
%TD*%
D19*
%TO.C,K27*%
X244864300Y-76359135D03*
X244864300Y-73819135D03*
X244864300Y-71279135D03*
X244864300Y-68739135D03*
X244864300Y-66199135D03*
X237244300Y-66199135D03*
X237244300Y-68739135D03*
X237244300Y-71279135D03*
X237244300Y-73819135D03*
X237244300Y-76359135D03*
%TD*%
D20*
%TO.C,J8*%
X83761500Y-112401135D03*
D21*
X83761500Y-114941135D03*
X83761500Y-117481135D03*
X83761500Y-120021135D03*
X83761500Y-122561135D03*
X83761500Y-125101135D03*
X83761500Y-127641135D03*
X83761500Y-130181135D03*
X83761500Y-132721135D03*
X83761500Y-135261135D03*
%TD*%
D17*
%TO.C,R13*%
X17856200Y-97586800D03*
D18*
X17856200Y-107746800D03*
%TD*%
D12*
%TO.C,TP21*%
X65740000Y-117650000D03*
%TD*%
D36*
%TO.C,U3*%
X401657000Y-168576000D03*
D37*
X401357000Y-165546000D03*
X396507000Y-165546000D03*
D36*
X396207000Y-168576000D03*
D21*
X407822000Y-168706000D03*
X407822000Y-166166000D03*
D20*
X407822000Y-163626000D03*
D21*
X407822000Y-161086000D03*
X407822000Y-158546000D03*
X407822000Y-156006000D03*
X407822000Y-153466000D03*
D20*
X407822000Y-150926000D03*
D21*
X407822000Y-148386000D03*
X407822000Y-145846000D03*
X407822000Y-143306000D03*
X407822000Y-140766000D03*
D20*
X407822000Y-138226000D03*
D21*
X407822000Y-135686000D03*
X407822000Y-133146000D03*
X407822000Y-130606000D03*
X407822000Y-128066000D03*
D20*
X407822000Y-125526000D03*
D21*
X407822000Y-122986000D03*
X407822000Y-120446000D03*
X390042000Y-120446000D03*
X390042000Y-122986000D03*
D20*
X390042000Y-125526000D03*
D21*
X390042000Y-128066000D03*
X390042000Y-130606000D03*
X390042000Y-133146000D03*
X390042000Y-135686000D03*
D20*
X390042000Y-138226000D03*
D21*
X390042000Y-140766000D03*
X390042000Y-143306000D03*
X390042000Y-145846000D03*
X390042000Y-148386000D03*
D20*
X390042000Y-150926000D03*
D21*
X390042000Y-153466000D03*
X390042000Y-156006000D03*
X390042000Y-158546000D03*
X390042000Y-161086000D03*
D20*
X390042000Y-163626000D03*
D21*
X390042000Y-166166000D03*
X390042000Y-168706000D03*
X401472000Y-120676000D03*
D20*
X398932000Y-120676000D03*
D21*
X396392000Y-120676000D03*
%TD*%
D27*
%TO.C,TP22*%
X230900000Y-191850000D03*
%TD*%
D26*
%TO.C,D22*%
X87630000Y-44325135D03*
D18*
X87630000Y-51945135D03*
%TD*%
D12*
%TO.C,TP69*%
X309422800Y-80601415D03*
%TD*%
D17*
%TO.C,R17*%
X361830000Y-94440000D03*
D18*
X361830000Y-84280000D03*
%TD*%
D12*
%TO.C,TP105*%
X252145800Y-80735095D03*
%TD*%
D57*
%TO.C,F1*%
X53220000Y-191403250D03*
X31220000Y-191403250D03*
%TD*%
D20*
%TO.C,J30*%
X33234400Y-81772285D03*
D21*
X33234400Y-79232285D03*
X33234400Y-76692285D03*
X33234400Y-74152285D03*
X33234400Y-71612285D03*
X33234400Y-69072285D03*
%TD*%
D15*
%TO.C,U13*%
X338089000Y-166738135D03*
D16*
X338089000Y-164198135D03*
X338089000Y-161658135D03*
X338089000Y-159118135D03*
X338089000Y-156578135D03*
X338089000Y-154038135D03*
X338089000Y-151498135D03*
X338089000Y-148958135D03*
X330469000Y-148958135D03*
X330469000Y-151498135D03*
X330469000Y-154038135D03*
X330469000Y-156578135D03*
X330469000Y-159118135D03*
X330469000Y-161658135D03*
X330469000Y-164198135D03*
X330469000Y-166738135D03*
%TD*%
D15*
%TO.C,U18*%
X338470000Y-90411135D03*
D16*
X338470000Y-87871135D03*
X338470000Y-85331135D03*
X338470000Y-82791135D03*
X338470000Y-80251135D03*
X338470000Y-77711135D03*
X338470000Y-75171135D03*
X338470000Y-72631135D03*
X330850000Y-72631135D03*
X330850000Y-75171135D03*
X330850000Y-77711135D03*
X330850000Y-80251135D03*
X330850000Y-82791135D03*
X330850000Y-85331135D03*
X330850000Y-87871135D03*
X330850000Y-90411135D03*
%TD*%
D26*
%TO.C,D21*%
X83566000Y-44325135D03*
D18*
X83566000Y-51945135D03*
%TD*%
D12*
%TO.C,TP47*%
X370967000Y-151384000D03*
%TD*%
D15*
%TO.C,U16*%
X338709000Y-115064135D03*
D16*
X338709000Y-112524135D03*
X338709000Y-109984135D03*
X338709000Y-107444135D03*
X338709000Y-104904135D03*
X338709000Y-102364135D03*
X338709000Y-99824135D03*
X338709000Y-97284135D03*
X331089000Y-97284135D03*
X331089000Y-99824135D03*
X331089000Y-102364135D03*
X331089000Y-104904135D03*
X331089000Y-107444135D03*
X331089000Y-109984135D03*
X331089000Y-112524135D03*
X331089000Y-115064135D03*
%TD*%
D26*
%TO.C,D30*%
X99560000Y-193500000D03*
D18*
X99560000Y-201120000D03*
%TD*%
D17*
%TO.C,R71*%
X152400000Y-174080000D03*
D18*
X152400000Y-163920000D03*
%TD*%
D12*
%TO.C,TP117*%
X265953000Y-178628415D03*
%TD*%
%TO.C,TP115*%
X265887200Y-139137855D03*
%TD*%
%TO.C,TP107*%
X244348000Y-99976535D03*
%TD*%
D15*
%TO.C,U17*%
X338216000Y-140957135D03*
D16*
X338216000Y-138417135D03*
X338216000Y-135877135D03*
X338216000Y-133337135D03*
X338216000Y-130797135D03*
X338216000Y-128257135D03*
X338216000Y-125717135D03*
X338216000Y-123177135D03*
X330596000Y-123177135D03*
X330596000Y-125717135D03*
X330596000Y-128257135D03*
X330596000Y-130797135D03*
X330596000Y-133337135D03*
X330596000Y-135877135D03*
X330596000Y-138417135D03*
X330596000Y-140957135D03*
%TD*%
D12*
%TO.C,TP52*%
X382625600Y-45618400D03*
%TD*%
D19*
%TO.C,K15*%
X295156300Y-115056855D03*
X295156300Y-112516855D03*
X295156300Y-109976855D03*
X295156300Y-107436855D03*
X295156300Y-104896855D03*
X287536300Y-104896855D03*
X287536300Y-107436855D03*
X287536300Y-109976855D03*
X287536300Y-112516855D03*
X287536300Y-115056855D03*
%TD*%
D12*
%TO.C,TP64*%
X287578800Y-119255135D03*
%TD*%
%TO.C,TP73*%
X210185000Y-68455135D03*
%TD*%
D19*
%TO.C,K17*%
X309642600Y-95638615D03*
X309642600Y-93098615D03*
X309642600Y-90558615D03*
X309642600Y-88018615D03*
X309642600Y-85478615D03*
X302022600Y-85478615D03*
X302022600Y-88018615D03*
X302022600Y-90558615D03*
X302022600Y-93098615D03*
X302022600Y-95638615D03*
%TD*%
D12*
%TO.C,TP42*%
X364718600Y-101879400D03*
%TD*%
D49*
%TO.C,J3*%
X393877800Y-28300000D03*
X386387800Y-28300000D03*
X386387800Y-33300000D03*
X393877800Y-33300000D03*
%TD*%
D22*
%TO.C,Q3*%
X52130000Y-53350000D03*
D23*
X50060000Y-52080000D03*
X52130000Y-50810000D03*
%TD*%
D12*
%TO.C,TP8*%
X230479600Y-138787735D03*
%TD*%
%TO.C,TP112*%
X258521200Y-158162455D03*
%TD*%
%TO.C,TP125*%
X294716200Y-139270335D03*
%TD*%
%TO.C,TP23*%
X116332000Y-65280135D03*
%TD*%
%TO.C,TP24*%
X302641000Y-51818135D03*
%TD*%
D20*
%TO.C,J11*%
X156738278Y-143927880D03*
D21*
X156738278Y-146467880D03*
X156738278Y-149007880D03*
X156738278Y-151547880D03*
X156738278Y-154087880D03*
X156738278Y-156627880D03*
%TD*%
D58*
%TO.C,BZ1*%
X175885000Y-169801135D03*
D59*
X168285000Y-169801135D03*
%TD*%
D20*
%TO.C,J35*%
X59430000Y-177470000D03*
D21*
X59430000Y-180010000D03*
X59430000Y-182550000D03*
%TD*%
D12*
%TO.C,TP90*%
X223012000Y-99844055D03*
%TD*%
D19*
%TO.C,K41*%
X295179600Y-173649895D03*
X295179600Y-171109895D03*
X295179600Y-168569895D03*
X295179600Y-166029895D03*
X295179600Y-163489895D03*
X287559600Y-163489895D03*
X287559600Y-166029895D03*
X287559600Y-168569895D03*
X287559600Y-171109895D03*
X287559600Y-173649895D03*
%TD*%
%TO.C,K10*%
X280670000Y-76220375D03*
X280670000Y-73680375D03*
X280670000Y-71140375D03*
X280670000Y-68600375D03*
X280670000Y-66060375D03*
X273050000Y-66060375D03*
X273050000Y-68600375D03*
X273050000Y-71140375D03*
X273050000Y-73680375D03*
X273050000Y-76220375D03*
%TD*%
D12*
%TO.C,TP71*%
X68290000Y-55100000D03*
%TD*%
%TO.C,TP124*%
X276275800Y-177675135D03*
%TD*%
D60*
%TO.C,U5*%
X113411000Y-162543135D03*
D61*
X112141000Y-164613135D03*
X110871000Y-162543135D03*
%TD*%
D19*
%TO.C,K18*%
X309642600Y-115056855D03*
X309642600Y-112516855D03*
X309642600Y-109976855D03*
X309642600Y-107436855D03*
X309642600Y-104896855D03*
X302022600Y-104896855D03*
X302022600Y-107436855D03*
X302022600Y-109976855D03*
X302022600Y-112516855D03*
X302022600Y-115056855D03*
%TD*%
D17*
%TO.C,R36*%
X203600000Y-114120000D03*
D18*
X203600000Y-124280000D03*
%TD*%
D12*
%TO.C,TP45*%
X372999000Y-160274000D03*
%TD*%
%TO.C,TP61*%
X280593800Y-119122655D03*
%TD*%
%TO.C,TP81*%
X140804480Y-192955980D03*
%TD*%
%TO.C,TP63*%
X287401000Y-99837775D03*
%TD*%
%TO.C,TP67*%
X294640000Y-99837775D03*
%TD*%
D22*
%TO.C,Q2*%
X146323000Y-178183135D03*
D23*
X144253000Y-176913135D03*
X146323000Y-175643135D03*
%TD*%
D12*
%TO.C,TP109*%
X259130800Y-80740175D03*
%TD*%
D17*
%TO.C,R40*%
X361696000Y-27307135D03*
D18*
X361696000Y-37467135D03*
%TD*%
D28*
%TO.C,C2*%
X372491000Y-176151135D03*
D29*
X370491000Y-176151135D03*
%TD*%
D12*
%TO.C,TP95*%
X230301800Y-80607695D03*
%TD*%
D42*
%TO.C,J22*%
X406220000Y-202970000D03*
X408760000Y-202970000D03*
D43*
X401140000Y-208050000D03*
X411300000Y-208050000D03*
%TD*%
D12*
%TO.C,TP120*%
X272618200Y-177675135D03*
%TD*%
D20*
%TO.C,J29*%
X78943000Y-195363669D03*
D21*
X76403000Y-195363669D03*
X73863000Y-195363669D03*
X71323000Y-195363669D03*
%TD*%
D12*
%TO.C,TP16*%
X244322600Y-158015535D03*
%TD*%
D36*
%TO.C,U1*%
X128444944Y-155145879D03*
D37*
X128144944Y-152115879D03*
X123294944Y-152115879D03*
D36*
X122994944Y-155145879D03*
D21*
X134609944Y-155275879D03*
X134609944Y-152735879D03*
D20*
X134609944Y-150195879D03*
D21*
X134609944Y-147655879D03*
X134609944Y-145115879D03*
X134609944Y-142575879D03*
X134609944Y-140035879D03*
D20*
X134609944Y-137495879D03*
D21*
X134609944Y-134955879D03*
X134609944Y-132415879D03*
X134609944Y-129875879D03*
X134609944Y-127335879D03*
D20*
X134609944Y-124795879D03*
D21*
X134609944Y-122255879D03*
X134609944Y-119715879D03*
X134609944Y-117175879D03*
X134609944Y-114635879D03*
D20*
X134609944Y-112095879D03*
D21*
X134609944Y-109555879D03*
X134609944Y-107015879D03*
X116829944Y-107015879D03*
X116829944Y-109555879D03*
D20*
X116829944Y-112095879D03*
D21*
X116829944Y-114635879D03*
X116829944Y-117175879D03*
X116829944Y-119715879D03*
X116829944Y-122255879D03*
D20*
X116829944Y-124795879D03*
D21*
X116829944Y-127335879D03*
X116829944Y-129875879D03*
X116829944Y-132415879D03*
X116829944Y-134955879D03*
D20*
X116829944Y-137495879D03*
D21*
X116829944Y-140035879D03*
X116829944Y-142575879D03*
X116829944Y-145115879D03*
X116829944Y-147655879D03*
D20*
X116829944Y-150195879D03*
D21*
X116829944Y-152735879D03*
X116829944Y-155275879D03*
X128259944Y-107245879D03*
D20*
X125719944Y-107245879D03*
D21*
X123179944Y-107245879D03*
%TD*%
D12*
%TO.C,TP97*%
X67140000Y-191180000D03*
%TD*%
%TO.C,TP121*%
X287731200Y-139265255D03*
%TD*%
D19*
%TO.C,K26*%
X230378000Y-114972615D03*
X230378000Y-112432615D03*
X230378000Y-109892615D03*
X230378000Y-107352615D03*
X230378000Y-104812615D03*
X222758000Y-104812615D03*
X222758000Y-107352615D03*
X222758000Y-109892615D03*
X222758000Y-112432615D03*
X222758000Y-114972615D03*
%TD*%
D12*
%TO.C,TP113*%
X258841000Y-178755415D03*
%TD*%
%TO.C,TP51*%
X399288000Y-113538000D03*
%TD*%
%TO.C,TP12*%
X237591600Y-158015535D03*
%TD*%
D19*
%TO.C,K8*%
X244856000Y-153970895D03*
X244856000Y-151430895D03*
X244856000Y-148890895D03*
X244856000Y-146350895D03*
X244856000Y-143810895D03*
X237236000Y-143810895D03*
X237236000Y-146350895D03*
X237236000Y-148890895D03*
X237236000Y-151430895D03*
X237236000Y-153970895D03*
%TD*%
M02*
