G04 #@! TF.GenerationSoftware,KiCad,Pcbnew,7.0.5*
G04 #@! TF.CreationDate,2024-12-02T15:41:14-05:00*
G04 #@! TF.ProjectId,Interconnect,496e7465-7263-46f6-9e6e-6563742e6b69,1.1*
G04 #@! TF.SameCoordinates,Original*
G04 #@! TF.FileFunction,Soldermask,Top*
G04 #@! TF.FilePolarity,Negative*
%FSLAX46Y46*%
G04 Gerber Fmt 4.6, Leading zero omitted, Abs format (unit mm)*
G04 Created by KiCad (PCBNEW 7.0.5) date 2024-12-02 15:41:14*
%MOMM*%
%LPD*%
G01*
G04 APERTURE LIST*
G04 Aperture macros list*
%AMRoundRect*
0 Rectangle with rounded corners*
0 $1 Rounding radius*
0 $2 $3 $4 $5 $6 $7 $8 $9 X,Y pos of 4 corners*
0 Add a 4 corners polygon primitive as box body*
4,1,4,$2,$3,$4,$5,$6,$7,$8,$9,$2,$3,0*
0 Add four circle primitives for the rounded corners*
1,1,$1+$1,$2,$3*
1,1,$1+$1,$4,$5*
1,1,$1+$1,$6,$7*
1,1,$1+$1,$8,$9*
0 Add four rect primitives between the rounded corners*
20,1,$1+$1,$2,$3,$4,$5,0*
20,1,$1+$1,$4,$5,$6,$7,0*
20,1,$1+$1,$6,$7,$8,$9,0*
20,1,$1+$1,$8,$9,$2,$3,0*%
G04 Aperture macros list end*
%ADD10C,0.100000*%
%ADD11C,0.150000*%
%ADD12C,0.300000*%
%ADD13C,0.400000*%
%ADD14R,1.500000X1.500000*%
%ADD15C,1.500000*%
%ADD16RoundRect,0.200000X0.275000X-0.200000X0.275000X0.200000X-0.275000X0.200000X-0.275000X-0.200000X0*%
%ADD17R,1.650000X1.650000*%
%ADD18C,1.650000*%
%ADD19C,2.400000*%
%ADD20O,2.400000X2.400000*%
%ADD21R,1.000000X0.700000*%
%ADD22R,2.400000X1.600000*%
%ADD23O,2.400000X1.600000*%
%ADD24C,1.600000*%
%ADD25O,1.600000X1.600000*%
%ADD26O,2.300000X1.600000*%
%ADD27R,1.700000X1.700000*%
%ADD28O,1.700000X1.700000*%
%ADD29RoundRect,0.250000X-0.337500X-0.475000X0.337500X-0.475000X0.337500X0.475000X-0.337500X0.475000X0*%
%ADD30RoundRect,0.237500X0.237500X-0.250000X0.237500X0.250000X-0.237500X0.250000X-0.237500X-0.250000X0*%
%ADD31RoundRect,0.100000X-0.637500X-0.100000X0.637500X-0.100000X0.637500X0.100000X-0.637500X0.100000X0*%
%ADD32RoundRect,0.250000X0.350000X0.450000X-0.350000X0.450000X-0.350000X-0.450000X0.350000X-0.450000X0*%
%ADD33RoundRect,0.237500X-0.300000X-0.237500X0.300000X-0.237500X0.300000X0.237500X-0.300000X0.237500X0*%
%ADD34R,2.025000X2.025000*%
%ADD35C,2.025000*%
%ADD36RoundRect,0.249999X1.425001X-0.450001X1.425001X0.450001X-1.425001X0.450001X-1.425001X-0.450001X0*%
%ADD37R,1.600000X1.600000*%
%ADD38C,3.000000*%
%ADD39R,1.200000X1.200000*%
%ADD40C,1.200000*%
%ADD41C,4.200000*%
%ADD42RoundRect,0.250000X-0.450000X0.350000X-0.450000X-0.350000X0.450000X-0.350000X0.450000X0.350000X0*%
%ADD43C,3.250000*%
%ADD44RoundRect,0.200000X-0.275000X0.200000X-0.275000X-0.200000X0.275000X-0.200000X0.275000X0.200000X0*%
%ADD45R,2.500000X2.500000*%
%ADD46O,2.500000X2.500000*%
%ADD47C,4.000000*%
%ADD48RoundRect,0.237500X0.300000X0.237500X-0.300000X0.237500X-0.300000X-0.237500X0.300000X-0.237500X0*%
%ADD49O,1.800000X1.800000*%
%ADD50O,1.500000X1.500000*%
%ADD51R,3.500000X1.700000*%
%ADD52R,1.700000X3.500000*%
%ADD53RoundRect,0.150000X0.512500X0.150000X-0.512500X0.150000X-0.512500X-0.150000X0.512500X-0.150000X0*%
%ADD54RoundRect,0.237500X0.237500X-0.300000X0.237500X0.300000X-0.237500X0.300000X-0.237500X-0.300000X0*%
%ADD55RoundRect,0.041300X-0.253700X0.943700X-0.253700X-0.943700X0.253700X-0.943700X0.253700X0.943700X0*%
%ADD56C,1.905000*%
%ADD57C,1.700000*%
%ADD58C,3.500000*%
%ADD59O,3.900000X1.950000*%
%ADD60C,1.398000*%
%ADD61C,3.015000*%
%ADD62R,1.800000X1.800000*%
%ADD63C,1.800000*%
%ADD64R,2.600000X2.600000*%
%ADD65O,2.600000X2.600000*%
%ADD66C,1.900000*%
%ADD67C,2.850000*%
%ADD68C,2.550000*%
%ADD69O,2.700002X1.400000*%
%ADD70O,1.750000X2.750000*%
%ADD71R,1.950000X1.950000*%
%ADD72C,1.950000*%
%ADD73R,1.725000X1.725000*%
%ADD74C,1.725000*%
%ADD75O,1.950000X3.900000*%
%ADD76RoundRect,0.125000X-0.537500X-0.125000X0.537500X-0.125000X0.537500X0.125000X-0.537500X0.125000X0*%
%ADD77R,2.000000X2.000000*%
%ADD78C,2.000000*%
G04 #@! TA.AperFunction,Profile*
%ADD79C,0.100000*%
G04 #@! TD*
G04 #@! TA.AperFunction,Profile*
%ADD80C,0.160000*%
G04 #@! TD*
G04 APERTURE END LIST*
D10*
D11*
X311800000Y-235400000D02*
X419800000Y-235400000D01*
X419800000Y-267400000D01*
X311800000Y-267400000D01*
X311800000Y-235400000D01*
D10*
D11*
X10000000Y-10000000D02*
X421800000Y-10000000D01*
X421800000Y-269400000D01*
X10000000Y-269400000D01*
X10000000Y-10000000D01*
D10*
D11*
X12000000Y-12000000D02*
X419800000Y-12000000D01*
X419800000Y-267400000D01*
X12000000Y-267400000D01*
X12000000Y-12000000D01*
D10*
D11*
X60000000Y-12000000D02*
X60000000Y-10000000D01*
D10*
D11*
X110000000Y-12000000D02*
X110000000Y-10000000D01*
D10*
D11*
X160000000Y-12000000D02*
X160000000Y-10000000D01*
D10*
D11*
X210000000Y-12000000D02*
X210000000Y-10000000D01*
D10*
D11*
X260000000Y-12000000D02*
X260000000Y-10000000D01*
D10*
D11*
X310000000Y-12000000D02*
X310000000Y-10000000D01*
D10*
D11*
X360000000Y-12000000D02*
X360000000Y-10000000D01*
D10*
D11*
X410000000Y-12000000D02*
X410000000Y-10000000D01*
D10*
D11*
X36089160Y-11593604D02*
X35346303Y-11593604D01*
X35717731Y-11593604D02*
X35717731Y-10293604D01*
X35717731Y-10293604D02*
X35593922Y-10479319D01*
X35593922Y-10479319D02*
X35470112Y-10603128D01*
X35470112Y-10603128D02*
X35346303Y-10665033D01*
D10*
D11*
X85346303Y-10417414D02*
X85408207Y-10355509D01*
X85408207Y-10355509D02*
X85532017Y-10293604D01*
X85532017Y-10293604D02*
X85841541Y-10293604D01*
X85841541Y-10293604D02*
X85965350Y-10355509D01*
X85965350Y-10355509D02*
X86027255Y-10417414D01*
X86027255Y-10417414D02*
X86089160Y-10541223D01*
X86089160Y-10541223D02*
X86089160Y-10665033D01*
X86089160Y-10665033D02*
X86027255Y-10850747D01*
X86027255Y-10850747D02*
X85284398Y-11593604D01*
X85284398Y-11593604D02*
X86089160Y-11593604D01*
D10*
D11*
X135284398Y-10293604D02*
X136089160Y-10293604D01*
X136089160Y-10293604D02*
X135655826Y-10788842D01*
X135655826Y-10788842D02*
X135841541Y-10788842D01*
X135841541Y-10788842D02*
X135965350Y-10850747D01*
X135965350Y-10850747D02*
X136027255Y-10912652D01*
X136027255Y-10912652D02*
X136089160Y-11036461D01*
X136089160Y-11036461D02*
X136089160Y-11345985D01*
X136089160Y-11345985D02*
X136027255Y-11469795D01*
X136027255Y-11469795D02*
X135965350Y-11531700D01*
X135965350Y-11531700D02*
X135841541Y-11593604D01*
X135841541Y-11593604D02*
X135470112Y-11593604D01*
X135470112Y-11593604D02*
X135346303Y-11531700D01*
X135346303Y-11531700D02*
X135284398Y-11469795D01*
D10*
D11*
X185965350Y-10726938D02*
X185965350Y-11593604D01*
X185655826Y-10231700D02*
X185346303Y-11160271D01*
X185346303Y-11160271D02*
X186151064Y-11160271D01*
D10*
D11*
X236027255Y-10293604D02*
X235408207Y-10293604D01*
X235408207Y-10293604D02*
X235346303Y-10912652D01*
X235346303Y-10912652D02*
X235408207Y-10850747D01*
X235408207Y-10850747D02*
X235532017Y-10788842D01*
X235532017Y-10788842D02*
X235841541Y-10788842D01*
X235841541Y-10788842D02*
X235965350Y-10850747D01*
X235965350Y-10850747D02*
X236027255Y-10912652D01*
X236027255Y-10912652D02*
X236089160Y-11036461D01*
X236089160Y-11036461D02*
X236089160Y-11345985D01*
X236089160Y-11345985D02*
X236027255Y-11469795D01*
X236027255Y-11469795D02*
X235965350Y-11531700D01*
X235965350Y-11531700D02*
X235841541Y-11593604D01*
X235841541Y-11593604D02*
X235532017Y-11593604D01*
X235532017Y-11593604D02*
X235408207Y-11531700D01*
X235408207Y-11531700D02*
X235346303Y-11469795D01*
D10*
D11*
X285965350Y-10293604D02*
X285717731Y-10293604D01*
X285717731Y-10293604D02*
X285593922Y-10355509D01*
X285593922Y-10355509D02*
X285532017Y-10417414D01*
X285532017Y-10417414D02*
X285408207Y-10603128D01*
X285408207Y-10603128D02*
X285346303Y-10850747D01*
X285346303Y-10850747D02*
X285346303Y-11345985D01*
X285346303Y-11345985D02*
X285408207Y-11469795D01*
X285408207Y-11469795D02*
X285470112Y-11531700D01*
X285470112Y-11531700D02*
X285593922Y-11593604D01*
X285593922Y-11593604D02*
X285841541Y-11593604D01*
X285841541Y-11593604D02*
X285965350Y-11531700D01*
X285965350Y-11531700D02*
X286027255Y-11469795D01*
X286027255Y-11469795D02*
X286089160Y-11345985D01*
X286089160Y-11345985D02*
X286089160Y-11036461D01*
X286089160Y-11036461D02*
X286027255Y-10912652D01*
X286027255Y-10912652D02*
X285965350Y-10850747D01*
X285965350Y-10850747D02*
X285841541Y-10788842D01*
X285841541Y-10788842D02*
X285593922Y-10788842D01*
X285593922Y-10788842D02*
X285470112Y-10850747D01*
X285470112Y-10850747D02*
X285408207Y-10912652D01*
X285408207Y-10912652D02*
X285346303Y-11036461D01*
D10*
D11*
X335284398Y-10293604D02*
X336151064Y-10293604D01*
X336151064Y-10293604D02*
X335593922Y-11593604D01*
D10*
D11*
X385593922Y-10850747D02*
X385470112Y-10788842D01*
X385470112Y-10788842D02*
X385408207Y-10726938D01*
X385408207Y-10726938D02*
X385346303Y-10603128D01*
X385346303Y-10603128D02*
X385346303Y-10541223D01*
X385346303Y-10541223D02*
X385408207Y-10417414D01*
X385408207Y-10417414D02*
X385470112Y-10355509D01*
X385470112Y-10355509D02*
X385593922Y-10293604D01*
X385593922Y-10293604D02*
X385841541Y-10293604D01*
X385841541Y-10293604D02*
X385965350Y-10355509D01*
X385965350Y-10355509D02*
X386027255Y-10417414D01*
X386027255Y-10417414D02*
X386089160Y-10541223D01*
X386089160Y-10541223D02*
X386089160Y-10603128D01*
X386089160Y-10603128D02*
X386027255Y-10726938D01*
X386027255Y-10726938D02*
X385965350Y-10788842D01*
X385965350Y-10788842D02*
X385841541Y-10850747D01*
X385841541Y-10850747D02*
X385593922Y-10850747D01*
X385593922Y-10850747D02*
X385470112Y-10912652D01*
X385470112Y-10912652D02*
X385408207Y-10974557D01*
X385408207Y-10974557D02*
X385346303Y-11098366D01*
X385346303Y-11098366D02*
X385346303Y-11345985D01*
X385346303Y-11345985D02*
X385408207Y-11469795D01*
X385408207Y-11469795D02*
X385470112Y-11531700D01*
X385470112Y-11531700D02*
X385593922Y-11593604D01*
X385593922Y-11593604D02*
X385841541Y-11593604D01*
X385841541Y-11593604D02*
X385965350Y-11531700D01*
X385965350Y-11531700D02*
X386027255Y-11469795D01*
X386027255Y-11469795D02*
X386089160Y-11345985D01*
X386089160Y-11345985D02*
X386089160Y-11098366D01*
X386089160Y-11098366D02*
X386027255Y-10974557D01*
X386027255Y-10974557D02*
X385965350Y-10912652D01*
X385965350Y-10912652D02*
X385841541Y-10850747D01*
D10*
D11*
X60000000Y-267400000D02*
X60000000Y-269400000D01*
D10*
D11*
X110000000Y-267400000D02*
X110000000Y-269400000D01*
D10*
D11*
X160000000Y-267400000D02*
X160000000Y-269400000D01*
D10*
D11*
X210000000Y-267400000D02*
X210000000Y-269400000D01*
D10*
D11*
X260000000Y-267400000D02*
X260000000Y-269400000D01*
D10*
D11*
X310000000Y-267400000D02*
X310000000Y-269400000D01*
D10*
D11*
X360000000Y-267400000D02*
X360000000Y-269400000D01*
D10*
D11*
X410000000Y-267400000D02*
X410000000Y-269400000D01*
D10*
D11*
X36089160Y-268993604D02*
X35346303Y-268993604D01*
X35717731Y-268993604D02*
X35717731Y-267693604D01*
X35717731Y-267693604D02*
X35593922Y-267879319D01*
X35593922Y-267879319D02*
X35470112Y-268003128D01*
X35470112Y-268003128D02*
X35346303Y-268065033D01*
D10*
D11*
X85346303Y-267817414D02*
X85408207Y-267755509D01*
X85408207Y-267755509D02*
X85532017Y-267693604D01*
X85532017Y-267693604D02*
X85841541Y-267693604D01*
X85841541Y-267693604D02*
X85965350Y-267755509D01*
X85965350Y-267755509D02*
X86027255Y-267817414D01*
X86027255Y-267817414D02*
X86089160Y-267941223D01*
X86089160Y-267941223D02*
X86089160Y-268065033D01*
X86089160Y-268065033D02*
X86027255Y-268250747D01*
X86027255Y-268250747D02*
X85284398Y-268993604D01*
X85284398Y-268993604D02*
X86089160Y-268993604D01*
D10*
D11*
X135284398Y-267693604D02*
X136089160Y-267693604D01*
X136089160Y-267693604D02*
X135655826Y-268188842D01*
X135655826Y-268188842D02*
X135841541Y-268188842D01*
X135841541Y-268188842D02*
X135965350Y-268250747D01*
X135965350Y-268250747D02*
X136027255Y-268312652D01*
X136027255Y-268312652D02*
X136089160Y-268436461D01*
X136089160Y-268436461D02*
X136089160Y-268745985D01*
X136089160Y-268745985D02*
X136027255Y-268869795D01*
X136027255Y-268869795D02*
X135965350Y-268931700D01*
X135965350Y-268931700D02*
X135841541Y-268993604D01*
X135841541Y-268993604D02*
X135470112Y-268993604D01*
X135470112Y-268993604D02*
X135346303Y-268931700D01*
X135346303Y-268931700D02*
X135284398Y-268869795D01*
D10*
D11*
X185965350Y-268126938D02*
X185965350Y-268993604D01*
X185655826Y-267631700D02*
X185346303Y-268560271D01*
X185346303Y-268560271D02*
X186151064Y-268560271D01*
D10*
D11*
X236027255Y-267693604D02*
X235408207Y-267693604D01*
X235408207Y-267693604D02*
X235346303Y-268312652D01*
X235346303Y-268312652D02*
X235408207Y-268250747D01*
X235408207Y-268250747D02*
X235532017Y-268188842D01*
X235532017Y-268188842D02*
X235841541Y-268188842D01*
X235841541Y-268188842D02*
X235965350Y-268250747D01*
X235965350Y-268250747D02*
X236027255Y-268312652D01*
X236027255Y-268312652D02*
X236089160Y-268436461D01*
X236089160Y-268436461D02*
X236089160Y-268745985D01*
X236089160Y-268745985D02*
X236027255Y-268869795D01*
X236027255Y-268869795D02*
X235965350Y-268931700D01*
X235965350Y-268931700D02*
X235841541Y-268993604D01*
X235841541Y-268993604D02*
X235532017Y-268993604D01*
X235532017Y-268993604D02*
X235408207Y-268931700D01*
X235408207Y-268931700D02*
X235346303Y-268869795D01*
D10*
D11*
X285965350Y-267693604D02*
X285717731Y-267693604D01*
X285717731Y-267693604D02*
X285593922Y-267755509D01*
X285593922Y-267755509D02*
X285532017Y-267817414D01*
X285532017Y-267817414D02*
X285408207Y-268003128D01*
X285408207Y-268003128D02*
X285346303Y-268250747D01*
X285346303Y-268250747D02*
X285346303Y-268745985D01*
X285346303Y-268745985D02*
X285408207Y-268869795D01*
X285408207Y-268869795D02*
X285470112Y-268931700D01*
X285470112Y-268931700D02*
X285593922Y-268993604D01*
X285593922Y-268993604D02*
X285841541Y-268993604D01*
X285841541Y-268993604D02*
X285965350Y-268931700D01*
X285965350Y-268931700D02*
X286027255Y-268869795D01*
X286027255Y-268869795D02*
X286089160Y-268745985D01*
X286089160Y-268745985D02*
X286089160Y-268436461D01*
X286089160Y-268436461D02*
X286027255Y-268312652D01*
X286027255Y-268312652D02*
X285965350Y-268250747D01*
X285965350Y-268250747D02*
X285841541Y-268188842D01*
X285841541Y-268188842D02*
X285593922Y-268188842D01*
X285593922Y-268188842D02*
X285470112Y-268250747D01*
X285470112Y-268250747D02*
X285408207Y-268312652D01*
X285408207Y-268312652D02*
X285346303Y-268436461D01*
D10*
D11*
X335284398Y-267693604D02*
X336151064Y-267693604D01*
X336151064Y-267693604D02*
X335593922Y-268993604D01*
D10*
D11*
X385593922Y-268250747D02*
X385470112Y-268188842D01*
X385470112Y-268188842D02*
X385408207Y-268126938D01*
X385408207Y-268126938D02*
X385346303Y-268003128D01*
X385346303Y-268003128D02*
X385346303Y-267941223D01*
X385346303Y-267941223D02*
X385408207Y-267817414D01*
X385408207Y-267817414D02*
X385470112Y-267755509D01*
X385470112Y-267755509D02*
X385593922Y-267693604D01*
X385593922Y-267693604D02*
X385841541Y-267693604D01*
X385841541Y-267693604D02*
X385965350Y-267755509D01*
X385965350Y-267755509D02*
X386027255Y-267817414D01*
X386027255Y-267817414D02*
X386089160Y-267941223D01*
X386089160Y-267941223D02*
X386089160Y-268003128D01*
X386089160Y-268003128D02*
X386027255Y-268126938D01*
X386027255Y-268126938D02*
X385965350Y-268188842D01*
X385965350Y-268188842D02*
X385841541Y-268250747D01*
X385841541Y-268250747D02*
X385593922Y-268250747D01*
X385593922Y-268250747D02*
X385470112Y-268312652D01*
X385470112Y-268312652D02*
X385408207Y-268374557D01*
X385408207Y-268374557D02*
X385346303Y-268498366D01*
X385346303Y-268498366D02*
X385346303Y-268745985D01*
X385346303Y-268745985D02*
X385408207Y-268869795D01*
X385408207Y-268869795D02*
X385470112Y-268931700D01*
X385470112Y-268931700D02*
X385593922Y-268993604D01*
X385593922Y-268993604D02*
X385841541Y-268993604D01*
X385841541Y-268993604D02*
X385965350Y-268931700D01*
X385965350Y-268931700D02*
X386027255Y-268869795D01*
X386027255Y-268869795D02*
X386089160Y-268745985D01*
X386089160Y-268745985D02*
X386089160Y-268498366D01*
X386089160Y-268498366D02*
X386027255Y-268374557D01*
X386027255Y-268374557D02*
X385965350Y-268312652D01*
X385965350Y-268312652D02*
X385841541Y-268250747D01*
D10*
D11*
X10000000Y-60000000D02*
X12000000Y-60000000D01*
D10*
D11*
X10000000Y-110000000D02*
X12000000Y-110000000D01*
D10*
D11*
X10000000Y-160000000D02*
X12000000Y-160000000D01*
D10*
D11*
X10000000Y-210000000D02*
X12000000Y-210000000D01*
D10*
D11*
X10000000Y-260000000D02*
X12000000Y-260000000D01*
D10*
D11*
X10690476Y-35222176D02*
X11309523Y-35222176D01*
X10566666Y-35593604D02*
X10999999Y-34293604D01*
X10999999Y-34293604D02*
X11433333Y-35593604D01*
D10*
D11*
X11092857Y-84912652D02*
X11278571Y-84974557D01*
X11278571Y-84974557D02*
X11340476Y-85036461D01*
X11340476Y-85036461D02*
X11402380Y-85160271D01*
X11402380Y-85160271D02*
X11402380Y-85345985D01*
X11402380Y-85345985D02*
X11340476Y-85469795D01*
X11340476Y-85469795D02*
X11278571Y-85531700D01*
X11278571Y-85531700D02*
X11154761Y-85593604D01*
X11154761Y-85593604D02*
X10659523Y-85593604D01*
X10659523Y-85593604D02*
X10659523Y-84293604D01*
X10659523Y-84293604D02*
X11092857Y-84293604D01*
X11092857Y-84293604D02*
X11216666Y-84355509D01*
X11216666Y-84355509D02*
X11278571Y-84417414D01*
X11278571Y-84417414D02*
X11340476Y-84541223D01*
X11340476Y-84541223D02*
X11340476Y-84665033D01*
X11340476Y-84665033D02*
X11278571Y-84788842D01*
X11278571Y-84788842D02*
X11216666Y-84850747D01*
X11216666Y-84850747D02*
X11092857Y-84912652D01*
X11092857Y-84912652D02*
X10659523Y-84912652D01*
D10*
D11*
X11402380Y-135469795D02*
X11340476Y-135531700D01*
X11340476Y-135531700D02*
X11154761Y-135593604D01*
X11154761Y-135593604D02*
X11030952Y-135593604D01*
X11030952Y-135593604D02*
X10845238Y-135531700D01*
X10845238Y-135531700D02*
X10721428Y-135407890D01*
X10721428Y-135407890D02*
X10659523Y-135284080D01*
X10659523Y-135284080D02*
X10597619Y-135036461D01*
X10597619Y-135036461D02*
X10597619Y-134850747D01*
X10597619Y-134850747D02*
X10659523Y-134603128D01*
X10659523Y-134603128D02*
X10721428Y-134479319D01*
X10721428Y-134479319D02*
X10845238Y-134355509D01*
X10845238Y-134355509D02*
X11030952Y-134293604D01*
X11030952Y-134293604D02*
X11154761Y-134293604D01*
X11154761Y-134293604D02*
X11340476Y-134355509D01*
X11340476Y-134355509D02*
X11402380Y-134417414D01*
D10*
D11*
X10659523Y-185593604D02*
X10659523Y-184293604D01*
X10659523Y-184293604D02*
X10969047Y-184293604D01*
X10969047Y-184293604D02*
X11154761Y-184355509D01*
X11154761Y-184355509D02*
X11278571Y-184479319D01*
X11278571Y-184479319D02*
X11340476Y-184603128D01*
X11340476Y-184603128D02*
X11402380Y-184850747D01*
X11402380Y-184850747D02*
X11402380Y-185036461D01*
X11402380Y-185036461D02*
X11340476Y-185284080D01*
X11340476Y-185284080D02*
X11278571Y-185407890D01*
X11278571Y-185407890D02*
X11154761Y-185531700D01*
X11154761Y-185531700D02*
X10969047Y-185593604D01*
X10969047Y-185593604D02*
X10659523Y-185593604D01*
D10*
D11*
X10721428Y-234912652D02*
X11154762Y-234912652D01*
X11340476Y-235593604D02*
X10721428Y-235593604D01*
X10721428Y-235593604D02*
X10721428Y-234293604D01*
X10721428Y-234293604D02*
X11340476Y-234293604D01*
D10*
D11*
X421800000Y-60000000D02*
X419800000Y-60000000D01*
D10*
D11*
X421800000Y-110000000D02*
X419800000Y-110000000D01*
D10*
D11*
X421800000Y-160000000D02*
X419800000Y-160000000D01*
D10*
D11*
X421800000Y-210000000D02*
X419800000Y-210000000D01*
D10*
D11*
X421800000Y-260000000D02*
X419800000Y-260000000D01*
D10*
D11*
X420490476Y-35222176D02*
X421109523Y-35222176D01*
X420366666Y-35593604D02*
X420799999Y-34293604D01*
X420799999Y-34293604D02*
X421233333Y-35593604D01*
D10*
D11*
X420892857Y-84912652D02*
X421078571Y-84974557D01*
X421078571Y-84974557D02*
X421140476Y-85036461D01*
X421140476Y-85036461D02*
X421202380Y-85160271D01*
X421202380Y-85160271D02*
X421202380Y-85345985D01*
X421202380Y-85345985D02*
X421140476Y-85469795D01*
X421140476Y-85469795D02*
X421078571Y-85531700D01*
X421078571Y-85531700D02*
X420954761Y-85593604D01*
X420954761Y-85593604D02*
X420459523Y-85593604D01*
X420459523Y-85593604D02*
X420459523Y-84293604D01*
X420459523Y-84293604D02*
X420892857Y-84293604D01*
X420892857Y-84293604D02*
X421016666Y-84355509D01*
X421016666Y-84355509D02*
X421078571Y-84417414D01*
X421078571Y-84417414D02*
X421140476Y-84541223D01*
X421140476Y-84541223D02*
X421140476Y-84665033D01*
X421140476Y-84665033D02*
X421078571Y-84788842D01*
X421078571Y-84788842D02*
X421016666Y-84850747D01*
X421016666Y-84850747D02*
X420892857Y-84912652D01*
X420892857Y-84912652D02*
X420459523Y-84912652D01*
D10*
D11*
X421202380Y-135469795D02*
X421140476Y-135531700D01*
X421140476Y-135531700D02*
X420954761Y-135593604D01*
X420954761Y-135593604D02*
X420830952Y-135593604D01*
X420830952Y-135593604D02*
X420645238Y-135531700D01*
X420645238Y-135531700D02*
X420521428Y-135407890D01*
X420521428Y-135407890D02*
X420459523Y-135284080D01*
X420459523Y-135284080D02*
X420397619Y-135036461D01*
X420397619Y-135036461D02*
X420397619Y-134850747D01*
X420397619Y-134850747D02*
X420459523Y-134603128D01*
X420459523Y-134603128D02*
X420521428Y-134479319D01*
X420521428Y-134479319D02*
X420645238Y-134355509D01*
X420645238Y-134355509D02*
X420830952Y-134293604D01*
X420830952Y-134293604D02*
X420954761Y-134293604D01*
X420954761Y-134293604D02*
X421140476Y-134355509D01*
X421140476Y-134355509D02*
X421202380Y-134417414D01*
D10*
D11*
X420459523Y-185593604D02*
X420459523Y-184293604D01*
X420459523Y-184293604D02*
X420769047Y-184293604D01*
X420769047Y-184293604D02*
X420954761Y-184355509D01*
X420954761Y-184355509D02*
X421078571Y-184479319D01*
X421078571Y-184479319D02*
X421140476Y-184603128D01*
X421140476Y-184603128D02*
X421202380Y-184850747D01*
X421202380Y-184850747D02*
X421202380Y-185036461D01*
X421202380Y-185036461D02*
X421140476Y-185284080D01*
X421140476Y-185284080D02*
X421078571Y-185407890D01*
X421078571Y-185407890D02*
X420954761Y-185531700D01*
X420954761Y-185531700D02*
X420769047Y-185593604D01*
X420769047Y-185593604D02*
X420459523Y-185593604D01*
D10*
D11*
X420521428Y-234912652D02*
X420954762Y-234912652D01*
X421140476Y-235593604D02*
X420521428Y-235593604D01*
X420521428Y-235593604D02*
X420521428Y-234293604D01*
X420521428Y-234293604D02*
X421140476Y-234293604D01*
D10*
D11*
X335255826Y-263186128D02*
X335255826Y-261686128D01*
X335255826Y-261686128D02*
X335612969Y-261686128D01*
X335612969Y-261686128D02*
X335827255Y-261757557D01*
X335827255Y-261757557D02*
X335970112Y-261900414D01*
X335970112Y-261900414D02*
X336041541Y-262043271D01*
X336041541Y-262043271D02*
X336112969Y-262328985D01*
X336112969Y-262328985D02*
X336112969Y-262543271D01*
X336112969Y-262543271D02*
X336041541Y-262828985D01*
X336041541Y-262828985D02*
X335970112Y-262971842D01*
X335970112Y-262971842D02*
X335827255Y-263114700D01*
X335827255Y-263114700D02*
X335612969Y-263186128D01*
X335612969Y-263186128D02*
X335255826Y-263186128D01*
X337398684Y-263186128D02*
X337398684Y-262400414D01*
X337398684Y-262400414D02*
X337327255Y-262257557D01*
X337327255Y-262257557D02*
X337184398Y-262186128D01*
X337184398Y-262186128D02*
X336898684Y-262186128D01*
X336898684Y-262186128D02*
X336755826Y-262257557D01*
X337398684Y-263114700D02*
X337255826Y-263186128D01*
X337255826Y-263186128D02*
X336898684Y-263186128D01*
X336898684Y-263186128D02*
X336755826Y-263114700D01*
X336755826Y-263114700D02*
X336684398Y-262971842D01*
X336684398Y-262971842D02*
X336684398Y-262828985D01*
X336684398Y-262828985D02*
X336755826Y-262686128D01*
X336755826Y-262686128D02*
X336898684Y-262614700D01*
X336898684Y-262614700D02*
X337255826Y-262614700D01*
X337255826Y-262614700D02*
X337398684Y-262543271D01*
X337898684Y-262186128D02*
X338470112Y-262186128D01*
X338112969Y-261686128D02*
X338112969Y-262971842D01*
X338112969Y-262971842D02*
X338184398Y-263114700D01*
X338184398Y-263114700D02*
X338327255Y-263186128D01*
X338327255Y-263186128D02*
X338470112Y-263186128D01*
X339541541Y-263114700D02*
X339398684Y-263186128D01*
X339398684Y-263186128D02*
X339112970Y-263186128D01*
X339112970Y-263186128D02*
X338970112Y-263114700D01*
X338970112Y-263114700D02*
X338898684Y-262971842D01*
X338898684Y-262971842D02*
X338898684Y-262400414D01*
X338898684Y-262400414D02*
X338970112Y-262257557D01*
X338970112Y-262257557D02*
X339112970Y-262186128D01*
X339112970Y-262186128D02*
X339398684Y-262186128D01*
X339398684Y-262186128D02*
X339541541Y-262257557D01*
X339541541Y-262257557D02*
X339612970Y-262400414D01*
X339612970Y-262400414D02*
X339612970Y-262543271D01*
X339612970Y-262543271D02*
X338898684Y-262686128D01*
X340255826Y-263043271D02*
X340327255Y-263114700D01*
X340327255Y-263114700D02*
X340255826Y-263186128D01*
X340255826Y-263186128D02*
X340184398Y-263114700D01*
X340184398Y-263114700D02*
X340255826Y-263043271D01*
X340255826Y-263043271D02*
X340255826Y-263186128D01*
X340255826Y-262257557D02*
X340327255Y-262328985D01*
X340327255Y-262328985D02*
X340255826Y-262400414D01*
X340255826Y-262400414D02*
X340184398Y-262328985D01*
X340184398Y-262328985D02*
X340255826Y-262257557D01*
X340255826Y-262257557D02*
X340255826Y-262400414D01*
X342041541Y-261828985D02*
X342112969Y-261757557D01*
X342112969Y-261757557D02*
X342255827Y-261686128D01*
X342255827Y-261686128D02*
X342612969Y-261686128D01*
X342612969Y-261686128D02*
X342755827Y-261757557D01*
X342755827Y-261757557D02*
X342827255Y-261828985D01*
X342827255Y-261828985D02*
X342898684Y-261971842D01*
X342898684Y-261971842D02*
X342898684Y-262114700D01*
X342898684Y-262114700D02*
X342827255Y-262328985D01*
X342827255Y-262328985D02*
X341970112Y-263186128D01*
X341970112Y-263186128D02*
X342898684Y-263186128D01*
X343827255Y-261686128D02*
X343970112Y-261686128D01*
X343970112Y-261686128D02*
X344112969Y-261757557D01*
X344112969Y-261757557D02*
X344184398Y-261828985D01*
X344184398Y-261828985D02*
X344255826Y-261971842D01*
X344255826Y-261971842D02*
X344327255Y-262257557D01*
X344327255Y-262257557D02*
X344327255Y-262614700D01*
X344327255Y-262614700D02*
X344255826Y-262900414D01*
X344255826Y-262900414D02*
X344184398Y-263043271D01*
X344184398Y-263043271D02*
X344112969Y-263114700D01*
X344112969Y-263114700D02*
X343970112Y-263186128D01*
X343970112Y-263186128D02*
X343827255Y-263186128D01*
X343827255Y-263186128D02*
X343684398Y-263114700D01*
X343684398Y-263114700D02*
X343612969Y-263043271D01*
X343612969Y-263043271D02*
X343541540Y-262900414D01*
X343541540Y-262900414D02*
X343470112Y-262614700D01*
X343470112Y-262614700D02*
X343470112Y-262257557D01*
X343470112Y-262257557D02*
X343541540Y-261971842D01*
X343541540Y-261971842D02*
X343612969Y-261828985D01*
X343612969Y-261828985D02*
X343684398Y-261757557D01*
X343684398Y-261757557D02*
X343827255Y-261686128D01*
X344898683Y-261828985D02*
X344970111Y-261757557D01*
X344970111Y-261757557D02*
X345112969Y-261686128D01*
X345112969Y-261686128D02*
X345470111Y-261686128D01*
X345470111Y-261686128D02*
X345612969Y-261757557D01*
X345612969Y-261757557D02*
X345684397Y-261828985D01*
X345684397Y-261828985D02*
X345755826Y-261971842D01*
X345755826Y-261971842D02*
X345755826Y-262114700D01*
X345755826Y-262114700D02*
X345684397Y-262328985D01*
X345684397Y-262328985D02*
X344827254Y-263186128D01*
X344827254Y-263186128D02*
X345755826Y-263186128D01*
X347041540Y-262186128D02*
X347041540Y-263186128D01*
X346684397Y-261614700D02*
X346327254Y-262686128D01*
X346327254Y-262686128D02*
X347255825Y-262686128D01*
X347827253Y-262614700D02*
X348970111Y-262614700D01*
X350470111Y-263186128D02*
X349612968Y-263186128D01*
X350041539Y-263186128D02*
X350041539Y-261686128D01*
X350041539Y-261686128D02*
X349898682Y-261900414D01*
X349898682Y-261900414D02*
X349755825Y-262043271D01*
X349755825Y-262043271D02*
X349612968Y-262114700D01*
X351398682Y-261686128D02*
X351541539Y-261686128D01*
X351541539Y-261686128D02*
X351684396Y-261757557D01*
X351684396Y-261757557D02*
X351755825Y-261828985D01*
X351755825Y-261828985D02*
X351827253Y-261971842D01*
X351827253Y-261971842D02*
X351898682Y-262257557D01*
X351898682Y-262257557D02*
X351898682Y-262614700D01*
X351898682Y-262614700D02*
X351827253Y-262900414D01*
X351827253Y-262900414D02*
X351755825Y-263043271D01*
X351755825Y-263043271D02*
X351684396Y-263114700D01*
X351684396Y-263114700D02*
X351541539Y-263186128D01*
X351541539Y-263186128D02*
X351398682Y-263186128D01*
X351398682Y-263186128D02*
X351255825Y-263114700D01*
X351255825Y-263114700D02*
X351184396Y-263043271D01*
X351184396Y-263043271D02*
X351112967Y-262900414D01*
X351112967Y-262900414D02*
X351041539Y-262614700D01*
X351041539Y-262614700D02*
X351041539Y-262257557D01*
X351041539Y-262257557D02*
X351112967Y-261971842D01*
X351112967Y-261971842D02*
X351184396Y-261828985D01*
X351184396Y-261828985D02*
X351255825Y-261757557D01*
X351255825Y-261757557D02*
X351398682Y-261686128D01*
X352541538Y-262614700D02*
X353684396Y-262614700D01*
X355184396Y-263186128D02*
X354327253Y-263186128D01*
X354755824Y-263186128D02*
X354755824Y-261686128D01*
X354755824Y-261686128D02*
X354612967Y-261900414D01*
X354612967Y-261900414D02*
X354470110Y-262043271D01*
X354470110Y-262043271D02*
X354327253Y-262114700D01*
X355755824Y-261828985D02*
X355827252Y-261757557D01*
X355827252Y-261757557D02*
X355970110Y-261686128D01*
X355970110Y-261686128D02*
X356327252Y-261686128D01*
X356327252Y-261686128D02*
X356470110Y-261757557D01*
X356470110Y-261757557D02*
X356541538Y-261828985D01*
X356541538Y-261828985D02*
X356612967Y-261971842D01*
X356612967Y-261971842D02*
X356612967Y-262114700D01*
X356612967Y-262114700D02*
X356541538Y-262328985D01*
X356541538Y-262328985D02*
X355684395Y-263186128D01*
X355684395Y-263186128D02*
X356612967Y-263186128D01*
D10*
D11*
X311800000Y-263900000D02*
X419800000Y-263900000D01*
D10*
D11*
X313255826Y-265986128D02*
X313255826Y-264486128D01*
X314112969Y-265986128D02*
X313470112Y-265128985D01*
X314112969Y-264486128D02*
X313255826Y-265343271D01*
X314755826Y-265986128D02*
X314755826Y-264986128D01*
X314755826Y-264486128D02*
X314684398Y-264557557D01*
X314684398Y-264557557D02*
X314755826Y-264628985D01*
X314755826Y-264628985D02*
X314827255Y-264557557D01*
X314827255Y-264557557D02*
X314755826Y-264486128D01*
X314755826Y-264486128D02*
X314755826Y-264628985D01*
X316327255Y-265843271D02*
X316255827Y-265914700D01*
X316255827Y-265914700D02*
X316041541Y-265986128D01*
X316041541Y-265986128D02*
X315898684Y-265986128D01*
X315898684Y-265986128D02*
X315684398Y-265914700D01*
X315684398Y-265914700D02*
X315541541Y-265771842D01*
X315541541Y-265771842D02*
X315470112Y-265628985D01*
X315470112Y-265628985D02*
X315398684Y-265343271D01*
X315398684Y-265343271D02*
X315398684Y-265128985D01*
X315398684Y-265128985D02*
X315470112Y-264843271D01*
X315470112Y-264843271D02*
X315541541Y-264700414D01*
X315541541Y-264700414D02*
X315684398Y-264557557D01*
X315684398Y-264557557D02*
X315898684Y-264486128D01*
X315898684Y-264486128D02*
X316041541Y-264486128D01*
X316041541Y-264486128D02*
X316255827Y-264557557D01*
X316255827Y-264557557D02*
X316327255Y-264628985D01*
X317612970Y-265986128D02*
X317612970Y-265200414D01*
X317612970Y-265200414D02*
X317541541Y-265057557D01*
X317541541Y-265057557D02*
X317398684Y-264986128D01*
X317398684Y-264986128D02*
X317112970Y-264986128D01*
X317112970Y-264986128D02*
X316970112Y-265057557D01*
X317612970Y-265914700D02*
X317470112Y-265986128D01*
X317470112Y-265986128D02*
X317112970Y-265986128D01*
X317112970Y-265986128D02*
X316970112Y-265914700D01*
X316970112Y-265914700D02*
X316898684Y-265771842D01*
X316898684Y-265771842D02*
X316898684Y-265628985D01*
X316898684Y-265628985D02*
X316970112Y-265486128D01*
X316970112Y-265486128D02*
X317112970Y-265414700D01*
X317112970Y-265414700D02*
X317470112Y-265414700D01*
X317470112Y-265414700D02*
X317612970Y-265343271D01*
X318970113Y-265986128D02*
X318970113Y-264486128D01*
X318970113Y-265914700D02*
X318827255Y-265986128D01*
X318827255Y-265986128D02*
X318541541Y-265986128D01*
X318541541Y-265986128D02*
X318398684Y-265914700D01*
X318398684Y-265914700D02*
X318327255Y-265843271D01*
X318327255Y-265843271D02*
X318255827Y-265700414D01*
X318255827Y-265700414D02*
X318255827Y-265271842D01*
X318255827Y-265271842D02*
X318327255Y-265128985D01*
X318327255Y-265128985D02*
X318398684Y-265057557D01*
X318398684Y-265057557D02*
X318541541Y-264986128D01*
X318541541Y-264986128D02*
X318827255Y-264986128D01*
X318827255Y-264986128D02*
X318970113Y-265057557D01*
X320827255Y-265200414D02*
X321327255Y-265200414D01*
X321541541Y-265986128D02*
X320827255Y-265986128D01*
X320827255Y-265986128D02*
X320827255Y-264486128D01*
X320827255Y-264486128D02*
X321541541Y-264486128D01*
X322184398Y-265843271D02*
X322255827Y-265914700D01*
X322255827Y-265914700D02*
X322184398Y-265986128D01*
X322184398Y-265986128D02*
X322112970Y-265914700D01*
X322112970Y-265914700D02*
X322184398Y-265843271D01*
X322184398Y-265843271D02*
X322184398Y-265986128D01*
X322898684Y-265986128D02*
X322898684Y-264486128D01*
X322898684Y-264486128D02*
X323255827Y-264486128D01*
X323255827Y-264486128D02*
X323470113Y-264557557D01*
X323470113Y-264557557D02*
X323612970Y-264700414D01*
X323612970Y-264700414D02*
X323684399Y-264843271D01*
X323684399Y-264843271D02*
X323755827Y-265128985D01*
X323755827Y-265128985D02*
X323755827Y-265343271D01*
X323755827Y-265343271D02*
X323684399Y-265628985D01*
X323684399Y-265628985D02*
X323612970Y-265771842D01*
X323612970Y-265771842D02*
X323470113Y-265914700D01*
X323470113Y-265914700D02*
X323255827Y-265986128D01*
X323255827Y-265986128D02*
X322898684Y-265986128D01*
X324398684Y-265843271D02*
X324470113Y-265914700D01*
X324470113Y-265914700D02*
X324398684Y-265986128D01*
X324398684Y-265986128D02*
X324327256Y-265914700D01*
X324327256Y-265914700D02*
X324398684Y-265843271D01*
X324398684Y-265843271D02*
X324398684Y-265986128D01*
X325041542Y-265557557D02*
X325755828Y-265557557D01*
X324898685Y-265986128D02*
X325398685Y-264486128D01*
X325398685Y-264486128D02*
X325898685Y-265986128D01*
X326398684Y-265843271D02*
X326470113Y-265914700D01*
X326470113Y-265914700D02*
X326398684Y-265986128D01*
X326398684Y-265986128D02*
X326327256Y-265914700D01*
X326327256Y-265914700D02*
X326398684Y-265843271D01*
X326398684Y-265843271D02*
X326398684Y-265986128D01*
X329398684Y-265986128D02*
X329398684Y-264486128D01*
X329541542Y-265414700D02*
X329970113Y-265986128D01*
X329970113Y-264986128D02*
X329398684Y-265557557D01*
X330612970Y-265986128D02*
X330612970Y-264986128D01*
X330612970Y-264486128D02*
X330541542Y-264557557D01*
X330541542Y-264557557D02*
X330612970Y-264628985D01*
X330612970Y-264628985D02*
X330684399Y-264557557D01*
X330684399Y-264557557D02*
X330612970Y-264486128D01*
X330612970Y-264486128D02*
X330612970Y-264628985D01*
X331970114Y-265914700D02*
X331827256Y-265986128D01*
X331827256Y-265986128D02*
X331541542Y-265986128D01*
X331541542Y-265986128D02*
X331398685Y-265914700D01*
X331398685Y-265914700D02*
X331327256Y-265843271D01*
X331327256Y-265843271D02*
X331255828Y-265700414D01*
X331255828Y-265700414D02*
X331255828Y-265271842D01*
X331255828Y-265271842D02*
X331327256Y-265128985D01*
X331327256Y-265128985D02*
X331398685Y-265057557D01*
X331398685Y-265057557D02*
X331541542Y-264986128D01*
X331541542Y-264986128D02*
X331827256Y-264986128D01*
X331827256Y-264986128D02*
X331970114Y-265057557D01*
X333255828Y-265986128D02*
X333255828Y-265200414D01*
X333255828Y-265200414D02*
X333184399Y-265057557D01*
X333184399Y-265057557D02*
X333041542Y-264986128D01*
X333041542Y-264986128D02*
X332755828Y-264986128D01*
X332755828Y-264986128D02*
X332612970Y-265057557D01*
X333255828Y-265914700D02*
X333112970Y-265986128D01*
X333112970Y-265986128D02*
X332755828Y-265986128D01*
X332755828Y-265986128D02*
X332612970Y-265914700D01*
X332612970Y-265914700D02*
X332541542Y-265771842D01*
X332541542Y-265771842D02*
X332541542Y-265628985D01*
X332541542Y-265628985D02*
X332612970Y-265486128D01*
X332612970Y-265486128D02*
X332755828Y-265414700D01*
X332755828Y-265414700D02*
X333112970Y-265414700D01*
X333112970Y-265414700D02*
X333255828Y-265343271D01*
X334612971Y-265986128D02*
X334612971Y-264486128D01*
X334612971Y-265914700D02*
X334470113Y-265986128D01*
X334470113Y-265986128D02*
X334184399Y-265986128D01*
X334184399Y-265986128D02*
X334041542Y-265914700D01*
X334041542Y-265914700D02*
X333970113Y-265843271D01*
X333970113Y-265843271D02*
X333898685Y-265700414D01*
X333898685Y-265700414D02*
X333898685Y-265271842D01*
X333898685Y-265271842D02*
X333970113Y-265128985D01*
X333970113Y-265128985D02*
X334041542Y-265057557D01*
X334041542Y-265057557D02*
X334184399Y-264986128D01*
X334184399Y-264986128D02*
X334470113Y-264986128D01*
X334470113Y-264986128D02*
X334612971Y-265057557D01*
X336327256Y-264486128D02*
X337327256Y-264486128D01*
X337327256Y-264486128D02*
X336684399Y-265986128D01*
X337898684Y-265843271D02*
X337970113Y-265914700D01*
X337970113Y-265914700D02*
X337898684Y-265986128D01*
X337898684Y-265986128D02*
X337827256Y-265914700D01*
X337827256Y-265914700D02*
X337898684Y-265843271D01*
X337898684Y-265843271D02*
X337898684Y-265986128D01*
X338898685Y-264486128D02*
X339041542Y-264486128D01*
X339041542Y-264486128D02*
X339184399Y-264557557D01*
X339184399Y-264557557D02*
X339255828Y-264628985D01*
X339255828Y-264628985D02*
X339327256Y-264771842D01*
X339327256Y-264771842D02*
X339398685Y-265057557D01*
X339398685Y-265057557D02*
X339398685Y-265414700D01*
X339398685Y-265414700D02*
X339327256Y-265700414D01*
X339327256Y-265700414D02*
X339255828Y-265843271D01*
X339255828Y-265843271D02*
X339184399Y-265914700D01*
X339184399Y-265914700D02*
X339041542Y-265986128D01*
X339041542Y-265986128D02*
X338898685Y-265986128D01*
X338898685Y-265986128D02*
X338755828Y-265914700D01*
X338755828Y-265914700D02*
X338684399Y-265843271D01*
X338684399Y-265843271D02*
X338612970Y-265700414D01*
X338612970Y-265700414D02*
X338541542Y-265414700D01*
X338541542Y-265414700D02*
X338541542Y-265057557D01*
X338541542Y-265057557D02*
X338612970Y-264771842D01*
X338612970Y-264771842D02*
X338684399Y-264628985D01*
X338684399Y-264628985D02*
X338755828Y-264557557D01*
X338755828Y-264557557D02*
X338898685Y-264486128D01*
X340041541Y-265843271D02*
X340112970Y-265914700D01*
X340112970Y-265914700D02*
X340041541Y-265986128D01*
X340041541Y-265986128D02*
X339970113Y-265914700D01*
X339970113Y-265914700D02*
X340041541Y-265843271D01*
X340041541Y-265843271D02*
X340041541Y-265986128D01*
X341470113Y-264486128D02*
X340755827Y-264486128D01*
X340755827Y-264486128D02*
X340684399Y-265200414D01*
X340684399Y-265200414D02*
X340755827Y-265128985D01*
X340755827Y-265128985D02*
X340898685Y-265057557D01*
X340898685Y-265057557D02*
X341255827Y-265057557D01*
X341255827Y-265057557D02*
X341398685Y-265128985D01*
X341398685Y-265128985D02*
X341470113Y-265200414D01*
X341470113Y-265200414D02*
X341541542Y-265343271D01*
X341541542Y-265343271D02*
X341541542Y-265700414D01*
X341541542Y-265700414D02*
X341470113Y-265843271D01*
X341470113Y-265843271D02*
X341398685Y-265914700D01*
X341398685Y-265914700D02*
X341255827Y-265986128D01*
X341255827Y-265986128D02*
X340898685Y-265986128D01*
X340898685Y-265986128D02*
X340755827Y-265914700D01*
X340755827Y-265914700D02*
X340684399Y-265843271D01*
D10*
D11*
X311800000Y-260900000D02*
X419800000Y-260900000D01*
D10*
D12*
X399211653Y-263178328D02*
X398711653Y-262464042D01*
X398354510Y-263178328D02*
X398354510Y-261678328D01*
X398354510Y-261678328D02*
X398925939Y-261678328D01*
X398925939Y-261678328D02*
X399068796Y-261749757D01*
X399068796Y-261749757D02*
X399140225Y-261821185D01*
X399140225Y-261821185D02*
X399211653Y-261964042D01*
X399211653Y-261964042D02*
X399211653Y-262178328D01*
X399211653Y-262178328D02*
X399140225Y-262321185D01*
X399140225Y-262321185D02*
X399068796Y-262392614D01*
X399068796Y-262392614D02*
X398925939Y-262464042D01*
X398925939Y-262464042D02*
X398354510Y-262464042D01*
X400425939Y-263106900D02*
X400283082Y-263178328D01*
X400283082Y-263178328D02*
X399997368Y-263178328D01*
X399997368Y-263178328D02*
X399854510Y-263106900D01*
X399854510Y-263106900D02*
X399783082Y-262964042D01*
X399783082Y-262964042D02*
X399783082Y-262392614D01*
X399783082Y-262392614D02*
X399854510Y-262249757D01*
X399854510Y-262249757D02*
X399997368Y-262178328D01*
X399997368Y-262178328D02*
X400283082Y-262178328D01*
X400283082Y-262178328D02*
X400425939Y-262249757D01*
X400425939Y-262249757D02*
X400497368Y-262392614D01*
X400497368Y-262392614D02*
X400497368Y-262535471D01*
X400497368Y-262535471D02*
X399783082Y-262678328D01*
X400997367Y-262178328D02*
X401354510Y-263178328D01*
X401354510Y-263178328D02*
X401711653Y-262178328D01*
X402283081Y-263035471D02*
X402354510Y-263106900D01*
X402354510Y-263106900D02*
X402283081Y-263178328D01*
X402283081Y-263178328D02*
X402211653Y-263106900D01*
X402211653Y-263106900D02*
X402283081Y-263035471D01*
X402283081Y-263035471D02*
X402283081Y-263178328D01*
X402283081Y-262249757D02*
X402354510Y-262321185D01*
X402354510Y-262321185D02*
X402283081Y-262392614D01*
X402283081Y-262392614D02*
X402211653Y-262321185D01*
X402211653Y-262321185D02*
X402283081Y-262249757D01*
X402283081Y-262249757D02*
X402283081Y-262392614D01*
X404925939Y-263178328D02*
X404068796Y-263178328D01*
X404497367Y-263178328D02*
X404497367Y-261678328D01*
X404497367Y-261678328D02*
X404354510Y-261892614D01*
X404354510Y-261892614D02*
X404211653Y-262035471D01*
X404211653Y-262035471D02*
X404068796Y-262106900D01*
X405568795Y-263035471D02*
X405640224Y-263106900D01*
X405640224Y-263106900D02*
X405568795Y-263178328D01*
X405568795Y-263178328D02*
X405497367Y-263106900D01*
X405497367Y-263106900D02*
X405568795Y-263035471D01*
X405568795Y-263035471D02*
X405568795Y-263178328D01*
X407068796Y-263178328D02*
X406211653Y-263178328D01*
X406640224Y-263178328D02*
X406640224Y-261678328D01*
X406640224Y-261678328D02*
X406497367Y-261892614D01*
X406497367Y-261892614D02*
X406354510Y-262035471D01*
X406354510Y-262035471D02*
X406211653Y-262106900D01*
D10*
D11*
X313184398Y-263114700D02*
X313398684Y-263186128D01*
X313398684Y-263186128D02*
X313755826Y-263186128D01*
X313755826Y-263186128D02*
X313898684Y-263114700D01*
X313898684Y-263114700D02*
X313970112Y-263043271D01*
X313970112Y-263043271D02*
X314041541Y-262900414D01*
X314041541Y-262900414D02*
X314041541Y-262757557D01*
X314041541Y-262757557D02*
X313970112Y-262614700D01*
X313970112Y-262614700D02*
X313898684Y-262543271D01*
X313898684Y-262543271D02*
X313755826Y-262471842D01*
X313755826Y-262471842D02*
X313470112Y-262400414D01*
X313470112Y-262400414D02*
X313327255Y-262328985D01*
X313327255Y-262328985D02*
X313255826Y-262257557D01*
X313255826Y-262257557D02*
X313184398Y-262114700D01*
X313184398Y-262114700D02*
X313184398Y-261971842D01*
X313184398Y-261971842D02*
X313255826Y-261828985D01*
X313255826Y-261828985D02*
X313327255Y-261757557D01*
X313327255Y-261757557D02*
X313470112Y-261686128D01*
X313470112Y-261686128D02*
X313827255Y-261686128D01*
X313827255Y-261686128D02*
X314041541Y-261757557D01*
X314684397Y-263186128D02*
X314684397Y-262186128D01*
X314684397Y-261686128D02*
X314612969Y-261757557D01*
X314612969Y-261757557D02*
X314684397Y-261828985D01*
X314684397Y-261828985D02*
X314755826Y-261757557D01*
X314755826Y-261757557D02*
X314684397Y-261686128D01*
X314684397Y-261686128D02*
X314684397Y-261828985D01*
X315255826Y-262186128D02*
X316041541Y-262186128D01*
X316041541Y-262186128D02*
X315255826Y-263186128D01*
X315255826Y-263186128D02*
X316041541Y-263186128D01*
X317184398Y-263114700D02*
X317041541Y-263186128D01*
X317041541Y-263186128D02*
X316755827Y-263186128D01*
X316755827Y-263186128D02*
X316612969Y-263114700D01*
X316612969Y-263114700D02*
X316541541Y-262971842D01*
X316541541Y-262971842D02*
X316541541Y-262400414D01*
X316541541Y-262400414D02*
X316612969Y-262257557D01*
X316612969Y-262257557D02*
X316755827Y-262186128D01*
X316755827Y-262186128D02*
X317041541Y-262186128D01*
X317041541Y-262186128D02*
X317184398Y-262257557D01*
X317184398Y-262257557D02*
X317255827Y-262400414D01*
X317255827Y-262400414D02*
X317255827Y-262543271D01*
X317255827Y-262543271D02*
X316541541Y-262686128D01*
X317898683Y-263043271D02*
X317970112Y-263114700D01*
X317970112Y-263114700D02*
X317898683Y-263186128D01*
X317898683Y-263186128D02*
X317827255Y-263114700D01*
X317827255Y-263114700D02*
X317898683Y-263043271D01*
X317898683Y-263043271D02*
X317898683Y-263186128D01*
X317898683Y-262257557D02*
X317970112Y-262328985D01*
X317970112Y-262328985D02*
X317898683Y-262400414D01*
X317898683Y-262400414D02*
X317827255Y-262328985D01*
X317827255Y-262328985D02*
X317898683Y-262257557D01*
X317898683Y-262257557D02*
X317898683Y-262400414D01*
X320255826Y-262400414D02*
X320470112Y-262471842D01*
X320470112Y-262471842D02*
X320541541Y-262543271D01*
X320541541Y-262543271D02*
X320612969Y-262686128D01*
X320612969Y-262686128D02*
X320612969Y-262900414D01*
X320612969Y-262900414D02*
X320541541Y-263043271D01*
X320541541Y-263043271D02*
X320470112Y-263114700D01*
X320470112Y-263114700D02*
X320327255Y-263186128D01*
X320327255Y-263186128D02*
X319755826Y-263186128D01*
X319755826Y-263186128D02*
X319755826Y-261686128D01*
X319755826Y-261686128D02*
X320255826Y-261686128D01*
X320255826Y-261686128D02*
X320398684Y-261757557D01*
X320398684Y-261757557D02*
X320470112Y-261828985D01*
X320470112Y-261828985D02*
X320541541Y-261971842D01*
X320541541Y-261971842D02*
X320541541Y-262114700D01*
X320541541Y-262114700D02*
X320470112Y-262257557D01*
X320470112Y-262257557D02*
X320398684Y-262328985D01*
X320398684Y-262328985D02*
X320255826Y-262400414D01*
X320255826Y-262400414D02*
X319755826Y-262400414D01*
D10*
D11*
X398255826Y-265986128D02*
X398255826Y-264486128D01*
X399612970Y-265986128D02*
X399612970Y-264486128D01*
X399612970Y-265914700D02*
X399470112Y-265986128D01*
X399470112Y-265986128D02*
X399184398Y-265986128D01*
X399184398Y-265986128D02*
X399041541Y-265914700D01*
X399041541Y-265914700D02*
X398970112Y-265843271D01*
X398970112Y-265843271D02*
X398898684Y-265700414D01*
X398898684Y-265700414D02*
X398898684Y-265271842D01*
X398898684Y-265271842D02*
X398970112Y-265128985D01*
X398970112Y-265128985D02*
X399041541Y-265057557D01*
X399041541Y-265057557D02*
X399184398Y-264986128D01*
X399184398Y-264986128D02*
X399470112Y-264986128D01*
X399470112Y-264986128D02*
X399612970Y-265057557D01*
X400327255Y-265843271D02*
X400398684Y-265914700D01*
X400398684Y-265914700D02*
X400327255Y-265986128D01*
X400327255Y-265986128D02*
X400255827Y-265914700D01*
X400255827Y-265914700D02*
X400327255Y-265843271D01*
X400327255Y-265843271D02*
X400327255Y-265986128D01*
X400327255Y-265057557D02*
X400398684Y-265128985D01*
X400398684Y-265128985D02*
X400327255Y-265200414D01*
X400327255Y-265200414D02*
X400255827Y-265128985D01*
X400255827Y-265128985D02*
X400327255Y-265057557D01*
X400327255Y-265057557D02*
X400327255Y-265200414D01*
X402970113Y-265986128D02*
X402112970Y-265986128D01*
X402541541Y-265986128D02*
X402541541Y-264486128D01*
X402541541Y-264486128D02*
X402398684Y-264700414D01*
X402398684Y-264700414D02*
X402255827Y-264843271D01*
X402255827Y-264843271D02*
X402112970Y-264914700D01*
X404684398Y-264414700D02*
X403398684Y-266343271D01*
X405970113Y-265986128D02*
X405112970Y-265986128D01*
X405541541Y-265986128D02*
X405541541Y-264486128D01*
X405541541Y-264486128D02*
X405398684Y-264700414D01*
X405398684Y-264700414D02*
X405255827Y-264843271D01*
X405255827Y-264843271D02*
X405112970Y-264914700D01*
D10*
D11*
X311800000Y-256900000D02*
X419800000Y-256900000D01*
D10*
D13*
X313491728Y-257604438D02*
X314634585Y-257604438D01*
X313813157Y-259604438D02*
X314063157Y-257604438D01*
X315051252Y-259604438D02*
X315217919Y-258271104D01*
X315301252Y-257604438D02*
X315194109Y-257699676D01*
X315194109Y-257699676D02*
X315277443Y-257794914D01*
X315277443Y-257794914D02*
X315384586Y-257699676D01*
X315384586Y-257699676D02*
X315301252Y-257604438D01*
X315301252Y-257604438D02*
X315277443Y-257794914D01*
X315884586Y-258271104D02*
X316646490Y-258271104D01*
X316253633Y-257604438D02*
X316039348Y-259318723D01*
X316039348Y-259318723D02*
X316110776Y-259509200D01*
X316110776Y-259509200D02*
X316289348Y-259604438D01*
X316289348Y-259604438D02*
X316479824Y-259604438D01*
X317432205Y-259604438D02*
X317253633Y-259509200D01*
X317253633Y-259509200D02*
X317182205Y-259318723D01*
X317182205Y-259318723D02*
X317396490Y-257604438D01*
X318967919Y-259509200D02*
X318765538Y-259604438D01*
X318765538Y-259604438D02*
X318384585Y-259604438D01*
X318384585Y-259604438D02*
X318206014Y-259509200D01*
X318206014Y-259509200D02*
X318134585Y-259318723D01*
X318134585Y-259318723D02*
X318229824Y-258556819D01*
X318229824Y-258556819D02*
X318348871Y-258366342D01*
X318348871Y-258366342D02*
X318551252Y-258271104D01*
X318551252Y-258271104D02*
X318932204Y-258271104D01*
X318932204Y-258271104D02*
X319110776Y-258366342D01*
X319110776Y-258366342D02*
X319182204Y-258556819D01*
X319182204Y-258556819D02*
X319158395Y-258747295D01*
X319158395Y-258747295D02*
X318182204Y-258937771D01*
X319932205Y-259413961D02*
X320015538Y-259509200D01*
X320015538Y-259509200D02*
X319908395Y-259604438D01*
X319908395Y-259604438D02*
X319825062Y-259509200D01*
X319825062Y-259509200D02*
X319932205Y-259413961D01*
X319932205Y-259413961D02*
X319908395Y-259604438D01*
X320063157Y-258366342D02*
X320146490Y-258461580D01*
X320146490Y-258461580D02*
X320039348Y-258556819D01*
X320039348Y-258556819D02*
X319956014Y-258461580D01*
X319956014Y-258461580D02*
X320063157Y-258366342D01*
X320063157Y-258366342D02*
X320039348Y-258556819D01*
X322384586Y-259604438D02*
X322634586Y-257604438D01*
X323503634Y-258271104D02*
X323336967Y-259604438D01*
X323479824Y-258461580D02*
X323586967Y-258366342D01*
X323586967Y-258366342D02*
X323789348Y-258271104D01*
X323789348Y-258271104D02*
X324075062Y-258271104D01*
X324075062Y-258271104D02*
X324253634Y-258366342D01*
X324253634Y-258366342D02*
X324325062Y-258556819D01*
X324325062Y-258556819D02*
X324194110Y-259604438D01*
X325027444Y-258271104D02*
X325789348Y-258271104D01*
X325396491Y-257604438D02*
X325182206Y-259318723D01*
X325182206Y-259318723D02*
X325253634Y-259509200D01*
X325253634Y-259509200D02*
X325432206Y-259604438D01*
X325432206Y-259604438D02*
X325622682Y-259604438D01*
X327063158Y-259509200D02*
X326860777Y-259604438D01*
X326860777Y-259604438D02*
X326479824Y-259604438D01*
X326479824Y-259604438D02*
X326301253Y-259509200D01*
X326301253Y-259509200D02*
X326229824Y-259318723D01*
X326229824Y-259318723D02*
X326325063Y-258556819D01*
X326325063Y-258556819D02*
X326444110Y-258366342D01*
X326444110Y-258366342D02*
X326646491Y-258271104D01*
X326646491Y-258271104D02*
X327027443Y-258271104D01*
X327027443Y-258271104D02*
X327206015Y-258366342D01*
X327206015Y-258366342D02*
X327277443Y-258556819D01*
X327277443Y-258556819D02*
X327253634Y-258747295D01*
X327253634Y-258747295D02*
X326277443Y-258937771D01*
X328003634Y-259604438D02*
X328170301Y-258271104D01*
X328122682Y-258652057D02*
X328241729Y-258461580D01*
X328241729Y-258461580D02*
X328348872Y-258366342D01*
X328348872Y-258366342D02*
X328551253Y-258271104D01*
X328551253Y-258271104D02*
X328741729Y-258271104D01*
X330110777Y-259509200D02*
X329908396Y-259604438D01*
X329908396Y-259604438D02*
X329527444Y-259604438D01*
X329527444Y-259604438D02*
X329348872Y-259509200D01*
X329348872Y-259509200D02*
X329265539Y-259413961D01*
X329265539Y-259413961D02*
X329194110Y-259223485D01*
X329194110Y-259223485D02*
X329265539Y-258652057D01*
X329265539Y-258652057D02*
X329384586Y-258461580D01*
X329384586Y-258461580D02*
X329491729Y-258366342D01*
X329491729Y-258366342D02*
X329694110Y-258271104D01*
X329694110Y-258271104D02*
X330075063Y-258271104D01*
X330075063Y-258271104D02*
X330253634Y-258366342D01*
X331241730Y-259604438D02*
X331063158Y-259509200D01*
X331063158Y-259509200D02*
X330979825Y-259413961D01*
X330979825Y-259413961D02*
X330908396Y-259223485D01*
X330908396Y-259223485D02*
X330979825Y-258652057D01*
X330979825Y-258652057D02*
X331098872Y-258461580D01*
X331098872Y-258461580D02*
X331206015Y-258366342D01*
X331206015Y-258366342D02*
X331408396Y-258271104D01*
X331408396Y-258271104D02*
X331694110Y-258271104D01*
X331694110Y-258271104D02*
X331872682Y-258366342D01*
X331872682Y-258366342D02*
X331956015Y-258461580D01*
X331956015Y-258461580D02*
X332027444Y-258652057D01*
X332027444Y-258652057D02*
X331956015Y-259223485D01*
X331956015Y-259223485D02*
X331836968Y-259413961D01*
X331836968Y-259413961D02*
X331729825Y-259509200D01*
X331729825Y-259509200D02*
X331527444Y-259604438D01*
X331527444Y-259604438D02*
X331241730Y-259604438D01*
X332932206Y-258271104D02*
X332765539Y-259604438D01*
X332908396Y-258461580D02*
X333015539Y-258366342D01*
X333015539Y-258366342D02*
X333217920Y-258271104D01*
X333217920Y-258271104D02*
X333503634Y-258271104D01*
X333503634Y-258271104D02*
X333682206Y-258366342D01*
X333682206Y-258366342D02*
X333753634Y-258556819D01*
X333753634Y-258556819D02*
X333622682Y-259604438D01*
X334741730Y-258271104D02*
X334575063Y-259604438D01*
X334717920Y-258461580D02*
X334825063Y-258366342D01*
X334825063Y-258366342D02*
X335027444Y-258271104D01*
X335027444Y-258271104D02*
X335313158Y-258271104D01*
X335313158Y-258271104D02*
X335491730Y-258366342D01*
X335491730Y-258366342D02*
X335563158Y-258556819D01*
X335563158Y-258556819D02*
X335432206Y-259604438D01*
X337158397Y-259509200D02*
X336956016Y-259604438D01*
X336956016Y-259604438D02*
X336575063Y-259604438D01*
X336575063Y-259604438D02*
X336396492Y-259509200D01*
X336396492Y-259509200D02*
X336325063Y-259318723D01*
X336325063Y-259318723D02*
X336420302Y-258556819D01*
X336420302Y-258556819D02*
X336539349Y-258366342D01*
X336539349Y-258366342D02*
X336741730Y-258271104D01*
X336741730Y-258271104D02*
X337122682Y-258271104D01*
X337122682Y-258271104D02*
X337301254Y-258366342D01*
X337301254Y-258366342D02*
X337372682Y-258556819D01*
X337372682Y-258556819D02*
X337348873Y-258747295D01*
X337348873Y-258747295D02*
X336372682Y-258937771D01*
X338967921Y-259509200D02*
X338765540Y-259604438D01*
X338765540Y-259604438D02*
X338384588Y-259604438D01*
X338384588Y-259604438D02*
X338206016Y-259509200D01*
X338206016Y-259509200D02*
X338122683Y-259413961D01*
X338122683Y-259413961D02*
X338051254Y-259223485D01*
X338051254Y-259223485D02*
X338122683Y-258652057D01*
X338122683Y-258652057D02*
X338241730Y-258461580D01*
X338241730Y-258461580D02*
X338348873Y-258366342D01*
X338348873Y-258366342D02*
X338551254Y-258271104D01*
X338551254Y-258271104D02*
X338932207Y-258271104D01*
X338932207Y-258271104D02*
X339110778Y-258366342D01*
X339694112Y-258271104D02*
X340456016Y-258271104D01*
X340063159Y-257604438D02*
X339848874Y-259318723D01*
X339848874Y-259318723D02*
X339920302Y-259509200D01*
X339920302Y-259509200D02*
X340098874Y-259604438D01*
X340098874Y-259604438D02*
X340289350Y-259604438D01*
X342479826Y-259604438D02*
X342729826Y-257604438D01*
X344063160Y-257604438D02*
X344444112Y-257604438D01*
X344444112Y-257604438D02*
X344622683Y-257699676D01*
X344622683Y-257699676D02*
X344789350Y-257890152D01*
X344789350Y-257890152D02*
X344836969Y-258271104D01*
X344836969Y-258271104D02*
X344753636Y-258937771D01*
X344753636Y-258937771D02*
X344610779Y-259318723D01*
X344610779Y-259318723D02*
X344396493Y-259509200D01*
X344396493Y-259509200D02*
X344194112Y-259604438D01*
X344194112Y-259604438D02*
X343813160Y-259604438D01*
X343813160Y-259604438D02*
X343634588Y-259509200D01*
X343634588Y-259509200D02*
X343467922Y-259318723D01*
X343467922Y-259318723D02*
X343420302Y-258937771D01*
X343420302Y-258937771D02*
X343503636Y-258271104D01*
X343503636Y-258271104D02*
X343646493Y-257890152D01*
X343646493Y-257890152D02*
X343860779Y-257699676D01*
X343860779Y-257699676D02*
X344063160Y-257604438D01*
X347848874Y-258556819D02*
X348122684Y-258652057D01*
X348122684Y-258652057D02*
X348206017Y-258747295D01*
X348206017Y-258747295D02*
X348277446Y-258937771D01*
X348277446Y-258937771D02*
X348241731Y-259223485D01*
X348241731Y-259223485D02*
X348122684Y-259413961D01*
X348122684Y-259413961D02*
X348015541Y-259509200D01*
X348015541Y-259509200D02*
X347813160Y-259604438D01*
X347813160Y-259604438D02*
X347051255Y-259604438D01*
X347051255Y-259604438D02*
X347301255Y-257604438D01*
X347301255Y-257604438D02*
X347967922Y-257604438D01*
X347967922Y-257604438D02*
X348146493Y-257699676D01*
X348146493Y-257699676D02*
X348229827Y-257794914D01*
X348229827Y-257794914D02*
X348301255Y-257985390D01*
X348301255Y-257985390D02*
X348277446Y-258175866D01*
X348277446Y-258175866D02*
X348158398Y-258366342D01*
X348158398Y-258366342D02*
X348051255Y-258461580D01*
X348051255Y-258461580D02*
X347848874Y-258556819D01*
X347848874Y-258556819D02*
X347182208Y-258556819D01*
X349336970Y-259604438D02*
X349158398Y-259509200D01*
X349158398Y-259509200D02*
X349075065Y-259413961D01*
X349075065Y-259413961D02*
X349003636Y-259223485D01*
X349003636Y-259223485D02*
X349075065Y-258652057D01*
X349075065Y-258652057D02*
X349194112Y-258461580D01*
X349194112Y-258461580D02*
X349301255Y-258366342D01*
X349301255Y-258366342D02*
X349503636Y-258271104D01*
X349503636Y-258271104D02*
X349789350Y-258271104D01*
X349789350Y-258271104D02*
X349967922Y-258366342D01*
X349967922Y-258366342D02*
X350051255Y-258461580D01*
X350051255Y-258461580D02*
X350122684Y-258652057D01*
X350122684Y-258652057D02*
X350051255Y-259223485D01*
X350051255Y-259223485D02*
X349932208Y-259413961D01*
X349932208Y-259413961D02*
X349825065Y-259509200D01*
X349825065Y-259509200D02*
X349622684Y-259604438D01*
X349622684Y-259604438D02*
X349336970Y-259604438D01*
X351717922Y-259604438D02*
X351848874Y-258556819D01*
X351848874Y-258556819D02*
X351777446Y-258366342D01*
X351777446Y-258366342D02*
X351598874Y-258271104D01*
X351598874Y-258271104D02*
X351217922Y-258271104D01*
X351217922Y-258271104D02*
X351015541Y-258366342D01*
X351729827Y-259509200D02*
X351527446Y-259604438D01*
X351527446Y-259604438D02*
X351051255Y-259604438D01*
X351051255Y-259604438D02*
X350872684Y-259509200D01*
X350872684Y-259509200D02*
X350801255Y-259318723D01*
X350801255Y-259318723D02*
X350825065Y-259128247D01*
X350825065Y-259128247D02*
X350944113Y-258937771D01*
X350944113Y-258937771D02*
X351146494Y-258842533D01*
X351146494Y-258842533D02*
X351622684Y-258842533D01*
X351622684Y-258842533D02*
X351825065Y-258747295D01*
X352670303Y-259604438D02*
X352836970Y-258271104D01*
X352789351Y-258652057D02*
X352908398Y-258461580D01*
X352908398Y-258461580D02*
X353015541Y-258366342D01*
X353015541Y-258366342D02*
X353217922Y-258271104D01*
X353217922Y-258271104D02*
X353408398Y-258271104D01*
X354765541Y-259604438D02*
X355015541Y-257604438D01*
X354777446Y-259509200D02*
X354575065Y-259604438D01*
X354575065Y-259604438D02*
X354194113Y-259604438D01*
X354194113Y-259604438D02*
X354015541Y-259509200D01*
X354015541Y-259509200D02*
X353932208Y-259413961D01*
X353932208Y-259413961D02*
X353860779Y-259223485D01*
X353860779Y-259223485D02*
X353932208Y-258652057D01*
X353932208Y-258652057D02*
X354051255Y-258461580D01*
X354051255Y-258461580D02*
X354158398Y-258366342D01*
X354158398Y-258366342D02*
X354360779Y-258271104D01*
X354360779Y-258271104D02*
X354741732Y-258271104D01*
X354741732Y-258271104D02*
X354920303Y-258366342D01*
X359872685Y-257604438D02*
X359491733Y-257604438D01*
X359491733Y-257604438D02*
X359289352Y-257699676D01*
X359289352Y-257699676D02*
X359182209Y-257794914D01*
X359182209Y-257794914D02*
X358956018Y-258080628D01*
X358956018Y-258080628D02*
X358813161Y-258461580D01*
X358813161Y-258461580D02*
X358717923Y-259223485D01*
X358717923Y-259223485D02*
X358789352Y-259413961D01*
X358789352Y-259413961D02*
X358872685Y-259509200D01*
X358872685Y-259509200D02*
X359051257Y-259604438D01*
X359051257Y-259604438D02*
X359432209Y-259604438D01*
X359432209Y-259604438D02*
X359634590Y-259509200D01*
X359634590Y-259509200D02*
X359741733Y-259413961D01*
X359741733Y-259413961D02*
X359860780Y-259223485D01*
X359860780Y-259223485D02*
X359920304Y-258747295D01*
X359920304Y-258747295D02*
X359848876Y-258556819D01*
X359848876Y-258556819D02*
X359765542Y-258461580D01*
X359765542Y-258461580D02*
X359586971Y-258366342D01*
X359586971Y-258366342D02*
X359206018Y-258366342D01*
X359206018Y-258366342D02*
X359003637Y-258461580D01*
X359003637Y-258461580D02*
X358896495Y-258556819D01*
X358896495Y-258556819D02*
X358777447Y-258747295D01*
X361777447Y-257604438D02*
X361396495Y-257604438D01*
X361396495Y-257604438D02*
X361194114Y-257699676D01*
X361194114Y-257699676D02*
X361086971Y-257794914D01*
X361086971Y-257794914D02*
X360860780Y-258080628D01*
X360860780Y-258080628D02*
X360717923Y-258461580D01*
X360717923Y-258461580D02*
X360622685Y-259223485D01*
X360622685Y-259223485D02*
X360694114Y-259413961D01*
X360694114Y-259413961D02*
X360777447Y-259509200D01*
X360777447Y-259509200D02*
X360956019Y-259604438D01*
X360956019Y-259604438D02*
X361336971Y-259604438D01*
X361336971Y-259604438D02*
X361539352Y-259509200D01*
X361539352Y-259509200D02*
X361646495Y-259413961D01*
X361646495Y-259413961D02*
X361765542Y-259223485D01*
X361765542Y-259223485D02*
X361825066Y-258747295D01*
X361825066Y-258747295D02*
X361753638Y-258556819D01*
X361753638Y-258556819D02*
X361670304Y-258461580D01*
X361670304Y-258461580D02*
X361491733Y-258366342D01*
X361491733Y-258366342D02*
X361110780Y-258366342D01*
X361110780Y-258366342D02*
X360908399Y-258461580D01*
X360908399Y-258461580D02*
X360801257Y-258556819D01*
X360801257Y-258556819D02*
X360682209Y-258747295D01*
X363206019Y-257604438D02*
X363396495Y-257604438D01*
X363396495Y-257604438D02*
X363575066Y-257699676D01*
X363575066Y-257699676D02*
X363658400Y-257794914D01*
X363658400Y-257794914D02*
X363729828Y-257985390D01*
X363729828Y-257985390D02*
X363777447Y-258366342D01*
X363777447Y-258366342D02*
X363717923Y-258842533D01*
X363717923Y-258842533D02*
X363575066Y-259223485D01*
X363575066Y-259223485D02*
X363456019Y-259413961D01*
X363456019Y-259413961D02*
X363348876Y-259509200D01*
X363348876Y-259509200D02*
X363146495Y-259604438D01*
X363146495Y-259604438D02*
X362956019Y-259604438D01*
X362956019Y-259604438D02*
X362777447Y-259509200D01*
X362777447Y-259509200D02*
X362694114Y-259413961D01*
X362694114Y-259413961D02*
X362622685Y-259223485D01*
X362622685Y-259223485D02*
X362575066Y-258842533D01*
X362575066Y-258842533D02*
X362634590Y-258366342D01*
X362634590Y-258366342D02*
X362777447Y-257985390D01*
X362777447Y-257985390D02*
X362896495Y-257794914D01*
X362896495Y-257794914D02*
X363003638Y-257699676D01*
X363003638Y-257699676D02*
X363206019Y-257604438D01*
X364575066Y-258842533D02*
X366098876Y-258842533D01*
X368003637Y-259604438D02*
X366860780Y-259604438D01*
X367432209Y-259604438D02*
X367682209Y-257604438D01*
X367682209Y-257604438D02*
X367456018Y-257890152D01*
X367456018Y-257890152D02*
X367241733Y-258080628D01*
X367241733Y-258080628D02*
X367039352Y-258175866D01*
X369491733Y-257604438D02*
X369682209Y-257604438D01*
X369682209Y-257604438D02*
X369860780Y-257699676D01*
X369860780Y-257699676D02*
X369944114Y-257794914D01*
X369944114Y-257794914D02*
X370015542Y-257985390D01*
X370015542Y-257985390D02*
X370063161Y-258366342D01*
X370063161Y-258366342D02*
X370003637Y-258842533D01*
X370003637Y-258842533D02*
X369860780Y-259223485D01*
X369860780Y-259223485D02*
X369741733Y-259413961D01*
X369741733Y-259413961D02*
X369634590Y-259509200D01*
X369634590Y-259509200D02*
X369432209Y-259604438D01*
X369432209Y-259604438D02*
X369241733Y-259604438D01*
X369241733Y-259604438D02*
X369063161Y-259509200D01*
X369063161Y-259509200D02*
X368979828Y-259413961D01*
X368979828Y-259413961D02*
X368908399Y-259223485D01*
X368908399Y-259223485D02*
X368860780Y-258842533D01*
X368860780Y-258842533D02*
X368920304Y-258366342D01*
X368920304Y-258366342D02*
X369063161Y-257985390D01*
X369063161Y-257985390D02*
X369182209Y-257794914D01*
X369182209Y-257794914D02*
X369289352Y-257699676D01*
X369289352Y-257699676D02*
X369491733Y-257604438D01*
X371396495Y-257604438D02*
X371586971Y-257604438D01*
X371586971Y-257604438D02*
X371765542Y-257699676D01*
X371765542Y-257699676D02*
X371848876Y-257794914D01*
X371848876Y-257794914D02*
X371920304Y-257985390D01*
X371920304Y-257985390D02*
X371967923Y-258366342D01*
X371967923Y-258366342D02*
X371908399Y-258842533D01*
X371908399Y-258842533D02*
X371765542Y-259223485D01*
X371765542Y-259223485D02*
X371646495Y-259413961D01*
X371646495Y-259413961D02*
X371539352Y-259509200D01*
X371539352Y-259509200D02*
X371336971Y-259604438D01*
X371336971Y-259604438D02*
X371146495Y-259604438D01*
X371146495Y-259604438D02*
X370967923Y-259509200D01*
X370967923Y-259509200D02*
X370884590Y-259413961D01*
X370884590Y-259413961D02*
X370813161Y-259223485D01*
X370813161Y-259223485D02*
X370765542Y-258842533D01*
X370765542Y-258842533D02*
X370825066Y-258366342D01*
X370825066Y-258366342D02*
X370967923Y-257985390D01*
X370967923Y-257985390D02*
X371086971Y-257794914D01*
X371086971Y-257794914D02*
X371194114Y-257699676D01*
X371194114Y-257699676D02*
X371396495Y-257604438D01*
X373301257Y-257604438D02*
X373491733Y-257604438D01*
X373491733Y-257604438D02*
X373670304Y-257699676D01*
X373670304Y-257699676D02*
X373753638Y-257794914D01*
X373753638Y-257794914D02*
X373825066Y-257985390D01*
X373825066Y-257985390D02*
X373872685Y-258366342D01*
X373872685Y-258366342D02*
X373813161Y-258842533D01*
X373813161Y-258842533D02*
X373670304Y-259223485D01*
X373670304Y-259223485D02*
X373551257Y-259413961D01*
X373551257Y-259413961D02*
X373444114Y-259509200D01*
X373444114Y-259509200D02*
X373241733Y-259604438D01*
X373241733Y-259604438D02*
X373051257Y-259604438D01*
X373051257Y-259604438D02*
X372872685Y-259509200D01*
X372872685Y-259509200D02*
X372789352Y-259413961D01*
X372789352Y-259413961D02*
X372717923Y-259223485D01*
X372717923Y-259223485D02*
X372670304Y-258842533D01*
X372670304Y-258842533D02*
X372729828Y-258366342D01*
X372729828Y-258366342D02*
X372872685Y-257985390D01*
X372872685Y-257985390D02*
X372991733Y-257794914D01*
X372991733Y-257794914D02*
X373098876Y-257699676D01*
X373098876Y-257699676D02*
X373301257Y-257604438D01*
X374670304Y-258842533D02*
X376194114Y-258842533D01*
X377682209Y-257604438D02*
X377872685Y-257604438D01*
X377872685Y-257604438D02*
X378051256Y-257699676D01*
X378051256Y-257699676D02*
X378134590Y-257794914D01*
X378134590Y-257794914D02*
X378206018Y-257985390D01*
X378206018Y-257985390D02*
X378253637Y-258366342D01*
X378253637Y-258366342D02*
X378194113Y-258842533D01*
X378194113Y-258842533D02*
X378051256Y-259223485D01*
X378051256Y-259223485D02*
X377932209Y-259413961D01*
X377932209Y-259413961D02*
X377825066Y-259509200D01*
X377825066Y-259509200D02*
X377622685Y-259604438D01*
X377622685Y-259604438D02*
X377432209Y-259604438D01*
X377432209Y-259604438D02*
X377253637Y-259509200D01*
X377253637Y-259509200D02*
X377170304Y-259413961D01*
X377170304Y-259413961D02*
X377098875Y-259223485D01*
X377098875Y-259223485D02*
X377051256Y-258842533D01*
X377051256Y-258842533D02*
X377110780Y-258366342D01*
X377110780Y-258366342D02*
X377253637Y-257985390D01*
X377253637Y-257985390D02*
X377372685Y-257794914D01*
X377372685Y-257794914D02*
X377479828Y-257699676D01*
X377479828Y-257699676D02*
X377682209Y-257604438D01*
X380003637Y-259604438D02*
X378860780Y-259604438D01*
X379432209Y-259604438D02*
X379682209Y-257604438D01*
X379682209Y-257604438D02*
X379456018Y-257890152D01*
X379456018Y-257890152D02*
X379241733Y-258080628D01*
X379241733Y-258080628D02*
X379039352Y-258175866D01*
X381908399Y-259604438D02*
X380765542Y-259604438D01*
X381336971Y-259604438D02*
X381586971Y-257604438D01*
X381586971Y-257604438D02*
X381360780Y-257890152D01*
X381360780Y-257890152D02*
X381146495Y-258080628D01*
X381146495Y-258080628D02*
X380944114Y-258175866D01*
D10*
D11*
X313755826Y-255000414D02*
X313255826Y-255000414D01*
X313255826Y-255786128D02*
X313255826Y-254286128D01*
X313255826Y-254286128D02*
X313970112Y-254286128D01*
X314541540Y-255786128D02*
X314541540Y-254786128D01*
X314541540Y-254286128D02*
X314470112Y-254357557D01*
X314470112Y-254357557D02*
X314541540Y-254428985D01*
X314541540Y-254428985D02*
X314612969Y-254357557D01*
X314612969Y-254357557D02*
X314541540Y-254286128D01*
X314541540Y-254286128D02*
X314541540Y-254428985D01*
X315470112Y-255786128D02*
X315327255Y-255714700D01*
X315327255Y-255714700D02*
X315255826Y-255571842D01*
X315255826Y-255571842D02*
X315255826Y-254286128D01*
X316612969Y-255714700D02*
X316470112Y-255786128D01*
X316470112Y-255786128D02*
X316184398Y-255786128D01*
X316184398Y-255786128D02*
X316041540Y-255714700D01*
X316041540Y-255714700D02*
X315970112Y-255571842D01*
X315970112Y-255571842D02*
X315970112Y-255000414D01*
X315970112Y-255000414D02*
X316041540Y-254857557D01*
X316041540Y-254857557D02*
X316184398Y-254786128D01*
X316184398Y-254786128D02*
X316470112Y-254786128D01*
X316470112Y-254786128D02*
X316612969Y-254857557D01*
X316612969Y-254857557D02*
X316684398Y-255000414D01*
X316684398Y-255000414D02*
X316684398Y-255143271D01*
X316684398Y-255143271D02*
X315970112Y-255286128D01*
X317327254Y-255643271D02*
X317398683Y-255714700D01*
X317398683Y-255714700D02*
X317327254Y-255786128D01*
X317327254Y-255786128D02*
X317255826Y-255714700D01*
X317255826Y-255714700D02*
X317327254Y-255643271D01*
X317327254Y-255643271D02*
X317327254Y-255786128D01*
X317327254Y-254857557D02*
X317398683Y-254928985D01*
X317398683Y-254928985D02*
X317327254Y-255000414D01*
X317327254Y-255000414D02*
X317255826Y-254928985D01*
X317255826Y-254928985D02*
X317327254Y-254857557D01*
X317327254Y-254857557D02*
X317327254Y-255000414D01*
X319184397Y-255786128D02*
X319184397Y-254286128D01*
X319898683Y-254786128D02*
X319898683Y-255786128D01*
X319898683Y-254928985D02*
X319970112Y-254857557D01*
X319970112Y-254857557D02*
X320112969Y-254786128D01*
X320112969Y-254786128D02*
X320327255Y-254786128D01*
X320327255Y-254786128D02*
X320470112Y-254857557D01*
X320470112Y-254857557D02*
X320541541Y-255000414D01*
X320541541Y-255000414D02*
X320541541Y-255786128D01*
X321041541Y-254786128D02*
X321612969Y-254786128D01*
X321255826Y-254286128D02*
X321255826Y-255571842D01*
X321255826Y-255571842D02*
X321327255Y-255714700D01*
X321327255Y-255714700D02*
X321470112Y-255786128D01*
X321470112Y-255786128D02*
X321612969Y-255786128D01*
X322684398Y-255714700D02*
X322541541Y-255786128D01*
X322541541Y-255786128D02*
X322255827Y-255786128D01*
X322255827Y-255786128D02*
X322112969Y-255714700D01*
X322112969Y-255714700D02*
X322041541Y-255571842D01*
X322041541Y-255571842D02*
X322041541Y-255000414D01*
X322041541Y-255000414D02*
X322112969Y-254857557D01*
X322112969Y-254857557D02*
X322255827Y-254786128D01*
X322255827Y-254786128D02*
X322541541Y-254786128D01*
X322541541Y-254786128D02*
X322684398Y-254857557D01*
X322684398Y-254857557D02*
X322755827Y-255000414D01*
X322755827Y-255000414D02*
X322755827Y-255143271D01*
X322755827Y-255143271D02*
X322041541Y-255286128D01*
X323398683Y-255786128D02*
X323398683Y-254786128D01*
X323398683Y-255071842D02*
X323470112Y-254928985D01*
X323470112Y-254928985D02*
X323541541Y-254857557D01*
X323541541Y-254857557D02*
X323684398Y-254786128D01*
X323684398Y-254786128D02*
X323827255Y-254786128D01*
X324970112Y-255714700D02*
X324827254Y-255786128D01*
X324827254Y-255786128D02*
X324541540Y-255786128D01*
X324541540Y-255786128D02*
X324398683Y-255714700D01*
X324398683Y-255714700D02*
X324327254Y-255643271D01*
X324327254Y-255643271D02*
X324255826Y-255500414D01*
X324255826Y-255500414D02*
X324255826Y-255071842D01*
X324255826Y-255071842D02*
X324327254Y-254928985D01*
X324327254Y-254928985D02*
X324398683Y-254857557D01*
X324398683Y-254857557D02*
X324541540Y-254786128D01*
X324541540Y-254786128D02*
X324827254Y-254786128D01*
X324827254Y-254786128D02*
X324970112Y-254857557D01*
X325827254Y-255786128D02*
X325684397Y-255714700D01*
X325684397Y-255714700D02*
X325612968Y-255643271D01*
X325612968Y-255643271D02*
X325541540Y-255500414D01*
X325541540Y-255500414D02*
X325541540Y-255071842D01*
X325541540Y-255071842D02*
X325612968Y-254928985D01*
X325612968Y-254928985D02*
X325684397Y-254857557D01*
X325684397Y-254857557D02*
X325827254Y-254786128D01*
X325827254Y-254786128D02*
X326041540Y-254786128D01*
X326041540Y-254786128D02*
X326184397Y-254857557D01*
X326184397Y-254857557D02*
X326255826Y-254928985D01*
X326255826Y-254928985D02*
X326327254Y-255071842D01*
X326327254Y-255071842D02*
X326327254Y-255500414D01*
X326327254Y-255500414D02*
X326255826Y-255643271D01*
X326255826Y-255643271D02*
X326184397Y-255714700D01*
X326184397Y-255714700D02*
X326041540Y-255786128D01*
X326041540Y-255786128D02*
X325827254Y-255786128D01*
X326970111Y-254786128D02*
X326970111Y-255786128D01*
X326970111Y-254928985D02*
X327041540Y-254857557D01*
X327041540Y-254857557D02*
X327184397Y-254786128D01*
X327184397Y-254786128D02*
X327398683Y-254786128D01*
X327398683Y-254786128D02*
X327541540Y-254857557D01*
X327541540Y-254857557D02*
X327612969Y-255000414D01*
X327612969Y-255000414D02*
X327612969Y-255786128D01*
X328327254Y-254786128D02*
X328327254Y-255786128D01*
X328327254Y-254928985D02*
X328398683Y-254857557D01*
X328398683Y-254857557D02*
X328541540Y-254786128D01*
X328541540Y-254786128D02*
X328755826Y-254786128D01*
X328755826Y-254786128D02*
X328898683Y-254857557D01*
X328898683Y-254857557D02*
X328970112Y-255000414D01*
X328970112Y-255000414D02*
X328970112Y-255786128D01*
X330255826Y-255714700D02*
X330112969Y-255786128D01*
X330112969Y-255786128D02*
X329827255Y-255786128D01*
X329827255Y-255786128D02*
X329684397Y-255714700D01*
X329684397Y-255714700D02*
X329612969Y-255571842D01*
X329612969Y-255571842D02*
X329612969Y-255000414D01*
X329612969Y-255000414D02*
X329684397Y-254857557D01*
X329684397Y-254857557D02*
X329827255Y-254786128D01*
X329827255Y-254786128D02*
X330112969Y-254786128D01*
X330112969Y-254786128D02*
X330255826Y-254857557D01*
X330255826Y-254857557D02*
X330327255Y-255000414D01*
X330327255Y-255000414D02*
X330327255Y-255143271D01*
X330327255Y-255143271D02*
X329612969Y-255286128D01*
X331612969Y-255714700D02*
X331470111Y-255786128D01*
X331470111Y-255786128D02*
X331184397Y-255786128D01*
X331184397Y-255786128D02*
X331041540Y-255714700D01*
X331041540Y-255714700D02*
X330970111Y-255643271D01*
X330970111Y-255643271D02*
X330898683Y-255500414D01*
X330898683Y-255500414D02*
X330898683Y-255071842D01*
X330898683Y-255071842D02*
X330970111Y-254928985D01*
X330970111Y-254928985D02*
X331041540Y-254857557D01*
X331041540Y-254857557D02*
X331184397Y-254786128D01*
X331184397Y-254786128D02*
X331470111Y-254786128D01*
X331470111Y-254786128D02*
X331612969Y-254857557D01*
X332041540Y-254786128D02*
X332612968Y-254786128D01*
X332255825Y-254286128D02*
X332255825Y-255571842D01*
X332255825Y-255571842D02*
X332327254Y-255714700D01*
X332327254Y-255714700D02*
X332470111Y-255786128D01*
X332470111Y-255786128D02*
X332612968Y-255786128D01*
X333112968Y-255643271D02*
X333184397Y-255714700D01*
X333184397Y-255714700D02*
X333112968Y-255786128D01*
X333112968Y-255786128D02*
X333041540Y-255714700D01*
X333041540Y-255714700D02*
X333112968Y-255643271D01*
X333112968Y-255643271D02*
X333112968Y-255786128D01*
X333827254Y-255786128D02*
X333827254Y-254286128D01*
X333970112Y-255214700D02*
X334398683Y-255786128D01*
X334398683Y-254786128D02*
X333827254Y-255357557D01*
X335041540Y-255786128D02*
X335041540Y-254786128D01*
X335041540Y-254286128D02*
X334970112Y-254357557D01*
X334970112Y-254357557D02*
X335041540Y-254428985D01*
X335041540Y-254428985D02*
X335112969Y-254357557D01*
X335112969Y-254357557D02*
X335041540Y-254286128D01*
X335041540Y-254286128D02*
X335041540Y-254428985D01*
X336398684Y-255714700D02*
X336255826Y-255786128D01*
X336255826Y-255786128D02*
X335970112Y-255786128D01*
X335970112Y-255786128D02*
X335827255Y-255714700D01*
X335827255Y-255714700D02*
X335755826Y-255643271D01*
X335755826Y-255643271D02*
X335684398Y-255500414D01*
X335684398Y-255500414D02*
X335684398Y-255071842D01*
X335684398Y-255071842D02*
X335755826Y-254928985D01*
X335755826Y-254928985D02*
X335827255Y-254857557D01*
X335827255Y-254857557D02*
X335970112Y-254786128D01*
X335970112Y-254786128D02*
X336255826Y-254786128D01*
X336255826Y-254786128D02*
X336398684Y-254857557D01*
X337684398Y-255786128D02*
X337684398Y-255000414D01*
X337684398Y-255000414D02*
X337612969Y-254857557D01*
X337612969Y-254857557D02*
X337470112Y-254786128D01*
X337470112Y-254786128D02*
X337184398Y-254786128D01*
X337184398Y-254786128D02*
X337041540Y-254857557D01*
X337684398Y-255714700D02*
X337541540Y-255786128D01*
X337541540Y-255786128D02*
X337184398Y-255786128D01*
X337184398Y-255786128D02*
X337041540Y-255714700D01*
X337041540Y-255714700D02*
X336970112Y-255571842D01*
X336970112Y-255571842D02*
X336970112Y-255428985D01*
X336970112Y-255428985D02*
X337041540Y-255286128D01*
X337041540Y-255286128D02*
X337184398Y-255214700D01*
X337184398Y-255214700D02*
X337541540Y-255214700D01*
X337541540Y-255214700D02*
X337684398Y-255143271D01*
X339041541Y-255786128D02*
X339041541Y-254286128D01*
X339041541Y-255714700D02*
X338898683Y-255786128D01*
X338898683Y-255786128D02*
X338612969Y-255786128D01*
X338612969Y-255786128D02*
X338470112Y-255714700D01*
X338470112Y-255714700D02*
X338398683Y-255643271D01*
X338398683Y-255643271D02*
X338327255Y-255500414D01*
X338327255Y-255500414D02*
X338327255Y-255071842D01*
X338327255Y-255071842D02*
X338398683Y-254928985D01*
X338398683Y-254928985D02*
X338470112Y-254857557D01*
X338470112Y-254857557D02*
X338612969Y-254786128D01*
X338612969Y-254786128D02*
X338898683Y-254786128D01*
X338898683Y-254786128D02*
X339041541Y-254857557D01*
X339398684Y-255928985D02*
X340541541Y-255928985D01*
X340898683Y-254786128D02*
X340898683Y-256286128D01*
X340898683Y-254857557D02*
X341041541Y-254786128D01*
X341041541Y-254786128D02*
X341327255Y-254786128D01*
X341327255Y-254786128D02*
X341470112Y-254857557D01*
X341470112Y-254857557D02*
X341541541Y-254928985D01*
X341541541Y-254928985D02*
X341612969Y-255071842D01*
X341612969Y-255071842D02*
X341612969Y-255500414D01*
X341612969Y-255500414D02*
X341541541Y-255643271D01*
X341541541Y-255643271D02*
X341470112Y-255714700D01*
X341470112Y-255714700D02*
X341327255Y-255786128D01*
X341327255Y-255786128D02*
X341041541Y-255786128D01*
X341041541Y-255786128D02*
X340898683Y-255714700D01*
X342898684Y-255714700D02*
X342755826Y-255786128D01*
X342755826Y-255786128D02*
X342470112Y-255786128D01*
X342470112Y-255786128D02*
X342327255Y-255714700D01*
X342327255Y-255714700D02*
X342255826Y-255643271D01*
X342255826Y-255643271D02*
X342184398Y-255500414D01*
X342184398Y-255500414D02*
X342184398Y-255071842D01*
X342184398Y-255071842D02*
X342255826Y-254928985D01*
X342255826Y-254928985D02*
X342327255Y-254857557D01*
X342327255Y-254857557D02*
X342470112Y-254786128D01*
X342470112Y-254786128D02*
X342755826Y-254786128D01*
X342755826Y-254786128D02*
X342898684Y-254857557D01*
X343541540Y-255786128D02*
X343541540Y-254286128D01*
X343541540Y-254857557D02*
X343684398Y-254786128D01*
X343684398Y-254786128D02*
X343970112Y-254786128D01*
X343970112Y-254786128D02*
X344112969Y-254857557D01*
X344112969Y-254857557D02*
X344184398Y-254928985D01*
X344184398Y-254928985D02*
X344255826Y-255071842D01*
X344255826Y-255071842D02*
X344255826Y-255500414D01*
X344255826Y-255500414D02*
X344184398Y-255643271D01*
X344184398Y-255643271D02*
X344112969Y-255714700D01*
X344112969Y-255714700D02*
X343970112Y-255786128D01*
X343970112Y-255786128D02*
X343684398Y-255786128D01*
X343684398Y-255786128D02*
X343541540Y-255714700D01*
D10*
D11*
X311800000Y-250900000D02*
X419800000Y-250900000D01*
D10*
D11*
X313184398Y-253014700D02*
X313398684Y-253086128D01*
X313398684Y-253086128D02*
X313755826Y-253086128D01*
X313755826Y-253086128D02*
X313898684Y-253014700D01*
X313898684Y-253014700D02*
X313970112Y-252943271D01*
X313970112Y-252943271D02*
X314041541Y-252800414D01*
X314041541Y-252800414D02*
X314041541Y-252657557D01*
X314041541Y-252657557D02*
X313970112Y-252514700D01*
X313970112Y-252514700D02*
X313898684Y-252443271D01*
X313898684Y-252443271D02*
X313755826Y-252371842D01*
X313755826Y-252371842D02*
X313470112Y-252300414D01*
X313470112Y-252300414D02*
X313327255Y-252228985D01*
X313327255Y-252228985D02*
X313255826Y-252157557D01*
X313255826Y-252157557D02*
X313184398Y-252014700D01*
X313184398Y-252014700D02*
X313184398Y-251871842D01*
X313184398Y-251871842D02*
X313255826Y-251728985D01*
X313255826Y-251728985D02*
X313327255Y-251657557D01*
X313327255Y-251657557D02*
X313470112Y-251586128D01*
X313470112Y-251586128D02*
X313827255Y-251586128D01*
X313827255Y-251586128D02*
X314041541Y-251657557D01*
X314684397Y-253086128D02*
X314684397Y-251586128D01*
X315327255Y-253086128D02*
X315327255Y-252300414D01*
X315327255Y-252300414D02*
X315255826Y-252157557D01*
X315255826Y-252157557D02*
X315112969Y-252086128D01*
X315112969Y-252086128D02*
X314898683Y-252086128D01*
X314898683Y-252086128D02*
X314755826Y-252157557D01*
X314755826Y-252157557D02*
X314684397Y-252228985D01*
X316612969Y-253014700D02*
X316470112Y-253086128D01*
X316470112Y-253086128D02*
X316184398Y-253086128D01*
X316184398Y-253086128D02*
X316041540Y-253014700D01*
X316041540Y-253014700D02*
X315970112Y-252871842D01*
X315970112Y-252871842D02*
X315970112Y-252300414D01*
X315970112Y-252300414D02*
X316041540Y-252157557D01*
X316041540Y-252157557D02*
X316184398Y-252086128D01*
X316184398Y-252086128D02*
X316470112Y-252086128D01*
X316470112Y-252086128D02*
X316612969Y-252157557D01*
X316612969Y-252157557D02*
X316684398Y-252300414D01*
X316684398Y-252300414D02*
X316684398Y-252443271D01*
X316684398Y-252443271D02*
X315970112Y-252586128D01*
X317898683Y-253014700D02*
X317755826Y-253086128D01*
X317755826Y-253086128D02*
X317470112Y-253086128D01*
X317470112Y-253086128D02*
X317327254Y-253014700D01*
X317327254Y-253014700D02*
X317255826Y-252871842D01*
X317255826Y-252871842D02*
X317255826Y-252300414D01*
X317255826Y-252300414D02*
X317327254Y-252157557D01*
X317327254Y-252157557D02*
X317470112Y-252086128D01*
X317470112Y-252086128D02*
X317755826Y-252086128D01*
X317755826Y-252086128D02*
X317898683Y-252157557D01*
X317898683Y-252157557D02*
X317970112Y-252300414D01*
X317970112Y-252300414D02*
X317970112Y-252443271D01*
X317970112Y-252443271D02*
X317255826Y-252586128D01*
X318398683Y-252086128D02*
X318970111Y-252086128D01*
X318612968Y-251586128D02*
X318612968Y-252871842D01*
X318612968Y-252871842D02*
X318684397Y-253014700D01*
X318684397Y-253014700D02*
X318827254Y-253086128D01*
X318827254Y-253086128D02*
X318970111Y-253086128D01*
X319470111Y-252943271D02*
X319541540Y-253014700D01*
X319541540Y-253014700D02*
X319470111Y-253086128D01*
X319470111Y-253086128D02*
X319398683Y-253014700D01*
X319398683Y-253014700D02*
X319470111Y-252943271D01*
X319470111Y-252943271D02*
X319470111Y-253086128D01*
X319470111Y-252157557D02*
X319541540Y-252228985D01*
X319541540Y-252228985D02*
X319470111Y-252300414D01*
X319470111Y-252300414D02*
X319398683Y-252228985D01*
X319398683Y-252228985D02*
X319470111Y-252157557D01*
X319470111Y-252157557D02*
X319470111Y-252300414D01*
D10*
D12*
D10*
D11*
D10*
D11*
D10*
D11*
D10*
D11*
D10*
D11*
X331800000Y-260900000D02*
X331800000Y-263900000D01*
D10*
D11*
X395800000Y-260900000D02*
X395800000Y-267400000D01*
D14*
X35407600Y-47828200D03*
D15*
X35407600Y-45288200D03*
X35407600Y-42748200D03*
D14*
X368025000Y-33274000D03*
D15*
X368025000Y-30734000D03*
X368025000Y-28194000D03*
D14*
X380085600Y-33274000D03*
D15*
X380085600Y-30734000D03*
X380085600Y-28194000D03*
D14*
X355473000Y-33274000D03*
D15*
X355473000Y-30734000D03*
X355473000Y-28194000D03*
D14*
X34010600Y-184099200D03*
D15*
X34010600Y-181559200D03*
X34010600Y-179019200D03*
D14*
X51562000Y-53594000D03*
D15*
X51562000Y-51054000D03*
X51562000Y-48514000D03*
D14*
X113411000Y-162943135D03*
D15*
X110871000Y-162943135D03*
X108331000Y-162943135D03*
D14*
X145872200Y-175133000D03*
D15*
X145872200Y-172593000D03*
X145872200Y-170053000D03*
D16*
X159043000Y-119184135D03*
X159043000Y-117534135D03*
D17*
X191830000Y-208197500D03*
D18*
X191830000Y-210737500D03*
X189290000Y-208197500D03*
X189290000Y-210737500D03*
X186750000Y-208197500D03*
X186750000Y-210737500D03*
X184210000Y-208197500D03*
X184210000Y-210737500D03*
X181670000Y-208197500D03*
X181670000Y-210737500D03*
D15*
X383519200Y-168656000D03*
D19*
X51580000Y-62120000D03*
D20*
X97300000Y-62120000D03*
D21*
X160618278Y-151232880D03*
X160618278Y-153132880D03*
X163018278Y-152182880D03*
D15*
X109743744Y-151161879D03*
D22*
X355869000Y-66408135D03*
D23*
X355869000Y-63868135D03*
X355869000Y-61328135D03*
X355869000Y-58788135D03*
X355869000Y-56248135D03*
X355869000Y-53708135D03*
X355869000Y-51168135D03*
X355869000Y-48628135D03*
X348249000Y-48628135D03*
X348249000Y-51168135D03*
X348249000Y-53708135D03*
X348249000Y-56248135D03*
X348249000Y-58788135D03*
X348249000Y-61328135D03*
X348249000Y-63868135D03*
X348249000Y-66408135D03*
D24*
X374142000Y-27434135D03*
D25*
X374142000Y-37594135D03*
D26*
X230378000Y-95644895D03*
X230378000Y-93104895D03*
X230378000Y-90564895D03*
X230378000Y-88024895D03*
X230378000Y-85484895D03*
X222758000Y-85484895D03*
X222758000Y-88024895D03*
X222758000Y-90564895D03*
X222758000Y-93104895D03*
X222758000Y-95644895D03*
X280693300Y-173649895D03*
X280693300Y-171109895D03*
X280693300Y-168569895D03*
X280693300Y-166029895D03*
X280693300Y-163489895D03*
X273073300Y-163489895D03*
X273073300Y-166029895D03*
X273073300Y-168569895D03*
X273073300Y-171109895D03*
X273073300Y-173649895D03*
D27*
X50673000Y-71249135D03*
D28*
X50673000Y-73789135D03*
X50673000Y-76329135D03*
X50673000Y-78869135D03*
X50673000Y-81409135D03*
X50673000Y-83949135D03*
D27*
X101600000Y-71120000D03*
D28*
X101600000Y-73660000D03*
X101600000Y-76200000D03*
X101600000Y-78740000D03*
X101600000Y-81280000D03*
X101600000Y-83820000D03*
X101600000Y-86360000D03*
X101600000Y-88900000D03*
D26*
X244856000Y-115129615D03*
X244856000Y-112589615D03*
X244856000Y-110049615D03*
X244856000Y-107509615D03*
X244856000Y-104969615D03*
X237236000Y-104969615D03*
X237236000Y-107509615D03*
X237236000Y-110049615D03*
X237236000Y-112589615D03*
X237236000Y-115129615D03*
D29*
X26884400Y-84312285D03*
X28959400Y-84312285D03*
D30*
X58039000Y-73431635D03*
X58039000Y-71606635D03*
D31*
X74861500Y-92708135D03*
X74861500Y-93358135D03*
X74861500Y-94008135D03*
X74861500Y-94658135D03*
X74861500Y-95308135D03*
X74861500Y-95958135D03*
X74861500Y-96608135D03*
X74861500Y-97258135D03*
X74861500Y-97908135D03*
X74861500Y-98558135D03*
X80586500Y-98558135D03*
X80586500Y-97908135D03*
X80586500Y-97258135D03*
X80586500Y-96608135D03*
X80586500Y-95958135D03*
X80586500Y-95308135D03*
X80586500Y-94658135D03*
X80586500Y-94008135D03*
X80586500Y-93358135D03*
X80586500Y-92708135D03*
D15*
X272618200Y-158294935D03*
D32*
X28900400Y-82026285D03*
X26900400Y-82026285D03*
D24*
X378236000Y-163830000D03*
D25*
X378236000Y-153670000D03*
D15*
X73800000Y-55100000D03*
D33*
X83530982Y-206408000D03*
X85255982Y-206408000D03*
D34*
X307100000Y-213480000D03*
D35*
X303290000Y-213480000D03*
X299480000Y-213480000D03*
X295670000Y-213480000D03*
X291860000Y-213480000D03*
X288050000Y-213480000D03*
D24*
X230150000Y-47080000D03*
D25*
X230150000Y-36920000D03*
D15*
X265379200Y-158162455D03*
D36*
X22185400Y-78934535D03*
X22185400Y-72834535D03*
D21*
X160458778Y-136500880D03*
X160458778Y-138400880D03*
X162858778Y-137450880D03*
D24*
X40550000Y-45090000D03*
D25*
X40550000Y-55250000D03*
D15*
X208508600Y-157883055D03*
D37*
X79375000Y-48006000D03*
D25*
X79375000Y-55626000D03*
D15*
X126873000Y-100459135D03*
X252095000Y-99976535D03*
X295198800Y-80601415D03*
D24*
X361630000Y-61320000D03*
D25*
X361630000Y-71480000D03*
D15*
X395097000Y-113538000D03*
D38*
X187553600Y-178333400D03*
D15*
X25349200Y-148793200D03*
D24*
X57860000Y-169750000D03*
D25*
X57860000Y-159590000D03*
D15*
X222885000Y-178511895D03*
D26*
X295156300Y-95638615D03*
X295156300Y-93098615D03*
X295156300Y-90558615D03*
X295156300Y-88018615D03*
X295156300Y-85478615D03*
X287536300Y-85478615D03*
X287536300Y-88018615D03*
X287536300Y-90558615D03*
X287536300Y-93098615D03*
X287536300Y-95638615D03*
D15*
X193548000Y-82425135D03*
D39*
X102020401Y-166245135D03*
D40*
X104020401Y-166245135D03*
D15*
X273227800Y-119249655D03*
D24*
X79880000Y-31830000D03*
D25*
X79880000Y-41990000D03*
D15*
X244906800Y-80740175D03*
X110333000Y-127189135D03*
X377672600Y-45491400D03*
D37*
X120250000Y-198800000D03*
D25*
X120250000Y-206420000D03*
D15*
X117980000Y-168620000D03*
X241477800Y-28145335D03*
X244017800Y-28145335D03*
X246557800Y-28145335D03*
X249097800Y-28145335D03*
X251637800Y-28145335D03*
X254177800Y-28145335D03*
X256717800Y-28145335D03*
X259257800Y-28145335D03*
X261797800Y-28145335D03*
X264337800Y-28145335D03*
X266877800Y-28145335D03*
X269417800Y-28145335D03*
X271957800Y-28145335D03*
X274497800Y-28145335D03*
X277037800Y-28145335D03*
X279577800Y-28145335D03*
X282117800Y-28145335D03*
X284657800Y-28145335D03*
X287197800Y-28145335D03*
X289737800Y-28145335D03*
X292277800Y-28145335D03*
X294817800Y-28145335D03*
X297357800Y-28145335D03*
X299897800Y-28145335D03*
X302437800Y-28145335D03*
X304977800Y-28145335D03*
X307517800Y-28145335D03*
X310057800Y-28145335D03*
X312597800Y-28145335D03*
X315137800Y-28145335D03*
X317677800Y-28145335D03*
X320217800Y-28145335D03*
X241477800Y-30685335D03*
X244017800Y-30685335D03*
X246557800Y-30685335D03*
X249097800Y-30685335D03*
X251637800Y-30685335D03*
X254177800Y-30685335D03*
X256717800Y-30685335D03*
X259257800Y-30685335D03*
X261797800Y-30685335D03*
X264337800Y-30685335D03*
X266877800Y-30685335D03*
X269417800Y-30685335D03*
X271957800Y-30685335D03*
X274497800Y-30685335D03*
X277037800Y-30685335D03*
X279577800Y-30685335D03*
X282117800Y-30685335D03*
X284657800Y-30685335D03*
X287197800Y-30685335D03*
X289737800Y-30685335D03*
X292277800Y-30685335D03*
X294817800Y-30685335D03*
X297357800Y-30685335D03*
X299897800Y-30685335D03*
X302437800Y-30685335D03*
X304977800Y-30685335D03*
X307517800Y-30685335D03*
X310057800Y-30685335D03*
X312597800Y-30685335D03*
X315137800Y-30685335D03*
X317677800Y-30685335D03*
X320217800Y-30685335D03*
X241477800Y-33225335D03*
X244017800Y-33225335D03*
X246557800Y-33225335D03*
X249097800Y-33225335D03*
X251637800Y-33225335D03*
X254177800Y-33225335D03*
X256717800Y-33225335D03*
X259257800Y-33225335D03*
X261797800Y-33225335D03*
X264337800Y-33225335D03*
X266877800Y-33225335D03*
X269417800Y-33225335D03*
X271957800Y-33225335D03*
X274497800Y-33225335D03*
X277037800Y-33225335D03*
X279577800Y-33225335D03*
X282117800Y-33225335D03*
X284657800Y-33225335D03*
X287197800Y-33225335D03*
X289737800Y-33225335D03*
X292277800Y-33225335D03*
X294817800Y-33225335D03*
X297357800Y-33225335D03*
X299897800Y-33225335D03*
X302437800Y-33225335D03*
X304977800Y-33225335D03*
X307517800Y-33225335D03*
X310057800Y-33225335D03*
X312597800Y-33225335D03*
X315137800Y-33225335D03*
X317677800Y-33225335D03*
X320217800Y-33225335D03*
D41*
X236397800Y-25605335D03*
X325297800Y-25605335D03*
D42*
X25868400Y-67310285D03*
X25868400Y-69310285D03*
D26*
X244871000Y-173451415D03*
X244871000Y-170911415D03*
X244871000Y-168371415D03*
X244871000Y-165831415D03*
X244871000Y-163291415D03*
X237251000Y-163291415D03*
X237251000Y-165831415D03*
X237251000Y-168371415D03*
X237251000Y-170911415D03*
X237251000Y-173451415D03*
D27*
X166898278Y-143927880D03*
D28*
X166898278Y-146467880D03*
X166898278Y-149007880D03*
X166898278Y-151547880D03*
X166898278Y-154087880D03*
X166898278Y-156627880D03*
D15*
X88413482Y-207338000D03*
X131953000Y-100459135D03*
X222605600Y-158015535D03*
D37*
X116126000Y-190870000D03*
D25*
X116126000Y-198490000D03*
D26*
X259350600Y-115195615D03*
X259350600Y-112655615D03*
X259350600Y-110115615D03*
X259350600Y-107575615D03*
X259350600Y-105035615D03*
X251730600Y-105035615D03*
X251730600Y-107575615D03*
X251730600Y-110115615D03*
X251730600Y-112655615D03*
X251730600Y-115195615D03*
D38*
X71323200Y-74396600D03*
D24*
X17100000Y-35010000D03*
D25*
X17100000Y-45170000D03*
D24*
X376830000Y-133450000D03*
D25*
X376830000Y-143610000D03*
D43*
X131445000Y-210491000D03*
X142875000Y-210491000D03*
D14*
X132715000Y-204141000D03*
D15*
X133985000Y-201601000D03*
X135255000Y-204141000D03*
X136525000Y-201601000D03*
X137795000Y-204141000D03*
X139065000Y-201601000D03*
X140335000Y-204141000D03*
X141605000Y-201601000D03*
D38*
X129390000Y-213541000D03*
X144930000Y-213541000D03*
D39*
X60349000Y-93855135D03*
D40*
X62349000Y-93855135D03*
D44*
X164253000Y-124604135D03*
X164253000Y-126254135D03*
D21*
X160618278Y-142977880D03*
X160618278Y-144877880D03*
X163018278Y-143927880D03*
D15*
X148550000Y-124350000D03*
D16*
X159273000Y-148784135D03*
X159273000Y-147134135D03*
X159273000Y-153024135D03*
X159273000Y-151374135D03*
D39*
X165867401Y-97560000D03*
D40*
X167867401Y-97560000D03*
D21*
X160443000Y-124409135D03*
X160443000Y-126309135D03*
X162843000Y-125359135D03*
D15*
X237794800Y-80740175D03*
X315722000Y-41277135D03*
D45*
X204373000Y-96679135D03*
D46*
X210373000Y-94679135D03*
X210373000Y-82479135D03*
X198373000Y-82479135D03*
X198373000Y-94679135D03*
D26*
X295179600Y-154231655D03*
X295179600Y-151691655D03*
X295179600Y-149151655D03*
X295179600Y-146611655D03*
X295179600Y-144071655D03*
X287559600Y-144071655D03*
X287559600Y-146611655D03*
X287559600Y-149151655D03*
X287559600Y-151691655D03*
X287559600Y-154231655D03*
D37*
X94663000Y-199252000D03*
D25*
X94663000Y-206872000D03*
D15*
X366903000Y-107317135D03*
D26*
X280693300Y-134813415D03*
X280693300Y-132273415D03*
X280693300Y-129733415D03*
X280693300Y-127193415D03*
X280693300Y-124653415D03*
X273073300Y-124653415D03*
X273073300Y-127193415D03*
X273073300Y-129733415D03*
X273073300Y-132273415D03*
X273073300Y-134813415D03*
D16*
X159043000Y-130254135D03*
X159043000Y-128604135D03*
D37*
X33350200Y-165912800D03*
D25*
X33350200Y-173532800D03*
D33*
X65850982Y-203868000D03*
X67575982Y-203868000D03*
D42*
X61036200Y-79367735D03*
X61036200Y-81367735D03*
D15*
X109347000Y-145036135D03*
X107442000Y-28145335D03*
X109982000Y-28145335D03*
X112522000Y-28145335D03*
X115062000Y-28145335D03*
X117602000Y-28145335D03*
X120142000Y-28145335D03*
X122682000Y-28145335D03*
X125222000Y-28145335D03*
X127762000Y-28145335D03*
X130302000Y-28145335D03*
X132842000Y-28145335D03*
X135382000Y-28145335D03*
X137922000Y-28145335D03*
X140462000Y-28145335D03*
X143002000Y-28145335D03*
X145542000Y-28145335D03*
X148082000Y-28145335D03*
X150622000Y-28145335D03*
X153162000Y-28145335D03*
X155702000Y-28145335D03*
X158242000Y-28145335D03*
X160782000Y-28145335D03*
X163322000Y-28145335D03*
X165862000Y-28145335D03*
X168402000Y-28145335D03*
X170942000Y-28145335D03*
X173482000Y-28145335D03*
X176022000Y-28145335D03*
X178562000Y-28145335D03*
X181102000Y-28145335D03*
X183642000Y-28145335D03*
X186182000Y-28145335D03*
X107442000Y-30685335D03*
X109982000Y-30685335D03*
X112522000Y-30685335D03*
X115062000Y-30685335D03*
X117602000Y-30685335D03*
X120142000Y-30685335D03*
X122682000Y-30685335D03*
X125222000Y-30685335D03*
X127762000Y-30685335D03*
X130302000Y-30685335D03*
X132842000Y-30685335D03*
X135382000Y-30685335D03*
X137922000Y-30685335D03*
X140462000Y-30685335D03*
X143002000Y-30685335D03*
X145542000Y-30685335D03*
X148082000Y-30685335D03*
X150622000Y-30685335D03*
X153162000Y-30685335D03*
X155702000Y-30685335D03*
X158242000Y-30685335D03*
X160782000Y-30685335D03*
X163322000Y-30685335D03*
X165862000Y-30685335D03*
X168402000Y-30685335D03*
X170942000Y-30685335D03*
X173482000Y-30685335D03*
X176022000Y-30685335D03*
X178562000Y-30685335D03*
X181102000Y-30685335D03*
X183642000Y-30685335D03*
X186182000Y-30685335D03*
X107442000Y-33225335D03*
X109982000Y-33225335D03*
X112522000Y-33225335D03*
X115062000Y-33225335D03*
X117602000Y-33225335D03*
X120142000Y-33225335D03*
X122682000Y-33225335D03*
X125222000Y-33225335D03*
X127762000Y-33225335D03*
X130302000Y-33225335D03*
X132842000Y-33225335D03*
X135382000Y-33225335D03*
X137922000Y-33225335D03*
X140462000Y-33225335D03*
X143002000Y-33225335D03*
X145542000Y-33225335D03*
X148082000Y-33225335D03*
X150622000Y-33225335D03*
X153162000Y-33225335D03*
X155702000Y-33225335D03*
X158242000Y-33225335D03*
X160782000Y-33225335D03*
X163322000Y-33225335D03*
X165862000Y-33225335D03*
X168402000Y-33225335D03*
X170942000Y-33225335D03*
X173482000Y-33225335D03*
X176022000Y-33225335D03*
X178562000Y-33225335D03*
X181102000Y-33225335D03*
X183642000Y-33225335D03*
X186182000Y-33225335D03*
D41*
X102362000Y-25605335D03*
X191262000Y-25605335D03*
D15*
X152700000Y-124200000D03*
D37*
X56769000Y-43690135D03*
D25*
X56769000Y-51310135D03*
D16*
X159043000Y-126204135D03*
X159043000Y-124554135D03*
D15*
X176850000Y-124950000D03*
X28117800Y-152323800D03*
D27*
X166865778Y-125258880D03*
D28*
X166865778Y-127798880D03*
X166865778Y-130338880D03*
X166865778Y-132878880D03*
X166865778Y-135418880D03*
X166865778Y-137958880D03*
D15*
X222935800Y-119388415D03*
X372999000Y-166751000D03*
D27*
X83739000Y-141182635D03*
D28*
X83739000Y-143722635D03*
X83739000Y-146262635D03*
X83739000Y-148802635D03*
X83739000Y-151342635D03*
X83739000Y-153882635D03*
X83739000Y-156422635D03*
X83739000Y-158962635D03*
X83739000Y-161502635D03*
X83739000Y-164042635D03*
D26*
X230386300Y-134564415D03*
X230386300Y-132024415D03*
X230386300Y-129484415D03*
X230386300Y-126944415D03*
X230386300Y-124404415D03*
X222766300Y-124404415D03*
X222766300Y-126944415D03*
X222766300Y-129484415D03*
X222766300Y-132024415D03*
X222766300Y-134564415D03*
D21*
X160458778Y-132436880D03*
X160458778Y-134336880D03*
X162858778Y-133386880D03*
D47*
X62681000Y-212427669D03*
X87681000Y-212427669D03*
D37*
X80721000Y-212127669D03*
D24*
X77951000Y-212127669D03*
X75181000Y-212127669D03*
X72411000Y-212127669D03*
X69641000Y-212127669D03*
X79336000Y-214967669D03*
X76566000Y-214967669D03*
X73796000Y-214967669D03*
X71026000Y-214967669D03*
D15*
X280492200Y-139270335D03*
X288086800Y-80601415D03*
D33*
X83513482Y-199398000D03*
X85238482Y-199398000D03*
D21*
X160618278Y-147041880D03*
X160618278Y-148941880D03*
X163018278Y-147991880D03*
D24*
X272733000Y-194549135D03*
D25*
X272733000Y-204709135D03*
D24*
X105283000Y-153037135D03*
D25*
X105283000Y-142877135D03*
D48*
X77104500Y-112401135D03*
X75379500Y-112401135D03*
D33*
X75764500Y-145495635D03*
X77489500Y-145495635D03*
D27*
X78943000Y-186445000D03*
D28*
X76403000Y-186445000D03*
X73863000Y-186445000D03*
X71323000Y-186445000D03*
D24*
X398627600Y-36525200D03*
D25*
X398627600Y-46685200D03*
D26*
X230378000Y-173334895D03*
X230378000Y-170794895D03*
X230378000Y-168254895D03*
X230378000Y-165714895D03*
X230378000Y-163174895D03*
X222758000Y-163174895D03*
X222758000Y-165714895D03*
X222758000Y-168254895D03*
X222758000Y-170794895D03*
X222758000Y-173334895D03*
D16*
X164263000Y-115054135D03*
X164263000Y-113404135D03*
D15*
X361569000Y-46863000D03*
D26*
X244856000Y-134622135D03*
X244856000Y-132082135D03*
X244856000Y-129542135D03*
X244856000Y-127002135D03*
X244856000Y-124462135D03*
X237236000Y-124462135D03*
X237236000Y-127002135D03*
X237236000Y-129542135D03*
X237236000Y-132082135D03*
X237236000Y-134622135D03*
D15*
X87744000Y-200690000D03*
D26*
X224854500Y-46860135D03*
X224854500Y-44320135D03*
X224854500Y-41780135D03*
X224854500Y-39240135D03*
X224854500Y-36700135D03*
X217234500Y-36700135D03*
X217234500Y-39240135D03*
X217234500Y-41780135D03*
X217234500Y-44320135D03*
X217234500Y-46860135D03*
D48*
X76727500Y-141177635D03*
X75002500Y-141177635D03*
D49*
X46992200Y-149011135D03*
D50*
X46692200Y-145981135D03*
X41842200Y-145981135D03*
D49*
X41542200Y-149011135D03*
D28*
X53157200Y-149141135D03*
D51*
X54057200Y-149141135D03*
D28*
X53157200Y-146601135D03*
D51*
X54057200Y-146601135D03*
D27*
X53157200Y-144061135D03*
D51*
X54057200Y-144061135D03*
D28*
X53157200Y-141521135D03*
D51*
X54057200Y-141521135D03*
D28*
X53157200Y-138981135D03*
D51*
X54057200Y-138981135D03*
D28*
X53157200Y-136441135D03*
D51*
X54057200Y-136441135D03*
D28*
X53157200Y-133901135D03*
D51*
X54057200Y-133901135D03*
D27*
X53157200Y-131361135D03*
D51*
X54057200Y-131361135D03*
D28*
X53157200Y-128821135D03*
D51*
X54057200Y-128821135D03*
D28*
X53157200Y-126281135D03*
D51*
X54057200Y-126281135D03*
D28*
X53157200Y-123741135D03*
D51*
X54057200Y-123741135D03*
D28*
X53157200Y-121201135D03*
D51*
X54057200Y-121201135D03*
D27*
X53157200Y-118661135D03*
D51*
X54057200Y-118661135D03*
D28*
X53157200Y-116121135D03*
D51*
X54057200Y-116121135D03*
D28*
X53157200Y-113581135D03*
D51*
X54057200Y-113581135D03*
D28*
X53157200Y-111041135D03*
D51*
X54057200Y-111041135D03*
D28*
X53157200Y-108501135D03*
D51*
X54057200Y-108501135D03*
D27*
X53157200Y-105961135D03*
D51*
X54057200Y-105961135D03*
D28*
X53157200Y-103421135D03*
D51*
X54057200Y-103421135D03*
D28*
X53157200Y-100881135D03*
D51*
X54057200Y-100881135D03*
D28*
X35377200Y-100881135D03*
D51*
X34477200Y-100881135D03*
D28*
X35377200Y-103421135D03*
D51*
X34477200Y-103421135D03*
D27*
X35377200Y-105961135D03*
D51*
X34477200Y-105961135D03*
D28*
X35377200Y-108501135D03*
D51*
X34477200Y-108501135D03*
D28*
X35377200Y-111041135D03*
D51*
X34477200Y-111041135D03*
D28*
X35377200Y-113581135D03*
D51*
X34477200Y-113581135D03*
D28*
X35377200Y-116121135D03*
D51*
X34477200Y-116121135D03*
D27*
X35377200Y-118661135D03*
D51*
X34477200Y-118661135D03*
D28*
X35377200Y-121201135D03*
D51*
X34477200Y-121201135D03*
D28*
X35377200Y-123741135D03*
D51*
X34477200Y-123741135D03*
D28*
X35377200Y-126281135D03*
D51*
X34477200Y-126281135D03*
D28*
X35377200Y-128821135D03*
D51*
X34477200Y-128821135D03*
D27*
X35377200Y-131361135D03*
D51*
X34477200Y-131361135D03*
D28*
X35377200Y-133901135D03*
D51*
X34477200Y-133901135D03*
D28*
X35377200Y-136441135D03*
D51*
X34477200Y-136441135D03*
D28*
X35377200Y-138981135D03*
D51*
X34477200Y-138981135D03*
D28*
X35377200Y-141521135D03*
D51*
X34477200Y-141521135D03*
D27*
X35377200Y-144061135D03*
D51*
X34477200Y-144061135D03*
D28*
X35377200Y-146601135D03*
D51*
X34477200Y-146601135D03*
D28*
X35377200Y-149141135D03*
D51*
X34477200Y-149141135D03*
D28*
X46807200Y-101111135D03*
D52*
X46807200Y-100211135D03*
D27*
X44267200Y-101111135D03*
D52*
X44267200Y-100211135D03*
D28*
X41727200Y-101111135D03*
D52*
X41727200Y-100211135D03*
D24*
X349250000Y-27053135D03*
D25*
X349250000Y-37213135D03*
D15*
X229844600Y-158015535D03*
D53*
X58790000Y-79057135D03*
X58790000Y-78107135D03*
X58790000Y-77157135D03*
X56515000Y-77157135D03*
X56515000Y-78107135D03*
X56515000Y-79057135D03*
D26*
X244864300Y-95777375D03*
X244864300Y-93237375D03*
X244864300Y-90697375D03*
X244864300Y-88157375D03*
X244864300Y-85617375D03*
X237244300Y-85617375D03*
X237244300Y-88157375D03*
X237244300Y-90697375D03*
X237244300Y-93237375D03*
X237244300Y-95777375D03*
X215900000Y-153850175D03*
X215900000Y-151310175D03*
X215900000Y-148770175D03*
X215900000Y-146230175D03*
X215900000Y-143690175D03*
X208280000Y-143690175D03*
X208280000Y-146230175D03*
X208280000Y-148770175D03*
X208280000Y-151310175D03*
X208280000Y-153850175D03*
D37*
X56610000Y-32530000D03*
D25*
X56610000Y-40150000D03*
D15*
X208534000Y-178506415D03*
D54*
X60934600Y-75210435D03*
X60934600Y-73485435D03*
D16*
X164353000Y-156979135D03*
X164353000Y-155329135D03*
D15*
X350266000Y-106174135D03*
D27*
X156446022Y-106237135D03*
D28*
X156446022Y-108777135D03*
X156446022Y-111317135D03*
X156446022Y-113857135D03*
X156446022Y-116397135D03*
X156446022Y-118937135D03*
D15*
X230047800Y-119261415D03*
D24*
X37840000Y-177060000D03*
D25*
X37840000Y-166900000D03*
D15*
X352425000Y-100078135D03*
X244703600Y-138787735D03*
X144926480Y-190946980D03*
X61729000Y-204761669D03*
D26*
X309642600Y-76220375D03*
X309642600Y-73680375D03*
X309642600Y-71140375D03*
X309642600Y-68600375D03*
X309642600Y-66060375D03*
X302022600Y-66060375D03*
X302022600Y-68600375D03*
X302022600Y-71140375D03*
X302022600Y-73680375D03*
X302022600Y-76220375D03*
D15*
X280670000Y-99705295D03*
D26*
X230386300Y-153982655D03*
X230386300Y-151442655D03*
X230386300Y-148902655D03*
X230386300Y-146362655D03*
X230386300Y-143822655D03*
X222766300Y-143822655D03*
X222766300Y-146362655D03*
X222766300Y-148902655D03*
X222766300Y-151442655D03*
X222766300Y-153982655D03*
D24*
X45364400Y-45110400D03*
D25*
X45364400Y-55270400D03*
D24*
X138990000Y-174080000D03*
D25*
X138990000Y-163920000D03*
D26*
X280670000Y-114924375D03*
X280670000Y-112384375D03*
X280670000Y-109844375D03*
X280670000Y-107304375D03*
X280670000Y-104764375D03*
X273050000Y-104764375D03*
X273050000Y-107304375D03*
X273050000Y-109844375D03*
X273050000Y-112384375D03*
X273050000Y-114924375D03*
X205550500Y-50543135D03*
X205550500Y-48003135D03*
X205550500Y-45463135D03*
X205550500Y-42923135D03*
X205550500Y-40383135D03*
X197930500Y-40383135D03*
X197930500Y-42923135D03*
X197930500Y-45463135D03*
X197930500Y-48003135D03*
X197930500Y-50543135D03*
D15*
X121793000Y-100459135D03*
D44*
X164253000Y-128614135D03*
X164253000Y-130264135D03*
D15*
X237286800Y-119393895D03*
D55*
X79070000Y-200000669D03*
X77800000Y-200000669D03*
X76530000Y-200000669D03*
X75260000Y-200000669D03*
X73990000Y-200000669D03*
X72720000Y-200000669D03*
X71450000Y-200000669D03*
X70180000Y-200000669D03*
X70180000Y-204950669D03*
X71450000Y-204950669D03*
X72720000Y-204950669D03*
X73990000Y-204950669D03*
X75260000Y-204950669D03*
X76530000Y-204950669D03*
X77800000Y-204950669D03*
X79070000Y-204950669D03*
D39*
X205500000Y-67450000D03*
D40*
X203500000Y-67450000D03*
D15*
X215874600Y-138655255D03*
X302437800Y-80596335D03*
D26*
X215900000Y-173177895D03*
X215900000Y-170637895D03*
X215900000Y-168097895D03*
X215900000Y-165557895D03*
X215900000Y-163017895D03*
X208280000Y-163017895D03*
X208280000Y-165557895D03*
X208280000Y-168097895D03*
X208280000Y-170637895D03*
X208280000Y-173177895D03*
D15*
X140589000Y-66169135D03*
X61650000Y-200700000D03*
X167280000Y-87470000D03*
X279857200Y-158294935D03*
D22*
X362473000Y-124828135D03*
D23*
X362473000Y-122288135D03*
X362473000Y-119748135D03*
X362473000Y-117208135D03*
X362473000Y-114668135D03*
X362473000Y-112128135D03*
X362473000Y-109588135D03*
X362473000Y-107048135D03*
X354853000Y-107048135D03*
X354853000Y-109588135D03*
X354853000Y-112128135D03*
X354853000Y-114668135D03*
X354853000Y-117208135D03*
X354853000Y-119748135D03*
X354853000Y-122288135D03*
X354853000Y-124828135D03*
D15*
X343535000Y-47754135D03*
X87884000Y-40894000D03*
D27*
X71374000Y-83949135D03*
D28*
X71374000Y-86489135D03*
X71374000Y-89029135D03*
X71374000Y-91569135D03*
X71374000Y-94109135D03*
X71374000Y-96649135D03*
X71374000Y-99189135D03*
X71374000Y-101729135D03*
X71374000Y-104269135D03*
X71374000Y-106809135D03*
D56*
X104487000Y-213433000D03*
X108297000Y-213433000D03*
X112107000Y-213433000D03*
X115917000Y-213433000D03*
D26*
X74867500Y-47368135D03*
X74867500Y-44828135D03*
X74867500Y-42288135D03*
X74867500Y-39748135D03*
X74867500Y-37208135D03*
X67247500Y-37208135D03*
X67247500Y-39748135D03*
X67247500Y-42288135D03*
X67247500Y-44828135D03*
X67247500Y-47368135D03*
D15*
X229870000Y-99844055D03*
D24*
X103050000Y-123192135D03*
D25*
X103050000Y-133352135D03*
D26*
X215900000Y-134564415D03*
X215900000Y-132024415D03*
X215900000Y-129484415D03*
X215900000Y-126944415D03*
X215900000Y-124404415D03*
X208280000Y-124404415D03*
X208280000Y-126944415D03*
X208280000Y-129484415D03*
X208280000Y-132024415D03*
X208280000Y-134564415D03*
D24*
X24384000Y-45214135D03*
D25*
X24384000Y-35054135D03*
D31*
X74468020Y-149872754D03*
X74468020Y-150522754D03*
X74468020Y-151172754D03*
X74468020Y-151822754D03*
X74468020Y-152472754D03*
X74468020Y-153122754D03*
X74468020Y-153772754D03*
X74468020Y-154422754D03*
X74468020Y-155072754D03*
X74468020Y-155722754D03*
X80193020Y-155722754D03*
X80193020Y-155072754D03*
X80193020Y-154422754D03*
X80193020Y-153772754D03*
X80193020Y-153122754D03*
X80193020Y-152472754D03*
X80193020Y-151822754D03*
X80193020Y-151172754D03*
X80193020Y-150522754D03*
X80193020Y-149872754D03*
D15*
X112141000Y-157228135D03*
D26*
X295163000Y-134871135D03*
X295163000Y-132331135D03*
X295163000Y-129791135D03*
X295163000Y-127251135D03*
X295163000Y-124711135D03*
X287543000Y-124711135D03*
X287543000Y-127251135D03*
X287543000Y-129791135D03*
X287543000Y-132331135D03*
X287543000Y-134871135D03*
D27*
X160020000Y-71120000D03*
D28*
X160020000Y-73660000D03*
X160020000Y-76200000D03*
X160020000Y-78740000D03*
X160020000Y-81280000D03*
X160020000Y-83820000D03*
X160020000Y-86360000D03*
X160020000Y-88900000D03*
D15*
X144926480Y-194883980D03*
D27*
X163530000Y-206432500D03*
D57*
X161030000Y-206432500D03*
X161030000Y-208432500D03*
X163530000Y-208432500D03*
D58*
X168300000Y-211142500D03*
X156260000Y-211142500D03*
D15*
X302387000Y-99837775D03*
D26*
X280693300Y-154231655D03*
X280693300Y-151691655D03*
X280693300Y-149151655D03*
X280693300Y-146611655D03*
X280693300Y-144071655D03*
X273073300Y-144071655D03*
X273073300Y-146611655D03*
X273073300Y-149151655D03*
X273073300Y-151691655D03*
X273073300Y-154231655D03*
D59*
X17881600Y-139322600D03*
X17881600Y-117322600D03*
D26*
X266207000Y-173479135D03*
X266207000Y-170939135D03*
X266207000Y-168399135D03*
X266207000Y-165859135D03*
X266207000Y-163319135D03*
X258587000Y-163319135D03*
X258587000Y-165859135D03*
X258587000Y-168399135D03*
X258587000Y-170939135D03*
X258587000Y-173479135D03*
D33*
X75279000Y-116719135D03*
X77004000Y-116719135D03*
D30*
X56515000Y-84250135D03*
X56515000Y-82425135D03*
D15*
X287604200Y-158294935D03*
D26*
X259334000Y-76416855D03*
X259334000Y-73876855D03*
X259334000Y-71336855D03*
X259334000Y-68796855D03*
X259334000Y-66256855D03*
X251714000Y-66256855D03*
X251714000Y-68796855D03*
X251714000Y-71336855D03*
X251714000Y-73876855D03*
X251714000Y-76416855D03*
X230378000Y-76359135D03*
X230378000Y-73819135D03*
X230378000Y-71279135D03*
X230378000Y-68739135D03*
X230378000Y-66199135D03*
X222758000Y-66199135D03*
X222758000Y-68739135D03*
X222758000Y-71279135D03*
X222758000Y-73819135D03*
X222758000Y-76359135D03*
D15*
X223189800Y-80607695D03*
X215366600Y-157883055D03*
D60*
X381130000Y-203030000D03*
X383670000Y-203030000D03*
D61*
X376050000Y-208110000D03*
X386210000Y-208110000D03*
D27*
X83949000Y-83949135D03*
D28*
X83949000Y-86489135D03*
X83949000Y-89029135D03*
X83949000Y-91569135D03*
X83949000Y-94109135D03*
X83949000Y-96649135D03*
X83949000Y-99189135D03*
X83949000Y-101729135D03*
X83949000Y-104269135D03*
X83949000Y-106809135D03*
D30*
X54991000Y-73431635D03*
X54991000Y-71606635D03*
D26*
X266207000Y-154099175D03*
X266207000Y-151559175D03*
X266207000Y-149019175D03*
X266207000Y-146479175D03*
X266207000Y-143939175D03*
X258587000Y-143939175D03*
X258587000Y-146479175D03*
X258587000Y-149019175D03*
X258587000Y-151559175D03*
X258587000Y-154099175D03*
D15*
X355981000Y-98552000D03*
D26*
X259334000Y-95765615D03*
X259334000Y-93225615D03*
X259334000Y-90685615D03*
X259334000Y-88145615D03*
X259334000Y-85605615D03*
X251714000Y-85605615D03*
X251714000Y-88145615D03*
X251714000Y-90685615D03*
X251714000Y-93225615D03*
X251714000Y-95765615D03*
D15*
X203708000Y-73535135D03*
X215646000Y-178379415D03*
D62*
X410973000Y-26799135D03*
D63*
X413513000Y-26799135D03*
D15*
X273481800Y-80468935D03*
D32*
X28900400Y-79740285D03*
X26900400Y-79740285D03*
D27*
X71039000Y-141182635D03*
D28*
X71039000Y-143722635D03*
X71039000Y-146262635D03*
X71039000Y-148802635D03*
X71039000Y-151342635D03*
X71039000Y-153882635D03*
X71039000Y-156422635D03*
X71039000Y-158962635D03*
X71039000Y-161502635D03*
X71039000Y-164042635D03*
D15*
X223367600Y-138787735D03*
D26*
X280670000Y-95506135D03*
X280670000Y-92966135D03*
X280670000Y-90426135D03*
X280670000Y-87886135D03*
X280670000Y-85346135D03*
X273050000Y-85346135D03*
X273050000Y-87886135D03*
X273050000Y-90426135D03*
X273050000Y-92966135D03*
X273050000Y-95506135D03*
D39*
X16178400Y-149555200D03*
D40*
X18178400Y-149555200D03*
D15*
X37973000Y-94109135D03*
X258775200Y-139137855D03*
D62*
X16632000Y-26799135D03*
D63*
X19172000Y-26799135D03*
D64*
X39150000Y-182680000D03*
D65*
X54390000Y-182680000D03*
D16*
X159033000Y-115044135D03*
X159033000Y-113394135D03*
D15*
X294563800Y-119255135D03*
D60*
X355470000Y-202880000D03*
X358010000Y-202880000D03*
D61*
X350390000Y-207960000D03*
X360550000Y-207960000D03*
D16*
X159063000Y-107144135D03*
X159063000Y-105494135D03*
D24*
X110030000Y-193410000D03*
D25*
X110030000Y-203570000D03*
D21*
X160453022Y-109351135D03*
X160453022Y-111251135D03*
X162853022Y-110301135D03*
D15*
X294335200Y-158294935D03*
D24*
X61400000Y-173120000D03*
D25*
X61400000Y-162960000D03*
D16*
X159033000Y-134074135D03*
X159033000Y-132424135D03*
D15*
X273304000Y-99705295D03*
D16*
X159273000Y-157024135D03*
X159273000Y-155374135D03*
D24*
X104188000Y-193537000D03*
D25*
X104188000Y-203697000D03*
D15*
X309118000Y-99837775D03*
D62*
X24252000Y-26799135D03*
D63*
X26792000Y-26799135D03*
D66*
X42320000Y-212660000D03*
X37920000Y-212660000D03*
D17*
X37170000Y-198760000D03*
D18*
X37170000Y-201260000D03*
X43070000Y-198760000D03*
X43070000Y-201260000D03*
D60*
X330040000Y-203020000D03*
X332580000Y-203020000D03*
D61*
X324960000Y-208100000D03*
X335120000Y-208100000D03*
D15*
X280593800Y-80468935D03*
X55499000Y-93855135D03*
X273380200Y-139270335D03*
X48133000Y-94109135D03*
D67*
X43942000Y-28300000D03*
X36452000Y-28300000D03*
X36452000Y-33300000D03*
X43942000Y-33300000D03*
D15*
X358013000Y-101854000D03*
D39*
X370967000Y-114300000D03*
D40*
X372967000Y-114300000D03*
D16*
X159043000Y-138294135D03*
X159043000Y-136644135D03*
D26*
X295156300Y-76220375D03*
X295156300Y-73680375D03*
X295156300Y-71140375D03*
X295156300Y-68600375D03*
X295156300Y-66060375D03*
X287536300Y-66060375D03*
X287536300Y-68600375D03*
X287536300Y-71140375D03*
X287536300Y-73680375D03*
X287536300Y-76220375D03*
D15*
X244271800Y-119393895D03*
D16*
X164253000Y-119234135D03*
X164253000Y-117584135D03*
D27*
X71061500Y-112406135D03*
D28*
X71061500Y-114946135D03*
X71061500Y-117486135D03*
X71061500Y-120026135D03*
X71061500Y-122566135D03*
X71061500Y-125106135D03*
X71061500Y-127646135D03*
X71061500Y-130186135D03*
X71061500Y-132726135D03*
X71061500Y-135266135D03*
D38*
X178663600Y-141224000D03*
D15*
X19660000Y-215030000D03*
D68*
X19660000Y-205780000D03*
D69*
X19660000Y-211780000D03*
D70*
X14910000Y-212280000D03*
X24410000Y-212280000D03*
X14910000Y-207580000D03*
X24410000Y-207580000D03*
D15*
X22250400Y-145008600D03*
D33*
X83530982Y-202418000D03*
X85255982Y-202418000D03*
D24*
X62357000Y-46484135D03*
D25*
X62357000Y-36324135D03*
D45*
X22580600Y-175564800D03*
D46*
X28580600Y-173564800D03*
X28580600Y-161364800D03*
X16580600Y-161364800D03*
X16580600Y-173564800D03*
D49*
X384537400Y-102053400D03*
D50*
X384237400Y-99023400D03*
X379387400Y-99023400D03*
D49*
X379087400Y-102053400D03*
D28*
X390702400Y-102183400D03*
D51*
X391602400Y-102183400D03*
D28*
X390702400Y-99643400D03*
D51*
X391602400Y-99643400D03*
D27*
X390702400Y-97103400D03*
D51*
X391602400Y-97103400D03*
D28*
X390702400Y-94563400D03*
D51*
X391602400Y-94563400D03*
D28*
X390702400Y-92023400D03*
D51*
X391602400Y-92023400D03*
D28*
X390702400Y-89483400D03*
D51*
X391602400Y-89483400D03*
D28*
X390702400Y-86943400D03*
D51*
X391602400Y-86943400D03*
D27*
X390702400Y-84403400D03*
D51*
X391602400Y-84403400D03*
D28*
X390702400Y-81863400D03*
D51*
X391602400Y-81863400D03*
D28*
X390702400Y-79323400D03*
D51*
X391602400Y-79323400D03*
D28*
X390702400Y-76783400D03*
D51*
X391602400Y-76783400D03*
D28*
X390702400Y-74243400D03*
D51*
X391602400Y-74243400D03*
D27*
X390702400Y-71703400D03*
D51*
X391602400Y-71703400D03*
D28*
X390702400Y-69163400D03*
D51*
X391602400Y-69163400D03*
D28*
X390702400Y-66623400D03*
D51*
X391602400Y-66623400D03*
D28*
X390702400Y-64083400D03*
D51*
X391602400Y-64083400D03*
D28*
X390702400Y-61543400D03*
D51*
X391602400Y-61543400D03*
D27*
X390702400Y-59003400D03*
D51*
X391602400Y-59003400D03*
D28*
X390702400Y-56463400D03*
D51*
X391602400Y-56463400D03*
D28*
X390702400Y-53923400D03*
D51*
X391602400Y-53923400D03*
D28*
X372922400Y-53923400D03*
D51*
X372022400Y-53923400D03*
D28*
X372922400Y-56463400D03*
D51*
X372022400Y-56463400D03*
D27*
X372922400Y-59003400D03*
D51*
X372022400Y-59003400D03*
D28*
X372922400Y-61543400D03*
D51*
X372022400Y-61543400D03*
D28*
X372922400Y-64083400D03*
D51*
X372022400Y-64083400D03*
D28*
X372922400Y-66623400D03*
D51*
X372022400Y-66623400D03*
D28*
X372922400Y-69163400D03*
D51*
X372022400Y-69163400D03*
D27*
X372922400Y-71703400D03*
D51*
X372022400Y-71703400D03*
D28*
X372922400Y-74243400D03*
D51*
X372022400Y-74243400D03*
D28*
X372922400Y-76783400D03*
D51*
X372022400Y-76783400D03*
D28*
X372922400Y-79323400D03*
D51*
X372022400Y-79323400D03*
D28*
X372922400Y-81863400D03*
D51*
X372022400Y-81863400D03*
D27*
X372922400Y-84403400D03*
D51*
X372022400Y-84403400D03*
D28*
X372922400Y-86943400D03*
D51*
X372022400Y-86943400D03*
D28*
X372922400Y-89483400D03*
D51*
X372022400Y-89483400D03*
D28*
X372922400Y-92023400D03*
D51*
X372022400Y-92023400D03*
D28*
X372922400Y-94563400D03*
D51*
X372022400Y-94563400D03*
D27*
X372922400Y-97103400D03*
D51*
X372022400Y-97103400D03*
D28*
X372922400Y-99643400D03*
D51*
X372022400Y-99643400D03*
D28*
X372922400Y-102183400D03*
D51*
X372022400Y-102183400D03*
D28*
X384352400Y-54153400D03*
D52*
X384352400Y-53253400D03*
D27*
X381812400Y-54153400D03*
D52*
X381812400Y-53253400D03*
D28*
X379272400Y-54153400D03*
D52*
X379272400Y-53253400D03*
D15*
X237109000Y-99976535D03*
X112460000Y-57930000D03*
X258826000Y-99976535D03*
X65253482Y-207528000D03*
X172168278Y-124940880D03*
X387451600Y-45618400D03*
X208762600Y-138655255D03*
D21*
X160618278Y-155423880D03*
X160618278Y-157323880D03*
X163018278Y-156373880D03*
D24*
X21259800Y-97586800D03*
D25*
X21259800Y-107746800D03*
D15*
X403479000Y-113538000D03*
X237718600Y-138782655D03*
X315770000Y-37490000D03*
D27*
X156451778Y-125258880D03*
D28*
X156451778Y-127798880D03*
X156451778Y-130338880D03*
X156451778Y-132878880D03*
X156451778Y-135418880D03*
X156451778Y-137958880D03*
D37*
X80635000Y-177411135D03*
D25*
X80635000Y-174871135D03*
X80635000Y-172331135D03*
X80635000Y-169791135D03*
X73015000Y-169791135D03*
X73015000Y-172331135D03*
X73015000Y-174871135D03*
X73015000Y-177411135D03*
D71*
X206930000Y-211420000D03*
D72*
X212010000Y-211420000D03*
X217090000Y-211420000D03*
X222170000Y-211420000D03*
D33*
X75845500Y-88267135D03*
X77570500Y-88267135D03*
D15*
X120660000Y-188920000D03*
D73*
X211963000Y-107190135D03*
D74*
X209423000Y-107190135D03*
X199263000Y-107190135D03*
X194183000Y-107190135D03*
D26*
X266207000Y-134813415D03*
X266207000Y-132273415D03*
X266207000Y-129733415D03*
X266207000Y-127193415D03*
X266207000Y-124653415D03*
X258587000Y-124653415D03*
X258587000Y-127193415D03*
X258587000Y-129733415D03*
X258587000Y-132273415D03*
X258587000Y-134813415D03*
D15*
X43053000Y-94109135D03*
X140550480Y-188637980D03*
D27*
X166860022Y-106237135D03*
D28*
X166860022Y-108777135D03*
X166860022Y-111317135D03*
X166860022Y-113857135D03*
X166860022Y-116397135D03*
X166860022Y-118937135D03*
D38*
X93167200Y-171577000D03*
D15*
X229870000Y-178511895D03*
D26*
X244864300Y-76359135D03*
X244864300Y-73819135D03*
X244864300Y-71279135D03*
X244864300Y-68739135D03*
X244864300Y-66199135D03*
X237244300Y-66199135D03*
X237244300Y-68739135D03*
X237244300Y-71279135D03*
X237244300Y-73819135D03*
X237244300Y-76359135D03*
D27*
X83761500Y-112401135D03*
D28*
X83761500Y-114941135D03*
X83761500Y-117481135D03*
X83761500Y-120021135D03*
X83761500Y-122561135D03*
X83761500Y-125101135D03*
X83761500Y-127641135D03*
X83761500Y-130181135D03*
X83761500Y-132721135D03*
X83761500Y-135261135D03*
D44*
X164243000Y-109504135D03*
X164243000Y-111154135D03*
D24*
X17856200Y-97586800D03*
D25*
X17856200Y-107746800D03*
D15*
X65740000Y-117650000D03*
D49*
X401657000Y-168576000D03*
D50*
X401357000Y-165546000D03*
X396507000Y-165546000D03*
D49*
X396207000Y-168576000D03*
D28*
X407822000Y-168706000D03*
D51*
X408722000Y-168706000D03*
D28*
X407822000Y-166166000D03*
D51*
X408722000Y-166166000D03*
D27*
X407822000Y-163626000D03*
D51*
X408722000Y-163626000D03*
D28*
X407822000Y-161086000D03*
D51*
X408722000Y-161086000D03*
D28*
X407822000Y-158546000D03*
D51*
X408722000Y-158546000D03*
D28*
X407822000Y-156006000D03*
D51*
X408722000Y-156006000D03*
D28*
X407822000Y-153466000D03*
D51*
X408722000Y-153466000D03*
D27*
X407822000Y-150926000D03*
D51*
X408722000Y-150926000D03*
D28*
X407822000Y-148386000D03*
D51*
X408722000Y-148386000D03*
D28*
X407822000Y-145846000D03*
D51*
X408722000Y-145846000D03*
D28*
X407822000Y-143306000D03*
D51*
X408722000Y-143306000D03*
D28*
X407822000Y-140766000D03*
D51*
X408722000Y-140766000D03*
D27*
X407822000Y-138226000D03*
D51*
X408722000Y-138226000D03*
D28*
X407822000Y-135686000D03*
D51*
X408722000Y-135686000D03*
D28*
X407822000Y-133146000D03*
D51*
X408722000Y-133146000D03*
D28*
X407822000Y-130606000D03*
D51*
X408722000Y-130606000D03*
D28*
X407822000Y-128066000D03*
D51*
X408722000Y-128066000D03*
D27*
X407822000Y-125526000D03*
D51*
X408722000Y-125526000D03*
D28*
X407822000Y-122986000D03*
D51*
X408722000Y-122986000D03*
D28*
X407822000Y-120446000D03*
D51*
X408722000Y-120446000D03*
D28*
X390042000Y-120446000D03*
D51*
X389142000Y-120446000D03*
D28*
X390042000Y-122986000D03*
D51*
X389142000Y-122986000D03*
D27*
X390042000Y-125526000D03*
D51*
X389142000Y-125526000D03*
D28*
X390042000Y-128066000D03*
D51*
X389142000Y-128066000D03*
D28*
X390042000Y-130606000D03*
D51*
X389142000Y-130606000D03*
D28*
X390042000Y-133146000D03*
D51*
X389142000Y-133146000D03*
D28*
X390042000Y-135686000D03*
D51*
X389142000Y-135686000D03*
D27*
X390042000Y-138226000D03*
D51*
X389142000Y-138226000D03*
D28*
X390042000Y-140766000D03*
D51*
X389142000Y-140766000D03*
D28*
X390042000Y-143306000D03*
D51*
X389142000Y-143306000D03*
D28*
X390042000Y-145846000D03*
D51*
X389142000Y-145846000D03*
D28*
X390042000Y-148386000D03*
D51*
X389142000Y-148386000D03*
D27*
X390042000Y-150926000D03*
D51*
X389142000Y-150926000D03*
D28*
X390042000Y-153466000D03*
D51*
X389142000Y-153466000D03*
D28*
X390042000Y-156006000D03*
D51*
X389142000Y-156006000D03*
D28*
X390042000Y-158546000D03*
D51*
X389142000Y-158546000D03*
D28*
X390042000Y-161086000D03*
D51*
X389142000Y-161086000D03*
D27*
X390042000Y-163626000D03*
D51*
X389142000Y-163626000D03*
D28*
X390042000Y-166166000D03*
D51*
X389142000Y-166166000D03*
D28*
X390042000Y-168706000D03*
D51*
X389142000Y-168706000D03*
D28*
X401472000Y-120676000D03*
D52*
X401472000Y-119776000D03*
D27*
X398932000Y-120676000D03*
D52*
X398932000Y-119776000D03*
D28*
X396392000Y-120676000D03*
D52*
X396392000Y-119776000D03*
D38*
X230900000Y-191850000D03*
D37*
X87630000Y-44325135D03*
D25*
X87630000Y-51945135D03*
D15*
X309422800Y-80601415D03*
D21*
X160453000Y-105424135D03*
X160453000Y-107324135D03*
X162853000Y-106374135D03*
D24*
X361830000Y-94440000D03*
D25*
X361830000Y-84280000D03*
D15*
X252145800Y-80735095D03*
D75*
X53220000Y-191403250D03*
X31220000Y-191403250D03*
D27*
X33234400Y-81772285D03*
D28*
X33234400Y-79232285D03*
X33234400Y-76692285D03*
X33234400Y-74152285D03*
X33234400Y-71612285D03*
X33234400Y-69072285D03*
D16*
X159273000Y-144744135D03*
X159273000Y-143094135D03*
D44*
X164353000Y-143134135D03*
X164353000Y-144784135D03*
D22*
X338089000Y-166738135D03*
D23*
X338089000Y-164198135D03*
X338089000Y-161658135D03*
X338089000Y-159118135D03*
X338089000Y-156578135D03*
X338089000Y-154038135D03*
X338089000Y-151498135D03*
X338089000Y-148958135D03*
X330469000Y-148958135D03*
X330469000Y-151498135D03*
X330469000Y-154038135D03*
X330469000Y-156578135D03*
X330469000Y-159118135D03*
X330469000Y-161658135D03*
X330469000Y-164198135D03*
X330469000Y-166738135D03*
D22*
X338470000Y-90411135D03*
D23*
X338470000Y-87871135D03*
X338470000Y-85331135D03*
X338470000Y-82791135D03*
X338470000Y-80251135D03*
X338470000Y-77711135D03*
X338470000Y-75171135D03*
X338470000Y-72631135D03*
X330850000Y-72631135D03*
X330850000Y-75171135D03*
X330850000Y-77711135D03*
X330850000Y-80251135D03*
X330850000Y-82791135D03*
X330850000Y-85331135D03*
X330850000Y-87871135D03*
X330850000Y-90411135D03*
D42*
X29424400Y-71120285D03*
X29424400Y-73120285D03*
D37*
X83566000Y-44325135D03*
D25*
X83566000Y-51945135D03*
D21*
X160458778Y-128372880D03*
X160458778Y-130272880D03*
X162858778Y-129322880D03*
D15*
X370967000Y-151384000D03*
D22*
X338709000Y-115064135D03*
D23*
X338709000Y-112524135D03*
X338709000Y-109984135D03*
X338709000Y-107444135D03*
X338709000Y-104904135D03*
X338709000Y-102364135D03*
X338709000Y-99824135D03*
X338709000Y-97284135D03*
X331089000Y-97284135D03*
X331089000Y-99824135D03*
X331089000Y-102364135D03*
X331089000Y-104904135D03*
X331089000Y-107444135D03*
X331089000Y-109984135D03*
X331089000Y-112524135D03*
X331089000Y-115064135D03*
D37*
X99560000Y-193500000D03*
D25*
X99560000Y-201120000D03*
D24*
X152400000Y-174080000D03*
D25*
X152400000Y-163920000D03*
D44*
X164363000Y-147154135D03*
X164363000Y-148804135D03*
D15*
X265953000Y-178628415D03*
D48*
X77570500Y-83949135D03*
X75845500Y-83949135D03*
D44*
X164243000Y-105539135D03*
X164243000Y-107189135D03*
D16*
X164353000Y-152994135D03*
X164353000Y-151344135D03*
X159063000Y-111194135D03*
X159063000Y-109544135D03*
D15*
X265887200Y-139137855D03*
X244348000Y-99976535D03*
D22*
X338216000Y-140957135D03*
D23*
X338216000Y-138417135D03*
X338216000Y-135877135D03*
X338216000Y-133337135D03*
X338216000Y-130797135D03*
X338216000Y-128257135D03*
X338216000Y-125717135D03*
X338216000Y-123177135D03*
X330596000Y-123177135D03*
X330596000Y-125717135D03*
X330596000Y-128257135D03*
X330596000Y-130797135D03*
X330596000Y-133337135D03*
X330596000Y-135877135D03*
X330596000Y-138417135D03*
X330596000Y-140957135D03*
D15*
X382625600Y-45618400D03*
D26*
X295156300Y-115056855D03*
X295156300Y-112516855D03*
X295156300Y-109976855D03*
X295156300Y-107436855D03*
X295156300Y-104896855D03*
X287536300Y-104896855D03*
X287536300Y-107436855D03*
X287536300Y-109976855D03*
X287536300Y-112516855D03*
X287536300Y-115056855D03*
D15*
X287578800Y-119255135D03*
X210185000Y-68455135D03*
D76*
X26508900Y-75717285D03*
X26508900Y-76367285D03*
X26508900Y-77017285D03*
X26508900Y-77667285D03*
X28783900Y-77667285D03*
X28783900Y-77017285D03*
X28783900Y-76367285D03*
X28783900Y-75717285D03*
D26*
X309642600Y-95638615D03*
X309642600Y-93098615D03*
X309642600Y-90558615D03*
X309642600Y-88018615D03*
X309642600Y-85478615D03*
X302022600Y-85478615D03*
X302022600Y-88018615D03*
X302022600Y-90558615D03*
X302022600Y-93098615D03*
X302022600Y-95638615D03*
D15*
X364718600Y-101879400D03*
D16*
X164263000Y-138254135D03*
X164263000Y-136604135D03*
D67*
X393877800Y-28300000D03*
X386387800Y-28300000D03*
X386387800Y-33300000D03*
X393877800Y-33300000D03*
D15*
X230479600Y-138787735D03*
X258521200Y-158162455D03*
D42*
X29424400Y-67310285D03*
X29424400Y-69310285D03*
D21*
X160453022Y-113415135D03*
X160453022Y-115315135D03*
X162853022Y-114365135D03*
D15*
X294716200Y-139270335D03*
X116332000Y-65280135D03*
X302641000Y-51818135D03*
D27*
X156738278Y-143927880D03*
D28*
X156738278Y-146467880D03*
X156738278Y-149007880D03*
X156738278Y-151547880D03*
X156738278Y-154087880D03*
X156738278Y-156627880D03*
D77*
X175885000Y-169801135D03*
D78*
X168285000Y-169801135D03*
D27*
X59430000Y-177470000D03*
D28*
X59430000Y-180010000D03*
X59430000Y-182550000D03*
D15*
X223012000Y-99844055D03*
D26*
X295179600Y-173649895D03*
X295179600Y-171109895D03*
X295179600Y-168569895D03*
X295179600Y-166029895D03*
X295179600Y-163489895D03*
X287559600Y-163489895D03*
X287559600Y-166029895D03*
X287559600Y-168569895D03*
X287559600Y-171109895D03*
X287559600Y-173649895D03*
D21*
X160453022Y-117479135D03*
X160453022Y-119379135D03*
X162853022Y-118429135D03*
D26*
X280670000Y-76220375D03*
X280670000Y-73680375D03*
X280670000Y-71140375D03*
X280670000Y-68600375D03*
X280670000Y-66060375D03*
X273050000Y-66060375D03*
X273050000Y-68600375D03*
X273050000Y-71140375D03*
X273050000Y-73680375D03*
X273050000Y-76220375D03*
D15*
X68290000Y-55100000D03*
X276275800Y-177675135D03*
D26*
X309642600Y-115056855D03*
X309642600Y-112516855D03*
X309642600Y-109976855D03*
X309642600Y-107436855D03*
X309642600Y-104896855D03*
X302022600Y-104896855D03*
X302022600Y-107436855D03*
X302022600Y-109976855D03*
X302022600Y-112516855D03*
X302022600Y-115056855D03*
D24*
X203600000Y-114120000D03*
D25*
X203600000Y-124280000D03*
D15*
X372999000Y-160274000D03*
X280593800Y-119122655D03*
D31*
X74549000Y-121414135D03*
X74549000Y-122064135D03*
X74549000Y-122714135D03*
X74549000Y-123364135D03*
X74549000Y-124014135D03*
X74549000Y-124664135D03*
X74549000Y-125314135D03*
X74549000Y-125964135D03*
X74549000Y-126614135D03*
X74549000Y-127264135D03*
X80274000Y-127264135D03*
X80274000Y-126614135D03*
X80274000Y-125964135D03*
X80274000Y-125314135D03*
X80274000Y-124664135D03*
X80274000Y-124014135D03*
X80274000Y-123364135D03*
X80274000Y-122714135D03*
X80274000Y-122064135D03*
X80274000Y-121414135D03*
D42*
X25868400Y-71120285D03*
X25868400Y-73120285D03*
D15*
X140804480Y-192955980D03*
D48*
X67295982Y-198708000D03*
X65570982Y-198708000D03*
D15*
X287401000Y-99837775D03*
X294640000Y-99837775D03*
X259130800Y-80740175D03*
D24*
X361696000Y-27307135D03*
D25*
X361696000Y-37467135D03*
D39*
X372491000Y-176151135D03*
D40*
X370491000Y-176151135D03*
D15*
X230301800Y-80607695D03*
D60*
X406220000Y-202970000D03*
X408760000Y-202970000D03*
D61*
X401140000Y-208050000D03*
X411300000Y-208050000D03*
D15*
X272618200Y-177675135D03*
D27*
X78943000Y-195363669D03*
D28*
X76403000Y-195363669D03*
X73863000Y-195363669D03*
X71323000Y-195363669D03*
D15*
X244322600Y-158015535D03*
D49*
X128444944Y-155145879D03*
D50*
X128144944Y-152115879D03*
X123294944Y-152115879D03*
D49*
X122994944Y-155145879D03*
D28*
X134609944Y-155275879D03*
D51*
X135509944Y-155275879D03*
D28*
X134609944Y-152735879D03*
D51*
X135509944Y-152735879D03*
D27*
X134609944Y-150195879D03*
D51*
X135509944Y-150195879D03*
D28*
X134609944Y-147655879D03*
D51*
X135509944Y-147655879D03*
D28*
X134609944Y-145115879D03*
D51*
X135509944Y-145115879D03*
D28*
X134609944Y-142575879D03*
D51*
X135509944Y-142575879D03*
D28*
X134609944Y-140035879D03*
D51*
X135509944Y-140035879D03*
D27*
X134609944Y-137495879D03*
D51*
X135509944Y-137495879D03*
D28*
X134609944Y-134955879D03*
D51*
X135509944Y-134955879D03*
D28*
X134609944Y-132415879D03*
D51*
X135509944Y-132415879D03*
D28*
X134609944Y-129875879D03*
D51*
X135509944Y-129875879D03*
D28*
X134609944Y-127335879D03*
D51*
X135509944Y-127335879D03*
D27*
X134609944Y-124795879D03*
D51*
X135509944Y-124795879D03*
D28*
X134609944Y-122255879D03*
D51*
X135509944Y-122255879D03*
D28*
X134609944Y-119715879D03*
D51*
X135509944Y-119715879D03*
D28*
X134609944Y-117175879D03*
D51*
X135509944Y-117175879D03*
D28*
X134609944Y-114635879D03*
D51*
X135509944Y-114635879D03*
D27*
X134609944Y-112095879D03*
D51*
X135509944Y-112095879D03*
D28*
X134609944Y-109555879D03*
D51*
X135509944Y-109555879D03*
D28*
X134609944Y-107015879D03*
D51*
X135509944Y-107015879D03*
D28*
X116829944Y-107015879D03*
D51*
X115929944Y-107015879D03*
D28*
X116829944Y-109555879D03*
D51*
X115929944Y-109555879D03*
D27*
X116829944Y-112095879D03*
D51*
X115929944Y-112095879D03*
D28*
X116829944Y-114635879D03*
D51*
X115929944Y-114635879D03*
D28*
X116829944Y-117175879D03*
D51*
X115929944Y-117175879D03*
D28*
X116829944Y-119715879D03*
D51*
X115929944Y-119715879D03*
D28*
X116829944Y-122255879D03*
D51*
X115929944Y-122255879D03*
D27*
X116829944Y-124795879D03*
D51*
X115929944Y-124795879D03*
D28*
X116829944Y-127335879D03*
D51*
X115929944Y-127335879D03*
D28*
X116829944Y-129875879D03*
D51*
X115929944Y-129875879D03*
D28*
X116829944Y-132415879D03*
D51*
X115929944Y-132415879D03*
D28*
X116829944Y-134955879D03*
D51*
X115929944Y-134955879D03*
D27*
X116829944Y-137495879D03*
D51*
X115929944Y-137495879D03*
D28*
X116829944Y-140035879D03*
D51*
X115929944Y-140035879D03*
D28*
X116829944Y-142575879D03*
D51*
X115929944Y-142575879D03*
D28*
X116829944Y-145115879D03*
D51*
X115929944Y-145115879D03*
D28*
X116829944Y-147655879D03*
D51*
X115929944Y-147655879D03*
D27*
X116829944Y-150195879D03*
D51*
X115929944Y-150195879D03*
D28*
X116829944Y-152735879D03*
D51*
X115929944Y-152735879D03*
D28*
X116829944Y-155275879D03*
D51*
X115929944Y-155275879D03*
D28*
X128259944Y-107245879D03*
D52*
X128259944Y-106345879D03*
D27*
X125719944Y-107245879D03*
D52*
X125719944Y-106345879D03*
D28*
X123179944Y-107245879D03*
D52*
X123179944Y-106345879D03*
D15*
X67140000Y-191180000D03*
X287731200Y-139265255D03*
D26*
X230378000Y-114972615D03*
X230378000Y-112432615D03*
X230378000Y-109892615D03*
X230378000Y-107352615D03*
X230378000Y-104812615D03*
X222758000Y-104812615D03*
X222758000Y-107352615D03*
X222758000Y-109892615D03*
X222758000Y-112432615D03*
X222758000Y-114972615D03*
D15*
X258841000Y-178755415D03*
X399288000Y-113538000D03*
X237591600Y-158015535D03*
D16*
X164233000Y-134064135D03*
X164233000Y-132414135D03*
D26*
X244856000Y-153970895D03*
X244856000Y-151430895D03*
X244856000Y-148890895D03*
X244856000Y-146350895D03*
X244856000Y-143810895D03*
X237236000Y-143810895D03*
X237236000Y-146350895D03*
X237236000Y-148890895D03*
X237236000Y-151430895D03*
X237236000Y-153970895D03*
D11*
X225018600Y-14632535D02*
X225196400Y-14708735D01*
X24936607Y-32280219D02*
X24603274Y-31804028D01*
X24365179Y-32280219D02*
X24365179Y-31280219D01*
X24365179Y-31280219D02*
X24746131Y-31280219D01*
X24746131Y-31280219D02*
X24841369Y-31327838D01*
X24841369Y-31327838D02*
X24888988Y-31375457D01*
X24888988Y-31375457D02*
X24936607Y-31470695D01*
X24936607Y-31470695D02*
X24936607Y-31613552D01*
X24936607Y-31613552D02*
X24888988Y-31708790D01*
X24888988Y-31708790D02*
X24841369Y-31756409D01*
X24841369Y-31756409D02*
X24746131Y-31804028D01*
X24746131Y-31804028D02*
X24365179Y-31804028D01*
X25365179Y-31756409D02*
X25698512Y-31756409D01*
X25841369Y-32280219D02*
X25365179Y-32280219D01*
X25365179Y-32280219D02*
X25365179Y-31280219D01*
X25365179Y-31280219D02*
X25841369Y-31280219D01*
X26269941Y-32280219D02*
X26269941Y-31280219D01*
X26269941Y-31280219D02*
X26508036Y-31280219D01*
X26508036Y-31280219D02*
X26650893Y-31327838D01*
X26650893Y-31327838D02*
X26746131Y-31423076D01*
X26746131Y-31423076D02*
X26793750Y-31518314D01*
X26793750Y-31518314D02*
X26841369Y-31708790D01*
X26841369Y-31708790D02*
X26841369Y-31851647D01*
X26841369Y-31851647D02*
X26793750Y-32042123D01*
X26793750Y-32042123D02*
X26746131Y-32137361D01*
X26746131Y-32137361D02*
X26650893Y-32232600D01*
X26650893Y-32232600D02*
X26508036Y-32280219D01*
X26508036Y-32280219D02*
X26269941Y-32280219D01*
X16379988Y-31200838D02*
X16284750Y-31153219D01*
X16284750Y-31153219D02*
X16141893Y-31153219D01*
X16141893Y-31153219D02*
X15999036Y-31200838D01*
X15999036Y-31200838D02*
X15903798Y-31296076D01*
X15903798Y-31296076D02*
X15856179Y-31391314D01*
X15856179Y-31391314D02*
X15808560Y-31581790D01*
X15808560Y-31581790D02*
X15808560Y-31724647D01*
X15808560Y-31724647D02*
X15856179Y-31915123D01*
X15856179Y-31915123D02*
X15903798Y-32010361D01*
X15903798Y-32010361D02*
X15999036Y-32105600D01*
X15999036Y-32105600D02*
X16141893Y-32153219D01*
X16141893Y-32153219D02*
X16237131Y-32153219D01*
X16237131Y-32153219D02*
X16379988Y-32105600D01*
X16379988Y-32105600D02*
X16427607Y-32057980D01*
X16427607Y-32057980D02*
X16427607Y-31724647D01*
X16427607Y-31724647D02*
X16237131Y-31724647D01*
X17427607Y-32153219D02*
X17094274Y-31677028D01*
X16856179Y-32153219D02*
X16856179Y-31153219D01*
X16856179Y-31153219D02*
X17237131Y-31153219D01*
X17237131Y-31153219D02*
X17332369Y-31200838D01*
X17332369Y-31200838D02*
X17379988Y-31248457D01*
X17379988Y-31248457D02*
X17427607Y-31343695D01*
X17427607Y-31343695D02*
X17427607Y-31486552D01*
X17427607Y-31486552D02*
X17379988Y-31581790D01*
X17379988Y-31581790D02*
X17332369Y-31629409D01*
X17332369Y-31629409D02*
X17237131Y-31677028D01*
X17237131Y-31677028D02*
X16856179Y-31677028D01*
X17856179Y-31629409D02*
X18189512Y-31629409D01*
X18332369Y-32153219D02*
X17856179Y-32153219D01*
X17856179Y-32153219D02*
X17856179Y-31153219D01*
X17856179Y-31153219D02*
X18332369Y-31153219D01*
X18760941Y-31629409D02*
X19094274Y-31629409D01*
X19237131Y-32153219D02*
X18760941Y-32153219D01*
X18760941Y-32153219D02*
X18760941Y-31153219D01*
X18760941Y-31153219D02*
X19237131Y-31153219D01*
X19665703Y-32153219D02*
X19665703Y-31153219D01*
X19665703Y-31153219D02*
X20237131Y-32153219D01*
X20237131Y-32153219D02*
X20237131Y-31153219D01*
X410359388Y-31073838D02*
X410264150Y-31026219D01*
X410264150Y-31026219D02*
X410121293Y-31026219D01*
X410121293Y-31026219D02*
X409978436Y-31073838D01*
X409978436Y-31073838D02*
X409883198Y-31169076D01*
X409883198Y-31169076D02*
X409835579Y-31264314D01*
X409835579Y-31264314D02*
X409787960Y-31454790D01*
X409787960Y-31454790D02*
X409787960Y-31597647D01*
X409787960Y-31597647D02*
X409835579Y-31788123D01*
X409835579Y-31788123D02*
X409883198Y-31883361D01*
X409883198Y-31883361D02*
X409978436Y-31978600D01*
X409978436Y-31978600D02*
X410121293Y-32026219D01*
X410121293Y-32026219D02*
X410216531Y-32026219D01*
X410216531Y-32026219D02*
X410359388Y-31978600D01*
X410359388Y-31978600D02*
X410407007Y-31930980D01*
X410407007Y-31930980D02*
X410407007Y-31597647D01*
X410407007Y-31597647D02*
X410216531Y-31597647D01*
X411407007Y-32026219D02*
X411073674Y-31550028D01*
X410835579Y-32026219D02*
X410835579Y-31026219D01*
X410835579Y-31026219D02*
X411216531Y-31026219D01*
X411216531Y-31026219D02*
X411311769Y-31073838D01*
X411311769Y-31073838D02*
X411359388Y-31121457D01*
X411359388Y-31121457D02*
X411407007Y-31216695D01*
X411407007Y-31216695D02*
X411407007Y-31359552D01*
X411407007Y-31359552D02*
X411359388Y-31454790D01*
X411359388Y-31454790D02*
X411311769Y-31502409D01*
X411311769Y-31502409D02*
X411216531Y-31550028D01*
X411216531Y-31550028D02*
X410835579Y-31550028D01*
X411835579Y-31502409D02*
X412168912Y-31502409D01*
X412311769Y-32026219D02*
X411835579Y-32026219D01*
X411835579Y-32026219D02*
X411835579Y-31026219D01*
X411835579Y-31026219D02*
X412311769Y-31026219D01*
X412740341Y-31502409D02*
X413073674Y-31502409D01*
X413216531Y-32026219D02*
X412740341Y-32026219D01*
X412740341Y-32026219D02*
X412740341Y-31026219D01*
X412740341Y-31026219D02*
X413216531Y-31026219D01*
X413645103Y-32026219D02*
X413645103Y-31026219D01*
X413645103Y-31026219D02*
X414216531Y-32026219D01*
X414216531Y-32026219D02*
X414216531Y-31026219D01*
D10*
X47767200Y-143511135D02*
X45767200Y-143511135D01*
X45767200Y-141511135D01*
X47767200Y-141511135D01*
X47767200Y-143511135D01*
G36*
X47767200Y-143511135D02*
G01*
X45767200Y-143511135D01*
X45767200Y-141511135D01*
X47767200Y-141511135D01*
X47767200Y-143511135D01*
G37*
X47767200Y-141011135D02*
X45767200Y-141011135D01*
X45767200Y-139011135D01*
X47767200Y-139011135D01*
X47767200Y-141011135D01*
G36*
X47767200Y-141011135D02*
G01*
X45767200Y-141011135D01*
X45767200Y-139011135D01*
X47767200Y-139011135D01*
X47767200Y-141011135D01*
G37*
X47767200Y-138511135D02*
X45767200Y-138511135D01*
X45767200Y-136511135D01*
X47767200Y-136511135D01*
X47767200Y-138511135D01*
G36*
X47767200Y-138511135D02*
G01*
X45767200Y-138511135D01*
X45767200Y-136511135D01*
X47767200Y-136511135D01*
X47767200Y-138511135D01*
G37*
X47967200Y-149911135D02*
X40567200Y-149911135D01*
X40567200Y-145211135D01*
X47967200Y-145211135D01*
X47967200Y-149911135D01*
G36*
X47967200Y-149911135D02*
G01*
X40567200Y-149911135D01*
X40567200Y-145211135D01*
X47967200Y-145211135D01*
X47967200Y-149911135D01*
G37*
X385312400Y-96553400D02*
X383312400Y-96553400D01*
X383312400Y-94553400D01*
X385312400Y-94553400D01*
X385312400Y-96553400D01*
G36*
X385312400Y-96553400D02*
G01*
X383312400Y-96553400D01*
X383312400Y-94553400D01*
X385312400Y-94553400D01*
X385312400Y-96553400D01*
G37*
X385312400Y-94053400D02*
X383312400Y-94053400D01*
X383312400Y-92053400D01*
X385312400Y-92053400D01*
X385312400Y-94053400D01*
G36*
X385312400Y-94053400D02*
G01*
X383312400Y-94053400D01*
X383312400Y-92053400D01*
X385312400Y-92053400D01*
X385312400Y-94053400D01*
G37*
X385312400Y-91553400D02*
X383312400Y-91553400D01*
X383312400Y-89553400D01*
X385312400Y-89553400D01*
X385312400Y-91553400D01*
G36*
X385312400Y-91553400D02*
G01*
X383312400Y-91553400D01*
X383312400Y-89553400D01*
X385312400Y-89553400D01*
X385312400Y-91553400D01*
G37*
X385512400Y-102953400D02*
X378112400Y-102953400D01*
X378112400Y-98253400D01*
X385512400Y-98253400D01*
X385512400Y-102953400D01*
G36*
X385512400Y-102953400D02*
G01*
X378112400Y-102953400D01*
X378112400Y-98253400D01*
X385512400Y-98253400D01*
X385512400Y-102953400D01*
G37*
X402432000Y-163076000D02*
X400432000Y-163076000D01*
X400432000Y-161076000D01*
X402432000Y-161076000D01*
X402432000Y-163076000D01*
G36*
X402432000Y-163076000D02*
G01*
X400432000Y-163076000D01*
X400432000Y-161076000D01*
X402432000Y-161076000D01*
X402432000Y-163076000D01*
G37*
X402432000Y-160576000D02*
X400432000Y-160576000D01*
X400432000Y-158576000D01*
X402432000Y-158576000D01*
X402432000Y-160576000D01*
G36*
X402432000Y-160576000D02*
G01*
X400432000Y-160576000D01*
X400432000Y-158576000D01*
X402432000Y-158576000D01*
X402432000Y-160576000D01*
G37*
X402432000Y-158076000D02*
X400432000Y-158076000D01*
X400432000Y-156076000D01*
X402432000Y-156076000D01*
X402432000Y-158076000D01*
G36*
X402432000Y-158076000D02*
G01*
X400432000Y-158076000D01*
X400432000Y-156076000D01*
X402432000Y-156076000D01*
X402432000Y-158076000D01*
G37*
X402632000Y-169476000D02*
X395232000Y-169476000D01*
X395232000Y-164776000D01*
X402632000Y-164776000D01*
X402632000Y-169476000D01*
G36*
X402632000Y-169476000D02*
G01*
X395232000Y-169476000D01*
X395232000Y-164776000D01*
X402632000Y-164776000D01*
X402632000Y-169476000D01*
G37*
X129219944Y-149645879D02*
X127219944Y-149645879D01*
X127219944Y-147645879D01*
X129219944Y-147645879D01*
X129219944Y-149645879D01*
G36*
X129219944Y-149645879D02*
G01*
X127219944Y-149645879D01*
X127219944Y-147645879D01*
X129219944Y-147645879D01*
X129219944Y-149645879D01*
G37*
X129219944Y-147145879D02*
X127219944Y-147145879D01*
X127219944Y-145145879D01*
X129219944Y-145145879D01*
X129219944Y-147145879D01*
G36*
X129219944Y-147145879D02*
G01*
X127219944Y-147145879D01*
X127219944Y-145145879D01*
X129219944Y-145145879D01*
X129219944Y-147145879D01*
G37*
X129219944Y-144645879D02*
X127219944Y-144645879D01*
X127219944Y-142645879D01*
X129219944Y-142645879D01*
X129219944Y-144645879D01*
G36*
X129219944Y-144645879D02*
G01*
X127219944Y-144645879D01*
X127219944Y-142645879D01*
X129219944Y-142645879D01*
X129219944Y-144645879D01*
G37*
X129419944Y-156045879D02*
X122019944Y-156045879D01*
X122019944Y-151345879D01*
X129419944Y-151345879D01*
X129419944Y-156045879D01*
G36*
X129419944Y-156045879D02*
G01*
X122019944Y-156045879D01*
X122019944Y-151345879D01*
X129419944Y-151345879D01*
X129419944Y-156045879D01*
G37*
D79*
X63773000Y-70894326D02*
G75*
G03*
X63773000Y-70894326I-1100000J0D01*
G01*
X63773000Y-83820000D02*
G75*
G03*
X63773000Y-83820000I-1100000J0D01*
G01*
D80*
X332523355Y-56427000D02*
G75*
G03*
X332523355Y-56427000I-5334000J0D01*
G01*
X12573000Y-216500000D02*
X418973000Y-216500000D01*
X418973000Y-23000000D02*
X12573000Y-23000000D01*
X153045730Y-56200000D02*
G75*
G03*
X153045730Y-56200000I-1100000J0D01*
G01*
X12573000Y-23000000D02*
X12573000Y-216500000D01*
D79*
X87790000Y-190840000D02*
G75*
G03*
X87790000Y-190840000I-1500000J0D01*
G01*
D80*
X280787020Y-56200000D02*
G75*
G03*
X280787020Y-56200000I-1400000J0D01*
G01*
X280789164Y-183634346D02*
G75*
G03*
X280789164Y-183634346I-1400000J0D01*
G01*
X131953000Y-87929135D02*
G75*
G03*
X131953000Y-87929135I-1500000J0D01*
G01*
X109503517Y-183423197D02*
G75*
G03*
X109503517Y-183423197I-5334000J0D01*
G01*
X109507197Y-56432700D02*
G75*
G03*
X109507197Y-56432700I-5334000J0D01*
G01*
D79*
X34678800Y-65379600D02*
G75*
G03*
X34678800Y-65379600I-1100000J0D01*
G01*
D80*
X418973000Y-216500000D02*
X418973000Y-23000000D01*
X408222146Y-56200000D02*
G75*
G03*
X408222146Y-56200000I-1400000J0D01*
G01*
D79*
X17677124Y-65405000D02*
G75*
G03*
X17677124Y-65405000I-1100000J0D01*
G01*
D80*
X25943863Y-56200000D02*
G75*
G03*
X25943863Y-56200000I-1400000J0D01*
G01*
X408170180Y-183634346D02*
G75*
G03*
X408170180Y-183634346I-1400000J0D01*
G01*
D79*
X90443000Y-195363000D02*
G75*
G03*
X90443000Y-195363000I-1500000J0D01*
G01*
X62823000Y-195363000D02*
G75*
G03*
X62823000Y-195363000I-1500000J0D01*
G01*
D80*
X153337271Y-183634346D02*
G75*
G03*
X153337271Y-183634346I-1400000J0D01*
G01*
X25899252Y-183634346D02*
G75*
G03*
X25899252Y-183634346I-1400000J0D01*
G01*
D79*
X34695124Y-85394800D02*
G75*
G03*
X34695124Y-85394800I-1100000J0D01*
G01*
X17677124Y-85394800D02*
G75*
G03*
X17677124Y-85394800I-1100000J0D01*
G01*
D80*
X332495476Y-183423197D02*
G75*
G03*
X332495476Y-183423197I-5334000J0D01*
G01*
D79*
X63430000Y-190810000D02*
G75*
G03*
X63430000Y-190810000I-1500000J0D01*
G01*
M02*
