  0
SECTION
  2
HEADER
  9
$ANGBASE
  50
0.0
  9
$ANGDIR
  70
1
  9
$MEASUREMENT
  70
1
  0
ENDSEC
  0
SECTION
  2
TABLES
  0
TABLE
  2
LTYPE
  70
4
  0
LTYPE
  5
40F
  2
CONTINUOUS
  70
0
  3
Solid line
  72
65
  73
0
  40
0.0
  0
LTYPE
  5
410
  2
DASHDOT
 70
0
  3
Dash Dot ____ _ ____ _
 72
65
 73
4
 40
2.0
 49
1.25
 49
-0.25
 49
0.25
 49
-0.25
  0
LTYPE
  5
411
  2
DASHED
 70
0
  3
Dashed __ __ __ __ __
 72
65
 73
2
 40
0.75
 49
0.5
 49
-0.25
  0
LTYPE
  5
43B
  2
DOTTED
 70
0
  3
Dotted .  .  .  .
 72
65
 73
2
 40
0.2
 49
0.0
 49
-0.2
  0
ENDTAB
  0
TABLE
  2
STYLE
  70
4
  0
STYLE
  2
KICAD
  70
0
  40
0
  41
1
  42
1
  50
0
  71
0
  3
isocp.shx
  0
STYLE
  2
KICADB
  70
0
  40
0
  41
1
  42
1
  50
0
  71
0
  3
isocp.shx
  0
STYLE
  2
KICADI
  70
0
  40
0
  41
1
  42
1
  50
15
  71
0
  3
isocp.shx
  0
STYLE
  2
KICADBI
  70
0
  40
0
  41
1
  42
1
  50
15
  71
0
  3
isocp.shx
  0
ENDTAB
  0
TABLE
  2
LAYER
  70
1
  0
LAYER
  2
BLACK
  70
0
  62
7
  6
CONTINUOUS
  0
ENDTAB
  0
ENDSEC
  0
SECTION
  2
ENTITIES
0
CIRCLE
8
BLACK
10
60.325
20
-70.8943
40
1.1
0
CIRCLE
8
BLACK
10
60.325
20
-83.82
40
1.1
0
CIRCLE
8
BLACK
10
327.189
20
-56.427
40
5.334
0
LINE
8
BLACK
6
CONTINUOUS
10
12.573
20
-216.5
11
418.973
21
-216.5
0
LINE
8
BLACK
6
CONTINUOUS
10
418.973
20
-23
11
12.573
21
-23
0
CIRCLE
8
BLACK
10
151.946
20
-56.2
40
1.1
0
LINE
8
BLACK
6
CONTINUOUS
10
12.573
20
-23
11
12.573
21
-216.5
0
CIRCLE
8
BLACK
10
86.29
20
-190.84
40
1.5
0
CIRCLE
8
BLACK
10
279.387
20
-56.2
40
1.1
0
CIRCLE
8
BLACK
10
279.389
20
-183.634
40
1.1
0
CIRCLE
8
BLACK
10
130.453
20
-87.9291
40
1.5
0
CIRCLE
8
BLACK
10
104.17
20
-183.423
40
5.334
0
CIRCLE
8
BLACK
10
104.173
20
-56.4327
40
5.334
0
CIRCLE
8
BLACK
10
33.5788
20
-65.3796
40
1.1
0
LINE
8
BLACK
6
CONTINUOUS
10
418.973
20
-216.5
11
418.973
21
-23
0
CIRCLE
8
BLACK
10
406.822
20
-56.2
40
1.1
0
CIRCLE
8
BLACK
10
16.5771
20
-65.405
40
1.1
0
CIRCLE
8
BLACK
10
24.5439
20
-56.2
40
1.1
0
CIRCLE
8
BLACK
10
406.77
20
-183.634
40
1.1
0
CIRCLE
8
BLACK
10
88.943
20
-195.363
40
1.5
0
CIRCLE
8
BLACK
10
61.323
20
-195.363
40
1.5
0
CIRCLE
8
BLACK
10
151.937
20
-183.634
40
1.1
0
CIRCLE
8
BLACK
10
24.4993
20
-183.634
40
1.1
0
CIRCLE
8
BLACK
10
33.5951
20
-85.3948
40
1.1
0
CIRCLE
8
BLACK
10
16.5771
20
-85.3948
40
1.1
0
CIRCLE
8
BLACK
10
327.161
20
-183.423
40
5.334
0
CIRCLE
8
BLACK
10
61.93
20
-190.81
40
1.5
0
LINE
8
BLACK
6
CONTINUOUS
10
18.91
20
-214.28
11
20.41
21
-215.78
0
LINE
8
BLACK
6
CONTINUOUS
10
20.41
20
-214.28
11
18.91
21
-215.78
0
LINE
8
BLACK
6
CONTINUOUS
10
41.0922
20
-145.231
11
42.5922
21
-146.731
0
LINE
8
BLACK
6
CONTINUOUS
10
42.5922
20
-145.231
11
41.0922
21
-146.731
0
LINE
8
BLACK
6
CONTINUOUS
10
45.9422
20
-145.231
11
47.4422
21
-146.731
0
LINE
8
BLACK
6
CONTINUOUS
10
47.4422
20
-145.231
11
45.9422
21
-146.731
0
LINE
8
BLACK
6
CONTINUOUS
10
122.545
20
-151.366
11
124.045
21
-152.866
0
LINE
8
BLACK
6
CONTINUOUS
10
124.045
20
-151.366
11
122.545
21
-152.866
0
LINE
8
BLACK
6
CONTINUOUS
10
127.395
20
-151.366
11
128.895
21
-152.866
0
LINE
8
BLACK
6
CONTINUOUS
10
128.895
20
-151.366
11
127.395
21
-152.866
0
LINE
8
BLACK
6
CONTINUOUS
10
378.637
20
-98.2734
11
380.137
21
-99.7734
0
LINE
8
BLACK
6
CONTINUOUS
10
380.137
20
-98.2734
11
378.637
21
-99.7734
0
LINE
8
BLACK
6
CONTINUOUS
10
383.487
20
-98.2734
11
384.987
21
-99.7734
0
LINE
8
BLACK
6
CONTINUOUS
10
384.987
20
-98.2734
11
383.487
21
-99.7734
0
LINE
8
BLACK
6
CONTINUOUS
10
395.757
20
-164.796
11
397.257
21
-166.296
0
LINE
8
BLACK
6
CONTINUOUS
10
397.257
20
-164.796
11
395.757
21
-166.296
0
LINE
8
BLACK
6
CONTINUOUS
10
400.607
20
-164.796
11
402.107
21
-166.296
0
LINE
8
BLACK
6
CONTINUOUS
10
402.107
20
-164.796
11
400.607
21
-166.296
0
CIRCLE
8
BLACK
10
41.5422
20
-149.011
40
0.9
0
CIRCLE
8
BLACK
10
46.9922
20
-149.011
40
0.9
0
CIRCLE
8
BLACK
10
122.995
20
-155.146
40
0.9
0
CIRCLE
8
BLACK
10
128.445
20
-155.146
40
0.9
0
CIRCLE
8
BLACK
10
379.087
20
-102.053
40
0.9
0
CIRCLE
8
BLACK
10
384.537
20
-102.053
40
0.9
0
CIRCLE
8
BLACK
10
396.207
20
-168.576
40
0.9
0
CIRCLE
8
BLACK
10
401.657
20
-168.576
40
0.9
0
LINE
8
BLACK
6
CONTINUOUS
10
37.92
20
-211.71
11
37.92
21
-213.61
0
LINE
8
BLACK
6
CONTINUOUS
10
36.97
20
-212.66
11
38.87
21
-212.66
0
LINE
8
BLACK
6
CONTINUOUS
10
42.32
20
-211.71
11
42.32
21
-213.61
0
LINE
8
BLACK
6
CONTINUOUS
10
41.37
20
-212.66
11
43.27
21
-212.66
0
LINE
8
BLACK
6
CONTINUOUS
10
132.594
20
-211.64
11
132.594
21
-209.342
0
LINE
8
BLACK
6
CONTINUOUS
10
132.594
20
-209.342
11
130.296
21
-209.342
0
LINE
8
BLACK
6
CONTINUOUS
10
130.296
20
-209.342
11
130.296
21
-211.64
0
LINE
8
BLACK
6
CONTINUOUS
10
130.296
20
-211.64
11
132.594
21
-211.64
0
LINE
8
BLACK
6
CONTINUOUS
10
144.024
20
-211.64
11
144.024
21
-209.342
0
LINE
8
BLACK
6
CONTINUOUS
10
144.024
20
-209.342
11
141.726
21
-209.342
0
LINE
8
BLACK
6
CONTINUOUS
10
141.726
20
-209.342
11
141.726
21
-211.64
0
LINE
8
BLACK
6
CONTINUOUS
10
141.726
20
-211.64
11
144.024
21
-211.64
0
LINE
8
BLACK
6
CONTINUOUS
10
15.1008
20
-219.695
11
15.1008
21
-217.695
0
LINE
8
BLACK
6
CONTINUOUS
10
15.1008
20
-217.695
11
15.577
21
-217.695
0
LINE
8
BLACK
6
CONTINUOUS
10
15.577
20
-217.695
11
15.8627
21
-217.79
0
LINE
8
BLACK
6
CONTINUOUS
10
15.8627
20
-217.79
11
16.0531
21
-217.981
0
LINE
8
BLACK
6
CONTINUOUS
10
16.0531
20
-217.981
11
16.1484
21
-218.171
0
LINE
8
BLACK
6
CONTINUOUS
10
16.1484
20
-218.171
11
16.2436
21
-218.552
0
LINE
8
BLACK
6
CONTINUOUS
10
16.2436
20
-218.552
11
16.2436
21
-218.838
0
LINE
8
BLACK
6
CONTINUOUS
10
16.2436
20
-218.838
11
16.1484
21
-219.219
0
LINE
8
BLACK
6
CONTINUOUS
10
16.1484
20
-219.219
11
16.0531
21
-219.409
0
LINE
8
BLACK
6
CONTINUOUS
10
16.0531
20
-219.409
11
15.8627
21
-219.6
0
LINE
8
BLACK
6
CONTINUOUS
10
15.8627
20
-219.6
11
15.577
21
-219.695
0
LINE
8
BLACK
6
CONTINUOUS
10
15.577
20
-219.695
11
15.1008
21
-219.695
0
LINE
8
BLACK
6
CONTINUOUS
10
17.1008
20
-219.695
11
17.1008
21
-218.362
0
LINE
8
BLACK
6
CONTINUOUS
10
17.1008
20
-218.742
11
17.196
21
-218.552
0
LINE
8
BLACK
6
CONTINUOUS
10
17.196
20
-218.552
11
17.2912
21
-218.457
0
LINE
8
BLACK
6
CONTINUOUS
10
17.2912
20
-218.457
11
17.4817
21
-218.362
0
LINE
8
BLACK
6
CONTINUOUS
10
17.4817
20
-218.362
11
17.6722
21
-218.362
0
LINE
8
BLACK
6
CONTINUOUS
10
18.3389
20
-219.695
11
18.3389
21
-218.362
0
LINE
8
BLACK
6
CONTINUOUS
10
18.3389
20
-217.695
11
18.2436
21
-217.79
0
LINE
8
BLACK
6
CONTINUOUS
10
18.2436
20
-217.79
11
18.3389
21
-217.885
0
LINE
8
BLACK
6
CONTINUOUS
10
18.3389
20
-217.885
11
18.4341
21
-217.79
0
LINE
8
BLACK
6
CONTINUOUS
10
18.4341
20
-217.79
11
18.3389
21
-217.695
0
LINE
8
BLACK
6
CONTINUOUS
10
18.3389
20
-217.695
11
18.3389
21
-217.885
0
LINE
8
BLACK
6
CONTINUOUS
10
19.577
20
-219.695
11
19.3865
21
-219.6
0
LINE
8
BLACK
6
CONTINUOUS
10
19.3865
20
-219.6
11
19.2912
21
-219.409
0
LINE
8
BLACK
6
CONTINUOUS
10
19.2912
20
-219.409
11
19.2912
21
-217.695
0
LINE
8
BLACK
6
CONTINUOUS
10
20.6246
20
-219.695
11
20.4341
21
-219.6
0
LINE
8
BLACK
6
CONTINUOUS
10
20.4341
20
-219.6
11
20.3389
21
-219.409
0
LINE
8
BLACK
6
CONTINUOUS
10
20.3389
20
-219.409
11
20.3389
21
-217.695
0
LINE
8
BLACK
6
CONTINUOUS
10
22.9103
20
-219.695
11
22.9103
21
-217.695
0
LINE
8
BLACK
6
CONTINUOUS
10
22.9103
20
-217.695
11
23.577
21
-219.123
0
LINE
8
BLACK
6
CONTINUOUS
10
23.577
20
-219.123
11
24.2436
21
-217.695
0
LINE
8
BLACK
6
CONTINUOUS
10
24.2436
20
-217.695
11
24.2436
21
-219.695
0
LINE
8
BLACK
6
CONTINUOUS
10
26.0531
20
-219.695
11
26.0531
21
-218.647
0
LINE
8
BLACK
6
CONTINUOUS
10
26.0531
20
-218.647
11
25.9579
21
-218.457
0
LINE
8
BLACK
6
CONTINUOUS
10
25.9579
20
-218.457
11
25.7674
21
-218.362
0
LINE
8
BLACK
6
CONTINUOUS
10
25.7674
20
-218.362
11
25.3865
21
-218.362
0
LINE
8
BLACK
6
CONTINUOUS
10
25.3865
20
-218.362
11
25.196
21
-218.457
0
LINE
8
BLACK
6
CONTINUOUS
10
26.0531
20
-219.6
11
25.8627
21
-219.695
0
LINE
8
BLACK
6
CONTINUOUS
10
25.8627
20
-219.695
11
25.3865
21
-219.695
0
LINE
8
BLACK
6
CONTINUOUS
10
25.3865
20
-219.695
11
25.196
21
-219.6
0
LINE
8
BLACK
6
CONTINUOUS
10
25.196
20
-219.6
11
25.1008
21
-219.409
0
LINE
8
BLACK
6
CONTINUOUS
10
25.1008
20
-219.409
11
25.1008
21
-219.219
0
LINE
8
BLACK
6
CONTINUOUS
10
25.1008
20
-219.219
11
25.196
21
-219.028
0
LINE
8
BLACK
6
CONTINUOUS
10
25.196
20
-219.028
11
25.3865
21
-218.933
0
LINE
8
BLACK
6
CONTINUOUS
10
25.3865
20
-218.933
11
25.8627
21
-218.933
0
LINE
8
BLACK
6
CONTINUOUS
10
25.8627
20
-218.933
11
26.0531
21
-218.838
0
LINE
8
BLACK
6
CONTINUOUS
10
27.0055
20
-218.362
11
27.0055
21
-220.362
0
LINE
8
BLACK
6
CONTINUOUS
10
27.0055
20
-218.457
11
27.196
21
-218.362
0
LINE
8
BLACK
6
CONTINUOUS
10
27.196
20
-218.362
11
27.577
21
-218.362
0
LINE
8
BLACK
6
CONTINUOUS
10
27.577
20
-218.362
11
27.7674
21
-218.457
0
LINE
8
BLACK
6
CONTINUOUS
10
27.7674
20
-218.457
11
27.8627
21
-218.552
0
LINE
8
BLACK
6
CONTINUOUS
10
27.8627
20
-218.552
11
27.9579
21
-218.742
0
LINE
8
BLACK
6
CONTINUOUS
10
27.9579
20
-218.742
11
27.9579
21
-219.314
0
LINE
8
BLACK
6
CONTINUOUS
10
27.9579
20
-219.314
11
27.8627
21
-219.504
0
LINE
8
BLACK
6
CONTINUOUS
10
27.8627
20
-219.504
11
27.7674
21
-219.6
0
LINE
8
BLACK
6
CONTINUOUS
10
27.7674
20
-219.6
11
27.577
21
-219.695
0
LINE
8
BLACK
6
CONTINUOUS
10
27.577
20
-219.695
11
27.196
21
-219.695
0
LINE
8
BLACK
6
CONTINUOUS
10
27.196
20
-219.695
11
27.0055
21
-219.6
0
LINE
8
BLACK
6
CONTINUOUS
10
28.8151
20
-219.504
11
28.9103
21
-219.6
0
LINE
8
BLACK
6
CONTINUOUS
10
28.9103
20
-219.6
11
28.8151
21
-219.695
0
LINE
8
BLACK
6
CONTINUOUS
10
28.8151
20
-219.695
11
28.7198
21
-219.6
0
LINE
8
BLACK
6
CONTINUOUS
10
28.7198
20
-219.6
11
28.8151
21
-219.504
0
LINE
8
BLACK
6
CONTINUOUS
10
28.8151
20
-219.504
11
28.8151
21
-219.695
0
LINE
8
BLACK
6
CONTINUOUS
10
28.8151
20
-218.457
11
28.9103
21
-218.552
0
LINE
8
BLACK
6
CONTINUOUS
10
28.9103
20
-218.552
11
28.8151
21
-218.647
0
LINE
8
BLACK
6
CONTINUOUS
10
28.8151
20
-218.647
11
28.7198
21
-218.552
0
LINE
8
BLACK
6
CONTINUOUS
10
28.7198
20
-218.552
11
28.8151
21
-218.457
0
LINE
8
BLACK
6
CONTINUOUS
10
28.8151
20
-218.457
11
28.8151
21
-218.647
0
LINE
8
BLACK
6
CONTINUOUS
10
10.993
20
-222.23
11
12.493
21
-223.73
0
LINE
8
BLACK
6
CONTINUOUS
10
12.493
20
-222.23
11
10.993
21
-223.73
0
LINE
8
BLACK
6
CONTINUOUS
10
16.1484
20
-223.895
11
15.0055
21
-223.895
0
LINE
8
BLACK
6
CONTINUOUS
10
15.577
20
-223.895
11
15.577
21
-221.895
0
LINE
8
BLACK
6
CONTINUOUS
10
15.577
20
-221.895
11
15.3865
21
-222.181
0
LINE
8
BLACK
6
CONTINUOUS
10
15.3865
20
-222.181
11
15.196
21
-222.371
0
LINE
8
BLACK
6
CONTINUOUS
10
15.196
20
-222.371
11
15.0055
21
-222.466
0
LINE
8
BLACK
6
CONTINUOUS
10
17.0055
20
-223.704
11
17.1008
21
-223.8
0
LINE
8
BLACK
6
CONTINUOUS
10
17.1008
20
-223.8
11
17.0055
21
-223.895
0
LINE
8
BLACK
6
CONTINUOUS
10
17.0055
20
-223.895
11
16.9103
21
-223.8
0
LINE
8
BLACK
6
CONTINUOUS
10
16.9103
20
-223.8
11
17.0055
21
-223.704
0
LINE
8
BLACK
6
CONTINUOUS
10
17.0055
20
-223.704
11
17.0055
21
-223.895
0
LINE
8
BLACK
6
CONTINUOUS
10
18.9103
20
-221.895
11
17.9579
21
-221.895
0
LINE
8
BLACK
6
CONTINUOUS
10
17.9579
20
-221.895
11
17.8627
21
-222.847
0
LINE
8
BLACK
6
CONTINUOUS
10
17.8627
20
-222.847
11
17.9579
21
-222.752
0
LINE
8
BLACK
6
CONTINUOUS
10
17.9579
20
-222.752
11
18.1484
21
-222.657
0
LINE
8
BLACK
6
CONTINUOUS
10
18.1484
20
-222.657
11
18.6246
21
-222.657
0
LINE
8
BLACK
6
CONTINUOUS
10
18.6246
20
-222.657
11
18.8151
21
-222.752
0
LINE
8
BLACK
6
CONTINUOUS
10
18.8151
20
-222.752
11
18.9103
21
-222.847
0
LINE
8
BLACK
6
CONTINUOUS
10
18.9103
20
-222.847
11
19.0055
21
-223.038
0
LINE
8
BLACK
6
CONTINUOUS
10
19.0055
20
-223.038
11
19.0055
21
-223.514
0
LINE
8
BLACK
6
CONTINUOUS
10
19.0055
20
-223.514
11
18.9103
21
-223.704
0
LINE
8
BLACK
6
CONTINUOUS
10
18.9103
20
-223.704
11
18.8151
21
-223.8
0
LINE
8
BLACK
6
CONTINUOUS
10
18.8151
20
-223.8
11
18.6246
21
-223.895
0
LINE
8
BLACK
6
CONTINUOUS
10
18.6246
20
-223.895
11
18.1484
21
-223.895
0
LINE
8
BLACK
6
CONTINUOUS
10
18.1484
20
-223.895
11
17.9579
21
-223.8
0
LINE
8
BLACK
6
CONTINUOUS
10
17.9579
20
-223.8
11
17.8627
21
-223.704
0
LINE
8
BLACK
6
CONTINUOUS
10
20.2436
20
-221.895
11
20.4341
21
-221.895
0
LINE
8
BLACK
6
CONTINUOUS
10
20.4341
20
-221.895
11
20.6246
21
-221.99
0
LINE
8
BLACK
6
CONTINUOUS
10
20.6246
20
-221.99
11
20.7198
21
-222.085
0
LINE
8
BLACK
6
CONTINUOUS
10
20.7198
20
-222.085
11
20.8151
21
-222.276
0
LINE
8
BLACK
6
CONTINUOUS
10
20.8151
20
-222.276
11
20.9103
21
-222.657
0
LINE
8
BLACK
6
CONTINUOUS
10
20.9103
20
-222.657
11
20.9103
21
-223.133
0
LINE
8
BLACK
6
CONTINUOUS
10
20.9103
20
-223.133
11
20.8151
21
-223.514
0
LINE
8
BLACK
6
CONTINUOUS
10
20.8151
20
-223.514
11
20.7198
21
-223.704
0
LINE
8
BLACK
6
CONTINUOUS
10
20.7198
20
-223.704
11
20.6246
21
-223.8
0
LINE
8
BLACK
6
CONTINUOUS
10
20.6246
20
-223.8
11
20.4341
21
-223.895
0
LINE
8
BLACK
6
CONTINUOUS
10
20.4341
20
-223.895
11
20.2436
21
-223.895
0
LINE
8
BLACK
6
CONTINUOUS
10
20.2436
20
-223.895
11
20.0531
21
-223.8
0
LINE
8
BLACK
6
CONTINUOUS
10
20.0531
20
-223.8
11
19.9579
21
-223.704
0
LINE
8
BLACK
6
CONTINUOUS
10
19.9579
20
-223.704
11
19.8627
21
-223.514
0
LINE
8
BLACK
6
CONTINUOUS
10
19.8627
20
-223.514
11
19.7674
21
-223.133
0
LINE
8
BLACK
6
CONTINUOUS
10
19.7674
20
-223.133
11
19.7674
21
-222.657
0
LINE
8
BLACK
6
CONTINUOUS
10
19.7674
20
-222.657
11
19.8627
21
-222.276
0
LINE
8
BLACK
6
CONTINUOUS
10
19.8627
20
-222.276
11
19.9579
21
-222.085
0
LINE
8
BLACK
6
CONTINUOUS
10
19.9579
20
-222.085
11
20.0531
21
-221.99
0
LINE
8
BLACK
6
CONTINUOUS
10
20.0531
20
-221.99
11
20.2436
21
-221.895
0
LINE
8
BLACK
6
CONTINUOUS
10
22.1484
20
-221.895
11
22.3389
21
-221.895
0
LINE
8
BLACK
6
CONTINUOUS
10
22.3389
20
-221.895
11
22.5293
21
-221.99
0
LINE
8
BLACK
6
CONTINUOUS
10
22.5293
20
-221.99
11
22.6246
21
-222.085
0
LINE
8
BLACK
6
CONTINUOUS
10
22.6246
20
-222.085
11
22.7198
21
-222.276
0
LINE
8
BLACK
6
CONTINUOUS
10
22.7198
20
-222.276
11
22.8151
21
-222.657
0
LINE
8
BLACK
6
CONTINUOUS
10
22.8151
20
-222.657
11
22.8151
21
-223.133
0
LINE
8
BLACK
6
CONTINUOUS
10
22.8151
20
-223.133
11
22.7198
21
-223.514
0
LINE
8
BLACK
6
CONTINUOUS
10
22.7198
20
-223.514
11
22.6246
21
-223.704
0
LINE
8
BLACK
6
CONTINUOUS
10
22.6246
20
-223.704
11
22.5293
21
-223.8
0
LINE
8
BLACK
6
CONTINUOUS
10
22.5293
20
-223.8
11
22.3389
21
-223.895
0
LINE
8
BLACK
6
CONTINUOUS
10
22.3389
20
-223.895
11
22.1484
21
-223.895
0
LINE
8
BLACK
6
CONTINUOUS
10
22.1484
20
-223.895
11
21.9579
21
-223.8
0
LINE
8
BLACK
6
CONTINUOUS
10
21.9579
20
-223.8
11
21.8627
21
-223.704
0
LINE
8
BLACK
6
CONTINUOUS
10
21.8627
20
-223.704
11
21.7674
21
-223.514
0
LINE
8
BLACK
6
CONTINUOUS
10
21.7674
20
-223.514
11
21.6722
21
-223.133
0
LINE
8
BLACK
6
CONTINUOUS
10
21.6722
20
-223.133
11
21.6722
21
-222.657
0
LINE
8
BLACK
6
CONTINUOUS
10
21.6722
20
-222.657
11
21.7674
21
-222.276
0
LINE
8
BLACK
6
CONTINUOUS
10
21.7674
20
-222.276
11
21.8627
21
-222.085
0
LINE
8
BLACK
6
CONTINUOUS
10
21.8627
20
-222.085
11
21.9579
21
-221.99
0
LINE
8
BLACK
6
CONTINUOUS
10
21.9579
20
-221.99
11
22.1484
21
-221.895
0
LINE
8
BLACK
6
CONTINUOUS
10
23.6722
20
-223.895
11
23.6722
21
-222.562
0
LINE
8
BLACK
6
CONTINUOUS
10
23.6722
20
-222.752
11
23.7674
21
-222.657
0
LINE
8
BLACK
6
CONTINUOUS
10
23.7674
20
-222.657
11
23.9579
21
-222.562
0
LINE
8
BLACK
6
CONTINUOUS
10
23.9579
20
-222.562
11
24.2436
21
-222.562
0
LINE
8
BLACK
6
CONTINUOUS
10
24.2436
20
-222.562
11
24.4341
21
-222.657
0
LINE
8
BLACK
6
CONTINUOUS
10
24.4341
20
-222.657
11
24.5293
21
-222.847
0
LINE
8
BLACK
6
CONTINUOUS
10
24.5293
20
-222.847
11
24.5293
21
-223.895
0
LINE
8
BLACK
6
CONTINUOUS
10
24.5293
20
-222.847
11
24.6246
21
-222.657
0
LINE
8
BLACK
6
CONTINUOUS
10
24.6246
20
-222.657
11
24.8151
21
-222.562
0
LINE
8
BLACK
6
CONTINUOUS
10
24.8151
20
-222.562
11
25.1008
21
-222.562
0
LINE
8
BLACK
6
CONTINUOUS
10
25.1008
20
-222.562
11
25.2912
21
-222.657
0
LINE
8
BLACK
6
CONTINUOUS
10
25.2912
20
-222.657
11
25.3865
21
-222.847
0
LINE
8
BLACK
6
CONTINUOUS
10
25.3865
20
-222.847
11
25.3865
21
-223.895
0
LINE
8
BLACK
6
CONTINUOUS
10
26.3389
20
-223.895
11
26.3389
21
-222.562
0
LINE
8
BLACK
6
CONTINUOUS
10
26.3389
20
-222.752
11
26.4341
21
-222.657
0
LINE
8
BLACK
6
CONTINUOUS
10
26.4341
20
-222.657
11
26.6246
21
-222.562
0
LINE
8
BLACK
6
CONTINUOUS
10
26.6246
20
-222.562
11
26.9103
21
-222.562
0
LINE
8
BLACK
6
CONTINUOUS
10
26.9103
20
-222.562
11
27.1008
21
-222.657
0
LINE
8
BLACK
6
CONTINUOUS
10
27.1008
20
-222.657
11
27.196
21
-222.847
0
LINE
8
BLACK
6
CONTINUOUS
10
27.196
20
-222.847
11
27.196
21
-223.895
0
LINE
8
BLACK
6
CONTINUOUS
10
27.196
20
-222.847
11
27.2912
21
-222.657
0
LINE
8
BLACK
6
CONTINUOUS
10
27.2912
20
-222.657
11
27.4817
21
-222.562
0
LINE
8
BLACK
6
CONTINUOUS
10
27.4817
20
-222.562
11
27.7674
21
-222.562
0
LINE
8
BLACK
6
CONTINUOUS
10
27.7674
20
-222.562
11
27.9579
21
-222.657
0
LINE
8
BLACK
6
CONTINUOUS
10
27.9579
20
-222.657
11
28.0531
21
-222.847
0
LINE
8
BLACK
6
CONTINUOUS
10
28.0531
20
-222.847
11
28.0531
21
-223.895
0
LINE
8
BLACK
6
CONTINUOUS
10
31.9579
20
-221.8
11
30.2436
21
-224.371
0
LINE
8
BLACK
6
CONTINUOUS
10
34.5293
20
-221.895
11
34.7198
21
-221.895
0
LINE
8
BLACK
6
CONTINUOUS
10
34.7198
20
-221.895
11
34.9103
21
-221.99
0
LINE
8
BLACK
6
CONTINUOUS
10
34.9103
20
-221.99
11
35.0055
21
-222.085
0
LINE
8
BLACK
6
CONTINUOUS
10
35.0055
20
-222.085
11
35.1008
21
-222.276
0
LINE
8
BLACK
6
CONTINUOUS
10
35.1008
20
-222.276
11
35.196
21
-222.657
0
LINE
8
BLACK
6
CONTINUOUS
10
35.196
20
-222.657
11
35.196
21
-223.133
0
LINE
8
BLACK
6
CONTINUOUS
10
35.196
20
-223.133
11
35.1008
21
-223.514
0
LINE
8
BLACK
6
CONTINUOUS
10
35.1008
20
-223.514
11
35.0055
21
-223.704
0
LINE
8
BLACK
6
CONTINUOUS
10
35.0055
20
-223.704
11
34.9103
21
-223.8
0
LINE
8
BLACK
6
CONTINUOUS
10
34.9103
20
-223.8
11
34.7198
21
-223.895
0
LINE
8
BLACK
6
CONTINUOUS
10
34.7198
20
-223.895
11
34.5293
21
-223.895
0
LINE
8
BLACK
6
CONTINUOUS
10
34.5293
20
-223.895
11
34.3389
21
-223.8
0
LINE
8
BLACK
6
CONTINUOUS
10
34.3389
20
-223.8
11
34.2436
21
-223.704
0
LINE
8
BLACK
6
CONTINUOUS
10
34.2436
20
-223.704
11
34.1484
21
-223.514
0
LINE
8
BLACK
6
CONTINUOUS
10
34.1484
20
-223.514
11
34.0532
21
-223.133
0
LINE
8
BLACK
6
CONTINUOUS
10
34.0532
20
-223.133
11
34.0532
21
-222.657
0
LINE
8
BLACK
6
CONTINUOUS
10
34.0532
20
-222.657
11
34.1484
21
-222.276
0
LINE
8
BLACK
6
CONTINUOUS
10
34.1484
20
-222.276
11
34.2436
21
-222.085
0
LINE
8
BLACK
6
CONTINUOUS
10
34.2436
20
-222.085
11
34.3389
21
-221.99
0
LINE
8
BLACK
6
CONTINUOUS
10
34.3389
20
-221.99
11
34.5293
21
-221.895
0
LINE
8
BLACK
6
CONTINUOUS
10
36.0532
20
-223.704
11
36.1484
21
-223.8
0
LINE
8
BLACK
6
CONTINUOUS
10
36.1484
20
-223.8
11
36.0532
21
-223.895
0
LINE
8
BLACK
6
CONTINUOUS
10
36.0532
20
-223.895
11
35.9579
21
-223.8
0
LINE
8
BLACK
6
CONTINUOUS
10
35.9579
20
-223.8
11
36.0532
21
-223.704
0
LINE
8
BLACK
6
CONTINUOUS
10
36.0532
20
-223.704
11
36.0532
21
-223.895
0
LINE
8
BLACK
6
CONTINUOUS
10
37.3865
20
-221.895
11
37.577
21
-221.895
0
LINE
8
BLACK
6
CONTINUOUS
10
37.577
20
-221.895
11
37.7674
21
-221.99
0
LINE
8
BLACK
6
CONTINUOUS
10
37.7674
20
-221.99
11
37.8627
21
-222.085
0
LINE
8
BLACK
6
CONTINUOUS
10
37.8627
20
-222.085
11
37.9579
21
-222.276
0
LINE
8
BLACK
6
CONTINUOUS
10
37.9579
20
-222.276
11
38.0532
21
-222.657
0
LINE
8
BLACK
6
CONTINUOUS
10
38.0532
20
-222.657
11
38.0532
21
-223.133
0
LINE
8
BLACK
6
CONTINUOUS
10
38.0532
20
-223.133
11
37.9579
21
-223.514
0
LINE
8
BLACK
6
CONTINUOUS
10
37.9579
20
-223.514
11
37.8627
21
-223.704
0
LINE
8
BLACK
6
CONTINUOUS
10
37.8627
20
-223.704
11
37.7674
21
-223.8
0
LINE
8
BLACK
6
CONTINUOUS
10
37.7674
20
-223.8
11
37.577
21
-223.895
0
LINE
8
BLACK
6
CONTINUOUS
10
37.577
20
-223.895
11
37.3865
21
-223.895
0
LINE
8
BLACK
6
CONTINUOUS
10
37.3865
20
-223.895
11
37.196
21
-223.8
0
LINE
8
BLACK
6
CONTINUOUS
10
37.196
20
-223.8
11
37.1008
21
-223.704
0
LINE
8
BLACK
6
CONTINUOUS
10
37.1008
20
-223.704
11
37.0055
21
-223.514
0
LINE
8
BLACK
6
CONTINUOUS
10
37.0055
20
-223.514
11
36.9103
21
-223.133
0
LINE
8
BLACK
6
CONTINUOUS
10
36.9103
20
-223.133
11
36.9103
21
-222.657
0
LINE
8
BLACK
6
CONTINUOUS
10
36.9103
20
-222.657
11
37.0055
21
-222.276
0
LINE
8
BLACK
6
CONTINUOUS
10
37.0055
20
-222.276
11
37.1008
21
-222.085
0
LINE
8
BLACK
6
CONTINUOUS
10
37.1008
20
-222.085
11
37.196
21
-221.99
0
LINE
8
BLACK
6
CONTINUOUS
10
37.196
20
-221.99
11
37.3865
21
-221.895
0
LINE
8
BLACK
6
CONTINUOUS
10
39.8627
20
-221.895
11
38.9103
21
-221.895
0
LINE
8
BLACK
6
CONTINUOUS
10
38.9103
20
-221.895
11
38.8151
21
-222.847
0
LINE
8
BLACK
6
CONTINUOUS
10
38.8151
20
-222.847
11
38.9103
21
-222.752
0
LINE
8
BLACK
6
CONTINUOUS
10
38.9103
20
-222.752
11
39.1008
21
-222.657
0
LINE
8
BLACK
6
CONTINUOUS
10
39.1008
20
-222.657
11
39.577
21
-222.657
0
LINE
8
BLACK
6
CONTINUOUS
10
39.577
20
-222.657
11
39.7674
21
-222.752
0
LINE
8
BLACK
6
CONTINUOUS
10
39.7674
20
-222.752
11
39.8627
21
-222.847
0
LINE
8
BLACK
6
CONTINUOUS
10
39.8627
20
-222.847
11
39.9579
21
-223.038
0
LINE
8
BLACK
6
CONTINUOUS
10
39.9579
20
-223.038
11
39.9579
21
-223.514
0
LINE
8
BLACK
6
CONTINUOUS
10
39.9579
20
-223.514
11
39.8627
21
-223.704
0
LINE
8
BLACK
6
CONTINUOUS
10
39.8627
20
-223.704
11
39.7674
21
-223.8
0
LINE
8
BLACK
6
CONTINUOUS
10
39.7674
20
-223.8
11
39.577
21
-223.895
0
LINE
8
BLACK
6
CONTINUOUS
10
39.577
20
-223.895
11
39.1008
21
-223.895
0
LINE
8
BLACK
6
CONTINUOUS
10
39.1008
20
-223.895
11
38.9103
21
-223.8
0
LINE
8
BLACK
6
CONTINUOUS
10
38.9103
20
-223.8
11
38.8151
21
-223.704
0
LINE
8
BLACK
6
CONTINUOUS
10
40.9103
20
-223.895
11
41.2912
21
-223.895
0
LINE
8
BLACK
6
CONTINUOUS
10
41.2912
20
-223.895
11
41.4817
21
-223.8
0
LINE
8
BLACK
6
CONTINUOUS
10
41.4817
20
-223.8
11
41.577
21
-223.704
0
LINE
8
BLACK
6
CONTINUOUS
10
41.577
20
-223.704
11
41.7674
21
-223.419
0
LINE
8
BLACK
6
CONTINUOUS
10
41.7674
20
-223.419
11
41.8627
21
-223.038
0
LINE
8
BLACK
6
CONTINUOUS
10
41.8627
20
-223.038
11
41.8627
21
-222.276
0
LINE
8
BLACK
6
CONTINUOUS
10
41.8627
20
-222.276
11
41.7674
21
-222.085
0
LINE
8
BLACK
6
CONTINUOUS
10
41.7674
20
-222.085
11
41.6722
21
-221.99
0
LINE
8
BLACK
6
CONTINUOUS
10
41.6722
20
-221.99
11
41.4817
21
-221.895
0
LINE
8
BLACK
6
CONTINUOUS
10
41.4817
20
-221.895
11
41.1008
21
-221.895
0
LINE
8
BLACK
6
CONTINUOUS
10
41.1008
20
-221.895
11
40.9103
21
-221.99
0
LINE
8
BLACK
6
CONTINUOUS
10
40.9103
20
-221.99
11
40.8151
21
-222.085
0
LINE
8
BLACK
6
CONTINUOUS
10
40.8151
20
-222.085
11
40.7198
21
-222.276
0
LINE
8
BLACK
6
CONTINUOUS
10
40.7198
20
-222.276
11
40.7198
21
-222.752
0
LINE
8
BLACK
6
CONTINUOUS
10
40.7198
20
-222.752
11
40.8151
21
-222.942
0
LINE
8
BLACK
6
CONTINUOUS
10
40.8151
20
-222.942
11
40.9103
21
-223.038
0
LINE
8
BLACK
6
CONTINUOUS
10
40.9103
20
-223.038
11
41.1008
21
-223.133
0
LINE
8
BLACK
6
CONTINUOUS
10
41.1008
20
-223.133
11
41.4817
21
-223.133
0
LINE
8
BLACK
6
CONTINUOUS
10
41.4817
20
-223.133
11
41.6722
21
-223.038
0
LINE
8
BLACK
6
CONTINUOUS
10
41.6722
20
-223.038
11
41.7674
21
-222.942
0
LINE
8
BLACK
6
CONTINUOUS
10
41.7674
20
-222.942
11
41.8627
21
-222.752
0
LINE
8
BLACK
6
CONTINUOUS
10
43.7674
20
-223.895
11
42.6246
21
-223.895
0
LINE
8
BLACK
6
CONTINUOUS
10
43.196
20
-223.895
11
43.196
21
-221.895
0
LINE
8
BLACK
6
CONTINUOUS
10
43.196
20
-221.895
11
43.0055
21
-222.181
0
LINE
8
BLACK
6
CONTINUOUS
10
43.0055
20
-222.181
11
42.8151
21
-222.371
0
LINE
8
BLACK
6
CONTINUOUS
10
42.8151
20
-222.371
11
42.6246
21
-222.466
0
LINE
8
BLACK
6
CONTINUOUS
10
44.5293
20
-221.895
11
44.5293
21
-222.276
0
LINE
8
BLACK
6
CONTINUOUS
10
45.2912
20
-221.895
11
45.2912
21
-222.276
0
LINE
8
BLACK
6
CONTINUOUS
10
48.2436
20
-224.657
11
48.1484
21
-224.562
0
LINE
8
BLACK
6
CONTINUOUS
10
48.1484
20
-224.562
11
47.9579
21
-224.276
0
LINE
8
BLACK
6
CONTINUOUS
10
47.9579
20
-224.276
11
47.8627
21
-224.085
0
LINE
8
BLACK
6
CONTINUOUS
10
47.8627
20
-224.085
11
47.7674
21
-223.8
0
LINE
8
BLACK
6
CONTINUOUS
10
47.7674
20
-223.8
11
47.6722
21
-223.323
0
LINE
8
BLACK
6
CONTINUOUS
10
47.6722
20
-223.323
11
47.6722
21
-222.942
0
LINE
8
BLACK
6
CONTINUOUS
10
47.6722
20
-222.942
11
47.7674
21
-222.466
0
LINE
8
BLACK
6
CONTINUOUS
10
47.7674
20
-222.466
11
47.8627
21
-222.181
0
LINE
8
BLACK
6
CONTINUOUS
10
47.8627
20
-222.181
11
47.9579
21
-221.99
0
LINE
8
BLACK
6
CONTINUOUS
10
47.9579
20
-221.99
11
48.1484
21
-221.704
0
LINE
8
BLACK
6
CONTINUOUS
10
48.1484
20
-221.704
11
48.2436
21
-221.609
0
LINE
8
BLACK
6
CONTINUOUS
10
49.1008
20
-223.895
11
49.4817
21
-223.895
0
LINE
8
BLACK
6
CONTINUOUS
10
49.4817
20
-223.895
11
49.6722
21
-223.8
0
LINE
8
BLACK
6
CONTINUOUS
10
49.6722
20
-223.8
11
49.7674
21
-223.704
0
LINE
8
BLACK
6
CONTINUOUS
10
49.7674
20
-223.704
11
49.9579
21
-223.419
0
LINE
8
BLACK
6
CONTINUOUS
10
49.9579
20
-223.419
11
50.0532
21
-223.038
0
LINE
8
BLACK
6
CONTINUOUS
10
50.0532
20
-223.038
11
50.0532
21
-222.276
0
LINE
8
BLACK
6
CONTINUOUS
10
50.0532
20
-222.276
11
49.9579
21
-222.085
0
LINE
8
BLACK
6
CONTINUOUS
10
49.9579
20
-222.085
11
49.8627
21
-221.99
0
LINE
8
BLACK
6
CONTINUOUS
10
49.8627
20
-221.99
11
49.6722
21
-221.895
0
LINE
8
BLACK
6
CONTINUOUS
10
49.6722
20
-221.895
11
49.2912
21
-221.895
0
LINE
8
BLACK
6
CONTINUOUS
10
49.2912
20
-221.895
11
49.1008
21
-221.99
0
LINE
8
BLACK
6
CONTINUOUS
10
49.1008
20
-221.99
11
49.0055
21
-222.085
0
LINE
8
BLACK
6
CONTINUOUS
10
49.0055
20
-222.085
11
48.9103
21
-222.276
0
LINE
8
BLACK
6
CONTINUOUS
10
48.9103
20
-222.276
11
48.9103
21
-222.752
0
LINE
8
BLACK
6
CONTINUOUS
10
48.9103
20
-222.752
11
49.0055
21
-222.942
0
LINE
8
BLACK
6
CONTINUOUS
10
49.0055
20
-222.942
11
49.1008
21
-223.038
0
LINE
8
BLACK
6
CONTINUOUS
10
49.1008
20
-223.038
11
49.2912
21
-223.133
0
LINE
8
BLACK
6
CONTINUOUS
10
49.2912
20
-223.133
11
49.6722
21
-223.133
0
LINE
8
BLACK
6
CONTINUOUS
10
49.6722
20
-223.133
11
49.8627
21
-223.038
0
LINE
8
BLACK
6
CONTINUOUS
10
49.8627
20
-223.038
11
49.9579
21
-222.942
0
LINE
8
BLACK
6
CONTINUOUS
10
49.9579
20
-222.942
11
50.0532
21
-222.752
0
LINE
8
BLACK
6
CONTINUOUS
10
52.4341
20
-223.895
11
52.4341
21
-221.895
0
LINE
8
BLACK
6
CONTINUOUS
10
53.2912
20
-223.895
11
53.2912
21
-222.847
0
LINE
8
BLACK
6
CONTINUOUS
10
53.2912
20
-222.847
11
53.196
21
-222.657
0
LINE
8
BLACK
6
CONTINUOUS
10
53.196
20
-222.657
11
53.0055
21
-222.562
0
LINE
8
BLACK
6
CONTINUOUS
10
53.0055
20
-222.562
11
52.7198
21
-222.562
0
LINE
8
BLACK
6
CONTINUOUS
10
52.7198
20
-222.562
11
52.5293
21
-222.657
0
LINE
8
BLACK
6
CONTINUOUS
10
52.5293
20
-222.657
11
52.4341
21
-222.752
0
LINE
8
BLACK
6
CONTINUOUS
10
54.5293
20
-223.895
11
54.3389
21
-223.8
0
LINE
8
BLACK
6
CONTINUOUS
10
54.3389
20
-223.8
11
54.2436
21
-223.704
0
LINE
8
BLACK
6
CONTINUOUS
10
54.2436
20
-223.704
11
54.1484
21
-223.514
0
LINE
8
BLACK
6
CONTINUOUS
10
54.1484
20
-223.514
11
54.1484
21
-222.942
0
LINE
8
BLACK
6
CONTINUOUS
10
54.1484
20
-222.942
11
54.2436
21
-222.752
0
LINE
8
BLACK
6
CONTINUOUS
10
54.2436
20
-222.752
11
54.3389
21
-222.657
0
LINE
8
BLACK
6
CONTINUOUS
10
54.3389
20
-222.657
11
54.5293
21
-222.562
0
LINE
8
BLACK
6
CONTINUOUS
10
54.5293
20
-222.562
11
54.8151
21
-222.562
0
LINE
8
BLACK
6
CONTINUOUS
10
54.8151
20
-222.562
11
55.0055
21
-222.657
0
LINE
8
BLACK
6
CONTINUOUS
10
55.0055
20
-222.657
11
55.1008
21
-222.752
0
LINE
8
BLACK
6
CONTINUOUS
10
55.1008
20
-222.752
11
55.196
21
-222.942
0
LINE
8
BLACK
6
CONTINUOUS
10
55.196
20
-222.942
11
55.196
21
-223.514
0
LINE
8
BLACK
6
CONTINUOUS
10
55.196
20
-223.514
11
55.1008
21
-223.704
0
LINE
8
BLACK
6
CONTINUOUS
10
55.1008
20
-223.704
11
55.0055
21
-223.8
0
LINE
8
BLACK
6
CONTINUOUS
10
55.0055
20
-223.8
11
54.8151
21
-223.895
0
LINE
8
BLACK
6
CONTINUOUS
10
54.8151
20
-223.895
11
54.5293
21
-223.895
0
LINE
8
BLACK
6
CONTINUOUS
10
56.3389
20
-223.895
11
56.1484
21
-223.8
0
LINE
8
BLACK
6
CONTINUOUS
10
56.1484
20
-223.8
11
56.0532
21
-223.609
0
LINE
8
BLACK
6
CONTINUOUS
10
56.0532
20
-223.609
11
56.0532
21
-221.895
0
LINE
8
BLACK
6
CONTINUOUS
10
57.8627
20
-223.8
11
57.6722
21
-223.895
0
LINE
8
BLACK
6
CONTINUOUS
10
57.6722
20
-223.895
11
57.2912
21
-223.895
0
LINE
8
BLACK
6
CONTINUOUS
10
57.2912
20
-223.895
11
57.1008
21
-223.8
0
LINE
8
BLACK
6
CONTINUOUS
10
57.1008
20
-223.8
11
57.0055
21
-223.609
0
LINE
8
BLACK
6
CONTINUOUS
10
57.0055
20
-223.609
11
57.0055
21
-222.847
0
LINE
8
BLACK
6
CONTINUOUS
10
57.0055
20
-222.847
11
57.1008
21
-222.657
0
LINE
8
BLACK
6
CONTINUOUS
10
57.1008
20
-222.657
11
57.2912
21
-222.562
0
LINE
8
BLACK
6
CONTINUOUS
10
57.2912
20
-222.562
11
57.6722
21
-222.562
0
LINE
8
BLACK
6
CONTINUOUS
10
57.6722
20
-222.562
11
57.8627
21
-222.657
0
LINE
8
BLACK
6
CONTINUOUS
10
57.8627
20
-222.657
11
57.9579
21
-222.847
0
LINE
8
BLACK
6
CONTINUOUS
10
57.9579
20
-222.847
11
57.9579
21
-223.038
0
LINE
8
BLACK
6
CONTINUOUS
10
57.9579
20
-223.038
11
57.0055
21
-223.228
0
LINE
8
BLACK
6
CONTINUOUS
10
58.7198
20
-223.8
11
58.9103
21
-223.895
0
LINE
8
BLACK
6
CONTINUOUS
10
58.9103
20
-223.895
11
59.2912
21
-223.895
0
LINE
8
BLACK
6
CONTINUOUS
10
59.2912
20
-223.895
11
59.4817
21
-223.8
0
LINE
8
BLACK
6
CONTINUOUS
10
59.4817
20
-223.8
11
59.577
21
-223.609
0
LINE
8
BLACK
6
CONTINUOUS
10
59.577
20
-223.609
11
59.577
21
-223.514
0
LINE
8
BLACK
6
CONTINUOUS
10
59.577
20
-223.514
11
59.4817
21
-223.323
0
LINE
8
BLACK
6
CONTINUOUS
10
59.4817
20
-223.323
11
59.2912
21
-223.228
0
LINE
8
BLACK
6
CONTINUOUS
10
59.2912
20
-223.228
11
59.0055
21
-223.228
0
LINE
8
BLACK
6
CONTINUOUS
10
59.0055
20
-223.228
11
58.8151
21
-223.133
0
LINE
8
BLACK
6
CONTINUOUS
10
58.8151
20
-223.133
11
58.7198
21
-222.942
0
LINE
8
BLACK
6
CONTINUOUS
10
58.7198
20
-222.942
11
58.7198
21
-222.847
0
LINE
8
BLACK
6
CONTINUOUS
10
58.7198
20
-222.847
11
58.8151
21
-222.657
0
LINE
8
BLACK
6
CONTINUOUS
10
58.8151
20
-222.657
11
59.0055
21
-222.562
0
LINE
8
BLACK
6
CONTINUOUS
10
59.0055
20
-222.562
11
59.2912
21
-222.562
0
LINE
8
BLACK
6
CONTINUOUS
10
59.2912
20
-222.562
11
59.4817
21
-222.657
0
LINE
8
BLACK
6
CONTINUOUS
10
60.2436
20
-224.657
11
60.3389
21
-224.562
0
LINE
8
BLACK
6
CONTINUOUS
10
60.3389
20
-224.562
11
60.5293
21
-224.276
0
LINE
8
BLACK
6
CONTINUOUS
10
60.5293
20
-224.276
11
60.6246
21
-224.085
0
LINE
8
BLACK
6
CONTINUOUS
10
60.6246
20
-224.085
11
60.7198
21
-223.8
0
LINE
8
BLACK
6
CONTINUOUS
10
60.7198
20
-223.8
11
60.8151
21
-223.323
0
LINE
8
BLACK
6
CONTINUOUS
10
60.8151
20
-223.323
11
60.8151
21
-222.942
0
LINE
8
BLACK
6
CONTINUOUS
10
60.8151
20
-222.942
11
60.7198
21
-222.466
0
LINE
8
BLACK
6
CONTINUOUS
10
60.7198
20
-222.466
11
60.6246
21
-222.181
0
LINE
8
BLACK
6
CONTINUOUS
10
60.6246
20
-222.181
11
60.5293
21
-221.99
0
LINE
8
BLACK
6
CONTINUOUS
10
60.5293
20
-221.99
11
60.3389
21
-221.704
0
LINE
8
BLACK
6
CONTINUOUS
10
60.3389
20
-221.704
11
60.2436
21
-221.609
0
LINE
8
BLACK
6
CONTINUOUS
10
63.8627
20
-224.657
11
63.7674
21
-224.562
0
LINE
8
BLACK
6
CONTINUOUS
10
63.7674
20
-224.562
11
63.577
21
-224.276
0
LINE
8
BLACK
6
CONTINUOUS
10
63.577
20
-224.276
11
63.4817
21
-224.085
0
LINE
8
BLACK
6
CONTINUOUS
10
63.4817
20
-224.085
11
63.3865
21
-223.8
0
LINE
8
BLACK
6
CONTINUOUS
10
63.3865
20
-223.8
11
63.2912
21
-223.323
0
LINE
8
BLACK
6
CONTINUOUS
10
63.2912
20
-223.323
11
63.2912
21
-222.942
0
LINE
8
BLACK
6
CONTINUOUS
10
63.2912
20
-222.942
11
63.3865
21
-222.466
0
LINE
8
BLACK
6
CONTINUOUS
10
63.3865
20
-222.466
11
63.4817
21
-222.181
0
LINE
8
BLACK
6
CONTINUOUS
10
63.4817
20
-222.181
11
63.577
21
-221.99
0
LINE
8
BLACK
6
CONTINUOUS
10
63.577
20
-221.99
11
63.7674
21
-221.704
0
LINE
8
BLACK
6
CONTINUOUS
10
63.7674
20
-221.704
11
63.8627
21
-221.609
0
LINE
8
BLACK
6
CONTINUOUS
10
64.6246
20
-222.562
11
64.6246
21
-223.895
0
LINE
8
BLACK
6
CONTINUOUS
10
64.6246
20
-222.752
11
64.7198
21
-222.657
0
LINE
8
BLACK
6
CONTINUOUS
10
64.7198
20
-222.657
11
64.9103
21
-222.562
0
LINE
8
BLACK
6
CONTINUOUS
10
64.9103
20
-222.562
11
65.196
21
-222.562
0
LINE
8
BLACK
6
CONTINUOUS
10
65.196
20
-222.562
11
65.3865
21
-222.657
0
LINE
8
BLACK
6
CONTINUOUS
10
65.3865
20
-222.657
11
65.4817
21
-222.847
0
LINE
8
BLACK
6
CONTINUOUS
10
65.4817
20
-222.847
11
65.4817
21
-223.895
0
LINE
8
BLACK
6
CONTINUOUS
10
66.7198
20
-223.895
11
66.5293
21
-223.8
0
LINE
8
BLACK
6
CONTINUOUS
10
66.5293
20
-223.8
11
66.4341
21
-223.704
0
LINE
8
BLACK
6
CONTINUOUS
10
66.4341
20
-223.704
11
66.3389
21
-223.514
0
LINE
8
BLACK
6
CONTINUOUS
10
66.3389
20
-223.514
11
66.3389
21
-222.942
0
LINE
8
BLACK
6
CONTINUOUS
10
66.3389
20
-222.942
11
66.4341
21
-222.752
0
LINE
8
BLACK
6
CONTINUOUS
10
66.4341
20
-222.752
11
66.5293
21
-222.657
0
LINE
8
BLACK
6
CONTINUOUS
10
66.5293
20
-222.657
11
66.7198
21
-222.562
0
LINE
8
BLACK
6
CONTINUOUS
10
66.7198
20
-222.562
11
67.0055
21
-222.562
0
LINE
8
BLACK
6
CONTINUOUS
10
67.0055
20
-222.562
11
67.196
21
-222.657
0
LINE
8
BLACK
6
CONTINUOUS
10
67.196
20
-222.657
11
67.2912
21
-222.752
0
LINE
8
BLACK
6
CONTINUOUS
10
67.2912
20
-222.752
11
67.3865
21
-222.942
0
LINE
8
BLACK
6
CONTINUOUS
10
67.3865
20
-222.942
11
67.3865
21
-223.514
0
LINE
8
BLACK
6
CONTINUOUS
10
67.3865
20
-223.514
11
67.2912
21
-223.704
0
LINE
8
BLACK
6
CONTINUOUS
10
67.2912
20
-223.704
11
67.196
21
-223.8
0
LINE
8
BLACK
6
CONTINUOUS
10
67.196
20
-223.8
11
67.0055
21
-223.895
0
LINE
8
BLACK
6
CONTINUOUS
10
67.0055
20
-223.895
11
66.7198
21
-223.895
0
LINE
8
BLACK
6
CONTINUOUS
10
67.9579
20
-222.562
11
68.7198
21
-222.562
0
LINE
8
BLACK
6
CONTINUOUS
10
68.2436
20
-221.895
11
68.2436
21
-223.609
0
LINE
8
BLACK
6
CONTINUOUS
10
68.2436
20
-223.609
11
68.3389
21
-223.8
0
LINE
8
BLACK
6
CONTINUOUS
10
68.3389
20
-223.8
11
68.5293
21
-223.895
0
LINE
8
BLACK
6
CONTINUOUS
10
68.5293
20
-223.895
11
68.7198
21
-223.895
0
LINE
8
BLACK
6
CONTINUOUS
10
70.9103
20
-222.562
11
70.9103
21
-224.562
0
LINE
8
BLACK
6
CONTINUOUS
10
70.9103
20
-222.657
11
71.1008
21
-222.562
0
LINE
8
BLACK
6
CONTINUOUS
10
71.1008
20
-222.562
11
71.4817
21
-222.562
0
LINE
8
BLACK
6
CONTINUOUS
10
71.4817
20
-222.562
11
71.6722
21
-222.657
0
LINE
8
BLACK
6
CONTINUOUS
10
71.6722
20
-222.657
11
71.7674
21
-222.752
0
LINE
8
BLACK
6
CONTINUOUS
10
71.7674
20
-222.752
11
71.8627
21
-222.942
0
LINE
8
BLACK
6
CONTINUOUS
10
71.8627
20
-222.942
11
71.8627
21
-223.514
0
LINE
8
BLACK
6
CONTINUOUS
10
71.8627
20
-223.514
11
71.7674
21
-223.704
0
LINE
8
BLACK
6
CONTINUOUS
10
71.7674
20
-223.704
11
71.6722
21
-223.8
0
LINE
8
BLACK
6
CONTINUOUS
10
71.6722
20
-223.8
11
71.4817
21
-223.895
0
LINE
8
BLACK
6
CONTINUOUS
10
71.4817
20
-223.895
11
71.1008
21
-223.895
0
LINE
8
BLACK
6
CONTINUOUS
10
71.1008
20
-223.895
11
70.9103
21
-223.8
0
LINE
8
BLACK
6
CONTINUOUS
10
73.0055
20
-223.895
11
72.8151
21
-223.8
0
LINE
8
BLACK
6
CONTINUOUS
10
72.8151
20
-223.8
11
72.7198
21
-223.609
0
LINE
8
BLACK
6
CONTINUOUS
10
72.7198
20
-223.609
11
72.7198
21
-221.895
0
LINE
8
BLACK
6
CONTINUOUS
10
74.6246
20
-223.895
11
74.6246
21
-222.847
0
LINE
8
BLACK
6
CONTINUOUS
10
74.6246
20
-222.847
11
74.5293
21
-222.657
0
LINE
8
BLACK
6
CONTINUOUS
10
74.5293
20
-222.657
11
74.3389
21
-222.562
0
LINE
8
BLACK
6
CONTINUOUS
10
74.3389
20
-222.562
11
73.9579
21
-222.562
0
LINE
8
BLACK
6
CONTINUOUS
10
73.9579
20
-222.562
11
73.7674
21
-222.657
0
LINE
8
BLACK
6
CONTINUOUS
10
74.6246
20
-223.8
11
74.4341
21
-223.895
0
LINE
8
BLACK
6
CONTINUOUS
10
74.4341
20
-223.895
11
73.9579
21
-223.895
0
LINE
8
BLACK
6
CONTINUOUS
10
73.9579
20
-223.895
11
73.7674
21
-223.8
0
LINE
8
BLACK
6
CONTINUOUS
10
73.7674
20
-223.8
11
73.6722
21
-223.609
0
LINE
8
BLACK
6
CONTINUOUS
10
73.6722
20
-223.609
11
73.6722
21
-223.419
0
LINE
8
BLACK
6
CONTINUOUS
10
73.6722
20
-223.419
11
73.7674
21
-223.228
0
LINE
8
BLACK
6
CONTINUOUS
10
73.7674
20
-223.228
11
73.9579
21
-223.133
0
LINE
8
BLACK
6
CONTINUOUS
10
73.9579
20
-223.133
11
74.4341
21
-223.133
0
LINE
8
BLACK
6
CONTINUOUS
10
74.4341
20
-223.133
11
74.6246
21
-223.038
0
LINE
8
BLACK
6
CONTINUOUS
10
75.2912
20
-222.562
11
76.0532
21
-222.562
0
LINE
8
BLACK
6
CONTINUOUS
10
75.577
20
-221.895
11
75.577
21
-223.609
0
LINE
8
BLACK
6
CONTINUOUS
10
75.577
20
-223.609
11
75.6722
21
-223.8
0
LINE
8
BLACK
6
CONTINUOUS
10
75.6722
20
-223.8
11
75.8627
21
-223.895
0
LINE
8
BLACK
6
CONTINUOUS
10
75.8627
20
-223.895
11
76.0532
21
-223.895
0
LINE
8
BLACK
6
CONTINUOUS
10
77.4817
20
-223.8
11
77.2912
21
-223.895
0
LINE
8
BLACK
6
CONTINUOUS
10
77.2912
20
-223.895
11
76.9103
21
-223.895
0
LINE
8
BLACK
6
CONTINUOUS
10
76.9103
20
-223.895
11
76.7198
21
-223.8
0
LINE
8
BLACK
6
CONTINUOUS
10
76.7198
20
-223.8
11
76.6246
21
-223.609
0
LINE
8
BLACK
6
CONTINUOUS
10
76.6246
20
-223.609
11
76.6246
21
-222.847
0
LINE
8
BLACK
6
CONTINUOUS
10
76.6246
20
-222.847
11
76.7198
21
-222.657
0
LINE
8
BLACK
6
CONTINUOUS
10
76.7198
20
-222.657
11
76.9103
21
-222.562
0
LINE
8
BLACK
6
CONTINUOUS
10
76.9103
20
-222.562
11
77.2912
21
-222.562
0
LINE
8
BLACK
6
CONTINUOUS
10
77.2912
20
-222.562
11
77.4817
21
-222.657
0
LINE
8
BLACK
6
CONTINUOUS
10
77.4817
20
-222.657
11
77.577
21
-222.847
0
LINE
8
BLACK
6
CONTINUOUS
10
77.577
20
-222.847
11
77.577
21
-223.038
0
LINE
8
BLACK
6
CONTINUOUS
10
77.577
20
-223.038
11
76.6246
21
-223.228
0
LINE
8
BLACK
6
CONTINUOUS
10
79.2912
20
-223.895
11
79.2912
21
-221.895
0
LINE
8
BLACK
6
CONTINUOUS
10
79.2912
20
-223.8
11
79.1008
21
-223.895
0
LINE
8
BLACK
6
CONTINUOUS
10
79.1008
20
-223.895
11
78.7198
21
-223.895
0
LINE
8
BLACK
6
CONTINUOUS
10
78.7198
20
-223.895
11
78.5293
21
-223.8
0
LINE
8
BLACK
6
CONTINUOUS
10
78.5293
20
-223.8
11
78.4341
21
-223.704
0
LINE
8
BLACK
6
CONTINUOUS
10
78.4341
20
-223.704
11
78.3389
21
-223.514
0
LINE
8
BLACK
6
CONTINUOUS
10
78.3389
20
-223.514
11
78.3389
21
-222.942
0
LINE
8
BLACK
6
CONTINUOUS
10
78.3389
20
-222.942
11
78.4341
21
-222.752
0
LINE
8
BLACK
6
CONTINUOUS
10
78.4341
20
-222.752
11
78.5293
21
-222.657
0
LINE
8
BLACK
6
CONTINUOUS
10
78.5293
20
-222.657
11
78.7198
21
-222.562
0
LINE
8
BLACK
6
CONTINUOUS
10
78.7198
20
-222.562
11
79.1008
21
-222.562
0
LINE
8
BLACK
6
CONTINUOUS
10
79.1008
20
-222.562
11
79.2912
21
-222.657
0
LINE
8
BLACK
6
CONTINUOUS
10
80.0532
20
-224.657
11
80.1484
21
-224.562
0
LINE
8
BLACK
6
CONTINUOUS
10
80.1484
20
-224.562
11
80.3389
21
-224.276
0
LINE
8
BLACK
6
CONTINUOUS
10
80.3389
20
-224.276
11
80.4341
21
-224.085
0
LINE
8
BLACK
6
CONTINUOUS
10
80.4341
20
-224.085
11
80.5293
21
-223.8
0
LINE
8
BLACK
6
CONTINUOUS
10
80.5293
20
-223.8
11
80.6246
21
-223.323
0
LINE
8
BLACK
6
CONTINUOUS
10
80.6246
20
-223.323
11
80.6246
21
-222.942
0
LINE
8
BLACK
6
CONTINUOUS
10
80.6246
20
-222.942
11
80.5293
21
-222.466
0
LINE
8
BLACK
6
CONTINUOUS
10
80.5293
20
-222.466
11
80.4341
21
-222.181
0
LINE
8
BLACK
6
CONTINUOUS
10
80.4341
20
-222.181
11
80.3389
21
-221.99
0
LINE
8
BLACK
6
CONTINUOUS
10
80.3389
20
-221.99
11
80.1484
21
-221.704
0
LINE
8
BLACK
6
CONTINUOUS
10
80.1484
20
-221.704
11
80.0532
21
-221.609
0
CIRCLE
8
BLACK
10
11.593
20
-225.68
40
0.9
0
LINE
8
BLACK
6
CONTINUOUS
10
16.1484
20
-226.595
11
15.0055
21
-226.595
0
LINE
8
BLACK
6
CONTINUOUS
10
15.577
20
-226.595
11
15.577
21
-224.595
0
LINE
8
BLACK
6
CONTINUOUS
10
15.577
20
-224.595
11
15.3865
21
-224.881
0
LINE
8
BLACK
6
CONTINUOUS
10
15.3865
20
-224.881
11
15.196
21
-225.071
0
LINE
8
BLACK
6
CONTINUOUS
10
15.196
20
-225.071
11
15.0055
21
-225.166
0
LINE
8
BLACK
6
CONTINUOUS
10
17.0055
20
-226.404
11
17.1008
21
-226.5
0
LINE
8
BLACK
6
CONTINUOUS
10
17.1008
20
-226.5
11
17.0055
21
-226.595
0
LINE
8
BLACK
6
CONTINUOUS
10
17.0055
20
-226.595
11
16.9103
21
-226.5
0
LINE
8
BLACK
6
CONTINUOUS
10
16.9103
20
-226.5
11
17.0055
21
-226.404
0
LINE
8
BLACK
6
CONTINUOUS
10
17.0055
20
-226.404
11
17.0055
21
-226.595
0
LINE
8
BLACK
6
CONTINUOUS
10
18.2436
20
-225.452
11
18.0531
21
-225.357
0
LINE
8
BLACK
6
CONTINUOUS
10
18.0531
20
-225.357
11
17.9579
21
-225.262
0
LINE
8
BLACK
6
CONTINUOUS
10
17.9579
20
-225.262
11
17.8627
21
-225.071
0
LINE
8
BLACK
6
CONTINUOUS
10
17.8627
20
-225.071
11
17.8627
21
-224.976
0
LINE
8
BLACK
6
CONTINUOUS
10
17.8627
20
-224.976
11
17.9579
21
-224.785
0
LINE
8
BLACK
6
CONTINUOUS
10
17.9579
20
-224.785
11
18.0531
21
-224.69
0
LINE
8
BLACK
6
CONTINUOUS
10
18.0531
20
-224.69
11
18.2436
21
-224.595
0
LINE
8
BLACK
6
CONTINUOUS
10
18.2436
20
-224.595
11
18.6246
21
-224.595
0
LINE
8
BLACK
6
CONTINUOUS
10
18.6246
20
-224.595
11
18.8151
21
-224.69
0
LINE
8
BLACK
6
CONTINUOUS
10
18.8151
20
-224.69
11
18.9103
21
-224.785
0
LINE
8
BLACK
6
CONTINUOUS
10
18.9103
20
-224.785
11
19.0055
21
-224.976
0
LINE
8
BLACK
6
CONTINUOUS
10
19.0055
20
-224.976
11
19.0055
21
-225.071
0
LINE
8
BLACK
6
CONTINUOUS
10
19.0055
20
-225.071
11
18.9103
21
-225.262
0
LINE
8
BLACK
6
CONTINUOUS
10
18.9103
20
-225.262
11
18.8151
21
-225.357
0
LINE
8
BLACK
6
CONTINUOUS
10
18.8151
20
-225.357
11
18.6246
21
-225.452
0
LINE
8
BLACK
6
CONTINUOUS
10
18.6246
20
-225.452
11
18.2436
21
-225.452
0
LINE
8
BLACK
6
CONTINUOUS
10
18.2436
20
-225.452
11
18.0531
21
-225.547
0
LINE
8
BLACK
6
CONTINUOUS
10
18.0531
20
-225.547
11
17.9579
21
-225.642
0
LINE
8
BLACK
6
CONTINUOUS
10
17.9579
20
-225.642
11
17.8627
21
-225.833
0
LINE
8
BLACK
6
CONTINUOUS
10
17.8627
20
-225.833
11
17.8627
21
-226.214
0
LINE
8
BLACK
6
CONTINUOUS
10
17.8627
20
-226.214
11
17.9579
21
-226.404
0
LINE
8
BLACK
6
CONTINUOUS
10
17.9579
20
-226.404
11
18.0531
21
-226.5
0
LINE
8
BLACK
6
CONTINUOUS
10
18.0531
20
-226.5
11
18.2436
21
-226.595
0
LINE
8
BLACK
6
CONTINUOUS
10
18.2436
20
-226.595
11
18.6246
21
-226.595
0
LINE
8
BLACK
6
CONTINUOUS
10
18.6246
20
-226.595
11
18.8151
21
-226.5
0
LINE
8
BLACK
6
CONTINUOUS
10
18.8151
20
-226.5
11
18.9103
21
-226.404
0
LINE
8
BLACK
6
CONTINUOUS
10
18.9103
20
-226.404
11
19.0055
21
-226.214
0
LINE
8
BLACK
6
CONTINUOUS
10
19.0055
20
-226.214
11
19.0055
21
-225.833
0
LINE
8
BLACK
6
CONTINUOUS
10
19.0055
20
-225.833
11
18.9103
21
-225.642
0
LINE
8
BLACK
6
CONTINUOUS
10
18.9103
20
-225.642
11
18.8151
21
-225.547
0
LINE
8
BLACK
6
CONTINUOUS
10
18.8151
20
-225.547
11
18.6246
21
-225.452
0
LINE
8
BLACK
6
CONTINUOUS
10
20.2436
20
-224.595
11
20.4341
21
-224.595
0
LINE
8
BLACK
6
CONTINUOUS
10
20.4341
20
-224.595
11
20.6246
21
-224.69
0
LINE
8
BLACK
6
CONTINUOUS
10
20.6246
20
-224.69
11
20.7198
21
-224.785
0
LINE
8
BLACK
6
CONTINUOUS
10
20.7198
20
-224.785
11
20.8151
21
-224.976
0
LINE
8
BLACK
6
CONTINUOUS
10
20.8151
20
-224.976
11
20.9103
21
-225.357
0
LINE
8
BLACK
6
CONTINUOUS
10
20.9103
20
-225.357
11
20.9103
21
-225.833
0
LINE
8
BLACK
6
CONTINUOUS
10
20.9103
20
-225.833
11
20.8151
21
-226.214
0
LINE
8
BLACK
6
CONTINUOUS
10
20.8151
20
-226.214
11
20.7198
21
-226.404
0
LINE
8
BLACK
6
CONTINUOUS
10
20.7198
20
-226.404
11
20.6246
21
-226.5
0
LINE
8
BLACK
6
CONTINUOUS
10
20.6246
20
-226.5
11
20.4341
21
-226.595
0
LINE
8
BLACK
6
CONTINUOUS
10
20.4341
20
-226.595
11
20.2436
21
-226.595
0
LINE
8
BLACK
6
CONTINUOUS
10
20.2436
20
-226.595
11
20.0531
21
-226.5
0
LINE
8
BLACK
6
CONTINUOUS
10
20.0531
20
-226.5
11
19.9579
21
-226.404
0
LINE
8
BLACK
6
CONTINUOUS
10
19.9579
20
-226.404
11
19.8627
21
-226.214
0
LINE
8
BLACK
6
CONTINUOUS
10
19.8627
20
-226.214
11
19.7674
21
-225.833
0
LINE
8
BLACK
6
CONTINUOUS
10
19.7674
20
-225.833
11
19.7674
21
-225.357
0
LINE
8
BLACK
6
CONTINUOUS
10
19.7674
20
-225.357
11
19.8627
21
-224.976
0
LINE
8
BLACK
6
CONTINUOUS
10
19.8627
20
-224.976
11
19.9579
21
-224.785
0
LINE
8
BLACK
6
CONTINUOUS
10
19.9579
20
-224.785
11
20.0531
21
-224.69
0
LINE
8
BLACK
6
CONTINUOUS
10
20.0531
20
-224.69
11
20.2436
21
-224.595
0
LINE
8
BLACK
6
CONTINUOUS
10
22.1484
20
-224.595
11
22.3389
21
-224.595
0
LINE
8
BLACK
6
CONTINUOUS
10
22.3389
20
-224.595
11
22.5293
21
-224.69
0
LINE
8
BLACK
6
CONTINUOUS
10
22.5293
20
-224.69
11
22.6246
21
-224.785
0
LINE
8
BLACK
6
CONTINUOUS
10
22.6246
20
-224.785
11
22.7198
21
-224.976
0
LINE
8
BLACK
6
CONTINUOUS
10
22.7198
20
-224.976
11
22.8151
21
-225.357
0
LINE
8
BLACK
6
CONTINUOUS
10
22.8151
20
-225.357
11
22.8151
21
-225.833
0
LINE
8
BLACK
6
CONTINUOUS
10
22.8151
20
-225.833
11
22.7198
21
-226.214
0
LINE
8
BLACK
6
CONTINUOUS
10
22.7198
20
-226.214
11
22.6246
21
-226.404
0
LINE
8
BLACK
6
CONTINUOUS
10
22.6246
20
-226.404
11
22.5293
21
-226.5
0
LINE
8
BLACK
6
CONTINUOUS
10
22.5293
20
-226.5
11
22.3389
21
-226.595
0
LINE
8
BLACK
6
CONTINUOUS
10
22.3389
20
-226.595
11
22.1484
21
-226.595
0
LINE
8
BLACK
6
CONTINUOUS
10
22.1484
20
-226.595
11
21.9579
21
-226.5
0
LINE
8
BLACK
6
CONTINUOUS
10
21.9579
20
-226.5
11
21.8627
21
-226.404
0
LINE
8
BLACK
6
CONTINUOUS
10
21.8627
20
-226.404
11
21.7674
21
-226.214
0
LINE
8
BLACK
6
CONTINUOUS
10
21.7674
20
-226.214
11
21.6722
21
-225.833
0
LINE
8
BLACK
6
CONTINUOUS
10
21.6722
20
-225.833
11
21.6722
21
-225.357
0
LINE
8
BLACK
6
CONTINUOUS
10
21.6722
20
-225.357
11
21.7674
21
-224.976
0
LINE
8
BLACK
6
CONTINUOUS
10
21.7674
20
-224.976
11
21.8627
21
-224.785
0
LINE
8
BLACK
6
CONTINUOUS
10
21.8627
20
-224.785
11
21.9579
21
-224.69
0
LINE
8
BLACK
6
CONTINUOUS
10
21.9579
20
-224.69
11
22.1484
21
-224.595
0
LINE
8
BLACK
6
CONTINUOUS
10
23.6722
20
-226.595
11
23.6722
21
-225.262
0
LINE
8
BLACK
6
CONTINUOUS
10
23.6722
20
-225.452
11
23.7674
21
-225.357
0
LINE
8
BLACK
6
CONTINUOUS
10
23.7674
20
-225.357
11
23.9579
21
-225.262
0
LINE
8
BLACK
6
CONTINUOUS
10
23.9579
20
-225.262
11
24.2436
21
-225.262
0
LINE
8
BLACK
6
CONTINUOUS
10
24.2436
20
-225.262
11
24.4341
21
-225.357
0
LINE
8
BLACK
6
CONTINUOUS
10
24.4341
20
-225.357
11
24.5293
21
-225.547
0
LINE
8
BLACK
6
CONTINUOUS
10
24.5293
20
-225.547
11
24.5293
21
-226.595
0
LINE
8
BLACK
6
CONTINUOUS
10
24.5293
20
-225.547
11
24.6246
21
-225.357
0
LINE
8
BLACK
6
CONTINUOUS
10
24.6246
20
-225.357
11
24.8151
21
-225.262
0
LINE
8
BLACK
6
CONTINUOUS
10
24.8151
20
-225.262
11
25.1008
21
-225.262
0
LINE
8
BLACK
6
CONTINUOUS
10
25.1008
20
-225.262
11
25.2912
21
-225.357
0
LINE
8
BLACK
6
CONTINUOUS
10
25.2912
20
-225.357
11
25.3865
21
-225.547
0
LINE
8
BLACK
6
CONTINUOUS
10
25.3865
20
-225.547
11
25.3865
21
-226.595
0
LINE
8
BLACK
6
CONTINUOUS
10
26.3389
20
-226.595
11
26.3389
21
-225.262
0
LINE
8
BLACK
6
CONTINUOUS
10
26.3389
20
-225.452
11
26.4341
21
-225.357
0
LINE
8
BLACK
6
CONTINUOUS
10
26.4341
20
-225.357
11
26.6246
21
-225.262
0
LINE
8
BLACK
6
CONTINUOUS
10
26.6246
20
-225.262
11
26.9103
21
-225.262
0
LINE
8
BLACK
6
CONTINUOUS
10
26.9103
20
-225.262
11
27.1008
21
-225.357
0
LINE
8
BLACK
6
CONTINUOUS
10
27.1008
20
-225.357
11
27.196
21
-225.547
0
LINE
8
BLACK
6
CONTINUOUS
10
27.196
20
-225.547
11
27.196
21
-226.595
0
LINE
8
BLACK
6
CONTINUOUS
10
27.196
20
-225.547
11
27.2912
21
-225.357
0
LINE
8
BLACK
6
CONTINUOUS
10
27.2912
20
-225.357
11
27.4817
21
-225.262
0
LINE
8
BLACK
6
CONTINUOUS
10
27.4817
20
-225.262
11
27.7674
21
-225.262
0
LINE
8
BLACK
6
CONTINUOUS
10
27.7674
20
-225.262
11
27.9579
21
-225.357
0
LINE
8
BLACK
6
CONTINUOUS
10
27.9579
20
-225.357
11
28.0531
21
-225.547
0
LINE
8
BLACK
6
CONTINUOUS
10
28.0531
20
-225.547
11
28.0531
21
-226.595
0
LINE
8
BLACK
6
CONTINUOUS
10
31.9579
20
-224.5
11
30.2436
21
-227.071
0
LINE
8
BLACK
6
CONTINUOUS
10
34.5293
20
-224.595
11
34.7198
21
-224.595
0
LINE
8
BLACK
6
CONTINUOUS
10
34.7198
20
-224.595
11
34.9103
21
-224.69
0
LINE
8
BLACK
6
CONTINUOUS
10
34.9103
20
-224.69
11
35.0055
21
-224.785
0
LINE
8
BLACK
6
CONTINUOUS
10
35.0055
20
-224.785
11
35.1008
21
-224.976
0
LINE
8
BLACK
6
CONTINUOUS
10
35.1008
20
-224.976
11
35.196
21
-225.357
0
LINE
8
BLACK
6
CONTINUOUS
10
35.196
20
-225.357
11
35.196
21
-225.833
0
LINE
8
BLACK
6
CONTINUOUS
10
35.196
20
-225.833
11
35.1008
21
-226.214
0
LINE
8
BLACK
6
CONTINUOUS
10
35.1008
20
-226.214
11
35.0055
21
-226.404
0
LINE
8
BLACK
6
CONTINUOUS
10
35.0055
20
-226.404
11
34.9103
21
-226.5
0
LINE
8
BLACK
6
CONTINUOUS
10
34.9103
20
-226.5
11
34.7198
21
-226.595
0
LINE
8
BLACK
6
CONTINUOUS
10
34.7198
20
-226.595
11
34.5293
21
-226.595
0
LINE
8
BLACK
6
CONTINUOUS
10
34.5293
20
-226.595
11
34.3389
21
-226.5
0
LINE
8
BLACK
6
CONTINUOUS
10
34.3389
20
-226.5
11
34.2436
21
-226.404
0
LINE
8
BLACK
6
CONTINUOUS
10
34.2436
20
-226.404
11
34.1484
21
-226.214
0
LINE
8
BLACK
6
CONTINUOUS
10
34.1484
20
-226.214
11
34.0532
21
-225.833
0
LINE
8
BLACK
6
CONTINUOUS
10
34.0532
20
-225.833
11
34.0532
21
-225.357
0
LINE
8
BLACK
6
CONTINUOUS
10
34.0532
20
-225.357
11
34.1484
21
-224.976
0
LINE
8
BLACK
6
CONTINUOUS
10
34.1484
20
-224.976
11
34.2436
21
-224.785
0
LINE
8
BLACK
6
CONTINUOUS
10
34.2436
20
-224.785
11
34.3389
21
-224.69
0
LINE
8
BLACK
6
CONTINUOUS
10
34.3389
20
-224.69
11
34.5293
21
-224.595
0
LINE
8
BLACK
6
CONTINUOUS
10
36.0532
20
-226.404
11
36.1484
21
-226.5
0
LINE
8
BLACK
6
CONTINUOUS
10
36.1484
20
-226.5
11
36.0532
21
-226.595
0
LINE
8
BLACK
6
CONTINUOUS
10
36.0532
20
-226.595
11
35.9579
21
-226.5
0
LINE
8
BLACK
6
CONTINUOUS
10
35.9579
20
-226.5
11
36.0532
21
-226.404
0
LINE
8
BLACK
6
CONTINUOUS
10
36.0532
20
-226.404
11
36.0532
21
-226.595
0
LINE
8
BLACK
6
CONTINUOUS
10
37.3865
20
-224.595
11
37.577
21
-224.595
0
LINE
8
BLACK
6
CONTINUOUS
10
37.577
20
-224.595
11
37.7674
21
-224.69
0
LINE
8
BLACK
6
CONTINUOUS
10
37.7674
20
-224.69
11
37.8627
21
-224.785
0
LINE
8
BLACK
6
CONTINUOUS
10
37.8627
20
-224.785
11
37.9579
21
-224.976
0
LINE
8
BLACK
6
CONTINUOUS
10
37.9579
20
-224.976
11
38.0532
21
-225.357
0
LINE
8
BLACK
6
CONTINUOUS
10
38.0532
20
-225.357
11
38.0532
21
-225.833
0
LINE
8
BLACK
6
CONTINUOUS
10
38.0532
20
-225.833
11
37.9579
21
-226.214
0
LINE
8
BLACK
6
CONTINUOUS
10
37.9579
20
-226.214
11
37.8627
21
-226.404
0
LINE
8
BLACK
6
CONTINUOUS
10
37.8627
20
-226.404
11
37.7674
21
-226.5
0
LINE
8
BLACK
6
CONTINUOUS
10
37.7674
20
-226.5
11
37.577
21
-226.595
0
LINE
8
BLACK
6
CONTINUOUS
10
37.577
20
-226.595
11
37.3865
21
-226.595
0
LINE
8
BLACK
6
CONTINUOUS
10
37.3865
20
-226.595
11
37.196
21
-226.5
0
LINE
8
BLACK
6
CONTINUOUS
10
37.196
20
-226.5
11
37.1008
21
-226.404
0
LINE
8
BLACK
6
CONTINUOUS
10
37.1008
20
-226.404
11
37.0055
21
-226.214
0
LINE
8
BLACK
6
CONTINUOUS
10
37.0055
20
-226.214
11
36.9103
21
-225.833
0
LINE
8
BLACK
6
CONTINUOUS
10
36.9103
20
-225.833
11
36.9103
21
-225.357
0
LINE
8
BLACK
6
CONTINUOUS
10
36.9103
20
-225.357
11
37.0055
21
-224.976
0
LINE
8
BLACK
6
CONTINUOUS
10
37.0055
20
-224.976
11
37.1008
21
-224.785
0
LINE
8
BLACK
6
CONTINUOUS
10
37.1008
20
-224.785
11
37.196
21
-224.69
0
LINE
8
BLACK
6
CONTINUOUS
10
37.196
20
-224.69
11
37.3865
21
-224.595
0
LINE
8
BLACK
6
CONTINUOUS
10
38.7198
20
-224.595
11
40.0532
21
-224.595
0
LINE
8
BLACK
6
CONTINUOUS
10
40.0532
20
-224.595
11
39.196
21
-226.595
0
LINE
8
BLACK
6
CONTINUOUS
10
41.196
20
-224.595
11
41.3865
21
-224.595
0
LINE
8
BLACK
6
CONTINUOUS
10
41.3865
20
-224.595
11
41.577
21
-224.69
0
LINE
8
BLACK
6
CONTINUOUS
10
41.577
20
-224.69
11
41.6722
21
-224.785
0
LINE
8
BLACK
6
CONTINUOUS
10
41.6722
20
-224.785
11
41.7674
21
-224.976
0
LINE
8
BLACK
6
CONTINUOUS
10
41.7674
20
-224.976
11
41.8627
21
-225.357
0
LINE
8
BLACK
6
CONTINUOUS
10
41.8627
20
-225.357
11
41.8627
21
-225.833
0
LINE
8
BLACK
6
CONTINUOUS
10
41.8627
20
-225.833
11
41.7674
21
-226.214
0
LINE
8
BLACK
6
CONTINUOUS
10
41.7674
20
-226.214
11
41.6722
21
-226.404
0
LINE
8
BLACK
6
CONTINUOUS
10
41.6722
20
-226.404
11
41.577
21
-226.5
0
LINE
8
BLACK
6
CONTINUOUS
10
41.577
20
-226.5
11
41.3865
21
-226.595
0
LINE
8
BLACK
6
CONTINUOUS
10
41.3865
20
-226.595
11
41.196
21
-226.595
0
LINE
8
BLACK
6
CONTINUOUS
10
41.196
20
-226.595
11
41.0055
21
-226.5
0
LINE
8
BLACK
6
CONTINUOUS
10
41.0055
20
-226.5
11
40.9103
21
-226.404
0
LINE
8
BLACK
6
CONTINUOUS
10
40.9103
20
-226.404
11
40.8151
21
-226.214
0
LINE
8
BLACK
6
CONTINUOUS
10
40.8151
20
-226.214
11
40.7198
21
-225.833
0
LINE
8
BLACK
6
CONTINUOUS
10
40.7198
20
-225.833
11
40.7198
21
-225.357
0
LINE
8
BLACK
6
CONTINUOUS
10
40.7198
20
-225.357
11
40.8151
21
-224.976
0
LINE
8
BLACK
6
CONTINUOUS
10
40.8151
20
-224.976
11
40.9103
21
-224.785
0
LINE
8
BLACK
6
CONTINUOUS
10
40.9103
20
-224.785
11
41.0055
21
-224.69
0
LINE
8
BLACK
6
CONTINUOUS
10
41.0055
20
-224.69
11
41.196
21
-224.595
0
LINE
8
BLACK
6
CONTINUOUS
10
42.8151
20
-226.595
11
43.196
21
-226.595
0
LINE
8
BLACK
6
CONTINUOUS
10
43.196
20
-226.595
11
43.3865
21
-226.5
0
LINE
8
BLACK
6
CONTINUOUS
10
43.3865
20
-226.5
11
43.4817
21
-226.404
0
LINE
8
BLACK
6
CONTINUOUS
10
43.4817
20
-226.404
11
43.6722
21
-226.119
0
LINE
8
BLACK
6
CONTINUOUS
10
43.6722
20
-226.119
11
43.7674
21
-225.738
0
LINE
8
BLACK
6
CONTINUOUS
10
43.7674
20
-225.738
11
43.7674
21
-224.976
0
LINE
8
BLACK
6
CONTINUOUS
10
43.7674
20
-224.976
11
43.6722
21
-224.785
0
LINE
8
BLACK
6
CONTINUOUS
10
43.6722
20
-224.785
11
43.577
21
-224.69
0
LINE
8
BLACK
6
CONTINUOUS
10
43.577
20
-224.69
11
43.3865
21
-224.595
0
LINE
8
BLACK
6
CONTINUOUS
10
43.3865
20
-224.595
11
43.0055
21
-224.595
0
LINE
8
BLACK
6
CONTINUOUS
10
43.0055
20
-224.595
11
42.8151
21
-224.69
0
LINE
8
BLACK
6
CONTINUOUS
10
42.8151
20
-224.69
11
42.7198
21
-224.785
0
LINE
8
BLACK
6
CONTINUOUS
10
42.7198
20
-224.785
11
42.6246
21
-224.976
0
LINE
8
BLACK
6
CONTINUOUS
10
42.6246
20
-224.976
11
42.6246
21
-225.452
0
LINE
8
BLACK
6
CONTINUOUS
10
42.6246
20
-225.452
11
42.7198
21
-225.642
0
LINE
8
BLACK
6
CONTINUOUS
10
42.7198
20
-225.642
11
42.8151
21
-225.738
0
LINE
8
BLACK
6
CONTINUOUS
10
42.8151
20
-225.738
11
43.0055
21
-225.833
0
LINE
8
BLACK
6
CONTINUOUS
10
43.0055
20
-225.833
11
43.3865
21
-225.833
0
LINE
8
BLACK
6
CONTINUOUS
10
43.3865
20
-225.833
11
43.577
21
-225.738
0
LINE
8
BLACK
6
CONTINUOUS
10
43.577
20
-225.738
11
43.6722
21
-225.642
0
LINE
8
BLACK
6
CONTINUOUS
10
43.6722
20
-225.642
11
43.7674
21
-225.452
0
LINE
8
BLACK
6
CONTINUOUS
10
44.5293
20
-224.595
11
44.5293
21
-224.976
0
LINE
8
BLACK
6
CONTINUOUS
10
45.2912
20
-224.595
11
45.2912
21
-224.976
0
LINE
8
BLACK
6
CONTINUOUS
10
48.2436
20
-227.357
11
48.1484
21
-227.262
0
LINE
8
BLACK
6
CONTINUOUS
10
48.1484
20
-227.262
11
47.9579
21
-226.976
0
LINE
8
BLACK
6
CONTINUOUS
10
47.9579
20
-226.976
11
47.8627
21
-226.785
0
LINE
8
BLACK
6
CONTINUOUS
10
47.8627
20
-226.785
11
47.7674
21
-226.5
0
LINE
8
BLACK
6
CONTINUOUS
10
47.7674
20
-226.5
11
47.6722
21
-226.023
0
LINE
8
BLACK
6
CONTINUOUS
10
47.6722
20
-226.023
11
47.6722
21
-225.642
0
LINE
8
BLACK
6
CONTINUOUS
10
47.6722
20
-225.642
11
47.7674
21
-225.166
0
LINE
8
BLACK
6
CONTINUOUS
10
47.7674
20
-225.166
11
47.8627
21
-224.881
0
LINE
8
BLACK
6
CONTINUOUS
10
47.8627
20
-224.881
11
47.9579
21
-224.69
0
LINE
8
BLACK
6
CONTINUOUS
10
47.9579
20
-224.69
11
48.1484
21
-224.404
0
LINE
8
BLACK
6
CONTINUOUS
10
48.1484
20
-224.404
11
48.2436
21
-224.309
0
LINE
8
BLACK
6
CONTINUOUS
10
49.2912
20
-225.452
11
49.1008
21
-225.357
0
LINE
8
BLACK
6
CONTINUOUS
10
49.1008
20
-225.357
11
49.0055
21
-225.262
0
LINE
8
BLACK
6
CONTINUOUS
10
49.0055
20
-225.262
11
48.9103
21
-225.071
0
LINE
8
BLACK
6
CONTINUOUS
10
48.9103
20
-225.071
11
48.9103
21
-224.976
0
LINE
8
BLACK
6
CONTINUOUS
10
48.9103
20
-224.976
11
49.0055
21
-224.785
0
LINE
8
BLACK
6
CONTINUOUS
10
49.0055
20
-224.785
11
49.1008
21
-224.69
0
LINE
8
BLACK
6
CONTINUOUS
10
49.1008
20
-224.69
11
49.2912
21
-224.595
0
LINE
8
BLACK
6
CONTINUOUS
10
49.2912
20
-224.595
11
49.6722
21
-224.595
0
LINE
8
BLACK
6
CONTINUOUS
10
49.6722
20
-224.595
11
49.8627
21
-224.69
0
LINE
8
BLACK
6
CONTINUOUS
10
49.8627
20
-224.69
11
49.9579
21
-224.785
0
LINE
8
BLACK
6
CONTINUOUS
10
49.9579
20
-224.785
11
50.0532
21
-224.976
0
LINE
8
BLACK
6
CONTINUOUS
10
50.0532
20
-224.976
11
50.0532
21
-225.071
0
LINE
8
BLACK
6
CONTINUOUS
10
50.0532
20
-225.071
11
49.9579
21
-225.262
0
LINE
8
BLACK
6
CONTINUOUS
10
49.9579
20
-225.262
11
49.8627
21
-225.357
0
LINE
8
BLACK
6
CONTINUOUS
10
49.8627
20
-225.357
11
49.6722
21
-225.452
0
LINE
8
BLACK
6
CONTINUOUS
10
49.6722
20
-225.452
11
49.2912
21
-225.452
0
LINE
8
BLACK
6
CONTINUOUS
10
49.2912
20
-225.452
11
49.1008
21
-225.547
0
LINE
8
BLACK
6
CONTINUOUS
10
49.1008
20
-225.547
11
49.0055
21
-225.642
0
LINE
8
BLACK
6
CONTINUOUS
10
49.0055
20
-225.642
11
48.9103
21
-225.833
0
LINE
8
BLACK
6
CONTINUOUS
10
48.9103
20
-225.833
11
48.9103
21
-226.214
0
LINE
8
BLACK
6
CONTINUOUS
10
48.9103
20
-226.214
11
49.0055
21
-226.404
0
LINE
8
BLACK
6
CONTINUOUS
10
49.0055
20
-226.404
11
49.1008
21
-226.5
0
LINE
8
BLACK
6
CONTINUOUS
10
49.1008
20
-226.5
11
49.2912
21
-226.595
0
LINE
8
BLACK
6
CONTINUOUS
10
49.2912
20
-226.595
11
49.6722
21
-226.595
0
LINE
8
BLACK
6
CONTINUOUS
10
49.6722
20
-226.595
11
49.8627
21
-226.5
0
LINE
8
BLACK
6
CONTINUOUS
10
49.8627
20
-226.5
11
49.9579
21
-226.404
0
LINE
8
BLACK
6
CONTINUOUS
10
49.9579
20
-226.404
11
50.0532
21
-226.214
0
LINE
8
BLACK
6
CONTINUOUS
10
50.0532
20
-226.214
11
50.0532
21
-225.833
0
LINE
8
BLACK
6
CONTINUOUS
10
50.0532
20
-225.833
11
49.9579
21
-225.642
0
LINE
8
BLACK
6
CONTINUOUS
10
49.9579
20
-225.642
11
49.8627
21
-225.547
0
LINE
8
BLACK
6
CONTINUOUS
10
49.8627
20
-225.547
11
49.6722
21
-225.452
0
LINE
8
BLACK
6
CONTINUOUS
10
52.4341
20
-226.595
11
52.4341
21
-224.595
0
LINE
8
BLACK
6
CONTINUOUS
10
53.2912
20
-226.595
11
53.2912
21
-225.547
0
LINE
8
BLACK
6
CONTINUOUS
10
53.2912
20
-225.547
11
53.196
21
-225.357
0
LINE
8
BLACK
6
CONTINUOUS
10
53.196
20
-225.357
11
53.0055
21
-225.262
0
LINE
8
BLACK
6
CONTINUOUS
10
53.0055
20
-225.262
11
52.7198
21
-225.262
0
LINE
8
BLACK
6
CONTINUOUS
10
52.7198
20
-225.262
11
52.5293
21
-225.357
0
LINE
8
BLACK
6
CONTINUOUS
10
52.5293
20
-225.357
11
52.4341
21
-225.452
0
LINE
8
BLACK
6
CONTINUOUS
10
54.5293
20
-226.595
11
54.3389
21
-226.5
0
LINE
8
BLACK
6
CONTINUOUS
10
54.3389
20
-226.5
11
54.2436
21
-226.404
0
LINE
8
BLACK
6
CONTINUOUS
10
54.2436
20
-226.404
11
54.1484
21
-226.214
0
LINE
8
BLACK
6
CONTINUOUS
10
54.1484
20
-226.214
11
54.1484
21
-225.642
0
LINE
8
BLACK
6
CONTINUOUS
10
54.1484
20
-225.642
11
54.2436
21
-225.452
0
LINE
8
BLACK
6
CONTINUOUS
10
54.2436
20
-225.452
11
54.3389
21
-225.357
0
LINE
8
BLACK
6
CONTINUOUS
10
54.3389
20
-225.357
11
54.5293
21
-225.262
0
LINE
8
BLACK
6
CONTINUOUS
10
54.5293
20
-225.262
11
54.8151
21
-225.262
0
LINE
8
BLACK
6
CONTINUOUS
10
54.8151
20
-225.262
11
55.0055
21
-225.357
0
LINE
8
BLACK
6
CONTINUOUS
10
55.0055
20
-225.357
11
55.1008
21
-225.452
0
LINE
8
BLACK
6
CONTINUOUS
10
55.1008
20
-225.452
11
55.196
21
-225.642
0
LINE
8
BLACK
6
CONTINUOUS
10
55.196
20
-225.642
11
55.196
21
-226.214
0
LINE
8
BLACK
6
CONTINUOUS
10
55.196
20
-226.214
11
55.1008
21
-226.404
0
LINE
8
BLACK
6
CONTINUOUS
10
55.1008
20
-226.404
11
55.0055
21
-226.5
0
LINE
8
BLACK
6
CONTINUOUS
10
55.0055
20
-226.5
11
54.8151
21
-226.595
0
LINE
8
BLACK
6
CONTINUOUS
10
54.8151
20
-226.595
11
54.5293
21
-226.595
0
LINE
8
BLACK
6
CONTINUOUS
10
56.3389
20
-226.595
11
56.1484
21
-226.5
0
LINE
8
BLACK
6
CONTINUOUS
10
56.1484
20
-226.5
11
56.0532
21
-226.309
0
LINE
8
BLACK
6
CONTINUOUS
10
56.0532
20
-226.309
11
56.0532
21
-224.595
0
LINE
8
BLACK
6
CONTINUOUS
10
57.8627
20
-226.5
11
57.6722
21
-226.595
0
LINE
8
BLACK
6
CONTINUOUS
10
57.6722
20
-226.595
11
57.2912
21
-226.595
0
LINE
8
BLACK
6
CONTINUOUS
10
57.2912
20
-226.595
11
57.1008
21
-226.5
0
LINE
8
BLACK
6
CONTINUOUS
10
57.1008
20
-226.5
11
57.0055
21
-226.309
0
LINE
8
BLACK
6
CONTINUOUS
10
57.0055
20
-226.309
11
57.0055
21
-225.547
0
LINE
8
BLACK
6
CONTINUOUS
10
57.0055
20
-225.547
11
57.1008
21
-225.357
0
LINE
8
BLACK
6
CONTINUOUS
10
57.1008
20
-225.357
11
57.2912
21
-225.262
0
LINE
8
BLACK
6
CONTINUOUS
10
57.2912
20
-225.262
11
57.6722
21
-225.262
0
LINE
8
BLACK
6
CONTINUOUS
10
57.6722
20
-225.262
11
57.8627
21
-225.357
0
LINE
8
BLACK
6
CONTINUOUS
10
57.8627
20
-225.357
11
57.9579
21
-225.547
0
LINE
8
BLACK
6
CONTINUOUS
10
57.9579
20
-225.547
11
57.9579
21
-225.738
0
LINE
8
BLACK
6
CONTINUOUS
10
57.9579
20
-225.738
11
57.0055
21
-225.928
0
LINE
8
BLACK
6
CONTINUOUS
10
58.7198
20
-226.5
11
58.9103
21
-226.595
0
LINE
8
BLACK
6
CONTINUOUS
10
58.9103
20
-226.595
11
59.2912
21
-226.595
0
LINE
8
BLACK
6
CONTINUOUS
10
59.2912
20
-226.595
11
59.4817
21
-226.5
0
LINE
8
BLACK
6
CONTINUOUS
10
59.4817
20
-226.5
11
59.577
21
-226.309
0
LINE
8
BLACK
6
CONTINUOUS
10
59.577
20
-226.309
11
59.577
21
-226.214
0
LINE
8
BLACK
6
CONTINUOUS
10
59.577
20
-226.214
11
59.4817
21
-226.023
0
LINE
8
BLACK
6
CONTINUOUS
10
59.4817
20
-226.023
11
59.2912
21
-225.928
0
LINE
8
BLACK
6
CONTINUOUS
10
59.2912
20
-225.928
11
59.0055
21
-225.928
0
LINE
8
BLACK
6
CONTINUOUS
10
59.0055
20
-225.928
11
58.8151
21
-225.833
0
LINE
8
BLACK
6
CONTINUOUS
10
58.8151
20
-225.833
11
58.7198
21
-225.642
0
LINE
8
BLACK
6
CONTINUOUS
10
58.7198
20
-225.642
11
58.7198
21
-225.547
0
LINE
8
BLACK
6
CONTINUOUS
10
58.7198
20
-225.547
11
58.8151
21
-225.357
0
LINE
8
BLACK
6
CONTINUOUS
10
58.8151
20
-225.357
11
59.0055
21
-225.262
0
LINE
8
BLACK
6
CONTINUOUS
10
59.0055
20
-225.262
11
59.2912
21
-225.262
0
LINE
8
BLACK
6
CONTINUOUS
10
59.2912
20
-225.262
11
59.4817
21
-225.357
0
LINE
8
BLACK
6
CONTINUOUS
10
60.2436
20
-227.357
11
60.3389
21
-227.262
0
LINE
8
BLACK
6
CONTINUOUS
10
60.3389
20
-227.262
11
60.5293
21
-226.976
0
LINE
8
BLACK
6
CONTINUOUS
10
60.5293
20
-226.976
11
60.6246
21
-226.785
0
LINE
8
BLACK
6
CONTINUOUS
10
60.6246
20
-226.785
11
60.7198
21
-226.5
0
LINE
8
BLACK
6
CONTINUOUS
10
60.7198
20
-226.5
11
60.8151
21
-226.023
0
LINE
8
BLACK
6
CONTINUOUS
10
60.8151
20
-226.023
11
60.8151
21
-225.642
0
LINE
8
BLACK
6
CONTINUOUS
10
60.8151
20
-225.642
11
60.7198
21
-225.166
0
LINE
8
BLACK
6
CONTINUOUS
10
60.7198
20
-225.166
11
60.6246
21
-224.881
0
LINE
8
BLACK
6
CONTINUOUS
10
60.6246
20
-224.881
11
60.5293
21
-224.69
0
LINE
8
BLACK
6
CONTINUOUS
10
60.5293
20
-224.69
11
60.3389
21
-224.404
0
LINE
8
BLACK
6
CONTINUOUS
10
60.3389
20
-224.404
11
60.2436
21
-224.309
0
LINE
8
BLACK
6
CONTINUOUS
10
63.8627
20
-227.357
11
63.7674
21
-227.262
0
LINE
8
BLACK
6
CONTINUOUS
10
63.7674
20
-227.262
11
63.577
21
-226.976
0
LINE
8
BLACK
6
CONTINUOUS
10
63.577
20
-226.976
11
63.4817
21
-226.785
0
LINE
8
BLACK
6
CONTINUOUS
10
63.4817
20
-226.785
11
63.3865
21
-226.5
0
LINE
8
BLACK
6
CONTINUOUS
10
63.3865
20
-226.5
11
63.2912
21
-226.023
0
LINE
8
BLACK
6
CONTINUOUS
10
63.2912
20
-226.023
11
63.2912
21
-225.642
0
LINE
8
BLACK
6
CONTINUOUS
10
63.2912
20
-225.642
11
63.3865
21
-225.166
0
LINE
8
BLACK
6
CONTINUOUS
10
63.3865
20
-225.166
11
63.4817
21
-224.881
0
LINE
8
BLACK
6
CONTINUOUS
10
63.4817
20
-224.881
11
63.577
21
-224.69
0
LINE
8
BLACK
6
CONTINUOUS
10
63.577
20
-224.69
11
63.7674
21
-224.404
0
LINE
8
BLACK
6
CONTINUOUS
10
63.7674
20
-224.404
11
63.8627
21
-224.309
0
LINE
8
BLACK
6
CONTINUOUS
10
64.6246
20
-225.262
11
64.6246
21
-226.595
0
LINE
8
BLACK
6
CONTINUOUS
10
64.6246
20
-225.452
11
64.7198
21
-225.357
0
LINE
8
BLACK
6
CONTINUOUS
10
64.7198
20
-225.357
11
64.9103
21
-225.262
0
LINE
8
BLACK
6
CONTINUOUS
10
64.9103
20
-225.262
11
65.196
21
-225.262
0
LINE
8
BLACK
6
CONTINUOUS
10
65.196
20
-225.262
11
65.3865
21
-225.357
0
LINE
8
BLACK
6
CONTINUOUS
10
65.3865
20
-225.357
11
65.4817
21
-225.547
0
LINE
8
BLACK
6
CONTINUOUS
10
65.4817
20
-225.547
11
65.4817
21
-226.595
0
LINE
8
BLACK
6
CONTINUOUS
10
66.7198
20
-226.595
11
66.5293
21
-226.5
0
LINE
8
BLACK
6
CONTINUOUS
10
66.5293
20
-226.5
11
66.4341
21
-226.404
0
LINE
8
BLACK
6
CONTINUOUS
10
66.4341
20
-226.404
11
66.3389
21
-226.214
0
LINE
8
BLACK
6
CONTINUOUS
10
66.3389
20
-226.214
11
66.3389
21
-225.642
0
LINE
8
BLACK
6
CONTINUOUS
10
66.3389
20
-225.642
11
66.4341
21
-225.452
0
LINE
8
BLACK
6
CONTINUOUS
10
66.4341
20
-225.452
11
66.5293
21
-225.357
0
LINE
8
BLACK
6
CONTINUOUS
10
66.5293
20
-225.357
11
66.7198
21
-225.262
0
LINE
8
BLACK
6
CONTINUOUS
10
66.7198
20
-225.262
11
67.0055
21
-225.262
0
LINE
8
BLACK
6
CONTINUOUS
10
67.0055
20
-225.262
11
67.196
21
-225.357
0
LINE
8
BLACK
6
CONTINUOUS
10
67.196
20
-225.357
11
67.2912
21
-225.452
0
LINE
8
BLACK
6
CONTINUOUS
10
67.2912
20
-225.452
11
67.3865
21
-225.642
0
LINE
8
BLACK
6
CONTINUOUS
10
67.3865
20
-225.642
11
67.3865
21
-226.214
0
LINE
8
BLACK
6
CONTINUOUS
10
67.3865
20
-226.214
11
67.2912
21
-226.404
0
LINE
8
BLACK
6
CONTINUOUS
10
67.2912
20
-226.404
11
67.196
21
-226.5
0
LINE
8
BLACK
6
CONTINUOUS
10
67.196
20
-226.5
11
67.0055
21
-226.595
0
LINE
8
BLACK
6
CONTINUOUS
10
67.0055
20
-226.595
11
66.7198
21
-226.595
0
LINE
8
BLACK
6
CONTINUOUS
10
67.9579
20
-225.262
11
68.7198
21
-225.262
0
LINE
8
BLACK
6
CONTINUOUS
10
68.2436
20
-224.595
11
68.2436
21
-226.309
0
LINE
8
BLACK
6
CONTINUOUS
10
68.2436
20
-226.309
11
68.3389
21
-226.5
0
LINE
8
BLACK
6
CONTINUOUS
10
68.3389
20
-226.5
11
68.5293
21
-226.595
0
LINE
8
BLACK
6
CONTINUOUS
10
68.5293
20
-226.595
11
68.7198
21
-226.595
0
LINE
8
BLACK
6
CONTINUOUS
10
70.9103
20
-225.262
11
70.9103
21
-227.262
0
LINE
8
BLACK
6
CONTINUOUS
10
70.9103
20
-225.357
11
71.1008
21
-225.262
0
LINE
8
BLACK
6
CONTINUOUS
10
71.1008
20
-225.262
11
71.4817
21
-225.262
0
LINE
8
BLACK
6
CONTINUOUS
10
71.4817
20
-225.262
11
71.6722
21
-225.357
0
LINE
8
BLACK
6
CONTINUOUS
10
71.6722
20
-225.357
11
71.7674
21
-225.452
0
LINE
8
BLACK
6
CONTINUOUS
10
71.7674
20
-225.452
11
71.8627
21
-225.642
0
LINE
8
BLACK
6
CONTINUOUS
10
71.8627
20
-225.642
11
71.8627
21
-226.214
0
LINE
8
BLACK
6
CONTINUOUS
10
71.8627
20
-226.214
11
71.7674
21
-226.404
0
LINE
8
BLACK
6
CONTINUOUS
10
71.7674
20
-226.404
11
71.6722
21
-226.5
0
LINE
8
BLACK
6
CONTINUOUS
10
71.6722
20
-226.5
11
71.4817
21
-226.595
0
LINE
8
BLACK
6
CONTINUOUS
10
71.4817
20
-226.595
11
71.1008
21
-226.595
0
LINE
8
BLACK
6
CONTINUOUS
10
71.1008
20
-226.595
11
70.9103
21
-226.5
0
LINE
8
BLACK
6
CONTINUOUS
10
73.0055
20
-226.595
11
72.8151
21
-226.5
0
LINE
8
BLACK
6
CONTINUOUS
10
72.8151
20
-226.5
11
72.7198
21
-226.309
0
LINE
8
BLACK
6
CONTINUOUS
10
72.7198
20
-226.309
11
72.7198
21
-224.595
0
LINE
8
BLACK
6
CONTINUOUS
10
74.6246
20
-226.595
11
74.6246
21
-225.547
0
LINE
8
BLACK
6
CONTINUOUS
10
74.6246
20
-225.547
11
74.5293
21
-225.357
0
LINE
8
BLACK
6
CONTINUOUS
10
74.5293
20
-225.357
11
74.3389
21
-225.262
0
LINE
8
BLACK
6
CONTINUOUS
10
74.3389
20
-225.262
11
73.9579
21
-225.262
0
LINE
8
BLACK
6
CONTINUOUS
10
73.9579
20
-225.262
11
73.7674
21
-225.357
0
LINE
8
BLACK
6
CONTINUOUS
10
74.6246
20
-226.5
11
74.4341
21
-226.595
0
LINE
8
BLACK
6
CONTINUOUS
10
74.4341
20
-226.595
11
73.9579
21
-226.595
0
LINE
8
BLACK
6
CONTINUOUS
10
73.9579
20
-226.595
11
73.7674
21
-226.5
0
LINE
8
BLACK
6
CONTINUOUS
10
73.7674
20
-226.5
11
73.6722
21
-226.309
0
LINE
8
BLACK
6
CONTINUOUS
10
73.6722
20
-226.309
11
73.6722
21
-226.119
0
LINE
8
BLACK
6
CONTINUOUS
10
73.6722
20
-226.119
11
73.7674
21
-225.928
0
LINE
8
BLACK
6
CONTINUOUS
10
73.7674
20
-225.928
11
73.9579
21
-225.833
0
LINE
8
BLACK
6
CONTINUOUS
10
73.9579
20
-225.833
11
74.4341
21
-225.833
0
LINE
8
BLACK
6
CONTINUOUS
10
74.4341
20
-225.833
11
74.6246
21
-225.738
0
LINE
8
BLACK
6
CONTINUOUS
10
75.2912
20
-225.262
11
76.0532
21
-225.262
0
LINE
8
BLACK
6
CONTINUOUS
10
75.577
20
-224.595
11
75.577
21
-226.309
0
LINE
8
BLACK
6
CONTINUOUS
10
75.577
20
-226.309
11
75.6722
21
-226.5
0
LINE
8
BLACK
6
CONTINUOUS
10
75.6722
20
-226.5
11
75.8627
21
-226.595
0
LINE
8
BLACK
6
CONTINUOUS
10
75.8627
20
-226.595
11
76.0532
21
-226.595
0
LINE
8
BLACK
6
CONTINUOUS
10
77.4817
20
-226.5
11
77.2912
21
-226.595
0
LINE
8
BLACK
6
CONTINUOUS
10
77.2912
20
-226.595
11
76.9103
21
-226.595
0
LINE
8
BLACK
6
CONTINUOUS
10
76.9103
20
-226.595
11
76.7198
21
-226.5
0
LINE
8
BLACK
6
CONTINUOUS
10
76.7198
20
-226.5
11
76.6246
21
-226.309
0
LINE
8
BLACK
6
CONTINUOUS
10
76.6246
20
-226.309
11
76.6246
21
-225.547
0
LINE
8
BLACK
6
CONTINUOUS
10
76.6246
20
-225.547
11
76.7198
21
-225.357
0
LINE
8
BLACK
6
CONTINUOUS
10
76.7198
20
-225.357
11
76.9103
21
-225.262
0
LINE
8
BLACK
6
CONTINUOUS
10
76.9103
20
-225.262
11
77.2912
21
-225.262
0
LINE
8
BLACK
6
CONTINUOUS
10
77.2912
20
-225.262
11
77.4817
21
-225.357
0
LINE
8
BLACK
6
CONTINUOUS
10
77.4817
20
-225.357
11
77.577
21
-225.547
0
LINE
8
BLACK
6
CONTINUOUS
10
77.577
20
-225.547
11
77.577
21
-225.738
0
LINE
8
BLACK
6
CONTINUOUS
10
77.577
20
-225.738
11
76.6246
21
-225.928
0
LINE
8
BLACK
6
CONTINUOUS
10
79.2912
20
-226.595
11
79.2912
21
-224.595
0
LINE
8
BLACK
6
CONTINUOUS
10
79.2912
20
-226.5
11
79.1008
21
-226.595
0
LINE
8
BLACK
6
CONTINUOUS
10
79.1008
20
-226.595
11
78.7198
21
-226.595
0
LINE
8
BLACK
6
CONTINUOUS
10
78.7198
20
-226.595
11
78.5293
21
-226.5
0
LINE
8
BLACK
6
CONTINUOUS
10
78.5293
20
-226.5
11
78.4341
21
-226.404
0
LINE
8
BLACK
6
CONTINUOUS
10
78.4341
20
-226.404
11
78.3389
21
-226.214
0
LINE
8
BLACK
6
CONTINUOUS
10
78.3389
20
-226.214
11
78.3389
21
-225.642
0
LINE
8
BLACK
6
CONTINUOUS
10
78.3389
20
-225.642
11
78.4341
21
-225.452
0
LINE
8
BLACK
6
CONTINUOUS
10
78.4341
20
-225.452
11
78.5293
21
-225.357
0
LINE
8
BLACK
6
CONTINUOUS
10
78.5293
20
-225.357
11
78.7198
21
-225.262
0
LINE
8
BLACK
6
CONTINUOUS
10
78.7198
20
-225.262
11
79.1008
21
-225.262
0
LINE
8
BLACK
6
CONTINUOUS
10
79.1008
20
-225.262
11
79.2912
21
-225.357
0
LINE
8
BLACK
6
CONTINUOUS
10
80.0532
20
-227.357
11
80.1484
21
-227.262
0
LINE
8
BLACK
6
CONTINUOUS
10
80.1484
20
-227.262
11
80.3389
21
-226.976
0
LINE
8
BLACK
6
CONTINUOUS
10
80.3389
20
-226.976
11
80.4341
21
-226.785
0
LINE
8
BLACK
6
CONTINUOUS
10
80.4341
20
-226.785
11
80.5293
21
-226.5
0
LINE
8
BLACK
6
CONTINUOUS
10
80.5293
20
-226.5
11
80.6246
21
-226.023
0
LINE
8
BLACK
6
CONTINUOUS
10
80.6246
20
-226.023
11
80.6246
21
-225.642
0
LINE
8
BLACK
6
CONTINUOUS
10
80.6246
20
-225.642
11
80.5293
21
-225.166
0
LINE
8
BLACK
6
CONTINUOUS
10
80.5293
20
-225.166
11
80.4341
21
-224.881
0
LINE
8
BLACK
6
CONTINUOUS
10
80.4341
20
-224.881
11
80.3389
21
-224.69
0
LINE
8
BLACK
6
CONTINUOUS
10
80.3389
20
-224.69
11
80.1484
21
-224.404
0
LINE
8
BLACK
6
CONTINUOUS
10
80.1484
20
-224.404
11
80.0532
21
-224.309
0
LINE
8
BLACK
6
CONTINUOUS
10
11.543
20
-227.73
11
11.543
21
-229.63
0
LINE
8
BLACK
6
CONTINUOUS
10
10.593
20
-228.68
11
12.493
21
-228.68
0
LINE
8
BLACK
6
CONTINUOUS
10
16.1484
20
-229.595
11
15.0055
21
-229.595
0
LINE
8
BLACK
6
CONTINUOUS
10
15.577
20
-229.595
11
15.577
21
-227.595
0
LINE
8
BLACK
6
CONTINUOUS
10
15.577
20
-227.595
11
15.3865
21
-227.881
0
LINE
8
BLACK
6
CONTINUOUS
10
15.3865
20
-227.881
11
15.196
21
-228.071
0
LINE
8
BLACK
6
CONTINUOUS
10
15.196
20
-228.071
11
15.0055
21
-228.166
0
LINE
8
BLACK
6
CONTINUOUS
10
17.0055
20
-229.404
11
17.1008
21
-229.5
0
LINE
8
BLACK
6
CONTINUOUS
10
17.1008
20
-229.5
11
17.0055
21
-229.595
0
LINE
8
BLACK
6
CONTINUOUS
10
17.0055
20
-229.595
11
16.9103
21
-229.5
0
LINE
8
BLACK
6
CONTINUOUS
10
16.9103
20
-229.5
11
17.0055
21
-229.404
0
LINE
8
BLACK
6
CONTINUOUS
10
17.0055
20
-229.404
11
17.0055
21
-229.595
0
LINE
8
BLACK
6
CONTINUOUS
10
18.0531
20
-229.595
11
18.4341
21
-229.595
0
LINE
8
BLACK
6
CONTINUOUS
10
18.4341
20
-229.595
11
18.6246
21
-229.5
0
LINE
8
BLACK
6
CONTINUOUS
10
18.6246
20
-229.5
11
18.7198
21
-229.404
0
LINE
8
BLACK
6
CONTINUOUS
10
18.7198
20
-229.404
11
18.9103
21
-229.119
0
LINE
8
BLACK
6
CONTINUOUS
10
18.9103
20
-229.119
11
19.0055
21
-228.738
0
LINE
8
BLACK
6
CONTINUOUS
10
19.0055
20
-228.738
11
19.0055
21
-227.976
0
LINE
8
BLACK
6
CONTINUOUS
10
19.0055
20
-227.976
11
18.9103
21
-227.785
0
LINE
8
BLACK
6
CONTINUOUS
10
18.9103
20
-227.785
11
18.8151
21
-227.69
0
LINE
8
BLACK
6
CONTINUOUS
10
18.8151
20
-227.69
11
18.6246
21
-227.595
0
LINE
8
BLACK
6
CONTINUOUS
10
18.6246
20
-227.595
11
18.2436
21
-227.595
0
LINE
8
BLACK
6
CONTINUOUS
10
18.2436
20
-227.595
11
18.0531
21
-227.69
0
LINE
8
BLACK
6
CONTINUOUS
10
18.0531
20
-227.69
11
17.9579
21
-227.785
0
LINE
8
BLACK
6
CONTINUOUS
10
17.9579
20
-227.785
11
17.8627
21
-227.976
0
LINE
8
BLACK
6
CONTINUOUS
10
17.8627
20
-227.976
11
17.8627
21
-228.452
0
LINE
8
BLACK
6
CONTINUOUS
10
17.8627
20
-228.452
11
17.9579
21
-228.642
0
LINE
8
BLACK
6
CONTINUOUS
10
17.9579
20
-228.642
11
18.0531
21
-228.738
0
LINE
8
BLACK
6
CONTINUOUS
10
18.0531
20
-228.738
11
18.2436
21
-228.833
0
LINE
8
BLACK
6
CONTINUOUS
10
18.2436
20
-228.833
11
18.6246
21
-228.833
0
LINE
8
BLACK
6
CONTINUOUS
10
18.6246
20
-228.833
11
18.8151
21
-228.738
0
LINE
8
BLACK
6
CONTINUOUS
10
18.8151
20
-228.738
11
18.9103
21
-228.642
0
LINE
8
BLACK
6
CONTINUOUS
10
18.9103
20
-228.642
11
19.0055
21
-228.452
0
LINE
8
BLACK
6
CONTINUOUS
10
20.2436
20
-227.595
11
20.4341
21
-227.595
0
LINE
8
BLACK
6
CONTINUOUS
10
20.4341
20
-227.595
11
20.6246
21
-227.69
0
LINE
8
BLACK
6
CONTINUOUS
10
20.6246
20
-227.69
11
20.7198
21
-227.785
0
LINE
8
BLACK
6
CONTINUOUS
10
20.7198
20
-227.785
11
20.8151
21
-227.976
0
LINE
8
BLACK
6
CONTINUOUS
10
20.8151
20
-227.976
11
20.9103
21
-228.357
0
LINE
8
BLACK
6
CONTINUOUS
10
20.9103
20
-228.357
11
20.9103
21
-228.833
0
LINE
8
BLACK
6
CONTINUOUS
10
20.9103
20
-228.833
11
20.8151
21
-229.214
0
LINE
8
BLACK
6
CONTINUOUS
10
20.8151
20
-229.214
11
20.7198
21
-229.404
0
LINE
8
BLACK
6
CONTINUOUS
10
20.7198
20
-229.404
11
20.6246
21
-229.5
0
LINE
8
BLACK
6
CONTINUOUS
10
20.6246
20
-229.5
11
20.4341
21
-229.595
0
LINE
8
BLACK
6
CONTINUOUS
10
20.4341
20
-229.595
11
20.2436
21
-229.595
0
LINE
8
BLACK
6
CONTINUOUS
10
20.2436
20
-229.595
11
20.0531
21
-229.5
0
LINE
8
BLACK
6
CONTINUOUS
10
20.0531
20
-229.5
11
19.9579
21
-229.404
0
LINE
8
BLACK
6
CONTINUOUS
10
19.9579
20
-229.404
11
19.8627
21
-229.214
0
LINE
8
BLACK
6
CONTINUOUS
10
19.8627
20
-229.214
11
19.7674
21
-228.833
0
LINE
8
BLACK
6
CONTINUOUS
10
19.7674
20
-228.833
11
19.7674
21
-228.357
0
LINE
8
BLACK
6
CONTINUOUS
10
19.7674
20
-228.357
11
19.8627
21
-227.976
0
LINE
8
BLACK
6
CONTINUOUS
10
19.8627
20
-227.976
11
19.9579
21
-227.785
0
LINE
8
BLACK
6
CONTINUOUS
10
19.9579
20
-227.785
11
20.0531
21
-227.69
0
LINE
8
BLACK
6
CONTINUOUS
10
20.0531
20
-227.69
11
20.2436
21
-227.595
0
LINE
8
BLACK
6
CONTINUOUS
10
22.1484
20
-227.595
11
22.3389
21
-227.595
0
LINE
8
BLACK
6
CONTINUOUS
10
22.3389
20
-227.595
11
22.5293
21
-227.69
0
LINE
8
BLACK
6
CONTINUOUS
10
22.5293
20
-227.69
11
22.6246
21
-227.785
0
LINE
8
BLACK
6
CONTINUOUS
10
22.6246
20
-227.785
11
22.7198
21
-227.976
0
LINE
8
BLACK
6
CONTINUOUS
10
22.7198
20
-227.976
11
22.8151
21
-228.357
0
LINE
8
BLACK
6
CONTINUOUS
10
22.8151
20
-228.357
11
22.8151
21
-228.833
0
LINE
8
BLACK
6
CONTINUOUS
10
22.8151
20
-228.833
11
22.7198
21
-229.214
0
LINE
8
BLACK
6
CONTINUOUS
10
22.7198
20
-229.214
11
22.6246
21
-229.404
0
LINE
8
BLACK
6
CONTINUOUS
10
22.6246
20
-229.404
11
22.5293
21
-229.5
0
LINE
8
BLACK
6
CONTINUOUS
10
22.5293
20
-229.5
11
22.3389
21
-229.595
0
LINE
8
BLACK
6
CONTINUOUS
10
22.3389
20
-229.595
11
22.1484
21
-229.595
0
LINE
8
BLACK
6
CONTINUOUS
10
22.1484
20
-229.595
11
21.9579
21
-229.5
0
LINE
8
BLACK
6
CONTINUOUS
10
21.9579
20
-229.5
11
21.8627
21
-229.404
0
LINE
8
BLACK
6
CONTINUOUS
10
21.8627
20
-229.404
11
21.7674
21
-229.214
0
LINE
8
BLACK
6
CONTINUOUS
10
21.7674
20
-229.214
11
21.6722
21
-228.833
0
LINE
8
BLACK
6
CONTINUOUS
10
21.6722
20
-228.833
11
21.6722
21
-228.357
0
LINE
8
BLACK
6
CONTINUOUS
10
21.6722
20
-228.357
11
21.7674
21
-227.976
0
LINE
8
BLACK
6
CONTINUOUS
10
21.7674
20
-227.976
11
21.8627
21
-227.785
0
LINE
8
BLACK
6
CONTINUOUS
10
21.8627
20
-227.785
11
21.9579
21
-227.69
0
LINE
8
BLACK
6
CONTINUOUS
10
21.9579
20
-227.69
11
22.1484
21
-227.595
0
LINE
8
BLACK
6
CONTINUOUS
10
23.6722
20
-229.595
11
23.6722
21
-228.262
0
LINE
8
BLACK
6
CONTINUOUS
10
23.6722
20
-228.452
11
23.7674
21
-228.357
0
LINE
8
BLACK
6
CONTINUOUS
10
23.7674
20
-228.357
11
23.9579
21
-228.262
0
LINE
8
BLACK
6
CONTINUOUS
10
23.9579
20
-228.262
11
24.2436
21
-228.262
0
LINE
8
BLACK
6
CONTINUOUS
10
24.2436
20
-228.262
11
24.4341
21
-228.357
0
LINE
8
BLACK
6
CONTINUOUS
10
24.4341
20
-228.357
11
24.5293
21
-228.547
0
LINE
8
BLACK
6
CONTINUOUS
10
24.5293
20
-228.547
11
24.5293
21
-229.595
0
LINE
8
BLACK
6
CONTINUOUS
10
24.5293
20
-228.547
11
24.6246
21
-228.357
0
LINE
8
BLACK
6
CONTINUOUS
10
24.6246
20
-228.357
11
24.8151
21
-228.262
0
LINE
8
BLACK
6
CONTINUOUS
10
24.8151
20
-228.262
11
25.1008
21
-228.262
0
LINE
8
BLACK
6
CONTINUOUS
10
25.1008
20
-228.262
11
25.2912
21
-228.357
0
LINE
8
BLACK
6
CONTINUOUS
10
25.2912
20
-228.357
11
25.3865
21
-228.547
0
LINE
8
BLACK
6
CONTINUOUS
10
25.3865
20
-228.547
11
25.3865
21
-229.595
0
LINE
8
BLACK
6
CONTINUOUS
10
26.3389
20
-229.595
11
26.3389
21
-228.262
0
LINE
8
BLACK
6
CONTINUOUS
10
26.3389
20
-228.452
11
26.4341
21
-228.357
0
LINE
8
BLACK
6
CONTINUOUS
10
26.4341
20
-228.357
11
26.6246
21
-228.262
0
LINE
8
BLACK
6
CONTINUOUS
10
26.6246
20
-228.262
11
26.9103
21
-228.262
0
LINE
8
BLACK
6
CONTINUOUS
10
26.9103
20
-228.262
11
27.1008
21
-228.357
0
LINE
8
BLACK
6
CONTINUOUS
10
27.1008
20
-228.357
11
27.196
21
-228.547
0
LINE
8
BLACK
6
CONTINUOUS
10
27.196
20
-228.547
11
27.196
21
-229.595
0
LINE
8
BLACK
6
CONTINUOUS
10
27.196
20
-228.547
11
27.2912
21
-228.357
0
LINE
8
BLACK
6
CONTINUOUS
10
27.2912
20
-228.357
11
27.4817
21
-228.262
0
LINE
8
BLACK
6
CONTINUOUS
10
27.4817
20
-228.262
11
27.7674
21
-228.262
0
LINE
8
BLACK
6
CONTINUOUS
10
27.7674
20
-228.262
11
27.9579
21
-228.357
0
LINE
8
BLACK
6
CONTINUOUS
10
27.9579
20
-228.357
11
28.0531
21
-228.547
0
LINE
8
BLACK
6
CONTINUOUS
10
28.0531
20
-228.547
11
28.0531
21
-229.595
0
LINE
8
BLACK
6
CONTINUOUS
10
31.9579
20
-227.5
11
30.2436
21
-230.071
0
LINE
8
BLACK
6
CONTINUOUS
10
34.5293
20
-227.595
11
34.7198
21
-227.595
0
LINE
8
BLACK
6
CONTINUOUS
10
34.7198
20
-227.595
11
34.9103
21
-227.69
0
LINE
8
BLACK
6
CONTINUOUS
10
34.9103
20
-227.69
11
35.0055
21
-227.785
0
LINE
8
BLACK
6
CONTINUOUS
10
35.0055
20
-227.785
11
35.1008
21
-227.976
0
LINE
8
BLACK
6
CONTINUOUS
10
35.1008
20
-227.976
11
35.196
21
-228.357
0
LINE
8
BLACK
6
CONTINUOUS
10
35.196
20
-228.357
11
35.196
21
-228.833
0
LINE
8
BLACK
6
CONTINUOUS
10
35.196
20
-228.833
11
35.1008
21
-229.214
0
LINE
8
BLACK
6
CONTINUOUS
10
35.1008
20
-229.214
11
35.0055
21
-229.404
0
LINE
8
BLACK
6
CONTINUOUS
10
35.0055
20
-229.404
11
34.9103
21
-229.5
0
LINE
8
BLACK
6
CONTINUOUS
10
34.9103
20
-229.5
11
34.7198
21
-229.595
0
LINE
8
BLACK
6
CONTINUOUS
10
34.7198
20
-229.595
11
34.5293
21
-229.595
0
LINE
8
BLACK
6
CONTINUOUS
10
34.5293
20
-229.595
11
34.3389
21
-229.5
0
LINE
8
BLACK
6
CONTINUOUS
10
34.3389
20
-229.5
11
34.2436
21
-229.404
0
LINE
8
BLACK
6
CONTINUOUS
10
34.2436
20
-229.404
11
34.1484
21
-229.214
0
LINE
8
BLACK
6
CONTINUOUS
10
34.1484
20
-229.214
11
34.0532
21
-228.833
0
LINE
8
BLACK
6
CONTINUOUS
10
34.0532
20
-228.833
11
34.0532
21
-228.357
0
LINE
8
BLACK
6
CONTINUOUS
10
34.0532
20
-228.357
11
34.1484
21
-227.976
0
LINE
8
BLACK
6
CONTINUOUS
10
34.1484
20
-227.976
11
34.2436
21
-227.785
0
LINE
8
BLACK
6
CONTINUOUS
10
34.2436
20
-227.785
11
34.3389
21
-227.69
0
LINE
8
BLACK
6
CONTINUOUS
10
34.3389
20
-227.69
11
34.5293
21
-227.595
0
LINE
8
BLACK
6
CONTINUOUS
10
36.0532
20
-229.404
11
36.1484
21
-229.5
0
LINE
8
BLACK
6
CONTINUOUS
10
36.1484
20
-229.5
11
36.0532
21
-229.595
0
LINE
8
BLACK
6
CONTINUOUS
10
36.0532
20
-229.595
11
35.9579
21
-229.5
0
LINE
8
BLACK
6
CONTINUOUS
10
35.9579
20
-229.5
11
36.0532
21
-229.404
0
LINE
8
BLACK
6
CONTINUOUS
10
36.0532
20
-229.404
11
36.0532
21
-229.595
0
LINE
8
BLACK
6
CONTINUOUS
10
37.3865
20
-227.595
11
37.577
21
-227.595
0
LINE
8
BLACK
6
CONTINUOUS
10
37.577
20
-227.595
11
37.7674
21
-227.69
0
LINE
8
BLACK
6
CONTINUOUS
10
37.7674
20
-227.69
11
37.8627
21
-227.785
0
LINE
8
BLACK
6
CONTINUOUS
10
37.8627
20
-227.785
11
37.9579
21
-227.976
0
LINE
8
BLACK
6
CONTINUOUS
10
37.9579
20
-227.976
11
38.0532
21
-228.357
0
LINE
8
BLACK
6
CONTINUOUS
10
38.0532
20
-228.357
11
38.0532
21
-228.833
0
LINE
8
BLACK
6
CONTINUOUS
10
38.0532
20
-228.833
11
37.9579
21
-229.214
0
LINE
8
BLACK
6
CONTINUOUS
10
37.9579
20
-229.214
11
37.8627
21
-229.404
0
LINE
8
BLACK
6
CONTINUOUS
10
37.8627
20
-229.404
11
37.7674
21
-229.5
0
LINE
8
BLACK
6
CONTINUOUS
10
37.7674
20
-229.5
11
37.577
21
-229.595
0
LINE
8
BLACK
6
CONTINUOUS
10
37.577
20
-229.595
11
37.3865
21
-229.595
0
LINE
8
BLACK
6
CONTINUOUS
10
37.3865
20
-229.595
11
37.196
21
-229.5
0
LINE
8
BLACK
6
CONTINUOUS
10
37.196
20
-229.5
11
37.1008
21
-229.404
0
LINE
8
BLACK
6
CONTINUOUS
10
37.1008
20
-229.404
11
37.0055
21
-229.214
0
LINE
8
BLACK
6
CONTINUOUS
10
37.0055
20
-229.214
11
36.9103
21
-228.833
0
LINE
8
BLACK
6
CONTINUOUS
10
36.9103
20
-228.833
11
36.9103
21
-228.357
0
LINE
8
BLACK
6
CONTINUOUS
10
36.9103
20
-228.357
11
37.0055
21
-227.976
0
LINE
8
BLACK
6
CONTINUOUS
10
37.0055
20
-227.976
11
37.1008
21
-227.785
0
LINE
8
BLACK
6
CONTINUOUS
10
37.1008
20
-227.785
11
37.196
21
-227.69
0
LINE
8
BLACK
6
CONTINUOUS
10
37.196
20
-227.69
11
37.3865
21
-227.595
0
LINE
8
BLACK
6
CONTINUOUS
10
38.7198
20
-227.595
11
40.0532
21
-227.595
0
LINE
8
BLACK
6
CONTINUOUS
10
40.0532
20
-227.595
11
39.196
21
-229.595
0
LINE
8
BLACK
6
CONTINUOUS
10
41.6722
20
-228.262
11
41.6722
21
-229.595
0
LINE
8
BLACK
6
CONTINUOUS
10
41.196
20
-227.5
11
40.7198
21
-228.928
0
LINE
8
BLACK
6
CONTINUOUS
10
40.7198
20
-228.928
11
41.9579
21
-228.928
0
LINE
8
BLACK
6
CONTINUOUS
10
43.0055
20
-228.452
11
42.8151
21
-228.357
0
LINE
8
BLACK
6
CONTINUOUS
10
42.8151
20
-228.357
11
42.7198
21
-228.262
0
LINE
8
BLACK
6
CONTINUOUS
10
42.7198
20
-228.262
11
42.6246
21
-228.071
0
LINE
8
BLACK
6
CONTINUOUS
10
42.6246
20
-228.071
11
42.6246
21
-227.976
0
LINE
8
BLACK
6
CONTINUOUS
10
42.6246
20
-227.976
11
42.7198
21
-227.785
0
LINE
8
BLACK
6
CONTINUOUS
10
42.7198
20
-227.785
11
42.8151
21
-227.69
0
LINE
8
BLACK
6
CONTINUOUS
10
42.8151
20
-227.69
11
43.0055
21
-227.595
0
LINE
8
BLACK
6
CONTINUOUS
10
43.0055
20
-227.595
11
43.3865
21
-227.595
0
LINE
8
BLACK
6
CONTINUOUS
10
43.3865
20
-227.595
11
43.577
21
-227.69
0
LINE
8
BLACK
6
CONTINUOUS
10
43.577
20
-227.69
11
43.6722
21
-227.785
0
LINE
8
BLACK
6
CONTINUOUS
10
43.6722
20
-227.785
11
43.7674
21
-227.976
0
LINE
8
BLACK
6
CONTINUOUS
10
43.7674
20
-227.976
11
43.7674
21
-228.071
0
LINE
8
BLACK
6
CONTINUOUS
10
43.7674
20
-228.071
11
43.6722
21
-228.262
0
LINE
8
BLACK
6
CONTINUOUS
10
43.6722
20
-228.262
11
43.577
21
-228.357
0
LINE
8
BLACK
6
CONTINUOUS
10
43.577
20
-228.357
11
43.3865
21
-228.452
0
LINE
8
BLACK
6
CONTINUOUS
10
43.3865
20
-228.452
11
43.0055
21
-228.452
0
LINE
8
BLACK
6
CONTINUOUS
10
43.0055
20
-228.452
11
42.8151
21
-228.547
0
LINE
8
BLACK
6
CONTINUOUS
10
42.8151
20
-228.547
11
42.7198
21
-228.642
0
LINE
8
BLACK
6
CONTINUOUS
10
42.7198
20
-228.642
11
42.6246
21
-228.833
0
LINE
8
BLACK
6
CONTINUOUS
10
42.6246
20
-228.833
11
42.6246
21
-229.214
0
LINE
8
BLACK
6
CONTINUOUS
10
42.6246
20
-229.214
11
42.7198
21
-229.404
0
LINE
8
BLACK
6
CONTINUOUS
10
42.7198
20
-229.404
11
42.8151
21
-229.5
0
LINE
8
BLACK
6
CONTINUOUS
10
42.8151
20
-229.5
11
43.0055
21
-229.595
0
LINE
8
BLACK
6
CONTINUOUS
10
43.0055
20
-229.595
11
43.3865
21
-229.595
0
LINE
8
BLACK
6
CONTINUOUS
10
43.3865
20
-229.595
11
43.577
21
-229.5
0
LINE
8
BLACK
6
CONTINUOUS
10
43.577
20
-229.5
11
43.6722
21
-229.404
0
LINE
8
BLACK
6
CONTINUOUS
10
43.6722
20
-229.404
11
43.7674
21
-229.214
0
LINE
8
BLACK
6
CONTINUOUS
10
43.7674
20
-229.214
11
43.7674
21
-228.833
0
LINE
8
BLACK
6
CONTINUOUS
10
43.7674
20
-228.833
11
43.6722
21
-228.642
0
LINE
8
BLACK
6
CONTINUOUS
10
43.6722
20
-228.642
11
43.577
21
-228.547
0
LINE
8
BLACK
6
CONTINUOUS
10
43.577
20
-228.547
11
43.3865
21
-228.452
0
LINE
8
BLACK
6
CONTINUOUS
10
44.5293
20
-227.595
11
44.5293
21
-227.976
0
LINE
8
BLACK
6
CONTINUOUS
10
45.2912
20
-227.595
11
45.2912
21
-227.976
0
LINE
8
BLACK
6
CONTINUOUS
10
48.2436
20
-230.357
11
48.1484
21
-230.262
0
LINE
8
BLACK
6
CONTINUOUS
10
48.1484
20
-230.262
11
47.9579
21
-229.976
0
LINE
8
BLACK
6
CONTINUOUS
10
47.9579
20
-229.976
11
47.8627
21
-229.785
0
LINE
8
BLACK
6
CONTINUOUS
10
47.8627
20
-229.785
11
47.7674
21
-229.5
0
LINE
8
BLACK
6
CONTINUOUS
10
47.7674
20
-229.5
11
47.6722
21
-229.023
0
LINE
8
BLACK
6
CONTINUOUS
10
47.6722
20
-229.023
11
47.6722
21
-228.642
0
LINE
8
BLACK
6
CONTINUOUS
10
47.6722
20
-228.642
11
47.7674
21
-228.166
0
LINE
8
BLACK
6
CONTINUOUS
10
47.7674
20
-228.166
11
47.8627
21
-227.881
0
LINE
8
BLACK
6
CONTINUOUS
10
47.8627
20
-227.881
11
47.9579
21
-227.69
0
LINE
8
BLACK
6
CONTINUOUS
10
47.9579
20
-227.69
11
48.1484
21
-227.404
0
LINE
8
BLACK
6
CONTINUOUS
10
48.1484
20
-227.404
11
48.2436
21
-227.309
0
LINE
8
BLACK
6
CONTINUOUS
10
48.9103
20
-227.785
11
49.0055
21
-227.69
0
LINE
8
BLACK
6
CONTINUOUS
10
49.0055
20
-227.69
11
49.196
21
-227.595
0
LINE
8
BLACK
6
CONTINUOUS
10
49.196
20
-227.595
11
49.6722
21
-227.595
0
LINE
8
BLACK
6
CONTINUOUS
10
49.6722
20
-227.595
11
49.8627
21
-227.69
0
LINE
8
BLACK
6
CONTINUOUS
10
49.8627
20
-227.69
11
49.9579
21
-227.785
0
LINE
8
BLACK
6
CONTINUOUS
10
49.9579
20
-227.785
11
50.0532
21
-227.976
0
LINE
8
BLACK
6
CONTINUOUS
10
50.0532
20
-227.976
11
50.0532
21
-228.166
0
LINE
8
BLACK
6
CONTINUOUS
10
50.0532
20
-228.166
11
49.9579
21
-228.452
0
LINE
8
BLACK
6
CONTINUOUS
10
49.9579
20
-228.452
11
48.8151
21
-229.595
0
LINE
8
BLACK
6
CONTINUOUS
10
48.8151
20
-229.595
11
50.0532
21
-229.595
0
LINE
8
BLACK
6
CONTINUOUS
10
52.4341
20
-229.595
11
52.4341
21
-227.595
0
LINE
8
BLACK
6
CONTINUOUS
10
53.2912
20
-229.595
11
53.2912
21
-228.547
0
LINE
8
BLACK
6
CONTINUOUS
10
53.2912
20
-228.547
11
53.196
21
-228.357
0
LINE
8
BLACK
6
CONTINUOUS
10
53.196
20
-228.357
11
53.0055
21
-228.262
0
LINE
8
BLACK
6
CONTINUOUS
10
53.0055
20
-228.262
11
52.7198
21
-228.262
0
LINE
8
BLACK
6
CONTINUOUS
10
52.7198
20
-228.262
11
52.5293
21
-228.357
0
LINE
8
BLACK
6
CONTINUOUS
10
52.5293
20
-228.357
11
52.4341
21
-228.452
0
LINE
8
BLACK
6
CONTINUOUS
10
54.5293
20
-229.595
11
54.3389
21
-229.5
0
LINE
8
BLACK
6
CONTINUOUS
10
54.3389
20
-229.5
11
54.2436
21
-229.404
0
LINE
8
BLACK
6
CONTINUOUS
10
54.2436
20
-229.404
11
54.1484
21
-229.214
0
LINE
8
BLACK
6
CONTINUOUS
10
54.1484
20
-229.214
11
54.1484
21
-228.642
0
LINE
8
BLACK
6
CONTINUOUS
10
54.1484
20
-228.642
11
54.2436
21
-228.452
0
LINE
8
BLACK
6
CONTINUOUS
10
54.2436
20
-228.452
11
54.3389
21
-228.357
0
LINE
8
BLACK
6
CONTINUOUS
10
54.3389
20
-228.357
11
54.5293
21
-228.262
0
LINE
8
BLACK
6
CONTINUOUS
10
54.5293
20
-228.262
11
54.8151
21
-228.262
0
LINE
8
BLACK
6
CONTINUOUS
10
54.8151
20
-228.262
11
55.0055
21
-228.357
0
LINE
8
BLACK
6
CONTINUOUS
10
55.0055
20
-228.357
11
55.1008
21
-228.452
0
LINE
8
BLACK
6
CONTINUOUS
10
55.1008
20
-228.452
11
55.196
21
-228.642
0
LINE
8
BLACK
6
CONTINUOUS
10
55.196
20
-228.642
11
55.196
21
-229.214
0
LINE
8
BLACK
6
CONTINUOUS
10
55.196
20
-229.214
11
55.1008
21
-229.404
0
LINE
8
BLACK
6
CONTINUOUS
10
55.1008
20
-229.404
11
55.0055
21
-229.5
0
LINE
8
BLACK
6
CONTINUOUS
10
55.0055
20
-229.5
11
54.8151
21
-229.595
0
LINE
8
BLACK
6
CONTINUOUS
10
54.8151
20
-229.595
11
54.5293
21
-229.595
0
LINE
8
BLACK
6
CONTINUOUS
10
56.3389
20
-229.595
11
56.1484
21
-229.5
0
LINE
8
BLACK
6
CONTINUOUS
10
56.1484
20
-229.5
11
56.0532
21
-229.309
0
LINE
8
BLACK
6
CONTINUOUS
10
56.0532
20
-229.309
11
56.0532
21
-227.595
0
LINE
8
BLACK
6
CONTINUOUS
10
57.8627
20
-229.5
11
57.6722
21
-229.595
0
LINE
8
BLACK
6
CONTINUOUS
10
57.6722
20
-229.595
11
57.2912
21
-229.595
0
LINE
8
BLACK
6
CONTINUOUS
10
57.2912
20
-229.595
11
57.1008
21
-229.5
0
LINE
8
BLACK
6
CONTINUOUS
10
57.1008
20
-229.5
11
57.0055
21
-229.309
0
LINE
8
BLACK
6
CONTINUOUS
10
57.0055
20
-229.309
11
57.0055
21
-228.547
0
LINE
8
BLACK
6
CONTINUOUS
10
57.0055
20
-228.547
11
57.1008
21
-228.357
0
LINE
8
BLACK
6
CONTINUOUS
10
57.1008
20
-228.357
11
57.2912
21
-228.262
0
LINE
8
BLACK
6
CONTINUOUS
10
57.2912
20
-228.262
11
57.6722
21
-228.262
0
LINE
8
BLACK
6
CONTINUOUS
10
57.6722
20
-228.262
11
57.8627
21
-228.357
0
LINE
8
BLACK
6
CONTINUOUS
10
57.8627
20
-228.357
11
57.9579
21
-228.547
0
LINE
8
BLACK
6
CONTINUOUS
10
57.9579
20
-228.547
11
57.9579
21
-228.738
0
LINE
8
BLACK
6
CONTINUOUS
10
57.9579
20
-228.738
11
57.0055
21
-228.928
0
LINE
8
BLACK
6
CONTINUOUS
10
58.7198
20
-229.5
11
58.9103
21
-229.595
0
LINE
8
BLACK
6
CONTINUOUS
10
58.9103
20
-229.595
11
59.2912
21
-229.595
0
LINE
8
BLACK
6
CONTINUOUS
10
59.2912
20
-229.595
11
59.4817
21
-229.5
0
LINE
8
BLACK
6
CONTINUOUS
10
59.4817
20
-229.5
11
59.577
21
-229.309
0
LINE
8
BLACK
6
CONTINUOUS
10
59.577
20
-229.309
11
59.577
21
-229.214
0
LINE
8
BLACK
6
CONTINUOUS
10
59.577
20
-229.214
11
59.4817
21
-229.023
0
LINE
8
BLACK
6
CONTINUOUS
10
59.4817
20
-229.023
11
59.2912
21
-228.928
0
LINE
8
BLACK
6
CONTINUOUS
10
59.2912
20
-228.928
11
59.0055
21
-228.928
0
LINE
8
BLACK
6
CONTINUOUS
10
59.0055
20
-228.928
11
58.8151
21
-228.833
0
LINE
8
BLACK
6
CONTINUOUS
10
58.8151
20
-228.833
11
58.7198
21
-228.642
0
LINE
8
BLACK
6
CONTINUOUS
10
58.7198
20
-228.642
11
58.7198
21
-228.547
0
LINE
8
BLACK
6
CONTINUOUS
10
58.7198
20
-228.547
11
58.8151
21
-228.357
0
LINE
8
BLACK
6
CONTINUOUS
10
58.8151
20
-228.357
11
59.0055
21
-228.262
0
LINE
8
BLACK
6
CONTINUOUS
10
59.0055
20
-228.262
11
59.2912
21
-228.262
0
LINE
8
BLACK
6
CONTINUOUS
10
59.2912
20
-228.262
11
59.4817
21
-228.357
0
LINE
8
BLACK
6
CONTINUOUS
10
60.2436
20
-230.357
11
60.3389
21
-230.262
0
LINE
8
BLACK
6
CONTINUOUS
10
60.3389
20
-230.262
11
60.5293
21
-229.976
0
LINE
8
BLACK
6
CONTINUOUS
10
60.5293
20
-229.976
11
60.6246
21
-229.785
0
LINE
8
BLACK
6
CONTINUOUS
10
60.6246
20
-229.785
11
60.7198
21
-229.5
0
LINE
8
BLACK
6
CONTINUOUS
10
60.7198
20
-229.5
11
60.8151
21
-229.023
0
LINE
8
BLACK
6
CONTINUOUS
10
60.8151
20
-229.023
11
60.8151
21
-228.642
0
LINE
8
BLACK
6
CONTINUOUS
10
60.8151
20
-228.642
11
60.7198
21
-228.166
0
LINE
8
BLACK
6
CONTINUOUS
10
60.7198
20
-228.166
11
60.6246
21
-227.881
0
LINE
8
BLACK
6
CONTINUOUS
10
60.6246
20
-227.881
11
60.5293
21
-227.69
0
LINE
8
BLACK
6
CONTINUOUS
10
60.5293
20
-227.69
11
60.3389
21
-227.404
0
LINE
8
BLACK
6
CONTINUOUS
10
60.3389
20
-227.404
11
60.2436
21
-227.309
0
LINE
8
BLACK
6
CONTINUOUS
10
63.8627
20
-230.357
11
63.7674
21
-230.262
0
LINE
8
BLACK
6
CONTINUOUS
10
63.7674
20
-230.262
11
63.577
21
-229.976
0
LINE
8
BLACK
6
CONTINUOUS
10
63.577
20
-229.976
11
63.4817
21
-229.785
0
LINE
8
BLACK
6
CONTINUOUS
10
63.4817
20
-229.785
11
63.3865
21
-229.5
0
LINE
8
BLACK
6
CONTINUOUS
10
63.3865
20
-229.5
11
63.2912
21
-229.023
0
LINE
8
BLACK
6
CONTINUOUS
10
63.2912
20
-229.023
11
63.2912
21
-228.642
0
LINE
8
BLACK
6
CONTINUOUS
10
63.2912
20
-228.642
11
63.3865
21
-228.166
0
LINE
8
BLACK
6
CONTINUOUS
10
63.3865
20
-228.166
11
63.4817
21
-227.881
0
LINE
8
BLACK
6
CONTINUOUS
10
63.4817
20
-227.881
11
63.577
21
-227.69
0
LINE
8
BLACK
6
CONTINUOUS
10
63.577
20
-227.69
11
63.7674
21
-227.404
0
LINE
8
BLACK
6
CONTINUOUS
10
63.7674
20
-227.404
11
63.8627
21
-227.309
0
LINE
8
BLACK
6
CONTINUOUS
10
64.6246
20
-228.262
11
64.6246
21
-229.595
0
LINE
8
BLACK
6
CONTINUOUS
10
64.6246
20
-228.452
11
64.7198
21
-228.357
0
LINE
8
BLACK
6
CONTINUOUS
10
64.7198
20
-228.357
11
64.9103
21
-228.262
0
LINE
8
BLACK
6
CONTINUOUS
10
64.9103
20
-228.262
11
65.196
21
-228.262
0
LINE
8
BLACK
6
CONTINUOUS
10
65.196
20
-228.262
11
65.3865
21
-228.357
0
LINE
8
BLACK
6
CONTINUOUS
10
65.3865
20
-228.357
11
65.4817
21
-228.547
0
LINE
8
BLACK
6
CONTINUOUS
10
65.4817
20
-228.547
11
65.4817
21
-229.595
0
LINE
8
BLACK
6
CONTINUOUS
10
66.7198
20
-229.595
11
66.5293
21
-229.5
0
LINE
8
BLACK
6
CONTINUOUS
10
66.5293
20
-229.5
11
66.4341
21
-229.404
0
LINE
8
BLACK
6
CONTINUOUS
10
66.4341
20
-229.404
11
66.3389
21
-229.214
0
LINE
8
BLACK
6
CONTINUOUS
10
66.3389
20
-229.214
11
66.3389
21
-228.642
0
LINE
8
BLACK
6
CONTINUOUS
10
66.3389
20
-228.642
11
66.4341
21
-228.452
0
LINE
8
BLACK
6
CONTINUOUS
10
66.4341
20
-228.452
11
66.5293
21
-228.357
0
LINE
8
BLACK
6
CONTINUOUS
10
66.5293
20
-228.357
11
66.7198
21
-228.262
0
LINE
8
BLACK
6
CONTINUOUS
10
66.7198
20
-228.262
11
67.0055
21
-228.262
0
LINE
8
BLACK
6
CONTINUOUS
10
67.0055
20
-228.262
11
67.196
21
-228.357
0
LINE
8
BLACK
6
CONTINUOUS
10
67.196
20
-228.357
11
67.2912
21
-228.452
0
LINE
8
BLACK
6
CONTINUOUS
10
67.2912
20
-228.452
11
67.3865
21
-228.642
0
LINE
8
BLACK
6
CONTINUOUS
10
67.3865
20
-228.642
11
67.3865
21
-229.214
0
LINE
8
BLACK
6
CONTINUOUS
10
67.3865
20
-229.214
11
67.2912
21
-229.404
0
LINE
8
BLACK
6
CONTINUOUS
10
67.2912
20
-229.404
11
67.196
21
-229.5
0
LINE
8
BLACK
6
CONTINUOUS
10
67.196
20
-229.5
11
67.0055
21
-229.595
0
LINE
8
BLACK
6
CONTINUOUS
10
67.0055
20
-229.595
11
66.7198
21
-229.595
0
LINE
8
BLACK
6
CONTINUOUS
10
67.9579
20
-228.262
11
68.7198
21
-228.262
0
LINE
8
BLACK
6
CONTINUOUS
10
68.2436
20
-227.595
11
68.2436
21
-229.309
0
LINE
8
BLACK
6
CONTINUOUS
10
68.2436
20
-229.309
11
68.3389
21
-229.5
0
LINE
8
BLACK
6
CONTINUOUS
10
68.3389
20
-229.5
11
68.5293
21
-229.595
0
LINE
8
BLACK
6
CONTINUOUS
10
68.5293
20
-229.595
11
68.7198
21
-229.595
0
LINE
8
BLACK
6
CONTINUOUS
10
70.9103
20
-228.262
11
70.9103
21
-230.262
0
LINE
8
BLACK
6
CONTINUOUS
10
70.9103
20
-228.357
11
71.1008
21
-228.262
0
LINE
8
BLACK
6
CONTINUOUS
10
71.1008
20
-228.262
11
71.4817
21
-228.262
0
LINE
8
BLACK
6
CONTINUOUS
10
71.4817
20
-228.262
11
71.6722
21
-228.357
0
LINE
8
BLACK
6
CONTINUOUS
10
71.6722
20
-228.357
11
71.7674
21
-228.452
0
LINE
8
BLACK
6
CONTINUOUS
10
71.7674
20
-228.452
11
71.8627
21
-228.642
0
LINE
8
BLACK
6
CONTINUOUS
10
71.8627
20
-228.642
11
71.8627
21
-229.214
0
LINE
8
BLACK
6
CONTINUOUS
10
71.8627
20
-229.214
11
71.7674
21
-229.404
0
LINE
8
BLACK
6
CONTINUOUS
10
71.7674
20
-229.404
11
71.6722
21
-229.5
0
LINE
8
BLACK
6
CONTINUOUS
10
71.6722
20
-229.5
11
71.4817
21
-229.595
0
LINE
8
BLACK
6
CONTINUOUS
10
71.4817
20
-229.595
11
71.1008
21
-229.595
0
LINE
8
BLACK
6
CONTINUOUS
10
71.1008
20
-229.595
11
70.9103
21
-229.5
0
LINE
8
BLACK
6
CONTINUOUS
10
73.0055
20
-229.595
11
72.8151
21
-229.5
0
LINE
8
BLACK
6
CONTINUOUS
10
72.8151
20
-229.5
11
72.7198
21
-229.309
0
LINE
8
BLACK
6
CONTINUOUS
10
72.7198
20
-229.309
11
72.7198
21
-227.595
0
LINE
8
BLACK
6
CONTINUOUS
10
74.6246
20
-229.595
11
74.6246
21
-228.547
0
LINE
8
BLACK
6
CONTINUOUS
10
74.6246
20
-228.547
11
74.5293
21
-228.357
0
LINE
8
BLACK
6
CONTINUOUS
10
74.5293
20
-228.357
11
74.3389
21
-228.262
0
LINE
8
BLACK
6
CONTINUOUS
10
74.3389
20
-228.262
11
73.9579
21
-228.262
0
LINE
8
BLACK
6
CONTINUOUS
10
73.9579
20
-228.262
11
73.7674
21
-228.357
0
LINE
8
BLACK
6
CONTINUOUS
10
74.6246
20
-229.5
11
74.4341
21
-229.595
0
LINE
8
BLACK
6
CONTINUOUS
10
74.4341
20
-229.595
11
73.9579
21
-229.595
0
LINE
8
BLACK
6
CONTINUOUS
10
73.9579
20
-229.595
11
73.7674
21
-229.5
0
LINE
8
BLACK
6
CONTINUOUS
10
73.7674
20
-229.5
11
73.6722
21
-229.309
0
LINE
8
BLACK
6
CONTINUOUS
10
73.6722
20
-229.309
11
73.6722
21
-229.119
0
LINE
8
BLACK
6
CONTINUOUS
10
73.6722
20
-229.119
11
73.7674
21
-228.928
0
LINE
8
BLACK
6
CONTINUOUS
10
73.7674
20
-228.928
11
73.9579
21
-228.833
0
LINE
8
BLACK
6
CONTINUOUS
10
73.9579
20
-228.833
11
74.4341
21
-228.833
0
LINE
8
BLACK
6
CONTINUOUS
10
74.4341
20
-228.833
11
74.6246
21
-228.738
0
LINE
8
BLACK
6
CONTINUOUS
10
75.2912
20
-228.262
11
76.0532
21
-228.262
0
LINE
8
BLACK
6
CONTINUOUS
10
75.577
20
-227.595
11
75.577
21
-229.309
0
LINE
8
BLACK
6
CONTINUOUS
10
75.577
20
-229.309
11
75.6722
21
-229.5
0
LINE
8
BLACK
6
CONTINUOUS
10
75.6722
20
-229.5
11
75.8627
21
-229.595
0
LINE
8
BLACK
6
CONTINUOUS
10
75.8627
20
-229.595
11
76.0532
21
-229.595
0
LINE
8
BLACK
6
CONTINUOUS
10
77.4817
20
-229.5
11
77.2912
21
-229.595
0
LINE
8
BLACK
6
CONTINUOUS
10
77.2912
20
-229.595
11
76.9103
21
-229.595
0
LINE
8
BLACK
6
CONTINUOUS
10
76.9103
20
-229.595
11
76.7198
21
-229.5
0
LINE
8
BLACK
6
CONTINUOUS
10
76.7198
20
-229.5
11
76.6246
21
-229.309
0
LINE
8
BLACK
6
CONTINUOUS
10
76.6246
20
-229.309
11
76.6246
21
-228.547
0
LINE
8
BLACK
6
CONTINUOUS
10
76.6246
20
-228.547
11
76.7198
21
-228.357
0
LINE
8
BLACK
6
CONTINUOUS
10
76.7198
20
-228.357
11
76.9103
21
-228.262
0
LINE
8
BLACK
6
CONTINUOUS
10
76.9103
20
-228.262
11
77.2912
21
-228.262
0
LINE
8
BLACK
6
CONTINUOUS
10
77.2912
20
-228.262
11
77.4817
21
-228.357
0
LINE
8
BLACK
6
CONTINUOUS
10
77.4817
20
-228.357
11
77.577
21
-228.547
0
LINE
8
BLACK
6
CONTINUOUS
10
77.577
20
-228.547
11
77.577
21
-228.738
0
LINE
8
BLACK
6
CONTINUOUS
10
77.577
20
-228.738
11
76.6246
21
-228.928
0
LINE
8
BLACK
6
CONTINUOUS
10
79.2912
20
-229.595
11
79.2912
21
-227.595
0
LINE
8
BLACK
6
CONTINUOUS
10
79.2912
20
-229.5
11
79.1008
21
-229.595
0
LINE
8
BLACK
6
CONTINUOUS
10
79.1008
20
-229.595
11
78.7198
21
-229.595
0
LINE
8
BLACK
6
CONTINUOUS
10
78.7198
20
-229.595
11
78.5293
21
-229.5
0
LINE
8
BLACK
6
CONTINUOUS
10
78.5293
20
-229.5
11
78.4341
21
-229.404
0
LINE
8
BLACK
6
CONTINUOUS
10
78.4341
20
-229.404
11
78.3389
21
-229.214
0
LINE
8
BLACK
6
CONTINUOUS
10
78.3389
20
-229.214
11
78.3389
21
-228.642
0
LINE
8
BLACK
6
CONTINUOUS
10
78.3389
20
-228.642
11
78.4341
21
-228.452
0
LINE
8
BLACK
6
CONTINUOUS
10
78.4341
20
-228.452
11
78.5293
21
-228.357
0
LINE
8
BLACK
6
CONTINUOUS
10
78.5293
20
-228.357
11
78.7198
21
-228.262
0
LINE
8
BLACK
6
CONTINUOUS
10
78.7198
20
-228.262
11
79.1008
21
-228.262
0
LINE
8
BLACK
6
CONTINUOUS
10
79.1008
20
-228.262
11
79.2912
21
-228.357
0
LINE
8
BLACK
6
CONTINUOUS
10
80.0532
20
-230.357
11
80.1484
21
-230.262
0
LINE
8
BLACK
6
CONTINUOUS
10
80.1484
20
-230.262
11
80.3389
21
-229.976
0
LINE
8
BLACK
6
CONTINUOUS
10
80.3389
20
-229.976
11
80.4341
21
-229.785
0
LINE
8
BLACK
6
CONTINUOUS
10
80.4341
20
-229.785
11
80.5293
21
-229.5
0
LINE
8
BLACK
6
CONTINUOUS
10
80.5293
20
-229.5
11
80.6246
21
-229.023
0
LINE
8
BLACK
6
CONTINUOUS
10
80.6246
20
-229.023
11
80.6246
21
-228.642
0
LINE
8
BLACK
6
CONTINUOUS
10
80.6246
20
-228.642
11
80.5293
21
-228.166
0
LINE
8
BLACK
6
CONTINUOUS
10
80.5293
20
-228.166
11
80.4341
21
-227.881
0
LINE
8
BLACK
6
CONTINUOUS
10
80.4341
20
-227.881
11
80.3389
21
-227.69
0
LINE
8
BLACK
6
CONTINUOUS
10
80.3389
20
-227.69
11
80.1484
21
-227.404
0
LINE
8
BLACK
6
CONTINUOUS
10
80.1484
20
-227.404
11
80.0532
21
-227.309
0
LINE
8
BLACK
6
CONTINUOUS
10
12.2001
20
-232.487
11
12.2001
21
-231.073
0
LINE
8
BLACK
6
CONTINUOUS
10
12.2001
20
-231.073
11
10.7859
21
-231.073
0
LINE
8
BLACK
6
CONTINUOUS
10
10.7859
20
-231.073
11
10.7859
21
-232.487
0
LINE
8
BLACK
6
CONTINUOUS
10
10.7859
20
-232.487
11
12.2001
21
-232.487
0
LINE
8
BLACK
6
CONTINUOUS
10
14.9103
20
-230.695
11
16.1484
21
-230.695
0
LINE
8
BLACK
6
CONTINUOUS
10
16.1484
20
-230.695
11
15.4817
21
-231.457
0
LINE
8
BLACK
6
CONTINUOUS
10
15.4817
20
-231.457
11
15.7674
21
-231.457
0
LINE
8
BLACK
6
CONTINUOUS
10
15.7674
20
-231.457
11
15.9579
21
-231.552
0
LINE
8
BLACK
6
CONTINUOUS
10
15.9579
20
-231.552
11
16.0531
21
-231.647
0
LINE
8
BLACK
6
CONTINUOUS
10
16.0531
20
-231.647
11
16.1484
21
-231.838
0
LINE
8
BLACK
6
CONTINUOUS
10
16.1484
20
-231.838
11
16.1484
21
-232.314
0
LINE
8
BLACK
6
CONTINUOUS
10
16.1484
20
-232.314
11
16.0531
21
-232.504
0
LINE
8
BLACK
6
CONTINUOUS
10
16.0531
20
-232.504
11
15.9579
21
-232.6
0
LINE
8
BLACK
6
CONTINUOUS
10
15.9579
20
-232.6
11
15.7674
21
-232.695
0
LINE
8
BLACK
6
CONTINUOUS
10
15.7674
20
-232.695
11
15.196
21
-232.695
0
LINE
8
BLACK
6
CONTINUOUS
10
15.196
20
-232.695
11
15.0055
21
-232.6
0
LINE
8
BLACK
6
CONTINUOUS
10
15.0055
20
-232.6
11
14.9103
21
-232.504
0
LINE
8
BLACK
6
CONTINUOUS
10
17.0055
20
-232.504
11
17.1008
21
-232.6
0
LINE
8
BLACK
6
CONTINUOUS
10
17.1008
20
-232.6
11
17.0055
21
-232.695
0
LINE
8
BLACK
6
CONTINUOUS
10
17.0055
20
-232.695
11
16.9103
21
-232.6
0
LINE
8
BLACK
6
CONTINUOUS
10
16.9103
20
-232.6
11
17.0055
21
-232.504
0
LINE
8
BLACK
6
CONTINUOUS
10
17.0055
20
-232.504
11
17.0055
21
-232.695
0
LINE
8
BLACK
6
CONTINUOUS
10
17.8627
20
-230.885
11
17.9579
21
-230.79
0
LINE
8
BLACK
6
CONTINUOUS
10
17.9579
20
-230.79
11
18.1484
21
-230.695
0
LINE
8
BLACK
6
CONTINUOUS
10
18.1484
20
-230.695
11
18.6246
21
-230.695
0
LINE
8
BLACK
6
CONTINUOUS
10
18.6246
20
-230.695
11
18.8151
21
-230.79
0
LINE
8
BLACK
6
CONTINUOUS
10
18.8151
20
-230.79
11
18.9103
21
-230.885
0
LINE
8
BLACK
6
CONTINUOUS
10
18.9103
20
-230.885
11
19.0055
21
-231.076
0
LINE
8
BLACK
6
CONTINUOUS
10
19.0055
20
-231.076
11
19.0055
21
-231.266
0
LINE
8
BLACK
6
CONTINUOUS
10
19.0055
20
-231.266
11
18.9103
21
-231.552
0
LINE
8
BLACK
6
CONTINUOUS
10
18.9103
20
-231.552
11
17.7674
21
-232.695
0
LINE
8
BLACK
6
CONTINUOUS
10
17.7674
20
-232.695
11
19.0055
21
-232.695
0
LINE
8
BLACK
6
CONTINUOUS
10
20.8151
20
-230.695
11
19.8627
21
-230.695
0
LINE
8
BLACK
6
CONTINUOUS
10
19.8627
20
-230.695
11
19.7674
21
-231.647
0
LINE
8
BLACK
6
CONTINUOUS
10
19.7674
20
-231.647
11
19.8627
21
-231.552
0
LINE
8
BLACK
6
CONTINUOUS
10
19.8627
20
-231.552
11
20.0531
21
-231.457
0
LINE
8
BLACK
6
CONTINUOUS
10
20.0531
20
-231.457
11
20.5293
21
-231.457
0
LINE
8
BLACK
6
CONTINUOUS
10
20.5293
20
-231.457
11
20.7198
21
-231.552
0
LINE
8
BLACK
6
CONTINUOUS
10
20.7198
20
-231.552
11
20.8151
21
-231.647
0
LINE
8
BLACK
6
CONTINUOUS
10
20.8151
20
-231.647
11
20.9103
21
-231.838
0
LINE
8
BLACK
6
CONTINUOUS
10
20.9103
20
-231.838
11
20.9103
21
-232.314
0
LINE
8
BLACK
6
CONTINUOUS
10
20.9103
20
-232.314
11
20.8151
21
-232.504
0
LINE
8
BLACK
6
CONTINUOUS
10
20.8151
20
-232.504
11
20.7198
21
-232.6
0
LINE
8
BLACK
6
CONTINUOUS
10
20.7198
20
-232.6
11
20.5293
21
-232.695
0
LINE
8
BLACK
6
CONTINUOUS
10
20.5293
20
-232.695
11
20.0531
21
-232.695
0
LINE
8
BLACK
6
CONTINUOUS
10
20.0531
20
-232.695
11
19.8627
21
-232.6
0
LINE
8
BLACK
6
CONTINUOUS
10
19.8627
20
-232.6
11
19.7674
21
-232.504
0
LINE
8
BLACK
6
CONTINUOUS
10
22.1484
20
-230.695
11
22.3389
21
-230.695
0
LINE
8
BLACK
6
CONTINUOUS
10
22.3389
20
-230.695
11
22.5293
21
-230.79
0
LINE
8
BLACK
6
CONTINUOUS
10
22.5293
20
-230.79
11
22.6246
21
-230.885
0
LINE
8
BLACK
6
CONTINUOUS
10
22.6246
20
-230.885
11
22.7198
21
-231.076
0
LINE
8
BLACK
6
CONTINUOUS
10
22.7198
20
-231.076
11
22.8151
21
-231.457
0
LINE
8
BLACK
6
CONTINUOUS
10
22.8151
20
-231.457
11
22.8151
21
-231.933
0
LINE
8
BLACK
6
CONTINUOUS
10
22.8151
20
-231.933
11
22.7198
21
-232.314
0
LINE
8
BLACK
6
CONTINUOUS
10
22.7198
20
-232.314
11
22.6246
21
-232.504
0
LINE
8
BLACK
6
CONTINUOUS
10
22.6246
20
-232.504
11
22.5293
21
-232.6
0
LINE
8
BLACK
6
CONTINUOUS
10
22.5293
20
-232.6
11
22.3389
21
-232.695
0
LINE
8
BLACK
6
CONTINUOUS
10
22.3389
20
-232.695
11
22.1484
21
-232.695
0
LINE
8
BLACK
6
CONTINUOUS
10
22.1484
20
-232.695
11
21.9579
21
-232.6
0
LINE
8
BLACK
6
CONTINUOUS
10
21.9579
20
-232.6
11
21.8627
21
-232.504
0
LINE
8
BLACK
6
CONTINUOUS
10
21.8627
20
-232.504
11
21.7674
21
-232.314
0
LINE
8
BLACK
6
CONTINUOUS
10
21.7674
20
-232.314
11
21.6722
21
-231.933
0
LINE
8
BLACK
6
CONTINUOUS
10
21.6722
20
-231.933
11
21.6722
21
-231.457
0
LINE
8
BLACK
6
CONTINUOUS
10
21.6722
20
-231.457
11
21.7674
21
-231.076
0
LINE
8
BLACK
6
CONTINUOUS
10
21.7674
20
-231.076
11
21.8627
21
-230.885
0
LINE
8
BLACK
6
CONTINUOUS
10
21.8627
20
-230.885
11
21.9579
21
-230.79
0
LINE
8
BLACK
6
CONTINUOUS
10
21.9579
20
-230.79
11
22.1484
21
-230.695
0
LINE
8
BLACK
6
CONTINUOUS
10
23.6722
20
-232.695
11
23.6722
21
-231.362
0
LINE
8
BLACK
6
CONTINUOUS
10
23.6722
20
-231.552
11
23.7674
21
-231.457
0
LINE
8
BLACK
6
CONTINUOUS
10
23.7674
20
-231.457
11
23.9579
21
-231.362
0
LINE
8
BLACK
6
CONTINUOUS
10
23.9579
20
-231.362
11
24.2436
21
-231.362
0
LINE
8
BLACK
6
CONTINUOUS
10
24.2436
20
-231.362
11
24.4341
21
-231.457
0
LINE
8
BLACK
6
CONTINUOUS
10
24.4341
20
-231.457
11
24.5293
21
-231.647
0
LINE
8
BLACK
6
CONTINUOUS
10
24.5293
20
-231.647
11
24.5293
21
-232.695
0
LINE
8
BLACK
6
CONTINUOUS
10
24.5293
20
-231.647
11
24.6246
21
-231.457
0
LINE
8
BLACK
6
CONTINUOUS
10
24.6246
20
-231.457
11
24.8151
21
-231.362
0
LINE
8
BLACK
6
CONTINUOUS
10
24.8151
20
-231.362
11
25.1008
21
-231.362
0
LINE
8
BLACK
6
CONTINUOUS
10
25.1008
20
-231.362
11
25.2912
21
-231.457
0
LINE
8
BLACK
6
CONTINUOUS
10
25.2912
20
-231.457
11
25.3865
21
-231.647
0
LINE
8
BLACK
6
CONTINUOUS
10
25.3865
20
-231.647
11
25.3865
21
-232.695
0
LINE
8
BLACK
6
CONTINUOUS
10
26.3389
20
-232.695
11
26.3389
21
-231.362
0
LINE
8
BLACK
6
CONTINUOUS
10
26.3389
20
-231.552
11
26.4341
21
-231.457
0
LINE
8
BLACK
6
CONTINUOUS
10
26.4341
20
-231.457
11
26.6246
21
-231.362
0
LINE
8
BLACK
6
CONTINUOUS
10
26.6246
20
-231.362
11
26.9103
21
-231.362
0
LINE
8
BLACK
6
CONTINUOUS
10
26.9103
20
-231.362
11
27.1008
21
-231.457
0
LINE
8
BLACK
6
CONTINUOUS
10
27.1008
20
-231.457
11
27.196
21
-231.647
0
LINE
8
BLACK
6
CONTINUOUS
10
27.196
20
-231.647
11
27.196
21
-232.695
0
LINE
8
BLACK
6
CONTINUOUS
10
27.196
20
-231.647
11
27.2912
21
-231.457
0
LINE
8
BLACK
6
CONTINUOUS
10
27.2912
20
-231.457
11
27.4817
21
-231.362
0
LINE
8
BLACK
6
CONTINUOUS
10
27.4817
20
-231.362
11
27.7674
21
-231.362
0
LINE
8
BLACK
6
CONTINUOUS
10
27.7674
20
-231.362
11
27.9579
21
-231.457
0
LINE
8
BLACK
6
CONTINUOUS
10
27.9579
20
-231.457
11
28.0531
21
-231.647
0
LINE
8
BLACK
6
CONTINUOUS
10
28.0531
20
-231.647
11
28.0531
21
-232.695
0
LINE
8
BLACK
6
CONTINUOUS
10
31.9579
20
-230.6
11
30.2436
21
-233.171
0
LINE
8
BLACK
6
CONTINUOUS
10
34.5293
20
-230.695
11
34.7198
21
-230.695
0
LINE
8
BLACK
6
CONTINUOUS
10
34.7198
20
-230.695
11
34.9103
21
-230.79
0
LINE
8
BLACK
6
CONTINUOUS
10
34.9103
20
-230.79
11
35.0055
21
-230.885
0
LINE
8
BLACK
6
CONTINUOUS
10
35.0055
20
-230.885
11
35.1008
21
-231.076
0
LINE
8
BLACK
6
CONTINUOUS
10
35.1008
20
-231.076
11
35.196
21
-231.457
0
LINE
8
BLACK
6
CONTINUOUS
10
35.196
20
-231.457
11
35.196
21
-231.933
0
LINE
8
BLACK
6
CONTINUOUS
10
35.196
20
-231.933
11
35.1008
21
-232.314
0
LINE
8
BLACK
6
CONTINUOUS
10
35.1008
20
-232.314
11
35.0055
21
-232.504
0
LINE
8
BLACK
6
CONTINUOUS
10
35.0055
20
-232.504
11
34.9103
21
-232.6
0
LINE
8
BLACK
6
CONTINUOUS
10
34.9103
20
-232.6
11
34.7198
21
-232.695
0
LINE
8
BLACK
6
CONTINUOUS
10
34.7198
20
-232.695
11
34.5293
21
-232.695
0
LINE
8
BLACK
6
CONTINUOUS
10
34.5293
20
-232.695
11
34.3389
21
-232.6
0
LINE
8
BLACK
6
CONTINUOUS
10
34.3389
20
-232.6
11
34.2436
21
-232.504
0
LINE
8
BLACK
6
CONTINUOUS
10
34.2436
20
-232.504
11
34.1484
21
-232.314
0
LINE
8
BLACK
6
CONTINUOUS
10
34.1484
20
-232.314
11
34.0532
21
-231.933
0
LINE
8
BLACK
6
CONTINUOUS
10
34.0532
20
-231.933
11
34.0532
21
-231.457
0
LINE
8
BLACK
6
CONTINUOUS
10
34.0532
20
-231.457
11
34.1484
21
-231.076
0
LINE
8
BLACK
6
CONTINUOUS
10
34.1484
20
-231.076
11
34.2436
21
-230.885
0
LINE
8
BLACK
6
CONTINUOUS
10
34.2436
20
-230.885
11
34.3389
21
-230.79
0
LINE
8
BLACK
6
CONTINUOUS
10
34.3389
20
-230.79
11
34.5293
21
-230.695
0
LINE
8
BLACK
6
CONTINUOUS
10
36.0532
20
-232.504
11
36.1484
21
-232.6
0
LINE
8
BLACK
6
CONTINUOUS
10
36.1484
20
-232.6
11
36.0532
21
-232.695
0
LINE
8
BLACK
6
CONTINUOUS
10
36.0532
20
-232.695
11
35.9579
21
-232.6
0
LINE
8
BLACK
6
CONTINUOUS
10
35.9579
20
-232.6
11
36.0532
21
-232.504
0
LINE
8
BLACK
6
CONTINUOUS
10
36.0532
20
-232.504
11
36.0532
21
-232.695
0
LINE
8
BLACK
6
CONTINUOUS
10
38.0532
20
-232.695
11
36.9103
21
-232.695
0
LINE
8
BLACK
6
CONTINUOUS
10
37.4817
20
-232.695
11
37.4817
21
-230.695
0
LINE
8
BLACK
6
CONTINUOUS
10
37.4817
20
-230.695
11
37.2912
21
-230.981
0
LINE
8
BLACK
6
CONTINUOUS
10
37.2912
20
-230.981
11
37.1008
21
-231.171
0
LINE
8
BLACK
6
CONTINUOUS
10
37.1008
20
-231.171
11
36.9103
21
-231.266
0
LINE
8
BLACK
6
CONTINUOUS
10
38.8151
20
-230.885
11
38.9103
21
-230.79
0
LINE
8
BLACK
6
CONTINUOUS
10
38.9103
20
-230.79
11
39.1008
21
-230.695
0
LINE
8
BLACK
6
CONTINUOUS
10
39.1008
20
-230.695
11
39.577
21
-230.695
0
LINE
8
BLACK
6
CONTINUOUS
10
39.577
20
-230.695
11
39.7674
21
-230.79
0
LINE
8
BLACK
6
CONTINUOUS
10
39.7674
20
-230.79
11
39.8627
21
-230.885
0
LINE
8
BLACK
6
CONTINUOUS
10
39.8627
20
-230.885
11
39.9579
21
-231.076
0
LINE
8
BLACK
6
CONTINUOUS
10
39.9579
20
-231.076
11
39.9579
21
-231.266
0
LINE
8
BLACK
6
CONTINUOUS
10
39.9579
20
-231.266
11
39.8627
21
-231.552
0
LINE
8
BLACK
6
CONTINUOUS
10
39.8627
20
-231.552
11
38.7198
21
-232.695
0
LINE
8
BLACK
6
CONTINUOUS
10
38.7198
20
-232.695
11
39.9579
21
-232.695
0
LINE
8
BLACK
6
CONTINUOUS
10
41.1008
20
-231.552
11
40.9103
21
-231.457
0
LINE
8
BLACK
6
CONTINUOUS
10
40.9103
20
-231.457
11
40.8151
21
-231.362
0
LINE
8
BLACK
6
CONTINUOUS
10
40.8151
20
-231.362
11
40.7198
21
-231.171
0
LINE
8
BLACK
6
CONTINUOUS
10
40.7198
20
-231.171
11
40.7198
21
-231.076
0
LINE
8
BLACK
6
CONTINUOUS
10
40.7198
20
-231.076
11
40.8151
21
-230.885
0
LINE
8
BLACK
6
CONTINUOUS
10
40.8151
20
-230.885
11
40.9103
21
-230.79
0
LINE
8
BLACK
6
CONTINUOUS
10
40.9103
20
-230.79
11
41.1008
21
-230.695
0
LINE
8
BLACK
6
CONTINUOUS
10
41.1008
20
-230.695
11
41.4817
21
-230.695
0
LINE
8
BLACK
6
CONTINUOUS
10
41.4817
20
-230.695
11
41.6722
21
-230.79
0
LINE
8
BLACK
6
CONTINUOUS
10
41.6722
20
-230.79
11
41.7674
21
-230.885
0
LINE
8
BLACK
6
CONTINUOUS
10
41.7674
20
-230.885
11
41.8627
21
-231.076
0
LINE
8
BLACK
6
CONTINUOUS
10
41.8627
20
-231.076
11
41.8627
21
-231.171
0
LINE
8
BLACK
6
CONTINUOUS
10
41.8627
20
-231.171
11
41.7674
21
-231.362
0
LINE
8
BLACK
6
CONTINUOUS
10
41.7674
20
-231.362
11
41.6722
21
-231.457
0
LINE
8
BLACK
6
CONTINUOUS
10
41.6722
20
-231.457
11
41.4817
21
-231.552
0
LINE
8
BLACK
6
CONTINUOUS
10
41.4817
20
-231.552
11
41.1008
21
-231.552
0
LINE
8
BLACK
6
CONTINUOUS
10
41.1008
20
-231.552
11
40.9103
21
-231.647
0
LINE
8
BLACK
6
CONTINUOUS
10
40.9103
20
-231.647
11
40.8151
21
-231.742
0
LINE
8
BLACK
6
CONTINUOUS
10
40.8151
20
-231.742
11
40.7198
21
-231.933
0
LINE
8
BLACK
6
CONTINUOUS
10
40.7198
20
-231.933
11
40.7198
21
-232.314
0
LINE
8
BLACK
6
CONTINUOUS
10
40.7198
20
-232.314
11
40.8151
21
-232.504
0
LINE
8
BLACK
6
CONTINUOUS
10
40.8151
20
-232.504
11
40.9103
21
-232.6
0
LINE
8
BLACK
6
CONTINUOUS
10
40.9103
20
-232.6
11
41.1008
21
-232.695
0
LINE
8
BLACK
6
CONTINUOUS
10
41.1008
20
-232.695
11
41.4817
21
-232.695
0
LINE
8
BLACK
6
CONTINUOUS
10
41.4817
20
-232.695
11
41.6722
21
-232.6
0
LINE
8
BLACK
6
CONTINUOUS
10
41.6722
20
-232.6
11
41.7674
21
-232.504
0
LINE
8
BLACK
6
CONTINUOUS
10
41.7674
20
-232.504
11
41.8627
21
-232.314
0
LINE
8
BLACK
6
CONTINUOUS
10
41.8627
20
-232.314
11
41.8627
21
-231.933
0
LINE
8
BLACK
6
CONTINUOUS
10
41.8627
20
-231.933
11
41.7674
21
-231.742
0
LINE
8
BLACK
6
CONTINUOUS
10
41.7674
20
-231.742
11
41.6722
21
-231.647
0
LINE
8
BLACK
6
CONTINUOUS
10
41.6722
20
-231.647
11
41.4817
21
-231.552
0
LINE
8
BLACK
6
CONTINUOUS
10
43.1008
20
-230.695
11
43.2912
21
-230.695
0
LINE
8
BLACK
6
CONTINUOUS
10
43.2912
20
-230.695
11
43.4817
21
-230.79
0
LINE
8
BLACK
6
CONTINUOUS
10
43.4817
20
-230.79
11
43.577
21
-230.885
0
LINE
8
BLACK
6
CONTINUOUS
10
43.577
20
-230.885
11
43.6722
21
-231.076
0
LINE
8
BLACK
6
CONTINUOUS
10
43.6722
20
-231.076
11
43.7674
21
-231.457
0
LINE
8
BLACK
6
CONTINUOUS
10
43.7674
20
-231.457
11
43.7674
21
-231.933
0
LINE
8
BLACK
6
CONTINUOUS
10
43.7674
20
-231.933
11
43.6722
21
-232.314
0
LINE
8
BLACK
6
CONTINUOUS
10
43.6722
20
-232.314
11
43.577
21
-232.504
0
LINE
8
BLACK
6
CONTINUOUS
10
43.577
20
-232.504
11
43.4817
21
-232.6
0
LINE
8
BLACK
6
CONTINUOUS
10
43.4817
20
-232.6
11
43.2912
21
-232.695
0
LINE
8
BLACK
6
CONTINUOUS
10
43.2912
20
-232.695
11
43.1008
21
-232.695
0
LINE
8
BLACK
6
CONTINUOUS
10
43.1008
20
-232.695
11
42.9103
21
-232.6
0
LINE
8
BLACK
6
CONTINUOUS
10
42.9103
20
-232.6
11
42.8151
21
-232.504
0
LINE
8
BLACK
6
CONTINUOUS
10
42.8151
20
-232.504
11
42.7198
21
-232.314
0
LINE
8
BLACK
6
CONTINUOUS
10
42.7198
20
-232.314
11
42.6246
21
-231.933
0
LINE
8
BLACK
6
CONTINUOUS
10
42.6246
20
-231.933
11
42.6246
21
-231.457
0
LINE
8
BLACK
6
CONTINUOUS
10
42.6246
20
-231.457
11
42.7198
21
-231.076
0
LINE
8
BLACK
6
CONTINUOUS
10
42.7198
20
-231.076
11
42.8151
21
-230.885
0
LINE
8
BLACK
6
CONTINUOUS
10
42.8151
20
-230.885
11
42.9103
21
-230.79
0
LINE
8
BLACK
6
CONTINUOUS
10
42.9103
20
-230.79
11
43.1008
21
-230.695
0
LINE
8
BLACK
6
CONTINUOUS
10
44.5293
20
-230.695
11
44.5293
21
-231.076
0
LINE
8
BLACK
6
CONTINUOUS
10
45.2912
20
-230.695
11
45.2912
21
-231.076
0
LINE
8
BLACK
6
CONTINUOUS
10
48.2436
20
-233.457
11
48.1484
21
-233.362
0
LINE
8
BLACK
6
CONTINUOUS
10
48.1484
20
-233.362
11
47.9579
21
-233.076
0
LINE
8
BLACK
6
CONTINUOUS
10
47.9579
20
-233.076
11
47.8627
21
-232.885
0
LINE
8
BLACK
6
CONTINUOUS
10
47.8627
20
-232.885
11
47.7674
21
-232.6
0
LINE
8
BLACK
6
CONTINUOUS
10
47.7674
20
-232.6
11
47.6722
21
-232.123
0
LINE
8
BLACK
6
CONTINUOUS
10
47.6722
20
-232.123
11
47.6722
21
-231.742
0
LINE
8
BLACK
6
CONTINUOUS
10
47.6722
20
-231.742
11
47.7674
21
-231.266
0
LINE
8
BLACK
6
CONTINUOUS
10
47.7674
20
-231.266
11
47.8627
21
-230.981
0
LINE
8
BLACK
6
CONTINUOUS
10
47.8627
20
-230.981
11
47.9579
21
-230.79
0
LINE
8
BLACK
6
CONTINUOUS
10
47.9579
20
-230.79
11
48.1484
21
-230.504
0
LINE
8
BLACK
6
CONTINUOUS
10
48.1484
20
-230.504
11
48.2436
21
-230.409
0
LINE
8
BLACK
6
CONTINUOUS
10
48.9103
20
-230.885
11
49.0055
21
-230.79
0
LINE
8
BLACK
6
CONTINUOUS
10
49.0055
20
-230.79
11
49.196
21
-230.695
0
LINE
8
BLACK
6
CONTINUOUS
10
49.196
20
-230.695
11
49.6722
21
-230.695
0
LINE
8
BLACK
6
CONTINUOUS
10
49.6722
20
-230.695
11
49.8627
21
-230.79
0
LINE
8
BLACK
6
CONTINUOUS
10
49.8627
20
-230.79
11
49.9579
21
-230.885
0
LINE
8
BLACK
6
CONTINUOUS
10
49.9579
20
-230.885
11
50.0532
21
-231.076
0
LINE
8
BLACK
6
CONTINUOUS
10
50.0532
20
-231.076
11
50.0532
21
-231.266
0
LINE
8
BLACK
6
CONTINUOUS
10
50.0532
20
-231.266
11
49.9579
21
-231.552
0
LINE
8
BLACK
6
CONTINUOUS
10
49.9579
20
-231.552
11
48.8151
21
-232.695
0
LINE
8
BLACK
6
CONTINUOUS
10
48.8151
20
-232.695
11
50.0532
21
-232.695
0
LINE
8
BLACK
6
CONTINUOUS
10
52.4341
20
-232.695
11
52.4341
21
-230.695
0
LINE
8
BLACK
6
CONTINUOUS
10
53.2912
20
-232.695
11
53.2912
21
-231.647
0
LINE
8
BLACK
6
CONTINUOUS
10
53.2912
20
-231.647
11
53.196
21
-231.457
0
LINE
8
BLACK
6
CONTINUOUS
10
53.196
20
-231.457
11
53.0055
21
-231.362
0
LINE
8
BLACK
6
CONTINUOUS
10
53.0055
20
-231.362
11
52.7198
21
-231.362
0
LINE
8
BLACK
6
CONTINUOUS
10
52.7198
20
-231.362
11
52.5293
21
-231.457
0
LINE
8
BLACK
6
CONTINUOUS
10
52.5293
20
-231.457
11
52.4341
21
-231.552
0
LINE
8
BLACK
6
CONTINUOUS
10
54.5293
20
-232.695
11
54.3389
21
-232.6
0
LINE
8
BLACK
6
CONTINUOUS
10
54.3389
20
-232.6
11
54.2436
21
-232.504
0
LINE
8
BLACK
6
CONTINUOUS
10
54.2436
20
-232.504
11
54.1484
21
-232.314
0
LINE
8
BLACK
6
CONTINUOUS
10
54.1484
20
-232.314
11
54.1484
21
-231.742
0
LINE
8
BLACK
6
CONTINUOUS
10
54.1484
20
-231.742
11
54.2436
21
-231.552
0
LINE
8
BLACK
6
CONTINUOUS
10
54.2436
20
-231.552
11
54.3389
21
-231.457
0
LINE
8
BLACK
6
CONTINUOUS
10
54.3389
20
-231.457
11
54.5293
21
-231.362
0
LINE
8
BLACK
6
CONTINUOUS
10
54.5293
20
-231.362
11
54.8151
21
-231.362
0
LINE
8
BLACK
6
CONTINUOUS
10
54.8151
20
-231.362
11
55.0055
21
-231.457
0
LINE
8
BLACK
6
CONTINUOUS
10
55.0055
20
-231.457
11
55.1008
21
-231.552
0
LINE
8
BLACK
6
CONTINUOUS
10
55.1008
20
-231.552
11
55.196
21
-231.742
0
LINE
8
BLACK
6
CONTINUOUS
10
55.196
20
-231.742
11
55.196
21
-232.314
0
LINE
8
BLACK
6
CONTINUOUS
10
55.196
20
-232.314
11
55.1008
21
-232.504
0
LINE
8
BLACK
6
CONTINUOUS
10
55.1008
20
-232.504
11
55.0055
21
-232.6
0
LINE
8
BLACK
6
CONTINUOUS
10
55.0055
20
-232.6
11
54.8151
21
-232.695
0
LINE
8
BLACK
6
CONTINUOUS
10
54.8151
20
-232.695
11
54.5293
21
-232.695
0
LINE
8
BLACK
6
CONTINUOUS
10
56.3389
20
-232.695
11
56.1484
21
-232.6
0
LINE
8
BLACK
6
CONTINUOUS
10
56.1484
20
-232.6
11
56.0532
21
-232.409
0
LINE
8
BLACK
6
CONTINUOUS
10
56.0532
20
-232.409
11
56.0532
21
-230.695
0
LINE
8
BLACK
6
CONTINUOUS
10
57.8627
20
-232.6
11
57.6722
21
-232.695
0
LINE
8
BLACK
6
CONTINUOUS
10
57.6722
20
-232.695
11
57.2912
21
-232.695
0
LINE
8
BLACK
6
CONTINUOUS
10
57.2912
20
-232.695
11
57.1008
21
-232.6
0
LINE
8
BLACK
6
CONTINUOUS
10
57.1008
20
-232.6
11
57.0055
21
-232.409
0
LINE
8
BLACK
6
CONTINUOUS
10
57.0055
20
-232.409
11
57.0055
21
-231.647
0
LINE
8
BLACK
6
CONTINUOUS
10
57.0055
20
-231.647
11
57.1008
21
-231.457
0
LINE
8
BLACK
6
CONTINUOUS
10
57.1008
20
-231.457
11
57.2912
21
-231.362
0
LINE
8
BLACK
6
CONTINUOUS
10
57.2912
20
-231.362
11
57.6722
21
-231.362
0
LINE
8
BLACK
6
CONTINUOUS
10
57.6722
20
-231.362
11
57.8627
21
-231.457
0
LINE
8
BLACK
6
CONTINUOUS
10
57.8627
20
-231.457
11
57.9579
21
-231.647
0
LINE
8
BLACK
6
CONTINUOUS
10
57.9579
20
-231.647
11
57.9579
21
-231.838
0
LINE
8
BLACK
6
CONTINUOUS
10
57.9579
20
-231.838
11
57.0055
21
-232.028
0
LINE
8
BLACK
6
CONTINUOUS
10
58.7198
20
-232.6
11
58.9103
21
-232.695
0
LINE
8
BLACK
6
CONTINUOUS
10
58.9103
20
-232.695
11
59.2912
21
-232.695
0
LINE
8
BLACK
6
CONTINUOUS
10
59.2912
20
-232.695
11
59.4817
21
-232.6
0
LINE
8
BLACK
6
CONTINUOUS
10
59.4817
20
-232.6
11
59.577
21
-232.409
0
LINE
8
BLACK
6
CONTINUOUS
10
59.577
20
-232.409
11
59.577
21
-232.314
0
LINE
8
BLACK
6
CONTINUOUS
10
59.577
20
-232.314
11
59.4817
21
-232.123
0
LINE
8
BLACK
6
CONTINUOUS
10
59.4817
20
-232.123
11
59.2912
21
-232.028
0
LINE
8
BLACK
6
CONTINUOUS
10
59.2912
20
-232.028
11
59.0055
21
-232.028
0
LINE
8
BLACK
6
CONTINUOUS
10
59.0055
20
-232.028
11
58.8151
21
-231.933
0
LINE
8
BLACK
6
CONTINUOUS
10
58.8151
20
-231.933
11
58.7198
21
-231.742
0
LINE
8
BLACK
6
CONTINUOUS
10
58.7198
20
-231.742
11
58.7198
21
-231.647
0
LINE
8
BLACK
6
CONTINUOUS
10
58.7198
20
-231.647
11
58.8151
21
-231.457
0
LINE
8
BLACK
6
CONTINUOUS
10
58.8151
20
-231.457
11
59.0055
21
-231.362
0
LINE
8
BLACK
6
CONTINUOUS
10
59.0055
20
-231.362
11
59.2912
21
-231.362
0
LINE
8
BLACK
6
CONTINUOUS
10
59.2912
20
-231.362
11
59.4817
21
-231.457
0
LINE
8
BLACK
6
CONTINUOUS
10
60.2436
20
-233.457
11
60.3389
21
-233.362
0
LINE
8
BLACK
6
CONTINUOUS
10
60.3389
20
-233.362
11
60.5293
21
-233.076
0
LINE
8
BLACK
6
CONTINUOUS
10
60.5293
20
-233.076
11
60.6246
21
-232.885
0
LINE
8
BLACK
6
CONTINUOUS
10
60.6246
20
-232.885
11
60.7198
21
-232.6
0
LINE
8
BLACK
6
CONTINUOUS
10
60.7198
20
-232.6
11
60.8151
21
-232.123
0
LINE
8
BLACK
6
CONTINUOUS
10
60.8151
20
-232.123
11
60.8151
21
-231.742
0
LINE
8
BLACK
6
CONTINUOUS
10
60.8151
20
-231.742
11
60.7198
21
-231.266
0
LINE
8
BLACK
6
CONTINUOUS
10
60.7198
20
-231.266
11
60.6246
21
-230.981
0
LINE
8
BLACK
6
CONTINUOUS
10
60.6246
20
-230.981
11
60.5293
21
-230.79
0
LINE
8
BLACK
6
CONTINUOUS
10
60.5293
20
-230.79
11
60.3389
21
-230.504
0
LINE
8
BLACK
6
CONTINUOUS
10
60.3389
20
-230.504
11
60.2436
21
-230.409
0
LINE
8
BLACK
6
CONTINUOUS
10
63.8627
20
-233.457
11
63.7674
21
-233.362
0
LINE
8
BLACK
6
CONTINUOUS
10
63.7674
20
-233.362
11
63.577
21
-233.076
0
LINE
8
BLACK
6
CONTINUOUS
10
63.577
20
-233.076
11
63.4817
21
-232.885
0
LINE
8
BLACK
6
CONTINUOUS
10
63.4817
20
-232.885
11
63.3865
21
-232.6
0
LINE
8
BLACK
6
CONTINUOUS
10
63.3865
20
-232.6
11
63.2912
21
-232.123
0
LINE
8
BLACK
6
CONTINUOUS
10
63.2912
20
-232.123
11
63.2912
21
-231.742
0
LINE
8
BLACK
6
CONTINUOUS
10
63.2912
20
-231.742
11
63.3865
21
-231.266
0
LINE
8
BLACK
6
CONTINUOUS
10
63.3865
20
-231.266
11
63.4817
21
-230.981
0
LINE
8
BLACK
6
CONTINUOUS
10
63.4817
20
-230.981
11
63.577
21
-230.79
0
LINE
8
BLACK
6
CONTINUOUS
10
63.577
20
-230.79
11
63.7674
21
-230.504
0
LINE
8
BLACK
6
CONTINUOUS
10
63.7674
20
-230.504
11
63.8627
21
-230.409
0
LINE
8
BLACK
6
CONTINUOUS
10
64.6246
20
-231.362
11
64.6246
21
-232.695
0
LINE
8
BLACK
6
CONTINUOUS
10
64.6246
20
-231.552
11
64.7198
21
-231.457
0
LINE
8
BLACK
6
CONTINUOUS
10
64.7198
20
-231.457
11
64.9103
21
-231.362
0
LINE
8
BLACK
6
CONTINUOUS
10
64.9103
20
-231.362
11
65.196
21
-231.362
0
LINE
8
BLACK
6
CONTINUOUS
10
65.196
20
-231.362
11
65.3865
21
-231.457
0
LINE
8
BLACK
6
CONTINUOUS
10
65.3865
20
-231.457
11
65.4817
21
-231.647
0
LINE
8
BLACK
6
CONTINUOUS
10
65.4817
20
-231.647
11
65.4817
21
-232.695
0
LINE
8
BLACK
6
CONTINUOUS
10
66.7198
20
-232.695
11
66.5293
21
-232.6
0
LINE
8
BLACK
6
CONTINUOUS
10
66.5293
20
-232.6
11
66.4341
21
-232.504
0
LINE
8
BLACK
6
CONTINUOUS
10
66.4341
20
-232.504
11
66.3389
21
-232.314
0
LINE
8
BLACK
6
CONTINUOUS
10
66.3389
20
-232.314
11
66.3389
21
-231.742
0
LINE
8
BLACK
6
CONTINUOUS
10
66.3389
20
-231.742
11
66.4341
21
-231.552
0
LINE
8
BLACK
6
CONTINUOUS
10
66.4341
20
-231.552
11
66.5293
21
-231.457
0
LINE
8
BLACK
6
CONTINUOUS
10
66.5293
20
-231.457
11
66.7198
21
-231.362
0
LINE
8
BLACK
6
CONTINUOUS
10
66.7198
20
-231.362
11
67.0055
21
-231.362
0
LINE
8
BLACK
6
CONTINUOUS
10
67.0055
20
-231.362
11
67.196
21
-231.457
0
LINE
8
BLACK
6
CONTINUOUS
10
67.196
20
-231.457
11
67.2912
21
-231.552
0
LINE
8
BLACK
6
CONTINUOUS
10
67.2912
20
-231.552
11
67.3865
21
-231.742
0
LINE
8
BLACK
6
CONTINUOUS
10
67.3865
20
-231.742
11
67.3865
21
-232.314
0
LINE
8
BLACK
6
CONTINUOUS
10
67.3865
20
-232.314
11
67.2912
21
-232.504
0
LINE
8
BLACK
6
CONTINUOUS
10
67.2912
20
-232.504
11
67.196
21
-232.6
0
LINE
8
BLACK
6
CONTINUOUS
10
67.196
20
-232.6
11
67.0055
21
-232.695
0
LINE
8
BLACK
6
CONTINUOUS
10
67.0055
20
-232.695
11
66.7198
21
-232.695
0
LINE
8
BLACK
6
CONTINUOUS
10
67.9579
20
-231.362
11
68.7198
21
-231.362
0
LINE
8
BLACK
6
CONTINUOUS
10
68.2436
20
-230.695
11
68.2436
21
-232.409
0
LINE
8
BLACK
6
CONTINUOUS
10
68.2436
20
-232.409
11
68.3389
21
-232.6
0
LINE
8
BLACK
6
CONTINUOUS
10
68.3389
20
-232.6
11
68.5293
21
-232.695
0
LINE
8
BLACK
6
CONTINUOUS
10
68.5293
20
-232.695
11
68.7198
21
-232.695
0
LINE
8
BLACK
6
CONTINUOUS
10
70.9103
20
-231.362
11
70.9103
21
-233.362
0
LINE
8
BLACK
6
CONTINUOUS
10
70.9103
20
-231.457
11
71.1008
21
-231.362
0
LINE
8
BLACK
6
CONTINUOUS
10
71.1008
20
-231.362
11
71.4817
21
-231.362
0
LINE
8
BLACK
6
CONTINUOUS
10
71.4817
20
-231.362
11
71.6722
21
-231.457
0
LINE
8
BLACK
6
CONTINUOUS
10
71.6722
20
-231.457
11
71.7674
21
-231.552
0
LINE
8
BLACK
6
CONTINUOUS
10
71.7674
20
-231.552
11
71.8627
21
-231.742
0
LINE
8
BLACK
6
CONTINUOUS
10
71.8627
20
-231.742
11
71.8627
21
-232.314
0
LINE
8
BLACK
6
CONTINUOUS
10
71.8627
20
-232.314
11
71.7674
21
-232.504
0
LINE
8
BLACK
6
CONTINUOUS
10
71.7674
20
-232.504
11
71.6722
21
-232.6
0
LINE
8
BLACK
6
CONTINUOUS
10
71.6722
20
-232.6
11
71.4817
21
-232.695
0
LINE
8
BLACK
6
CONTINUOUS
10
71.4817
20
-232.695
11
71.1008
21
-232.695
0
LINE
8
BLACK
6
CONTINUOUS
10
71.1008
20
-232.695
11
70.9103
21
-232.6
0
LINE
8
BLACK
6
CONTINUOUS
10
73.0055
20
-232.695
11
72.8151
21
-232.6
0
LINE
8
BLACK
6
CONTINUOUS
10
72.8151
20
-232.6
11
72.7198
21
-232.409
0
LINE
8
BLACK
6
CONTINUOUS
10
72.7198
20
-232.409
11
72.7198
21
-230.695
0
LINE
8
BLACK
6
CONTINUOUS
10
74.6246
20
-232.695
11
74.6246
21
-231.647
0
LINE
8
BLACK
6
CONTINUOUS
10
74.6246
20
-231.647
11
74.5293
21
-231.457
0
LINE
8
BLACK
6
CONTINUOUS
10
74.5293
20
-231.457
11
74.3389
21
-231.362
0
LINE
8
BLACK
6
CONTINUOUS
10
74.3389
20
-231.362
11
73.9579
21
-231.362
0
LINE
8
BLACK
6
CONTINUOUS
10
73.9579
20
-231.362
11
73.7674
21
-231.457
0
LINE
8
BLACK
6
CONTINUOUS
10
74.6246
20
-232.6
11
74.4341
21
-232.695
0
LINE
8
BLACK
6
CONTINUOUS
10
74.4341
20
-232.695
11
73.9579
21
-232.695
0
LINE
8
BLACK
6
CONTINUOUS
10
73.9579
20
-232.695
11
73.7674
21
-232.6
0
LINE
8
BLACK
6
CONTINUOUS
10
73.7674
20
-232.6
11
73.6722
21
-232.409
0
LINE
8
BLACK
6
CONTINUOUS
10
73.6722
20
-232.409
11
73.6722
21
-232.219
0
LINE
8
BLACK
6
CONTINUOUS
10
73.6722
20
-232.219
11
73.7674
21
-232.028
0
LINE
8
BLACK
6
CONTINUOUS
10
73.7674
20
-232.028
11
73.9579
21
-231.933
0
LINE
8
BLACK
6
CONTINUOUS
10
73.9579
20
-231.933
11
74.4341
21
-231.933
0
LINE
8
BLACK
6
CONTINUOUS
10
74.4341
20
-231.933
11
74.6246
21
-231.838
0
LINE
8
BLACK
6
CONTINUOUS
10
75.2912
20
-231.362
11
76.0532
21
-231.362
0
LINE
8
BLACK
6
CONTINUOUS
10
75.577
20
-230.695
11
75.577
21
-232.409
0
LINE
8
BLACK
6
CONTINUOUS
10
75.577
20
-232.409
11
75.6722
21
-232.6
0
LINE
8
BLACK
6
CONTINUOUS
10
75.6722
20
-232.6
11
75.8627
21
-232.695
0
LINE
8
BLACK
6
CONTINUOUS
10
75.8627
20
-232.695
11
76.0532
21
-232.695
0
LINE
8
BLACK
6
CONTINUOUS
10
77.4817
20
-232.6
11
77.2912
21
-232.695
0
LINE
8
BLACK
6
CONTINUOUS
10
77.2912
20
-232.695
11
76.9103
21
-232.695
0
LINE
8
BLACK
6
CONTINUOUS
10
76.9103
20
-232.695
11
76.7198
21
-232.6
0
LINE
8
BLACK
6
CONTINUOUS
10
76.7198
20
-232.6
11
76.6246
21
-232.409
0
LINE
8
BLACK
6
CONTINUOUS
10
76.6246
20
-232.409
11
76.6246
21
-231.647
0
LINE
8
BLACK
6
CONTINUOUS
10
76.6246
20
-231.647
11
76.7198
21
-231.457
0
LINE
8
BLACK
6
CONTINUOUS
10
76.7198
20
-231.457
11
76.9103
21
-231.362
0
LINE
8
BLACK
6
CONTINUOUS
10
76.9103
20
-231.362
11
77.2912
21
-231.362
0
LINE
8
BLACK
6
CONTINUOUS
10
77.2912
20
-231.362
11
77.4817
21
-231.457
0
LINE
8
BLACK
6
CONTINUOUS
10
77.4817
20
-231.457
11
77.577
21
-231.647
0
LINE
8
BLACK
6
CONTINUOUS
10
77.577
20
-231.647
11
77.577
21
-231.838
0
LINE
8
BLACK
6
CONTINUOUS
10
77.577
20
-231.838
11
76.6246
21
-232.028
0
LINE
8
BLACK
6
CONTINUOUS
10
79.2912
20
-232.695
11
79.2912
21
-230.695
0
LINE
8
BLACK
6
CONTINUOUS
10
79.2912
20
-232.6
11
79.1008
21
-232.695
0
LINE
8
BLACK
6
CONTINUOUS
10
79.1008
20
-232.695
11
78.7198
21
-232.695
0
LINE
8
BLACK
6
CONTINUOUS
10
78.7198
20
-232.695
11
78.5293
21
-232.6
0
LINE
8
BLACK
6
CONTINUOUS
10
78.5293
20
-232.6
11
78.4341
21
-232.504
0
LINE
8
BLACK
6
CONTINUOUS
10
78.4341
20
-232.504
11
78.3389
21
-232.314
0
LINE
8
BLACK
6
CONTINUOUS
10
78.3389
20
-232.314
11
78.3389
21
-231.742
0
LINE
8
BLACK
6
CONTINUOUS
10
78.3389
20
-231.742
11
78.4341
21
-231.552
0
LINE
8
BLACK
6
CONTINUOUS
10
78.4341
20
-231.552
11
78.5293
21
-231.457
0
LINE
8
BLACK
6
CONTINUOUS
10
78.5293
20
-231.457
11
78.7198
21
-231.362
0
LINE
8
BLACK
6
CONTINUOUS
10
78.7198
20
-231.362
11
79.1008
21
-231.362
0
LINE
8
BLACK
6
CONTINUOUS
10
79.1008
20
-231.362
11
79.2912
21
-231.457
0
LINE
8
BLACK
6
CONTINUOUS
10
80.0532
20
-233.457
11
80.1484
21
-233.362
0
LINE
8
BLACK
6
CONTINUOUS
10
80.1484
20
-233.362
11
80.3389
21
-233.076
0
LINE
8
BLACK
6
CONTINUOUS
10
80.3389
20
-233.076
11
80.4341
21
-232.885
0
LINE
8
BLACK
6
CONTINUOUS
10
80.4341
20
-232.885
11
80.5293
21
-232.6
0
LINE
8
BLACK
6
CONTINUOUS
10
80.5293
20
-232.6
11
80.6246
21
-232.123
0
LINE
8
BLACK
6
CONTINUOUS
10
80.6246
20
-232.123
11
80.6246
21
-231.742
0
LINE
8
BLACK
6
CONTINUOUS
10
80.6246
20
-231.742
11
80.5293
21
-231.266
0
LINE
8
BLACK
6
CONTINUOUS
10
80.5293
20
-231.266
11
80.4341
21
-230.981
0
LINE
8
BLACK
6
CONTINUOUS
10
80.4341
20
-230.981
11
80.3389
21
-230.79
0
LINE
8
BLACK
6
CONTINUOUS
10
80.3389
20
-230.79
11
80.1484
21
-230.504
0
LINE
8
BLACK
6
CONTINUOUS
10
80.1484
20
-230.504
11
80.0532
21
-230.409
  0
ENDSEC
  0
EOF
