G04 #@! TF.GenerationSoftware,KiCad,Pcbnew,(6.0.1)*
G04 #@! TF.CreationDate,2023-03-07T12:10:13-05:00*
G04 #@! TF.ProjectId,Interconnect,496e7465-7263-46f6-9e6e-6563742e6b69,1.0*
G04 #@! TF.SameCoordinates,Original*
G04 #@! TF.FileFunction,Copper,L4,Bot*
G04 #@! TF.FilePolarity,Positive*
%FSLAX46Y46*%
G04 Gerber Fmt 4.6, Leading zero omitted, Abs format (unit mm)*
G04 Created by KiCad (PCBNEW (6.0.1)) date 2023-03-07 12:10:13*
%MOMM*%
%LPD*%
G01*
G04 APERTURE LIST*
%ADD10C,0.150000*%
G04 #@! TA.AperFunction,NonConductor*
%ADD11C,0.150000*%
G04 #@! TD*
G04 #@! TA.AperFunction,ComponentPad*
%ADD12C,1.300000*%
G04 #@! TD*
G04 #@! TA.AperFunction,ComponentPad*
%ADD13R,1.700000X1.700000*%
G04 #@! TD*
G04 #@! TA.AperFunction,ComponentPad*
%ADD14O,1.700000X1.700000*%
G04 #@! TD*
G04 #@! TA.AperFunction,ComponentPad*
%ADD15R,1.650000X1.650000*%
G04 #@! TD*
G04 #@! TA.AperFunction,ComponentPad*
%ADD16C,1.650000*%
G04 #@! TD*
G04 #@! TA.AperFunction,ComponentPad*
%ADD17C,1.500000*%
G04 #@! TD*
G04 #@! TA.AperFunction,ComponentPad*
%ADD18C,2.400000*%
G04 #@! TD*
G04 #@! TA.AperFunction,ComponentPad*
%ADD19O,2.400000X2.400000*%
G04 #@! TD*
G04 #@! TA.AperFunction,ComponentPad*
%ADD20R,2.400000X1.600000*%
G04 #@! TD*
G04 #@! TA.AperFunction,ComponentPad*
%ADD21O,2.400000X1.600000*%
G04 #@! TD*
G04 #@! TA.AperFunction,ComponentPad*
%ADD22C,1.600000*%
G04 #@! TD*
G04 #@! TA.AperFunction,ComponentPad*
%ADD23O,1.600000X1.600000*%
G04 #@! TD*
G04 #@! TA.AperFunction,ComponentPad*
%ADD24O,2.300000X1.600000*%
G04 #@! TD*
G04 #@! TA.AperFunction,ComponentPad*
%ADD25R,1.500000X1.050000*%
G04 #@! TD*
G04 #@! TA.AperFunction,ComponentPad*
%ADD26O,1.500000X1.050000*%
G04 #@! TD*
G04 #@! TA.AperFunction,ComponentPad*
%ADD27R,2.025000X2.025000*%
G04 #@! TD*
G04 #@! TA.AperFunction,ComponentPad*
%ADD28C,2.025000*%
G04 #@! TD*
G04 #@! TA.AperFunction,ComponentPad*
%ADD29R,1.600000X1.600000*%
G04 #@! TD*
G04 #@! TA.AperFunction,ComponentPad*
%ADD30R,1.200000X1.200000*%
G04 #@! TD*
G04 #@! TA.AperFunction,ComponentPad*
%ADD31C,1.200000*%
G04 #@! TD*
G04 #@! TA.AperFunction,ComponentPad*
%ADD32C,4.200000*%
G04 #@! TD*
G04 #@! TA.AperFunction,ComponentPad*
%ADD33R,1.500000X1.500000*%
G04 #@! TD*
G04 #@! TA.AperFunction,ComponentPad*
%ADD34R,2.500000X2.500000*%
G04 #@! TD*
G04 #@! TA.AperFunction,ComponentPad*
%ADD35O,2.500000X2.500000*%
G04 #@! TD*
G04 #@! TA.AperFunction,ComponentPad*
%ADD36C,4.000000*%
G04 #@! TD*
G04 #@! TA.AperFunction,ComponentPad*
%ADD37C,1.905000*%
G04 #@! TD*
G04 #@! TA.AperFunction,ComponentPad*
%ADD38C,1.700000*%
G04 #@! TD*
G04 #@! TA.AperFunction,ComponentPad*
%ADD39C,3.500000*%
G04 #@! TD*
G04 #@! TA.AperFunction,ComponentPad*
%ADD40O,3.900000X1.950000*%
G04 #@! TD*
G04 #@! TA.AperFunction,ComponentPad*
%ADD41C,1.398000*%
G04 #@! TD*
G04 #@! TA.AperFunction,ComponentPad*
%ADD42C,3.015000*%
G04 #@! TD*
G04 #@! TA.AperFunction,ComponentPad*
%ADD43R,1.800000X1.800000*%
G04 #@! TD*
G04 #@! TA.AperFunction,ComponentPad*
%ADD44C,1.800000*%
G04 #@! TD*
G04 #@! TA.AperFunction,ComponentPad*
%ADD45R,2.600000X2.600000*%
G04 #@! TD*
G04 #@! TA.AperFunction,ComponentPad*
%ADD46O,2.600000X2.600000*%
G04 #@! TD*
G04 #@! TA.AperFunction,ComponentPad*
%ADD47C,2.850000*%
G04 #@! TD*
G04 #@! TA.AperFunction,ComponentPad*
%ADD48C,2.550000*%
G04 #@! TD*
G04 #@! TA.AperFunction,ComponentPad*
%ADD49O,2.700002X1.400000*%
G04 #@! TD*
G04 #@! TA.AperFunction,ComponentPad*
%ADD50O,1.750000X2.750000*%
G04 #@! TD*
G04 #@! TA.AperFunction,ComponentPad*
%ADD51R,1.950000X1.950000*%
G04 #@! TD*
G04 #@! TA.AperFunction,ComponentPad*
%ADD52C,1.950000*%
G04 #@! TD*
G04 #@! TA.AperFunction,ComponentPad*
%ADD53R,1.725000X1.725000*%
G04 #@! TD*
G04 #@! TA.AperFunction,ComponentPad*
%ADD54C,1.725000*%
G04 #@! TD*
G04 #@! TA.AperFunction,ComponentPad*
%ADD55O,1.950000X3.900000*%
G04 #@! TD*
G04 #@! TA.AperFunction,ComponentPad*
%ADD56R,2.000000X2.000000*%
G04 #@! TD*
G04 #@! TA.AperFunction,ComponentPad*
%ADD57C,2.000000*%
G04 #@! TD*
G04 #@! TA.AperFunction,ComponentPad*
%ADD58R,1.050000X1.500000*%
G04 #@! TD*
G04 #@! TA.AperFunction,ComponentPad*
%ADD59O,1.050000X1.500000*%
G04 #@! TD*
G04 #@! TA.AperFunction,ViaPad*
%ADD60C,0.800000*%
G04 #@! TD*
G04 #@! TA.AperFunction,Conductor*
%ADD61C,0.400000*%
G04 #@! TD*
G04 #@! TA.AperFunction,Conductor*
%ADD62C,0.600000*%
G04 #@! TD*
G04 #@! TA.AperFunction,Conductor*
%ADD63C,0.800000*%
G04 #@! TD*
G04 #@! TA.AperFunction,Conductor*
%ADD64C,0.762000*%
G04 #@! TD*
G04 #@! TA.AperFunction,Conductor*
%ADD65C,0.250000*%
G04 #@! TD*
G04 APERTURE END LIST*
D10*
D11*
X239474285Y-28216666D02*
X238998095Y-28216666D01*
X239569523Y-28502380D02*
X239236190Y-27502380D01*
X238902857Y-28502380D01*
X238045714Y-28502380D02*
X238617142Y-28502380D01*
X238331428Y-28502380D02*
X238331428Y-27502380D01*
X238426666Y-27645238D01*
X238521904Y-27740476D01*
X238617142Y-27788095D01*
D10*
D11*
X323948276Y-28159601D02*
X323472085Y-28159601D01*
X324043514Y-28445315D02*
X323710180Y-27445315D01*
X323376847Y-28445315D01*
X323138752Y-27445315D02*
X322519704Y-27445315D01*
X322853038Y-27826268D01*
X322710180Y-27826268D01*
X322614942Y-27873887D01*
X322567323Y-27921506D01*
X322519704Y-28016744D01*
X322519704Y-28254839D01*
X322567323Y-28350077D01*
X322614942Y-28397696D01*
X322710180Y-28445315D01*
X322995895Y-28445315D01*
X323091133Y-28397696D01*
X323138752Y-28350077D01*
X322138752Y-27540554D02*
X322091133Y-27492935D01*
X321995895Y-27445315D01*
X321757800Y-27445315D01*
X321662561Y-27492935D01*
X321614942Y-27540554D01*
X321567323Y-27635792D01*
X321567323Y-27731030D01*
X321614942Y-27873887D01*
X322186371Y-28445315D01*
X321567323Y-28445315D01*
D10*
D11*
X239266361Y-30747171D02*
X239123504Y-30794790D01*
X239075885Y-30842409D01*
X239028266Y-30937647D01*
X239028266Y-31080504D01*
X239075885Y-31175742D01*
X239123504Y-31223361D01*
X239218742Y-31270980D01*
X239599695Y-31270980D01*
X239599695Y-30270980D01*
X239266361Y-30270980D01*
X239171123Y-30318600D01*
X239123504Y-30366219D01*
X239075885Y-30461457D01*
X239075885Y-30556695D01*
X239123504Y-30651933D01*
X239171123Y-30699552D01*
X239266361Y-30747171D01*
X239599695Y-30747171D01*
X238075885Y-31270980D02*
X238647314Y-31270980D01*
X238361600Y-31270980D02*
X238361600Y-30270980D01*
X238456838Y-30413838D01*
X238552076Y-30509076D01*
X238647314Y-30556695D01*
D10*
D11*
X105438485Y-28185001D02*
X104962295Y-28185001D01*
X105533723Y-28470715D02*
X105200390Y-27470715D01*
X104867057Y-28470715D01*
X104009914Y-28470715D02*
X104581342Y-28470715D01*
X104295628Y-28470715D02*
X104295628Y-27470715D01*
X104390866Y-27613573D01*
X104486104Y-27708811D01*
X104581342Y-27756430D01*
D10*
D11*
X323807057Y-33912677D02*
X323854676Y-33960296D01*
X323997533Y-34007915D01*
X324092771Y-34007915D01*
X324235628Y-33960296D01*
X324330866Y-33865058D01*
X324378485Y-33769820D01*
X324426104Y-33579344D01*
X324426104Y-33436487D01*
X324378485Y-33246011D01*
X324330866Y-33150773D01*
X324235628Y-33055535D01*
X324092771Y-33007915D01*
X323997533Y-33007915D01*
X323854676Y-33055535D01*
X323807057Y-33103154D01*
X323473723Y-33007915D02*
X322854676Y-33007915D01*
X323188009Y-33388868D01*
X323045152Y-33388868D01*
X322949914Y-33436487D01*
X322902295Y-33484106D01*
X322854676Y-33579344D01*
X322854676Y-33817439D01*
X322902295Y-33912677D01*
X322949914Y-33960296D01*
X323045152Y-34007915D01*
X323330866Y-34007915D01*
X323426104Y-33960296D01*
X323473723Y-33912677D01*
X322473723Y-33103154D02*
X322426104Y-33055535D01*
X322330866Y-33007915D01*
X322092771Y-33007915D01*
X321997533Y-33055535D01*
X321949914Y-33103154D01*
X321902295Y-33198392D01*
X321902295Y-33293630D01*
X321949914Y-33436487D01*
X322521342Y-34007915D01*
X321902295Y-34007915D01*
D10*
D11*
X239129866Y-33791942D02*
X239177485Y-33839561D01*
X239320342Y-33887180D01*
X239415580Y-33887180D01*
X239558438Y-33839561D01*
X239653676Y-33744323D01*
X239701295Y-33649085D01*
X239748914Y-33458609D01*
X239748914Y-33315752D01*
X239701295Y-33125276D01*
X239653676Y-33030038D01*
X239558438Y-32934800D01*
X239415580Y-32887180D01*
X239320342Y-32887180D01*
X239177485Y-32934800D01*
X239129866Y-32982419D01*
X238177485Y-33887180D02*
X238748914Y-33887180D01*
X238463200Y-33887180D02*
X238463200Y-32887180D01*
X238558438Y-33030038D01*
X238653676Y-33125276D01*
X238748914Y-33172895D01*
D10*
D11*
X105230561Y-30715506D02*
X105087704Y-30763125D01*
X105040085Y-30810744D01*
X104992466Y-30905982D01*
X104992466Y-31048839D01*
X105040085Y-31144077D01*
X105087704Y-31191696D01*
X105182942Y-31239315D01*
X105563895Y-31239315D01*
X105563895Y-30239315D01*
X105230561Y-30239315D01*
X105135323Y-30286935D01*
X105087704Y-30334554D01*
X105040085Y-30429792D01*
X105040085Y-30525030D01*
X105087704Y-30620268D01*
X105135323Y-30667887D01*
X105230561Y-30715506D01*
X105563895Y-30715506D01*
X104040085Y-31239315D02*
X104611514Y-31239315D01*
X104325800Y-31239315D02*
X104325800Y-30239315D01*
X104421038Y-30382173D01*
X104516276Y-30477411D01*
X104611514Y-30525030D01*
D10*
D11*
X105094066Y-33760277D02*
X105141685Y-33807896D01*
X105284542Y-33855515D01*
X105379780Y-33855515D01*
X105522638Y-33807896D01*
X105617876Y-33712658D01*
X105665495Y-33617420D01*
X105713114Y-33426944D01*
X105713114Y-33284087D01*
X105665495Y-33093611D01*
X105617876Y-32998373D01*
X105522638Y-32903135D01*
X105379780Y-32855515D01*
X105284542Y-32855515D01*
X105141685Y-32903135D01*
X105094066Y-32950754D01*
X104141685Y-33855515D02*
X104713114Y-33855515D01*
X104427400Y-33855515D02*
X104427400Y-32855515D01*
X104522638Y-32998373D01*
X104617876Y-33093611D01*
X104713114Y-33141230D01*
D10*
D11*
X236145333Y-31573630D02*
X236145333Y-32502201D01*
X236207238Y-32687915D01*
X236331047Y-32811725D01*
X236516761Y-32873630D01*
X236640571Y-32873630D01*
X235588190Y-31697439D02*
X235526285Y-31635535D01*
X235402476Y-31573630D01*
X235092952Y-31573630D01*
X234969142Y-31635535D01*
X234907238Y-31697439D01*
X234845333Y-31821249D01*
X234845333Y-31945058D01*
X234907238Y-32130773D01*
X235650095Y-32873630D01*
X234845333Y-32873630D01*
D10*
D11*
X189861676Y-27981801D02*
X189385485Y-27981801D01*
X189956914Y-28267515D02*
X189623580Y-27267515D01*
X189290247Y-28267515D01*
X189052152Y-27267515D02*
X188433104Y-27267515D01*
X188766438Y-27648468D01*
X188623580Y-27648468D01*
X188528342Y-27696087D01*
X188480723Y-27743706D01*
X188433104Y-27838944D01*
X188433104Y-28077039D01*
X188480723Y-28172277D01*
X188528342Y-28219896D01*
X188623580Y-28267515D01*
X188909295Y-28267515D01*
X189004533Y-28219896D01*
X189052152Y-28172277D01*
X188052152Y-27362754D02*
X188004533Y-27315135D01*
X187909295Y-27267515D01*
X187671200Y-27267515D01*
X187575961Y-27315135D01*
X187528342Y-27362754D01*
X187480723Y-27457992D01*
X187480723Y-27553230D01*
X187528342Y-27696087D01*
X188099771Y-28267515D01*
X187480723Y-28267515D01*
D10*
D11*
X189720457Y-33734877D02*
X189768076Y-33782496D01*
X189910933Y-33830115D01*
X190006171Y-33830115D01*
X190149028Y-33782496D01*
X190244266Y-33687258D01*
X190291885Y-33592020D01*
X190339504Y-33401544D01*
X190339504Y-33258687D01*
X190291885Y-33068211D01*
X190244266Y-32972973D01*
X190149028Y-32877735D01*
X190006171Y-32830115D01*
X189910933Y-32830115D01*
X189768076Y-32877735D01*
X189720457Y-32925354D01*
X189387123Y-32830115D02*
X188768076Y-32830115D01*
X189101409Y-33211068D01*
X188958552Y-33211068D01*
X188863314Y-33258687D01*
X188815695Y-33306306D01*
X188768076Y-33401544D01*
X188768076Y-33639639D01*
X188815695Y-33734877D01*
X188863314Y-33782496D01*
X188958552Y-33830115D01*
X189244266Y-33830115D01*
X189339504Y-33782496D01*
X189387123Y-33734877D01*
X188387123Y-32925354D02*
X188339504Y-32877735D01*
X188244266Y-32830115D01*
X188006171Y-32830115D01*
X187910933Y-32877735D01*
X187863314Y-32925354D01*
X187815695Y-33020592D01*
X187815695Y-33115830D01*
X187863314Y-33258687D01*
X188434742Y-33830115D01*
X187815695Y-33830115D01*
D10*
D11*
X190060152Y-30791706D02*
X189917295Y-30839325D01*
X189869676Y-30886944D01*
X189822057Y-30982182D01*
X189822057Y-31125039D01*
X189869676Y-31220277D01*
X189917295Y-31267896D01*
X190012533Y-31315515D01*
X190393485Y-31315515D01*
X190393485Y-30315515D01*
X190060152Y-30315515D01*
X189964914Y-30363135D01*
X189917295Y-30410754D01*
X189869676Y-30505992D01*
X189869676Y-30601230D01*
X189917295Y-30696468D01*
X189964914Y-30744087D01*
X190060152Y-30791706D01*
X190393485Y-30791706D01*
X189488723Y-30315515D02*
X188869676Y-30315515D01*
X189203009Y-30696468D01*
X189060152Y-30696468D01*
X188964914Y-30744087D01*
X188917295Y-30791706D01*
X188869676Y-30886944D01*
X188869676Y-31125039D01*
X188917295Y-31220277D01*
X188964914Y-31267896D01*
X189060152Y-31315515D01*
X189345866Y-31315515D01*
X189441104Y-31267896D01*
X189488723Y-31220277D01*
X188488723Y-30410754D02*
X188441104Y-30363135D01*
X188345866Y-30315515D01*
X188107771Y-30315515D01*
X188012533Y-30363135D01*
X187964914Y-30410754D01*
X187917295Y-30505992D01*
X187917295Y-30601230D01*
X187964914Y-30744087D01*
X188536342Y-31315515D01*
X187917295Y-31315515D01*
D10*
D11*
X324146752Y-30969506D02*
X324003895Y-31017125D01*
X323956276Y-31064744D01*
X323908657Y-31159982D01*
X323908657Y-31302839D01*
X323956276Y-31398077D01*
X324003895Y-31445696D01*
X324099133Y-31493315D01*
X324480085Y-31493315D01*
X324480085Y-30493315D01*
X324146752Y-30493315D01*
X324051514Y-30540935D01*
X324003895Y-30588554D01*
X323956276Y-30683792D01*
X323956276Y-30779030D01*
X324003895Y-30874268D01*
X324051514Y-30921887D01*
X324146752Y-30969506D01*
X324480085Y-30969506D01*
X323575323Y-30493315D02*
X322956276Y-30493315D01*
X323289609Y-30874268D01*
X323146752Y-30874268D01*
X323051514Y-30921887D01*
X323003895Y-30969506D01*
X322956276Y-31064744D01*
X322956276Y-31302839D01*
X323003895Y-31398077D01*
X323051514Y-31445696D01*
X323146752Y-31493315D01*
X323432466Y-31493315D01*
X323527704Y-31445696D01*
X323575323Y-31398077D01*
X322575323Y-30588554D02*
X322527704Y-30540935D01*
X322432466Y-30493315D01*
X322194371Y-30493315D01*
X322099133Y-30540935D01*
X322051514Y-30588554D01*
X322003895Y-30683792D01*
X322003895Y-30779030D01*
X322051514Y-30921887D01*
X322622942Y-31493315D01*
X322003895Y-31493315D01*
D10*
D11*
X101953333Y-30528095D02*
X101953333Y-31456666D01*
X102015238Y-31642380D01*
X102139047Y-31766190D01*
X102324761Y-31828095D01*
X102448571Y-31828095D01*
X100653333Y-31828095D02*
X101396190Y-31828095D01*
X101024761Y-31828095D02*
X101024761Y-30528095D01*
X101148571Y-30713809D01*
X101272380Y-30837619D01*
X101396190Y-30899523D01*
D12*
X95210000Y-73230000D03*
X97810000Y-73230000D03*
D13*
X160020000Y-71120000D03*
D14*
X160020000Y-73660000D03*
X160020000Y-76200000D03*
X160020000Y-78740000D03*
X160020000Y-81280000D03*
X160020000Y-83820000D03*
X160020000Y-86360000D03*
X160020000Y-88900000D03*
D12*
X97890000Y-86570000D03*
X95290000Y-86570000D03*
X97820000Y-83960000D03*
X95220000Y-83960000D03*
X163440000Y-83730000D03*
X166040000Y-83730000D03*
X163440000Y-80590000D03*
X166040000Y-80590000D03*
X163440000Y-77500000D03*
X166040000Y-77500000D03*
X95210000Y-75970000D03*
X97810000Y-75970000D03*
X163440000Y-74410000D03*
X166040000Y-74410000D03*
D13*
X101600000Y-71120000D03*
D14*
X101600000Y-73660000D03*
X101600000Y-76200000D03*
X101600000Y-78740000D03*
X101600000Y-81280000D03*
X101600000Y-83820000D03*
X101600000Y-86360000D03*
X101600000Y-88900000D03*
D12*
X135509000Y-49943135D03*
X135509000Y-47343135D03*
D15*
X191830000Y-208197500D03*
D16*
X191830000Y-210737500D03*
X189290000Y-208197500D03*
X189290000Y-210737500D03*
X186750000Y-208197500D03*
X186750000Y-210737500D03*
X184210000Y-208197500D03*
X184210000Y-210737500D03*
X181670000Y-208197500D03*
X181670000Y-210737500D03*
D12*
X289687000Y-36929135D03*
X289687000Y-39529135D03*
X382270000Y-120319800D03*
X384870000Y-120319800D03*
X327070000Y-80266135D03*
X324470000Y-80266135D03*
X261747000Y-47216135D03*
X261747000Y-49816135D03*
X173609000Y-49943135D03*
X173609000Y-47343135D03*
D17*
X383519200Y-168656000D03*
D12*
X168529000Y-44609135D03*
X168529000Y-42009135D03*
X142920744Y-147605879D03*
X140320744Y-147605879D03*
X29591000Y-136391135D03*
X26991000Y-136391135D03*
D18*
X51580000Y-62120000D03*
D19*
X97300000Y-62120000D03*
D12*
X398022600Y-66649600D03*
X395422600Y-66649600D03*
D17*
X109743744Y-151161879D03*
D20*
X355869000Y-66408135D03*
D21*
X355869000Y-63868135D03*
X355869000Y-61328135D03*
X355869000Y-58788135D03*
X355869000Y-56248135D03*
X355869000Y-53708135D03*
X355869000Y-51168135D03*
X355869000Y-48628135D03*
X348249000Y-48628135D03*
X348249000Y-51168135D03*
X348249000Y-53708135D03*
X348249000Y-56248135D03*
X348249000Y-58788135D03*
X348249000Y-61328135D03*
X348249000Y-63868135D03*
X348249000Y-66408135D03*
D12*
X247777000Y-66169135D03*
X247777000Y-68769135D03*
X264287000Y-47216135D03*
X264287000Y-49816135D03*
X178689000Y-39275135D03*
X178689000Y-36675135D03*
D22*
X374142000Y-27434135D03*
D23*
X374142000Y-40134135D03*
D12*
X284605587Y-36929135D03*
X284605587Y-39529135D03*
D24*
X230378000Y-95644895D03*
X230378000Y-93104895D03*
X230378000Y-90564895D03*
X230378000Y-88024895D03*
X230378000Y-85484895D03*
X222758000Y-85484895D03*
X222758000Y-88024895D03*
X222758000Y-90564895D03*
X222758000Y-93104895D03*
X222758000Y-95644895D03*
D12*
X218851000Y-25529135D03*
X216251000Y-25529135D03*
D24*
X280693300Y-173649895D03*
X280693300Y-171109895D03*
X280693300Y-168569895D03*
X280693300Y-166029895D03*
X280693300Y-163489895D03*
X273073300Y-163489895D03*
X273073300Y-166029895D03*
X273073300Y-168569895D03*
X273073300Y-171109895D03*
X273073300Y-173649895D03*
D13*
X50673000Y-71249135D03*
D14*
X50673000Y-73789135D03*
X50673000Y-76329135D03*
X50673000Y-78869135D03*
X50673000Y-81409135D03*
X50673000Y-83949135D03*
D12*
X246530190Y-42039135D03*
X246530190Y-44639135D03*
D24*
X244856000Y-115129615D03*
X244856000Y-112589615D03*
X244856000Y-110049615D03*
X244856000Y-107509615D03*
X244856000Y-104969615D03*
X237236000Y-104969615D03*
X237236000Y-107509615D03*
X237236000Y-110049615D03*
X237236000Y-112589615D03*
X237236000Y-115129615D03*
D12*
X60960000Y-113531135D03*
X58360000Y-113531135D03*
X60960000Y-116080135D03*
X58360000Y-116080135D03*
X234188000Y-171995135D03*
X234188000Y-169395135D03*
X163449000Y-49943135D03*
X163449000Y-47343135D03*
X334531000Y-188369000D03*
X334531000Y-190969000D03*
X142920744Y-109505879D03*
X140320744Y-109505879D03*
X150137278Y-127988880D03*
X152737278Y-127988880D03*
X414969000Y-168656000D03*
X412369000Y-168656000D03*
D17*
X272618200Y-158294935D03*
D22*
X378236000Y-163830000D03*
D23*
X378236000Y-151130000D03*
D17*
X62357000Y-53977135D03*
D12*
X150391278Y-110652391D03*
X152991278Y-110652391D03*
X246484422Y-36929135D03*
X246484422Y-39529135D03*
X259191477Y-36929135D03*
X259191477Y-39529135D03*
D25*
X52980000Y-39080000D03*
D26*
X52980000Y-37810000D03*
X52980000Y-36540000D03*
D12*
X219187000Y-169141135D03*
X219187000Y-171741135D03*
D27*
X307100000Y-213480000D03*
D28*
X303290000Y-213480000D03*
X299480000Y-213480000D03*
X295670000Y-213480000D03*
X291860000Y-213480000D03*
X288050000Y-213480000D03*
D12*
X197201000Y-70106135D03*
X199801000Y-70106135D03*
X112649000Y-44609135D03*
X112649000Y-42009135D03*
D17*
X265379200Y-158162455D03*
D12*
X115189000Y-44609135D03*
X115189000Y-42009135D03*
X289691405Y-42039135D03*
X289691405Y-44639135D03*
X141351000Y-39275135D03*
X141351000Y-36675135D03*
X44293000Y-71868135D03*
X46893000Y-71868135D03*
D22*
X47930000Y-42920000D03*
D23*
X47930000Y-55620000D03*
D17*
X208508600Y-157883055D03*
D12*
X109728000Y-44482135D03*
X109728000Y-41882135D03*
X384819200Y-155956000D03*
X382219200Y-155956000D03*
X69036000Y-178691135D03*
X66436000Y-178691135D03*
D29*
X79375000Y-48006000D03*
D23*
X79375000Y-55626000D03*
D12*
X327070000Y-75186135D03*
X324470000Y-75186135D03*
X414969000Y-143256000D03*
X412369000Y-143256000D03*
D25*
X368025000Y-32895135D03*
D26*
X368025000Y-31625135D03*
X368025000Y-30355135D03*
D12*
X178689000Y-44609135D03*
X178689000Y-42009135D03*
X414969000Y-145796000D03*
X412369000Y-145796000D03*
X106807000Y-43212135D03*
X106807000Y-40612135D03*
X326039000Y-166753135D03*
X323439000Y-166753135D03*
X142920744Y-152685879D03*
X140320744Y-152685879D03*
X364942600Y-53848000D03*
X367542600Y-53848000D03*
X256650066Y-36929135D03*
X256650066Y-39529135D03*
D17*
X126873000Y-100459135D03*
X252095000Y-99976535D03*
D12*
X72958000Y-53467000D03*
X70358000Y-53467000D03*
X26991000Y-133860135D03*
X29591000Y-133860135D03*
D17*
X295198800Y-80601415D03*
D22*
X361696000Y-61214000D03*
D23*
X361696000Y-73914000D03*
D17*
X395097000Y-113538000D03*
D12*
X173595278Y-131671880D03*
X170995278Y-131671880D03*
X176149000Y-39275135D03*
X176149000Y-36675135D03*
D17*
X20747200Y-141471135D03*
D12*
X219075000Y-105285135D03*
X219075000Y-107885135D03*
X130429000Y-44609135D03*
X130429000Y-42009135D03*
D17*
X222885000Y-178511895D03*
D12*
X200533000Y-192377135D03*
X200533000Y-194977135D03*
X326659000Y-109999135D03*
X324059000Y-109999135D03*
X266815710Y-36929135D03*
X266815710Y-39529135D03*
X414969000Y-158496000D03*
X412369000Y-158496000D03*
D24*
X295156300Y-95638615D03*
X295156300Y-93098615D03*
X295156300Y-90558615D03*
X295156300Y-88018615D03*
X295156300Y-85478615D03*
X287536300Y-85478615D03*
X287536300Y-88018615D03*
X287536300Y-90558615D03*
X287536300Y-93098615D03*
X287536300Y-95638615D03*
D17*
X193548000Y-82425135D03*
D30*
X102020401Y-166245135D03*
D31*
X103520401Y-166245135D03*
D17*
X273227800Y-119249655D03*
D12*
X142920744Y-132365879D03*
X140320744Y-132365879D03*
D22*
X79756000Y-30355135D03*
D23*
X79756000Y-43055135D03*
D17*
X244906800Y-80740175D03*
D12*
X150261278Y-152817880D03*
X152861278Y-152817880D03*
X310007000Y-42136135D03*
X310007000Y-44736135D03*
X279522765Y-36929135D03*
X279522765Y-39529135D03*
X298846000Y-169454415D03*
X298846000Y-172054415D03*
D17*
X110333000Y-127189135D03*
D12*
X283718000Y-85080375D03*
X283718000Y-87680375D03*
X248793000Y-126406415D03*
X248793000Y-129006415D03*
X338687830Y-40418135D03*
X338687830Y-37818135D03*
D17*
X377672600Y-45491400D03*
D12*
X398022600Y-92049600D03*
X395422600Y-92049600D03*
D29*
X120250000Y-198800000D03*
D23*
X120250000Y-206420000D03*
D12*
X150391278Y-118780391D03*
X152991278Y-118780391D03*
X282064176Y-36929135D03*
X282064176Y-39529135D03*
D17*
X113663000Y-170969135D03*
D12*
X186309000Y-39275135D03*
X186309000Y-36675135D03*
D17*
X241477800Y-28145335D03*
X244017800Y-28145335D03*
X246557800Y-28145335D03*
X249097800Y-28145335D03*
X251637800Y-28145335D03*
X254177800Y-28145335D03*
X256717800Y-28145335D03*
X259257800Y-28145335D03*
X261797800Y-28145335D03*
X264337800Y-28145335D03*
X266877800Y-28145335D03*
X269417800Y-28145335D03*
X271957800Y-28145335D03*
X274497800Y-28145335D03*
X277037800Y-28145335D03*
X279577800Y-28145335D03*
X282117800Y-28145335D03*
X284657800Y-28145335D03*
X287197800Y-28145335D03*
X289737800Y-28145335D03*
X292277800Y-28145335D03*
X294817800Y-28145335D03*
X297357800Y-28145335D03*
X299897800Y-28145335D03*
X302437800Y-28145335D03*
X304977800Y-28145335D03*
X307517800Y-28145335D03*
X310057800Y-28145335D03*
X312597800Y-28145335D03*
X315137800Y-28145335D03*
X317677800Y-28145335D03*
X320217800Y-28145335D03*
X241477800Y-30685335D03*
X244017800Y-30685335D03*
X246557800Y-30685335D03*
X249097800Y-30685335D03*
X251637800Y-30685335D03*
X254177800Y-30685335D03*
X256717800Y-30685335D03*
X259257800Y-30685335D03*
X261797800Y-30685335D03*
X264337800Y-30685335D03*
X266877800Y-30685335D03*
X269417800Y-30685335D03*
X271957800Y-30685335D03*
X274497800Y-30685335D03*
X277037800Y-30685335D03*
X279577800Y-30685335D03*
X282117800Y-30685335D03*
X284657800Y-30685335D03*
X287197800Y-30685335D03*
X289737800Y-30685335D03*
X292277800Y-30685335D03*
X294817800Y-30685335D03*
X297357800Y-30685335D03*
X299897800Y-30685335D03*
X302437800Y-30685335D03*
X304977800Y-30685335D03*
X307517800Y-30685335D03*
X310057800Y-30685335D03*
X312597800Y-30685335D03*
X315137800Y-30685335D03*
X317677800Y-30685335D03*
X320217800Y-30685335D03*
X241477800Y-33225335D03*
X244017800Y-33225335D03*
X246557800Y-33225335D03*
X249097800Y-33225335D03*
X251637800Y-33225335D03*
X254177800Y-33225335D03*
X256717800Y-33225335D03*
X259257800Y-33225335D03*
X261797800Y-33225335D03*
X264337800Y-33225335D03*
X266877800Y-33225335D03*
X269417800Y-33225335D03*
X271957800Y-33225335D03*
X274497800Y-33225335D03*
X277037800Y-33225335D03*
X279577800Y-33225335D03*
X282117800Y-33225335D03*
X284657800Y-33225335D03*
X287197800Y-33225335D03*
X289737800Y-33225335D03*
X292277800Y-33225335D03*
X294817800Y-33225335D03*
X297357800Y-33225335D03*
X299897800Y-33225335D03*
X302437800Y-33225335D03*
X304977800Y-33225335D03*
X307517800Y-33225335D03*
X310057800Y-33225335D03*
X312597800Y-33225335D03*
X315137800Y-33225335D03*
X317677800Y-33225335D03*
X320217800Y-33225335D03*
D32*
X236397800Y-25605335D03*
X325297800Y-25605335D03*
D12*
X248143000Y-108709855D03*
X248143000Y-106109855D03*
X313182000Y-102521135D03*
X313182000Y-99921135D03*
X150261278Y-148372880D03*
X152861278Y-148372880D03*
X204640000Y-200480000D03*
X202040000Y-200480000D03*
X251567244Y-36929135D03*
X251567244Y-39529135D03*
X135509000Y-39275135D03*
X135509000Y-36675135D03*
X367593400Y-81788000D03*
X364993400Y-81788000D03*
X325912000Y-159133135D03*
X323312000Y-159133135D03*
D24*
X244871000Y-173451415D03*
X244871000Y-170911415D03*
X244871000Y-168371415D03*
X244871000Y-165831415D03*
X244871000Y-163291415D03*
X237251000Y-163291415D03*
X237251000Y-165831415D03*
X237251000Y-168371415D03*
X237251000Y-170911415D03*
X237251000Y-173451415D03*
D12*
X344454000Y-66423135D03*
X341854000Y-66423135D03*
D13*
X166898278Y-143927880D03*
D14*
X166898278Y-146467880D03*
X166898278Y-149007880D03*
X166898278Y-151547880D03*
X166898278Y-154087880D03*
X166898278Y-156627880D03*
D12*
X165989000Y-49943135D03*
X165989000Y-47343135D03*
X142920744Y-134905879D03*
X140320744Y-134905879D03*
X127889000Y-49943135D03*
X127889000Y-47343135D03*
X351043000Y-119748135D03*
X348443000Y-119748135D03*
X261732888Y-36929135D03*
X261732888Y-39529135D03*
D17*
X88413482Y-207338000D03*
D12*
X65820000Y-194400000D03*
X68420000Y-194400000D03*
X383032000Y-187297135D03*
X383032000Y-189897135D03*
X70220000Y-183590000D03*
X70220000Y-186190000D03*
X256685770Y-42039135D03*
X256685770Y-44639135D03*
D17*
X131953000Y-100459135D03*
D12*
X173595278Y-134973880D03*
X170995278Y-134973880D03*
D17*
X222605600Y-158015535D03*
D29*
X116126000Y-190870000D03*
D23*
X116126000Y-198490000D03*
D12*
X183769000Y-49943135D03*
X183769000Y-47343135D03*
X95210000Y-78860000D03*
X97810000Y-78860000D03*
D24*
X259350600Y-115195615D03*
X259350600Y-112655615D03*
X259350600Y-110115615D03*
X259350600Y-107575615D03*
X259350600Y-105035615D03*
X251730600Y-105035615D03*
X251730600Y-107575615D03*
X251730600Y-110115615D03*
X251730600Y-112655615D03*
X251730600Y-115195615D03*
D12*
X60960000Y-110991135D03*
X58360000Y-110991135D03*
X137795000Y-39275135D03*
X137795000Y-36675135D03*
D22*
X376301000Y-132969000D03*
D23*
X376301000Y-145669000D03*
D12*
X299847000Y-42039135D03*
X299847000Y-44639135D03*
X160909000Y-49943135D03*
X160909000Y-47343135D03*
X351058000Y-109588135D03*
X348458000Y-109588135D03*
X60960000Y-136400135D03*
X58360000Y-136400135D03*
X142920744Y-129825879D03*
X140320744Y-129825879D03*
X181229000Y-49943135D03*
X181229000Y-47343135D03*
X276996930Y-42039135D03*
X276996930Y-44639135D03*
X284607000Y-93141375D03*
X284607000Y-90541375D03*
X150391278Y-115097391D03*
X152991278Y-115097391D03*
X364871000Y-64008000D03*
X367471000Y-64008000D03*
X337579000Y-188369000D03*
X337579000Y-190969000D03*
X243991295Y-42039135D03*
X243991295Y-44639135D03*
X414969000Y-155956000D03*
X412369000Y-155956000D03*
X132969000Y-44609135D03*
X132969000Y-42009135D03*
X173592278Y-156627880D03*
X170992278Y-156627880D03*
X125349000Y-49943135D03*
X125349000Y-47343135D03*
X284622000Y-143800415D03*
X284622000Y-146400415D03*
D33*
X132857500Y-207350000D03*
D17*
X134127500Y-204810000D03*
X135397500Y-207350000D03*
X136667500Y-204810000D03*
X137937500Y-207350000D03*
X139207500Y-204810000D03*
X140477500Y-207350000D03*
X141747500Y-204810000D03*
D12*
X299847000Y-36929135D03*
X299847000Y-39529135D03*
X271907000Y-42039135D03*
X271907000Y-44639135D03*
X241401600Y-36929135D03*
X241401600Y-39529135D03*
X60960000Y-126240135D03*
X58360000Y-126240135D03*
X291233000Y-177689135D03*
X288633000Y-177689135D03*
D30*
X60349000Y-93855135D03*
D31*
X61849000Y-93855135D03*
D12*
X212120000Y-47246135D03*
X209520000Y-47246135D03*
X195453000Y-192377135D03*
X195453000Y-194977135D03*
X262255000Y-105290615D03*
X262255000Y-107890615D03*
X298958000Y-93395375D03*
X298958000Y-90795375D03*
X367593400Y-74168000D03*
X364993400Y-74168000D03*
D17*
X302387000Y-45214135D03*
D12*
X283606000Y-132435895D03*
X283606000Y-129835895D03*
X117729000Y-49943135D03*
X117729000Y-47343135D03*
X415096000Y-161036000D03*
X412496000Y-161036000D03*
X269255000Y-143673415D03*
X269255000Y-146273415D03*
X299100000Y-150210415D03*
X299100000Y-147610415D03*
X313563000Y-91617375D03*
X313563000Y-89017375D03*
X264302455Y-42039135D03*
X264302455Y-44639135D03*
X241427000Y-47216135D03*
X241427000Y-49816135D03*
D30*
X165867401Y-97560000D03*
D31*
X167367401Y-97560000D03*
D17*
X237794800Y-80740175D03*
D12*
X135509000Y-44609135D03*
X135509000Y-42009135D03*
X197201000Y-73027135D03*
X199801000Y-73027135D03*
X130429000Y-39275135D03*
X130429000Y-36675135D03*
D17*
X315722000Y-41277135D03*
D34*
X204373000Y-96679135D03*
D35*
X210373000Y-94679135D03*
X210373000Y-82479135D03*
X198373000Y-82479135D03*
X198373000Y-94679135D03*
D24*
X295179600Y-154231655D03*
X295179600Y-151691655D03*
X295179600Y-149151655D03*
X295179600Y-146611655D03*
X295179600Y-144071655D03*
X287559600Y-144071655D03*
X287559600Y-146611655D03*
X287559600Y-149151655D03*
X287559600Y-151691655D03*
X287559600Y-154231655D03*
D12*
X397941800Y-94513400D03*
X395341800Y-94513400D03*
X263271000Y-91756135D03*
X263271000Y-89156135D03*
X60960000Y-123691135D03*
X58360000Y-123691135D03*
D29*
X94663000Y-199252000D03*
D23*
X94663000Y-206872000D03*
D17*
X366903000Y-107317135D03*
D24*
X280693300Y-134813415D03*
X280693300Y-132273415D03*
X280693300Y-129733415D03*
X280693300Y-127193415D03*
X280693300Y-124653415D03*
X273073300Y-124653415D03*
X273073300Y-127193415D03*
X273073300Y-129733415D03*
X273073300Y-132273415D03*
X273073300Y-134813415D03*
D12*
X96901000Y-40418135D03*
X96901000Y-37818135D03*
X298958000Y-114985375D03*
X298958000Y-112385375D03*
X108570744Y-119665879D03*
X111170744Y-119665879D03*
X168529000Y-39275135D03*
X168529000Y-36675135D03*
X218948000Y-87886135D03*
X218948000Y-90486135D03*
D17*
X109347000Y-145036135D03*
D12*
X125349000Y-39275135D03*
X125349000Y-36675135D03*
X142920744Y-106965879D03*
X140320744Y-106965879D03*
D17*
X107442000Y-28145335D03*
X109982000Y-28145335D03*
X112522000Y-28145335D03*
X115062000Y-28145335D03*
X117602000Y-28145335D03*
X120142000Y-28145335D03*
X122682000Y-28145335D03*
X125222000Y-28145335D03*
X127762000Y-28145335D03*
X130302000Y-28145335D03*
X132842000Y-28145335D03*
X135382000Y-28145335D03*
X137922000Y-28145335D03*
X140462000Y-28145335D03*
X143002000Y-28145335D03*
X145542000Y-28145335D03*
X148082000Y-28145335D03*
X150622000Y-28145335D03*
X153162000Y-28145335D03*
X155702000Y-28145335D03*
X158242000Y-28145335D03*
X160782000Y-28145335D03*
X163322000Y-28145335D03*
X165862000Y-28145335D03*
X168402000Y-28145335D03*
X170942000Y-28145335D03*
X173482000Y-28145335D03*
X176022000Y-28145335D03*
X178562000Y-28145335D03*
X181102000Y-28145335D03*
X183642000Y-28145335D03*
X186182000Y-28145335D03*
X107442000Y-30685335D03*
X109982000Y-30685335D03*
X112522000Y-30685335D03*
X115062000Y-30685335D03*
X117602000Y-30685335D03*
X120142000Y-30685335D03*
X122682000Y-30685335D03*
X125222000Y-30685335D03*
X127762000Y-30685335D03*
X130302000Y-30685335D03*
X132842000Y-30685335D03*
X135382000Y-30685335D03*
X137922000Y-30685335D03*
X140462000Y-30685335D03*
X143002000Y-30685335D03*
X145542000Y-30685335D03*
X148082000Y-30685335D03*
X150622000Y-30685335D03*
X153162000Y-30685335D03*
X155702000Y-30685335D03*
X158242000Y-30685335D03*
X160782000Y-30685335D03*
X163322000Y-30685335D03*
X165862000Y-30685335D03*
X168402000Y-30685335D03*
X170942000Y-30685335D03*
X173482000Y-30685335D03*
X176022000Y-30685335D03*
X178562000Y-30685335D03*
X181102000Y-30685335D03*
X183642000Y-30685335D03*
X186182000Y-30685335D03*
X107442000Y-33225335D03*
X109982000Y-33225335D03*
X112522000Y-33225335D03*
X115062000Y-33225335D03*
X117602000Y-33225335D03*
X120142000Y-33225335D03*
X122682000Y-33225335D03*
X125222000Y-33225335D03*
X127762000Y-33225335D03*
X130302000Y-33225335D03*
X132842000Y-33225335D03*
X135382000Y-33225335D03*
X137922000Y-33225335D03*
X140462000Y-33225335D03*
X143002000Y-33225335D03*
X145542000Y-33225335D03*
X148082000Y-33225335D03*
X150622000Y-33225335D03*
X153162000Y-33225335D03*
X155702000Y-33225335D03*
X158242000Y-33225335D03*
X160782000Y-33225335D03*
X163322000Y-33225335D03*
X165862000Y-33225335D03*
X168402000Y-33225335D03*
X170942000Y-33225335D03*
X173482000Y-33225335D03*
X176022000Y-33225335D03*
X178562000Y-33225335D03*
X181102000Y-33225335D03*
X183642000Y-33225335D03*
X186182000Y-33225335D03*
D32*
X102362000Y-25605335D03*
X191262000Y-25605335D03*
D12*
X210215000Y-74678135D03*
X207615000Y-74678135D03*
X233426000Y-85219135D03*
X233426000Y-87819135D03*
X234188000Y-151739415D03*
X234188000Y-149139415D03*
X254904000Y-163739415D03*
X254904000Y-166339415D03*
D17*
X151467278Y-124432880D03*
D12*
X274439943Y-36929135D03*
X274439943Y-39529135D03*
X60960000Y-100840135D03*
X58360000Y-100840135D03*
D29*
X56769000Y-43690135D03*
D23*
X56769000Y-51310135D03*
D12*
X218851000Y-32006135D03*
X216251000Y-32006135D03*
X284613615Y-42039135D03*
X284613615Y-44639135D03*
X66899000Y-171833135D03*
X69499000Y-171833135D03*
D17*
X26462200Y-149091135D03*
D12*
X108570744Y-106965879D03*
X111170744Y-106965879D03*
X28291000Y-47627135D03*
X30891000Y-47627135D03*
D13*
X166865778Y-125258880D03*
D14*
X166865778Y-127798880D03*
X166865778Y-130338880D03*
X166865778Y-132878880D03*
X166865778Y-135418880D03*
X166865778Y-137958880D03*
D12*
X344484000Y-53723135D03*
X341884000Y-53723135D03*
D17*
X222935800Y-119388415D03*
D12*
X340741000Y-34703135D03*
X340741000Y-32103135D03*
X402040000Y-187130000D03*
X402040000Y-189730000D03*
X132969000Y-49943135D03*
X132969000Y-47343135D03*
X398073400Y-64160400D03*
X395473400Y-64160400D03*
D17*
X372999000Y-166751000D03*
D13*
X83739000Y-141182635D03*
D14*
X83739000Y-143722635D03*
X83739000Y-146262635D03*
X83739000Y-148802635D03*
X83739000Y-151342635D03*
X83739000Y-153882635D03*
X83739000Y-156422635D03*
X83739000Y-158962635D03*
X83739000Y-161502635D03*
X83739000Y-164042635D03*
D12*
X219837000Y-151485415D03*
X219837000Y-148885415D03*
X39487400Y-72328535D03*
X36887400Y-72328535D03*
D25*
X380725000Y-32895135D03*
D26*
X380725000Y-31625135D03*
X380725000Y-30355135D03*
D12*
X269240000Y-73710375D03*
X269240000Y-71110375D03*
D24*
X230386300Y-134564415D03*
X230386300Y-132024415D03*
X230386300Y-129484415D03*
X230386300Y-126944415D03*
X230386300Y-124404415D03*
X222766300Y-124404415D03*
X222766300Y-126944415D03*
X222766300Y-129484415D03*
X222766300Y-132024415D03*
X222766300Y-134564415D03*
D12*
X108570744Y-139985879D03*
X111170744Y-139985879D03*
X234315000Y-143551415D03*
X234315000Y-146151415D03*
X414969000Y-128016000D03*
X412369000Y-128016000D03*
D36*
X87681000Y-212427669D03*
X62681000Y-212427669D03*
D29*
X80721000Y-212127669D03*
D22*
X77951000Y-212127669D03*
X75181000Y-212127669D03*
X72411000Y-212127669D03*
X69641000Y-212127669D03*
X79336000Y-214967669D03*
X76566000Y-214967669D03*
X73796000Y-214967669D03*
X71026000Y-214967669D03*
D12*
X397971800Y-81813400D03*
X395371800Y-81813400D03*
D17*
X280492200Y-139270335D03*
X288086800Y-80601415D03*
D12*
X184277000Y-187805135D03*
X184277000Y-190405135D03*
X380520000Y-187280000D03*
X380520000Y-189880000D03*
X234315000Y-93280135D03*
X234315000Y-90680135D03*
X343408000Y-34703135D03*
X343408000Y-32103135D03*
D22*
X272733000Y-194549135D03*
D23*
X272733000Y-207249135D03*
D12*
X233665000Y-110935855D03*
X233665000Y-113535855D03*
X384840000Y-160909000D03*
X382240000Y-160909000D03*
X304927000Y-39529135D03*
X304927000Y-36929135D03*
X298846000Y-161645895D03*
X298846000Y-159045895D03*
X216251000Y-29593135D03*
X218851000Y-29593135D03*
X327070000Y-90411135D03*
X324470000Y-90411135D03*
D22*
X105283000Y-153037135D03*
D23*
X105283000Y-140337135D03*
D12*
X127889000Y-44609135D03*
X127889000Y-42009135D03*
X147955000Y-44609135D03*
X147955000Y-42009135D03*
X173595278Y-138021880D03*
X170995278Y-138021880D03*
X29591000Y-141471135D03*
X26991000Y-141471135D03*
D24*
X230378000Y-173334895D03*
X230378000Y-170794895D03*
X230378000Y-168254895D03*
X230378000Y-165714895D03*
X230378000Y-163174895D03*
X222758000Y-163174895D03*
X222758000Y-165714895D03*
X222758000Y-168254895D03*
X222758000Y-170794895D03*
X222758000Y-173334895D03*
D17*
X361569000Y-46863000D03*
D24*
X244856000Y-134622135D03*
X244856000Y-132082135D03*
X244856000Y-129542135D03*
X244856000Y-127002135D03*
X244856000Y-124462135D03*
X237236000Y-124462135D03*
X237236000Y-127002135D03*
X237236000Y-129542135D03*
X237236000Y-132082135D03*
X237236000Y-134622135D03*
D12*
X322453000Y-37945135D03*
X322453000Y-40545135D03*
X247777000Y-163495895D03*
X247777000Y-166095895D03*
X367593400Y-69164200D03*
X364993400Y-69164200D03*
X326547000Y-112524135D03*
X323947000Y-112524135D03*
D17*
X87744000Y-200690000D03*
D12*
X310134000Y-47216135D03*
X310134000Y-49816135D03*
D24*
X224854500Y-46860135D03*
X224854500Y-44320135D03*
X224854500Y-41780135D03*
X224854500Y-39240135D03*
X224854500Y-36700135D03*
X217234500Y-36700135D03*
X217234500Y-39240135D03*
X217234500Y-41780135D03*
X217234500Y-44320135D03*
X217234500Y-46860135D03*
D12*
X326801000Y-140972135D03*
X324201000Y-140972135D03*
X356773000Y-36070135D03*
X354173000Y-36070135D03*
D14*
X53132200Y-149091135D03*
X53132200Y-146551135D03*
D13*
X53132200Y-144011135D03*
D14*
X53132200Y-141471135D03*
X53132200Y-138931135D03*
X53132200Y-136391135D03*
X53132200Y-133851135D03*
D13*
X53132200Y-131311135D03*
D14*
X53132200Y-128771135D03*
X53132200Y-126231135D03*
X53132200Y-123691135D03*
X53132200Y-121151135D03*
D13*
X53132200Y-118611135D03*
D14*
X53132200Y-116071135D03*
X53132200Y-113531135D03*
X53132200Y-110991135D03*
X53132200Y-108451135D03*
D13*
X53132200Y-105911135D03*
D14*
X53132200Y-103371135D03*
X53132200Y-100831135D03*
X35352200Y-100831135D03*
X35352200Y-103371135D03*
D13*
X35352200Y-105911135D03*
D14*
X35352200Y-108451135D03*
X35352200Y-110991135D03*
X35352200Y-113531135D03*
X35352200Y-116071135D03*
D13*
X35352200Y-118611135D03*
D14*
X35352200Y-121151135D03*
X35352200Y-123691135D03*
X35352200Y-126231135D03*
X35352200Y-128771135D03*
D13*
X35352200Y-131311135D03*
D14*
X35352200Y-133851135D03*
X35352200Y-136391135D03*
X35352200Y-138931135D03*
X35352200Y-141471135D03*
D13*
X35352200Y-144011135D03*
D14*
X35352200Y-146551135D03*
X35352200Y-149091135D03*
X46782200Y-101061135D03*
D13*
X44242200Y-101061135D03*
D14*
X41702200Y-101061135D03*
D12*
X279535825Y-42039135D03*
X279535825Y-44639135D03*
X183769000Y-39275135D03*
X183769000Y-36675135D03*
X297308090Y-42039135D03*
X297308090Y-44639135D03*
D22*
X349250000Y-27053135D03*
D23*
X349250000Y-39753135D03*
D12*
X397971800Y-69113400D03*
X395371800Y-69113400D03*
X100203000Y-40418135D03*
X100203000Y-37818135D03*
X197993000Y-192377135D03*
X197993000Y-194977135D03*
D17*
X229844600Y-158015535D03*
D12*
X299085000Y-85207375D03*
X299085000Y-87807375D03*
D24*
X244864300Y-95777375D03*
X244864300Y-93237375D03*
X244864300Y-90697375D03*
X244864300Y-88157375D03*
X244864300Y-85617375D03*
X237244300Y-85617375D03*
X237244300Y-88157375D03*
X237244300Y-90697375D03*
X237244300Y-93237375D03*
X237244300Y-95777375D03*
X215900000Y-153850175D03*
X215900000Y-151310175D03*
X215900000Y-148770175D03*
X215900000Y-146230175D03*
X215900000Y-143690175D03*
X208280000Y-143690175D03*
X208280000Y-146230175D03*
X208280000Y-148770175D03*
X208280000Y-151310175D03*
X208280000Y-153850175D03*
D12*
X39487400Y-78932535D03*
X36887400Y-78932535D03*
X367593400Y-89408000D03*
X364993400Y-89408000D03*
D29*
X52578000Y-43690135D03*
D23*
X52578000Y-51310135D03*
D17*
X208534000Y-178506415D03*
D12*
X173722278Y-110017391D03*
X171122278Y-110017391D03*
D17*
X350266000Y-106174135D03*
D12*
X88930000Y-36324135D03*
X86330000Y-36324135D03*
X266827000Y-49786135D03*
X266827000Y-47186135D03*
X310049332Y-36929135D03*
X310049332Y-39529135D03*
X176149000Y-49943135D03*
X176149000Y-47343135D03*
X66899000Y-168531135D03*
X69499000Y-168531135D03*
D13*
X156446022Y-106237135D03*
D14*
X156446022Y-108777135D03*
X156446022Y-111317135D03*
X156446022Y-113857135D03*
X156446022Y-116397135D03*
X156446022Y-118937135D03*
D12*
X313182000Y-105151855D03*
X313182000Y-107751855D03*
X142920744Y-117125879D03*
X140320744Y-117125879D03*
D17*
X230047800Y-119261415D03*
D12*
X233299000Y-132186895D03*
X233299000Y-129586895D03*
X344454000Y-56263135D03*
X341854000Y-56263135D03*
X47147000Y-83695135D03*
X44547000Y-83695135D03*
X263017000Y-103191615D03*
X263017000Y-100591615D03*
X127889000Y-39275135D03*
X127889000Y-36675135D03*
X30830000Y-39550000D03*
X28230000Y-39550000D03*
D17*
X352425000Y-100078135D03*
X244703600Y-138787735D03*
X144706000Y-193579000D03*
D12*
X351043000Y-114668135D03*
X348443000Y-114668135D03*
X283718000Y-106162375D03*
X283718000Y-108762375D03*
X326801000Y-125732135D03*
X324201000Y-125732135D03*
X29591000Y-125986135D03*
X26991000Y-125986135D03*
X248539000Y-171805415D03*
X248539000Y-169205415D03*
X298958000Y-110032375D03*
X298958000Y-107432375D03*
X173592278Y-152182880D03*
X170992278Y-152182880D03*
D17*
X61729000Y-204761669D03*
D12*
X212023000Y-30990135D03*
X209423000Y-30990135D03*
D24*
X309642600Y-76220375D03*
X309642600Y-73680375D03*
X309642600Y-71140375D03*
X309642600Y-68600375D03*
X309642600Y-66060375D03*
X302022600Y-66060375D03*
X302022600Y-68600375D03*
X302022600Y-71140375D03*
X302022600Y-73680375D03*
X302022600Y-76220375D03*
D12*
X364993400Y-56464200D03*
X367593400Y-56464200D03*
X29591000Y-116080135D03*
X26991000Y-116080135D03*
D17*
X280670000Y-99705295D03*
D24*
X230386300Y-153982655D03*
X230386300Y-151442655D03*
X230386300Y-148902655D03*
X230386300Y-146362655D03*
X230386300Y-143822655D03*
X222766300Y-143822655D03*
X222766300Y-146362655D03*
X222766300Y-148902655D03*
X222766300Y-151442655D03*
X222766300Y-153982655D03*
D12*
X364993400Y-86868000D03*
X367593400Y-86868000D03*
D25*
X355600000Y-32895135D03*
D26*
X355600000Y-31625135D03*
X355600000Y-30355135D03*
D12*
X287147000Y-36929135D03*
X287147000Y-39529135D03*
D22*
X140462000Y-172720000D03*
D23*
X140462000Y-160020000D03*
D24*
X280670000Y-114924375D03*
X280670000Y-112384375D03*
X280670000Y-109844375D03*
X280670000Y-107304375D03*
X280670000Y-104764375D03*
X273050000Y-104764375D03*
X273050000Y-107304375D03*
X273050000Y-109844375D03*
X273050000Y-112384375D03*
X273050000Y-114924375D03*
D12*
X382219200Y-122936000D03*
X384819200Y-122936000D03*
X115189000Y-39275135D03*
X115189000Y-36675135D03*
D24*
X205550500Y-50543135D03*
X205550500Y-48003135D03*
X205550500Y-45463135D03*
X205550500Y-42923135D03*
X205550500Y-40383135D03*
X197930500Y-40383135D03*
X197930500Y-42923135D03*
X197930500Y-45463135D03*
X197930500Y-48003135D03*
X197930500Y-50543135D03*
D17*
X121793000Y-100459135D03*
D12*
X150749000Y-44609135D03*
X150749000Y-42009135D03*
X158369000Y-44609135D03*
X158369000Y-42009135D03*
X191232000Y-46865135D03*
X193832000Y-46865135D03*
D17*
X237286800Y-119393895D03*
D12*
X298069000Y-104830855D03*
X298069000Y-102230855D03*
X248793000Y-85346135D03*
X248793000Y-87946135D03*
D30*
X205065600Y-68074135D03*
D31*
X203565600Y-68074135D03*
D12*
X110109000Y-39275135D03*
X110109000Y-36675135D03*
X283606000Y-163423895D03*
X283606000Y-160823895D03*
X263271000Y-68201135D03*
X263271000Y-70801135D03*
D17*
X215874600Y-138655255D03*
D12*
X256667000Y-47216135D03*
X256667000Y-49816135D03*
X351058000Y-124843135D03*
X348458000Y-124843135D03*
X173468278Y-106080391D03*
X170868278Y-106080391D03*
X173592278Y-147737880D03*
X170992278Y-147737880D03*
X297307000Y-49816135D03*
X297307000Y-47216135D03*
X414969000Y-140716000D03*
X412369000Y-140716000D03*
X341249000Y-40418135D03*
X341249000Y-37818135D03*
D17*
X302437800Y-80596335D03*
D12*
X247777000Y-73981615D03*
X247777000Y-71381615D03*
X284734000Y-47216135D03*
X284734000Y-49816135D03*
D24*
X215900000Y-173177895D03*
X215900000Y-170637895D03*
X215900000Y-168097895D03*
X215900000Y-165557895D03*
X215900000Y-163017895D03*
X208280000Y-163017895D03*
X208280000Y-165557895D03*
X208280000Y-168097895D03*
X208280000Y-170637895D03*
X208280000Y-173177895D03*
D12*
X108570744Y-134905879D03*
X111170744Y-134905879D03*
D17*
X140589000Y-66169135D03*
D12*
X142873000Y-126119135D03*
X140273000Y-126119135D03*
D17*
X61650000Y-200700000D03*
D12*
X384870000Y-143179800D03*
X382270000Y-143179800D03*
D17*
X167280000Y-87470000D03*
D12*
X171069000Y-49943135D03*
X171069000Y-47343135D03*
X144399000Y-44609135D03*
X144399000Y-42009135D03*
X150391278Y-106080391D03*
X152991278Y-106080391D03*
X274458035Y-42039135D03*
X274458035Y-44639135D03*
D17*
X279857200Y-158294935D03*
D20*
X362473000Y-124828135D03*
D21*
X362473000Y-122288135D03*
X362473000Y-119748135D03*
X362473000Y-117208135D03*
X362473000Y-114668135D03*
X362473000Y-112128135D03*
X362473000Y-109588135D03*
X362473000Y-107048135D03*
X354853000Y-107048135D03*
X354853000Y-109588135D03*
X354853000Y-112128135D03*
X354853000Y-114668135D03*
X354853000Y-117208135D03*
X354853000Y-119748135D03*
X354853000Y-122288135D03*
X354853000Y-124828135D03*
D17*
X343535000Y-47754135D03*
D12*
X335026000Y-37848135D03*
X335026000Y-40448135D03*
X60960000Y-149091135D03*
X58360000Y-149091135D03*
D17*
X87884000Y-40894000D03*
D12*
X158369000Y-49943135D03*
X158369000Y-47343135D03*
D13*
X71374000Y-83949135D03*
D14*
X71374000Y-86489135D03*
X71374000Y-89029135D03*
X71374000Y-91569135D03*
X71374000Y-94109135D03*
X71374000Y-96649135D03*
X71374000Y-99189135D03*
X71374000Y-101729135D03*
X71374000Y-104269135D03*
X71374000Y-106809135D03*
D12*
X108570744Y-122205879D03*
X111170744Y-122205879D03*
D37*
X104487000Y-213433000D03*
X108297000Y-213433000D03*
X112107000Y-213433000D03*
X115917000Y-213433000D03*
D12*
X246507000Y-47216135D03*
X246507000Y-49816135D03*
X398022600Y-99593400D03*
X395422600Y-99593400D03*
X44420000Y-76313135D03*
X47020000Y-76313135D03*
D24*
X74867500Y-47368135D03*
X74867500Y-44828135D03*
X74867500Y-42288135D03*
X74867500Y-39748135D03*
X74867500Y-37208135D03*
X67247500Y-37208135D03*
X67247500Y-39748135D03*
X67247500Y-42288135D03*
X67247500Y-44828135D03*
X67247500Y-47368135D03*
D12*
X29591000Y-121151135D03*
X26991000Y-121151135D03*
D17*
X229870000Y-99844055D03*
D22*
X105029000Y-123192135D03*
D23*
X105029000Y-135892135D03*
D24*
X215900000Y-134564415D03*
X215900000Y-132024415D03*
X215900000Y-129484415D03*
X215900000Y-126944415D03*
X215900000Y-124404415D03*
X208280000Y-124404415D03*
X208280000Y-126944415D03*
X208280000Y-129484415D03*
X208280000Y-132024415D03*
X208280000Y-134564415D03*
D12*
X248793000Y-149961415D03*
X248793000Y-147361415D03*
D22*
X24384000Y-45214135D03*
D23*
X24384000Y-32514135D03*
D12*
X287147000Y-49816135D03*
X287147000Y-47216135D03*
D17*
X112141000Y-157228135D03*
D12*
X249069085Y-42039135D03*
X249069085Y-44639135D03*
D24*
X295163000Y-134871135D03*
X295163000Y-132331135D03*
X295163000Y-129791135D03*
X295163000Y-127251135D03*
X295163000Y-124711135D03*
X287543000Y-124711135D03*
X287543000Y-127251135D03*
X287543000Y-129791135D03*
X287543000Y-132331135D03*
X287543000Y-134871135D03*
D12*
X26991000Y-100831135D03*
X29591000Y-100831135D03*
X332464834Y-37848135D03*
X332464834Y-40448135D03*
X384870000Y-140716000D03*
X382270000Y-140716000D03*
X282194000Y-47216135D03*
X282194000Y-49816135D03*
X233665000Y-166915135D03*
X233665000Y-164315135D03*
X87578000Y-169650135D03*
X84978000Y-169650135D03*
D17*
X144706000Y-197516000D03*
D13*
X163530000Y-206432500D03*
D38*
X161030000Y-206432500D03*
X161030000Y-208432500D03*
X163530000Y-208432500D03*
D39*
X156260000Y-211142500D03*
X168300000Y-211142500D03*
D12*
X125349000Y-44609135D03*
X125349000Y-42009135D03*
X60960000Y-128771135D03*
X58360000Y-128771135D03*
X381665000Y-36451135D03*
X379065000Y-36451135D03*
D17*
X302387000Y-99837775D03*
D12*
X171069000Y-39275135D03*
X171069000Y-36675135D03*
X263017000Y-113600135D03*
X263017000Y-111000135D03*
D24*
X280693300Y-154231655D03*
X280693300Y-151691655D03*
X280693300Y-149151655D03*
X280693300Y-146611655D03*
X280693300Y-144071655D03*
X273073300Y-144071655D03*
X273073300Y-146611655D03*
X273073300Y-149151655D03*
X273073300Y-151691655D03*
X273073300Y-154231655D03*
D12*
X108570744Y-109505879D03*
X111170744Y-109505879D03*
D40*
X19591750Y-175975135D03*
X19591750Y-153975135D03*
D12*
X153289000Y-39275135D03*
X153289000Y-36675135D03*
X251587000Y-49816135D03*
X251587000Y-47216135D03*
X415096000Y-122936000D03*
X412496000Y-122936000D03*
X193705000Y-43690135D03*
X191105000Y-43690135D03*
D24*
X266207000Y-173479135D03*
X266207000Y-170939135D03*
X266207000Y-168399135D03*
X266207000Y-165859135D03*
X266207000Y-163319135D03*
X258587000Y-163319135D03*
X258587000Y-165859135D03*
X258587000Y-168399135D03*
X258587000Y-170939135D03*
X258587000Y-173479135D03*
D12*
X156083000Y-44609135D03*
X156083000Y-42009135D03*
X93472000Y-40418135D03*
X93472000Y-37818135D03*
X259207000Y-47216135D03*
X259207000Y-49816135D03*
X364942600Y-61468000D03*
X367542600Y-61468000D03*
X299100000Y-126655415D03*
X299100000Y-129255415D03*
X233299000Y-124374415D03*
X233299000Y-126974415D03*
X112649000Y-39275135D03*
X112649000Y-36675135D03*
X292227000Y-36929135D03*
X292227000Y-39529135D03*
D17*
X287604200Y-158294935D03*
D12*
X398022600Y-74193400D03*
X395422600Y-74193400D03*
X210215000Y-71884135D03*
X207615000Y-71884135D03*
D24*
X259334000Y-76416855D03*
X259334000Y-73876855D03*
X259334000Y-71336855D03*
X259334000Y-68796855D03*
X259334000Y-66256855D03*
X251714000Y-66256855D03*
X251714000Y-68796855D03*
X251714000Y-71336855D03*
X251714000Y-73876855D03*
X251714000Y-76416855D03*
D12*
X233538000Y-161708135D03*
X233538000Y-159108135D03*
X384819200Y-135636000D03*
X382219200Y-135636000D03*
X313309000Y-72041135D03*
X313309000Y-69441135D03*
X282074720Y-42039135D03*
X282074720Y-44639135D03*
X44547000Y-80758135D03*
X47147000Y-80758135D03*
D24*
X230378000Y-76359135D03*
X230378000Y-73819135D03*
X230378000Y-71279135D03*
X230378000Y-68739135D03*
X230378000Y-66199135D03*
X222758000Y-66199135D03*
X222758000Y-68739135D03*
X222758000Y-71279135D03*
X222758000Y-73819135D03*
X222758000Y-76359135D03*
D17*
X223189800Y-80607695D03*
X215366600Y-157883055D03*
D12*
X254146875Y-42039135D03*
X254146875Y-44639135D03*
X248666000Y-93534135D03*
X248666000Y-90934135D03*
X122809000Y-44609135D03*
X122809000Y-42009135D03*
X326547000Y-107444135D03*
X323947000Y-107444135D03*
X138049000Y-44609135D03*
X138049000Y-42009135D03*
X284495000Y-151988415D03*
X284495000Y-149388415D03*
X150137278Y-138021880D03*
X152737278Y-138021880D03*
D41*
X381130000Y-203030000D03*
X383670000Y-203030000D03*
D42*
X376050000Y-208110000D03*
X386210000Y-208110000D03*
D12*
X397971800Y-102133400D03*
X395371800Y-102133400D03*
D13*
X83949000Y-83949135D03*
D14*
X83949000Y-86489135D03*
X83949000Y-89029135D03*
X83949000Y-91569135D03*
X83949000Y-94109135D03*
X83949000Y-96649135D03*
X83949000Y-99189135D03*
X83949000Y-101729135D03*
X83949000Y-104269135D03*
X83949000Y-106809135D03*
D12*
X218948000Y-73849135D03*
X218948000Y-71249135D03*
X181229000Y-39245135D03*
X181229000Y-36645135D03*
X173609000Y-44609135D03*
X173609000Y-42009135D03*
D24*
X266207000Y-154099175D03*
X266207000Y-151559175D03*
X266207000Y-149019175D03*
X266207000Y-146479175D03*
X266207000Y-143939175D03*
X258587000Y-143939175D03*
X258587000Y-146479175D03*
X258587000Y-149019175D03*
X258587000Y-151559175D03*
X258587000Y-154099175D03*
D17*
X355981000Y-98552000D03*
D12*
X351058000Y-112128135D03*
X348458000Y-112128135D03*
X269255000Y-164755415D03*
X269255000Y-167355415D03*
D24*
X259334000Y-95765615D03*
X259334000Y-93225615D03*
X259334000Y-90685615D03*
X259334000Y-88145615D03*
X259334000Y-85605615D03*
X251714000Y-85605615D03*
X251714000Y-88145615D03*
X251714000Y-90685615D03*
X251714000Y-93225615D03*
X251714000Y-95765615D03*
D12*
X327070000Y-85346135D03*
X324470000Y-85346135D03*
X326039000Y-151513135D03*
X323439000Y-151513135D03*
D17*
X203708000Y-73535135D03*
D12*
X307467000Y-47216135D03*
X307467000Y-49816135D03*
D17*
X215646000Y-178379415D03*
D12*
X199613000Y-207139135D03*
X197013000Y-207139135D03*
X398022600Y-79095600D03*
X395422600Y-79095600D03*
X209647000Y-50929135D03*
X212247000Y-50929135D03*
X367593400Y-79070200D03*
X364993400Y-79070200D03*
X254108655Y-36929135D03*
X254108655Y-39529135D03*
D17*
X273481800Y-80468935D03*
D12*
X294769195Y-42039135D03*
X294769195Y-44639135D03*
X209423000Y-34165135D03*
X212023000Y-34165135D03*
X84720000Y-194290000D03*
X82120000Y-194290000D03*
D17*
X316738000Y-38102135D03*
D12*
X150137278Y-134529880D03*
X152737278Y-134529880D03*
X150261278Y-143927880D03*
X152861278Y-143927880D03*
X266841350Y-42039135D03*
X266841350Y-44639135D03*
X414969000Y-166116000D03*
X412369000Y-166116000D03*
D13*
X71039000Y-141182635D03*
D14*
X71039000Y-143722635D03*
X71039000Y-146262635D03*
X71039000Y-148802635D03*
X71039000Y-151342635D03*
X71039000Y-153882635D03*
X71039000Y-156422635D03*
X71039000Y-158962635D03*
X71039000Y-161502635D03*
X71039000Y-164042635D03*
D12*
X111170744Y-129825879D03*
X108570744Y-129825879D03*
D17*
X223367600Y-138787735D03*
D24*
X280670000Y-95506135D03*
X280670000Y-92966135D03*
X280670000Y-90426135D03*
X280670000Y-87886135D03*
X280670000Y-85346135D03*
X273050000Y-85346135D03*
X273050000Y-87886135D03*
X273050000Y-90426135D03*
X273050000Y-92966135D03*
X273050000Y-95506135D03*
D22*
X17272000Y-32260135D03*
D23*
X17272000Y-44960135D03*
D30*
X28868401Y-169801135D03*
D31*
X30368401Y-169801135D03*
D17*
X37973000Y-94109135D03*
D12*
X150749000Y-39275135D03*
X150749000Y-36675135D03*
D17*
X258775200Y-139137855D03*
D43*
X16632000Y-26799135D03*
D44*
X19172000Y-26799135D03*
D45*
X34417000Y-177675135D03*
D46*
X49657000Y-177675135D03*
D12*
X120269000Y-44609135D03*
X120269000Y-42009135D03*
D17*
X294563800Y-119255135D03*
D12*
X120269000Y-39275135D03*
X120269000Y-36675135D03*
X289687000Y-47216135D03*
X289687000Y-49816135D03*
X398022600Y-53873400D03*
X395422600Y-53873400D03*
D41*
X355470000Y-202880000D03*
X358010000Y-202880000D03*
D42*
X350390000Y-207960000D03*
X360550000Y-207960000D03*
D12*
X369219000Y-36324135D03*
X366619000Y-36324135D03*
X299085000Y-70263135D03*
X299085000Y-67663135D03*
X270144000Y-151734415D03*
X270144000Y-149134415D03*
X142920744Y-139985879D03*
X140320744Y-139985879D03*
D22*
X110030000Y-193410000D03*
D23*
X110030000Y-206110000D03*
D17*
X294335200Y-158294935D03*
D12*
X298084000Y-163744895D03*
X298084000Y-166344895D03*
X327070000Y-87871135D03*
X324470000Y-87871135D03*
X60960000Y-141471135D03*
X58360000Y-141471135D03*
X87660000Y-173103135D03*
X85060000Y-173103135D03*
X269240000Y-87747375D03*
X269240000Y-90347375D03*
X249047000Y-47216135D03*
X249047000Y-49816135D03*
X39390400Y-69153535D03*
X36790400Y-69153535D03*
X415223000Y-133096000D03*
X412623000Y-133096000D03*
X313309000Y-110861375D03*
X313309000Y-113461375D03*
D17*
X273304000Y-99705295D03*
D12*
X351058000Y-122288135D03*
X348458000Y-122288135D03*
X326801000Y-138432135D03*
X324201000Y-138432135D03*
X284495000Y-168625415D03*
X284495000Y-166025415D03*
X384870000Y-145796000D03*
X382270000Y-145796000D03*
X233538000Y-66358855D03*
X233538000Y-68958855D03*
D22*
X104188000Y-193537000D03*
D23*
X104188000Y-206237000D03*
D12*
X234173000Y-74165855D03*
X234173000Y-71565855D03*
X319151000Y-37945135D03*
X319151000Y-40545135D03*
D17*
X309118000Y-99837775D03*
D43*
X23744000Y-26799135D03*
D44*
X26284000Y-26799135D03*
D12*
X297307000Y-36929135D03*
X297307000Y-39529135D03*
D15*
X37170000Y-198760000D03*
D16*
X37170000Y-201260000D03*
X43070000Y-198760000D03*
X43070000Y-201260000D03*
D41*
X330040000Y-203020000D03*
X332580000Y-203020000D03*
D42*
X324960000Y-208100000D03*
X335120000Y-208100000D03*
D17*
X280593800Y-80468935D03*
X55499000Y-93855135D03*
X273380200Y-139270335D03*
D12*
X192913000Y-192377135D03*
X192913000Y-194977135D03*
X183769000Y-44609135D03*
X183769000Y-42009135D03*
D17*
X48133000Y-94109135D03*
D47*
X43942000Y-28300000D03*
X36452000Y-28300000D03*
X36452000Y-33300000D03*
X43942000Y-33300000D03*
D17*
X358013000Y-101854000D03*
D30*
X370967000Y-114300000D03*
D31*
X372467000Y-114300000D03*
D24*
X295156300Y-76220375D03*
X295156300Y-73680375D03*
X295156300Y-71140375D03*
X295156300Y-68600375D03*
X295156300Y-66060375D03*
X287536300Y-66060375D03*
X287536300Y-68600375D03*
X287536300Y-71140375D03*
X287536300Y-73680375D03*
X287536300Y-76220375D03*
D12*
X284607000Y-114350375D03*
X284607000Y-111750375D03*
X204597000Y-163490415D03*
X204597000Y-166090415D03*
X326659000Y-99839135D03*
X324059000Y-99839135D03*
X108570744Y-132365879D03*
X111170744Y-132365879D03*
D17*
X244271800Y-119393895D03*
D12*
X271907000Y-47186135D03*
X271907000Y-49786135D03*
D13*
X71061500Y-112406135D03*
D14*
X71061500Y-114946135D03*
X71061500Y-117486135D03*
X71061500Y-120026135D03*
X71061500Y-122566135D03*
X71061500Y-125106135D03*
X71061500Y-127646135D03*
X71061500Y-130186135D03*
X71061500Y-132726135D03*
X71061500Y-135266135D03*
D12*
X327070000Y-82791135D03*
X324470000Y-82791135D03*
D48*
X19660000Y-205780000D03*
D49*
X19660000Y-211780000D03*
D50*
X14910000Y-212280000D03*
X24410000Y-212280000D03*
X14910000Y-207580000D03*
X24410000Y-207580000D03*
D17*
X20747200Y-137026135D03*
D12*
X299847000Y-49816135D03*
X299847000Y-47216135D03*
X163449000Y-39245135D03*
X163449000Y-36645135D03*
X26991000Y-110991135D03*
X29591000Y-110991135D03*
X384870000Y-148336000D03*
X382270000Y-148336000D03*
X415223000Y-135636000D03*
X412623000Y-135636000D03*
X269367000Y-49786135D03*
X269367000Y-47186135D03*
D22*
X62357000Y-46484135D03*
D23*
X62357000Y-33784135D03*
D12*
X382270000Y-153416000D03*
X384870000Y-153416000D03*
X111170744Y-124745879D03*
X108570744Y-124745879D03*
X29591000Y-128780135D03*
X26991000Y-128780135D03*
X243967000Y-47216135D03*
X243967000Y-49816135D03*
X87660000Y-176913135D03*
X85060000Y-176913135D03*
D14*
X390677400Y-102133400D03*
X390677400Y-99593400D03*
D13*
X390677400Y-97053400D03*
D14*
X390677400Y-94513400D03*
X390677400Y-91973400D03*
X390677400Y-89433400D03*
X390677400Y-86893400D03*
D13*
X390677400Y-84353400D03*
D14*
X390677400Y-81813400D03*
X390677400Y-79273400D03*
X390677400Y-76733400D03*
X390677400Y-74193400D03*
D13*
X390677400Y-71653400D03*
D14*
X390677400Y-69113400D03*
X390677400Y-66573400D03*
X390677400Y-64033400D03*
X390677400Y-61493400D03*
D13*
X390677400Y-58953400D03*
D14*
X390677400Y-56413400D03*
X390677400Y-53873400D03*
X372897400Y-53873400D03*
X372897400Y-56413400D03*
D13*
X372897400Y-58953400D03*
D14*
X372897400Y-61493400D03*
X372897400Y-64033400D03*
X372897400Y-66573400D03*
X372897400Y-69113400D03*
D13*
X372897400Y-71653400D03*
D14*
X372897400Y-74193400D03*
X372897400Y-76733400D03*
X372897400Y-79273400D03*
X372897400Y-81813400D03*
D13*
X372897400Y-84353400D03*
D14*
X372897400Y-86893400D03*
X372897400Y-89433400D03*
X372897400Y-91973400D03*
X372897400Y-94513400D03*
D13*
X372897400Y-97053400D03*
D14*
X372897400Y-99593400D03*
X372897400Y-102133400D03*
X384327400Y-54103400D03*
D13*
X381787400Y-54103400D03*
D14*
X379247400Y-54103400D03*
D17*
X164690000Y-91230000D03*
D12*
X178943000Y-187805135D03*
X178943000Y-190405135D03*
X344484000Y-63883135D03*
X341884000Y-63883135D03*
X60960000Y-133860135D03*
X58360000Y-133860135D03*
X122809000Y-49943135D03*
X122809000Y-47343135D03*
D17*
X237109000Y-99976535D03*
X92837000Y-44960135D03*
D12*
X276987000Y-47216135D03*
X276987000Y-49816135D03*
D17*
X258826000Y-99976535D03*
X65253482Y-207528000D03*
D12*
X344484000Y-58803135D03*
X341884000Y-58803135D03*
X284607000Y-68316375D03*
X284607000Y-70916375D03*
X173592278Y-143927880D03*
X170992278Y-143927880D03*
X132969000Y-39275135D03*
X132969000Y-36675135D03*
X414969000Y-153416000D03*
X412369000Y-153416000D03*
X60960000Y-121160135D03*
X58360000Y-121160135D03*
X212023000Y-37848135D03*
X209423000Y-37848135D03*
X115189000Y-49943135D03*
X115189000Y-47343135D03*
X326801000Y-133352135D03*
X324201000Y-133352135D03*
X165989000Y-44609135D03*
X165989000Y-42009135D03*
D17*
X172168278Y-124940880D03*
D12*
X153289000Y-44609135D03*
X153289000Y-42009135D03*
X204470000Y-132054415D03*
X204470000Y-129454415D03*
X36887400Y-83504535D03*
X39487400Y-83504535D03*
X142920744Y-122205879D03*
X140320744Y-122205879D03*
X219060000Y-127164135D03*
X219060000Y-124564135D03*
X351058000Y-117208135D03*
X348458000Y-117208135D03*
D17*
X387451600Y-45618400D03*
X208762600Y-138655255D03*
D12*
X279527000Y-47216135D03*
X279527000Y-49816135D03*
D22*
X18161000Y-111127135D03*
D23*
X18161000Y-123827135D03*
D17*
X403479000Y-113538000D03*
D12*
X398022600Y-61493400D03*
X395422600Y-61493400D03*
X254777000Y-146340415D03*
X254777000Y-148940415D03*
D17*
X237718600Y-138782655D03*
D12*
X156083000Y-39275135D03*
X156083000Y-36675135D03*
D17*
X302768000Y-39372135D03*
D13*
X156451778Y-125258880D03*
D14*
X156451778Y-127798880D03*
X156451778Y-130338880D03*
X156451778Y-132878880D03*
X156451778Y-135418880D03*
X156451778Y-137958880D03*
D29*
X80635000Y-177411135D03*
D23*
X80635000Y-174871135D03*
X80635000Y-172331135D03*
X80635000Y-169791135D03*
X73015000Y-169791135D03*
X73015000Y-172331135D03*
X73015000Y-174871135D03*
X73015000Y-177411135D03*
D51*
X206930000Y-211420000D03*
D52*
X212010000Y-211420000D03*
X217090000Y-211420000D03*
X222170000Y-211420000D03*
D12*
X283606000Y-124623415D03*
X283606000Y-127223415D03*
D17*
X120660000Y-188920000D03*
D53*
X211963000Y-107190135D03*
D54*
X209423000Y-107190135D03*
X199263000Y-107190135D03*
X194183000Y-107190135D03*
D12*
X398022600Y-89509600D03*
X395422600Y-89509600D03*
X399226000Y-187263635D03*
X399226000Y-189863635D03*
D24*
X266207000Y-134813415D03*
X266207000Y-132273415D03*
X266207000Y-129733415D03*
X266207000Y-127193415D03*
X266207000Y-124653415D03*
X258587000Y-124653415D03*
X258587000Y-127193415D03*
X258587000Y-129733415D03*
X258587000Y-132273415D03*
X258587000Y-134813415D03*
D17*
X43053000Y-94109135D03*
D12*
X269367000Y-105146375D03*
X269367000Y-107746375D03*
X326659000Y-115079135D03*
X324059000Y-115079135D03*
D17*
X140330000Y-191270000D03*
D13*
X166860022Y-106237135D03*
D14*
X166860022Y-108777135D03*
X166860022Y-111317135D03*
X166860022Y-113857135D03*
X166860022Y-116397135D03*
X166860022Y-118937135D03*
D17*
X229870000Y-178511895D03*
D12*
X398022600Y-86893400D03*
X395422600Y-86893400D03*
X29591000Y-123691135D03*
X26991000Y-123691135D03*
D24*
X244864300Y-76359135D03*
X244864300Y-73819135D03*
X244864300Y-71279135D03*
X244864300Y-68739135D03*
X244864300Y-66199135D03*
X237244300Y-66199135D03*
X237244300Y-68739135D03*
X237244300Y-71279135D03*
X237244300Y-73819135D03*
X237244300Y-76359135D03*
D13*
X83761500Y-112401135D03*
D14*
X83761500Y-114941135D03*
X83761500Y-117481135D03*
X83761500Y-120021135D03*
X83761500Y-122561135D03*
X83761500Y-125101135D03*
X83761500Y-127641135D03*
X83761500Y-130181135D03*
X83761500Y-132721135D03*
X83761500Y-135261135D03*
D12*
X88549000Y-33149135D03*
X85949000Y-33149135D03*
X269722600Y-172040935D03*
X269722600Y-169440935D03*
X111170744Y-142525879D03*
X108570744Y-142525879D03*
X103378000Y-40291135D03*
X103378000Y-37691135D03*
D22*
X22225000Y-121033135D03*
D23*
X22225000Y-133733135D03*
D12*
X160909000Y-44609135D03*
X160909000Y-42009135D03*
D14*
X407797000Y-168656000D03*
X407797000Y-166116000D03*
D13*
X407797000Y-163576000D03*
D14*
X407797000Y-161036000D03*
X407797000Y-158496000D03*
X407797000Y-155956000D03*
X407797000Y-153416000D03*
D13*
X407797000Y-150876000D03*
D14*
X407797000Y-148336000D03*
X407797000Y-145796000D03*
X407797000Y-143256000D03*
X407797000Y-140716000D03*
D13*
X407797000Y-138176000D03*
D14*
X407797000Y-135636000D03*
X407797000Y-133096000D03*
X407797000Y-130556000D03*
X407797000Y-128016000D03*
D13*
X407797000Y-125476000D03*
D14*
X407797000Y-122936000D03*
X407797000Y-120396000D03*
X390017000Y-120396000D03*
X390017000Y-122936000D03*
D13*
X390017000Y-125476000D03*
D14*
X390017000Y-128016000D03*
X390017000Y-130556000D03*
X390017000Y-133096000D03*
X390017000Y-135636000D03*
D13*
X390017000Y-138176000D03*
D14*
X390017000Y-140716000D03*
X390017000Y-143256000D03*
X390017000Y-145796000D03*
X390017000Y-148336000D03*
D13*
X390017000Y-150876000D03*
D14*
X390017000Y-153416000D03*
X390017000Y-155956000D03*
X390017000Y-158496000D03*
X390017000Y-161036000D03*
D13*
X390017000Y-163576000D03*
D14*
X390017000Y-166116000D03*
X390017000Y-168656000D03*
X401447000Y-120626000D03*
D13*
X398907000Y-120626000D03*
D14*
X396367000Y-120626000D03*
D12*
X150749000Y-49943135D03*
X150749000Y-47343135D03*
D29*
X87630000Y-44325135D03*
D23*
X87630000Y-51945135D03*
D17*
X309422800Y-80601415D03*
D12*
X264274299Y-36929135D03*
X264274299Y-39529135D03*
D22*
X361797600Y-97053400D03*
D23*
X361797600Y-84353400D03*
D17*
X252145800Y-80735095D03*
D55*
X53799000Y-188182385D03*
X31799000Y-188182385D03*
D12*
X168529000Y-49943135D03*
X168529000Y-47343135D03*
X173595278Y-128623880D03*
X170995278Y-128623880D03*
X367542600Y-66548000D03*
X364942600Y-66548000D03*
X270002000Y-132620135D03*
X270002000Y-130020135D03*
X294767000Y-47216135D03*
X294767000Y-49816135D03*
X344454000Y-51183135D03*
X341854000Y-51183135D03*
X326629000Y-104919135D03*
X324029000Y-104919135D03*
X117729000Y-39275135D03*
X117729000Y-36675135D03*
X186309000Y-49943135D03*
X186309000Y-47343135D03*
D13*
X33234400Y-81772285D03*
D14*
X33234400Y-79232285D03*
X33234400Y-76692285D03*
X33234400Y-74152285D03*
X33234400Y-71612285D03*
X33234400Y-69072285D03*
D12*
X382270000Y-128016000D03*
X384870000Y-128016000D03*
X165989000Y-39275135D03*
X165989000Y-36675135D03*
D20*
X338089000Y-166738135D03*
D21*
X338089000Y-164198135D03*
X338089000Y-161658135D03*
X338089000Y-159118135D03*
X338089000Y-156578135D03*
X338089000Y-154038135D03*
X338089000Y-151498135D03*
X338089000Y-148958135D03*
X330469000Y-148958135D03*
X330469000Y-151498135D03*
X330469000Y-154038135D03*
X330469000Y-156578135D03*
X330469000Y-159118135D03*
X330469000Y-161658135D03*
X330469000Y-164198135D03*
X330469000Y-166738135D03*
D12*
X60960000Y-138940135D03*
X58360000Y-138940135D03*
D20*
X338470000Y-90411135D03*
D21*
X338470000Y-87871135D03*
X338470000Y-85331135D03*
X338470000Y-82791135D03*
X338470000Y-80251135D03*
X338470000Y-77711135D03*
X338470000Y-75171135D03*
X338470000Y-72631135D03*
X330850000Y-72631135D03*
X330850000Y-75171135D03*
X330850000Y-77711135D03*
X330850000Y-80251135D03*
X330850000Y-82791135D03*
X330850000Y-85331135D03*
X330850000Y-87871135D03*
X330850000Y-90411135D03*
D12*
X170212000Y-198920000D03*
X170212000Y-196320000D03*
X254127000Y-49816135D03*
X254127000Y-47216135D03*
X158369000Y-39275135D03*
X158369000Y-36675135D03*
X384937000Y-133096000D03*
X382337000Y-133096000D03*
D29*
X83566000Y-44325135D03*
D23*
X83566000Y-51945135D03*
D12*
X326547000Y-102364135D03*
X323947000Y-102364135D03*
X259224665Y-42039135D03*
X259224665Y-44639135D03*
X150137278Y-131036880D03*
X152737278Y-131036880D03*
X344424000Y-61343135D03*
X341824000Y-61343135D03*
D17*
X370967000Y-151384000D03*
D20*
X338709000Y-115064135D03*
D21*
X338709000Y-112524135D03*
X338709000Y-109984135D03*
X338709000Y-107444135D03*
X338709000Y-104904135D03*
X338709000Y-102364135D03*
X338709000Y-99824135D03*
X338709000Y-97284135D03*
X331089000Y-97284135D03*
X331089000Y-99824135D03*
X331089000Y-102364135D03*
X331089000Y-104904135D03*
X331089000Y-107444135D03*
X331089000Y-109984135D03*
X331089000Y-112524135D03*
X331089000Y-115064135D03*
D12*
X111170744Y-147605879D03*
X108570744Y-147605879D03*
D29*
X99560000Y-193500000D03*
D23*
X99560000Y-201120000D03*
D12*
X147955000Y-49943135D03*
X147955000Y-47343135D03*
X367593400Y-76530200D03*
X364993400Y-76530200D03*
D22*
X152400000Y-175133000D03*
D23*
X152400000Y-162433000D03*
D12*
X326039000Y-156593135D03*
X323439000Y-156593135D03*
X274447000Y-47216135D03*
X274447000Y-49816135D03*
X95210000Y-70670000D03*
X97810000Y-70670000D03*
X117729000Y-44609135D03*
X117729000Y-42009135D03*
D17*
X265953000Y-178628415D03*
D12*
X176149000Y-44609135D03*
X176149000Y-42009135D03*
X130429000Y-49943135D03*
X130429000Y-47343135D03*
X326801000Y-128272135D03*
X324201000Y-128272135D03*
X173722278Y-114462391D03*
X171122278Y-114462391D03*
X219187000Y-163426135D03*
X219187000Y-166026135D03*
X355346000Y-188089135D03*
X355346000Y-190689135D03*
X193959000Y-49659135D03*
X191359000Y-49659135D03*
X248016000Y-103502855D03*
X248016000Y-100902855D03*
X358267000Y-188059135D03*
X358267000Y-190659135D03*
X26991000Y-108451135D03*
X29591000Y-108451135D03*
X382270000Y-130733800D03*
X384870000Y-130733800D03*
X269380245Y-42039135D03*
X269380245Y-44639135D03*
X186309000Y-44639135D03*
X186309000Y-42039135D03*
X173609000Y-39275135D03*
X173609000Y-36675135D03*
X142920744Y-145065879D03*
X140320744Y-145065879D03*
X39487400Y-75630535D03*
X36887400Y-75630535D03*
X144399000Y-49943135D03*
X144399000Y-47343135D03*
X324993000Y-37945135D03*
X324993000Y-40545135D03*
D17*
X265887200Y-139137855D03*
X244348000Y-99976535D03*
D12*
X292230300Y-42039135D03*
X292230300Y-44639135D03*
X415096000Y-130556000D03*
X412496000Y-130556000D03*
X238028000Y-177901415D03*
X235428000Y-177901415D03*
X254777000Y-132303415D03*
X254777000Y-129703415D03*
X29591000Y-113540135D03*
X26991000Y-113540135D03*
D20*
X338216000Y-140957135D03*
D21*
X338216000Y-138417135D03*
X338216000Y-135877135D03*
X338216000Y-133337135D03*
X338216000Y-130797135D03*
X338216000Y-128257135D03*
X338216000Y-125717135D03*
X338216000Y-123177135D03*
X330596000Y-123177135D03*
X330596000Y-125717135D03*
X330596000Y-128257135D03*
X330596000Y-130797135D03*
X330596000Y-133337135D03*
X330596000Y-135877135D03*
X330596000Y-138417135D03*
X330596000Y-140957135D03*
D17*
X382625600Y-45618400D03*
D12*
X60960000Y-103380135D03*
X58360000Y-103380135D03*
D24*
X295156300Y-115056855D03*
X295156300Y-112516855D03*
X295156300Y-109976855D03*
X295156300Y-107436855D03*
X295156300Y-104896855D03*
X287536300Y-104896855D03*
X287536300Y-107436855D03*
X287536300Y-109976855D03*
X287536300Y-112516855D03*
X287536300Y-115056855D03*
D12*
X142920744Y-119665879D03*
X140320744Y-119665879D03*
X248666000Y-113789855D03*
X248666000Y-111189855D03*
X305054000Y-49816135D03*
X305054000Y-47216135D03*
X367339400Y-94488000D03*
X364739400Y-94488000D03*
X144399000Y-39275135D03*
X144399000Y-36675135D03*
X163449000Y-44609135D03*
X163449000Y-42009135D03*
D17*
X287578800Y-119255135D03*
X210185000Y-68455135D03*
D12*
X108570744Y-114585879D03*
X111170744Y-114585879D03*
X141605000Y-49943135D03*
X141605000Y-47343135D03*
X243943011Y-36929135D03*
X243943011Y-39529135D03*
D24*
X309642600Y-95638615D03*
X309642600Y-93098615D03*
X309642600Y-90558615D03*
X309642600Y-88018615D03*
X309642600Y-85478615D03*
X302022600Y-85478615D03*
X302022600Y-88018615D03*
X302022600Y-90558615D03*
X302022600Y-93098615D03*
X302022600Y-95638615D03*
D12*
X397971800Y-56413400D03*
X395371800Y-56413400D03*
D17*
X364718600Y-101879400D03*
D12*
X284607000Y-75996375D03*
X284607000Y-73396375D03*
D47*
X393877800Y-28300000D03*
X386387800Y-28300000D03*
X386387800Y-33300000D03*
X393877800Y-33300000D03*
D12*
X95210000Y-81590000D03*
X97810000Y-81590000D03*
X115666000Y-201758000D03*
X115666000Y-204358000D03*
X307488166Y-36929135D03*
X307488166Y-39529135D03*
D17*
X230479600Y-138787735D03*
D12*
X249025833Y-36929135D03*
X249025833Y-39529135D03*
D17*
X258521200Y-158162455D03*
D12*
X120269000Y-49943135D03*
X120269000Y-47343135D03*
X327070000Y-77711135D03*
X324470000Y-77711135D03*
X176149000Y-187805135D03*
X176149000Y-190405135D03*
X270002000Y-127540135D03*
X270002000Y-124940135D03*
X325912000Y-164213135D03*
X323312000Y-164213135D03*
X252506000Y-119031135D03*
X249906000Y-119031135D03*
X287152510Y-42039135D03*
X287152510Y-44639135D03*
D17*
X294716200Y-139270335D03*
D12*
X204470000Y-146091415D03*
X204470000Y-148691415D03*
D17*
X116332000Y-65280135D03*
D12*
X271898532Y-36929135D03*
X271898532Y-39529135D03*
D17*
X302641000Y-51818135D03*
D13*
X156738278Y-143927880D03*
D14*
X156738278Y-146467880D03*
X156738278Y-149007880D03*
X156738278Y-151547880D03*
X156738278Y-154087880D03*
X156738278Y-156627880D03*
D12*
X181483000Y-187805135D03*
X181483000Y-190405135D03*
X60960000Y-108460135D03*
X58360000Y-108460135D03*
D56*
X175885000Y-169801135D03*
D57*
X168285000Y-169801135D03*
D12*
X415096000Y-120396000D03*
X412496000Y-120396000D03*
D17*
X223012000Y-99844055D03*
D12*
X298704000Y-75470135D03*
X298704000Y-72870135D03*
D24*
X295179600Y-173649895D03*
X295179600Y-171109895D03*
X295179600Y-168569895D03*
X295179600Y-166029895D03*
X295179600Y-163489895D03*
X287559600Y-163489895D03*
X287559600Y-166029895D03*
X287559600Y-168569895D03*
X287559600Y-171109895D03*
X287559600Y-173649895D03*
D12*
X160909000Y-39275135D03*
X160909000Y-36675135D03*
X66645000Y-175389135D03*
X69245000Y-175389135D03*
X219695000Y-132371135D03*
X219695000Y-129771135D03*
X142920744Y-142525879D03*
X140320744Y-142525879D03*
D24*
X280670000Y-76220375D03*
X280670000Y-73680375D03*
X280670000Y-71140375D03*
X280670000Y-68600375D03*
X280670000Y-66060375D03*
X273050000Y-66060375D03*
X273050000Y-68600375D03*
X273050000Y-71140375D03*
X273050000Y-73680375D03*
X273050000Y-76220375D03*
D12*
X397971800Y-76733400D03*
X395371800Y-76733400D03*
X181229000Y-44609135D03*
X181229000Y-42009135D03*
D17*
X62357000Y-49913135D03*
X276275800Y-177675135D03*
D58*
X113411000Y-162943135D03*
D59*
X112141000Y-162943135D03*
X110871000Y-162943135D03*
D24*
X309642600Y-115056855D03*
X309642600Y-112516855D03*
X309642600Y-109976855D03*
X309642600Y-107436855D03*
X309642600Y-104896855D03*
X302022600Y-104896855D03*
X302022600Y-107436855D03*
X302022600Y-109976855D03*
X302022600Y-112516855D03*
X302022600Y-115056855D03*
D22*
X203327000Y-111506000D03*
D23*
X203327000Y-124206000D03*
D12*
X122809000Y-39275135D03*
X122809000Y-36675135D03*
X166910000Y-198920000D03*
X166910000Y-196320000D03*
D17*
X372999000Y-160274000D03*
X280593800Y-119122655D03*
D12*
X108570744Y-117125879D03*
X111170744Y-117125879D03*
X326039000Y-154053135D03*
X323439000Y-154053135D03*
D17*
X140584000Y-195588000D03*
D12*
X142920744Y-114585879D03*
X140320744Y-114585879D03*
X294767000Y-36929135D03*
X294767000Y-39529135D03*
D17*
X287401000Y-99837775D03*
D12*
X284937200Y-173539535D03*
X284937200Y-170939535D03*
X276981354Y-36929135D03*
X276981354Y-39529135D03*
X269357121Y-36929135D03*
X269357121Y-39529135D03*
X218948000Y-143424415D03*
X218948000Y-146024415D03*
D17*
X294640000Y-99837775D03*
D12*
X325912000Y-161673135D03*
X323312000Y-161673135D03*
D25*
X145923000Y-178183135D03*
D26*
X145923000Y-176913135D03*
X145923000Y-175643135D03*
D17*
X259130800Y-80740175D03*
D12*
X148209000Y-39275135D03*
X148209000Y-36675135D03*
D22*
X361696000Y-27307135D03*
D23*
X361696000Y-40007135D03*
D12*
X261763560Y-42039135D03*
X261763560Y-44639135D03*
X251607980Y-42039135D03*
X251607980Y-44639135D03*
X414969000Y-148336000D03*
X412369000Y-148336000D03*
D30*
X372491000Y-176151135D03*
D31*
X370991000Y-176151135D03*
D17*
X230301800Y-80607695D03*
D12*
X241452400Y-42039135D03*
X241452400Y-44639135D03*
D41*
X406220000Y-202970000D03*
X408760000Y-202970000D03*
D42*
X401140000Y-208050000D03*
X411300000Y-208050000D03*
D17*
X272618200Y-177675135D03*
D13*
X78943000Y-195363669D03*
D14*
X76403000Y-195363669D03*
X73863000Y-195363669D03*
X71323000Y-195363669D03*
D12*
X326801000Y-130812135D03*
X324201000Y-130812135D03*
X233665000Y-105220855D03*
X233665000Y-107820855D03*
X163165000Y-71250000D03*
X165765000Y-71250000D03*
X305054000Y-44736135D03*
X305054000Y-42136135D03*
X142920744Y-155225879D03*
X140320744Y-155225879D03*
X209550000Y-42674135D03*
X212150000Y-42674135D03*
X326771000Y-135892135D03*
X324171000Y-135892135D03*
D17*
X244322600Y-158015535D03*
D12*
X173595278Y-118780391D03*
X170995278Y-118780391D03*
X302798000Y-119128135D03*
X300198000Y-119128135D03*
D14*
X134584944Y-155225879D03*
X134584944Y-152685879D03*
D13*
X134584944Y-150145879D03*
D14*
X134584944Y-147605879D03*
X134584944Y-145065879D03*
X134584944Y-142525879D03*
X134584944Y-139985879D03*
D13*
X134584944Y-137445879D03*
D14*
X134584944Y-134905879D03*
X134584944Y-132365879D03*
X134584944Y-129825879D03*
X134584944Y-127285879D03*
D13*
X134584944Y-124745879D03*
D14*
X134584944Y-122205879D03*
X134584944Y-119665879D03*
X134584944Y-117125879D03*
X134584944Y-114585879D03*
D13*
X134584944Y-112045879D03*
D14*
X134584944Y-109505879D03*
X134584944Y-106965879D03*
X116804944Y-106965879D03*
X116804944Y-109505879D03*
D13*
X116804944Y-112045879D03*
D14*
X116804944Y-114585879D03*
X116804944Y-117125879D03*
X116804944Y-119665879D03*
X116804944Y-122205879D03*
D13*
X116804944Y-124745879D03*
D14*
X116804944Y-127285879D03*
X116804944Y-129825879D03*
X116804944Y-132365879D03*
X116804944Y-134905879D03*
D13*
X116804944Y-137445879D03*
D14*
X116804944Y-139985879D03*
X116804944Y-142525879D03*
X116804944Y-145065879D03*
X116804944Y-147605879D03*
D13*
X116804944Y-150145879D03*
D14*
X116804944Y-152685879D03*
X116804944Y-155225879D03*
X128234944Y-107195879D03*
D13*
X125694944Y-107195879D03*
D14*
X123154944Y-107195879D03*
D17*
X67140000Y-191180000D03*
D12*
X292227000Y-47216135D03*
X292227000Y-49816135D03*
X60960000Y-146551135D03*
X58360000Y-146551135D03*
X150261278Y-156627880D03*
X152861278Y-156627880D03*
X178689000Y-49943135D03*
X178689000Y-47343135D03*
X26991000Y-103380135D03*
X29591000Y-103380135D03*
D17*
X287731200Y-139265255D03*
D24*
X230378000Y-114972615D03*
X230378000Y-112432615D03*
X230378000Y-109892615D03*
X230378000Y-107352615D03*
X230378000Y-104812615D03*
X222758000Y-104812615D03*
X222758000Y-107352615D03*
X222758000Y-109892615D03*
X222758000Y-112432615D03*
X222758000Y-114972615D03*
D17*
X258841000Y-178755415D03*
X399288000Y-113538000D03*
X237591600Y-158015535D03*
D12*
X248539000Y-161396895D03*
X248539000Y-158796895D03*
X120710000Y-192290000D03*
X120710000Y-194890000D03*
D24*
X244856000Y-153970895D03*
X244856000Y-151430895D03*
X244856000Y-148890895D03*
X244856000Y-146350895D03*
X244856000Y-143810895D03*
X237236000Y-143810895D03*
X237236000Y-146350895D03*
X237236000Y-148890895D03*
X237236000Y-151430895D03*
X237236000Y-153970895D03*
D12*
X171069000Y-44609135D03*
X171069000Y-42009135D03*
D60*
X24979400Y-81472535D03*
X23709400Y-70042535D03*
X54737000Y-83568135D03*
X60706000Y-77599135D03*
X85343482Y-207998000D03*
X92943000Y-136539135D03*
X133477000Y-53469135D03*
X130683000Y-51691135D03*
X128143000Y-52199135D03*
X120523000Y-52453135D03*
X119998818Y-55517317D03*
X118370000Y-57030000D03*
X22947400Y-81726535D03*
X22128848Y-71115087D03*
X57531000Y-75059135D03*
X53213000Y-77980135D03*
X67932000Y-207548000D03*
X271145000Y-54739135D03*
X291465000Y-66804135D03*
X303149000Y-56517135D03*
X147193000Y-52707135D03*
X273431000Y-63681124D03*
X150000000Y-62480000D03*
X151230000Y-65780000D03*
X236855000Y-57152135D03*
X152070000Y-61640000D03*
X244983000Y-63629135D03*
X153970000Y-63150000D03*
X252984000Y-63502135D03*
X266954000Y-52961135D03*
X272288000Y-55374135D03*
X290703000Y-68201135D03*
X300101000Y-54866135D03*
X230505000Y-54612135D03*
X252857000Y-54866135D03*
X264287000Y-57279135D03*
X270129000Y-55882135D03*
X154970000Y-61220000D03*
X292481000Y-65280135D03*
X303022000Y-54739135D03*
X272299980Y-63681124D03*
X229235000Y-54358135D03*
X249174000Y-54485135D03*
X157669500Y-57560000D03*
X310007000Y-59692135D03*
X157590000Y-60970000D03*
X265303000Y-53342135D03*
X114910000Y-69690000D03*
X58420000Y-163832135D03*
X79630000Y-79390000D03*
X75044000Y-207294000D03*
X68694000Y-199928000D03*
X226822000Y-56009135D03*
X227457000Y-54993135D03*
X237617000Y-56263135D03*
X232029000Y-54612135D03*
X236855000Y-54866135D03*
X233299000Y-54485135D03*
X266192000Y-52199135D03*
X247650000Y-58170155D03*
X262088469Y-56644135D03*
X250571000Y-58170155D03*
X320931020Y-123954135D03*
X248158000Y-131193135D03*
X320675000Y-108333135D03*
X318643000Y-89918135D03*
X320929000Y-109730135D03*
X323469000Y-94236135D03*
X320931020Y-111000135D03*
X211074000Y-58803135D03*
X216535000Y-116461135D03*
X209550000Y-59184135D03*
X215519000Y-120271135D03*
X335155020Y-94490135D03*
X320681167Y-106802968D03*
X317754000Y-143004135D03*
X302768000Y-172341135D03*
X312674000Y-148465135D03*
X298323000Y-122684135D03*
X252730000Y-58170155D03*
X262088469Y-57787135D03*
X125349000Y-51945135D03*
X54356000Y-80520135D03*
D61*
X42106800Y-76313135D02*
X44420000Y-76313135D01*
X39487400Y-78932535D02*
X42106800Y-76313135D01*
X115189000Y-40388135D02*
X115189000Y-39275135D01*
X108966000Y-40515135D02*
X115062000Y-40515135D01*
X104500000Y-36330000D02*
X104780865Y-36330000D01*
X88930000Y-36324135D02*
X104494135Y-36324135D01*
X104494135Y-36324135D02*
X104500000Y-36330000D01*
X104780865Y-36330000D02*
X108966000Y-40515135D01*
X115062000Y-40515135D02*
X115189000Y-40388135D01*
X111599489Y-38225624D02*
X112649000Y-39275135D01*
X102629135Y-33149135D02*
X107705624Y-38225624D01*
X107705624Y-38225624D02*
X111599489Y-38225624D01*
X88549000Y-33149135D02*
X102629135Y-33149135D01*
X74362865Y-76837135D02*
X77970000Y-73230000D01*
X46609000Y-87759135D02*
X63373000Y-87759135D01*
X77970000Y-73230000D02*
X95210000Y-73230000D01*
X45847000Y-86997135D02*
X46609000Y-87759135D01*
X74295000Y-76837135D02*
X74362865Y-76837135D01*
X44420000Y-76313135D02*
X45847000Y-77740135D01*
X45847000Y-77740135D02*
X45847000Y-86997135D01*
X63373000Y-87759135D02*
X74295000Y-76837135D01*
X45135800Y-89283135D02*
X63540978Y-89283135D01*
X42672000Y-86819335D02*
X45135800Y-89283135D01*
X76854113Y-75970000D02*
X95210000Y-75970000D01*
X42672000Y-82633135D02*
X42672000Y-86819335D01*
X63540978Y-89283135D02*
X76854113Y-75970000D01*
X44547000Y-80758135D02*
X42672000Y-82633135D01*
X116459000Y-45879135D02*
X117729000Y-44609135D01*
X119757450Y-56406629D02*
X116459000Y-53108179D01*
X102843035Y-90700000D02*
X119757450Y-73785585D01*
X116459000Y-53108179D02*
X116459000Y-45879135D01*
X88919865Y-90700000D02*
X102843035Y-90700000D01*
X119757450Y-73785585D02*
X119757450Y-56406629D01*
X87249000Y-89029135D02*
X88919865Y-90700000D01*
X83949000Y-89029135D02*
X87249000Y-89029135D01*
X87503000Y-86489135D02*
X83949000Y-86489135D01*
X88613865Y-87600000D02*
X87503000Y-86489135D01*
X104934135Y-87600000D02*
X88613865Y-87600000D01*
X118999000Y-73535135D02*
X104934135Y-87600000D01*
X118999000Y-57787135D02*
X118999000Y-73535135D01*
X118370000Y-57158135D02*
X118999000Y-57787135D01*
X118370000Y-57030000D02*
X118370000Y-57158135D01*
D62*
X85343482Y-209958000D02*
X81911482Y-213390000D01*
X81911482Y-213390000D02*
X70903331Y-213390000D01*
X85343482Y-207998000D02*
X85343482Y-209958000D01*
X70903331Y-213390000D02*
X69641000Y-212127669D01*
X110100000Y-176220000D02*
X106270000Y-176220000D01*
X102020401Y-171970401D02*
X102020401Y-166245135D01*
X106270000Y-176220000D02*
X102020401Y-171970401D01*
X116126000Y-182246000D02*
X116126000Y-190870000D01*
X110100000Y-176220000D02*
X116126000Y-182246000D01*
D61*
X77978000Y-119509135D02*
X73415000Y-114946135D01*
X92914511Y-136510646D02*
X80024511Y-136510646D01*
X92943000Y-136539135D02*
X92914511Y-136510646D01*
X77978000Y-179232000D02*
X84786000Y-186040000D01*
X93840000Y-186040000D02*
X97030000Y-189230000D01*
X84786000Y-186040000D02*
X93840000Y-186040000D01*
X80024511Y-136510646D02*
X77978000Y-134464135D01*
X97030000Y-189230000D02*
X105850000Y-189230000D01*
X105850000Y-189230000D02*
X110030000Y-193410000D01*
X77978000Y-134464135D02*
X77978000Y-179232000D01*
X73415000Y-114946135D02*
X71061500Y-114946135D01*
X77978000Y-134464135D02*
X77978000Y-119509135D01*
X75692000Y-143336613D02*
X75692000Y-181192000D01*
X72526000Y-117486135D02*
X75438000Y-120398135D01*
X95530000Y-190050000D02*
X100701000Y-190050000D01*
X92355000Y-186875000D02*
X95530000Y-190050000D01*
X75692000Y-181192000D02*
X81380000Y-186880000D01*
X100701000Y-190050000D02*
X104188000Y-193537000D01*
X71061500Y-117486135D02*
X72526000Y-117486135D01*
X83545000Y-186875000D02*
X92355000Y-186875000D01*
X75438000Y-120398135D02*
X75438000Y-143082613D01*
X83540000Y-186880000D02*
X83545000Y-186875000D01*
X81380000Y-186880000D02*
X83540000Y-186880000D01*
X75438000Y-143082613D02*
X75692000Y-143336613D01*
X137795000Y-36675135D02*
X136772489Y-35652624D01*
X136772489Y-35652624D02*
X136772489Y-29294846D01*
X136772489Y-29294846D02*
X137922000Y-28145335D01*
X141611511Y-36414624D02*
X141611511Y-29294846D01*
X141611511Y-29294846D02*
X140462000Y-28145335D01*
X141351000Y-36675135D02*
X141611511Y-36414624D01*
X150749000Y-36675135D02*
X149472489Y-35398624D01*
X149472489Y-29294846D02*
X150622000Y-28145335D01*
X149472489Y-35398624D02*
X149472489Y-29294846D01*
X159632489Y-29294846D02*
X160782000Y-28145335D01*
X160909000Y-36675135D02*
X159632489Y-35398624D01*
X159632489Y-35398624D02*
X159632489Y-29294846D01*
X164712489Y-29294846D02*
X165862000Y-28145335D01*
X164712489Y-35398624D02*
X164712489Y-29294846D01*
X165989000Y-36675135D02*
X164712489Y-35398624D01*
X171069000Y-36675135D02*
X169792489Y-35398624D01*
X169792489Y-29294846D02*
X170942000Y-28145335D01*
X169792489Y-35398624D02*
X169792489Y-29294846D01*
X172332489Y-35398624D02*
X173609000Y-36675135D01*
X172332489Y-29294846D02*
X172332489Y-35398624D01*
X173482000Y-28145335D02*
X172332489Y-29294846D01*
X174872489Y-35398624D02*
X176149000Y-36675135D01*
X174872489Y-29294846D02*
X174872489Y-35398624D01*
X176022000Y-28145335D02*
X174872489Y-29294846D01*
X116238511Y-40518646D02*
X117729000Y-42009135D01*
X116238511Y-32048824D02*
X116238511Y-40518646D01*
X117602000Y-30685335D02*
X116238511Y-32048824D01*
X118778511Y-40518646D02*
X120269000Y-42009135D01*
X118778511Y-32048824D02*
X118778511Y-40518646D01*
X120142000Y-30685335D02*
X118778511Y-32048824D01*
X121318511Y-32048824D02*
X121318511Y-40518646D01*
X121318511Y-40518646D02*
X122809000Y-42009135D01*
X122682000Y-30685335D02*
X121318511Y-32048824D01*
X123858511Y-40518646D02*
X125349000Y-42009135D01*
X123858511Y-38840412D02*
X123858511Y-40518646D01*
X123831511Y-36213412D02*
X123858511Y-36240412D01*
X125222000Y-30685335D02*
X123831511Y-32075824D01*
X123858511Y-36240412D02*
X123858511Y-37687624D01*
X123831511Y-32075824D02*
X123831511Y-36213412D01*
X123858511Y-37687624D02*
X123825000Y-37721135D01*
X123825000Y-37721135D02*
X123825000Y-38806901D01*
X123825000Y-38806901D02*
X123858511Y-38840412D01*
X126612489Y-31834846D02*
X126612489Y-40732624D01*
X126612489Y-40732624D02*
X127889000Y-42009135D01*
X127762000Y-30685335D02*
X126612489Y-31834846D01*
X129152489Y-31834846D02*
X129152489Y-40732624D01*
X130302000Y-30685335D02*
X129152489Y-31834846D01*
X129152489Y-40732624D02*
X130429000Y-42009135D01*
X132969000Y-42009135D02*
X131478511Y-40518646D01*
X131478511Y-32048824D02*
X132842000Y-30685335D01*
X131478511Y-40518646D02*
X131478511Y-32048824D01*
X134018511Y-32048824D02*
X135382000Y-30685335D01*
X135509000Y-42009135D02*
X134018511Y-40518646D01*
X134018511Y-40518646D02*
X134018511Y-32048824D01*
X177412489Y-31834846D02*
X177412489Y-40732624D01*
X177412489Y-40732624D02*
X178689000Y-42009135D01*
X178562000Y-30685335D02*
X177412489Y-31834846D01*
D63*
X162179000Y-34368335D02*
X163322000Y-33225335D01*
X163449000Y-47343135D02*
X162179000Y-46073135D01*
X162179000Y-46073135D02*
X162179000Y-34368335D01*
X167279489Y-46093624D02*
X167279489Y-34347846D01*
X167279489Y-34347846D02*
X168402000Y-33225335D01*
X168529000Y-47343135D02*
X167279489Y-46093624D01*
D61*
X241477800Y-28297735D02*
X240328289Y-29447246D01*
X240328289Y-35855824D02*
X241401600Y-36929135D01*
X240328289Y-29447246D02*
X240328289Y-35855824D01*
X258108289Y-35845947D02*
X259191477Y-36929135D01*
X258108289Y-29447246D02*
X258108289Y-35845947D01*
X259257800Y-28297735D02*
X258108289Y-29447246D01*
X261797800Y-28297735D02*
X260648289Y-29447246D01*
X260648289Y-29447246D02*
X260648289Y-35844536D01*
X260648289Y-35844536D02*
X261732888Y-36929135D01*
X263188289Y-35843125D02*
X264274299Y-36929135D01*
X263188289Y-29447246D02*
X263188289Y-35843125D01*
X264337800Y-28297735D02*
X263188289Y-29447246D01*
X265728289Y-29447246D02*
X265728289Y-35841714D01*
X266877800Y-28297735D02*
X265728289Y-29447246D01*
X265728289Y-35841714D02*
X266815710Y-36929135D01*
X277037800Y-28297735D02*
X275888289Y-29447246D01*
X275888289Y-35836070D02*
X276981354Y-36929135D01*
X275888289Y-29447246D02*
X275888289Y-35836070D01*
X278187311Y-29688224D02*
X278187311Y-35593681D01*
X278187311Y-35593681D02*
X279522765Y-36929135D01*
X279577800Y-28297735D02*
X278187311Y-29688224D01*
X283508289Y-29447246D02*
X283508289Y-35831837D01*
X284657800Y-28297735D02*
X283508289Y-29447246D01*
X283508289Y-35831837D02*
X284605587Y-36929135D01*
X296208289Y-29447246D02*
X296208289Y-35830424D01*
X296208289Y-35830424D02*
X297307000Y-36929135D01*
X297357800Y-28297735D02*
X296208289Y-29447246D01*
X299897800Y-28297735D02*
X298748289Y-29447246D01*
X298748289Y-35830424D02*
X299847000Y-36929135D01*
X298748289Y-29447246D02*
X298748289Y-35830424D01*
X301288289Y-38400424D02*
X301288289Y-29447246D01*
X302768000Y-39372135D02*
X302260000Y-39372135D01*
X301288289Y-29447246D02*
X302437800Y-28297735D01*
X302260000Y-39372135D02*
X301288289Y-38400424D01*
X308667311Y-31987246D02*
X307517800Y-30837735D01*
X312547000Y-38102135D02*
X308610000Y-38102135D01*
X308667311Y-38044824D02*
X308667311Y-31987246D01*
X315722000Y-41277135D02*
X312547000Y-38102135D01*
X308610000Y-38102135D02*
X308667311Y-38044824D01*
X242893500Y-34502035D02*
X242893500Y-46142635D01*
X242893500Y-46142635D02*
X243967000Y-47216135D01*
X244017800Y-33377735D02*
X242893500Y-34502035D01*
X245434911Y-34500624D02*
X245434911Y-46144046D01*
X245434911Y-46144046D02*
X246507000Y-47216135D01*
X246557800Y-33377735D02*
X245434911Y-34500624D01*
X247976322Y-34499213D02*
X247976322Y-46145457D01*
X247976322Y-46145457D02*
X249047000Y-47216135D01*
X249097800Y-33377735D02*
X247976322Y-34499213D01*
X250517733Y-46146868D02*
X251587000Y-47216135D01*
X251637800Y-33377735D02*
X250517733Y-34497802D01*
X250517733Y-34497802D02*
X250517733Y-46146868D01*
X252657491Y-34898044D02*
X252657491Y-45746626D01*
X254177800Y-33377735D02*
X252657491Y-34898044D01*
X252657491Y-45746626D02*
X254127000Y-47216135D01*
X316738000Y-38102135D02*
X315137800Y-36501935D01*
X315137800Y-36501935D02*
X315137800Y-33377735D01*
X256717800Y-33377735D02*
X255600555Y-34494980D01*
X255600555Y-34494980D02*
X255600555Y-46149690D01*
X255600555Y-46149690D02*
X256667000Y-47216135D01*
D64*
X319151000Y-36070135D02*
X320217800Y-35003335D01*
X320217800Y-35003335D02*
X320217800Y-33377735D01*
X319151000Y-37945135D02*
X319151000Y-36070135D01*
D61*
X170205067Y-188445067D02*
X185039000Y-173611135D01*
X166910000Y-191740000D02*
X166910000Y-196320000D01*
X185039000Y-107825135D02*
X174625000Y-97411135D01*
X185039000Y-173611135D02*
X185039000Y-107825135D01*
X156083000Y-50934748D02*
X156083000Y-44609135D01*
X174625000Y-69476748D02*
X156083000Y-50934748D01*
X174625000Y-97411135D02*
X174625000Y-69476748D01*
X170205067Y-188445067D02*
X170204933Y-188445067D01*
X170204933Y-188445067D02*
X166910000Y-191740000D01*
X183551000Y-173223257D02*
X158637128Y-198137129D01*
X159638112Y-206432500D02*
X158415000Y-205209388D01*
X154305000Y-34622335D02*
X154305000Y-34927135D01*
X154918031Y-35540166D02*
X154918031Y-38334166D01*
X183551000Y-108213013D02*
X183551000Y-173223257D01*
X154918502Y-51034637D02*
X173137000Y-69253135D01*
X173137000Y-69253135D02*
X173137000Y-97799013D01*
X173137000Y-97799013D02*
X183551000Y-108213013D01*
X161030000Y-206432500D02*
X159638112Y-206432500D01*
X158415000Y-205209388D02*
X158415000Y-198359257D01*
X154918031Y-38334166D02*
X154918502Y-38334637D01*
X154918502Y-38334637D02*
X154918502Y-51034637D01*
X158415000Y-198359257D02*
X158637128Y-198137129D01*
X155702000Y-33225335D02*
X154305000Y-34622335D01*
X154305000Y-34927135D02*
X154918031Y-35540166D01*
X172557000Y-98039257D02*
X172557000Y-69492701D01*
X161030000Y-208432500D02*
X159609520Y-207012020D01*
X157835480Y-205449433D02*
X157835480Y-198118533D01*
X172557000Y-69492701D02*
X154338511Y-51274212D01*
X159609520Y-207012020D02*
X159398066Y-207012020D01*
X182971000Y-172983013D02*
X182971000Y-108453257D01*
X153162000Y-35063901D02*
X153162000Y-33225335D01*
X159398066Y-207012020D02*
X157835480Y-205449433D01*
X157835480Y-198118533D02*
X182971000Y-172983013D01*
X154338511Y-51274212D02*
X154338511Y-36240412D01*
X182971000Y-108453257D02*
X172557000Y-98039257D01*
X154338511Y-36240412D02*
X153162000Y-35063901D01*
X186563000Y-174881135D02*
X186563000Y-108079135D01*
X177673000Y-71249135D02*
X157319489Y-50895624D01*
X157319489Y-50895624D02*
X157319489Y-40511624D01*
X177673000Y-99189135D02*
X177673000Y-71249135D01*
X173707068Y-187737068D02*
X186563000Y-174881135D01*
X186563000Y-108079135D02*
X177673000Y-99189135D01*
X170212000Y-191232136D02*
X170212000Y-196320000D01*
X173707068Y-187737068D02*
X170212000Y-191232136D01*
X157319489Y-40511624D02*
X156083000Y-39275135D01*
X50927000Y-137670135D02*
X68657500Y-137670135D01*
X68657500Y-137670135D02*
X71061500Y-135266135D01*
X28040511Y-124740646D02*
X33854635Y-124740646D01*
D65*
X66548000Y-139779635D02*
X71061500Y-135266135D01*
D61*
X38238489Y-124981624D02*
X50927000Y-137670135D01*
X34095613Y-124981624D02*
X38238489Y-124981624D01*
X26991000Y-123691135D02*
X28040511Y-124740646D01*
D65*
X66548000Y-159551635D02*
X66548000Y-139779635D01*
D61*
X33854635Y-124740646D02*
X34095613Y-124981624D01*
D65*
X71039000Y-164042635D02*
X66548000Y-159551635D01*
D61*
X102997000Y-109349135D02*
X138049000Y-74297135D01*
X102997000Y-152783135D02*
X102997000Y-109349135D01*
X84589000Y-160652635D02*
X95127500Y-160652635D01*
X95127500Y-160652635D02*
X102997000Y-152783135D01*
D65*
X83739000Y-161502635D02*
X84589000Y-160652635D01*
D61*
X138049000Y-74297135D02*
X138049000Y-44609135D01*
X136779000Y-74719285D02*
X102072520Y-109425765D01*
X95673782Y-158962635D02*
X102072520Y-152563896D01*
X137795000Y-39275135D02*
X136779000Y-40291135D01*
X102072520Y-152563896D02*
X102072520Y-110273615D01*
X102072520Y-109425765D02*
X102072520Y-110273615D01*
X136779000Y-40291135D02*
X136779000Y-74719285D01*
X83739000Y-158962635D02*
X95673782Y-158962635D01*
X83739000Y-156422635D02*
X97365932Y-156422635D01*
X97365932Y-156422635D02*
X101310520Y-152478047D01*
X135509000Y-75141435D02*
X135509000Y-49943135D01*
X101310520Y-109339915D02*
X135509000Y-75141435D01*
X101310520Y-152478047D02*
X101310520Y-109339915D01*
X98849500Y-153882635D02*
X100711000Y-152021135D01*
X83739000Y-153882635D02*
X98849500Y-153882635D01*
X134018511Y-54959624D02*
X134459489Y-54518646D01*
X134018511Y-75784074D02*
X134018511Y-54959624D01*
X100711000Y-109091585D02*
X134018511Y-75784074D01*
X134459489Y-45658646D02*
X135509000Y-44609135D01*
X100711000Y-152021135D02*
X100711000Y-109091585D01*
X134459489Y-54518646D02*
X134459489Y-45658646D01*
X133477000Y-53469135D02*
X132969000Y-53977135D01*
X132969000Y-53977135D02*
X132969000Y-75985735D01*
X83739000Y-151342635D02*
X99103500Y-151342635D01*
X99103500Y-151342635D02*
X100111480Y-150334655D01*
X132969000Y-75985735D02*
X100111480Y-108843255D01*
X100111480Y-108843255D02*
X100111480Y-109440655D01*
X100111480Y-150334655D02*
X100111480Y-109440655D01*
X132207000Y-50705135D02*
X132476000Y-50436135D01*
X99187000Y-108919885D02*
X132207000Y-75899885D01*
X132169489Y-50742646D02*
X132476000Y-50436135D01*
X83739000Y-148802635D02*
X96563500Y-148802635D01*
X132207000Y-75899885D02*
X132207000Y-50705135D01*
X96563500Y-148802635D02*
X99187000Y-146179135D01*
X99187000Y-146179135D02*
X99187000Y-108919885D01*
X132476000Y-50436135D02*
X132969000Y-49943135D01*
X86106000Y-146433135D02*
X95885000Y-146433135D01*
X131569969Y-46008166D02*
X132969000Y-44609135D01*
X98587480Y-108671555D02*
X131569969Y-75689066D01*
X86106000Y-146433135D02*
X85935500Y-146262635D01*
X95885000Y-146433135D02*
X98587480Y-143730655D01*
X98587480Y-143730655D02*
X98587480Y-108671555D01*
X85935500Y-146262635D02*
X83739000Y-146262635D01*
X131569969Y-75689066D02*
X131569969Y-46008166D01*
X130970449Y-51978584D02*
X130970449Y-75440736D01*
X130683000Y-51691135D02*
X130970449Y-51978584D01*
X130970449Y-75440736D02*
X97987960Y-108423225D01*
X97987960Y-108423225D02*
X97987960Y-141536175D01*
X97987960Y-141536175D02*
X95801500Y-143722635D01*
X95801500Y-143722635D02*
X83739000Y-143722635D01*
X68081000Y-132726135D02*
X71061500Y-132726135D01*
X28240511Y-112240646D02*
X61946511Y-112240646D01*
X63627000Y-113921135D02*
X63627000Y-128272135D01*
X26991000Y-110991135D02*
X28240511Y-112240646D01*
X61946511Y-112240646D02*
X63627000Y-113921135D01*
X63627000Y-128272135D02*
X68081000Y-132726135D01*
X28240511Y-109700646D02*
X61467957Y-109700646D01*
X64897000Y-126748135D02*
X68335000Y-130186135D01*
X68335000Y-130186135D02*
X71061500Y-130186135D01*
X26991000Y-108451135D02*
X28240511Y-109700646D01*
X61467957Y-109700646D02*
X64897000Y-113129689D01*
X64897000Y-113129689D02*
X64897000Y-126748135D01*
X125857000Y-73696187D02*
X125857000Y-54993135D01*
X92399960Y-114358175D02*
X92399960Y-107153227D01*
X92399960Y-107153227D02*
X125857000Y-73696187D01*
X91817000Y-114941135D02*
X83761500Y-114941135D01*
X123949969Y-53086104D02*
X123949969Y-46008166D01*
X91817000Y-114941135D02*
X92399960Y-114358175D01*
X123949969Y-46008166D02*
X125349000Y-44609135D01*
X125857000Y-54993135D02*
X123949969Y-53086104D01*
X92999480Y-107401557D02*
X92999480Y-115917655D01*
X126577880Y-73823157D02*
X92999480Y-107401557D01*
X126577880Y-54698015D02*
X126577880Y-73823157D01*
X92999480Y-115917655D02*
X91436000Y-117481135D01*
X124549489Y-52669624D02*
X126577880Y-54698015D01*
X125349000Y-49943135D02*
X124549489Y-50742646D01*
X124549489Y-50742646D02*
X124549489Y-52669624D01*
X91436000Y-117481135D02*
X83761500Y-117481135D01*
X126398511Y-52740646D02*
X126398511Y-46099624D01*
X94361000Y-121541135D02*
X94361000Y-107735736D01*
X94361000Y-107735736D02*
X127776920Y-74319816D01*
X93341000Y-122561135D02*
X83761500Y-122561135D01*
X127776920Y-74319816D02*
X127776920Y-54119055D01*
X126398511Y-46099624D02*
X127889000Y-44609135D01*
X127776920Y-54119055D02*
X126398511Y-52740646D01*
X93341000Y-122561135D02*
X94361000Y-121541135D01*
X95793480Y-126458655D02*
X94611000Y-127641135D01*
X128143000Y-52199135D02*
X128975960Y-53032095D01*
X95793480Y-107998955D02*
X95793480Y-126458655D01*
X128975960Y-53032095D02*
X128975960Y-74816475D01*
X94611000Y-127641135D02*
X83761500Y-127641135D01*
X128975960Y-74816475D02*
X95793480Y-107998955D01*
X128376440Y-53702575D02*
X128376440Y-74568145D01*
X95123000Y-107821585D02*
X95123000Y-124335135D01*
X127127000Y-50705135D02*
X127127000Y-52453135D01*
X128376440Y-74568145D02*
X95123000Y-107821585D01*
X127127000Y-52453135D02*
X128376440Y-53702575D01*
X127889000Y-49943135D02*
X127127000Y-50705135D01*
X94357000Y-125101135D02*
X83761500Y-125101135D01*
X95123000Y-124335135D02*
X94357000Y-125101135D01*
X129883489Y-50488646D02*
X130429000Y-49943135D01*
X97155000Y-129415135D02*
X93853000Y-132717135D01*
X86483000Y-132721135D02*
X83761500Y-132721135D01*
X97155000Y-108333135D02*
X97155000Y-129415135D01*
X130259075Y-52397890D02*
X129883489Y-52022304D01*
X129883489Y-52022304D02*
X129883489Y-50488646D01*
X130259075Y-75229060D02*
X97155000Y-108333135D01*
X93853000Y-132717135D02*
X86487000Y-132717135D01*
X130259075Y-69301210D02*
X130259075Y-75229060D01*
X130259075Y-69301210D02*
X130259075Y-52397890D01*
X86487000Y-132717135D02*
X86483000Y-132721135D01*
X96393000Y-108247285D02*
X96393000Y-128653135D01*
X129283969Y-45754166D02*
X129283969Y-52270633D01*
X129283969Y-52270633D02*
X129575480Y-52562144D01*
X94865000Y-130181135D02*
X83761500Y-130181135D01*
X96393000Y-128653135D02*
X94865000Y-130181135D01*
X130429000Y-44609135D02*
X129283969Y-45754166D01*
X129575480Y-75064805D02*
X96393000Y-108247285D01*
X129575480Y-52562144D02*
X129575480Y-75064805D01*
X36380000Y-91442135D02*
X68961000Y-91442135D01*
X26991000Y-100831135D02*
X36380000Y-91442135D01*
X68961000Y-91442135D02*
X71374000Y-89029135D01*
X26991000Y-103380135D02*
X24892000Y-101281135D01*
X34925000Y-90299135D02*
X67564000Y-90299135D01*
X67564000Y-90299135D02*
X71374000Y-86489135D01*
X24892000Y-100332135D02*
X34925000Y-90299135D01*
X24892000Y-101281135D02*
X24892000Y-100332135D01*
X94361000Y-104269135D02*
X124079000Y-74551135D01*
X124079000Y-54485135D02*
X122809000Y-53215135D01*
X83949000Y-104269135D02*
X94361000Y-104269135D01*
X124079000Y-74551135D02*
X124079000Y-54485135D01*
X122809000Y-53215135D02*
X122809000Y-49943135D01*
X96053150Y-101729135D02*
X123479480Y-74302805D01*
X123479480Y-54901615D02*
X121759489Y-53181624D01*
X123479480Y-74302805D02*
X123479480Y-54901615D01*
X83949000Y-101729135D02*
X96053150Y-101729135D01*
X121759489Y-53181624D02*
X121759489Y-45658646D01*
X121759489Y-45658646D02*
X122809000Y-44609135D01*
X97745300Y-99189135D02*
X122809000Y-74125435D01*
X122809000Y-55501135D02*
X120523000Y-53215135D01*
X122809000Y-74125435D02*
X122809000Y-73027135D01*
X83949000Y-99189135D02*
X97745300Y-99189135D01*
X122809000Y-73027135D02*
X122809000Y-55501135D01*
X120523000Y-53215135D02*
X120523000Y-52453135D01*
X119723489Y-53263474D02*
X119723489Y-50488646D01*
X122209480Y-72607105D02*
X122209480Y-55749465D01*
X122172225Y-73914360D02*
X122172225Y-72644360D01*
X122209480Y-55749465D02*
X119723489Y-53263474D01*
X99437450Y-96649135D02*
X122172225Y-73914360D01*
X119723489Y-50488646D02*
X120269000Y-49943135D01*
X83949000Y-96649135D02*
X99437450Y-96649135D01*
X83949000Y-94109135D02*
X101129600Y-94109135D01*
X121539000Y-73699735D02*
X121539000Y-55926835D01*
X121539000Y-55926835D02*
X118778511Y-53166346D01*
X118778511Y-53166346D02*
X118778511Y-46099624D01*
X101129600Y-94109135D02*
X121539000Y-73699735D01*
X118778511Y-46099624D02*
X120269000Y-44609135D01*
X120689375Y-56175510D02*
X120015000Y-55501135D01*
X103505000Y-90807135D02*
X103583750Y-90807135D01*
X120689375Y-73701510D02*
X120689375Y-56175510D01*
X102743000Y-91569135D02*
X103505000Y-90807135D01*
X83949000Y-91569135D02*
X102743000Y-91569135D01*
X103583750Y-90807135D02*
X120689375Y-73701510D01*
X120015000Y-55501135D02*
X119998818Y-55517317D01*
D62*
X22947400Y-81726535D02*
X25614400Y-79059535D01*
X25614400Y-79059535D02*
X25614400Y-77662535D01*
X31664650Y-71612285D02*
X33234400Y-71612285D01*
X25614400Y-77662535D02*
X31664650Y-71612285D01*
X31883150Y-69072285D02*
X33234400Y-69072285D01*
X22128848Y-69083087D02*
X22947400Y-68264535D01*
X22128848Y-71115087D02*
X22128848Y-69083087D01*
X31075400Y-68264535D02*
X31883150Y-69072285D01*
X22947400Y-68264535D02*
X31075400Y-68264535D01*
D61*
X115150000Y-51652135D02*
X114139489Y-50641624D01*
X44293000Y-69882135D02*
X45339000Y-68836135D01*
X44293000Y-71868135D02*
X44293000Y-69882135D01*
X114139489Y-50641624D02*
X114139489Y-45658646D01*
X109220000Y-68836135D02*
X115150000Y-62906135D01*
X115150000Y-62906135D02*
X115150000Y-51652135D01*
X114139489Y-45658646D02*
X115189000Y-44609135D01*
X45339000Y-68836135D02*
X109220000Y-68836135D01*
X51562000Y-76329135D02*
X50673000Y-76329135D01*
X53213000Y-77980135D02*
X51562000Y-76329135D01*
X66520001Y-195100001D02*
X65820000Y-194400000D01*
X67932000Y-207548000D02*
X66520001Y-206136001D01*
X66520001Y-206136001D02*
X66520001Y-195100001D01*
X83312000Y-36324135D02*
X86330000Y-36324135D01*
X79888000Y-39748135D02*
X83312000Y-36324135D01*
X74867500Y-39748135D02*
X79888000Y-39748135D01*
X69469000Y-37526635D02*
X69469000Y-33911135D01*
X70231000Y-33149135D02*
X85949000Y-33149135D01*
X69469000Y-33911135D02*
X70231000Y-33149135D01*
X67247500Y-39748135D02*
X69469000Y-37526635D01*
X267589000Y-119636135D02*
X264033000Y-123192135D01*
X271145000Y-54739135D02*
X271145000Y-58930135D01*
X271145000Y-58930135D02*
X267589000Y-62486135D01*
X264033000Y-144305175D02*
X266207000Y-146479175D01*
X264033000Y-123192135D02*
X264033000Y-144305175D01*
X267589000Y-62486135D02*
X267589000Y-119636135D01*
X275396511Y-46239554D02*
X276996930Y-44639135D01*
X275396511Y-50209436D02*
X275396511Y-46239554D01*
X274040000Y-59524246D02*
X274040000Y-51565947D01*
X276535040Y-143149915D02*
X276535040Y-62019286D01*
X276535040Y-62019286D02*
X274040000Y-59524246D01*
X273073300Y-146611655D02*
X276535040Y-143149915D01*
X274040000Y-51565947D02*
X275396511Y-50209436D01*
X278419480Y-64355655D02*
X284750000Y-58025135D01*
X282509443Y-45688646D02*
X280585336Y-45688646D01*
X283784489Y-46963692D02*
X282509443Y-45688646D01*
X284750000Y-51174947D02*
X283784489Y-50209436D01*
X280585336Y-45688646D02*
X279535825Y-44639135D01*
X280693300Y-146261655D02*
X278384000Y-143952355D01*
X280693300Y-146611655D02*
X280693300Y-146261655D01*
X278384000Y-92289985D02*
X278419480Y-92254505D01*
X278384000Y-143952355D02*
X278384000Y-92289985D01*
X278419480Y-92254505D02*
X278419480Y-64355655D01*
X284750000Y-58025135D02*
X284750000Y-51174947D01*
X283784489Y-50209436D02*
X283784489Y-46963692D01*
X290286520Y-143884735D02*
X287559600Y-146611655D01*
X291302520Y-123842805D02*
X290286520Y-124858805D01*
X290286520Y-124858805D02*
X290286520Y-143884735D01*
X291465000Y-67110113D02*
X291465000Y-66804135D01*
X291502511Y-67147624D02*
X291502511Y-101021144D01*
X291502511Y-101021144D02*
X291302520Y-101221135D01*
X291502511Y-67147624D02*
X291465000Y-67110113D01*
X291302520Y-101221135D02*
X291302520Y-123842805D01*
X305582560Y-136208695D02*
X295179600Y-146611655D01*
X306324000Y-62105135D02*
X305582560Y-62846575D01*
X303149000Y-56517135D02*
X306324000Y-59692135D01*
X306324000Y-59692135D02*
X306324000Y-62105135D01*
X305582560Y-62846575D02*
X305582560Y-136208695D01*
X147479520Y-88299655D02*
X158877000Y-99697135D01*
X158877000Y-147957135D02*
X166298234Y-155378369D01*
X147479520Y-55279655D02*
X147479520Y-88299655D01*
X147193000Y-52707135D02*
X147193000Y-54993135D01*
X172342767Y-155378369D02*
X173592278Y-156627880D01*
X147193000Y-54993135D02*
X147479520Y-55279655D01*
X158877000Y-99697135D02*
X158877000Y-147957135D01*
X166298234Y-155378369D02*
X172342767Y-155378369D01*
X160147000Y-143385135D02*
X159547480Y-142785615D01*
X148904511Y-39970646D02*
X148209000Y-39275135D01*
X148110000Y-88082285D02*
X148110000Y-54000000D01*
X166380713Y-150257391D02*
X160147000Y-144023678D01*
X171666789Y-150257391D02*
X166380713Y-150257391D01*
X159547480Y-99519765D02*
X148110000Y-88082285D01*
X148110000Y-54000000D02*
X148904511Y-53205489D01*
X148904511Y-53205489D02*
X148904511Y-39970646D01*
X159547480Y-142785615D02*
X159547480Y-99519765D01*
X173592278Y-152182880D02*
X171666789Y-150257391D01*
X160147000Y-144023678D02*
X160147000Y-143385135D01*
X273431000Y-63681124D02*
X274701000Y-64951124D01*
X274599520Y-81688655D02*
X274599520Y-86336615D01*
X274701000Y-64951124D02*
X274701000Y-81587175D01*
X274599520Y-86336615D02*
X273050000Y-87886135D01*
X274701000Y-81587175D02*
X274599520Y-81688655D01*
X170557555Y-146688369D02*
X172542767Y-146688369D01*
X150000000Y-62480000D02*
X149987000Y-62493000D01*
X160147000Y-141607135D02*
X166298234Y-147758369D01*
X160147000Y-99271435D02*
X160147000Y-141607135D01*
X149987000Y-89111435D02*
X160147000Y-99271435D01*
X149987000Y-62493000D02*
X149987000Y-89111435D01*
X169487555Y-147758369D02*
X170557555Y-146688369D01*
X172542767Y-146688369D02*
X173592278Y-147737880D01*
X166298234Y-147758369D02*
X169487555Y-147758369D01*
X288637489Y-45693051D02*
X289691405Y-44639135D01*
X282219520Y-67794615D02*
X288637489Y-61376646D01*
X288637489Y-61376646D02*
X288637489Y-45693051D01*
X282219520Y-86336615D02*
X282219520Y-67794615D01*
X280670000Y-87886135D02*
X282219520Y-86336615D01*
X151230000Y-65780000D02*
X151257000Y-65807000D01*
X172342767Y-145177391D02*
X173592278Y-143927880D01*
X151257000Y-65807000D02*
X151257000Y-88098985D01*
X151257000Y-88098985D02*
X160909000Y-97750985D01*
X160909000Y-97750985D02*
X160909000Y-140437624D01*
X160909000Y-140437624D02*
X165648767Y-145177391D01*
X165648767Y-145177391D02*
X172342767Y-145177391D01*
X232283000Y-63121135D02*
X232283000Y-66834135D01*
X232283000Y-66834135D02*
X230378000Y-68739135D01*
X236855000Y-57152135D02*
X236855000Y-58549135D01*
X236855000Y-58549135D02*
X232283000Y-63121135D01*
X289208511Y-86346404D02*
X289208511Y-64742624D01*
X291177489Y-45691946D02*
X292230300Y-44639135D01*
X289208511Y-64742624D02*
X291177489Y-62773646D01*
X287536300Y-88018615D02*
X289208511Y-86346404D01*
X291177489Y-62773646D02*
X291177489Y-45691946D01*
X258157489Y-41622077D02*
X259137431Y-40642135D01*
X237244300Y-68739135D02*
X238793820Y-67189615D01*
X238793820Y-61182315D02*
X243967000Y-56009135D01*
X252857000Y-56009135D02*
X258157489Y-50708646D01*
X260619888Y-40642135D02*
X261732888Y-39529135D01*
X238793820Y-67189615D02*
X238793820Y-61182315D01*
X258157489Y-50708646D02*
X258157489Y-41622077D01*
X259137431Y-40642135D02*
X260619888Y-40642135D01*
X243967000Y-56009135D02*
X252857000Y-56009135D01*
X293606780Y-45801550D02*
X294769195Y-44639135D01*
X293606780Y-86469095D02*
X293606780Y-45801550D01*
X295156300Y-88018615D02*
X293606780Y-86469095D01*
X161671000Y-97665135D02*
X161671000Y-132209135D01*
X152019000Y-88013135D02*
X161671000Y-97665135D01*
X172282767Y-136709369D02*
X173595278Y-138021880D01*
X152019000Y-61691000D02*
X152019000Y-88013135D01*
X166171234Y-136709369D02*
X172282767Y-136709369D01*
X152070000Y-61640000D02*
X152019000Y-61691000D01*
X161671000Y-132209135D02*
X166171234Y-136709369D01*
X243205000Y-67079835D02*
X244864300Y-68739135D01*
X244983000Y-63629135D02*
X243205000Y-65407135D01*
X243205000Y-65407135D02*
X243205000Y-67079835D01*
X302022600Y-88018615D02*
X303784000Y-86257215D01*
X303784000Y-86257215D02*
X303784000Y-64518135D01*
X296257489Y-45689736D02*
X297308090Y-44639135D01*
X303784000Y-64518135D02*
X296257489Y-56991624D01*
X296257489Y-56991624D02*
X296257489Y-45689736D01*
X167383343Y-134128391D02*
X167587365Y-133924369D01*
X172545767Y-133924369D02*
X173595278Y-134973880D01*
X167587365Y-133924369D02*
X172545767Y-133924369D01*
X154051000Y-88775135D02*
X162687000Y-97411135D01*
X164860256Y-134128391D02*
X167383343Y-134128391D01*
X162687000Y-97411135D02*
X162687000Y-131955135D01*
X154051000Y-63231000D02*
X154051000Y-88775135D01*
X153970000Y-63150000D02*
X154051000Y-63231000D01*
X162687000Y-131955135D02*
X164860256Y-134128391D01*
X253111000Y-63502135D02*
X253492000Y-63883135D01*
X253492000Y-63883135D02*
X253492000Y-67018855D01*
X252984000Y-63502135D02*
X253111000Y-63502135D01*
X253492000Y-67018855D02*
X251714000Y-68796855D01*
X307945489Y-80894579D02*
X307975000Y-80865068D01*
X298797489Y-50250858D02*
X298797489Y-45688646D01*
X309642600Y-87668615D02*
X307945489Y-85971504D01*
X298797489Y-45688646D02*
X299847000Y-44639135D01*
X309642600Y-88018615D02*
X309642600Y-87668615D01*
X307945489Y-85971504D02*
X307945489Y-80894579D01*
X307975000Y-80865068D02*
X307975000Y-56507369D01*
X302015766Y-53469135D02*
X298797489Y-50250858D01*
X304936766Y-53469135D02*
X302015766Y-53469135D01*
X307975000Y-56507369D02*
X304936766Y-53469135D01*
X266954000Y-52961135D02*
X263487489Y-56427646D01*
X263525000Y-64605855D02*
X259334000Y-68796855D01*
X263525000Y-57647815D02*
X263525000Y-64605855D01*
X263487489Y-57610304D02*
X263525000Y-57647815D01*
X263487489Y-56427646D02*
X263487489Y-57610304D01*
X196469000Y-196725135D02*
X185039000Y-196725135D01*
X183227489Y-194913624D02*
X183227489Y-185836646D01*
X159418511Y-50454646D02*
X159418511Y-41056646D01*
X185039000Y-196725135D02*
X183227489Y-194913624D01*
X159385000Y-41023135D02*
X159385000Y-40799135D01*
X159418511Y-41056646D02*
X159385000Y-41023135D01*
X188341000Y-180723135D02*
X188341000Y-108587135D01*
X188341000Y-108587135D02*
X179959000Y-100205135D01*
X183227489Y-185836646D02*
X188341000Y-180723135D01*
X196943489Y-193426646D02*
X196943489Y-196250646D01*
X179959000Y-70995135D02*
X159418511Y-50454646D01*
X197993000Y-192377135D02*
X196943489Y-193426646D01*
X196943489Y-196250646D02*
X196469000Y-196725135D01*
X179959000Y-100205135D02*
X179959000Y-70995135D01*
X159385000Y-40799135D02*
X160909000Y-39275135D01*
X194691000Y-111381135D02*
X184531000Y-101221135D01*
X184531000Y-67185135D02*
X170019489Y-52673624D01*
X192913000Y-189867135D02*
X194691000Y-188089135D01*
X170019489Y-40324646D02*
X171069000Y-39275135D01*
X184531000Y-101221135D02*
X184531000Y-67185135D01*
X194691000Y-188089135D02*
X194691000Y-111381135D01*
X192913000Y-192377135D02*
X192913000Y-189867135D01*
X170019489Y-52673624D02*
X170019489Y-40324646D01*
X258587000Y-127193415D02*
X259919640Y-127193415D01*
X269356500Y-40578646D02*
X270849021Y-40578646D01*
X261634920Y-125478135D02*
X261634920Y-121989516D01*
X268317489Y-41617657D02*
X269356500Y-40578646D01*
X270849021Y-40578646D02*
X271898532Y-39529135D01*
X261634920Y-121989516D02*
X265119960Y-118504475D01*
X265119960Y-118504475D02*
X265119960Y-56319175D01*
X268317489Y-53121646D02*
X268317489Y-41617657D01*
X259919640Y-127193415D02*
X261634920Y-125478135D01*
X265119960Y-56319175D02*
X268317489Y-53121646D01*
X164939489Y-40324646D02*
X165989000Y-39275135D01*
X189865000Y-108333135D02*
X182753000Y-101221135D01*
X182753000Y-69217135D02*
X164939489Y-51403624D01*
X184277000Y-187805135D02*
X187863000Y-187805135D01*
X164939489Y-51403624D02*
X164939489Y-40324646D01*
X189865000Y-185803135D02*
X189865000Y-108333135D01*
X187863000Y-187805135D02*
X189865000Y-185803135D01*
X182753000Y-101221135D02*
X182753000Y-69217135D01*
X270416511Y-62773646D02*
X270416511Y-122983904D01*
X270416511Y-122983904D02*
X266207000Y-127193415D01*
X272288000Y-60902157D02*
X270416511Y-62773646D01*
X272288000Y-55374135D02*
X272288000Y-60902157D01*
X275935520Y-124331195D02*
X273073300Y-127193415D01*
X275947419Y-40563070D02*
X276981354Y-39529135D01*
X273397489Y-59729584D02*
X273397489Y-46781412D01*
X274490255Y-45688646D02*
X274892758Y-45688646D01*
X274892758Y-45688646D02*
X275947419Y-44633985D01*
X273397489Y-46781412D02*
X274490255Y-45688646D01*
X275947419Y-44633985D02*
X275947419Y-40563070D01*
X275935520Y-62267615D02*
X275935520Y-124331195D01*
X275935520Y-62267615D02*
X273397489Y-59729584D01*
X284637360Y-40578646D02*
X280572276Y-40578646D01*
X285783511Y-41724797D02*
X284637360Y-40578646D01*
X279116489Y-125616604D02*
X279116489Y-64928646D01*
X285750000Y-58295135D02*
X285750000Y-57914135D01*
X285750000Y-57914135D02*
X285783511Y-57880624D01*
X279116489Y-64928646D02*
X285750000Y-58295135D01*
X285783511Y-57880624D02*
X285783511Y-41724797D01*
X280572276Y-40578646D02*
X279522765Y-39529135D01*
X280693300Y-127193415D02*
X279116489Y-125616604D01*
X289687000Y-125107135D02*
X289687000Y-106174135D01*
X290703000Y-105158135D02*
X290703000Y-68455135D01*
X290703000Y-68455135D02*
X290703000Y-68201135D01*
X290449000Y-105412135D02*
X290703000Y-105158135D01*
X289687000Y-106174135D02*
X290449000Y-105412135D01*
X287543000Y-127251135D02*
X289687000Y-125107135D01*
X300101000Y-54866135D02*
X304983040Y-59748175D01*
X296159234Y-127251135D02*
X295163000Y-127251135D01*
X304983040Y-59748175D02*
X304983040Y-118427329D01*
X304983040Y-118427329D02*
X296159234Y-127251135D01*
X195326000Y-35435135D02*
X182880000Y-35435135D01*
X182880000Y-35435135D02*
X182278511Y-36036624D01*
X182278511Y-38195624D02*
X181229000Y-39245135D01*
X182278511Y-36036624D02*
X182278511Y-38195624D01*
X205232000Y-25529135D02*
X195326000Y-35435135D01*
X205232000Y-25529135D02*
X216251000Y-25529135D01*
X224931920Y-60185215D02*
X224931920Y-105178695D01*
X230505000Y-54612135D02*
X224931920Y-60185215D01*
X224931920Y-105178695D02*
X222758000Y-107352615D01*
X235694780Y-87034589D02*
X231927520Y-90801849D01*
X231927520Y-90801849D02*
X231927520Y-105803095D01*
X252857000Y-54866135D02*
X252349000Y-55374135D01*
X231927520Y-105803095D02*
X230378000Y-107352615D01*
X252349000Y-55374135D02*
X243078000Y-55374135D01*
X243078000Y-55374135D02*
X235694780Y-62757355D01*
X235694780Y-62757355D02*
X235694780Y-87034589D01*
X239516031Y-86236834D02*
X240030000Y-85722865D01*
X240030000Y-61851135D02*
X244510480Y-57370655D01*
X244510480Y-57370655D02*
X254192480Y-57370655D01*
X240030000Y-85722865D02*
X240030000Y-61851135D01*
X237236000Y-107509615D02*
X239516031Y-105229584D01*
X254192480Y-57370655D02*
X261747000Y-49816135D01*
X239516031Y-105229584D02*
X239516031Y-86236834D01*
X172118511Y-52740646D02*
X175768000Y-56390135D01*
X175768000Y-56390135D02*
X209931000Y-56390135D01*
X172118511Y-46099624D02*
X172118511Y-52740646D01*
X213614000Y-52296135D02*
X212247000Y-50929135D01*
X209931000Y-56390135D02*
X213614000Y-52707135D01*
X173609000Y-44609135D02*
X172118511Y-46099624D01*
X213614000Y-52707135D02*
X213614000Y-52296135D01*
X244856000Y-107509615D02*
X246413820Y-105951795D01*
X247523000Y-61978135D02*
X252125000Y-61978135D01*
X252125000Y-61978135D02*
X264287000Y-49816135D01*
X246413820Y-63087315D02*
X247523000Y-61978135D01*
X246413820Y-105951795D02*
X246413820Y-63087315D01*
X145542000Y-56038257D02*
X146300000Y-56796257D01*
X146300000Y-56796257D02*
X146300000Y-162410013D01*
X135610000Y-198894635D02*
X135610000Y-202130000D01*
X135397500Y-202342500D02*
X135397500Y-207350000D01*
X146300000Y-162410013D02*
X135602500Y-173107513D01*
X135602500Y-198887135D02*
X135610000Y-198894635D01*
X135610000Y-202130000D02*
X135397500Y-202342500D01*
X135602500Y-173107513D02*
X135602500Y-198887135D01*
X145542000Y-33225335D02*
X145542000Y-56038257D01*
X248143000Y-108709855D02*
X248208280Y-108775135D01*
X254691040Y-61922095D02*
X266827000Y-49786135D01*
X248208280Y-108775135D02*
X252577457Y-108775135D01*
X254691040Y-106661552D02*
X254691040Y-61922095D01*
X252577457Y-108775135D02*
X254691040Y-106661552D01*
X136182500Y-173347757D02*
X136182500Y-198647569D01*
X146122000Y-55798013D02*
X146880000Y-56556013D01*
X136182500Y-198647569D02*
X136189520Y-198654590D01*
X136189520Y-198654590D02*
X136189520Y-201792020D01*
X136189520Y-201792020D02*
X139207500Y-204810000D01*
X146880000Y-162650257D02*
X136182500Y-173347757D01*
X146122000Y-35185335D02*
X146122000Y-55798013D01*
X146880000Y-56556013D02*
X146880000Y-162650257D01*
X148082000Y-33225335D02*
X146122000Y-35185335D01*
X264287000Y-60327135D02*
X264320511Y-60360646D01*
X264320511Y-60360646D02*
X264320511Y-104144342D01*
X263174238Y-105290615D02*
X262255000Y-105290615D01*
X264320511Y-104144342D02*
X263174238Y-105290615D01*
X264287000Y-57279135D02*
X264287000Y-60327135D01*
X304004489Y-50250858D02*
X309118000Y-55364369D01*
X312039000Y-65153135D02*
X312039000Y-66931135D01*
X304004489Y-43686624D02*
X304004489Y-50250858D01*
X310369760Y-68600375D02*
X309642600Y-68600375D01*
X309118000Y-55364369D02*
X309118000Y-62232135D01*
X312039000Y-66931135D02*
X310369760Y-68600375D01*
X309118000Y-62232135D02*
X312039000Y-65153135D01*
X299847000Y-39529135D02*
X304004489Y-43686624D01*
X139098511Y-52018986D02*
X144870000Y-57790475D01*
X138902000Y-34205335D02*
X138902000Y-41377901D01*
X132857500Y-205220122D02*
X132857500Y-207350000D01*
X131530500Y-203893122D02*
X132857500Y-205220122D01*
X144870000Y-159014013D02*
X131530500Y-172353513D01*
X138902000Y-41377901D02*
X139098511Y-41574412D01*
X137922000Y-33225335D02*
X138902000Y-34205335D01*
X144870000Y-57790475D02*
X144870000Y-159014013D01*
X131530500Y-172353513D02*
X131530500Y-203893122D01*
X139098511Y-41574412D02*
X139098511Y-52018986D01*
X132207000Y-172496579D02*
X132207000Y-203749378D01*
X132207000Y-203749378D02*
X133267622Y-204810000D01*
X133267622Y-204810000D02*
X134127500Y-204810000D01*
X139481520Y-34205815D02*
X139481520Y-36105655D01*
X140462000Y-33225335D02*
X139481520Y-34205815D01*
X139481520Y-36105655D02*
X139482000Y-36106135D01*
X145610000Y-159093579D02*
X132207000Y-172496579D01*
X139678031Y-51778262D02*
X145610000Y-57710231D01*
X139482000Y-36106135D02*
X139482000Y-41138336D01*
X145610000Y-57710231D02*
X145610000Y-159093579D01*
X139482000Y-41138336D02*
X139678031Y-41334367D01*
X139678031Y-41334367D02*
X139678031Y-51778262D01*
X262833960Y-161612175D02*
X262833960Y-122486175D01*
X271907000Y-52707135D02*
X271907000Y-49816135D01*
X258587000Y-165859135D02*
X262833960Y-161612175D01*
X266319000Y-58295135D02*
X271907000Y-52707135D01*
X262833960Y-122486175D02*
X266319000Y-119001135D01*
X266319000Y-119001135D02*
X266319000Y-58295135D01*
X270129000Y-55882135D02*
X266989480Y-59021655D01*
X266989480Y-119346655D02*
X263433480Y-122902655D01*
X266989480Y-59021655D02*
X266989480Y-119346655D01*
X263433480Y-122902655D02*
X263433480Y-163085615D01*
X263433480Y-163085615D02*
X266207000Y-165859135D01*
X166130256Y-131588391D02*
X169594533Y-131588391D01*
X155067000Y-61317000D02*
X155067000Y-88267135D01*
X169594533Y-131588391D02*
X170560555Y-130622369D01*
X155067000Y-88267135D02*
X163957000Y-97157135D01*
X172545767Y-130622369D02*
X173595278Y-131671880D01*
X170560555Y-130622369D02*
X172545767Y-130622369D01*
X154970000Y-61220000D02*
X155067000Y-61317000D01*
X163957000Y-129415135D02*
X166130256Y-131588391D01*
X163957000Y-97157135D02*
X163957000Y-129415135D01*
X276987000Y-50421135D02*
X276987000Y-49816135D01*
X277241000Y-60671000D02*
X274900000Y-58330000D01*
X277184960Y-161918235D02*
X277184960Y-63177175D01*
X277241000Y-63121135D02*
X277241000Y-60671000D01*
X277184960Y-63177175D02*
X277241000Y-63121135D01*
X274900000Y-52508135D02*
X276987000Y-50421135D01*
X274900000Y-58330000D02*
X274900000Y-52508135D01*
X273073300Y-166029895D02*
X277184960Y-161918235D01*
X280494500Y-49816135D02*
X279527000Y-49816135D01*
X283860000Y-53181635D02*
X280494500Y-49816135D01*
X280693300Y-166029895D02*
X277784480Y-163121075D01*
X277784480Y-63664615D02*
X283860000Y-57589095D01*
X283860000Y-57589095D02*
X283860000Y-53181635D01*
X277784480Y-163121075D02*
X277784480Y-63664615D01*
D63*
X91186000Y-42801135D02*
X95631000Y-42801135D01*
X96901000Y-41531135D02*
X96901000Y-40418135D01*
X39390400Y-63913535D02*
X39390400Y-69153535D01*
X89916000Y-44071135D02*
X91186000Y-42801135D01*
X95631000Y-42801135D02*
X96901000Y-41531135D01*
X45262800Y-58041135D02*
X88773000Y-58041135D01*
X88773000Y-58041135D02*
X89916000Y-56898135D01*
X45262800Y-58041135D02*
X39390400Y-63913535D01*
X89916000Y-56898135D02*
X89916000Y-44071135D01*
D61*
X291902040Y-120017135D02*
X291902040Y-140789095D01*
X291338000Y-141353135D02*
X291338000Y-164297872D01*
X292481000Y-67947135D02*
X292102031Y-68326104D01*
X292481000Y-65280135D02*
X292481000Y-67947135D01*
X285750040Y-167370375D02*
X284495000Y-168625415D01*
X291902040Y-140789095D02*
X291338000Y-141353135D01*
X288265497Y-167370375D02*
X285750040Y-167370375D01*
X292102031Y-119817144D02*
X291902040Y-120017135D01*
X291338000Y-164297872D02*
X288265497Y-167370375D01*
X292102031Y-68326104D02*
X292102031Y-119817144D01*
D63*
X73406000Y-60200135D02*
X90297000Y-60200135D01*
X103378000Y-41277135D02*
X103378000Y-40291135D01*
X66167000Y-67439135D02*
X44376800Y-67439135D01*
X92583000Y-49024135D02*
X98425000Y-43182135D01*
X90297000Y-60200135D02*
X92583000Y-57914135D01*
X66167000Y-67439135D02*
X73406000Y-60200135D01*
X98425000Y-43182135D02*
X101473000Y-43182135D01*
X44376800Y-67439135D02*
X39487400Y-72328535D01*
X92583000Y-57914135D02*
X92583000Y-49024135D01*
X101473000Y-43182135D02*
X103378000Y-41277135D01*
D61*
X307175500Y-155572633D02*
X299003238Y-163744895D01*
X299003238Y-163744895D02*
X298084000Y-163744895D01*
X303022000Y-54739135D02*
X307175500Y-58892635D01*
X307175500Y-58892635D02*
X307175500Y-155572633D01*
X209423000Y-30990135D02*
X207264000Y-30990135D01*
X174625000Y-53469135D02*
X174658511Y-53435624D01*
X199898000Y-38356135D02*
X199898000Y-53596135D01*
X199390000Y-54104135D02*
X175260000Y-54104135D01*
X199898000Y-53596135D02*
X199390000Y-54104135D01*
X207264000Y-30990135D02*
X199898000Y-38356135D01*
X174658511Y-53435624D02*
X174658511Y-40324646D01*
X174658511Y-40324646D02*
X173609000Y-39275135D01*
X175260000Y-54104135D02*
X174625000Y-53469135D01*
X272299980Y-63681124D02*
X273151480Y-62829624D01*
X274651169Y-62829624D02*
X275336000Y-63514455D01*
X275336000Y-105018375D02*
X273050000Y-107304375D01*
X273151480Y-62829624D02*
X274651169Y-62829624D01*
X275336000Y-63514455D02*
X275336000Y-105018375D01*
X224332400Y-86450495D02*
X222758000Y-88024895D01*
X229235000Y-54358135D02*
X229235000Y-54866135D01*
X224332400Y-59768735D02*
X224332400Y-86450495D01*
X229235000Y-54866135D02*
X224332400Y-59768735D01*
X289687000Y-61863298D02*
X289687000Y-49816135D01*
X280670000Y-107304375D02*
X285986780Y-101987595D01*
X285986780Y-101987595D02*
X285986780Y-65563518D01*
X285986780Y-65563518D02*
X289687000Y-61863298D01*
X234696000Y-69344135D02*
X234696000Y-62867135D01*
X243078000Y-54485135D02*
X249047000Y-54485135D01*
X231927520Y-72112615D02*
X234696000Y-69344135D01*
X231927520Y-86475375D02*
X231927520Y-72112615D01*
X230378000Y-88024895D02*
X231927520Y-86475375D01*
X249047000Y-54485135D02*
X249174000Y-54485135D01*
X234696000Y-62867135D02*
X243078000Y-54485135D01*
X289808031Y-105165124D02*
X289808031Y-66169135D01*
X292227000Y-63750166D02*
X292227000Y-49816135D01*
X287536300Y-107436855D02*
X289808031Y-105165124D01*
X289808031Y-66169135D02*
X292227000Y-63750166D01*
X186309000Y-44639135D02*
X190156000Y-44639135D01*
X190156000Y-44639135D02*
X191105000Y-43690135D01*
X259641723Y-50865646D02*
X260256511Y-50250858D01*
X237244300Y-88157375D02*
X238916511Y-86485164D01*
X259397489Y-50865646D02*
X259641723Y-50865646D01*
X253492000Y-56771135D02*
X259397489Y-50865646D01*
X244094000Y-56771135D02*
X253492000Y-56771135D01*
X239393340Y-61471795D02*
X244094000Y-56771135D01*
X239393340Y-70287180D02*
X239393340Y-61471795D01*
X238916511Y-70764009D02*
X239393340Y-70287180D01*
X260256511Y-50250858D02*
X260256511Y-46146184D01*
X260256511Y-46146184D02*
X261763560Y-44639135D01*
X238916511Y-86485164D02*
X238916511Y-70764009D01*
X294767000Y-61186157D02*
X294767000Y-49816135D01*
X297019489Y-105573666D02*
X297019489Y-63438646D01*
X297019489Y-63438646D02*
X294767000Y-61186157D01*
X295156300Y-107436855D02*
X297019489Y-105573666D01*
X179197000Y-105527107D02*
X171577000Y-97907107D01*
X171577000Y-69360551D02*
X153289000Y-51072551D01*
X173595278Y-118780391D02*
X179197000Y-113178669D01*
X179197000Y-113178669D02*
X179197000Y-105527107D01*
X171577000Y-97907107D02*
X171577000Y-69360551D01*
X153289000Y-51072551D02*
X153289000Y-44609135D01*
X263346455Y-45595135D02*
X264302455Y-44639135D01*
X244864300Y-88157375D02*
X242605480Y-85898555D01*
X262890000Y-45595135D02*
X263346455Y-45595135D01*
X242605480Y-62775615D02*
X244545960Y-60835135D01*
X244545960Y-60835135D02*
X252212234Y-60835135D01*
X242605480Y-85898555D02*
X242605480Y-62775615D01*
X262890000Y-50157369D02*
X262890000Y-45595135D01*
X252212234Y-60835135D02*
X262890000Y-50157369D01*
X304383520Y-107122312D02*
X304383520Y-64101655D01*
X297307000Y-57025135D02*
X297307000Y-49816135D01*
X300213040Y-108777335D02*
X302728497Y-108777335D01*
X304383520Y-64101655D02*
X297307000Y-57025135D01*
X302728497Y-108777335D02*
X304383520Y-107122312D01*
X298958000Y-110032375D02*
X300213040Y-108777335D01*
X157669500Y-57560000D02*
X157802015Y-57560000D01*
X175262224Y-114462391D02*
X173722278Y-114462391D01*
X177581480Y-112143135D02*
X175262224Y-114462391D01*
X177581480Y-105279465D02*
X177581480Y-112143135D01*
X170723480Y-98421465D02*
X177581480Y-105279465D01*
X157802015Y-57560000D02*
X170723480Y-70481465D01*
X170723480Y-70481465D02*
X170723480Y-98421465D01*
X254091520Y-61495849D02*
X265777489Y-49809880D01*
X254091520Y-85768095D02*
X254091520Y-61495849D01*
X265777489Y-49809880D02*
X265777489Y-45702996D01*
X265777489Y-45702996D02*
X266841350Y-44639135D01*
X251714000Y-88145615D02*
X254091520Y-85768095D01*
X310007000Y-59692135D02*
X315969489Y-65654624D01*
X315969489Y-65654624D02*
X315969489Y-102648604D01*
X315969489Y-102648604D02*
X313466238Y-105151855D01*
X169453480Y-72935615D02*
X169453480Y-99097615D01*
X173468278Y-103112413D02*
X173468278Y-106080391D01*
X169453480Y-99097615D02*
X173468278Y-103112413D01*
X157590000Y-60970000D02*
X157590000Y-61072135D01*
X157590000Y-61072135D02*
X169453480Y-72935615D01*
X257653489Y-63658646D02*
X257653489Y-86465104D01*
X262887969Y-57858633D02*
X262890000Y-57860664D01*
X262890000Y-58422135D02*
X257653489Y-63658646D01*
X262887969Y-55757166D02*
X262887969Y-57858633D01*
X257653489Y-86465104D02*
X259334000Y-88145615D01*
X262890000Y-57860664D02*
X262890000Y-58422135D01*
X265303000Y-53342135D02*
X262887969Y-55757166D01*
X170053000Y-72011135D02*
X156710000Y-58668135D01*
X176981960Y-105527795D02*
X170053000Y-98598835D01*
X156710000Y-55366135D02*
X151798511Y-50454646D01*
X176981960Y-109095135D02*
X176981960Y-105527795D01*
X156710000Y-58668135D02*
X156710000Y-55366135D01*
X173722278Y-110017391D02*
X176059704Y-110017391D01*
X151798511Y-40324646D02*
X150749000Y-39275135D01*
X170053000Y-98598835D02*
X170053000Y-72011135D01*
X151798511Y-50454646D02*
X151798511Y-40324646D01*
X176059704Y-110017391D02*
X176981960Y-109095135D01*
X265719480Y-57116655D02*
X270857489Y-51978646D01*
X262234440Y-142831735D02*
X262234440Y-122237845D01*
X262234440Y-122237845D02*
X265719480Y-118752805D01*
X270857489Y-51978646D02*
X270857489Y-45688646D01*
X258587000Y-146479175D02*
X262234440Y-142831735D01*
X265719480Y-118752805D02*
X265719480Y-57116655D01*
X270857489Y-45688646D02*
X271907000Y-44639135D01*
X188165489Y-205984511D02*
X193670000Y-200480000D01*
X188165489Y-209322011D02*
X188165489Y-205984511D01*
X193670000Y-200480000D02*
X202040000Y-200480000D01*
X186750000Y-210737500D02*
X188165489Y-209322011D01*
X108570744Y-142525879D02*
X106426000Y-144670623D01*
X106426000Y-152483769D02*
X108839000Y-154896769D01*
X108839000Y-158879135D02*
X112141000Y-162181135D01*
X113663000Y-168021135D02*
X112141000Y-166499135D01*
X112141000Y-166499135D02*
X112141000Y-162943135D01*
X106426000Y-144670623D02*
X106426000Y-152483769D01*
X113663000Y-170969135D02*
X113663000Y-168021135D01*
X108839000Y-154896769D02*
X108839000Y-158879135D01*
X112141000Y-162181135D02*
X112141000Y-162943135D01*
X43815000Y-163832135D02*
X25273000Y-145290135D01*
X25019000Y-140983369D02*
X25019000Y-123065135D01*
X25019000Y-123065135D02*
X25077000Y-123065135D01*
X25273000Y-141237369D02*
X25019000Y-140983369D01*
X58420000Y-163832135D02*
X43815000Y-163832135D01*
X25077000Y-123065135D02*
X26991000Y-121151135D01*
X25273000Y-145290135D02*
X25273000Y-141237369D01*
X19558000Y-116080135D02*
X26991000Y-116080135D01*
X66899000Y-168531135D02*
X42545000Y-168531135D01*
X42545000Y-168531135D02*
X16764000Y-142750135D01*
X16764000Y-142750135D02*
X16764000Y-118874135D01*
X16764000Y-118874135D02*
X19558000Y-116080135D01*
X140462000Y-160020000D02*
X141605000Y-158877000D01*
X141605000Y-158877000D02*
X141605000Y-120981623D01*
X141605000Y-120981623D02*
X142920744Y-119665879D01*
X66899000Y-171833135D02*
X43561000Y-171833135D01*
X15494000Y-117223135D02*
X19177000Y-113540135D01*
X15494000Y-143766135D02*
X15494000Y-117223135D01*
X43561000Y-171833135D02*
X15494000Y-143766135D01*
X44547000Y-80758135D02*
X38617400Y-80758135D01*
X38617400Y-80758135D02*
X38150800Y-80291535D01*
X38150800Y-76967135D02*
X39487400Y-75630535D01*
X38150800Y-80291535D02*
X38150800Y-76967135D01*
X19177000Y-113540135D02*
X26991000Y-113540135D01*
X417068000Y-172466000D02*
X417068000Y-169164000D01*
X415033865Y-174500135D02*
X417068000Y-172466000D01*
X338089000Y-166738135D02*
X345851000Y-174500135D01*
X417068000Y-169164000D02*
X416560000Y-168656000D01*
X416560000Y-168656000D02*
X414969000Y-168656000D01*
X345851000Y-174500135D02*
X415033865Y-174500135D01*
X338216000Y-140957135D02*
X339727135Y-139446000D01*
X411413000Y-139446000D02*
X415223000Y-135636000D01*
X339727135Y-139446000D02*
X411413000Y-139446000D01*
X413512000Y-169672000D02*
X413512000Y-167513000D01*
X413512000Y-167513000D02*
X414909000Y-166116000D01*
X346964000Y-170690135D02*
X412493865Y-170690135D01*
X412493865Y-170690135D02*
X413512000Y-169672000D01*
X340472000Y-164198135D02*
X346964000Y-170690135D01*
X414909000Y-166116000D02*
X414969000Y-166116000D01*
X338089000Y-164198135D02*
X340472000Y-164198135D01*
X399042646Y-137026489D02*
X401703135Y-134366000D01*
X338216000Y-138417135D02*
X339606646Y-137026489D01*
X339606646Y-137026489D02*
X399042646Y-137026489D01*
X413953000Y-134366000D02*
X415223000Y-133096000D01*
X401703135Y-134366000D02*
X413953000Y-134366000D01*
X338089000Y-161658135D02*
X369443157Y-161658135D01*
X370211511Y-162426489D02*
X413705511Y-162426489D01*
X369443157Y-161658135D02*
X370211511Y-162426489D01*
X413705511Y-162426489D02*
X415096000Y-161036000D01*
X342265000Y-134749135D02*
X376797966Y-134749135D01*
X381656742Y-134855646D02*
X382025899Y-134486489D01*
X413826000Y-131826000D02*
X415096000Y-130556000D01*
X376904477Y-134855646D02*
X381656742Y-134855646D01*
X338216000Y-135877135D02*
X341137000Y-135877135D01*
X341137000Y-135877135D02*
X342265000Y-134749135D01*
X399544135Y-131826000D02*
X413826000Y-131826000D01*
X376797966Y-134749135D02*
X376904477Y-134855646D01*
X396883646Y-134486489D02*
X399544135Y-131826000D01*
X382025899Y-134486489D02*
X396883646Y-134486489D01*
X382040188Y-159766000D02*
X413699000Y-159766000D01*
X413699000Y-159766000D02*
X414969000Y-158496000D01*
X338089000Y-159118135D02*
X381392323Y-159118135D01*
X381392323Y-159118135D02*
X382040188Y-159766000D01*
X339994000Y-133337135D02*
X343410135Y-129921000D01*
X338216000Y-133337135D02*
X339994000Y-133337135D01*
X343410135Y-129921000D02*
X376174000Y-129921000D01*
X376688511Y-129406489D02*
X413578511Y-129406489D01*
X376174000Y-129921000D02*
X376688511Y-129406489D01*
X413578511Y-129406489D02*
X414969000Y-128016000D01*
X338089000Y-156578135D02*
X338736865Y-157226000D01*
X338736865Y-157226000D02*
X413699000Y-157226000D01*
X413699000Y-157226000D02*
X414969000Y-155956000D01*
X373888000Y-128780135D02*
X375922135Y-126746000D01*
X338216000Y-130797135D02*
X339613000Y-130797135D01*
X396868489Y-126866489D02*
X411165511Y-126866489D01*
X396748000Y-126746000D02*
X396868489Y-126866489D01*
X375922135Y-126746000D02*
X396748000Y-126746000D01*
X411165511Y-126866489D02*
X415096000Y-122936000D01*
X339613000Y-130797135D02*
X341630000Y-128780135D01*
X341630000Y-128780135D02*
X373888000Y-128780135D01*
X378818376Y-155216624D02*
X379349000Y-154686000D01*
X338089000Y-154038135D02*
X339267489Y-155216624D01*
X379349000Y-154686000D02*
X413699000Y-154686000D01*
X339267489Y-155216624D02*
X378818376Y-155216624D01*
X413699000Y-154686000D02*
X414969000Y-153416000D01*
X417957000Y-149606000D02*
X417957000Y-49278135D01*
X383419511Y-152266489D02*
X415296511Y-152266489D01*
X382270000Y-153416000D02*
X383419511Y-152266489D01*
X415296511Y-152266489D02*
X417957000Y-149606000D01*
X379031500Y-42864635D02*
X376174000Y-40007135D01*
X411543500Y-42864635D02*
X379031500Y-42864635D01*
X417957000Y-49278135D02*
X411543500Y-42864635D01*
X376174000Y-40007135D02*
X374142000Y-40007135D01*
X373032511Y-127476624D02*
X376176135Y-124333000D01*
X397645646Y-124326489D02*
X400185646Y-121786489D01*
X376176135Y-124333000D02*
X388860978Y-124333000D01*
X388867489Y-124326489D02*
X397645646Y-124326489D01*
X413705511Y-121786489D02*
X415096000Y-120396000D01*
X388860978Y-124333000D02*
X388867489Y-124326489D01*
X338216000Y-128257135D02*
X338996511Y-127476624D01*
X400185646Y-121786489D02*
X413705511Y-121786489D01*
X338996511Y-127476624D02*
X373032511Y-127476624D01*
X366771624Y-146945511D02*
X413578511Y-146945511D01*
X338089000Y-151498135D02*
X362219000Y-151498135D01*
X362219000Y-151498135D02*
X366771624Y-146945511D01*
X413578511Y-146945511D02*
X414969000Y-148336000D01*
X338990865Y-126492000D02*
X371654936Y-126492000D01*
X338216000Y-125717135D02*
X338990865Y-126492000D01*
X371654936Y-126492000D02*
X377827135Y-120319800D01*
X377827135Y-120319800D02*
X382270000Y-120319800D01*
X383743200Y-121412000D02*
X382219200Y-122936000D01*
X386334000Y-121412000D02*
X383743200Y-121412000D01*
X386715000Y-118872000D02*
X386715000Y-121031000D01*
X378206000Y-117729000D02*
X385572000Y-117729000D01*
X376186865Y-119748135D02*
X378206000Y-117729000D01*
X362473000Y-119748135D02*
X376186865Y-119748135D01*
X386715000Y-121031000D02*
X386334000Y-121412000D01*
X385572000Y-117729000D02*
X386715000Y-118872000D01*
X417195000Y-142748000D02*
X417195000Y-58549135D01*
X417195000Y-58549135D02*
X407540865Y-48895000D01*
X414969000Y-143256000D02*
X416687000Y-143256000D01*
X407540865Y-48895000D02*
X360682135Y-48895000D01*
X416687000Y-143256000D02*
X417195000Y-142748000D01*
X360682135Y-48895000D02*
X355869000Y-53708135D01*
X403225000Y-106428135D02*
X404241000Y-105412135D01*
X371348000Y-106428135D02*
X403225000Y-106428135D01*
X400456400Y-76733400D02*
X397971800Y-76733400D01*
X404241000Y-105412135D02*
X404241000Y-80518000D01*
X362473000Y-112128135D02*
X365648000Y-112128135D01*
X404241000Y-80518000D02*
X400456400Y-76733400D01*
X365648000Y-112128135D02*
X371348000Y-106428135D01*
X416433000Y-58803135D02*
X408367433Y-50737567D01*
X408367433Y-50737567D02*
X408051000Y-50421135D01*
X414969000Y-140716000D02*
X416052000Y-140716000D01*
X416052000Y-140716000D02*
X416433000Y-140335000D01*
X408367433Y-50737567D02*
X407820266Y-50190400D01*
X356628865Y-56248135D02*
X355869000Y-56248135D01*
X407820266Y-50190400D02*
X362686600Y-50190400D01*
X362686600Y-50190400D02*
X356628865Y-56248135D01*
X416433000Y-140335000D02*
X416433000Y-58803135D01*
X404495000Y-107444135D02*
X405638000Y-106301135D01*
X362473000Y-114668135D02*
X365902000Y-114668135D01*
X405638000Y-76329135D02*
X405382932Y-76074068D01*
X373126000Y-107444135D02*
X404495000Y-107444135D01*
X405382932Y-76074068D02*
X403502264Y-74193400D01*
X403502264Y-74193400D02*
X398022600Y-74193400D01*
X365902000Y-114668135D02*
X373126000Y-107444135D01*
X405382932Y-76074068D02*
X403733000Y-74424135D01*
X405638000Y-106301135D02*
X405638000Y-76329135D01*
X397129000Y-104521000D02*
X397971800Y-103678200D01*
X349252135Y-104521000D02*
X397129000Y-104521000D01*
X338709000Y-115064135D02*
X349252135Y-104521000D01*
X397971800Y-103678200D02*
X397971800Y-102133400D01*
X353251568Y-83376568D02*
X358075432Y-83376568D01*
X389336111Y-70403889D02*
X380047500Y-79692500D01*
X397971800Y-69113400D02*
X397971800Y-69515200D01*
X397971800Y-69515200D02*
X397083111Y-70403889D01*
X338470000Y-90411135D02*
X346217000Y-90411135D01*
X346217000Y-90411135D02*
X353251568Y-83376568D01*
X379076111Y-80663889D02*
X380047500Y-79692500D01*
X358075432Y-83376568D02*
X360788111Y-80663889D01*
X360788111Y-80663889D02*
X379076111Y-80663889D01*
X397083111Y-70403889D02*
X389336111Y-70403889D01*
X396621000Y-101600000D02*
X398022600Y-100198400D01*
X338709000Y-112524135D02*
X347619489Y-103613646D01*
X396621000Y-102325292D02*
X396621000Y-101600000D01*
X347619489Y-103613646D02*
X395332646Y-103613646D01*
X398022600Y-100198400D02*
X398022600Y-99593400D01*
X395332646Y-103613646D02*
X396621000Y-102325292D01*
X356299568Y-78677568D02*
X356725711Y-78251424D01*
X398022600Y-66649600D02*
X396808311Y-67863889D01*
X396808311Y-67863889D02*
X388574111Y-67863889D01*
X338470000Y-87871135D02*
X347106000Y-87871135D01*
X378317311Y-78120689D02*
X356856447Y-78120689D01*
X356856447Y-78120689D02*
X356299568Y-78677568D01*
X388574111Y-67863889D02*
X378317311Y-78120689D01*
X347106000Y-87871135D02*
X356299568Y-78677568D01*
X338709000Y-109984135D02*
X352789246Y-95903889D01*
X396551311Y-95903889D02*
X397941800Y-94513400D01*
X352789246Y-95903889D02*
X396551311Y-95903889D01*
X379333311Y-75580689D02*
X389631089Y-65282911D01*
X338470000Y-85331135D02*
X348630000Y-85331135D01*
X396950889Y-65282911D02*
X398073400Y-64160400D01*
X348630000Y-85331135D02*
X358380446Y-75580689D01*
X358380446Y-75580689D02*
X379333311Y-75580689D01*
X389631089Y-65282911D02*
X396950889Y-65282911D01*
X396828800Y-93243400D02*
X352909736Y-93243400D01*
X398022600Y-92049600D02*
X396828800Y-93243400D01*
X352909736Y-93243400D02*
X352045068Y-94108068D01*
X338709000Y-107444135D02*
X352045068Y-94108068D01*
X352045068Y-94108068D02*
X352911711Y-93241424D01*
X396830776Y-93241424D02*
X398022600Y-92049600D01*
X355869000Y-63868135D02*
X364731135Y-63868135D01*
X364731135Y-63868135D02*
X364871000Y-64008000D01*
X390180324Y-62763400D02*
X396752600Y-62763400D01*
X359666134Y-72136000D02*
X349011000Y-82791135D01*
X380586362Y-72357362D02*
X380140813Y-72802911D01*
X380140813Y-72802911D02*
X366172911Y-72802911D01*
X365506000Y-72136000D02*
X359666134Y-72136000D01*
X380040813Y-72902911D02*
X380586362Y-72357362D01*
X349011000Y-82791135D02*
X338470000Y-82791135D01*
X380586362Y-72357362D02*
X390180324Y-62763400D01*
X396752600Y-62763400D02*
X398022600Y-61493400D01*
X366172911Y-72802911D02*
X365506000Y-72136000D01*
X362303300Y-58828700D02*
X362262735Y-58788135D01*
X362262735Y-58788135D02*
X355869000Y-58788135D01*
X362303300Y-58828700D02*
X364942600Y-61468000D01*
X353030224Y-90582911D02*
X396949289Y-90582911D01*
X338709000Y-104904135D02*
X353030224Y-90582911D01*
X396949289Y-90582911D02*
X398022600Y-89509600D01*
X396808311Y-90723889D02*
X398022600Y-89509600D01*
X388594600Y-73431400D02*
X389123089Y-72902911D01*
X377359835Y-65423889D02*
X391831324Y-50952400D01*
X389123089Y-72902911D02*
X397378089Y-72902911D01*
X400431000Y-54533800D02*
X400431000Y-69723000D01*
X358885246Y-65423889D02*
X377359835Y-65423889D01*
X400431000Y-69723000D02*
X399796000Y-70358000D01*
X398022600Y-79095600D02*
X396930400Y-78003400D01*
X391831324Y-50952400D02*
X396849600Y-50952400D01*
X357901000Y-66408135D02*
X358885246Y-65423889D01*
X396930400Y-78003400D02*
X389356600Y-78003400D01*
X396849600Y-50952400D02*
X400431000Y-54533800D01*
X389356600Y-78003400D02*
X388594600Y-77241400D01*
X397378089Y-72902911D02*
X399897600Y-70383400D01*
X388594600Y-77241400D02*
X388594600Y-73431400D01*
X356631000Y-66408135D02*
X357901000Y-66408135D01*
X397971800Y-56413400D02*
X394182289Y-60202911D01*
X389885089Y-60202911D02*
X379584111Y-70503889D01*
X394182289Y-60202911D02*
X389885089Y-60202911D01*
X348757000Y-80251135D02*
X358204567Y-70803567D01*
X338470000Y-80251135D02*
X348757000Y-80251135D01*
X379584111Y-70503889D02*
X358504245Y-70503889D01*
X358204567Y-70803567D02*
X358394000Y-70614135D01*
X369290600Y-61874400D02*
X369290600Y-60761400D01*
X357058376Y-62517511D02*
X355869000Y-61328135D01*
X368647489Y-62517511D02*
X369290600Y-61874400D01*
X368647489Y-62517511D02*
X357058376Y-62517511D01*
X369290600Y-60761400D02*
X364993400Y-56464200D01*
X353030225Y-88042911D02*
X338709000Y-102364135D01*
X398022600Y-86893400D02*
X396873089Y-88042911D01*
X396873089Y-88042911D02*
X353030225Y-88042911D01*
X396732111Y-88183889D02*
X398022600Y-86893400D01*
X394282289Y-85502911D02*
X353030225Y-85502911D01*
X353030225Y-85502911D02*
X338709000Y-99824135D01*
X397971800Y-81813400D02*
X394282289Y-85502911D01*
X377600813Y-67722911D02*
X359888223Y-67722911D01*
X349900000Y-77711135D02*
X338470000Y-77711135D01*
X398022600Y-53873400D02*
X396773089Y-55122911D01*
X396773089Y-55122911D02*
X390200813Y-55122911D01*
X359888223Y-67722911D02*
X349900000Y-77711135D01*
X390200813Y-55122911D02*
X377600813Y-67722911D01*
X352553068Y-57786068D02*
X352650521Y-57688615D01*
X352650521Y-57688615D02*
X358617385Y-57688615D01*
X338470000Y-75171135D02*
X341582377Y-75171135D01*
X352298000Y-64455512D02*
X352298000Y-58041135D01*
X341582377Y-75171135D02*
X352298000Y-64455512D01*
X358617385Y-57688615D02*
X362458000Y-53848000D01*
X362458000Y-53848000D02*
X364942600Y-53848000D01*
X352298000Y-58041135D02*
X352553068Y-57786068D01*
X348615000Y-36070135D02*
X342011000Y-42674135D01*
X354173000Y-36070135D02*
X348615000Y-36070135D01*
X312229511Y-40578646D02*
X305976511Y-40578646D01*
X314325000Y-42674135D02*
X312229511Y-40578646D01*
X342011000Y-42674135D02*
X314325000Y-42674135D01*
X305976511Y-40578646D02*
X304927000Y-39529135D01*
X352333480Y-43273655D02*
X360332511Y-35274624D01*
X378015489Y-35274624D02*
X379065000Y-36324135D01*
X360332511Y-35274624D02*
X378015489Y-35274624D01*
X306516480Y-43273655D02*
X352333480Y-43273655D01*
X305054000Y-44736135D02*
X306516480Y-43273655D01*
X306417489Y-46781412D02*
X307095766Y-46103135D01*
X312039000Y-46103135D02*
X314198000Y-43944135D01*
X306417489Y-48452646D02*
X306417489Y-46781412D01*
X314198000Y-43944135D02*
X361947865Y-43944135D01*
X361947865Y-43944135D02*
X366873000Y-39019000D01*
X305054000Y-49816135D02*
X306417489Y-48452646D01*
X307095766Y-46103135D02*
X312039000Y-46103135D01*
X366873000Y-39019000D02*
X366873000Y-36324135D01*
X77986000Y-207294000D02*
X84720000Y-200560000D01*
X75044000Y-207294000D02*
X77986000Y-207294000D01*
X84720000Y-200560000D02*
X84720000Y-194290000D01*
X67932000Y-200690000D02*
X67932000Y-202976000D01*
X67932000Y-202976000D02*
X75181000Y-210225000D01*
X75181000Y-210225000D02*
X75181000Y-212127669D01*
X68694000Y-199928000D02*
X67932000Y-200690000D01*
X226822000Y-56009135D02*
X225679000Y-56009135D01*
X217449520Y-125394895D02*
X215900000Y-126944415D01*
X225679000Y-56009135D02*
X217449520Y-64238615D01*
X217449520Y-64238615D02*
X217449520Y-125394895D01*
X213741000Y-63412738D02*
X228536643Y-48617095D01*
X211709000Y-123515415D02*
X211709000Y-115633860D01*
X236474000Y-48617095D02*
X240030000Y-45061095D01*
X228536643Y-48617095D02*
X236474000Y-48617095D01*
X240030000Y-40007135D02*
X240508000Y-39529135D01*
X208280000Y-126944415D02*
X211709000Y-123515415D01*
X213741000Y-113601860D02*
X213741000Y-63412738D01*
X240508000Y-39529135D02*
X241401600Y-39529135D01*
X211709000Y-115633860D02*
X213741000Y-113601860D01*
X240030000Y-45061095D02*
X240030000Y-40007135D01*
X225618671Y-54993135D02*
X216789000Y-63822806D01*
X216789000Y-63822806D02*
X216789000Y-114175135D01*
X227457000Y-54993135D02*
X225618671Y-54993135D01*
X214346489Y-116617646D02*
X214346489Y-144676664D01*
X214346489Y-144676664D02*
X215900000Y-146230175D01*
X216789000Y-114175135D02*
X214346489Y-116617646D01*
X214990440Y-113388995D02*
X214990440Y-63011147D01*
X208280000Y-146230175D02*
X212547929Y-141962246D01*
X228784972Y-49216615D02*
X236874920Y-49216615D01*
X212547929Y-115831506D02*
X214990440Y-113388995D01*
X236874920Y-49216615D02*
X241452400Y-44639135D01*
X212547929Y-141962246D02*
X212547929Y-115831506D01*
X214990440Y-63011147D02*
X228784972Y-49216615D01*
X241330000Y-52453135D02*
X227244151Y-52453135D01*
X243967000Y-49816135D02*
X241330000Y-52453135D01*
X213746969Y-163404864D02*
X215900000Y-165557895D01*
X216189480Y-113885655D02*
X213746969Y-116328166D01*
X213746969Y-116328166D02*
X213746969Y-163404864D01*
X227244151Y-52453135D02*
X216189480Y-63507805D01*
X216189480Y-63507805D02*
X216189480Y-113885655D01*
X213147449Y-160690446D02*
X208280000Y-165557895D01*
X215589960Y-113637325D02*
X213147449Y-116079836D01*
X241427000Y-49816135D02*
X229033301Y-49816135D01*
X229033301Y-49816135D02*
X215589960Y-63259476D01*
X213147449Y-116079836D02*
X213147449Y-160690446D01*
X215589960Y-63259476D02*
X215589960Y-113637325D01*
X211507240Y-176405135D02*
X208280000Y-173177895D01*
X323312000Y-161673135D02*
X308580000Y-176405135D01*
X308580000Y-176405135D02*
X211507240Y-176405135D01*
X230386300Y-126944415D02*
X228570489Y-125128604D01*
X235966000Y-56263135D02*
X237617000Y-56263135D01*
X228570489Y-63658646D02*
X235966000Y-56263135D01*
X228570489Y-125128604D02*
X228570489Y-63658646D01*
X225531440Y-60728695D02*
X225531440Y-124179275D01*
X225531440Y-124179275D02*
X222766300Y-126944415D01*
X230251000Y-56390135D02*
X229870000Y-56390135D01*
X232029000Y-54612135D02*
X230251000Y-56390135D01*
X229870000Y-56390135D02*
X225531440Y-60728695D01*
X227970969Y-63115166D02*
X236220000Y-54866135D01*
X227970969Y-143947324D02*
X227970969Y-63115166D01*
X236220000Y-54866135D02*
X236855000Y-54866135D01*
X230386300Y-146362655D02*
X227970969Y-143947324D01*
X226130960Y-142997995D02*
X222766300Y-146362655D01*
X233299000Y-54485135D02*
X233299000Y-54739135D01*
X226130960Y-61907175D02*
X226130960Y-142997995D01*
X233299000Y-54739135D02*
X226130960Y-61907175D01*
X230378000Y-165714895D02*
X227371449Y-162708344D01*
X227371449Y-62618806D02*
X236140120Y-53850135D01*
X246761000Y-53850135D02*
X249047000Y-51564135D01*
X249047000Y-51564135D02*
X249047000Y-49816135D01*
X236140120Y-53850135D02*
X246761000Y-53850135D01*
X227371449Y-162708344D02*
X227371449Y-62618806D01*
X222758000Y-165714895D02*
X226771929Y-161700966D01*
X226771929Y-152275135D02*
X226730480Y-152233686D01*
X246507000Y-52580135D02*
X246507000Y-49816135D01*
X226730480Y-62323655D02*
X235966000Y-53088135D01*
X245999000Y-53088135D02*
X246507000Y-52580135D01*
X226771929Y-161700966D02*
X226771929Y-152275135D01*
X226730480Y-152233686D02*
X226730480Y-62323655D01*
X235966000Y-53088135D02*
X245999000Y-53088135D01*
X302230000Y-175262135D02*
X224685240Y-175262135D01*
X224685240Y-175262135D02*
X222758000Y-173334895D01*
X323439000Y-154053135D02*
X302230000Y-175262135D01*
X255290560Y-62223895D02*
X255290560Y-117730809D01*
X266192000Y-52199135D02*
X265315320Y-52199135D01*
X265315320Y-52199135D02*
X255290560Y-62223895D01*
X246019234Y-127002135D02*
X244856000Y-127002135D01*
X255290560Y-117730809D02*
X246019234Y-127002135D01*
X244667392Y-58170155D02*
X240629520Y-62208027D01*
X240629520Y-123608615D02*
X237236000Y-127002135D01*
X240629520Y-62208027D02*
X240629520Y-123608615D01*
X247650000Y-58170155D02*
X244667392Y-58170155D01*
X255905000Y-97792135D02*
X255905000Y-117964219D01*
X261759320Y-56644135D02*
X255890080Y-62513375D01*
X255890080Y-97777215D02*
X255905000Y-97792135D01*
X262088469Y-56644135D02*
X261759320Y-56644135D01*
X249809000Y-124208135D02*
X249842511Y-124241646D01*
X255890080Y-62513375D02*
X255890080Y-97777215D01*
X249842511Y-124241646D02*
X249842511Y-141364384D01*
X249809000Y-124060219D02*
X249809000Y-124208135D01*
X249842511Y-141364384D02*
X244856000Y-146350895D01*
X255905000Y-117964219D02*
X249809000Y-124060219D01*
X241229040Y-142357855D02*
X237236000Y-146350895D01*
X241229040Y-62456356D02*
X241229040Y-142357855D01*
X250571000Y-58170155D02*
X249467520Y-59273635D01*
X249467520Y-59273635D02*
X244411761Y-59273635D01*
X244411761Y-59273635D02*
X241229040Y-62456356D01*
X341757000Y-121033135D02*
X345567000Y-124843135D01*
X345567000Y-124843135D02*
X348458000Y-124843135D01*
X327415766Y-121033135D02*
X341757000Y-121033135D01*
X320931020Y-123954135D02*
X324494766Y-123954135D01*
X324494766Y-123954135D02*
X327415766Y-121033135D01*
X243048489Y-134383269D02*
X243048489Y-167653926D01*
X243048489Y-167653926D02*
X237251000Y-173451415D01*
X248158000Y-131193135D02*
X245928520Y-133422615D01*
X245928520Y-133422615D02*
X244009143Y-133422615D01*
X244009143Y-133422615D02*
X243048489Y-134383269D01*
X320675000Y-108333135D02*
X319532000Y-107190135D01*
X319532000Y-86616135D02*
X320802000Y-85346135D01*
X320802000Y-85346135D02*
X324470000Y-85346135D01*
X319532000Y-107190135D02*
X319532000Y-86616135D01*
X318643000Y-84457135D02*
X322834000Y-80266135D01*
X318643000Y-89918135D02*
X318643000Y-84457135D01*
X322834000Y-80266135D02*
X324470000Y-80266135D01*
X316992000Y-105793135D02*
X316992000Y-79250135D01*
X316992000Y-79250135D02*
X318531000Y-77711135D01*
X318531000Y-77711135D02*
X324470000Y-77711135D01*
X320929000Y-109730135D02*
X316992000Y-105793135D01*
X323469000Y-94236135D02*
X323596000Y-94363135D01*
X333756000Y-68201135D02*
X340614000Y-61343135D01*
X340614000Y-61343135D02*
X341824000Y-61343135D01*
X328994377Y-94363135D02*
X333756000Y-89601512D01*
X323596000Y-94363135D02*
X328994377Y-94363135D01*
X333756000Y-89601512D02*
X333756000Y-68201135D01*
X342933511Y-59852646D02*
X341884000Y-58803135D01*
X337628623Y-71376135D02*
X341757000Y-71376135D01*
X320931020Y-111000135D02*
X321255500Y-111324615D01*
X336042000Y-72962758D02*
X337628623Y-71376135D01*
X321255500Y-111324615D02*
X334320520Y-111324615D01*
X342933511Y-70199624D02*
X342933511Y-59852646D01*
X336042000Y-109603135D02*
X336042000Y-72962758D01*
X341757000Y-71376135D02*
X342933511Y-70199624D01*
X334320520Y-111324615D02*
X336042000Y-109603135D01*
X335155020Y-94490135D02*
X335155020Y-73001888D01*
X335155020Y-73001888D02*
X341733773Y-66423135D01*
X341733773Y-66423135D02*
X341854000Y-66423135D01*
X333431520Y-106244615D02*
X334355520Y-105320615D01*
X321239520Y-106244615D02*
X333431520Y-106244615D01*
X334355520Y-71411615D02*
X341884000Y-63883135D01*
X334355520Y-105320615D02*
X334355520Y-71411615D01*
X320681167Y-106802968D02*
X321239520Y-106244615D01*
X324201000Y-130812135D02*
X317754000Y-137259135D01*
X317754000Y-137259135D02*
X317754000Y-143004135D01*
X323766277Y-134401646D02*
X318553511Y-139614412D01*
X318553511Y-139614412D02*
X318553511Y-156555624D01*
X325471000Y-129542135D02*
X328168000Y-129542135D01*
X328168000Y-129542135D02*
X328168000Y-133987135D01*
X318553511Y-156555624D02*
X302768000Y-172341135D01*
X327753489Y-134401646D02*
X323766277Y-134401646D01*
X328168000Y-133987135D02*
X327753489Y-134401646D01*
X324201000Y-128272135D02*
X325471000Y-129542135D01*
X319801000Y-119748135D02*
X348443000Y-119748135D01*
X312674000Y-126875135D02*
X319801000Y-119748135D01*
X312674000Y-148465135D02*
X312674000Y-126875135D01*
X292481000Y-165610135D02*
X292501560Y-165589575D01*
X295016623Y-122811135D02*
X298196000Y-122811135D01*
X292501560Y-165589575D02*
X292501560Y-125326198D01*
X292501560Y-125326198D02*
X295016623Y-122811135D01*
X287559600Y-173649895D02*
X292481000Y-168728495D01*
X292481000Y-168728495D02*
X292481000Y-165610135D01*
X298196000Y-122811135D02*
X298323000Y-122684135D01*
X244460110Y-60073135D02*
X241935000Y-62598245D01*
X238097857Y-167030935D02*
X233780800Y-167030935D01*
X250827020Y-60073135D02*
X244460110Y-60073135D01*
X241935000Y-62598245D02*
X241935000Y-163193792D01*
X241935000Y-163193792D02*
X238097857Y-167030935D01*
X252730000Y-58170155D02*
X250827020Y-60073135D01*
X233780800Y-167030935D02*
X233665000Y-166915135D01*
X250444000Y-124273069D02*
X250444000Y-161748133D01*
X262088469Y-57787135D02*
X262052461Y-57787135D01*
X262052461Y-57787135D02*
X256489600Y-63349996D01*
X248696238Y-163495895D02*
X247777000Y-163495895D01*
X250444000Y-161748133D02*
X248696238Y-163495895D01*
X256540000Y-118177069D02*
X250444000Y-124273069D01*
X256540000Y-64949535D02*
X256540000Y-118177069D01*
X256489600Y-64899135D02*
X256540000Y-64949535D01*
X256489600Y-63349996D02*
X256489600Y-64899135D01*
X313863200Y-32103135D02*
X312597800Y-30837735D01*
X340741000Y-32103135D02*
X313863200Y-32103135D01*
X316635535Y-29340000D02*
X315137800Y-30837735D01*
X340644865Y-29340000D02*
X316635535Y-29340000D01*
X343408000Y-32103135D02*
X340644865Y-29340000D01*
X93599000Y-107649887D02*
X127177400Y-74071487D01*
X125349000Y-52538985D02*
X125349000Y-51945135D01*
X127177400Y-54367385D02*
X125349000Y-52538985D01*
X92833000Y-120021135D02*
X93599000Y-119255135D01*
X93599000Y-119255135D02*
X93599000Y-107649887D01*
X127177400Y-74071487D02*
X127177400Y-54367385D01*
X92833000Y-120021135D02*
X83761500Y-120021135D01*
X355869000Y-51168135D02*
X360174135Y-46863000D01*
X360174135Y-46863000D02*
X361569000Y-46863000D01*
X65532000Y-46103135D02*
X63119000Y-43690135D01*
X73602500Y-46103135D02*
X65532000Y-46103135D01*
X74867500Y-47368135D02*
X73602500Y-46103135D01*
X63119000Y-43690135D02*
X56769000Y-43690135D01*
X166910000Y-203270000D02*
X166910000Y-198920000D01*
X163747500Y-206432500D02*
X166910000Y-203270000D01*
X163530000Y-206432500D02*
X163747500Y-206432500D01*
X170212000Y-203938000D02*
X170212000Y-198920000D01*
X165717500Y-208432500D02*
X170212000Y-203938000D01*
X163530000Y-208432500D02*
X165717500Y-208432500D01*
D62*
X78943000Y-195363669D02*
X78943000Y-193513000D01*
X78943000Y-193513000D02*
X71620000Y-186190000D01*
X71620000Y-186190000D02*
X70220000Y-186190000D01*
D61*
X50673000Y-71249135D02*
X51054000Y-71249135D01*
X54356000Y-74551135D02*
X54356000Y-80520135D01*
X51054000Y-71249135D02*
X54356000Y-74551135D01*
M02*
