M48
; DRILL file {KiCad (6.0.1)} date Tue Mar  7 12:10:23 2023
; FORMAT={-:-/ absolute / metric / decimal}
; #@! TF.CreationDate,2023-03-07T12:10:23-05:00
; #@! TF.GenerationSoftware,Kicad,Pcbnew,(6.0.1)
; #@! TF.FileFunction,Plated,1,4,PTH
FMAT,2
METRIC
; #@! TA.AperFunction,Plated,PTH,ViaDrill
T1C0.400
; #@! TA.AperFunction,Plated,PTH,ComponentDrill
T2C0.600
; #@! TA.AperFunction,Plated,PTH,ComponentDrill
T3C0.700
; #@! TA.AperFunction,Plated,PTH,ComponentDrill
T4C0.750
; #@! TA.AperFunction,Plated,PTH,ComponentDrill
T5C0.760
; #@! TA.AperFunction,Plated,PTH,ComponentDrill
T6C0.800
; #@! TA.AperFunction,Plated,PTH,ComponentDrill
T7C0.890
; #@! TA.AperFunction,Plated,PTH,ComponentDrill
T8C0.900
; #@! TA.AperFunction,Plated,PTH,ComponentDrill
T9C0.920
; #@! TA.AperFunction,Plated,PTH,ComponentDrill
T10C1.000
; #@! TA.AperFunction,Plated,PTH,ComponentDrill
T11C1.020
; #@! TA.AperFunction,Plated,PTH,ComponentDrill
T12C1.100
; #@! TA.AperFunction,Plated,PTH,ComponentDrill
T13C1.150
; #@! TA.AperFunction,Plated,PTH,ComponentDrill
T14C1.200
; #@! TA.AperFunction,Plated,PTH,ComponentDrill
T15C1.300
; #@! TA.AperFunction,Plated,PTH,ComponentDrill
T16C1.350
; #@! TA.AperFunction,Plated,PTH,ComponentDrill
T17C1.397
; #@! TA.AperFunction,Plated,PTH,ComponentDrill
T18C1.700
; #@! TA.AperFunction,Plated,PTH,ComponentDrill
T19C1.900
; #@! TA.AperFunction,Plated,PTH,ComponentDrill
T20C2.010
; #@! TA.AperFunction,Plated,PTH,ComponentDrill
T21C2.330
; #@! TA.AperFunction,Plated,PTH,ComponentDrill
T22C2.800
; #@! TA.AperFunction,Plated,PTH,ComponentDrill
T23C3.200
%
G90
G05
T1
X22.129Y-71.115
X22.947Y-81.727
X23.709Y-70.043
X24.979Y-81.473
X53.213Y-77.98
X54.356Y-80.52
X54.737Y-83.568
X57.531Y-75.059
X58.42Y-163.832
X60.706Y-77.599
X67.932Y-207.548
X68.694Y-199.928
X75.044Y-207.294
X79.63Y-79.39
X85.343Y-207.998
X92.943Y-136.539
X114.91Y-69.69
X118.37Y-57.03
X119.999Y-55.517
X120.523Y-52.453
X125.349Y-51.945
X128.143Y-52.199
X130.683Y-51.691
X133.477Y-53.469
X147.193Y-52.707
X150.0Y-62.48
X151.23Y-65.78
X152.07Y-61.64
X153.97Y-63.15
X154.97Y-61.22
X157.59Y-60.97
X157.669Y-57.56
X209.55Y-59.184
X211.074Y-58.803
X215.519Y-120.271
X216.535Y-116.461
X226.822Y-56.009
X227.457Y-54.993
X229.235Y-54.358
X230.505Y-54.612
X232.029Y-54.612
X233.299Y-54.485
X236.855Y-54.866
X236.855Y-57.152
X237.617Y-56.263
X244.983Y-63.629
X247.65Y-58.17
X248.158Y-131.193
X249.174Y-54.485
X250.571Y-58.17
X252.73Y-58.17
X252.857Y-54.866
X252.984Y-63.502
X262.088Y-56.644
X262.088Y-57.787
X264.287Y-57.279
X265.303Y-53.342
X266.192Y-52.199
X266.954Y-52.961
X270.129Y-55.882
X271.145Y-54.739
X272.288Y-55.374
X272.3Y-63.681
X273.431Y-63.681
X290.703Y-68.201
X291.465Y-66.804
X292.481Y-65.28
X298.323Y-122.684
X300.101Y-54.866
X302.768Y-172.341
X303.022Y-54.739
X303.149Y-56.517
X310.007Y-59.692
X312.674Y-148.465
X317.754Y-143.004
X318.643Y-89.918
X320.675Y-108.333
X320.681Y-106.803
X320.929Y-109.73
X320.931Y-111.0
X320.931Y-123.954
X323.469Y-94.236
X335.155Y-94.49
T2
X28.868Y-169.801
X30.368Y-169.801
X60.349Y-93.855
X61.849Y-93.855
X102.02Y-166.245
X103.52Y-166.245
X165.867Y-97.56
X167.367Y-97.56
X203.566Y-68.074
X205.066Y-68.074
X370.967Y-114.3
X370.991Y-176.151
X372.467Y-114.3
X372.491Y-176.151
T3
X20.747Y-137.026
X20.747Y-141.471
X26.462Y-149.091
X37.973Y-94.109
X43.053Y-94.109
X48.133Y-94.109
X55.499Y-93.855
X61.65Y-200.7
X61.729Y-204.762
X62.357Y-49.913
X62.357Y-53.977
X65.253Y-207.528
X67.14Y-191.18
X87.744Y-200.69
X87.884Y-40.894
X88.413Y-207.338
X92.837Y-44.96
X109.347Y-145.036
X109.744Y-151.162
X110.333Y-127.189
X112.141Y-157.228
X113.663Y-170.969
X116.332Y-65.28
X120.66Y-188.92
X121.793Y-100.459
X126.873Y-100.459
X131.953Y-100.459
X140.33Y-191.27
X140.584Y-195.588
X140.589Y-66.169
X144.706Y-193.579
X144.706Y-197.516
X151.467Y-124.433
X164.69Y-91.23
X167.28Y-87.47
X172.168Y-124.941
X193.548Y-82.425
X203.708Y-73.535
X208.509Y-157.883
X208.534Y-178.506
X208.763Y-138.655
X210.185Y-68.455
X215.367Y-157.883
X215.646Y-178.379
X215.875Y-138.655
X222.606Y-158.016
X222.885Y-178.512
X222.936Y-119.388
X223.012Y-99.844
X223.19Y-80.608
X223.368Y-138.788
X229.845Y-158.016
X229.87Y-99.844
X229.87Y-178.512
X230.048Y-119.261
X230.302Y-80.608
X230.48Y-138.788
X237.109Y-99.977
X237.287Y-119.394
X237.592Y-158.016
X237.719Y-138.783
X237.795Y-80.74
X244.272Y-119.394
X244.323Y-158.016
X244.348Y-99.977
X244.704Y-138.788
X244.907Y-80.74
X252.095Y-99.977
X252.146Y-80.735
X258.521Y-158.162
X258.775Y-139.138
X258.826Y-99.977
X258.841Y-178.755
X259.131Y-80.74
X265.379Y-158.162
X265.887Y-139.138
X265.953Y-178.628
X272.618Y-158.295
X272.618Y-177.675
X273.228Y-119.25
X273.304Y-99.705
X273.38Y-139.27
X273.482Y-80.469
X276.276Y-177.675
X279.857Y-158.295
X280.492Y-139.27
X280.594Y-80.469
X280.594Y-119.123
X280.67Y-99.705
X287.401Y-99.838
X287.579Y-119.255
X287.604Y-158.295
X287.731Y-139.265
X288.087Y-80.601
X294.335Y-158.295
X294.564Y-119.255
X294.64Y-99.838
X294.716Y-139.27
X295.199Y-80.601
X302.387Y-45.214
X302.387Y-99.838
X302.438Y-80.596
X302.641Y-51.818
X302.768Y-39.372
X309.118Y-99.838
X309.423Y-80.601
X315.722Y-41.277
X316.738Y-38.102
X343.535Y-47.754
X350.266Y-106.174
X352.425Y-100.078
X355.981Y-98.552
X358.013Y-101.854
X361.569Y-46.863
X364.719Y-101.879
X366.903Y-107.317
X370.967Y-151.384
X372.999Y-160.274
X372.999Y-166.751
X377.673Y-45.491
X382.626Y-45.618
X383.519Y-168.656
X387.452Y-45.618
X395.097Y-113.538
X399.288Y-113.538
X403.479Y-113.538
T4
X52.98Y-36.54
X52.98Y-37.81
X52.98Y-39.08
X110.871Y-162.943
X112.141Y-162.943
X113.411Y-162.943
X145.923Y-175.643
X145.923Y-176.913
X145.923Y-178.183
X355.6Y-30.355
X355.6Y-31.625
X355.6Y-32.895
X368.025Y-30.355
X368.025Y-31.625
X368.025Y-32.895
X380.725Y-30.355
X380.725Y-31.625
X380.725Y-32.895
T5
X132.857Y-207.35
X134.127Y-204.81
X135.398Y-207.35
X136.667Y-204.81
X137.938Y-207.35
X139.207Y-204.81
X140.477Y-207.35
X141.748Y-204.81
T6
X17.272Y-32.26
X17.272Y-44.96
X18.161Y-111.127
X18.161Y-123.827
X22.225Y-121.033
X22.225Y-133.733
X24.384Y-32.514
X24.384Y-45.214
X47.93Y-42.92
X47.93Y-55.62
X52.578Y-43.69
X52.578Y-51.31
X56.769Y-43.69
X56.769Y-51.31
X62.357Y-33.784
X62.357Y-46.484
X73.015Y-169.791
X73.015Y-172.331
X73.015Y-174.871
X73.015Y-177.411
X79.375Y-48.006
X79.375Y-55.626
X79.756Y-30.355
X79.756Y-43.055
X80.635Y-169.791
X80.635Y-172.331
X80.635Y-174.871
X80.635Y-177.411
X83.566Y-44.325
X83.566Y-51.945
X87.63Y-44.325
X87.63Y-51.945
X94.663Y-199.252
X94.663Y-206.872
X99.56Y-193.5
X99.56Y-201.12
X104.188Y-193.537
X104.188Y-206.237
X105.029Y-123.192
X105.029Y-135.892
X105.283Y-140.337
X105.283Y-153.037
X110.03Y-193.41
X110.03Y-206.11
X116.126Y-190.87
X116.126Y-198.49
X120.25Y-198.8
X120.25Y-206.42
X140.462Y-160.02
X140.462Y-172.72
X152.4Y-162.433
X152.4Y-175.133
X203.327Y-111.506
X203.327Y-124.206
X272.733Y-194.549
X272.733Y-207.249
X330.469Y-148.958
X330.469Y-151.498
X330.469Y-154.038
X330.469Y-156.578
X330.469Y-159.118
X330.469Y-161.658
X330.469Y-164.198
X330.469Y-166.738
X330.596Y-123.177
X330.596Y-125.717
X330.596Y-128.257
X330.596Y-130.797
X330.596Y-133.337
X330.596Y-135.877
X330.596Y-138.417
X330.596Y-140.957
X330.85Y-72.631
X330.85Y-75.171
X330.85Y-77.711
X330.85Y-80.251
X330.85Y-82.791
X330.85Y-85.331
X330.85Y-87.871
X330.85Y-90.411
X331.089Y-97.284
X331.089Y-99.824
X331.089Y-102.364
X331.089Y-104.904
X331.089Y-107.444
X331.089Y-109.984
X331.089Y-112.524
X331.089Y-115.064
X338.089Y-148.958
X338.089Y-151.498
X338.089Y-154.038
X338.089Y-156.578
X338.089Y-159.118
X338.089Y-161.658
X338.089Y-164.198
X338.089Y-166.738
X338.216Y-123.177
X338.216Y-125.717
X338.216Y-128.257
X338.216Y-130.797
X338.216Y-133.337
X338.216Y-135.877
X338.216Y-138.417
X338.216Y-140.957
X338.47Y-72.631
X338.47Y-75.171
X338.47Y-77.711
X338.47Y-80.251
X338.47Y-82.791
X338.47Y-85.331
X338.47Y-87.871
X338.47Y-90.411
X338.709Y-97.284
X338.709Y-99.824
X338.709Y-102.364
X338.709Y-104.904
X338.709Y-107.444
X338.709Y-109.984
X338.709Y-112.524
X338.709Y-115.064
X348.249Y-48.628
X348.249Y-51.168
X348.249Y-53.708
X348.249Y-56.248
X348.249Y-58.788
X348.249Y-61.328
X348.249Y-63.868
X348.249Y-66.408
X349.25Y-27.053
X349.25Y-39.753
X354.853Y-107.048
X354.853Y-109.588
X354.853Y-112.128
X354.853Y-114.668
X354.853Y-117.208
X354.853Y-119.748
X354.853Y-122.288
X354.853Y-124.828
X355.869Y-48.628
X355.869Y-51.168
X355.869Y-53.708
X355.869Y-56.248
X355.869Y-58.788
X355.869Y-61.328
X355.869Y-63.868
X355.869Y-66.408
X361.696Y-27.307
X361.696Y-40.007
X361.696Y-61.214
X361.696Y-73.914
X361.798Y-84.353
X361.798Y-97.053
X362.473Y-107.048
X362.473Y-109.588
X362.473Y-112.128
X362.473Y-114.668
X362.473Y-117.208
X362.473Y-119.748
X362.473Y-122.288
X362.473Y-124.828
X374.142Y-27.434
X374.142Y-40.134
X376.301Y-132.969
X376.301Y-145.669
X378.236Y-151.13
X378.236Y-163.83
T7
X330.04Y-203.02
X332.58Y-203.02
X355.47Y-202.88
X358.01Y-202.88
X381.13Y-203.03
X383.67Y-203.03
X406.22Y-202.97
X408.76Y-202.97
T8
X16.632Y-26.799
X19.172Y-26.799
X23.744Y-26.799
X26.284Y-26.799
X26.991Y-100.831
X26.991Y-103.38
X26.991Y-108.451
X26.991Y-110.991
X26.991Y-113.54
X26.991Y-116.08
X26.991Y-121.151
X26.991Y-123.691
X26.991Y-125.986
X26.991Y-128.78
X26.991Y-133.86
X26.991Y-136.391
X26.991Y-141.471
X28.23Y-39.55
X28.291Y-47.627
X29.591Y-100.831
X29.591Y-103.38
X29.591Y-108.451
X29.591Y-110.991
X29.591Y-113.54
X29.591Y-116.08
X29.591Y-121.151
X29.591Y-123.691
X29.591Y-125.986
X29.591Y-128.78
X29.591Y-133.86
X29.591Y-136.391
X29.591Y-141.471
X30.83Y-39.55
X30.891Y-47.627
X36.79Y-69.154
X36.887Y-72.329
X36.887Y-75.631
X36.887Y-78.933
X36.887Y-83.505
X39.39Y-69.154
X39.487Y-72.329
X39.487Y-75.631
X39.487Y-78.933
X39.487Y-83.505
X44.293Y-71.868
X44.42Y-76.313
X44.547Y-80.758
X44.547Y-83.695
X46.893Y-71.868
X47.02Y-76.313
X47.147Y-80.758
X47.147Y-83.695
X58.36Y-100.84
X58.36Y-103.38
X58.36Y-108.46
X58.36Y-110.991
X58.36Y-113.531
X58.36Y-116.08
X58.36Y-121.16
X58.36Y-123.691
X58.36Y-126.24
X58.36Y-128.771
X58.36Y-133.86
X58.36Y-136.4
X58.36Y-138.94
X58.36Y-141.471
X58.36Y-146.551
X58.36Y-149.091
X60.96Y-100.84
X60.96Y-103.38
X60.96Y-108.46
X60.96Y-110.991
X60.96Y-113.531
X60.96Y-116.08
X60.96Y-121.16
X60.96Y-123.691
X60.96Y-126.24
X60.96Y-128.771
X60.96Y-133.86
X60.96Y-136.4
X60.96Y-138.94
X60.96Y-141.471
X60.96Y-146.551
X60.96Y-149.091
X65.82Y-194.4
X66.436Y-178.691
X66.645Y-175.389
X66.899Y-168.531
X66.899Y-171.833
X68.42Y-194.4
X69.036Y-178.691
X69.245Y-175.389
X69.499Y-168.531
X69.499Y-171.833
X70.22Y-183.59
X70.22Y-186.19
X70.358Y-53.467
X72.958Y-53.467
X82.12Y-194.29
X84.72Y-194.29
X84.978Y-169.65
X85.06Y-173.103
X85.06Y-176.913
X85.949Y-33.149
X86.33Y-36.324
X87.578Y-169.65
X87.66Y-173.103
X87.66Y-176.913
X88.549Y-33.149
X88.93Y-36.324
X93.472Y-37.818
X93.472Y-40.418
X95.21Y-70.67
X95.21Y-73.23
X95.21Y-75.97
X95.21Y-78.86
X95.21Y-81.59
X95.22Y-83.96
X95.29Y-86.57
X96.901Y-37.818
X96.901Y-40.418
X97.81Y-70.67
X97.81Y-73.23
X97.81Y-75.97
X97.81Y-78.86
X97.81Y-81.59
X97.82Y-83.96
X97.89Y-86.57
X100.203Y-37.818
X100.203Y-40.418
X103.378Y-37.691
X103.378Y-40.291
X106.807Y-40.612
X106.807Y-43.212
X108.571Y-106.966
X108.571Y-109.506
X108.571Y-114.586
X108.571Y-117.126
X108.571Y-119.666
X108.571Y-122.206
X108.571Y-124.746
X108.571Y-129.826
X108.571Y-132.366
X108.571Y-134.906
X108.571Y-139.986
X108.571Y-142.526
X108.571Y-147.606
X109.728Y-41.882
X109.728Y-44.482
X110.109Y-36.675
X110.109Y-39.275
X111.171Y-106.966
X111.171Y-109.506
X111.171Y-114.586
X111.171Y-117.126
X111.171Y-119.666
X111.171Y-122.206
X111.171Y-124.746
X111.171Y-129.826
X111.171Y-132.366
X111.171Y-134.906
X111.171Y-139.986
X111.171Y-142.526
X111.171Y-147.606
X112.649Y-36.675
X112.649Y-39.275
X112.649Y-42.009
X112.649Y-44.609
X115.189Y-36.675
X115.189Y-39.275
X115.189Y-42.009
X115.189Y-44.609
X115.189Y-47.343
X115.189Y-49.943
X115.666Y-201.758
X115.666Y-204.358
X117.729Y-36.675
X117.729Y-39.275
X117.729Y-42.009
X117.729Y-44.609
X117.729Y-47.343
X117.729Y-49.943
X120.269Y-36.675
X120.269Y-39.275
X120.269Y-42.009
X120.269Y-44.609
X120.269Y-47.343
X120.269Y-49.943
X120.71Y-192.29
X120.71Y-194.89
X122.809Y-36.675
X122.809Y-39.275
X122.809Y-42.009
X122.809Y-44.609
X122.809Y-47.343
X122.809Y-49.943
X125.349Y-36.675
X125.349Y-39.275
X125.349Y-42.009
X125.349Y-44.609
X125.349Y-47.343
X125.349Y-49.943
X127.889Y-36.675
X127.889Y-39.275
X127.889Y-42.009
X127.889Y-44.609
X127.889Y-47.343
X127.889Y-49.943
X130.429Y-36.675
X130.429Y-39.275
X130.429Y-42.009
X130.429Y-44.609
X130.429Y-47.343
X130.429Y-49.943
X132.969Y-36.675
X132.969Y-39.275
X132.969Y-42.009
X132.969Y-44.609
X132.969Y-47.343
X132.969Y-49.943
X135.509Y-36.675
X135.509Y-39.275
X135.509Y-42.009
X135.509Y-44.609
X135.509Y-47.343
X135.509Y-49.943
X137.795Y-36.675
X137.795Y-39.275
X138.049Y-42.009
X138.049Y-44.609
X140.273Y-126.119
X140.321Y-106.966
X140.321Y-109.506
X140.321Y-114.586
X140.321Y-117.126
X140.321Y-119.666
X140.321Y-122.206
X140.321Y-129.826
X140.321Y-132.366
X140.321Y-134.906
X140.321Y-139.986
X140.321Y-142.526
X140.321Y-145.066
X140.321Y-147.606
X140.321Y-152.686
X140.321Y-155.226
X141.351Y-36.675
X141.351Y-39.275
X141.605Y-47.343
X141.605Y-49.943
X142.873Y-126.119
X142.921Y-106.966
X142.921Y-109.506
X142.921Y-114.586
X142.921Y-117.126
X142.921Y-119.666
X142.921Y-122.206
X142.921Y-129.826
X142.921Y-132.366
X142.921Y-134.906
X142.921Y-139.986
X142.921Y-142.526
X142.921Y-145.066
X142.921Y-147.606
X142.921Y-152.686
X142.921Y-155.226
X144.399Y-36.675
X144.399Y-39.275
X144.399Y-42.009
X144.399Y-44.609
X144.399Y-47.343
X144.399Y-49.943
X147.955Y-42.009
X147.955Y-44.609
X147.955Y-47.343
X147.955Y-49.943
X148.209Y-36.675
X148.209Y-39.275
X150.137Y-127.989
X150.137Y-131.037
X150.137Y-134.53
X150.137Y-138.022
X150.261Y-143.928
X150.261Y-148.373
X150.261Y-152.818
X150.261Y-156.628
X150.391Y-106.08
X150.391Y-110.652
X150.391Y-115.097
X150.391Y-118.78
X150.749Y-36.675
X150.749Y-39.275
X150.749Y-42.009
X150.749Y-44.609
X150.749Y-47.343
X150.749Y-49.943
X152.737Y-127.989
X152.737Y-131.037
X152.737Y-134.53
X152.737Y-138.022
X152.861Y-143.928
X152.861Y-148.373
X152.861Y-152.818
X152.861Y-156.628
X152.991Y-106.08
X152.991Y-110.652
X152.991Y-115.097
X152.991Y-118.78
X153.289Y-36.675
X153.289Y-39.275
X153.289Y-42.009
X153.289Y-44.609
X156.083Y-36.675
X156.083Y-39.275
X156.083Y-42.009
X156.083Y-44.609
X158.369Y-36.675
X158.369Y-39.275
X158.369Y-42.009
X158.369Y-44.609
X158.369Y-47.343
X158.369Y-49.943
X160.909Y-36.675
X160.909Y-39.275
X160.909Y-42.009
X160.909Y-44.609
X160.909Y-47.343
X160.909Y-49.943
X163.165Y-71.25
X163.44Y-74.41
X163.44Y-77.5
X163.44Y-80.59
X163.44Y-83.73
X163.449Y-36.645
X163.449Y-39.245
X163.449Y-42.009
X163.449Y-44.609
X163.449Y-47.343
X163.449Y-49.943
X165.765Y-71.25
X165.989Y-36.675
X165.989Y-39.275
X165.989Y-42.009
X165.989Y-44.609
X165.989Y-47.343
X165.989Y-49.943
X166.04Y-74.41
X166.04Y-77.5
X166.04Y-80.59
X166.04Y-83.73
X166.91Y-196.32
X166.91Y-198.92
X168.529Y-36.675
X168.529Y-39.275
X168.529Y-42.009
X168.529Y-44.609
X168.529Y-47.343
X168.529Y-49.943
X170.212Y-196.32
X170.212Y-198.92
X170.868Y-106.08
X170.992Y-143.928
X170.992Y-147.738
X170.992Y-152.183
X170.992Y-156.628
X170.995Y-118.78
X170.995Y-128.624
X170.995Y-131.672
X170.995Y-134.974
X170.995Y-138.022
X171.069Y-36.675
X171.069Y-39.275
X171.069Y-42.009
X171.069Y-44.609
X171.069Y-47.343
X171.069Y-49.943
X171.122Y-110.017
X171.122Y-114.462
X173.468Y-106.08
X173.592Y-143.928
X173.592Y-147.738
X173.592Y-152.183
X173.592Y-156.628
X173.595Y-118.78
X173.595Y-128.624
X173.595Y-131.672
X173.595Y-134.974
X173.595Y-138.022
X173.609Y-36.675
X173.609Y-39.275
X173.609Y-42.009
X173.609Y-44.609
X173.609Y-47.343
X173.609Y-49.943
X173.722Y-110.017
X173.722Y-114.462
X176.149Y-36.675
X176.149Y-39.275
X176.149Y-42.009
X176.149Y-44.609
X176.149Y-47.343
X176.149Y-49.943
X176.149Y-187.805
X176.149Y-190.405
X178.689Y-36.675
X178.689Y-39.275
X178.689Y-42.009
X178.689Y-44.609
X178.689Y-47.343
X178.689Y-49.943
X178.943Y-187.805
X178.943Y-190.405
X181.229Y-36.645
X181.229Y-39.245
X181.229Y-42.009
X181.229Y-44.609
X181.229Y-47.343
X181.229Y-49.943
X181.483Y-187.805
X181.483Y-190.405
X183.769Y-36.675
X183.769Y-39.275
X183.769Y-42.009
X183.769Y-44.609
X183.769Y-47.343
X183.769Y-49.943
X184.277Y-187.805
X184.277Y-190.405
X186.309Y-36.675
X186.309Y-39.275
X186.309Y-42.039
X186.309Y-44.639
X186.309Y-47.343
X186.309Y-49.943
X191.105Y-43.69
X191.232Y-46.865
X191.359Y-49.659
X192.913Y-192.377
X192.913Y-194.977
X193.705Y-43.69
X193.832Y-46.865
X193.959Y-49.659
X195.453Y-192.377
X195.453Y-194.977
X197.013Y-207.139
X197.201Y-70.106
X197.201Y-73.027
X197.993Y-192.377
X197.993Y-194.977
X199.613Y-207.139
X199.801Y-70.106
X199.801Y-73.027
X200.533Y-192.377
X200.533Y-194.977
X202.04Y-200.48
X204.47Y-129.454
X204.47Y-132.054
X204.47Y-146.091
X204.47Y-148.691
X204.597Y-163.49
X204.597Y-166.09
X204.64Y-200.48
X207.615Y-71.884
X207.615Y-74.678
X209.423Y-30.99
X209.423Y-34.165
X209.423Y-37.848
X209.52Y-47.246
X209.55Y-42.674
X209.647Y-50.929
X210.215Y-71.884
X210.215Y-74.678
X212.023Y-30.99
X212.023Y-34.165
X212.023Y-37.848
X212.12Y-47.246
X212.15Y-42.674
X212.247Y-50.929
X216.251Y-25.529
X216.251Y-29.593
X216.251Y-32.006
X218.851Y-25.529
X218.851Y-29.593
X218.851Y-32.006
X218.948Y-71.249
X218.948Y-73.849
X218.948Y-87.886
X218.948Y-90.486
X218.948Y-143.424
X218.948Y-146.024
X219.06Y-124.564
X219.06Y-127.164
X219.075Y-105.285
X219.075Y-107.885
X219.187Y-163.426
X219.187Y-166.026
X219.187Y-169.141
X219.187Y-171.741
X219.695Y-129.771
X219.695Y-132.371
X219.837Y-148.885
X219.837Y-151.485
X233.299Y-124.374
X233.299Y-126.974
X233.299Y-129.587
X233.299Y-132.187
X233.426Y-85.219
X233.426Y-87.819
X233.538Y-66.359
X233.538Y-68.959
X233.538Y-159.108
X233.538Y-161.708
X233.665Y-105.221
X233.665Y-107.821
X233.665Y-110.936
X233.665Y-113.536
X233.665Y-164.315
X233.665Y-166.915
X234.173Y-71.566
X234.173Y-74.166
X234.188Y-149.139
X234.188Y-151.739
X234.188Y-169.395
X234.188Y-171.995
X234.315Y-90.68
X234.315Y-93.28
X234.315Y-143.551
X234.315Y-146.151
X235.428Y-177.901
X238.028Y-177.901
X241.402Y-36.929
X241.402Y-39.529
X241.427Y-47.216
X241.427Y-49.816
X241.452Y-42.039
X241.452Y-44.639
X243.943Y-36.929
X243.943Y-39.529
X243.967Y-47.216
X243.967Y-49.816
X243.991Y-42.039
X243.991Y-44.639
X246.484Y-36.929
X246.484Y-39.529
X246.507Y-47.216
X246.507Y-49.816
X246.53Y-42.039
X246.53Y-44.639
X247.777Y-66.169
X247.777Y-68.769
X247.777Y-71.382
X247.777Y-73.982
X247.777Y-163.496
X247.777Y-166.096
X248.016Y-100.903
X248.016Y-103.503
X248.143Y-106.11
X248.143Y-108.71
X248.539Y-158.797
X248.539Y-161.397
X248.539Y-169.205
X248.539Y-171.805
X248.666Y-90.934
X248.666Y-93.534
X248.666Y-111.19
X248.666Y-113.79
X248.793Y-85.346
X248.793Y-87.946
X248.793Y-126.406
X248.793Y-129.006
X248.793Y-147.361
X248.793Y-149.961
X249.026Y-36.929
X249.026Y-39.529
X249.047Y-47.216
X249.047Y-49.816
X249.069Y-42.039
X249.069Y-44.639
X249.906Y-119.031
X251.567Y-36.929
X251.567Y-39.529
X251.587Y-47.216
X251.587Y-49.816
X251.608Y-42.039
X251.608Y-44.639
X252.506Y-119.031
X254.109Y-36.929
X254.109Y-39.529
X254.127Y-47.216
X254.127Y-49.816
X254.147Y-42.039
X254.147Y-44.639
X254.777Y-129.703
X254.777Y-132.303
X254.777Y-146.34
X254.777Y-148.94
X254.904Y-163.739
X254.904Y-166.339
X256.65Y-36.929
X256.65Y-39.529
X256.667Y-47.216
X256.667Y-49.816
X256.686Y-42.039
X256.686Y-44.639
X259.191Y-36.929
X259.191Y-39.529
X259.207Y-47.216
X259.207Y-49.816
X259.225Y-42.039
X259.225Y-44.639
X261.733Y-36.929
X261.733Y-39.529
X261.747Y-47.216
X261.747Y-49.816
X261.764Y-42.039
X261.764Y-44.639
X262.255Y-105.291
X262.255Y-107.891
X263.017Y-100.592
X263.017Y-103.192
X263.017Y-111.0
X263.017Y-113.6
X263.271Y-68.201
X263.271Y-70.801
X263.271Y-89.156
X263.271Y-91.756
X264.274Y-36.929
X264.274Y-39.529
X264.287Y-47.216
X264.287Y-49.816
X264.302Y-42.039
X264.302Y-44.639
X266.816Y-36.929
X266.816Y-39.529
X266.827Y-47.186
X266.827Y-49.786
X266.841Y-42.039
X266.841Y-44.639
X269.24Y-71.11
X269.24Y-73.71
X269.24Y-87.747
X269.24Y-90.347
X269.255Y-143.673
X269.255Y-146.273
X269.255Y-164.755
X269.255Y-167.355
X269.357Y-36.929
X269.357Y-39.529
X269.367Y-47.186
X269.367Y-49.786
X269.367Y-105.146
X269.367Y-107.746
X269.38Y-42.039
X269.38Y-44.639
X269.723Y-169.441
X269.723Y-172.041
X270.002Y-124.94
X270.002Y-127.54
X270.002Y-130.02
X270.002Y-132.62
X270.144Y-149.134
X270.144Y-151.734
X271.899Y-36.929
X271.899Y-39.529
X271.907Y-42.039
X271.907Y-44.639
X271.907Y-47.186
X271.907Y-49.786
X274.44Y-36.929
X274.44Y-39.529
X274.447Y-47.216
X274.447Y-49.816
X274.458Y-42.039
X274.458Y-44.639
X276.981Y-36.929
X276.981Y-39.529
X276.987Y-47.216
X276.987Y-49.816
X276.997Y-42.039
X276.997Y-44.639
X279.523Y-36.929
X279.523Y-39.529
X279.527Y-47.216
X279.527Y-49.816
X279.536Y-42.039
X279.536Y-44.639
X282.064Y-36.929
X282.064Y-39.529
X282.075Y-42.039
X282.075Y-44.639
X282.194Y-47.216
X282.194Y-49.816
X283.606Y-124.623
X283.606Y-127.223
X283.606Y-129.836
X283.606Y-132.436
X283.606Y-160.824
X283.606Y-163.424
X283.718Y-85.08
X283.718Y-87.68
X283.718Y-106.162
X283.718Y-108.762
X284.495Y-149.388
X284.495Y-151.988
X284.495Y-166.025
X284.495Y-168.625
X284.606Y-36.929
X284.606Y-39.529
X284.607Y-68.316
X284.607Y-70.916
X284.607Y-73.396
X284.607Y-75.996
X284.607Y-90.541
X284.607Y-93.141
X284.607Y-111.75
X284.607Y-114.35
X284.614Y-42.039
X284.614Y-44.639
X284.622Y-143.8
X284.622Y-146.4
X284.734Y-47.216
X284.734Y-49.816
X284.937Y-170.94
X284.937Y-173.54
X287.147Y-36.929
X287.147Y-39.529
X287.147Y-47.216
X287.147Y-49.816
X287.153Y-42.039
X287.153Y-44.639
X288.633Y-177.689
X289.687Y-36.929
X289.687Y-39.529
X289.687Y-47.216
X289.687Y-49.816
X289.691Y-42.039
X289.691Y-44.639
X291.233Y-177.689
X292.227Y-36.929
X292.227Y-39.529
X292.227Y-47.216
X292.227Y-49.816
X292.23Y-42.039
X292.23Y-44.639
X294.767Y-36.929
X294.767Y-39.529
X294.767Y-47.216
X294.767Y-49.816
X294.769Y-42.039
X294.769Y-44.639
X297.307Y-36.929
X297.307Y-39.529
X297.307Y-47.216
X297.307Y-49.816
X297.308Y-42.039
X297.308Y-44.639
X298.069Y-102.231
X298.069Y-104.831
X298.084Y-163.745
X298.084Y-166.345
X298.704Y-72.87
X298.704Y-75.47
X298.846Y-159.046
X298.846Y-161.646
X298.846Y-169.454
X298.846Y-172.054
X298.958Y-90.795
X298.958Y-93.395
X298.958Y-107.432
X298.958Y-110.032
X298.958Y-112.385
X298.958Y-114.985
X299.085Y-67.663
X299.085Y-70.263
X299.085Y-85.207
X299.085Y-87.807
X299.1Y-126.655
X299.1Y-129.255
X299.1Y-147.61
X299.1Y-150.21
X299.847Y-36.929
X299.847Y-39.529
X299.847Y-42.039
X299.847Y-44.639
X299.847Y-47.216
X299.847Y-49.816
X300.198Y-119.128
X302.798Y-119.128
X304.927Y-36.929
X304.927Y-39.529
X305.054Y-42.136
X305.054Y-44.736
X305.054Y-47.216
X305.054Y-49.816
X307.467Y-47.216
X307.467Y-49.816
X307.488Y-36.929
X307.488Y-39.529
X310.007Y-42.136
X310.007Y-44.736
X310.049Y-36.929
X310.049Y-39.529
X310.134Y-47.216
X310.134Y-49.816
X313.182Y-99.921
X313.182Y-102.521
X313.182Y-105.152
X313.182Y-107.752
X313.309Y-69.441
X313.309Y-72.041
X313.309Y-110.861
X313.309Y-113.461
X313.563Y-89.017
X313.563Y-91.617
X319.151Y-37.945
X319.151Y-40.545
X322.453Y-37.945
X322.453Y-40.545
X323.312Y-159.133
X323.312Y-161.673
X323.312Y-164.213
X323.439Y-151.513
X323.439Y-154.053
X323.439Y-156.593
X323.439Y-166.753
X323.947Y-102.364
X323.947Y-107.444
X323.947Y-112.524
X324.029Y-104.919
X324.059Y-99.839
X324.059Y-109.999
X324.059Y-115.079
X324.171Y-135.892
X324.201Y-125.732
X324.201Y-128.272
X324.201Y-130.812
X324.201Y-133.352
X324.201Y-138.432
X324.201Y-140.972
X324.47Y-75.186
X324.47Y-77.711
X324.47Y-80.266
X324.47Y-82.791
X324.47Y-85.346
X324.47Y-87.871
X324.47Y-90.411
X324.993Y-37.945
X324.993Y-40.545
X325.912Y-159.133
X325.912Y-161.673
X325.912Y-164.213
X326.039Y-151.513
X326.039Y-154.053
X326.039Y-156.593
X326.039Y-166.753
X326.547Y-102.364
X326.547Y-107.444
X326.547Y-112.524
X326.629Y-104.919
X326.659Y-99.839
X326.659Y-109.999
X326.659Y-115.079
X326.771Y-135.892
X326.801Y-125.732
X326.801Y-128.272
X326.801Y-130.812
X326.801Y-133.352
X326.801Y-138.432
X326.801Y-140.972
X327.07Y-75.186
X327.07Y-77.711
X327.07Y-80.266
X327.07Y-82.791
X327.07Y-85.346
X327.07Y-87.871
X327.07Y-90.411
X332.465Y-37.848
X332.465Y-40.448
X334.531Y-188.369
X334.531Y-190.969
X335.026Y-37.848
X335.026Y-40.448
X337.579Y-188.369
X337.579Y-190.969
X338.688Y-37.818
X338.688Y-40.418
X340.741Y-32.103
X340.741Y-34.703
X341.249Y-37.818
X341.249Y-40.418
X341.824Y-61.343
X341.854Y-51.183
X341.854Y-56.263
X341.854Y-66.423
X341.884Y-53.723
X341.884Y-58.803
X341.884Y-63.883
X343.408Y-32.103
X343.408Y-34.703
X344.424Y-61.343
X344.454Y-51.183
X344.454Y-56.263
X344.454Y-66.423
X344.484Y-53.723
X344.484Y-58.803
X344.484Y-63.883
X348.443Y-114.668
X348.443Y-119.748
X348.458Y-109.588
X348.458Y-112.128
X348.458Y-117.208
X348.458Y-122.288
X348.458Y-124.843
X351.043Y-114.668
X351.043Y-119.748
X351.058Y-109.588
X351.058Y-112.128
X351.058Y-117.208
X351.058Y-122.288
X351.058Y-124.843
X354.173Y-36.07
X355.346Y-188.089
X355.346Y-190.689
X356.773Y-36.07
X358.267Y-188.059
X358.267Y-190.659
X364.739Y-94.488
X364.871Y-64.008
X364.943Y-53.848
X364.943Y-61.468
X364.943Y-66.548
X364.993Y-56.464
X364.993Y-69.164
X364.993Y-74.168
X364.993Y-76.53
X364.993Y-79.07
X364.993Y-81.788
X364.993Y-86.868
X364.993Y-89.408
X366.619Y-36.324
X367.339Y-94.488
X367.471Y-64.008
X367.543Y-53.848
X367.543Y-61.468
X367.543Y-66.548
X367.593Y-56.464
X367.593Y-69.164
X367.593Y-74.168
X367.593Y-76.53
X367.593Y-79.07
X367.593Y-81.788
X367.593Y-86.868
X367.593Y-89.408
X369.219Y-36.324
X379.065Y-36.451
X380.52Y-187.28
X380.52Y-189.88
X381.665Y-36.451
X382.219Y-122.936
X382.219Y-135.636
X382.219Y-155.956
X382.24Y-160.909
X382.27Y-120.32
X382.27Y-128.016
X382.27Y-130.734
X382.27Y-140.716
X382.27Y-143.18
X382.27Y-145.796
X382.27Y-148.336
X382.27Y-153.416
X382.337Y-133.096
X383.032Y-187.297
X383.032Y-189.897
X384.819Y-122.936
X384.819Y-135.636
X384.819Y-155.956
X384.84Y-160.909
X384.87Y-120.32
X384.87Y-128.016
X384.87Y-130.734
X384.87Y-140.716
X384.87Y-143.18
X384.87Y-145.796
X384.87Y-148.336
X384.87Y-153.416
X384.937Y-133.096
X395.342Y-94.513
X395.372Y-56.413
X395.372Y-69.113
X395.372Y-76.733
X395.372Y-81.813
X395.372Y-102.133
X395.423Y-53.873
X395.423Y-61.493
X395.423Y-66.65
X395.423Y-74.193
X395.423Y-79.096
X395.423Y-86.893
X395.423Y-89.51
X395.423Y-92.05
X395.423Y-99.593
X395.473Y-64.16
X397.942Y-94.513
X397.972Y-56.413
X397.972Y-69.113
X397.972Y-76.733
X397.972Y-81.813
X397.972Y-102.133
X398.023Y-53.873
X398.023Y-61.493
X398.023Y-66.65
X398.023Y-74.193
X398.023Y-79.096
X398.023Y-86.893
X398.023Y-89.51
X398.023Y-92.05
X398.023Y-99.593
X398.073Y-64.16
X399.226Y-187.264
X399.226Y-189.864
X402.04Y-187.13
X402.04Y-189.73
X412.369Y-128.016
X412.369Y-140.716
X412.369Y-143.256
X412.369Y-145.796
X412.369Y-148.336
X412.369Y-153.416
X412.369Y-155.956
X412.369Y-158.496
X412.369Y-166.116
X412.369Y-168.656
X412.496Y-120.396
X412.496Y-122.936
X412.496Y-130.556
X412.496Y-161.036
X412.623Y-133.096
X412.623Y-135.636
X414.969Y-128.016
X414.969Y-140.716
X414.969Y-143.256
X414.969Y-145.796
X414.969Y-148.336
X414.969Y-153.416
X414.969Y-155.956
X414.969Y-158.496
X414.969Y-166.116
X414.969Y-168.656
X415.096Y-120.396
X415.096Y-122.936
X415.096Y-130.556
X415.096Y-161.036
X415.223Y-133.096
X415.223Y-135.636
T9
X161.03Y-206.433
X161.03Y-208.433
X163.53Y-206.433
X163.53Y-208.433
T10
X33.234Y-69.072
X33.234Y-71.612
X33.234Y-74.152
X33.234Y-76.692
X33.234Y-79.232
X33.234Y-81.772
X50.673Y-71.249
X50.673Y-73.789
X50.673Y-76.329
X50.673Y-78.869
X50.673Y-81.409
X50.673Y-83.949
X67.248Y-37.208
X67.248Y-39.748
X67.248Y-42.288
X67.248Y-44.828
X67.248Y-47.368
X69.641Y-212.128
X71.026Y-214.968
X71.039Y-141.183
X71.039Y-143.723
X71.039Y-146.263
X71.039Y-148.803
X71.039Y-151.343
X71.039Y-153.883
X71.039Y-156.423
X71.039Y-158.963
X71.039Y-161.503
X71.039Y-164.043
X71.061Y-112.406
X71.061Y-114.946
X71.061Y-117.486
X71.061Y-120.026
X71.061Y-122.566
X71.061Y-125.106
X71.061Y-127.646
X71.061Y-130.186
X71.061Y-132.726
X71.061Y-135.266
X71.323Y-195.364
X71.374Y-83.949
X71.374Y-86.489
X71.374Y-89.029
X71.374Y-91.569
X71.374Y-94.109
X71.374Y-96.649
X71.374Y-99.189
X71.374Y-101.729
X71.374Y-104.269
X71.374Y-106.809
X72.411Y-212.128
X73.796Y-214.968
X73.863Y-195.364
X74.867Y-37.208
X74.867Y-39.748
X74.867Y-42.288
X74.867Y-44.828
X74.867Y-47.368
X75.181Y-212.128
X76.403Y-195.364
X76.566Y-214.968
X77.951Y-212.128
X78.943Y-195.364
X79.336Y-214.968
X80.721Y-212.128
X83.739Y-141.183
X83.739Y-143.723
X83.739Y-146.263
X83.739Y-148.803
X83.739Y-151.343
X83.739Y-153.883
X83.739Y-156.423
X83.739Y-158.963
X83.739Y-161.503
X83.739Y-164.043
X83.761Y-112.401
X83.761Y-114.941
X83.761Y-117.481
X83.761Y-120.021
X83.761Y-122.561
X83.761Y-125.101
X83.761Y-127.641
X83.761Y-130.181
X83.761Y-132.721
X83.761Y-135.261
X83.949Y-83.949
X83.949Y-86.489
X83.949Y-89.029
X83.949Y-91.569
X83.949Y-94.109
X83.949Y-96.649
X83.949Y-99.189
X83.949Y-101.729
X83.949Y-104.269
X83.949Y-106.809
X101.6Y-71.12
X101.6Y-73.66
X101.6Y-76.2
X101.6Y-78.74
X101.6Y-81.28
X101.6Y-83.82
X101.6Y-86.36
X101.6Y-88.9
X107.442Y-28.145
X107.442Y-30.685
X107.442Y-33.225
X109.982Y-28.145
X109.982Y-30.685
X109.982Y-33.225
X112.522Y-28.145
X112.522Y-30.685
X112.522Y-33.225
X115.062Y-28.145
X115.062Y-30.685
X115.062Y-33.225
X117.602Y-28.145
X117.602Y-30.685
X117.602Y-33.225
X120.142Y-28.145
X120.142Y-30.685
X120.142Y-33.225
X122.682Y-28.145
X122.682Y-30.685
X122.682Y-33.225
X125.222Y-28.145
X125.222Y-30.685
X125.222Y-33.225
X127.762Y-28.145
X127.762Y-30.685
X127.762Y-33.225
X130.302Y-28.145
X130.302Y-30.685
X130.302Y-33.225
X132.842Y-28.145
X132.842Y-30.685
X132.842Y-33.225
X135.382Y-28.145
X135.382Y-30.685
X135.382Y-33.225
X137.922Y-28.145
X137.922Y-30.685
X137.922Y-33.225
X140.462Y-28.145
X140.462Y-30.685
X140.462Y-33.225
X143.002Y-28.145
X143.002Y-30.685
X143.002Y-33.225
X145.542Y-28.145
X145.542Y-30.685
X145.542Y-33.225
X148.082Y-28.145
X148.082Y-30.685
X148.082Y-33.225
X150.622Y-28.145
X150.622Y-30.685
X150.622Y-33.225
X153.162Y-28.145
X153.162Y-30.685
X153.162Y-33.225
X155.702Y-28.145
X155.702Y-30.685
X155.702Y-33.225
X156.446Y-106.237
X156.446Y-108.777
X156.446Y-111.317
X156.446Y-113.857
X156.446Y-116.397
X156.446Y-118.937
X156.452Y-125.259
X156.452Y-127.799
X156.452Y-130.339
X156.452Y-132.879
X156.452Y-135.419
X156.452Y-137.959
X156.738Y-143.928
X156.738Y-146.468
X156.738Y-149.008
X156.738Y-151.548
X156.738Y-154.088
X156.738Y-156.628
X158.242Y-28.145
X158.242Y-30.685
X158.242Y-33.225
X160.02Y-71.12
X160.02Y-73.66
X160.02Y-76.2
X160.02Y-78.74
X160.02Y-81.28
X160.02Y-83.82
X160.02Y-86.36
X160.02Y-88.9
X160.782Y-28.145
X160.782Y-30.685
X160.782Y-33.225
X163.322Y-28.145
X163.322Y-30.685
X163.322Y-33.225
X165.862Y-28.145
X165.862Y-30.685
X165.862Y-33.225
X166.86Y-106.237
X166.86Y-108.777
X166.86Y-111.317
X166.86Y-113.857
X166.86Y-116.397
X166.86Y-118.937
X166.866Y-125.259
X166.866Y-127.799
X166.866Y-130.339
X166.866Y-132.879
X166.866Y-135.419
X166.866Y-137.959
X166.898Y-143.928
X166.898Y-146.468
X166.898Y-149.008
X166.898Y-151.548
X166.898Y-154.088
X166.898Y-156.628
X168.285Y-169.801
X168.402Y-28.145
X168.402Y-30.685
X168.402Y-33.225
X170.942Y-28.145
X170.942Y-30.685
X170.942Y-33.225
X173.482Y-28.145
X173.482Y-30.685
X173.482Y-33.225
X175.885Y-169.801
X176.022Y-28.145
X176.022Y-30.685
X176.022Y-33.225
X178.562Y-28.145
X178.562Y-30.685
X178.562Y-33.225
X181.102Y-28.145
X181.102Y-30.685
X181.102Y-33.225
X183.642Y-28.145
X183.642Y-30.685
X183.642Y-33.225
X186.182Y-28.145
X186.182Y-30.685
X186.182Y-33.225
X197.93Y-40.383
X197.93Y-42.923
X197.93Y-45.463
X197.93Y-48.003
X197.93Y-50.543
X205.55Y-40.383
X205.55Y-42.923
X205.55Y-45.463
X205.55Y-48.003
X205.55Y-50.543
X208.28Y-124.404
X208.28Y-126.944
X208.28Y-129.484
X208.28Y-132.024
X208.28Y-134.564
X208.28Y-143.69
X208.28Y-146.23
X208.28Y-148.77
X208.28Y-151.31
X208.28Y-153.85
X208.28Y-163.018
X208.28Y-165.558
X208.28Y-168.098
X208.28Y-170.638
X208.28Y-173.178
X215.9Y-124.404
X215.9Y-126.944
X215.9Y-129.484
X215.9Y-132.024
X215.9Y-134.564
X215.9Y-143.69
X215.9Y-146.23
X215.9Y-148.77
X215.9Y-151.31
X215.9Y-153.85
X215.9Y-163.018
X215.9Y-165.558
X215.9Y-168.098
X215.9Y-170.638
X215.9Y-173.178
X217.234Y-36.7
X217.234Y-39.24
X217.234Y-41.78
X217.234Y-44.32
X217.234Y-46.86
X222.758Y-66.199
X222.758Y-68.739
X222.758Y-71.279
X222.758Y-73.819
X222.758Y-76.359
X222.758Y-85.485
X222.758Y-88.025
X222.758Y-90.565
X222.758Y-93.105
X222.758Y-95.645
X222.758Y-104.813
X222.758Y-107.353
X222.758Y-109.893
X222.758Y-112.433
X222.758Y-114.973
X222.758Y-163.175
X222.758Y-165.715
X222.758Y-168.255
X222.758Y-170.795
X222.758Y-173.335
X222.766Y-124.404
X222.766Y-126.944
X222.766Y-129.484
X222.766Y-132.024
X222.766Y-134.564
X222.766Y-143.823
X222.766Y-146.363
X222.766Y-148.903
X222.766Y-151.443
X222.766Y-153.983
X224.855Y-36.7
X224.855Y-39.24
X224.855Y-41.78
X224.855Y-44.32
X224.855Y-46.86
X230.378Y-66.199
X230.378Y-68.739
X230.378Y-71.279
X230.378Y-73.819
X230.378Y-76.359
X230.378Y-85.485
X230.378Y-88.025
X230.378Y-90.565
X230.378Y-93.105
X230.378Y-95.645
X230.378Y-104.813
X230.378Y-107.353
X230.378Y-109.893
X230.378Y-112.433
X230.378Y-114.973
X230.378Y-163.175
X230.378Y-165.715
X230.378Y-168.255
X230.378Y-170.795
X230.378Y-173.335
X230.386Y-124.404
X230.386Y-126.944
X230.386Y-129.484
X230.386Y-132.024
X230.386Y-134.564
X230.386Y-143.823
X230.386Y-146.363
X230.386Y-148.903
X230.386Y-151.443
X230.386Y-153.983
X237.236Y-104.97
X237.236Y-107.51
X237.236Y-110.05
X237.236Y-112.59
X237.236Y-115.13
X237.236Y-124.462
X237.236Y-127.002
X237.236Y-129.542
X237.236Y-132.082
X237.236Y-134.622
X237.236Y-143.811
X237.236Y-146.351
X237.236Y-148.891
X237.236Y-151.431
X237.236Y-153.971
X237.244Y-66.199
X237.244Y-68.739
X237.244Y-71.279
X237.244Y-73.819
X237.244Y-76.359
X237.244Y-85.617
X237.244Y-88.157
X237.244Y-90.697
X237.244Y-93.237
X237.244Y-95.777
X237.251Y-163.291
X237.251Y-165.831
X237.251Y-168.371
X237.251Y-170.911
X237.251Y-173.451
X241.478Y-28.145
X241.478Y-30.685
X241.478Y-33.225
X244.018Y-28.145
X244.018Y-30.685
X244.018Y-33.225
X244.856Y-104.97
X244.856Y-107.51
X244.856Y-110.05
X244.856Y-112.59
X244.856Y-115.13
X244.856Y-124.462
X244.856Y-127.002
X244.856Y-129.542
X244.856Y-132.082
X244.856Y-134.622
X244.856Y-143.811
X244.856Y-146.351
X244.856Y-148.891
X244.856Y-151.431
X244.856Y-153.971
X244.864Y-66.199
X244.864Y-68.739
X244.864Y-71.279
X244.864Y-73.819
X244.864Y-76.359
X244.864Y-85.617
X244.864Y-88.157
X244.864Y-90.697
X244.864Y-93.237
X244.864Y-95.777
X244.871Y-163.291
X244.871Y-165.831
X244.871Y-168.371
X244.871Y-170.911
X244.871Y-173.451
X246.558Y-28.145
X246.558Y-30.685
X246.558Y-33.225
X249.098Y-28.145
X249.098Y-30.685
X249.098Y-33.225
X251.638Y-28.145
X251.638Y-30.685
X251.638Y-33.225
X251.714Y-66.257
X251.714Y-68.797
X251.714Y-71.337
X251.714Y-73.877
X251.714Y-76.417
X251.714Y-85.606
X251.714Y-88.146
X251.714Y-90.686
X251.714Y-93.226
X251.714Y-95.766
X251.731Y-105.036
X251.731Y-107.576
X251.731Y-110.116
X251.731Y-112.656
X251.731Y-115.196
X254.178Y-28.145
X254.178Y-30.685
X254.178Y-33.225
X256.718Y-28.145
X256.718Y-30.685
X256.718Y-33.225
X258.587Y-124.653
X258.587Y-127.193
X258.587Y-129.733
X258.587Y-132.273
X258.587Y-134.813
X258.587Y-143.939
X258.587Y-146.479
X258.587Y-149.019
X258.587Y-151.559
X258.587Y-154.099
X258.587Y-163.319
X258.587Y-165.859
X258.587Y-168.399
X258.587Y-170.939
X258.587Y-173.479
X259.258Y-28.145
X259.258Y-30.685
X259.258Y-33.225
X259.334Y-66.257
X259.334Y-68.797
X259.334Y-71.337
X259.334Y-73.877
X259.334Y-76.417
X259.334Y-85.606
X259.334Y-88.146
X259.334Y-90.686
X259.334Y-93.226
X259.334Y-95.766
X259.351Y-105.036
X259.351Y-107.576
X259.351Y-110.116
X259.351Y-112.656
X259.351Y-115.196
X261.798Y-28.145
X261.798Y-30.685
X261.798Y-33.225
X264.338Y-28.145
X264.338Y-30.685
X264.338Y-33.225
X266.207Y-124.653
X266.207Y-127.193
X266.207Y-129.733
X266.207Y-132.273
X266.207Y-134.813
X266.207Y-143.939
X266.207Y-146.479
X266.207Y-149.019
X266.207Y-151.559
X266.207Y-154.099
X266.207Y-163.319
X266.207Y-165.859
X266.207Y-168.399
X266.207Y-170.939
X266.207Y-173.479
X266.878Y-28.145
X266.878Y-30.685
X266.878Y-33.225
X269.418Y-28.145
X269.418Y-30.685
X269.418Y-33.225
X271.958Y-28.145
X271.958Y-30.685
X271.958Y-33.225
X273.05Y-66.06
X273.05Y-68.6
X273.05Y-71.14
X273.05Y-73.68
X273.05Y-76.22
X273.05Y-85.346
X273.05Y-87.886
X273.05Y-90.426
X273.05Y-92.966
X273.05Y-95.506
X273.05Y-104.764
X273.05Y-107.304
X273.05Y-109.844
X273.05Y-112.384
X273.05Y-114.924
X273.073Y-124.653
X273.073Y-127.193
X273.073Y-129.733
X273.073Y-132.273
X273.073Y-134.813
X273.073Y-144.072
X273.073Y-146.612
X273.073Y-149.152
X273.073Y-151.692
X273.073Y-154.232
X273.073Y-163.49
X273.073Y-166.03
X273.073Y-168.57
X273.073Y-171.11
X273.073Y-173.65
X274.498Y-28.145
X274.498Y-30.685
X274.498Y-33.225
X277.038Y-28.145
X277.038Y-30.685
X277.038Y-33.225
X279.578Y-28.145
X279.578Y-30.685
X279.578Y-33.225
X280.67Y-66.06
X280.67Y-68.6
X280.67Y-71.14
X280.67Y-73.68
X280.67Y-76.22
X280.67Y-85.346
X280.67Y-87.886
X280.67Y-90.426
X280.67Y-92.966
X280.67Y-95.506
X280.67Y-104.764
X280.67Y-107.304
X280.67Y-109.844
X280.67Y-112.384
X280.67Y-114.924
X280.693Y-124.653
X280.693Y-127.193
X280.693Y-129.733
X280.693Y-132.273
X280.693Y-134.813
X280.693Y-144.072
X280.693Y-146.612
X280.693Y-149.152
X280.693Y-151.692
X280.693Y-154.232
X280.693Y-163.49
X280.693Y-166.03
X280.693Y-168.57
X280.693Y-171.11
X280.693Y-173.65
X282.118Y-28.145
X282.118Y-30.685
X282.118Y-33.225
X284.658Y-28.145
X284.658Y-30.685
X284.658Y-33.225
X287.198Y-28.145
X287.198Y-30.685
X287.198Y-33.225
X287.536Y-66.06
X287.536Y-68.6
X287.536Y-71.14
X287.536Y-73.68
X287.536Y-76.22
X287.536Y-85.479
X287.536Y-88.019
X287.536Y-90.559
X287.536Y-93.099
X287.536Y-95.639
X287.536Y-104.897
X287.536Y-107.437
X287.536Y-109.977
X287.536Y-112.517
X287.536Y-115.057
X287.543Y-124.711
X287.543Y-127.251
X287.543Y-129.791
X287.543Y-132.331
X287.543Y-134.871
X287.56Y-144.072
X287.56Y-146.612
X287.56Y-149.152
X287.56Y-151.692
X287.56Y-154.232
X287.56Y-163.49
X287.56Y-166.03
X287.56Y-168.57
X287.56Y-171.11
X287.56Y-173.65
X289.738Y-28.145
X289.738Y-30.685
X289.738Y-33.225
X292.278Y-28.145
X292.278Y-30.685
X292.278Y-33.225
X294.818Y-28.145
X294.818Y-30.685
X294.818Y-33.225
X295.156Y-66.06
X295.156Y-68.6
X295.156Y-71.14
X295.156Y-73.68
X295.156Y-76.22
X295.156Y-85.479
X295.156Y-88.019
X295.156Y-90.559
X295.156Y-93.099
X295.156Y-95.639
X295.156Y-104.897
X295.156Y-107.437
X295.156Y-109.977
X295.156Y-112.517
X295.156Y-115.057
X295.163Y-124.711
X295.163Y-127.251
X295.163Y-129.791
X295.163Y-132.331
X295.163Y-134.871
X295.18Y-144.072
X295.18Y-146.612
X295.18Y-149.152
X295.18Y-151.692
X295.18Y-154.232
X295.18Y-163.49
X295.18Y-166.03
X295.18Y-168.57
X295.18Y-171.11
X295.18Y-173.65
X297.358Y-28.145
X297.358Y-30.685
X297.358Y-33.225
X299.898Y-28.145
X299.898Y-30.685
X299.898Y-33.225
X302.023Y-66.06
X302.023Y-68.6
X302.023Y-71.14
X302.023Y-73.68
X302.023Y-76.22
X302.023Y-85.479
X302.023Y-88.019
X302.023Y-90.559
X302.023Y-93.099
X302.023Y-95.639
X302.023Y-104.897
X302.023Y-107.437
X302.023Y-109.977
X302.023Y-112.517
X302.023Y-115.057
X302.438Y-28.145
X302.438Y-30.685
X302.438Y-33.225
X304.978Y-28.145
X304.978Y-30.685
X304.978Y-33.225
X307.518Y-28.145
X307.518Y-30.685
X307.518Y-33.225
X309.643Y-66.06
X309.643Y-68.6
X309.643Y-71.14
X309.643Y-73.68
X309.643Y-76.22
X309.643Y-85.479
X309.643Y-88.019
X309.643Y-90.559
X309.643Y-93.099
X309.643Y-95.639
X309.643Y-104.897
X309.643Y-107.437
X309.643Y-109.977
X309.643Y-112.517
X309.643Y-115.057
X310.058Y-28.145
X310.058Y-30.685
X310.058Y-33.225
X312.598Y-28.145
X312.598Y-30.685
X312.598Y-33.225
X315.138Y-28.145
X315.138Y-30.685
X315.138Y-33.225
X317.678Y-28.145
X317.678Y-30.685
X317.678Y-33.225
X320.218Y-28.145
X320.218Y-30.685
X320.218Y-33.225
T11
X35.352Y-100.831
X35.352Y-103.371
X35.352Y-105.911
X35.352Y-108.451
X35.352Y-110.991
X35.352Y-113.531
X35.352Y-116.071
X35.352Y-118.611
X35.352Y-121.151
X35.352Y-123.691
X35.352Y-126.231
X35.352Y-128.771
X35.352Y-131.311
X35.352Y-133.851
X35.352Y-136.391
X35.352Y-138.931
X35.352Y-141.471
X35.352Y-144.011
X35.352Y-146.551
X35.352Y-149.091
X41.702Y-101.061
X44.242Y-101.061
X46.782Y-101.061
X53.132Y-100.831
X53.132Y-103.371
X53.132Y-105.911
X53.132Y-108.451
X53.132Y-110.991
X53.132Y-113.531
X53.132Y-116.071
X53.132Y-118.611
X53.132Y-121.151
X53.132Y-123.691
X53.132Y-126.231
X53.132Y-128.771
X53.132Y-131.311
X53.132Y-133.851
X53.132Y-136.391
X53.132Y-138.931
X53.132Y-141.471
X53.132Y-144.011
X53.132Y-146.551
X53.132Y-149.091
X116.805Y-106.966
X116.805Y-109.506
X116.805Y-112.046
X116.805Y-114.586
X116.805Y-117.126
X116.805Y-119.666
X116.805Y-122.206
X116.805Y-124.746
X116.805Y-127.286
X116.805Y-129.826
X116.805Y-132.366
X116.805Y-134.906
X116.805Y-137.446
X116.805Y-139.986
X116.805Y-142.526
X116.805Y-145.066
X116.805Y-147.606
X116.805Y-150.146
X116.805Y-152.686
X116.805Y-155.226
X123.155Y-107.196
X125.695Y-107.196
X128.235Y-107.196
X134.585Y-106.966
X134.585Y-109.506
X134.585Y-112.046
X134.585Y-114.586
X134.585Y-117.126
X134.585Y-119.666
X134.585Y-122.206
X134.585Y-124.746
X134.585Y-127.286
X134.585Y-129.826
X134.585Y-132.366
X134.585Y-134.906
X134.585Y-137.446
X134.585Y-139.986
X134.585Y-142.526
X134.585Y-145.066
X134.585Y-147.606
X134.585Y-150.146
X134.585Y-152.686
X134.585Y-155.226
X372.897Y-53.873
X372.897Y-56.413
X372.897Y-58.953
X372.897Y-61.493
X372.897Y-64.033
X372.897Y-66.573
X372.897Y-69.113
X372.897Y-71.653
X372.897Y-74.193
X372.897Y-76.733
X372.897Y-79.273
X372.897Y-81.813
X372.897Y-84.353
X372.897Y-86.893
X372.897Y-89.433
X372.897Y-91.973
X372.897Y-94.513
X372.897Y-97.053
X372.897Y-99.593
X372.897Y-102.133
X379.247Y-54.103
X381.787Y-54.103
X384.327Y-54.103
X390.017Y-120.396
X390.017Y-122.936
X390.017Y-125.476
X390.017Y-128.016
X390.017Y-130.556
X390.017Y-133.096
X390.017Y-135.636
X390.017Y-138.176
X390.017Y-140.716
X390.017Y-143.256
X390.017Y-145.796
X390.017Y-148.336
X390.017Y-150.876
X390.017Y-153.416
X390.017Y-155.956
X390.017Y-158.496
X390.017Y-161.036
X390.017Y-163.576
X390.017Y-166.116
X390.017Y-168.656
X390.677Y-53.873
X390.677Y-56.413
X390.677Y-58.953
X390.677Y-61.493
X390.677Y-64.033
X390.677Y-66.573
X390.677Y-69.113
X390.677Y-71.653
X390.677Y-74.193
X390.677Y-76.733
X390.677Y-79.273
X390.677Y-81.813
X390.677Y-84.353
X390.677Y-86.893
X390.677Y-89.433
X390.677Y-91.973
X390.677Y-94.513
X390.677Y-97.053
X390.677Y-99.593
X390.677Y-102.133
X396.367Y-120.626
X398.907Y-120.626
X401.447Y-120.626
X407.797Y-120.396
X407.797Y-122.936
X407.797Y-125.476
X407.797Y-128.016
X407.797Y-130.556
X407.797Y-133.096
X407.797Y-135.636
X407.797Y-138.176
X407.797Y-140.716
X407.797Y-143.256
X407.797Y-145.796
X407.797Y-148.336
X407.797Y-150.876
X407.797Y-153.416
X407.797Y-155.956
X407.797Y-158.496
X407.797Y-161.036
X407.797Y-163.576
X407.797Y-166.116
X407.797Y-168.656
T12
X37.17Y-198.76
X37.17Y-201.26
X43.07Y-198.76
X43.07Y-201.26
X181.67Y-208.197
X181.67Y-210.737
X184.21Y-208.197
X184.21Y-210.737
X186.75Y-208.197
X186.75Y-210.737
X189.29Y-208.197
X189.29Y-210.737
X191.83Y-208.197
X191.83Y-210.737
T13
X194.183Y-107.19
X199.263Y-107.19
X209.423Y-107.19
X211.963Y-107.19
T14
X51.58Y-62.12
X97.3Y-62.12
T15
X19.592Y-153.975
X19.592Y-175.975
X31.799Y-188.182
X34.417Y-177.675
X49.657Y-177.675
X53.799Y-188.182
X198.373Y-82.479
X198.373Y-94.679
X204.373Y-96.679
X206.93Y-211.42
X210.373Y-82.479
X210.373Y-94.679
X212.01Y-211.42
X217.09Y-211.42
X222.17Y-211.42
T16
X288.05Y-213.48
X291.86Y-213.48
X295.67Y-213.48
X299.48Y-213.48
X303.29Y-213.48
X307.1Y-213.48
T17
X104.487Y-213.433
X108.297Y-213.433
X112.107Y-213.433
X115.917Y-213.433
T18
X19.66Y-205.78
T19
X36.452Y-28.3
X36.452Y-33.3
X43.942Y-28.3
X43.942Y-33.3
X386.388Y-28.3
X386.388Y-33.3
X393.878Y-28.3
X393.878Y-33.3
T20
X324.96Y-208.1
X335.12Y-208.1
X350.39Y-207.96
X360.55Y-207.96
X376.05Y-208.11
X386.21Y-208.11
X401.14Y-208.05
X411.3Y-208.05
T21
X156.26Y-211.142
X168.3Y-211.142
T22
X102.362Y-25.605
X191.262Y-25.605
X236.398Y-25.605
X325.298Y-25.605
T23
X62.681Y-212.428
X87.681Y-212.428
T6
X19.057Y-211.78G85X20.263Y-211.78
G05
T10
X14.91Y-207.08G85X14.91Y-208.08
G05
X14.91Y-211.78G85X14.91Y-212.78
G05
X24.41Y-207.08G85X24.41Y-208.08
G05
X24.41Y-211.78G85X24.41Y-212.78
G05
T0
M30
