M48
; DRILL file {KiCad (6.0.1)} date Tue Mar  7 12:10:23 2023
; FORMAT={-:-/ absolute / metric / decimal}
; #@! TF.CreationDate,2023-03-07T12:10:23-05:00
; #@! TF.GenerationSoftware,Kicad,Pcbnew,(6.0.1)
; #@! TF.FileFunction,NonPlated,1,4,NPTH
FMAT,2
METRIC
; #@! TA.AperFunction,NonPlated,NPTH,ComponentDrill
T1C1.500
; #@! TA.AperFunction,NonPlated,NPTH,ComponentDrill
T2C1.800
; #@! TA.AperFunction,NonPlated,NPTH,ComponentDrill
T3C1.900
; #@! TA.AperFunction,NonPlated,NPTH,ComponentDrill
T4C3.200
%
G90
G05
T1
X19.66Y-215.03
X41.817Y-145.931
X46.667Y-145.931
X123.27Y-152.066
X128.12Y-152.066
X379.362Y-98.973
X384.212Y-98.973
X396.482Y-165.496
X401.332Y-165.496
T2
X41.517Y-148.961
X46.967Y-148.961
X122.97Y-155.096
X128.42Y-155.096
X379.062Y-102.003
X384.512Y-102.003
X396.182Y-168.526
X401.632Y-168.526
T3
X37.92Y-212.66
X42.32Y-212.66
T4
X131.588Y-213.7
X143.017Y-213.7
T0
M30
