M48
; DRILL file {KiCad 7.0.5} date Sat Oct 26 20:20:04 2024
; FORMAT={-:-/ absolute / metric / decimal}
; #@! TF.CreationDate,2024-10-26T20:20:04-04:00
; #@! TF.GenerationSoftware,Kicad,Pcbnew,7.0.5
; #@! TF.FileFunction,Plated,1,4,PTH
FMAT,2
METRIC
; #@! TA.AperFunction,Plated,PTH,ViaDrill
T1C0.400
; #@! TA.AperFunction,Plated,PTH,ComponentDrill
T2C0.600
; #@! TA.AperFunction,Plated,PTH,ComponentDrill
T3C0.700
; #@! TA.AperFunction,Plated,PTH,ComponentDrill
T4C0.750
; #@! TA.AperFunction,Plated,PTH,ComponentDrill
T5C0.800
; #@! TA.AperFunction,Plated,PTH,ComponentDrill
T6C0.890
; #@! TA.AperFunction,Plated,PTH,ComponentDrill
T7C0.900
; #@! TA.AperFunction,Plated,PTH,ComponentDrill
T8C0.920
; #@! TA.AperFunction,Plated,PTH,ComponentDrill
T9C1.000
; #@! TA.AperFunction,Plated,PTH,ComponentDrill
T10C1.020
; #@! TA.AperFunction,Plated,PTH,ComponentDrill
T11C1.100
; #@! TA.AperFunction,Plated,PTH,ComponentDrill
T12C1.150
; #@! TA.AperFunction,Plated,PTH,ComponentDrill
T13C1.200
; #@! TA.AperFunction,Plated,PTH,ComponentDrill
T14C1.300
; #@! TA.AperFunction,Plated,PTH,ComponentDrill
T15C1.350
; #@! TA.AperFunction,Plated,PTH,ComponentDrill
T16C1.397
; #@! TA.AperFunction,Plated,PTH,ComponentDrill
T17C1.500
; #@! TA.AperFunction,Plated,PTH,ComponentDrill
T18C1.600
; #@! TA.AperFunction,Plated,PTH,ComponentDrill
T19C1.700
; #@! TA.AperFunction,Plated,PTH,ComponentDrill
T20C1.900
; #@! TA.AperFunction,Plated,PTH,ComponentDrill
T21C2.010
; #@! TA.AperFunction,Plated,PTH,ComponentDrill
T22C2.330
; #@! TA.AperFunction,Plated,PTH,ComponentDrill
T23C2.800
; #@! TA.AperFunction,Plated,PTH,ComponentDrill
T24C3.200
%
G90
G05
T1
X9.539Y145.365
X10.357Y134.753
X11.119Y146.437
X12.389Y135.007
X40.623Y138.5
X41.39Y52.43
X41.766Y135.96
X42.147Y132.912
X44.941Y141.421
X48.116Y138.881
X55.342Y8.932
X56.104Y16.552
X62.454Y9.186
X67.04Y137.09
X72.753Y8.482
X81.16Y50.27
X83.19Y126.98
X102.32Y146.79
X105.78Y159.45
X107.409Y160.963
X107.933Y164.027
X112.759Y164.535
X114.258Y50.897
X115.502Y49.5
X115.553Y164.281
X118.093Y164.789
X120.887Y163.011
X125.306Y117.547
X128.96Y120.33
X134.603Y163.773
X137.41Y154.0
X138.64Y150.7
X139.48Y154.84
X141.38Y153.33
X145.0Y155.51
X145.079Y158.92
X194.76Y112.83
X196.96Y157.296
X198.484Y157.677
X214.232Y160.471
X214.867Y161.487
X216.645Y162.122
X217.915Y161.868
X219.439Y161.868
X220.709Y161.995
X224.265Y161.614
X224.265Y159.328
X225.027Y160.217
X232.393Y152.851
X235.06Y158.31
X235.568Y85.287
X236.584Y161.995
X237.981Y158.31
X240.14Y158.31
X240.267Y161.614
X240.394Y152.978
X249.498Y159.836
X249.498Y158.693
X251.697Y159.201
X252.713Y163.138
X253.602Y164.281
X254.364Y163.519
X257.61Y160.33
X258.555Y161.741
X259.698Y161.106
X259.71Y152.799
X260.841Y152.799
X278.113Y148.279
X278.875Y149.676
X279.891Y151.2
X285.733Y93.796
X287.511Y161.614
X290.178Y44.139
X290.432Y161.741
X290.559Y159.963
X297.417Y156.788
X300.084Y68.015
X305.164Y73.476
X306.053Y126.562
X308.085Y108.147
X308.091Y109.677
X308.339Y106.75
X308.341Y105.48
X308.341Y92.526
X310.879Y122.244
X322.565Y121.99
T2
X3.588Y66.925
X5.588Y66.925
X47.759Y122.625
X49.759Y122.625
X89.43Y50.235
X91.43Y50.235
X153.277Y118.92
X155.277Y118.92
X190.91Y149.03
X192.91Y149.03
X357.901Y40.329
X358.377Y102.18
X359.901Y40.329
X360.377Y102.18
T3
X9.66Y71.471
X12.759Y67.687
X15.528Y64.156
X25.383Y122.371
X30.463Y122.371
X35.543Y122.371
X42.909Y122.625
X49.06Y15.78
X49.139Y11.718
X52.663Y8.952
X53.15Y98.83
X54.55Y25.3
X55.7Y161.38
X61.21Y161.38
X75.154Y15.79
X75.294Y175.586
X75.823Y9.142
X96.757Y71.444
X97.154Y65.318
X97.743Y89.291
X99.551Y59.252
X99.87Y158.55
X103.742Y151.2
X105.39Y47.86
X108.07Y27.56
X109.203Y116.021
X114.283Y116.021
X119.363Y116.021
X127.96Y27.842
X127.999Y150.311
X128.214Y23.524
X132.336Y25.533
X132.336Y21.596
X135.96Y92.13
X140.11Y92.28
X154.69Y129.01
X159.578Y91.539
X164.26Y91.53
X180.958Y134.055
X191.118Y142.945
X195.919Y58.597
X195.944Y37.974
X196.173Y77.825
X197.595Y148.025
X202.777Y58.597
X203.056Y38.101
X203.285Y77.825
X210.016Y58.464
X210.295Y37.968
X210.346Y97.092
X210.422Y116.636
X210.6Y135.872
X210.778Y77.692
X217.255Y58.464
X217.28Y116.636
X217.28Y37.968
X217.458Y97.219
X217.712Y135.872
X217.89Y77.692
X224.519Y116.503
X224.697Y97.086
X225.002Y58.464
X225.129Y77.697
X225.205Y135.74
X231.682Y97.086
X231.733Y58.464
X231.758Y116.503
X232.114Y77.692
X232.317Y135.74
X239.505Y116.503
X239.556Y135.745
X245.931Y58.318
X246.185Y77.342
X246.236Y116.503
X246.251Y37.725
X246.541Y135.74
X252.789Y58.318
X253.297Y77.342
X253.363Y37.852
X260.028Y58.185
X260.028Y38.805
X260.638Y97.23
X260.714Y116.775
X260.79Y77.21
X260.892Y136.011
X263.686Y38.805
X267.267Y58.185
X267.902Y77.21
X268.004Y136.011
X268.004Y97.357
X268.08Y116.775
X274.811Y116.642
X274.989Y97.225
X275.014Y58.185
X275.141Y77.215
X275.497Y135.879
X281.745Y58.185
X281.974Y97.225
X282.05Y116.642
X282.126Y77.21
X282.609Y135.879
X289.797Y116.642
X289.848Y135.884
X290.051Y164.662
X296.528Y116.642
X296.833Y135.879
X303.132Y175.203
X303.18Y178.99
X330.945Y168.726
X337.676Y110.306
X339.835Y116.402
X343.391Y117.928
X345.423Y114.626
X348.979Y169.617
X352.129Y114.601
X354.313Y109.163
X358.377Y65.096
X360.409Y56.206
X360.409Y49.729
X365.083Y170.989
X370.036Y170.862
X370.929Y47.824
X374.862Y170.862
X382.507Y102.942
X386.698Y102.942
X390.889Y102.942
T4
X19.338Y34.743
X20.608Y36.013
X20.608Y33.473
X21.95Y169.55
X23.22Y170.82
X23.22Y168.28
X37.87Y164.4
X39.14Y165.67
X39.14Y163.13
X98.281Y53.537
X99.551Y52.267
X100.821Y53.537
X132.063Y39.567
X133.333Y40.837
X133.333Y38.297
X341.74Y184.855
X343.01Y186.125
X343.01Y183.585
X354.165Y184.855
X355.435Y186.125
X355.435Y183.585
X366.865Y184.855
X368.135Y186.125
X368.135Y183.585
T5
X4.51Y181.47
X4.51Y171.31
X5.266Y118.893
X5.266Y108.733
X8.67Y118.893
X8.67Y108.733
X11.794Y181.426
X11.794Y171.266
X20.76Y50.567
X20.76Y42.947
X25.25Y49.58
X25.25Y39.42
X27.96Y171.39
X27.96Y161.23
X33.7Y171.39
X33.7Y161.23
X44.02Y183.95
X44.02Y176.33
X44.179Y172.79
X44.179Y165.17
X45.27Y56.89
X45.27Y46.73
X48.81Y53.52
X48.81Y43.36
X49.767Y180.156
X49.767Y169.996
X60.425Y46.689
X60.425Y44.149
X60.425Y41.609
X60.425Y39.069
X66.785Y168.474
X66.785Y160.854
X67.29Y184.65
X67.29Y174.49
X68.045Y46.689
X68.045Y44.149
X68.045Y41.609
X68.045Y39.069
X70.976Y172.155
X70.976Y164.535
X75.04Y172.155
X75.04Y164.535
X82.073Y17.228
X82.073Y9.608
X86.97Y22.98
X86.97Y15.36
X90.46Y93.288
X90.46Y83.128
X91.598Y22.943
X91.598Y12.783
X92.693Y73.603
X92.693Y63.443
X97.44Y23.07
X97.44Y12.91
X103.536Y25.61
X103.536Y17.99
X107.66Y17.68
X107.66Y10.06
X126.4Y52.56
X126.4Y42.4
X139.81Y52.56
X139.81Y42.4
X191.01Y102.36
X191.01Y92.2
X217.56Y179.56
X217.56Y169.4
X260.143Y21.931
X260.143Y11.771
X317.879Y67.522
X317.879Y64.982
X317.879Y62.442
X317.879Y59.902
X317.879Y57.362
X317.879Y54.822
X317.879Y52.282
X317.879Y49.742
X318.006Y93.303
X318.006Y90.763
X318.006Y88.223
X318.006Y85.683
X318.006Y83.143
X318.006Y80.603
X318.006Y78.063
X318.006Y75.523
X318.26Y143.849
X318.26Y141.309
X318.26Y138.769
X318.26Y136.229
X318.26Y133.689
X318.26Y131.149
X318.26Y128.609
X318.26Y126.069
X318.499Y119.196
X318.499Y116.656
X318.499Y114.116
X318.499Y111.576
X318.499Y109.036
X318.499Y106.496
X318.499Y103.956
X318.499Y101.416
X325.499Y67.522
X325.499Y64.982
X325.499Y62.442
X325.499Y59.902
X325.499Y57.362
X325.499Y54.822
X325.499Y52.282
X325.499Y49.742
X325.626Y93.303
X325.626Y90.763
X325.626Y88.223
X325.626Y85.683
X325.626Y83.143
X325.626Y80.603
X325.626Y78.063
X325.626Y75.523
X325.88Y143.849
X325.88Y141.309
X325.88Y138.769
X325.88Y136.229
X325.88Y133.689
X325.88Y131.149
X325.88Y128.609
X325.88Y126.069
X326.119Y119.196
X326.119Y116.656
X326.119Y114.116
X326.119Y111.576
X326.119Y109.036
X326.119Y106.496
X326.119Y103.956
X326.119Y101.416
X335.659Y167.852
X335.659Y165.312
X335.659Y162.772
X335.659Y160.232
X335.659Y157.692
X335.659Y155.152
X335.659Y152.612
X335.659Y150.072
X336.66Y189.427
X336.66Y179.267
X342.263Y109.432
X342.263Y106.892
X342.263Y104.352
X342.263Y101.812
X342.263Y99.272
X342.263Y96.732
X342.263Y94.192
X342.263Y91.652
X343.279Y167.852
X343.279Y165.312
X343.279Y162.772
X343.279Y160.232
X343.279Y157.692
X343.279Y155.152
X343.279Y152.612
X343.279Y150.072
X349.04Y155.16
X349.04Y145.0
X349.106Y189.173
X349.106Y179.013
X349.24Y132.2
X349.24Y122.04
X349.883Y109.432
X349.883Y106.892
X349.883Y104.352
X349.883Y101.812
X349.883Y99.272
X349.883Y96.732
X349.883Y94.192
X349.883Y91.652
X361.552Y189.046
X361.552Y178.886
X364.24Y83.03
X364.24Y72.87
X365.646Y62.81
X365.646Y52.65
X386.038Y179.955
X386.038Y169.795
T6
X317.45Y13.46
X319.99Y13.46
X342.88Y13.6
X345.42Y13.6
X368.54Y13.45
X371.08Y13.45
X393.63Y13.51
X396.17Y13.51
T7
X4.042Y189.681
X6.582Y189.681
X11.662Y189.681
X14.202Y189.681
X14.401Y115.649
X14.401Y113.1
X14.401Y108.029
X14.401Y105.489
X14.401Y102.94
X14.401Y100.4
X14.401Y95.329
X14.401Y92.789
X14.401Y90.494
X14.401Y87.7
X14.401Y82.62
X14.401Y80.089
X14.401Y75.009
X15.64Y176.93
X15.701Y168.853
X17.001Y115.649
X17.001Y113.1
X17.001Y108.029
X17.001Y105.489
X17.001Y102.94
X17.001Y100.4
X17.001Y95.329
X17.001Y92.789
X17.001Y90.494
X17.001Y87.7
X17.001Y82.62
X17.001Y80.089
X17.001Y75.009
X18.24Y176.93
X18.301Y168.853
X24.2Y147.326
X24.297Y144.151
X24.297Y140.849
X24.297Y137.547
X24.297Y132.975
X26.8Y147.326
X26.897Y144.151
X26.897Y140.849
X26.897Y137.547
X26.897Y132.975
X31.703Y144.612
X31.703Y140.167
X31.703Y135.722
X31.703Y132.785
X34.303Y144.612
X34.303Y140.167
X34.303Y135.722
X34.303Y132.785
X37.49Y171.55
X40.09Y171.55
X45.77Y115.64
X45.77Y113.1
X45.77Y108.02
X45.77Y105.489
X45.77Y102.949
X45.77Y100.4
X45.77Y95.32
X45.77Y92.789
X45.77Y90.24
X45.77Y87.709
X45.77Y82.62
X45.77Y80.08
X45.77Y77.54
X45.77Y75.009
X45.77Y69.929
X45.77Y67.389
X48.37Y115.64
X48.37Y113.1
X48.37Y108.02
X48.37Y105.489
X48.37Y102.949
X48.37Y100.4
X48.37Y95.32
X48.37Y92.789
X48.37Y90.24
X48.37Y87.709
X48.37Y82.62
X48.37Y80.08
X48.37Y77.54
X48.37Y75.009
X48.37Y69.929
X48.37Y67.389
X53.23Y22.08
X54.309Y47.949
X54.309Y44.647
X54.309Y41.091
X54.309Y37.789
X55.83Y22.08
X56.909Y47.949
X56.909Y44.647
X56.909Y41.091
X56.909Y37.789
X69.53Y22.19
X72.13Y22.19
X72.388Y46.83
X72.388Y43.377
X73.359Y183.331
X73.359Y180.156
X74.988Y46.83
X74.988Y43.377
X74.988Y39.567
X74.988Y36.967
X75.959Y183.331
X75.959Y180.156
X80.882Y178.662
X80.882Y176.062
X82.62Y145.81
X82.62Y143.25
X82.62Y140.51
X82.62Y137.62
X82.62Y134.89
X82.63Y132.52
X82.7Y129.91
X84.311Y178.662
X84.311Y176.062
X85.22Y145.81
X85.22Y143.25
X85.22Y140.51
X85.22Y137.62
X85.22Y134.89
X85.23Y132.52
X85.3Y129.91
X87.613Y178.662
X87.613Y176.062
X90.788Y178.662
X90.788Y176.062
X94.217Y175.868
X94.217Y173.268
X94.83Y45.62
X95.981Y109.514
X95.981Y106.974
X95.981Y101.894
X95.981Y99.354
X95.981Y96.814
X95.981Y94.274
X95.981Y92.18
X95.981Y86.654
X95.981Y84.114
X95.981Y81.574
X95.981Y76.494
X95.981Y68.874
X97.138Y174.598
X97.138Y171.998
X97.43Y45.62
X97.519Y179.805
X97.519Y177.205
X98.581Y109.514
X98.581Y106.974
X98.581Y101.894
X98.581Y99.354
X98.581Y96.814
X98.581Y94.274
X98.581Y92.18
X98.581Y86.654
X98.581Y84.114
X98.581Y81.574
X98.581Y76.494
X98.581Y68.874
X100.059Y179.805
X100.059Y177.205
X100.059Y174.471
X100.059Y171.871
X102.599Y179.805
X102.599Y177.205
X102.599Y174.471
X102.599Y171.871
X102.599Y169.137
X102.599Y166.537
X103.076Y14.722
X103.076Y12.122
X105.139Y179.805
X105.139Y177.205
X105.139Y174.471
X105.139Y171.871
X105.139Y169.137
X105.139Y166.537
X107.679Y179.805
X107.679Y177.205
X107.679Y174.471
X107.679Y171.871
X107.679Y169.137
X107.679Y166.537
X108.12Y24.19
X108.12Y21.59
X110.219Y179.805
X110.219Y177.205
X110.219Y174.471
X110.219Y171.871
X110.219Y169.137
X110.219Y166.537
X112.759Y179.805
X112.759Y177.205
X112.759Y174.471
X112.759Y171.871
X112.759Y169.137
X112.759Y166.537
X115.299Y179.805
X115.299Y177.205
X115.299Y174.471
X115.299Y171.871
X115.299Y169.137
X115.299Y166.537
X117.839Y179.805
X117.839Y177.205
X117.839Y174.471
X117.839Y171.871
X117.839Y169.137
X117.839Y166.537
X120.125Y12.339
X120.379Y179.805
X120.379Y177.205
X120.379Y174.471
X120.379Y171.871
X120.379Y169.137
X120.379Y166.537
X121.395Y14.879
X122.665Y12.339
X122.919Y179.805
X122.919Y177.205
X122.919Y174.471
X122.919Y171.871
X122.919Y169.137
X122.919Y166.537
X123.935Y14.879
X125.205Y179.805
X125.205Y177.205
X125.205Y12.339
X125.459Y174.471
X125.459Y171.871
X126.475Y14.879
X127.731Y109.514
X127.731Y106.974
X127.731Y101.894
X127.731Y99.354
X127.731Y96.814
X127.731Y94.274
X127.731Y90.361
X127.731Y86.654
X127.731Y84.114
X127.731Y81.574
X127.731Y76.494
X127.731Y73.954
X127.731Y71.414
X127.731Y68.874
X127.731Y63.794
X127.731Y61.254
X127.745Y12.339
X128.761Y179.805
X128.761Y177.205
X129.015Y169.137
X129.015Y166.537
X129.015Y14.879
X130.331Y109.514
X130.331Y106.974
X130.331Y101.894
X130.331Y99.354
X130.331Y96.814
X130.331Y94.274
X130.331Y90.361
X130.331Y86.654
X130.331Y84.114
X130.331Y81.574
X130.331Y76.494
X130.331Y73.954
X130.331Y71.414
X130.331Y68.874
X130.331Y63.794
X130.331Y61.254
X131.809Y179.805
X131.809Y177.205
X131.809Y174.471
X131.809Y171.871
X131.809Y169.137
X131.809Y166.537
X135.365Y174.471
X135.365Y171.871
X135.365Y169.137
X135.365Y166.537
X135.619Y179.805
X135.619Y177.205
X137.547Y88.491
X137.547Y85.443
X137.547Y81.95
X137.547Y78.458
X137.671Y72.552
X137.671Y68.107
X137.671Y63.662
X137.671Y59.852
X137.801Y110.4
X137.801Y105.828
X137.801Y101.383
X137.801Y97.7
X138.159Y179.805
X138.159Y177.205
X138.159Y174.471
X138.159Y171.871
X138.159Y169.137
X138.159Y166.537
X140.147Y88.491
X140.147Y85.443
X140.147Y81.95
X140.147Y78.458
X140.271Y72.552
X140.271Y68.107
X140.271Y63.662
X140.271Y59.852
X140.401Y110.4
X140.401Y105.828
X140.401Y101.383
X140.401Y97.7
X140.699Y179.805
X140.699Y177.205
X140.699Y174.471
X140.699Y171.871
X143.493Y179.805
X143.493Y177.205
X143.493Y174.471
X143.493Y171.871
X145.779Y179.805
X145.779Y177.205
X145.779Y174.471
X145.779Y171.871
X145.779Y169.137
X145.779Y166.537
X148.319Y179.805
X148.319Y177.205
X148.319Y174.471
X148.319Y171.871
X148.319Y169.137
X148.319Y166.537
X150.575Y145.23
X150.575Y142.07
X150.575Y138.98
X150.575Y135.89
X150.575Y132.75
X150.61Y126.78
X150.859Y179.835
X150.859Y177.235
X150.859Y174.471
X150.859Y171.871
X150.859Y169.137
X150.859Y166.537
X153.175Y145.23
X153.175Y142.07
X153.175Y138.98
X153.175Y135.89
X153.175Y132.75
X153.21Y126.78
X153.399Y179.805
X153.399Y177.205
X153.399Y174.471
X153.399Y171.871
X153.399Y169.137
X153.399Y166.537
X154.32Y20.16
X154.32Y17.56
X155.939Y179.805
X155.939Y177.205
X155.939Y174.471
X155.939Y171.871
X155.939Y169.137
X155.939Y166.537
X157.622Y20.16
X157.622Y17.56
X158.278Y110.4
X158.402Y72.552
X158.402Y68.742
X158.402Y64.297
X158.402Y59.852
X158.405Y97.7
X158.405Y87.856
X158.405Y84.808
X158.405Y81.506
X158.405Y78.458
X158.479Y179.805
X158.479Y177.205
X158.479Y174.471
X158.479Y171.871
X158.479Y169.137
X158.479Y166.537
X158.532Y106.463
X158.532Y102.018
X160.878Y110.4
X161.002Y72.552
X161.002Y68.742
X161.002Y64.297
X161.002Y59.852
X161.005Y97.7
X161.005Y87.856
X161.005Y84.808
X161.005Y81.506
X161.005Y78.458
X161.019Y179.805
X161.019Y177.205
X161.019Y174.471
X161.019Y171.871
X161.019Y169.137
X161.019Y166.537
X161.132Y106.463
X161.132Y102.018
X163.559Y179.805
X163.559Y177.205
X163.559Y174.471
X163.559Y171.871
X163.559Y169.137
X163.559Y166.537
X163.559Y28.675
X163.559Y26.075
X166.099Y179.805
X166.099Y177.205
X166.099Y174.471
X166.099Y171.871
X166.099Y169.137
X166.099Y166.537
X166.353Y28.675
X166.353Y26.075
X168.639Y179.835
X168.639Y177.235
X168.639Y174.471
X168.639Y171.871
X168.639Y169.137
X168.639Y166.537
X168.893Y28.675
X168.893Y26.075
X171.179Y179.805
X171.179Y177.205
X171.179Y174.471
X171.179Y171.871
X171.179Y169.137
X171.179Y166.537
X171.687Y28.675
X171.687Y26.075
X173.719Y179.805
X173.719Y177.205
X173.719Y174.441
X173.719Y171.841
X173.719Y169.137
X173.719Y166.537
X178.515Y172.79
X178.515Y169.615
X178.515Y166.821
X180.323Y24.103
X180.323Y21.503
X181.115Y172.79
X181.115Y169.615
X181.115Y166.821
X182.863Y24.103
X182.863Y21.503
X184.423Y9.341
X184.611Y146.374
X184.611Y143.453
X185.403Y24.103
X185.403Y21.503
X187.023Y9.341
X187.211Y146.374
X187.211Y143.453
X187.943Y24.103
X187.943Y21.503
X189.45Y16.0
X191.88Y87.026
X191.88Y84.426
X191.88Y70.389
X191.88Y67.789
X192.007Y52.99
X192.007Y50.39
X192.05Y16.0
X195.025Y144.596
X195.025Y141.802
X196.96Y185.49
X196.96Y182.315
X196.96Y178.632
X196.96Y173.806
X196.96Y169.234
X196.96Y165.551
X197.625Y144.596
X197.625Y141.802
X199.56Y185.49
X199.56Y182.315
X199.56Y178.632
X199.56Y173.806
X199.56Y169.234
X199.56Y165.551
X203.66Y187.48
X203.661Y190.951
X203.661Y184.474
X206.26Y187.48
X206.261Y190.951
X206.261Y184.474
X206.358Y145.231
X206.358Y142.631
X206.358Y128.594
X206.358Y125.994
X206.358Y73.056
X206.358Y70.456
X206.47Y91.916
X206.47Y89.316
X206.485Y111.195
X206.485Y108.595
X206.597Y53.054
X206.597Y50.454
X206.597Y47.339
X206.597Y44.739
X207.105Y86.709
X207.105Y84.109
X207.247Y67.595
X207.247Y64.995
X220.709Y92.106
X220.709Y89.506
X220.709Y86.893
X220.709Y84.293
X220.836Y131.261
X220.836Y128.661
X220.948Y150.121
X220.948Y147.521
X220.948Y57.372
X220.948Y54.772
X221.075Y111.259
X221.075Y108.659
X221.075Y105.544
X221.075Y102.944
X221.075Y52.165
X221.075Y49.565
X221.21Y175.08
X221.583Y144.914
X221.583Y142.314
X221.598Y67.341
X221.598Y64.741
X221.598Y47.085
X221.598Y44.485
X221.725Y125.8
X221.725Y123.2
X221.725Y72.929
X221.725Y70.329
X222.838Y38.579
X223.81Y175.08
X225.438Y38.579
X228.812Y179.551
X228.812Y176.951
X228.837Y169.264
X228.837Y166.664
X228.862Y174.441
X228.862Y171.841
X231.353Y179.551
X231.353Y176.951
X231.377Y169.264
X231.377Y166.664
X231.401Y174.441
X231.401Y171.841
X233.894Y179.551
X233.894Y176.951
X233.917Y169.264
X233.917Y166.664
X233.94Y174.441
X233.94Y171.841
X235.187Y150.311
X235.187Y147.711
X235.187Y145.098
X235.187Y142.498
X235.187Y52.984
X235.187Y50.384
X235.426Y115.577
X235.426Y112.977
X235.553Y110.37
X235.553Y107.77
X235.949Y57.683
X235.949Y55.083
X235.949Y47.275
X235.949Y44.675
X236.076Y125.546
X236.076Y122.946
X236.076Y105.29
X236.076Y102.69
X236.203Y131.134
X236.203Y128.534
X236.203Y90.074
X236.203Y87.474
X236.203Y69.119
X236.203Y66.519
X236.436Y179.551
X236.436Y176.951
X236.457Y169.264
X236.457Y166.664
X236.479Y174.441
X236.479Y171.841
X237.316Y97.449
X238.977Y179.551
X238.977Y176.951
X238.997Y169.264
X238.997Y166.664
X239.018Y174.441
X239.018Y171.841
X239.916Y97.449
X241.519Y179.551
X241.519Y176.951
X241.537Y169.264
X241.537Y166.664
X241.557Y174.441
X241.557Y171.841
X242.187Y86.777
X242.187Y84.177
X242.187Y70.14
X242.187Y67.54
X242.314Y52.741
X242.314Y50.141
X244.06Y179.551
X244.06Y176.951
X244.077Y169.264
X244.077Y166.664
X244.096Y174.441
X244.096Y171.841
X246.601Y179.551
X246.601Y176.951
X246.617Y169.264
X246.617Y166.664
X246.635Y174.441
X246.635Y171.841
X249.143Y179.551
X249.143Y176.951
X249.157Y169.264
X249.157Y166.664
X249.174Y174.441
X249.174Y171.841
X249.665Y111.189
X249.665Y108.589
X250.427Y115.888
X250.427Y113.288
X250.427Y105.48
X250.427Y102.88
X250.681Y148.279
X250.681Y145.679
X250.681Y127.324
X250.681Y124.724
X251.684Y179.551
X251.684Y176.951
X251.697Y169.264
X251.697Y166.664
X251.712Y174.441
X251.712Y171.841
X254.226Y179.551
X254.226Y176.951
X254.237Y169.294
X254.237Y166.694
X254.251Y174.441
X254.251Y171.841
X256.65Y145.37
X256.65Y142.77
X256.65Y128.733
X256.65Y126.133
X256.665Y72.807
X256.665Y70.207
X256.665Y51.725
X256.665Y49.125
X256.767Y179.551
X256.767Y176.951
X256.777Y169.294
X256.777Y166.694
X256.777Y111.334
X256.777Y108.734
X256.79Y174.441
X256.79Y171.841
X257.133Y47.039
X257.133Y44.439
X257.412Y91.54
X257.412Y88.94
X257.412Y86.46
X257.412Y83.86
X257.554Y67.346
X257.554Y64.746
X259.309Y179.551
X259.309Y176.951
X259.317Y174.441
X259.317Y171.841
X259.317Y169.294
X259.317Y166.694
X261.85Y179.551
X261.85Y176.951
X261.857Y169.264
X261.857Y166.664
X261.868Y174.441
X261.868Y171.841
X264.391Y179.551
X264.391Y176.951
X264.397Y169.264
X264.397Y166.664
X264.407Y174.441
X264.407Y171.841
X266.933Y179.551
X266.933Y176.951
X266.937Y169.264
X266.937Y166.664
X266.946Y174.441
X266.946Y171.841
X269.474Y179.551
X269.474Y176.951
X269.485Y174.441
X269.485Y171.841
X269.604Y169.264
X269.604Y166.664
X271.016Y91.857
X271.016Y89.257
X271.016Y86.644
X271.016Y84.044
X271.016Y55.656
X271.016Y53.056
X271.128Y131.4
X271.128Y128.8
X271.128Y110.318
X271.128Y107.718
X271.905Y67.092
X271.905Y64.492
X271.905Y50.455
X271.905Y47.855
X272.016Y179.551
X272.016Y176.951
X272.017Y148.164
X272.017Y145.564
X272.017Y143.084
X272.017Y140.484
X272.017Y125.939
X272.017Y123.339
X272.017Y104.73
X272.017Y102.13
X272.024Y174.441
X272.024Y171.841
X272.032Y72.68
X272.032Y70.08
X272.144Y169.264
X272.144Y166.664
X272.347Y45.54
X272.347Y42.94
X274.557Y179.551
X274.557Y176.951
X274.557Y169.264
X274.557Y166.664
X274.563Y174.441
X274.563Y171.841
X276.043Y38.791
X277.097Y179.551
X277.097Y176.951
X277.097Y169.264
X277.097Y166.664
X277.101Y174.441
X277.101Y171.841
X278.643Y38.791
X279.637Y179.551
X279.637Y176.951
X279.637Y169.264
X279.637Y166.664
X279.64Y174.441
X279.64Y171.841
X282.177Y179.551
X282.177Y176.951
X282.177Y169.264
X282.177Y166.664
X282.179Y174.441
X282.179Y171.841
X284.717Y179.551
X284.717Y176.951
X284.717Y169.264
X284.717Y166.664
X284.718Y174.441
X284.718Y171.841
X285.479Y114.249
X285.479Y111.649
X285.494Y52.735
X285.494Y50.135
X286.114Y143.61
X286.114Y141.01
X286.256Y57.434
X286.256Y54.834
X286.256Y47.026
X286.256Y44.426
X286.368Y125.685
X286.368Y123.085
X286.368Y109.048
X286.368Y106.448
X286.368Y104.095
X286.368Y101.495
X286.495Y148.817
X286.495Y146.217
X286.495Y131.273
X286.495Y128.673
X286.51Y89.825
X286.51Y87.225
X286.51Y68.87
X286.51Y66.27
X287.257Y179.551
X287.257Y176.951
X287.257Y174.441
X287.257Y171.841
X287.257Y169.264
X287.257Y166.664
X287.608Y97.352
X290.208Y97.352
X292.337Y179.551
X292.337Y176.951
X292.464Y174.344
X292.464Y171.744
X292.464Y169.264
X292.464Y166.664
X294.877Y169.264
X294.877Y166.664
X294.898Y179.551
X294.898Y176.951
X297.417Y174.344
X297.417Y171.744
X297.459Y179.551
X297.459Y176.951
X297.544Y169.264
X297.544Y166.664
X300.592Y116.559
X300.592Y113.959
X300.592Y111.328
X300.592Y108.728
X300.719Y147.039
X300.719Y144.439
X300.719Y105.619
X300.719Y103.019
X300.973Y127.463
X300.973Y124.863
X306.561Y178.535
X306.561Y175.935
X309.863Y178.535
X309.863Y175.935
X310.849Y64.967
X310.849Y62.427
X310.849Y59.887
X310.849Y57.347
X310.849Y54.807
X310.849Y52.267
X310.849Y49.727
X311.357Y114.116
X311.357Y109.036
X311.357Y103.956
X311.439Y111.561
X311.469Y116.641
X311.469Y106.481
X311.469Y101.401
X311.611Y90.748
X311.611Y88.208
X311.611Y85.668
X311.611Y83.128
X311.611Y80.588
X311.611Y78.048
X311.611Y75.508
X311.88Y141.294
X311.88Y138.769
X311.88Y136.214
X311.88Y133.689
X311.88Y131.134
X311.88Y128.609
X311.88Y126.069
X312.403Y178.535
X312.403Y175.935
X313.449Y64.967
X313.449Y62.427
X313.449Y59.887
X313.449Y57.347
X313.449Y54.807
X313.449Y52.267
X313.449Y49.727
X313.957Y114.116
X313.957Y109.036
X313.957Y103.956
X314.039Y111.561
X314.069Y116.641
X314.069Y106.481
X314.069Y101.401
X314.211Y90.748
X314.211Y88.208
X314.211Y85.668
X314.211Y83.128
X314.211Y80.588
X314.211Y78.048
X314.211Y75.508
X314.48Y141.294
X314.48Y138.769
X314.48Y136.214
X314.48Y133.689
X314.48Y131.134
X314.48Y128.609
X314.48Y126.069
X319.875Y178.632
X319.875Y176.032
X321.941Y28.111
X321.941Y25.511
X322.436Y178.632
X322.436Y176.032
X324.989Y28.111
X324.989Y25.511
X326.098Y178.662
X326.098Y176.062
X328.151Y184.377
X328.151Y181.777
X328.659Y178.662
X328.659Y176.062
X329.264Y165.297
X329.264Y162.757
X329.264Y160.217
X329.264Y157.677
X329.264Y155.137
X329.264Y152.597
X329.264Y150.057
X330.818Y184.377
X330.818Y181.777
X331.864Y165.297
X331.864Y162.757
X331.864Y160.217
X331.864Y157.677
X331.864Y155.137
X331.864Y152.597
X331.864Y150.057
X335.853Y101.812
X335.853Y96.732
X335.868Y106.892
X335.868Y104.352
X335.868Y99.272
X335.868Y94.192
X335.868Y91.637
X338.453Y101.812
X338.453Y96.732
X338.468Y106.892
X338.468Y104.352
X338.468Y99.272
X338.468Y94.192
X338.468Y91.637
X341.583Y180.41
X342.756Y28.391
X342.756Y25.791
X344.183Y180.41
X345.677Y28.421
X345.677Y25.821
X352.353Y162.632
X352.353Y160.016
X352.353Y155.012
X352.353Y152.472
X352.353Y149.932
X352.353Y147.316
X352.353Y142.312
X352.353Y139.95
X352.353Y137.41
X352.353Y134.692
X352.353Y129.612
X352.353Y127.072
X352.353Y121.992
X354.029Y180.156
X354.953Y162.632
X354.953Y160.016
X354.953Y155.012
X354.953Y152.472
X354.953Y149.932
X354.953Y147.316
X354.953Y142.312
X354.953Y139.95
X354.953Y137.41
X354.953Y134.692
X354.953Y129.612
X354.953Y127.072
X354.953Y121.992
X356.629Y180.156
X366.475Y180.029
X367.93Y29.2
X367.93Y26.6
X369.075Y180.029
X369.629Y93.544
X369.629Y80.844
X369.629Y60.524
X369.65Y55.571
X369.68Y96.16
X369.68Y88.464
X369.68Y85.746
X369.68Y75.764
X369.68Y73.3
X369.68Y70.684
X369.68Y68.144
X369.68Y63.064
X369.747Y83.384
X370.442Y29.183
X370.442Y26.583
X372.229Y93.544
X372.229Y80.844
X372.229Y60.524
X372.25Y55.571
X372.28Y96.16
X372.28Y88.464
X372.28Y85.746
X372.28Y75.764
X372.28Y73.3
X372.28Y70.684
X372.28Y68.144
X372.28Y63.064
X372.347Y83.384
X382.752Y121.967
X382.782Y160.067
X382.782Y147.367
X382.782Y139.747
X382.782Y134.667
X382.782Y114.347
X382.833Y162.607
X382.833Y154.987
X382.833Y149.83
X382.833Y142.287
X382.833Y137.384
X382.833Y129.587
X382.833Y126.97
X382.833Y124.43
X382.833Y116.887
X382.883Y152.32
X385.352Y121.967
X385.382Y160.067
X385.382Y147.367
X385.382Y139.747
X385.382Y134.667
X385.382Y114.347
X385.433Y162.607
X385.433Y154.987
X385.433Y149.83
X385.433Y142.287
X385.433Y137.384
X385.433Y129.587
X385.433Y126.97
X385.433Y124.43
X385.433Y116.887
X385.483Y152.32
X386.636Y29.35
X386.636Y26.75
X389.45Y29.35
X389.45Y26.75
X398.383Y189.681
X399.779Y96.084
X399.779Y93.544
X399.779Y88.464
X399.779Y85.924
X399.779Y83.384
X399.779Y80.844
X399.779Y75.764
X399.779Y73.224
X399.779Y70.684
X399.779Y68.144
X399.779Y63.064
X399.779Y60.524
X399.779Y57.984
X399.779Y55.444
X399.779Y50.364
X399.779Y47.824
X400.923Y189.681
X402.379Y96.084
X402.379Y93.544
X402.379Y88.464
X402.379Y85.924
X402.379Y83.384
X402.379Y80.844
X402.379Y75.764
X402.379Y73.224
X402.379Y70.684
X402.379Y68.144
X402.379Y63.064
X402.379Y60.524
X402.379Y57.984
X402.379Y55.444
X402.379Y50.364
X402.379Y47.824
T8
X148.44Y10.047
X148.44Y8.047
X150.94Y10.047
X150.94Y8.047
T9
X20.644Y147.408
X20.644Y144.868
X20.644Y142.328
X20.644Y139.788
X20.644Y137.248
X20.644Y134.708
X38.083Y145.231
X38.083Y142.691
X38.083Y140.151
X38.083Y137.611
X38.083Y135.071
X38.083Y132.531
X46.84Y39.01
X46.84Y36.47
X46.84Y33.93
X54.657Y179.272
X54.657Y176.732
X54.657Y174.192
X54.657Y171.652
X54.657Y169.112
X57.051Y4.352
X58.436Y1.512
X58.449Y75.297
X58.449Y72.757
X58.449Y70.217
X58.449Y67.677
X58.449Y65.137
X58.449Y62.597
X58.449Y60.057
X58.449Y57.517
X58.449Y54.977
X58.449Y52.437
X58.471Y104.074
X58.471Y101.534
X58.471Y98.994
X58.471Y96.454
X58.471Y93.914
X58.471Y91.374
X58.471Y88.834
X58.471Y86.294
X58.471Y83.754
X58.471Y81.214
X58.733Y30.035
X58.733Y21.116
X58.784Y132.531
X58.784Y129.991
X58.784Y127.451
X58.784Y124.911
X58.784Y122.371
X58.784Y119.831
X58.784Y117.291
X58.784Y114.751
X58.784Y112.211
X58.784Y109.671
X59.821Y4.352
X61.206Y1.512
X61.273Y30.035
X61.273Y21.116
X62.277Y179.272
X62.277Y176.732
X62.277Y174.192
X62.277Y171.652
X62.277Y169.112
X62.591Y4.352
X63.813Y30.035
X63.813Y21.116
X63.976Y1.512
X65.361Y4.352
X66.353Y30.035
X66.353Y21.116
X66.746Y1.512
X68.131Y4.352
X71.149Y75.297
X71.149Y72.757
X71.149Y70.217
X71.149Y67.677
X71.149Y65.137
X71.149Y62.597
X71.149Y60.057
X71.149Y57.517
X71.149Y54.977
X71.149Y52.437
X71.171Y104.079
X71.171Y101.539
X71.171Y98.999
X71.171Y96.459
X71.171Y93.919
X71.171Y91.379
X71.171Y88.839
X71.171Y86.299
X71.171Y83.759
X71.171Y81.219
X71.359Y132.531
X71.359Y129.991
X71.359Y127.451
X71.359Y124.911
X71.359Y122.371
X71.359Y119.831
X71.359Y117.291
X71.359Y114.751
X71.359Y112.211
X71.359Y109.671
X89.01Y145.36
X89.01Y142.82
X89.01Y140.28
X89.01Y137.74
X89.01Y135.2
X89.01Y132.66
X89.01Y130.12
X89.01Y127.58
X94.852Y188.335
X94.852Y185.795
X94.852Y183.255
X97.392Y188.335
X97.392Y185.795
X97.392Y183.255
X99.932Y188.335
X99.932Y185.795
X99.932Y183.255
X102.472Y188.335
X102.472Y185.795
X102.472Y183.255
X105.012Y188.335
X105.012Y185.795
X105.012Y183.255
X107.552Y188.335
X107.552Y185.795
X107.552Y183.255
X110.092Y188.335
X110.092Y185.795
X110.092Y183.255
X112.632Y188.335
X112.632Y185.795
X112.632Y183.255
X115.172Y188.335
X115.172Y185.795
X115.172Y183.255
X117.712Y188.335
X117.712Y185.795
X117.712Y183.255
X120.252Y188.335
X120.252Y185.795
X120.252Y183.255
X122.792Y188.335
X122.792Y185.795
X122.792Y183.255
X125.332Y188.335
X125.332Y185.795
X125.332Y183.255
X127.872Y188.335
X127.872Y185.795
X127.872Y183.255
X130.412Y188.335
X130.412Y185.795
X130.412Y183.255
X132.952Y188.335
X132.952Y185.795
X132.952Y183.255
X135.492Y188.335
X135.492Y185.795
X135.492Y183.255
X138.032Y188.335
X138.032Y185.795
X138.032Y183.255
X140.572Y188.335
X140.572Y185.795
X140.572Y183.255
X143.112Y188.335
X143.112Y185.795
X143.112Y183.255
X143.856Y110.243
X143.856Y107.703
X143.856Y105.163
X143.856Y102.623
X143.856Y100.083
X143.856Y97.543
X143.862Y91.221
X143.862Y88.681
X143.862Y86.141
X143.862Y83.601
X143.862Y81.061
X143.862Y78.521
X144.148Y72.552
X144.148Y70.012
X144.148Y67.472
X144.148Y64.932
X144.148Y62.392
X144.148Y59.852
X145.652Y188.335
X145.652Y185.795
X145.652Y183.255
X147.43Y145.36
X147.43Y142.82
X147.43Y140.28
X147.43Y137.74
X147.43Y135.2
X147.43Y132.66
X147.43Y130.12
X147.43Y127.58
X148.192Y188.335
X148.192Y185.795
X148.192Y183.255
X150.732Y188.335
X150.732Y185.795
X150.732Y183.255
X153.272Y188.335
X153.272Y185.795
X153.272Y183.255
X154.27Y110.243
X154.27Y107.703
X154.27Y105.163
X154.27Y102.623
X154.27Y100.083
X154.27Y97.543
X154.276Y91.221
X154.276Y88.681
X154.276Y86.141
X154.276Y83.601
X154.276Y81.061
X154.276Y78.521
X154.308Y72.552
X154.308Y70.012
X154.308Y67.472
X154.308Y64.932
X154.308Y62.392
X154.308Y59.852
X155.695Y46.679
X155.812Y188.335
X155.812Y185.795
X155.812Y183.255
X158.352Y188.335
X158.352Y185.795
X158.352Y183.255
X160.892Y188.335
X160.892Y185.795
X160.892Y183.255
X163.295Y46.679
X163.432Y188.335
X163.432Y185.795
X163.432Y183.255
X165.972Y188.335
X165.972Y185.795
X165.972Y183.255
X168.512Y188.335
X168.512Y185.795
X168.512Y183.255
X171.052Y188.335
X171.052Y185.795
X171.052Y183.255
X173.592Y188.335
X173.592Y185.795
X173.592Y183.255
X185.34Y176.097
X185.34Y173.557
X185.34Y171.017
X185.34Y168.477
X185.34Y165.937
X192.96Y176.097
X192.96Y173.557
X192.96Y171.017
X192.96Y168.477
X192.96Y165.937
X195.69Y92.076
X195.69Y89.536
X195.69Y86.996
X195.69Y84.456
X195.69Y81.916
X195.69Y72.79
X195.69Y70.25
X195.69Y67.71
X195.69Y65.17
X195.69Y62.63
X195.69Y53.462
X195.69Y50.922
X195.69Y48.382
X195.69Y45.842
X195.69Y43.302
X203.31Y92.076
X203.31Y89.536
X203.31Y86.996
X203.31Y84.456
X203.31Y81.916
X203.31Y72.79
X203.31Y70.25
X203.31Y67.71
X203.31Y65.17
X203.31Y62.63
X203.31Y53.462
X203.31Y50.922
X203.31Y48.382
X203.31Y45.842
X203.31Y43.302
X204.644Y179.78
X204.644Y177.24
X204.644Y174.7
X204.644Y172.16
X204.644Y169.62
X210.168Y150.281
X210.168Y147.741
X210.168Y145.201
X210.168Y142.661
X210.168Y140.121
X210.168Y130.995
X210.168Y128.455
X210.168Y125.915
X210.168Y123.375
X210.168Y120.835
X210.168Y111.667
X210.168Y109.127
X210.168Y106.587
X210.168Y104.047
X210.168Y101.507
X210.168Y53.305
X210.168Y50.765
X210.168Y48.225
X210.168Y45.685
X210.168Y43.145
X210.176Y92.076
X210.176Y89.536
X210.176Y86.996
X210.176Y84.456
X210.176Y81.916
X210.176Y72.657
X210.176Y70.117
X210.176Y67.577
X210.176Y65.037
X210.176Y62.497
X212.264Y179.78
X212.264Y177.24
X212.264Y174.7
X212.264Y172.16
X212.264Y169.62
X217.788Y150.281
X217.788Y147.741
X217.788Y145.201
X217.788Y142.661
X217.788Y140.121
X217.788Y130.995
X217.788Y128.455
X217.788Y125.915
X217.788Y123.375
X217.788Y120.835
X217.788Y111.667
X217.788Y109.127
X217.788Y106.587
X217.788Y104.047
X217.788Y101.507
X217.788Y53.305
X217.788Y50.765
X217.788Y48.225
X217.788Y45.685
X217.788Y43.145
X217.796Y92.076
X217.796Y89.536
X217.796Y86.996
X217.796Y84.456
X217.796Y81.916
X217.796Y72.657
X217.796Y70.117
X217.796Y67.577
X217.796Y65.037
X217.796Y62.497
X224.646Y111.51
X224.646Y108.97
X224.646Y106.43
X224.646Y103.89
X224.646Y101.35
X224.646Y92.018
X224.646Y89.478
X224.646Y86.938
X224.646Y84.398
X224.646Y81.858
X224.646Y72.669
X224.646Y70.129
X224.646Y67.589
X224.646Y65.049
X224.646Y62.509
X224.654Y150.281
X224.654Y147.741
X224.654Y145.201
X224.654Y142.661
X224.654Y140.121
X224.654Y130.863
X224.654Y128.323
X224.654Y125.783
X224.654Y123.243
X224.654Y120.703
X224.661Y53.189
X224.661Y50.649
X224.661Y48.109
X224.661Y45.569
X224.661Y43.029
X228.888Y188.335
X228.888Y185.795
X228.888Y183.255
X231.428Y188.335
X231.428Y185.795
X231.428Y183.255
X232.266Y111.51
X232.266Y108.97
X232.266Y106.43
X232.266Y103.89
X232.266Y101.35
X232.266Y92.018
X232.266Y89.478
X232.266Y86.938
X232.266Y84.398
X232.266Y81.858
X232.266Y72.669
X232.266Y70.129
X232.266Y67.589
X232.266Y65.049
X232.266Y62.509
X232.274Y150.281
X232.274Y147.741
X232.274Y145.201
X232.274Y142.661
X232.274Y140.121
X232.274Y130.863
X232.274Y128.323
X232.274Y125.783
X232.274Y123.243
X232.274Y120.703
X232.281Y53.189
X232.281Y50.649
X232.281Y48.109
X232.281Y45.569
X232.281Y43.029
X233.968Y188.335
X233.968Y185.795
X233.968Y183.255
X236.508Y188.335
X236.508Y185.795
X236.508Y183.255
X239.048Y188.335
X239.048Y185.795
X239.048Y183.255
X239.124Y150.223
X239.124Y147.683
X239.124Y145.143
X239.124Y142.603
X239.124Y140.063
X239.124Y130.874
X239.124Y128.334
X239.124Y125.794
X239.124Y123.254
X239.124Y120.714
X239.141Y111.444
X239.141Y108.904
X239.141Y106.364
X239.141Y103.824
X239.141Y101.284
X241.588Y188.335
X241.588Y185.795
X241.588Y183.255
X244.128Y188.335
X244.128Y185.795
X244.128Y183.255
X245.997Y91.827
X245.997Y89.287
X245.997Y86.747
X245.997Y84.207
X245.997Y81.667
X245.997Y72.541
X245.997Y70.001
X245.997Y67.461
X245.997Y64.921
X245.997Y62.381
X245.997Y53.161
X245.997Y50.621
X245.997Y48.081
X245.997Y45.541
X245.997Y43.001
X246.668Y188.335
X246.668Y185.795
X246.668Y183.255
X246.744Y150.223
X246.744Y147.683
X246.744Y145.143
X246.744Y142.603
X246.744Y140.063
X246.744Y130.874
X246.744Y128.334
X246.744Y125.794
X246.744Y123.254
X246.744Y120.714
X246.761Y111.444
X246.761Y108.904
X246.761Y106.364
X246.761Y103.824
X246.761Y101.284
X249.208Y188.335
X249.208Y185.795
X249.208Y183.255
X251.748Y188.335
X251.748Y185.795
X251.748Y183.255
X253.617Y91.827
X253.617Y89.287
X253.617Y86.747
X253.617Y84.207
X253.617Y81.667
X253.617Y72.541
X253.617Y70.001
X253.617Y67.461
X253.617Y64.921
X253.617Y62.381
X253.617Y53.161
X253.617Y50.621
X253.617Y48.081
X253.617Y45.541
X253.617Y43.001
X254.288Y188.335
X254.288Y185.795
X254.288Y183.255
X256.828Y188.335
X256.828Y185.795
X256.828Y183.255
X259.368Y188.335
X259.368Y185.795
X259.368Y183.255
X260.46Y150.42
X260.46Y147.88
X260.46Y145.34
X260.46Y142.8
X260.46Y140.26
X260.46Y131.134
X260.46Y128.594
X260.46Y126.054
X260.46Y123.514
X260.46Y120.974
X260.46Y111.716
X260.46Y109.176
X260.46Y106.636
X260.46Y104.096
X260.46Y101.556
X260.483Y91.827
X260.483Y89.287
X260.483Y86.747
X260.483Y84.207
X260.483Y81.667
X260.483Y72.408
X260.483Y69.868
X260.483Y67.328
X260.483Y64.788
X260.483Y62.248
X260.483Y52.99
X260.483Y50.45
X260.483Y47.91
X260.483Y45.37
X260.483Y42.83
X261.908Y188.335
X261.908Y185.795
X261.908Y183.255
X264.448Y188.335
X264.448Y185.795
X264.448Y183.255
X266.988Y188.335
X266.988Y185.795
X266.988Y183.255
X268.08Y150.42
X268.08Y147.88
X268.08Y145.34
X268.08Y142.8
X268.08Y140.26
X268.08Y131.134
X268.08Y128.594
X268.08Y126.054
X268.08Y123.514
X268.08Y120.974
X268.08Y111.716
X268.08Y109.176
X268.08Y106.636
X268.08Y104.096
X268.08Y101.556
X268.103Y91.827
X268.103Y89.287
X268.103Y86.747
X268.103Y84.207
X268.103Y81.667
X268.103Y72.408
X268.103Y69.868
X268.103Y67.328
X268.103Y64.788
X268.103Y62.248
X268.103Y52.99
X268.103Y50.45
X268.103Y47.91
X268.103Y45.37
X268.103Y42.83
X269.528Y188.335
X269.528Y185.795
X269.528Y183.255
X272.068Y188.335
X272.068Y185.795
X272.068Y183.255
X274.608Y188.335
X274.608Y185.795
X274.608Y183.255
X274.946Y150.42
X274.946Y147.88
X274.946Y145.34
X274.946Y142.8
X274.946Y140.26
X274.946Y131.001
X274.946Y128.461
X274.946Y125.921
X274.946Y123.381
X274.946Y120.841
X274.946Y111.583
X274.946Y109.043
X274.946Y106.503
X274.946Y103.963
X274.946Y101.423
X274.953Y91.769
X274.953Y89.229
X274.953Y86.689
X274.953Y84.149
X274.953Y81.609
X274.97Y72.408
X274.97Y69.868
X274.97Y67.328
X274.97Y64.788
X274.97Y62.248
X274.97Y52.99
X274.97Y50.45
X274.97Y47.91
X274.97Y45.37
X274.97Y42.83
X277.148Y188.335
X277.148Y185.795
X277.148Y183.255
X279.688Y188.335
X279.688Y185.795
X279.688Y183.255
X282.228Y188.335
X282.228Y185.795
X282.228Y183.255
X282.566Y150.42
X282.566Y147.88
X282.566Y145.34
X282.566Y142.8
X282.566Y140.26
X282.566Y131.001
X282.566Y128.461
X282.566Y125.921
X282.566Y123.381
X282.566Y120.841
X282.566Y111.583
X282.566Y109.043
X282.566Y106.503
X282.566Y103.963
X282.566Y101.423
X282.573Y91.769
X282.573Y89.229
X282.573Y86.689
X282.573Y84.149
X282.573Y81.609
X282.59Y72.408
X282.59Y69.868
X282.59Y67.328
X282.59Y64.788
X282.59Y62.248
X282.59Y52.99
X282.59Y50.45
X282.59Y47.91
X282.59Y45.37
X282.59Y42.83
X284.768Y188.335
X284.768Y185.795
X284.768Y183.255
X287.308Y188.335
X287.308Y185.795
X287.308Y183.255
X289.433Y150.42
X289.433Y147.88
X289.433Y145.34
X289.433Y142.8
X289.433Y140.26
X289.433Y131.001
X289.433Y128.461
X289.433Y125.921
X289.433Y123.381
X289.433Y120.841
X289.433Y111.583
X289.433Y109.043
X289.433Y106.503
X289.433Y103.963
X289.433Y101.423
X289.848Y188.335
X289.848Y185.795
X289.848Y183.255
X292.388Y188.335
X292.388Y185.795
X292.388Y183.255
X294.928Y188.335
X294.928Y185.795
X294.928Y183.255
X297.053Y150.42
X297.053Y147.88
X297.053Y145.34
X297.053Y142.8
X297.053Y140.26
X297.053Y131.001
X297.053Y128.461
X297.053Y125.921
X297.053Y123.381
X297.053Y120.841
X297.053Y111.583
X297.053Y109.043
X297.053Y106.503
X297.053Y103.963
X297.053Y101.423
X297.468Y188.335
X297.468Y185.795
X297.468Y183.255
X300.008Y188.335
X300.008Y185.795
X300.008Y183.255
X302.548Y188.335
X302.548Y185.795
X302.548Y183.255
X305.088Y188.335
X305.088Y185.795
X305.088Y183.255
X307.628Y188.335
X307.628Y185.795
X307.628Y183.255
T10
X22.787Y115.599
X22.787Y113.059
X22.787Y110.519
X22.787Y107.979
X22.787Y105.439
X22.787Y102.899
X22.787Y100.359
X22.787Y97.819
X22.787Y95.279
X22.787Y92.739
X22.787Y90.199
X22.787Y87.659
X22.787Y85.119
X22.787Y82.579
X22.787Y80.039
X22.787Y77.499
X22.787Y74.959
X22.787Y72.419
X22.787Y69.879
X22.787Y67.339
X29.137Y115.369
X31.677Y115.369
X34.217Y115.369
X40.567Y115.599
X40.567Y113.059
X40.567Y110.519
X40.567Y107.979
X40.567Y105.439
X40.567Y102.899
X40.567Y100.359
X40.567Y97.819
X40.567Y95.279
X40.567Y92.739
X40.567Y90.199
X40.567Y87.659
X40.567Y85.119
X40.567Y82.579
X40.567Y80.039
X40.567Y77.499
X40.567Y74.959
X40.567Y72.419
X40.567Y69.879
X40.567Y67.339
X104.24Y109.464
X104.24Y106.924
X104.24Y104.384
X104.24Y101.844
X104.24Y99.304
X104.24Y96.764
X104.24Y94.224
X104.24Y91.684
X104.24Y89.144
X104.24Y86.604
X104.24Y84.064
X104.24Y81.524
X104.24Y78.984
X104.24Y76.444
X104.24Y73.904
X104.24Y71.364
X104.24Y68.824
X104.24Y66.284
X104.24Y63.744
X104.24Y61.204
X110.59Y109.234
X113.13Y109.234
X115.67Y109.234
X122.02Y109.464
X122.02Y106.924
X122.02Y104.384
X122.02Y101.844
X122.02Y99.304
X122.02Y96.764
X122.02Y94.224
X122.02Y91.684
X122.02Y89.144
X122.02Y86.604
X122.02Y84.064
X122.02Y81.524
X122.02Y78.984
X122.02Y76.444
X122.02Y73.904
X122.02Y71.364
X122.02Y68.824
X122.02Y66.284
X122.02Y63.744
X122.02Y61.204
X360.332Y162.557
X360.332Y160.017
X360.332Y157.477
X360.332Y154.937
X360.332Y152.397
X360.332Y149.857
X360.332Y147.317
X360.332Y144.777
X360.332Y142.237
X360.332Y139.697
X360.332Y137.157
X360.332Y134.617
X360.332Y132.077
X360.332Y129.537
X360.332Y126.997
X360.332Y124.457
X360.332Y121.917
X360.332Y119.377
X360.332Y116.837
X360.332Y114.297
X366.682Y162.327
X369.222Y162.327
X371.762Y162.327
X377.452Y96.034
X377.452Y93.494
X377.452Y90.954
X377.452Y88.414
X377.452Y85.874
X377.452Y83.334
X377.452Y80.794
X377.452Y78.254
X377.452Y75.714
X377.452Y73.174
X377.452Y70.634
X377.452Y68.094
X377.452Y65.554
X377.452Y63.014
X377.452Y60.474
X377.452Y57.934
X377.452Y55.394
X377.452Y52.854
X377.452Y50.314
X377.452Y47.774
X378.112Y162.557
X378.112Y160.017
X378.112Y157.477
X378.112Y154.937
X378.112Y152.397
X378.112Y149.857
X378.112Y147.317
X378.112Y144.777
X378.112Y142.237
X378.112Y139.697
X378.112Y137.157
X378.112Y134.617
X378.112Y132.077
X378.112Y129.537
X378.112Y126.997
X378.112Y124.457
X378.112Y121.917
X378.112Y119.377
X378.112Y116.837
X378.112Y114.297
X383.802Y95.804
X386.342Y95.804
X388.882Y95.804
X395.232Y96.034
X395.232Y93.494
X395.232Y90.954
X395.232Y88.414
X395.232Y85.874
X395.232Y83.334
X395.232Y80.794
X395.232Y78.254
X395.232Y75.714
X395.232Y73.174
X395.232Y70.634
X395.232Y68.094
X395.232Y65.554
X395.232Y63.014
X395.232Y60.474
X395.232Y57.934
X395.232Y55.394
X395.232Y52.854
X395.232Y50.314
X395.232Y47.774
T11
X24.58Y17.72
X24.58Y15.22
X30.48Y17.72
X30.48Y15.22
X169.08Y8.282
X169.08Y5.742
X171.62Y8.282
X171.62Y5.742
X174.16Y8.282
X174.16Y5.742
X176.7Y8.282
X176.7Y5.742
X179.24Y8.282
X179.24Y5.742
T12
X181.593Y109.29
X186.673Y109.29
X196.833Y109.29
X199.373Y109.29
T13
X38.99Y154.36
X84.71Y154.36
T14
X3.991Y55.115
X3.991Y42.915
X5.292Y99.157
X5.292Y77.157
X9.991Y40.915
X15.991Y55.115
X15.991Y42.915
X18.63Y25.077
X26.56Y33.8
X40.63Y25.077
X41.8Y33.8
X185.783Y134.001
X185.783Y121.801
X191.783Y119.801
X194.34Y5.06
X197.783Y134.001
X197.783Y121.801
X199.42Y5.06
X204.5Y5.06
X209.58Y5.06
T15
X275.46Y3.0
X279.27Y3.0
X283.08Y3.0
X286.89Y3.0
X290.7Y3.0
X294.51Y3.0
T16
X91.897Y3.047
X95.707Y3.047
X99.517Y3.047
X103.327Y3.047
T17
X58.733Y142.083
X80.577Y44.903
X166.074Y75.256
X174.964Y38.147
X218.31Y24.63
T18
X116.8Y2.939
X132.34Y2.939
T19
X7.07Y10.7
T20
X23.862Y188.18
X23.862Y183.18
X31.352Y188.18
X31.352Y183.18
X373.798Y188.18
X373.798Y183.18
X381.288Y188.18
X381.288Y183.18
T21
X312.37Y8.38
X322.53Y8.38
X337.8Y8.52
X347.96Y8.52
X363.46Y8.37
X373.62Y8.37
X388.55Y8.43
X398.71Y8.43
T22
X143.67Y5.337
X155.71Y5.337
T23
X89.772Y190.875
X178.672Y190.875
X223.808Y190.875
X312.708Y190.875
T24
X50.091Y4.052
X75.091Y4.052
T5
G00X6.467Y4.7
M15
G01X7.673Y4.7
M16
G05
T9
G00X2.32Y9.4
M15
G01X2.32Y8.4
M16
G05
G00X2.32Y4.7
M15
G01X2.32Y3.7
M16
G05
G00X11.82Y9.4
M15
G01X11.82Y8.4
M16
G05
G00X11.82Y4.7
M15
G01X11.82Y3.7
M16
G05
T0
M30
